<svg width="512" height="512" viewBox="0 0 512 512" fill="none" xmlns="http://www.w3.org/2000/svg">
<path fill-rule="evenodd" clip-rule="evenodd" d="M245.901 259.899C244.952 268.948 237.3 276 228 276C218.059 276 210 267.941 210 258C210 248.059 218.059 240 228 240C236.853 240 244.213 246.391 245.718 254.81C247.402 253.973 250.534 253 256 253C261.466 253 264.598 253.973 266.282 254.81C267.787 246.391 275.147 240 284 240C293.941 240 302 248.059 302 258C302 267.941 293.941 276 284 276C274.7 276 267.048 268.948 266.099 259.899C264.238 259.043 260.954 258 256 258C251.046 258 247.762 259.043 245.901 259.899Z" fill="black"/>
<path fill-rule="evenodd" clip-rule="evenodd" d="M296.488 251.665C296.031 250.766 295.48 249.923 294.847 249.149L270.908 262.97C271.267 263.916 271.726 264.812 272.271 265.647L296.488 251.665ZM297.611 254.708C297.865 255.764 298 256.866 298 258C298 265.732 291.732 272 284 272C280.258 272 276.858 270.532 274.347 268.14L297.611 254.708Z" fill="white"/>
<path fill-rule="evenodd" clip-rule="evenodd" d="M240.509 251.707C240.055 250.806 239.507 249.961 238.877 249.185L214.925 263.014C215.287 263.958 215.748 264.853 216.296 265.686L240.509 251.707ZM241.622 254.755C241.869 255.796 242 256.883 242 258C242 265.732 235.732 272 228 272C224.275 272 220.89 270.545 218.381 268.173L241.622 254.755Z" fill="white"/>
</svg>
