<svg width="512" height="512" viewBox="0 0 512 512" fill="none" xmlns="http://www.w3.org/2000/svg">
<path d="M225 270C232.732 270 239 263.732 239 256C239 248.268 232.732 242 225 242C217.268 242 211 248.268 211 256C211 263.732 217.268 270 225 270Z" fill="black" fill-opacity="0.3"/>
<path d="M287 270C294.732 270 301 263.732 301 256C301 248.268 294.732 242 287 242C279.268 242 273 248.268 273 256C273 263.732 279.268 270 287 270Z" fill="black" fill-opacity="0.3"/>
<path d="M246 255C246 255 248 252 256 252C264 252 266 255 266 255V260C266 260 263 257 256 257C249 257 246 260 246 260V255Z" fill="black"/>
<path fill-rule="evenodd" clip-rule="evenodd" d="M275 233C268.373 233 263 238.373 263 245V267C263 273.627 268.373 279 275 279H309C315.627 279 321 273.627 321 267V245C321 238.373 315.627 233 309 233H275ZM276 238C271.582 238 268 241.582 268 246V266C268 270.418 271.582 274 276 274H308C312.418 274 316 270.418 316 266V246C316 241.582 312.418 238 308 238H276Z" fill="black"/>
<path fill-rule="evenodd" clip-rule="evenodd" d="M203 233C196.373 233 191 238.373 191 245V267C191 273.627 196.373 279 203 279H237C243.627 279 249 273.627 249 267V245C249 238.373 243.627 233 237 233H203ZM204 238C199.582 238 196 241.582 196 246V266C196 270.418 199.582 274 204 274H236C240.418 274 244 270.418 244 266V246C244 241.582 240.418 238 236 238H204Z" fill="black"/>
</svg>
