<svg width="512" height="512" viewBox="0 0 512 512" fill="none" xmlns="http://www.w3.org/2000/svg">
<path fill-rule="evenodd" clip-rule="evenodd" d="M198 248C198 243.582 201.582 240 206 240H238C242.418 240 246 243.582 246 248V254.675C247.742 253.872 250.825 253 256 253C261.175 253 264.258 253.872 266 254.675V248C266 243.582 269.582 240 274 240H306C310.418 240 314 243.582 314 248V268C314 272.418 310.418 276 306 276H274C269.582 276 266 272.418 266 268V259.854C264.122 259.007 260.867 258 256 258C251.133 258 247.878 259.007 246 259.854V268C246 272.418 242.418 276 238 276H206C201.582 276 198 272.418 198 268V248Z" fill="black"/>
<path fill-rule="evenodd" clip-rule="evenodd" d="M275.866 272H275C273.424 272 272.018 271.271 271.102 270.132L309.846 247.763C309.946 248.159 310 248.573 310 249V252.293L275.866 272ZM310 256.674V267C310 269.761 307.761 272 305 272H283.454L310 256.674Z" fill="white"/>
<path fill-rule="evenodd" clip-rule="evenodd" d="M207.863 272H206.997C205.421 272 204.015 271.271 203.099 270.132L241.842 247.763C241.943 248.159 241.997 248.573 241.997 249V252.293L207.863 272ZM241.997 256.674V267C241.997 269.761 239.758 272 236.997 272H215.451L241.997 256.674Z" fill="white"/>
</svg>
