<svg viewBox="0 0 512 512" fill="none" xmlns="http://www.w3.org/2000/svg">
<path fill-rule="evenodd" clip-rule="evenodd" d="M194 256C194 245.507 202.507 237 213 237H231C240.058 237 247.636 243.338 249.539 251.822C251.108 251.141 253.303 250.5 256 250.5C258.697 250.5 260.892 251.141 262.461 251.822C264.365 243.338 271.942 237 281 237H299C309.493 237 318 245.507 318 256C318 266.493 309.493 275 299 275H281C270.527 275 262.034 266.527 262 256.062C260.957 255.454 258.861 254.5 256 254.5C253.139 254.5 251.043 255.454 250 256.063C249.966 266.527 241.473 275 231 275H213C202.507 275 194 266.493 194 256Z" fill="black"/>
<path fill-rule="evenodd" clip-rule="evenodd" d="M310.773 246.703C309.951 245.665 308.995 244.737 307.931 243.947L269.791 265.968C270.687 266.975 271.717 267.86 272.853 268.597L310.773 246.703ZM312.886 250.317C313.604 252.07 314 253.989 314 256C314 264.284 307.284 271 299 271H281C279.864 271 278.758 270.874 277.695 270.635L312.886 250.317Z" fill="white"/>
<path fill-rule="evenodd" clip-rule="evenodd" d="M242.773 246.703C241.951 245.665 240.995 244.737 239.931 243.947L201.791 265.968C202.687 266.975 203.717 267.86 204.853 268.597L242.773 246.703ZM244.886 250.317C245.604 252.07 246 253.989 246 256C246 264.284 239.284 271 231 271H213C211.864 271 210.758 270.874 209.695 270.635L244.886 250.317Z" fill="white"/>
</svg>
