<svg viewBox="0 0 512 512" fill="none" xmlns="http://www.w3.org/2000/svg">
<path d="M190.628 242H321.37C325.551 242 328.451 246.17 326.995 250.089L319.905 269.178C318.158 273.88 313.671 277 308.655 277H277.343C272.327 277 267.841 273.88 266.094 269.178L258.971 250H253.028L245.905 269.178C244.158 273.88 239.671 277 234.655 277H203.343C198.327 277 193.841 273.88 192.094 269.178L185.004 250.089C183.548 246.17 186.447 242 190.628 242Z" fill="black"/>
<path d="M322.79 249.922L274.455 272.461C275.359 272.811 276.335 273 277.343 273H308.655C311.999 273 314.99 270.92 316.155 267.785L322.79 249.922Z" fill="white"/>
<path d="M242.156 267.785L248.709 250.144L200.676 272.542C201.517 272.84 202.417 273 203.345 273H234.657C238.001 273 240.992 270.92 242.156 267.785Z" fill="white"/>
</svg>
