<svg viewBox="0 0 512 512" fill="none" xmlns="http://www.w3.org/2000/svg">
<path d="M248.179 259.633C244.352 269.214 239.05 282.49 217.001 282.49C194.722 282.49 192.124 265.684 190.383 254.425C189.507 248.754 188.847 244.49 186 244.49C185.5 241.99 185.5 237.49 185.5 235.49C225.582 231.689 237.009 236.007 245.03 239.037C248.616 240.392 251.52 241.49 256 241.49C260.48 241.49 263.384 240.392 266.97 239.037C274.991 236.007 286.418 231.689 326.5 235.49C326.5 237.49 326.5 241.99 326 244.49C323.153 244.49 322.493 248.754 321.617 254.425C319.876 265.684 317.278 282.49 294.999 282.49C272.95 282.49 267.648 269.214 263.821 259.633C261.66 254.222 259.97 249.99 256 249.99C252.03 249.99 250.34 254.222 248.179 259.633Z" fill="black"/>
<path d="M274.523 272.357C289.435 273.638 307.364 267.617 318.211 256.759C317.173 263.05 315.563 269.847 310.734 274.36C307.579 277.308 302.768 279.49 295 279.49C287.596 279.49 279.871 277.766 274.523 272.357Z" fill="white"/>
<path d="M246.299 256.281C243.428 263.195 240.846 270.491 234.398 274.943C230.573 277.583 225.134 279.49 217.001 279.49C209.783 279.49 202.538 277.268 198.479 271.004C214.194 273.38 234.17 267.521 246.299 256.281Z" fill="white"/>
</svg>
