<svg viewBox="0 0 512 512" fill="none" xmlns="http://www.w3.org/2000/svg">
<path fill-rule="evenodd" clip-rule="evenodd" d="M224.148 276.514C208.649 276.514 185.481 253.014 191.148 244.514C196.575 236.373 245.33 236.996 249.504 248.062C253.685 246.649 258.315 246.649 262.496 248.062C266.67 236.996 315.424 236.373 320.852 244.514C326.518 253.014 303.351 276.514 287.852 276.514C277.449 276.514 263.686 264.029 262.142 253.286C258.3 251.568 253.7 251.568 249.857 253.286C248.314 264.029 234.551 276.514 224.148 276.514Z" fill="black"/>
<path d="M272.242 265.319C286.854 266.047 307.812 259.947 317.829 251.213C317.745 251.407 317.655 251.606 317.557 251.811C313.877 259.545 306.289 266.031 298.903 270.078C294.871 272.288 291.028 273.514 287.852 273.514C283.215 273.514 277.131 270.279 272.242 265.319Z" fill="white"/>
<path d="M206.269 265.628C219.3 265.987 236.401 261.443 246.633 254.529C245.606 258.402 242.799 262.101 240.326 264.728C235.347 270.021 228.966 273.514 224.148 273.514C217.653 273.514 211.27 269.46 206.269 265.628Z" fill="white"/>
</svg>
