<svg viewBox="0 0 512 512" fill="none" xmlns="http://www.w3.org/2000/svg">
<path d="M225 268C231.627 268 237 262.627 237 256C237 249.373 231.627 244 225 244C218.373 244 213 249.373 213 256C213 262.627 218.373 268 225 268Z" fill="black" fill-opacity="0.299"/>
<path fill-rule="evenodd" clip-rule="evenodd" d="M195.336 263.188C206.375 284.466 236.795 288.681 248.527 265.398C250.324 261.833 251.402 258.041 251.811 254.428C253.914 253.036 258.086 253.036 260.189 254.428C260.598 258.041 261.676 261.834 263.473 265.398C275.205 288.681 305.625 284.466 316.664 263.188C323.54 249.933 323.963 235.404 307.372 232.501C296.583 230.612 284.557 231.09 274.007 234.075C266.579 236.176 261.182 240.047 260.19 247.993C257.503 247.297 254.496 247.297 251.809 247.993C250.818 240.047 245.421 236.176 237.993 234.075C227.443 231.09 215.417 230.612 204.628 232.501C188.037 235.404 188.46 249.933 195.336 263.188ZM243.169 262.698C233.596 281.696 209.483 277.427 200.662 260.425C195.707 250.875 193.292 240.576 205.662 238.411C215.568 236.677 226.672 237.108 236.36 239.848C247.412 242.975 247.674 253.759 243.169 262.698ZM268.831 262.698C278.404 281.696 302.517 277.427 311.338 260.425C316.292 250.875 318.708 240.576 306.338 238.411C296.432 236.677 285.328 237.108 275.64 239.848C264.588 242.975 264.326 253.759 268.831 262.698Z" fill="black"/>
<path d="M287 268C293.627 268 299 262.627 299 256C299 249.373 293.627 244 287 244C280.373 244 275 249.373 275 256C275 262.627 280.373 268 287 268Z" fill="black" fill-opacity="0.299"/>
</svg>
