<svg viewBox="0 0 512 512" fill="none" xmlns="http://www.w3.org/2000/svg">
<path fill-rule="evenodd" clip-rule="evenodd" d="M214.999 237C229.776 237 236.155 239.099 241.662 240.912C245.845 242.289 249.525 243.5 256 243.5C262.475 243.5 266.155 242.289 270.338 240.912C275.845 239.099 282.224 237 297.001 237C320 237 320 240.5 320 257C320 277.5 306.867 280 295.501 280C272.876 280 267.716 269.237 263.973 261.43C261.843 256.986 260.171 253.5 256 253.5C251.829 253.5 250.157 256.986 248.027 261.43C244.284 269.237 239.124 280 216.499 280C205.132 280 192 277.5 192 257C192 240.5 192 237 214.999 237ZM245.5 250.5C245.5 259.5 240.5 276 217.437 276C207.491 276 196 274 196 257.75C196 243.312 196 241 216.124 241C229.352 241 245.5 244 245.5 250.5ZM266.5 250.5C266.5 259.5 271.5 276 294.563 276C304.509 276 316 274 316 257.75C316 243.312 316 241 295.876 241C282.648 241 266.5 244 266.5 250.5Z" fill="black"/>
<path d="M223 270C229.627 270 235 264.627 235 258C235 251.373 229.627 246 223 246C216.373 246 211 251.373 211 258C211 264.627 216.373 270 223 270Z" fill="black" fill-opacity="0.299"/>
<path d="M289 270C295.627 270 301 264.627 301 258C301 251.373 295.627 246 289 246C282.373 246 277 251.373 277 258C277 264.627 282.373 270 289 270Z" fill="black" fill-opacity="0.299"/>
</svg>
