<svg viewBox="0 0 512 512" fill="none" xmlns="http://www.w3.org/2000/svg">
<path d="M224 270C230.627 270 236 264.627 236 258C236 251.373 230.627 246 224 246C217.373 246 212 251.373 212 258C212 264.627 217.373 270 224 270Z" fill="black" fill-opacity="0.299"/>
<path d="M288 270C294.627 270 300 264.627 300 258C300 251.373 294.627 246 288 246C281.373 246 276 251.373 276 258C276 264.627 281.373 270 288 270Z" fill="black" fill-opacity="0.299"/>
<path fill-rule="evenodd" clip-rule="evenodd" d="M248.964 259.078C248.216 270.175 235.982 279 221 279C205.536 279 193 269.598 193 258C193 246.402 205.536 237 221 237C234.566 237 245.879 244.236 248.451 253.842C253.212 252.022 258.788 252.022 263.549 253.842C266.121 244.236 277.434 237 291 237C306.464 237 319 246.402 319 258C319 269.598 306.464 279 291 279C276.018 279 263.784 270.175 263.036 259.077C258.807 256.914 253.193 256.914 248.964 259.078ZM221 274C233.703 274 244 266.837 244 258C244 249.163 233.703 242 221 242C208.297 242 198 249.163 198 258C198 266.837 208.297 274 221 274ZM291 274C303.703 274 314 266.837 314 258C314 249.163 303.703 242 291 242C278.297 242 268 249.163 268 258C268 266.837 278.297 274 291 274Z" fill="black"/>
</svg>
