<svg viewBox="0 0 512 512" fill="none" xmlns="http://www.w3.org/2000/svg">
<path d="M226 270C232.075 270 237 265.075 237 259C237 252.925 232.075 248 226 248C219.925 248 215 252.925 215 259C215 265.075 219.925 270 226 270Z" fill="black" fill-opacity="0.299"/>
<path d="M286 270C292.075 270 297 265.075 297 259C297 252.925 292.075 248 286 248C279.925 248 275 252.925 275 259C275 265.075 279.925 270 286 270Z" fill="black" fill-opacity="0.299"/>
<path fill-rule="evenodd" clip-rule="evenodd" d="M197.075 245V249C202 249 197.576 280 225.575 280C242.318 280 248.346 266.39 248.949 256.579C252.132 253.58 259.869 253.58 263.051 256.58C263.654 266.39 269.682 280 286.424 280C314.424 280 310 249 314.924 249V245C310 245 300.924 238.5 286.424 238.5C277.63 238.5 265.451 240.659 263.366 250.932C258.899 248.933 253.1 248.933 248.634 250.931C246.549 240.659 234.369 238.5 225.576 238.5C211.076 238.5 202 245 197.075 245ZM206.576 255C206.576 266.5 211.797 276 225.576 276C243.576 276 246.501 257.982 243.719 251.114C240.937 244.247 235.52 242.5 224.857 242.5C218.25 242.5 206.576 244.5 206.576 255ZM305.423 255C305.423 266.5 300.203 276 286.423 276C268.424 276 265.499 257.982 268.281 251.114C271.062 244.247 276.479 242.5 287.142 242.5C293.749 242.5 305.423 244.5 305.423 255Z" fill="black"/>
</svg>
