<svg viewBox="0 0 512 512" fill="none" xmlns="http://www.w3.org/2000/svg">
<path d="M214.999 237C192 237 192 240.5 192 257C192 277.5 205.132 280 216.499 280C239.124 280 243.027 271.43 248 261.5C252.973 251.57 259.026 251.57 264 261.5C268.974 271.43 272.877 280 295.501 280C306.868 280 320 277.5 320 257C320 240.5 320 237 297.001 237C271 237 271 243.5 256 243.5C241 243.5 241 237 214.999 237Z" fill="black"/>
<path d="M245.438 249.812L203.481 273.259C202.264 272.573 201.145 271.722 200.164 270.67L243.224 246.607C244.438 247.55 245.221 248.618 245.438 249.812Z" fill="white"/>
<path d="M245.243 254.156C243.978 263.346 237.634 276 217.436 276C214.284 276 210.978 275.799 207.93 275.007L245.243 254.156Z" fill="white"/>
<path d="M315.103 246.53L274.363 269.296C275.37 270.215 276.494 271.073 277.749 271.846L315.846 250.557C315.723 248.974 315.502 247.645 315.103 246.53Z" fill="white"/>
<path d="M315.991 254.711L281.766 273.837C285.242 275.192 289.46 276 294.563 276C308.953 276 316.118 268.982 315.991 254.711Z" fill="white"/>
</svg>
