<svg viewBox="0 0 512 512" fill="none" xmlns="http://www.w3.org/2000/svg">
<path d="M250.997 249.59C250.715 237.943 238.324 235.5 223.002 235.5C207.502 235.5 187.24 235.841 190.312 249.5C195.823 274 201.823 280 223.002 280C242.209 280 248.909 267.286 250.558 256.104C253.722 254.518 258.282 254.518 261.445 256.106C263.094 267.287 269.795 280 289 280C310.18 280 316.18 274 321.691 249.5C324.763 235.841 304.5 235.5 289 235.5C273.678 235.5 261.288 237.943 261.005 249.591C257.777 248.771 254.226 248.771 250.997 249.59Z" fill="black"/>
<path fill-rule="evenodd" clip-rule="evenodd" d="M276.279 273.163C274.952 272.439 273.786 271.603 272.76 270.687L317.809 245.512C318 247 317.786 248.661 317.434 250.164L276.279 273.163ZM316.19 255.094C313.945 263.294 311.591 268.09 308.476 271.028C304.815 274.482 299.383 276 288.999 276C285.809 276 283.056 275.616 280.676 274.94L316.19 255.094Z" fill="white"/>
<path fill-rule="evenodd" clip-rule="evenodd" d="M246.831 253.62L209.538 274.461C212.821 275.512 217.116 276 223.002 276C233.198 276 238.93 272.078 242.28 267.227C245.054 263.211 246.391 258.256 246.831 253.62ZM205.416 272.529L246.983 249.3C246.891 247.665 246.475 246.439 245.878 245.476L202.357 269.796C203.282 270.882 204.261 271.764 205.416 272.529Z" fill="white"/>
</svg>
