<svg viewBox="0 0 512 512" fill="none" xmlns="http://www.w3.org/2000/svg">
<path fill-rule="evenodd" clip-rule="evenodd" d="M250.478 249.251C248.028 241.598 237.704 235.5 222.691 235.5C207.191 235.5 201.191 238 200.191 239.5C199.191 241 200.191 280 222.691 280C241.841 280 250.125 264.063 250.934 254.385C254.006 253.122 257.995 253.122 261.067 254.385C261.876 264.063 270.16 280 289.31 280C311.81 280 312.81 241 311.81 239.5C310.81 238 304.81 235.5 289.31 235.5C274.296 235.5 263.973 241.599 261.523 249.252C258.004 248.205 253.997 248.205 250.478 249.251Z" fill="black"/>
<path fill-rule="evenodd" clip-rule="evenodd" d="M273.46 270.332C272.437 269.432 271.514 268.459 270.688 267.439L307.849 246.672C307.722 248.132 307.532 249.745 307.262 251.442L273.46 270.332ZM306.327 256.2C305.062 261.546 303.137 267.063 299.458 271.238C293.679 277.797 283.74 276.911 276.746 272.731L306.327 256.2Z" fill="white"/>
<path fill-rule="evenodd" clip-rule="evenodd" d="M209.564 266.891C210.202 268.067 210.899 269.165 211.66 270.162L246.7 250.58C246.359 249.464 245.74 248.315 244.81 247.194L209.564 266.891ZM214.267 272.94C222.97 280.304 236.941 273.994 242.573 265.745C244.799 262.484 246.396 258.654 246.878 254.716L214.267 272.94Z" fill="white"/>
</svg>
