<svg viewBox="0 0 512 512" fill="none" xmlns="http://www.w3.org/2000/svg">
<path d="M244.179 244.887C238.538 243.596 231.566 242 216.083 242C193.084 242 179.572 242 187.084 262C193.421 278.873 206.216 279 217.583 279C240.981 279 246.134 270.095 249.648 264.024C251.458 260.896 252.833 258.52 256.042 258.5C259.251 258.52 260.626 260.896 262.436 264.024C265.949 270.095 271.103 279 294.501 279C305.867 279 318.662 278.873 325 262C332.511 242 319 242 296.001 242C280.518 242 273.545 243.596 267.904 244.887C264.083 245.761 260.873 246.496 256.042 246.5C251.211 246.496 248.001 245.761 244.179 244.887Z" fill="black"/>
<path d="M280.474 273.48C278.407 272.941 276.697 272.296 275.24 271.582L322.639 250.251C323.225 251.509 323.143 253.022 322.964 254.358L280.474 273.48Z" fill="white"/>
<path d="M321.85 258.913C319.843 264.988 316.346 270.663 310.165 273.108C303.152 275.882 294.37 275.424 286.939 274.624L321.85 258.913Z" fill="white"/>
<path fill-rule="evenodd" clip-rule="evenodd" d="M248.089 253.652C247.848 252.274 247.23 251.11 246.228 250.237L198.87 271.55C200.382 272.526 201.944 273.192 203.579 273.683L248.089 253.652ZM210.099 274.803C218.508 275.444 227.83 275.443 235.678 272.114C241.486 269.651 246.288 263.976 247.836 257.82L210.099 274.803Z" fill="white"/>
</svg>
