<svg viewBox="0 0 512 512" fill="none" xmlns="http://www.w3.org/2000/svg">
<path d="M227 278.5C201.193 278.5 188 255.23 188 246.5C188 238.338 203.636 239.616 224.221 241.298C234.071 242.103 245.054 243 255.999 243C266.616 243 277.206 242.162 287.78 241.298C308.364 239.616 324 238.338 324 246.5C324 255.23 310.807 278.5 285 278.5C274.395 278.5 267.78 268.812 262.956 261.747C259.815 257.147 260 254.499 255.998 254.499C251.997 254.499 252.163 257.18 249.045 261.747C244.22 268.812 237.606 278.5 227 278.5Z" fill="black"/>
<path fill-rule="evenodd" clip-rule="evenodd" d="M243.058 249.12C241.869 248.408 240.419 247.841 238.782 247.38L207.914 268.994C209.106 269.754 210.362 270.458 211.683 271.089L243.058 249.12ZM245.773 251.732C247.306 254.414 246.628 258.317 242.491 264.108C238.199 270.115 233.257 274.5 227 274.5C222.905 274.5 219.164 273.851 215.777 272.736L245.773 251.732Z" fill="white"/>
<path fill-rule="evenodd" clip-rule="evenodd" d="M315.707 244.462C314.012 244.2 311.95 244.071 309.531 244.053L273.758 269.101C274.741 270.078 275.754 270.952 276.808 271.699L315.707 244.462ZM319.92 246.025C321.462 251.275 314.401 259.71 311.269 263.027C305.344 269.301 296.594 274.5 284.999 274.5C283.393 274.5 281.88 274.205 280.446 273.666L319.92 246.025Z" fill="white"/>
</svg>
