<svg viewBox="0 0 512 512" fill="none" xmlns="http://www.w3.org/2000/svg">
<path d="M246 255C246 255 248 252 256 252C264 252 266 255 266 255V260C266 260 263 257 256 257C249 257 246 260 246 260V255Z" fill="black"/>
<path fill-rule="evenodd" clip-rule="evenodd" d="M287 280C300.255 280 311 269.255 311 256C311 242.745 300.255 232 287 232C273.745 232 263 242.745 263 256C263 269.255 273.745 280 287 280ZM287 275C297.493 275 306 266.493 306 256C306 245.507 297.493 237 287 237C276.507 237 268 245.507 268 256C268 266.493 276.507 275 287 275Z" fill="black"/>
<path fill-rule="evenodd" clip-rule="evenodd" d="M225 280C238.255 280 249 269.255 249 256C249 242.745 238.255 232 225 232C211.745 232 201 242.745 201 256C201 269.255 211.745 280 225 280ZM225 275C235.493 275 244 266.493 244 256C244 245.507 235.493 237 225 237C214.507 237 206 245.507 206 256C206 266.493 214.507 275 225 275Z" fill="black"/>
<path d="M225 270C232.732 270 239 263.732 239 256C239 248.268 232.732 242 225 242C217.268 242 211 248.268 211 256C211 263.732 217.268 270 225 270Z" fill="black" fill-opacity="0.3"/>
<path d="M287 270C294.732 270 301 263.732 301 256C301 248.268 294.732 242 287 242C279.268 242 273 248.268 273 256C273 263.732 279.268 270 287 270Z" fill="black" fill-opacity="0.3"/>
</svg>
