<svg viewBox="0 0 512 512" fill="none" xmlns="http://www.w3.org/2000/svg">
<path fill-rule="evenodd" clip-rule="evenodd" d="M248.894 258.274C247.748 270.462 237.488 280 225 280C211.745 280 201 269.255 201 256C201 242.745 211.745 232 225 232C237.284 232 247.412 241.229 248.83 253.131C250.37 252.522 252.663 252 256 252C259.337 252 261.63 252.522 263.17 253.131C264.588 241.229 274.716 232 287 232C300.255 232 311 242.745 311 256C311 269.255 300.255 280 287 280C274.512 280 264.252 270.462 263.106 258.274C261.485 257.606 259.147 257 256 257C252.853 257 250.515 257.606 248.894 258.274ZM244 256C244 266.493 235.493 275 225 275C214.507 275 206 266.493 206 256C206 245.507 214.507 237 225 237C235.493 237 244 245.507 244 256ZM287 275C297.493 275 306 266.493 306 256C306 245.507 297.493 237 287 237C276.507 237 268 245.507 268 256C268 266.493 276.507 275 287 275Z" fill="black"/>
<path d="M225 268C231.627 268 237 262.627 237 256C237 249.373 231.627 244 225 244C218.373 244 213 249.373 213 256C213 262.627 218.373 268 225 268Z" fill="black" fill-opacity="0.299"/>
<path d="M287 268C293.627 268 299 262.627 299 256C299 249.373 293.627 244 287 244C280.373 244 275 249.373 275 256C275 262.627 280.373 268 287 268Z" fill="black" fill-opacity="0.299"/>
</svg>
