<svg viewBox="0 0 512 512" fill="none" xmlns="http://www.w3.org/2000/svg">
<path d="M225 269C232.18 269 238 263.18 238 256C238 248.82 232.18 243 225 243C217.82 243 212 248.82 212 256C212 263.18 217.82 269 225 269Z" fill="black" fill-opacity="0.299"/>
<path d="M287 269C294.18 269 300 263.18 300 256C300 248.82 294.18 243 287 243C279.82 243 274 248.82 274 256C274 263.18 279.82 269 287 269Z" fill="black" fill-opacity="0.299"/>
<path fill-rule="evenodd" clip-rule="evenodd" d="M191 245C191 238.373 196.373 233 203 233H237C243.627 233 249 238.373 249 245V253.065C250.537 252.485 252.783 252 256 252C259.217 252 261.463 252.485 263 253.065V245C263 238.373 268.373 233 275 233H309C315.627 233 321 238.373 321 245V267C321 273.627 315.627 279 309 279H275C268.373 279 263 273.627 263 267V258.23C261.384 257.58 259.079 257 256 257C252.921 257 250.616 257.58 249 258.23V267C249 273.627 243.627 279 237 279H203C196.373 279 191 273.627 191 267V245ZM196 246C196 241.582 199.582 238 204 238H236C240.418 238 244 241.582 244 246V266C244 270.418 240.418 274 236 274H204C199.582 274 196 270.418 196 266V246ZM276 238C271.582 238 268 241.582 268 246V266C268 270.418 271.582 274 276 274H308C312.418 274 316 270.418 316 266V246C316 241.582 312.418 238 308 238H276Z" fill="black"/>
</svg>
