<svg viewBox="0 0 512 512" fill="none" xmlns="http://www.w3.org/2000/svg">
<path d="M316 258C316 235 301.5 235 291.5 235C281.5 235 263.5 236.5 263.5 248.5C263.5 261.5 281.5 282 296 282C306.5 282 316 271.509 316 258Z" fill="black"/>
<path fill-rule="evenodd" clip-rule="evenodd" d="M310.005 244.405L274.005 265.189C274.794 266.175 275.629 267.141 276.504 268.076C276.517 268.091 276.531 268.105 276.545 268.12L311.618 247.87C311.164 246.521 310.618 245.377 310.005 244.405ZM312.608 252.132L279.656 271.157C285.038 275.952 290.997 279 296 279C304.42 279 313 270.309 313 258C313 255.794 312.861 253.85 312.608 252.132Z" fill="white"/>
<path d="M200 258C200 235 214.5 235 224.5 235C234.5 235 252.5 236.5 252.5 248.5C252.5 261.5 234.5 282 220 282C209.5 282 200 271.509 200 258Z" fill="black"/>
<path fill-rule="evenodd" clip-rule="evenodd" d="M208.083 272.809C207.291 271.851 206.567 270.796 205.93 269.655L248.624 245.006C249.188 245.99 249.5 247.131 249.5 248.5C249.5 248.632 249.498 248.766 249.493 248.901L208.083 272.809ZM248.297 254.425C247.893 255.529 247.39 256.677 246.789 257.855C245.016 261.328 242.483 264.882 239.496 268.076C233.387 274.609 226.005 279 220 279C216.956 279 213.891 277.864 211.218 275.832L248.297 254.425Z" fill="white"/>
<path fill-rule="evenodd" clip-rule="evenodd" d="M258 242C260.232 242 262.155 242.558 263.526 243.843C264.912 245.143 265.5 246.966 265.5 249C265.5 249.828 264.828 250.5 264 250.5C263.172 250.5 262.5 249.828 262.5 249C262.5 247.534 262.088 246.607 261.474 246.032C260.845 245.442 259.768 245 258 245C256.232 245 255.155 245.442 254.526 246.032C253.912 246.607 253.5 247.534 253.5 249C253.5 249.828 252.828 250.5 252 250.5C251.172 250.5 250.5 249.828 250.5 249C250.5 246.966 251.088 245.143 252.474 243.843C253.845 242.558 255.768 242 258 242Z" fill="black"/>
<path fill-rule="evenodd" clip-rule="evenodd" d="M239.5 235.5H258H276.5C277.328 235.5 278 236.172 278 237C278 237.828 277.328 238.5 276.5 238.5H258H239.5C238.672 238.5 238 237.828 238 237C238 236.172 238.672 235.5 239.5 235.5Z" fill="black"/>
</svg>
