<svg viewBox="0 0 512 512" fill="none" xmlns="http://www.w3.org/2000/svg">
<path d="M314 258C314 235 299.5 235 289.5 235C279.5 235 261.5 236.5 261.5 248.5C261.5 261.5 279.5 282 294 282C304.5 282 314 271.509 314 258Z" fill="black"/>
<path fill-rule="evenodd" clip-rule="evenodd" d="M308.005 244.405L272.005 265.189C272.794 266.175 273.629 267.141 274.504 268.076C274.517 268.091 274.531 268.105 274.545 268.12L309.618 247.87C309.164 246.521 308.618 245.377 308.005 244.405ZM310.608 252.133L277.656 271.157C283.038 275.952 288.997 279 294 279C302.42 279 311 270.31 311 258C311 255.795 310.861 253.85 310.608 252.133Z" fill="white"/>
<path d="M198 258C198 235 212.5 235 222.5 235C232.5 235 250.5 236.5 250.5 248.5C250.5 261.5 232.5 282 218 282C207.5 282 198 271.509 198 258Z" fill="black"/>
<path fill-rule="evenodd" clip-rule="evenodd" d="M206.083 272.809C205.291 271.851 204.567 270.796 203.93 269.655L246.624 245.006C247.188 245.99 247.5 247.131 247.5 248.5C247.5 248.632 247.498 248.766 247.493 248.901L206.083 272.809ZM246.297 254.425C245.893 255.529 245.39 256.677 244.789 257.855C243.016 261.328 240.483 264.882 237.496 268.076C231.387 274.609 224.005 279 218 279C214.956 279 211.891 277.864 209.218 275.832L246.297 254.425Z" fill="white"/>
<path fill-rule="evenodd" clip-rule="evenodd" d="M256 242C258.232 242 260.155 242.558 261.526 243.843C262.912 245.143 263.5 246.966 263.5 249C263.5 249.828 262.828 250.5 262 250.5C261.172 250.5 260.5 249.828 260.5 249C260.5 247.534 260.088 246.607 259.474 246.032C258.845 245.442 257.768 245 256 245C254.232 245 253.155 245.442 252.526 246.032C251.912 246.607 251.5 247.534 251.5 249C251.5 249.828 250.828 250.5 250 250.5C249.172 250.5 248.5 249.828 248.5 249C248.5 246.966 249.088 245.143 250.474 243.843C251.845 242.558 253.768 242 256 242Z" fill="black"/>
<path fill-rule="evenodd" clip-rule="evenodd" d="M237.5 235.5H256H274.5C275.328 235.5 276 236.172 276 237C276 237.828 275.328 238.5 274.5 238.5H256H237.5C236.672 238.5 236 237.828 236 237C236 236.172 236.672 235.5 237.5 235.5Z" fill="black"/>
</svg>
