<svg viewBox="0 0 512 512" fill="none" xmlns="http://www.w3.org/2000/svg">
<path d="M225 274C232.732 274 239 267.732 239 260C239 252.268 232.732 246 225 246C217.268 246 211 252.268 211 260C211 267.732 217.268 274 225 274Z" fill="black" fill-opacity="0.3"/>
<path d="M287 274C294.732 274 301 267.732 301 260C301 252.268 294.732 246 287 246C279.268 246 273 252.268 273 260C273 267.732 279.268 274 287 274Z" fill="black" fill-opacity="0.3"/>
<path fill-rule="evenodd" clip-rule="evenodd" d="M227 236H211C197.745 236 187 246.745 187 260C187 273.255 197.745 284 211 284H227C239.579 284 249.897 274.323 250.917 262.008C254.089 260.645 257.911 260.645 261.083 262.008C262.103 274.323 272.421 284 285 284H301C314.255 284 325 273.255 325 260C325 246.745 314.255 236 301 236H285C273.131 236 263.274 244.616 261.343 255.935C258.064 254.62 253.936 254.62 250.657 255.935C248.726 244.616 238.869 236 227 236ZM227 242C236.941 242 245 250.059 245 260C245 269.941 236.941 278 227 278H211C201.059 278 193 269.941 193 260C193 250.059 201.059 242 211 242H227ZM301 242C310.941 242 319 250.059 319 260C319 269.941 310.941 278 301 278H285C275.059 278 267 269.941 267 260C267 250.059 275.059 242 285 242H301Z" fill="black"/>
</svg>
