<svg viewBox="0 0 512 512" fill="none" xmlns="http://www.w3.org/2000/svg">
<path d="M222.5 272C230.508 272 237 265.508 237 257.5C237 249.492 230.508 243 222.5 243C214.492 243 208 249.492 208 257.5C208 265.508 214.492 272 222.5 272Z" fill="black" fill-opacity="0.3"/>
<path d="M289.5 272C297.508 272 304 265.508 304 257.5C304 249.492 297.508 243 289.5 243C281.492 243 275 249.492 275 257.5C275 265.508 281.492 272 289.5 272Z" fill="black" fill-opacity="0.3"/>
<path fill-rule="evenodd" clip-rule="evenodd" d="M250.644 252.677C248.513 266.3 240.779 283 222.497 283C212.638 283 192.578 275.712 194.883 241.499C194.946 240.567 195.454 239.7 196.269 239.244C201.139 236.52 212.041 232 222.497 232C232.954 232 234.495 236.294 240.997 237C246.229 237.568 248 234.5 256 234.5C264 234.5 265.4 237.608 271 237C277.502 236.294 279.043 232 289.5 232C299.956 232 310.858 236.52 315.728 239.244C316.543 239.7 317.051 240.567 317.114 241.499C319.419 275.712 299.359 283 289.5 283C271.219 283 263.484 266.3 261.353 252.677C260.858 249.511 266.094 246.609 267.5 244C261.208 238.949 250.793 238.954 244.5 244C245.905 246.608 251.139 249.512 250.644 252.677ZM201.997 257.5C201.997 268.822 211.175 278 222.497 278C233.819 278 242.997 268.822 242.997 257.5C242.997 246.178 233.819 237 222.497 237C211.175 237 201.997 246.178 201.997 257.5ZM310 257.5C310 268.822 300.822 278 289.5 278C278.179 278 269 268.822 269 257.5C269 246.178 278.179 237 289.5 237C300.822 237 310 246.178 310 257.5Z" fill="black"/>
</svg>
