<svg viewBox="0 0 512 512" fill="none" xmlns="http://www.w3.org/2000/svg">
<path d="M128 176C128 149.49 149.49 128 176 128H336C362.51 128 384 149.49 384 176V284C384 339.228 339.228 384 284 384H228C172.772 384 128 339.228 128 284V176Z" fill="#00FFFF"/>
<path fill-rule="evenodd" clip-rule="evenodd" d="M159.837 357.171C177.698 373.816 201.66 384 228 384H284C339.228 384 384 339.228 384 284V176C384 158.905 375.063 143.897 361.607 135.393C366.29 142.804 369 151.586 369 161V277C369 327.81 327.81 369 277 369H205C188.587 369 173.178 364.702 159.837 357.171Z" fill="black" fill-opacity="0.15"/>
</svg>
