<svg viewBox="0 0 512 512" fill="none" xmlns="http://www.w3.org/2000/svg">
<path d="M128 176C128 149.49 149.49 128 176 128H336C362.51 128 384 149.49 384 176V272C384 333.856 333.856 384 272 384H240C178.144 384 128 333.856 128 272V176Z" fill="#00FFFF"/>
<path fill-rule="evenodd" clip-rule="evenodd" d="M153.658 343.342C174.201 368.176 205.253 384 240 384H272C333.856 384 384 333.856 384 272V176C384 158.905 375.064 143.897 361.607 135.393C366.29 142.804 369 151.586 369 161V265C369 322.438 322.438 369 265 369H225C197.892 369 173.033 359.369 153.658 343.342Z" fill="black" fill-opacity="0.15"/>
</svg>
