<svg viewBox="0 0 512 512" fill="none" xmlns="http://www.w3.org/2000/svg">
<path d="M128 176C128 149.49 149.49 128 176 128H336C362.51 128 384 149.49 384 176V260C384 328.483 328.483 384 260 384H252C183.517 384 128 328.483 128 260V176Z" fill="#00FFFF"/>
<path fill-rule="evenodd" clip-rule="evenodd" d="M169.581 352.647C191.489 372.15 220.361 384 252 384H260C328.483 384 384 328.483 384 260V176C384 158.905 375.063 143.897 361.606 135.393C366.289 142.804 369 151.586 369 161V253C369 317.065 317.065 369 253 369H229C207.283 369 186.96 363.032 169.581 352.647Z" fill="black" fill-opacity="0.15"/>
</svg>
