<svg viewBox="0 0 512 512" fill="none" xmlns="http://www.w3.org/2000/svg">
<path d="M128 176C128 149.49 149.49 128 176 128H336C362.51 128 384 149.49 384 176V256C384 326.692 326.692 384 256 384V384C185.308 384 128 326.692 128 256V176Z" fill="#00FFFF"/>
<path fill-rule="evenodd" clip-rule="evenodd" d="M158.3 338.7C181.779 366.411 216.835 384 256 384C326.693 384 384 326.692 384 256V176C384 158.905 375.063 143.897 361.607 135.393C366.29 142.804 369 151.586 369 161V241C369 311.692 311.693 369 241 369C209.472 369 180.607 357.601 158.3 338.7Z" fill="black" fill-opacity="0.15"/>
</svg>
