<svg viewBox="0 0 512 512" fill="none" xmlns="http://www.w3.org/2000/svg">
<path d="M127.743 192.032C127.735 156.686 156.654 128 192 128H320C355.346 128 384.266 156.686 384.257 192.032C384.229 308.454 375.321 384 256 384C136.679 384 127.771 308.454 127.743 192.032Z" fill="#00FFFF"/>
<path fill-rule="evenodd" clip-rule="evenodd" d="M156.51 346.52C175.188 370.648 205.837 384 256 384C375.321 384 384.229 308.454 384.257 192.032C384.261 175.55 377.975 160.517 367.681 149.165C368.665 152.963 369.197 156.942 369.216 161.039C369.808 286.488 365.701 369 241 369C202.456 369 175.434 361.117 156.51 346.52Z" fill="black" fill-opacity="0.15"/>
</svg>
