<svg viewBox="0 0 512 512" fill="none" xmlns="http://www.w3.org/2000/svg">
<path d="M127.074 174.782C127.322 148.765 148.735 128 174.753 128H337.246C363.264 128 384.677 148.765 384.925 174.782C386.128 300.937 372.179 384 256 384C139.82 384 125.871 300.937 127.074 174.782Z" fill="#00FFFF"/>
<path fill-rule="evenodd" clip-rule="evenodd" d="M159.555 346.027C178.864 370.466 209.103 384 255.999 384C372.179 384 386.127 300.937 384.925 174.782C384.766 158.13 375.936 143.629 362.778 135.347C367.23 142.44 369.839 150.798 369.925 159.782C371.127 285.937 357.179 369 240.999 369C204.808 369 178.537 360.94 159.555 346.027Z" fill="black" fill-opacity="0.15"/>
</svg>
