<svg viewBox="0 0 512 512" fill="none" xmlns="http://www.w3.org/2000/svg">
<path d="M126.899 189.548C126.55 155.186 155.159 128 189.523 128H322.476C356.841 128 385.45 155.186 385.101 189.548C383.906 307.378 359.001 384 256 384C152.999 384 128.093 307.378 126.899 189.548Z" fill="#00FFFF"/>
<path fill-rule="evenodd" clip-rule="evenodd" d="M163.319 345.829C183.058 370.393 212.595 384 256.001 384C359.001 384 383.907 307.378 385.102 189.548C385.267 173.296 378.954 158.65 368.619 147.726C369.581 151.375 370.105 155.206 370.129 159.163C370.899 285.665 348.419 369 241.001 369C207.445 369 182.178 360.868 163.319 345.829Z" fill="black" fill-opacity="0.15"/>
</svg>
