<svg viewBox="0 0 512 512" fill="none" xmlns="http://www.w3.org/2000/svg">
<path d="M126.173 172.935C126.493 147.65 147.659 128 172.945 128H339.054C364.34 128 385.506 147.65 385.827 172.935C387.438 300.125 354.785 384 256 384C157.215 384 124.561 300.125 126.173 172.935Z" fill="#00FFFF"/>
<path fill-rule="evenodd" clip-rule="evenodd" d="M166.229 345.212C186.667 370.165 215.879 384 256 384C354.785 384 387.438 300.125 385.827 172.935C385.623 156.86 376.994 143.062 364.237 135.144C368.321 141.78 370.721 149.547 370.827 157.935C372.438 285.125 339.785 369 241 369C209.823 369 185.233 360.646 166.229 345.212Z" fill="black" fill-opacity="0.15"/>
</svg>
