<svg viewBox="0 0 512 512" fill="none" xmlns="http://www.w3.org/2000/svg">
<path d="M126.637 187.931C125.783 154.227 154.213 128 187.928 128H324.072C357.788 128 386.218 154.227 385.364 187.931C382.356 306.677 342.226 384 256 384C169.774 384 129.644 306.677 126.637 187.931Z" fill="#00FFFF"/>
<path fill-rule="evenodd" clip-rule="evenodd" d="M170.752 345.341C191.399 370.213 219.59 384 256.001 384C342.226 384 382.356 306.677 385.364 187.931C385.773 171.804 379.476 157.388 369.104 146.739C370.044 150.307 370.546 154.058 370.547 157.943C370.606 285.129 330.803 369 241.001 369C212.737 369 189.426 360.692 170.752 345.341Z" fill="black" fill-opacity="0.15"/>
</svg>
