<svg viewBox="0 0 512 512" fill="none" xmlns="http://www.w3.org/2000/svg">
<path d="M125.55 185.942C124.947 153.036 153.083 128 185.995 128H326.004C358.916 128 387.052 153.036 386.449 185.942C384.254 305.813 334.035 384 256 384C177.964 384 127.744 305.813 125.55 185.942Z" fill="#00FFFF"/>
<path fill-rule="evenodd" clip-rule="evenodd" d="M173.058 344.351C194.632 369.846 222.798 384 256 384C334.036 384 384.255 305.813 386.45 185.942C386.74 170.097 380.366 156.076 370.004 145.797C370.921 149.181 371.432 152.741 371.482 156.434C373.208 284.465 322.142 369 241 369C215.021 369 192.125 360.335 173.058 344.351Z" fill="black" fill-opacity="0.15"/>
</svg>
