<svg viewBox="0 0 512 512" fill="none" xmlns="http://www.w3.org/2000/svg">
<path d="M125.517 171.434C125.85 146.752 146.812 128 171.496 128H340.503C365.187 128 386.149 146.752 386.482 171.434C388.208 299.465 337.141 384 256 384C174.858 384 123.791 299.465 125.517 171.434Z" fill="#00FFFF"/>
<path fill-rule="evenodd" clip-rule="evenodd" d="M173.058 344.351C194.632 369.846 222.798 384 256 384C337.142 384 388.208 299.465 386.482 171.434C386.272 155.821 377.806 142.58 365.366 134.959C369.152 141.227 371.376 148.526 371.482 156.434C373.208 284.465 322.142 369 241 369C215.021 369 192.125 360.335 173.058 344.351Z" fill="black" fill-opacity="0.15"/>
</svg>
