<svg viewBox="0 0 512 512" fill="none" xmlns="http://www.w3.org/2000/svg">
<path d="M125.086 184.773C124.46 152.344 152.433 128 184.868 128H327.132C359.567 128 387.54 152.344 386.914 184.773C384.587 305.304 325.59 384 256 384C186.41 384 127.412 305.304 125.086 184.773Z" fill="#00FFFF"/>
<path fill-rule="evenodd" clip-rule="evenodd" d="M176.112 343.68C198.398 369.598 226.23 384 256 384C325.591 384 384.587 305.304 386.914 184.773C387.217 169.076 380.819 155.274 370.459 145.209C371.357 148.496 371.864 151.955 371.926 155.547C374.152 284.074 313.292 369 241 369C217.587 369 195.373 360.092 176.112 343.68Z" fill="black" fill-opacity="0.15"/>
</svg>
