<svg viewBox="0 0 512 512" fill="none" xmlns="http://www.w3.org/2000/svg">
<path d="M125.074 170.547C125.495 146.224 146.325 128 170.651 128H341.349C365.675 128 386.505 146.224 386.926 170.547C389.152 299.074 328.292 384 256 384C183.708 384 122.847 299.074 125.074 170.547Z" fill="#00FFFF"/>
<path fill-rule="evenodd" clip-rule="evenodd" d="M176.112 343.68C198.398 369.598 226.23 384 256 384C328.292 384 389.152 299.074 386.926 170.547C386.661 155.218 378.289 142.312 366.045 134.862C369.661 140.911 371.794 147.93 371.926 155.547C374.152 284.074 313.292 369 241 369C217.587 369 195.373 360.092 176.112 343.68Z" fill="black" fill-opacity="0.15"/>
</svg>
