<svg viewBox="0 0 512 512" fill="none" xmlns="http://www.w3.org/2000/svg">
<path d="M124.917 184.007C124.131 151.898 152.011 128 184.13 128H327.869C359.988 128 387.869 151.898 387.082 184.007C384.12 304.971 317.02 384 256 384C194.979 384 127.88 304.971 124.917 184.007Z" fill="#00FFFF"/>
<path fill-rule="evenodd" clip-rule="evenodd" d="M179.534 343.157C202.43 369.404 229.777 384 256 384C317.021 384 384.12 304.971 387.083 184.007C387.465 168.392 381.067 154.718 370.699 144.791C371.582 148.024 372.079 151.428 372.138 154.966C374.254 283.819 304.351 369 241 369C220.297 369 198.894 359.903 179.534 343.157Z" fill="black" fill-opacity="0.15"/>
</svg>
