<svg viewBox="0 0 512 512" fill="none" xmlns="http://www.w3.org/2000/svg">
<path d="M124.649 169.393C125.028 145.542 145.699 128 169.552 128H342.446C366.3 128 386.97 145.542 387.35 169.393C389.406 298.566 310.381 384 255.999 384C201.618 384 122.592 298.566 124.649 169.393Z" fill="#00FFFF"/>
<path fill-rule="evenodd" clip-rule="evenodd" d="M182.844 342.529C206.41 369.171 233.343 384 256 384C310.381 384 389.407 298.566 387.35 169.393C387.112 154.41 378.866 141.917 366.854 134.698C370.242 140.469 372.235 147.139 372.35 154.393C374.407 283.566 295.381 369 241 369C223.033 369 202.377 359.675 182.844 342.529Z" fill="black" fill-opacity="0.15"/>
</svg>
