<svg viewBox="0 0 512 512" fill="none" xmlns="http://www.w3.org/2000/svg">
<path d="M124.739 183.249C123.811 151.458 151.598 128 183.403 128H328.596C360.4 128 388.187 151.458 387.259 183.25C383.716 304.64 308.412 384 255.999 384C203.587 384 128.282 304.64 124.739 183.249Z" fill="#00FFFF"/>
<path fill-rule="evenodd" clip-rule="evenodd" d="M182.844 342.529C206.41 369.171 233.343 384 256 384C308.412 384 383.716 304.64 387.26 183.25C387.713 167.719 381.313 154.177 370.94 144.387C371.807 147.564 372.295 150.911 372.35 154.393C374.407 283.566 295.381 369 241 369C223.033 369 202.377 359.675 182.844 342.529Z" fill="black" fill-opacity="0.15"/>
</svg>
