<svg viewBox="0 0 512 512" fill="none" xmlns="http://www.w3.org/2000/svg">
<path d="M123.962 181.763C123.252 150.588 150.799 128 181.982 128H330.017C361.2 128 388.747 150.588 388.036 181.763C385.252 303.992 299.855 384 255.999 384C212.144 384 126.747 303.992 123.962 181.763Z" fill="#00FFFF"/>
<path fill-rule="evenodd" clip-rule="evenodd" d="M184.855 341.081C209.582 368.634 236.78 384 255.999 384C299.855 384 385.252 303.992 388.036 181.763C388.385 166.469 381.932 153.241 371.586 143.733C372.427 146.762 372.917 149.951 373.007 153.271C376.514 283.071 286.448 369 240.999 369C225.612 369 205.109 359.15 184.855 341.081Z" fill="black" fill-opacity="0.15"/>
</svg>
