<svg viewBox="0 0 512 512" fill="none" xmlns="http://www.w3.org/2000/svg">
<path d="M123.214 180.025C122.635 149.585 149.884 128 180.329 128H331.672C362.117 128 389.366 149.585 388.787 180.025C386.492 300.637 291.143 384 256 384C220.858 384 125.508 300.637 123.214 180.025Z" fill="#00FFFF"/>
<path fill-rule="evenodd" clip-rule="evenodd" d="M188.033 339.878C213.653 368 240.605 384 256.001 384C291.143 384 386.492 300.637 388.787 180.025C389.126 162.211 379.934 147.43 366.149 138.233C371.137 145.893 373.978 154.977 373.787 165.025C371.492 285.637 276.143 369 241.001 369C228.598 369 208.697 358.617 188.033 339.878Z" fill="black" fill-opacity="0.15"/>
</svg>
