<svg viewBox="0 0 512 512" fill="none" xmlns="http://www.w3.org/2000/svg">
<path d="M128 176C128 149.49 149.49 128 176 128H336C362.51 128 384 149.49 384 176V328C384 358.928 358.928 384 328 384H184C153.072 384 128 358.928 128 328V176Z" fill="#00FFFF"/>
<path fill-rule="evenodd" clip-rule="evenodd" d="M139.948 362.578C150.201 375.622 166.122 384 184 384H328C358.928 384 384 358.928 384 328V176C384 158.905 375.063 143.897 361.607 135.393C366.29 142.804 369 151.586 369 161V317C369 345.719 345.719 369 317 369H165C155.917 369 147.378 366.671 139.948 362.578Z" fill="black" fill-opacity="0.15"/>
</svg>
