<svg viewBox="0 0 512 512" fill="none" xmlns="http://www.w3.org/2000/svg">
<path d="M128 176C128 149.49 149.49 128 176 128H336C362.51 128 384 149.49 384 176V324C384 357.137 357.137 384 324 384H188C154.863 384 128 357.137 128 324V176Z" fill="#00FFFF"/>
<path fill-rule="evenodd" clip-rule="evenodd" d="M141.309 361.686C152.308 375.296 169.138 384 188 384H324C357.137 384 384 357.137 384 324V176C384 158.905 375.063 143.897 361.607 135.393C366.29 142.804 369 151.586 369 161V313C369 343.928 343.928 369 313 369H169C158.927 369 149.476 366.341 141.309 361.686Z" fill="black" fill-opacity="0.15"/>
</svg>
