<svg viewBox="0 0 512 512" fill="none" xmlns="http://www.w3.org/2000/svg">
<path d="M128 176C128 149.49 149.49 128 176 128H336C362.51 128 384 149.49 384 176V316C384 353.555 353.555 384 316 384H196C158.445 384 128 353.555 128 316V176Z" fill="#00FFFF"/>
<path fill-rule="evenodd" clip-rule="evenodd" d="M144.047 359.875C156.52 374.631 175.166 384 196 384H316C353.555 384 384 353.555 384 316V176C384 158.905 375.063 143.897 361.607 135.393C366.29 142.804 369 151.586 369 161V305C369 340.346 340.346 369 305 369H177C164.947 369 153.672 365.668 144.047 359.875Z" fill="black" fill-opacity="0.15"/>
</svg>
