<svg viewBox="0 0 512 512" fill="none" xmlns="http://www.w3.org/2000/svg">
<path d="M128 176C128 149.49 149.49 128 176 128H336C362.51 128 384 149.49 384 176V308C384 349.974 349.974 384 308 384H204C162.026 384 128 349.974 128 308V176Z" fill="#00FFFF"/>
<path fill-rule="evenodd" clip-rule="evenodd" d="M146.798 358.041C160.728 373.952 181.191 384 204 384H308C349.974 384 384 349.974 384 308V176C384 158.905 375.063 143.897 361.607 135.393C366.29 142.804 369 151.586 369 161V297C369 336.764 336.764 369 297 369H185C170.966 369 157.87 364.985 146.798 358.041Z" fill="black" fill-opacity="0.15"/>
</svg>
