<svg width="512" height="512" viewBox="0 0 512 512" fill="none" xmlns="http://www.w3.org/2000/svg">
<path d="M127.784 176.039C127.909 149.53 149.491 128 176 128H336C362.51 128 384.091 149.53 384.216 176.039C384.808 301.488 380.701 384 256 384C131.3 384 127.192 301.488 127.784 176.039Z" fill="#FF8474"/>
<path fill-rule="evenodd" clip-rule="evenodd" d="M156.51 346.52C175.188 370.648 205.837 384 256 384C380.701 384 384.808 301.488 384.216 176.039C384.136 158.984 375.174 143.989 361.732 135.464C366.432 142.872 369.172 151.643 369.216 161.039C369.808 286.488 365.701 369 241 369C202.456 369 175.434 361.117 156.51 346.52Z" fill="black" fill-opacity="0.15"/>
</svg>
