<svg width="512" height="512" viewBox="0 0 512 512" fill="none" xmlns="http://www.w3.org/2000/svg">
<path d="M124.862 169.966C125.258 145.88 146.009 128 170.098 128H341.902C365.991 128 386.741 145.88 387.137 169.966C389.254 298.819 319.351 384 256 384C192.649 384 122.745 298.819 124.862 169.966Z" fill="#FF8474"/>
<path fill-rule="evenodd" clip-rule="evenodd" d="M179.534 343.157C202.43 369.404 229.777 384 256 384C319.351 384 389.254 298.819 387.137 169.966C386.888 154.811 378.581 142.113 366.453 134.78C369.954 140.688 372.015 147.532 372.137 154.966C374.254 283.819 304.351 369 241 369C220.297 369 198.894 359.903 179.534 343.157Z" fill="black" fill-opacity="0.15"/>
</svg>
