<svg width="512" height="512" viewBox="0 0 512 512" fill="none" xmlns="http://www.w3.org/2000/svg">
<path d="M126.871 174.163C127.028 148.391 148.37 128 174.143 128H337.857C363.63 128 384.972 148.391 385.129 174.163C385.899 300.665 363.418 384 256 384C148.582 384 126.101 300.665 126.871 174.163Z" fill="#FF8474"/>
<path fill-rule="evenodd" clip-rule="evenodd" d="M163.319 345.829C183.058 370.393 212.595 384 256.001 384C363.419 384 385.899 300.665 385.129 174.163C385.029 157.688 376.272 143.412 363.234 135.256C367.555 142.201 370.075 150.369 370.129 159.163C370.899 285.665 348.419 369 241.001 369C207.445 369 182.178 360.868 163.319 345.829Z" fill="black" fill-opacity="0.15"/>
</svg>
