<svg width="512" height="512" viewBox="0 0 512 512" fill="none" xmlns="http://www.w3.org/2000/svg">
<path d="M126.453 172.942C126.465 147.656 147.66 128 172.946 128H339.054C364.341 128 385.535 147.656 385.547 172.943C385.606 300.129 345.803 384 256 384C166.197 384 126.394 300.129 126.453 172.942Z" fill="#FF8474"/>
<path fill-rule="evenodd" clip-rule="evenodd" d="M170.752 345.341C191.399 370.213 219.59 384 256.001 384C345.803 384 385.606 300.129 385.547 172.943C385.54 156.822 376.923 142.989 364.124 135.079C368.192 141.732 370.544 149.525 370.547 157.943C370.606 285.129 330.803 369 241.001 369C212.737 369 189.426 360.692 170.752 345.341Z" fill="black" fill-opacity="0.15"/>
</svg>
