<svg width="512" height="512" viewBox="0 0 512 512" fill="none" xmlns="http://www.w3.org/2000/svg">
<path d="M123.992 168.271C124.624 144.893 145.099 128 168.486 128H343.513C366.9 128 387.375 144.893 388.007 168.271C391.514 298.071 301.448 384 255.999 384C210.551 384 120.485 298.071 123.992 168.271Z" fill="#FF8474"/>
<path fill-rule="evenodd" clip-rule="evenodd" d="M184.855 341.081C209.582 368.634 236.78 384 255.999 384C301.448 384 391.514 298.071 388.007 168.271C387.612 153.673 379.48 141.603 367.734 134.597C370.92 140.085 372.821 146.397 373.007 153.271C376.514 283.071 286.448 369 240.999 369C225.612 369 205.109 359.15 184.855 341.081Z" fill="black" fill-opacity="0.15"/>
</svg>
