<svg width="512" height="512" viewBox="0 0 512 512" fill="none" xmlns="http://www.w3.org/2000/svg">
<path d="M128 176C128 149.49 149.49 128 176 128H336C362.51 128 384 149.49 384 176V300C384 346.392 346.392 384 300 384H212C165.608 384 128 346.392 128 300V176Z" fill="#FF8474"/>
<path fill-rule="evenodd" clip-rule="evenodd" d="M149.559 356.189C164.935 373.264 187.214 384 212 384H300C346.392 384 384 346.392 384 300V176C384 158.905 375.063 143.897 361.607 135.393C366.29 142.804 369 151.586 369 161V289C369 333.183 333.183 369 289 369H193C176.985 369 162.069 364.294 149.559 356.189Z" fill="black" fill-opacity="0.15"/>
</svg>
