<svg width="512" height="512" viewBox="0 0 512 512" fill="none" xmlns="http://www.w3.org/2000/svg">
<path d="M128 176C128 149.49 149.49 128 176 128H336C362.51 128 384 149.49 384 176V264C384 330.274 330.274 384 264 384H248C181.726 384 128 330.274 128 264V176Z" fill="#FF8474"/>
<path fill-rule="evenodd" clip-rule="evenodd" d="M167.956 353.405C189.192 372.43 217.245 384 248 384H264C330.274 384 384 330.274 384 264V176C384 158.905 375.063 143.897 361.606 135.393C366.289 142.804 369 151.586 369 161V257C369 318.856 318.856 369 257 369H225C204.167 369 184.663 363.312 167.956 353.405Z" fill="black" fill-opacity="0.15"/>
</svg>
