<svg width="512" height="512" viewBox="0 0 512 512" fill="none" xmlns="http://www.w3.org/2000/svg">
<path d="M128 176C128 149.49 149.49 128 176 128H336C362.51 128 384 149.49 384 176V304C384 348.183 348.183 384 304 384H208C163.817 384 128 348.183 128 304V176Z" fill="#FF8474"/>
<path fill-rule="evenodd" clip-rule="evenodd" d="M144.428 352.572C159.047 371.678 182.085 384 208 384H304C348.183 384 384 348.183 384 304V176C384 158.905 375.063 143.897 361.606 135.393C366.289 142.804 369 151.586 369 161V297C369 336.764 336.764 369 297 369H193C174.732 369 157.895 362.877 144.428 352.572Z" fill="black" fill-opacity="0.15"/>
</svg>
