<svg width="512" height="512" viewBox="0 0 512 512" fill="none" xmlns="http://www.w3.org/2000/svg">
<path d="M128 176C128 149.49 149.49 128 176 128H336C362.51 128 384 149.49 384 176V332C384 360.719 360.719 384 332 384H180C151.281 384 128 360.719 128 332V176Z" fill="#FF8474"/>
<path fill-rule="evenodd" clip-rule="evenodd" d="M138.593 363.46C148.091 375.942 163.104 384 180 384H332C360.719 384 384 360.719 384 332V176C384 158.905 375.063 143.897 361.607 135.393C366.29 142.804 369 151.586 369 161V321C369 347.51 347.51 369 321 369H161C152.907 369 145.281 366.997 138.593 363.46Z" fill="black" fill-opacity="0.15"/>
</svg>
