<svg width="512" height="512" viewBox="0 0 512 512" fill="none" xmlns="http://www.w3.org/2000/svg">
<path d="M128 176C128 149.49 149.49 128 176 128H336C362.51 128 384 149.49 384 176V312C384 351.764 351.764 384 312 384H200C160.236 384 128 351.764 128 312V176Z" fill="#FF8474"/>
<path fill-rule="evenodd" clip-rule="evenodd" d="M145.421 358.961C158.625 374.293 178.179 384 200 384H312C351.765 384 384 351.764 384 312V176C384 158.905 375.063 143.897 361.607 135.393C366.29 142.804 369 151.586 369 161V301C369 338.555 338.555 369 301 369H181C167.957 369 155.771 365.328 145.421 358.961Z" fill="black" fill-opacity="0.15"/>
</svg>
