<svg width="512" height="512" viewBox="0 0 512 512" fill="none" xmlns="http://www.w3.org/2000/svg">
<path d="M128 176C128 149.49 149.49 128 176 128H336C362.51 128 384 149.49 384 176V320C384 355.346 355.346 384 320 384H192C156.654 384 128 355.346 128 320V176Z" fill="#FF8474"/>
<path fill-rule="evenodd" clip-rule="evenodd" d="M139.867 357.133C151.472 373.396 170.498 384 192 384H320C355.346 384 384 355.346 384 320V176C384 158.905 375.063 143.897 361.607 135.393C366.29 142.804 369 151.586 369 161V313C369 343.928 343.928 369 313 369H177C163.156 369 150.339 364.604 139.867 357.133Z" fill="black" fill-opacity="0.15"/>
</svg>
