<svg width="512" height="512" viewBox="0 0 512 512" fill="none" xmlns="http://www.w3.org/2000/svg">
<path d="M128 176C128 149.49 149.49 128 176 128H336C362.51 128 384 149.49 384 176V292C384 342.81 342.81 384 292 384H220C169.19 384 128 342.81 128 292V176Z" fill="#FF8474"/>
<path fill-rule="evenodd" clip-rule="evenodd" d="M152.327 354.325C169.139 372.57 193.235 384 220 384H292C342.81 384 384 342.81 384 292V176C384 158.905 375.063 143.897 361.607 135.393C366.29 142.804 369 151.586 369 161V281C369 329.601 329.601 369 281 369H201C183.003 369 166.267 363.597 152.327 354.325Z" fill="black" fill-opacity="0.15"/>
</svg>
