<svg xmlns="http://www.w3.org/2000/svg" width="20" height="20" fill="none" xmlns:v="https://vecta.io/nano"><path d="M17 8.9993H5.14l3.63-4.36a1.001 1.001 0 0 0-.13-1.41 1.001 1.001 0 0 0-1.41.13l-5 6c-.0336.0477-.0637.098-.1.15 0 .05 0 .08-.07.13a1 1 0 0 0-.07.36 1 1 0 0 0 .07.36c0 .05 0 .08.07.13a1.191 1.191 0 0 0 .09.15l5 6c.094.113.2118.2037.3448.266A1.001 1.001 0 0 0 8 16.9993c.2337.0005.46-.081.64-.23a1 1 0 0 0 .3575-.678c.012-.13-.0018-.263-.041-.3887s-.1025-.2423-.1867-.3433l-3.63-4.36H17a1 1 0 0 0 1-1 1 1 0 0 0-1-1z" fill="#000"/></svg>