<svg xmlns="http://www.w3.org/2000/svg" width="40" height="40" fill="none" xmlns:v="https://vecta.io/nano"><path d="M19.9844 2.9805C10.3242 2.9766 2.5 10.797 2.5 20.4492c0 7.6328 4.8945 14.121 11.711 16.504.918.2305.7774-.422.7774-.8672v-3.0273c-5.3008.621-5.5156-2.8867-5.871-3.4727-.7187-1.2265-2.418-1.54-1.9102-2.125 1.207-.621 2.4375.1563 3.8633 2.2618 1.0313 1.5273 3.043 1.2695 4.0625 1.0156a4.927 4.927 0 0 1 1.3555-2.375c-5.4922-.9844-7.7813-4.336-7.7813-8.3203 0-1.9336.6367-3.71 1.8868-5.1446-.797-2.3632.0742-4.3867.1914-4.6875 2.2695-.203 4.629 1.625 4.8125 1.7696 1.29-.3477 2.7617-.5313 4.41-.5313 1.6563 0 3.1328.1914 4.4336.543.4414-.336 2.629-1.9063 4.7383-1.715.1133.3008.9648 2.2774.2148 4.6094 1.2657 1.4375 1.9102 3.2305 1.9102 5.168 0 3.9922-2.3047 7.3476-7.8125 8.3164.4717.464.8463 1.0172 1.102 1.6276s.387 1.2654.3864 1.927v4.3945c.0312.3516 0 .6992.586.6992 6.918-2.332 11.8984-8.8672 11.8984-16.5664 0-9.6562-7.828-17.4726-17.4804-17.4726z" fill="#000"/></svg>