<svg xmlns="http://www.w3.org/2000/svg" width="40" height="40" fill="none" xmlns:v="https://vecta.io/nano"><path d="M20.0012 11.9875c-4.4336 0-8.0118 3.578-8.0118 8.0117s3.5782 8.0117 8.0118 8.0117 8.0117-3.578 8.0117-8.0117-3.578-8.0117-8.0117-8.0117zm0 13.2187c-2.8672 0-5.207-2.3398-5.207-5.207s2.34-5.207 5.207-5.207 5.207 2.3398 5.207 5.207-2.3398 5.207-5.207 5.207zM28.34 9.7922a1.869 1.869 0 1 0 0 3.7422c1.0352 0 1.871-.832 1.871-1.871a1.869 1.869 0 0 0-.5473-1.3238c-.174-.1738-.3802-.3116-.6074-.4055s-.4706-.142-.7164-.1418zm7.2774 10.207c0-2.1562.0195-4.293-.1016-6.4453-.121-2.5-.6914-4.7187-2.5195-6.547s-4.047-2.3984-6.547-2.5195c-2.1563-.121-4.293-.1016-6.4453-.1016s-4.293-.0195-6.4453.1016c-2.5.121-4.7188.6914-6.547 2.5195s-2.3984 4.047-2.5195 6.547c-.121 2.1562-.1016 4.293-.1016 6.4453s-.0195 4.293.1016 6.4453c.121 2.5.6914 4.7188 2.5195 6.547s4.047 2.3984 6.547 2.5195c2.1562.121 4.293.1016 6.4453.1016s4.293.0195 6.4453-.1016c2.5-.121 4.7187-.6914 6.547-2.5195s2.3984-4.047 2.5195-6.547c.125-2.1523.1016-4.29.1016-6.4453zM32.181 29.21c-.2852.71-.63 1.2422-1.1797 1.789s-1.0782.8945-1.789 1.1797c-2.0547.8164-6.9336.6328-9.211.6328s-7.1602.1836-9.215-.629c-.711-.2852-1.2422-.629-1.79-1.1797s-.8945-1.078-1.1797-1.79c-.8125-2.0586-.629-6.9375-.629-9.215s-.1836-7.16.629-9.2148c.2852-.71.629-1.2422 1.1797-1.789s1.078-.8945 1.79-1.1797c2.0547-.8125 6.9375-.629 9.215-.629s7.16-.1836 9.2148.629c.711.2852 1.2422.629 1.789 1.1797s.8945 1.078 1.1797 1.789c.8125 2.0547.629 6.9375.629 9.2148s.1836 7.1563-.6328 9.211z" fill="#000"/></svg>