<svg xmlns="http://www.w3.org/2000/svg" width="40" height="40" fill="none" xmlns:v="https://vecta.io/nano"><path d="M35.6233 4.375H4.3738l-.0002 31.25h31.2497V4.375zm-5.625 8.0352l-1.5938 1.5273c-.1406.1055-.207.2773-.1796.4453V25.621c-.0274.172.04.3437.1796.4453l1.5625 1.5274v.3398h-7.8437v-.3242l1.6133-1.5664c.16-.1602.16-.207.16-.4453V16.504l-4.4922 11.3906h-.6054L13.5725 16.504v7.6367c-.047.3203.0664.6446.293.875l2.1015 2.543v.3398H9.9983v-.3398l2.1016-2.543c.1107-.1143.193-.253.2406-.405a1.021 1.021 0 0 0 .0328-.47v-8.828c.0273-.246-.0664-.4844-.254-.6523l-1.8672-2.25v-.34h5.8008l4.4765 9.8242L24.47 12.078h5.5273v.332z" fill="#000"/></svg>