<svg xmlns="http://www.w3.org/2000/svg" width="40" height="40" fill="none" xmlns:v="https://vecta.io/nano"><path d="M36.25 9.9336c-1.1953.5156-2.496.8867-3.836 1.0313a6.645 6.645 0 0 0 2.9296-3.6719c-1.3053.7765-2.7353 1.32-4.2265 1.6094A6.645 6.645 0 0 0 26.25 6.7969c-3.6914 0-6.6602 2.9922-6.6602 6.664 0 .5156.0625 1.0312.164 1.5273-5.5273-.289-10.457-2.9297-13.7344-6.9727a6.614 6.614 0 0 0-.9062 3.3633c0 2.3125 1.1758 4.3516 2.9688 5.5508-1.0566-.0416-2.0885-.332-3.0117-.8477v.082c0 3.2383 2.289 5.922 5.34 6.54-.573.1488-1.162.225-1.754.2266-.4336 0-.8437-.043-1.2578-.1016.8438 2.6407 3.3008 4.5586 6.2266 4.621-2.289 1.793-5.1562 2.8477-8.2695 2.8477-.5586 0-1.0742-.0195-1.6094-.082 2.953 1.8945 6.457 2.9882 10.2305 2.9882 12.25 0 18.953-10.1484 18.953-18.957 0-.289 0-.578-.0195-.8672 1.2968-.9492 2.4335-2.125 3.3398-3.4453z" fill="#000"/></svg>