<svg viewBox="0 0 512 512" fill="none" xmlns="http://www.w3.org/2000/svg">
<path fill-rule="evenodd" clip-rule="evenodd" d="M256 338C277 338 289 317 289 305C289 293 273.719 298 256 298C238.281 298 223 293 223 305C223 317 235 338 256 338Z" fill="black" fill-opacity="0.299"/>
<path fill-rule="evenodd" clip-rule="evenodd" d="M283.537 301.557L283.214 305.43C283.08 307.036 282.153 308.46 280.652 309.048C276.909 310.514 268.692 313 256 313C243.402 313 235.212 310.551 231.432 309.081C229.877 308.476 228.917 307.003 228.778 305.341L228.463 301.556C230.667 299.936 235.251 300.412 241.466 301.056C245.648 301.49 250.568 302 256 302C261.431 302 266.351 301.49 270.533 301.056C276.749 300.412 281.333 299.936 283.537 301.557Z" fill="white"/>
<path fill-rule="evenodd" clip-rule="evenodd" d="M276.099 325.488C271.128 330.521 264.265 334 256.002 334C247.739 334 240.876 330.521 235.904 325.489C241.117 323.328 248.2 322 256.002 322C263.804 322 270.887 323.328 276.099 325.488Z" fill="#FF5858"/>
</svg>
