<svg viewBox="0 0 512 512" fill="none" xmlns="http://www.w3.org/2000/svg">
<path fill-rule="evenodd" clip-rule="evenodd" d="M270 298C283.849 298 290.203 310.081 302 313C311.868 315.441 329 315 329 315C317 331 262.003 334.5 256.003 311.661C250.003 334.5 197 331 183 315C183 315 200.132 315.441 210 313C221.797 310.081 228.151 298 242 298C251.739 298 254.169 302.03 256 306C257.831 302.03 260.261 298 270 298Z" fill="#FFFF00"/>
<path fill-rule="evenodd" clip-rule="evenodd" d="M190.982 314.971C186.37 315.087 183 315 183 315C197 331 250.003 334.5 256.003 311.662C262.003 334.5 317 331 329 315C329 315 325.918 315.08 321.616 314.985C302.531 325.426 261.452 325.281 256.06 305.871C256.04 305.914 256.02 305.957 256 306C255.982 305.96 255.963 305.92 255.944 305.88C250.551 325.289 210.905 325.425 190.982 314.971Z" fill="black" fill-opacity="0.15"/>
<path d="M256 335C240.001 335 230.001 340.5 256 398.5C282 340.5 272 335 256 335Z" fill="#FFFF00"/>
<path fill-rule="evenodd" clip-rule="evenodd" d="M240.666 343.007C242.253 352.457 246.942 366.292 256 386.5C265.059 366.292 269.747 352.457 271.335 343.007C273.599 351.091 270.074 367.104 256 398.5C241.926 367.104 238.401 351.091 240.666 343.007Z" fill="black" fill-opacity="0.15"/>
</svg>
