<svg viewBox="0 0 512 512" fill="none" xmlns="http://www.w3.org/2000/svg">
<path fill-rule="evenodd" clip-rule="evenodd" d="M285 301C285 316.736 274.085 340 256 340C237.915 340 227 316.736 227 301H285Z" fill="black" fill-opacity="0.299"/>
<path fill-rule="evenodd" clip-rule="evenodd" d="M237.135 322.682C237.441 323.211 237.758 323.731 238.085 324.242C242.685 331.418 248.857 336 256 336C258.962 336 261.757 335.212 264.343 333.777C263.465 329.562 257.791 325.11 250.175 323.069C245.302 321.764 240.624 321.71 237.135 322.682Z" fill="#FF5858"/>
<path fill-rule="evenodd" clip-rule="evenodd" d="M278.394 315H233.607C232.413 311.634 231.615 308.208 231.242 305H280.759C280.387 308.208 279.588 311.634 278.394 315Z" fill="white"/>
</svg>
