<svg viewBox="0 0 512 512" fill="none" xmlns="http://www.w3.org/2000/svg">
<path fill-rule="evenodd" clip-rule="evenodd" d="M255.999 333.501C271.907 333.501 284.897 322.433 290.836 308.266C292.348 304.661 294.86 298.499 290.896 295.503C287.903 293.241 283.619 294.779 280.399 295.59C272.375 297.607 264.303 299.001 255.999 299.001C245.502 299.001 237.637 297.1 232.22 295.745C228.875 294.909 224.239 293.134 221.104 295.503C217.139 298.499 219.651 304.661 221.163 308.266C227.101 322.433 240.092 333.501 255.999 333.501Z" fill="black" fill-opacity="0.299"/>
<path fill-rule="evenodd" clip-rule="evenodd" d="M288.161 298.516C287.063 301.81 286.083 305.453 282.899 307.361C278.96 309.72 270.819 313 256.001 313C241.187 313 233.046 309.723 229.104 307.363C225.916 305.456 224.936 301.811 223.838 298.515C226.787 297.349 237.506 303.001 255.998 303.001C274.495 303.001 285.216 297.346 288.161 298.516Z" fill="white"/>
<path fill-rule="evenodd" clip-rule="evenodd" d="M276.676 321.568C271.574 326.097 264.76 329.5 256 329.5C247.522 329.5 240.865 326.311 235.82 321.999C241.798 318.082 250.426 317.967 256.597 321.522C262.552 318.09 270.737 318.102 276.676 321.568Z" fill="#FF5858"/>
</svg>
