<svg viewBox="0 0 512 512" fill="none" xmlns="http://www.w3.org/2000/svg">
<path fill-rule="evenodd" clip-rule="evenodd" d="M255.999 329.5C270.731 329.5 284.391 321.102 290.755 307.822C292.436 304.312 295.046 297.712 290.321 295.269C286.855 293.477 282.492 296.164 279.308 297.394C274.027 299.434 266.301 302 255.999 302C245.697 302 237.972 299.434 232.691 297.394C229.507 296.164 225.144 293.477 221.678 295.269C216.954 297.712 219.562 304.312 221.244 307.822C227.607 321.102 241.268 329.5 255.999 329.5Z" fill="black" fill-opacity="0.299"/>
<path fill-rule="evenodd" clip-rule="evenodd" d="M287.768 298.699L287.239 300.286C286.421 302.739 285.119 305.031 282.901 306.36C278.962 308.72 270.821 312 256.003 312C241.189 312 233.047 308.722 229.106 306.363C226.884 305.033 225.579 302.736 224.761 300.28L224.234 298.699C225.242 298.741 226.868 299.388 229.111 300.282C234.504 302.43 243.467 306 256.001 306C268.534 306 277.498 302.43 282.891 300.282C285.135 299.388 286.761 298.741 287.768 298.699Z" fill="white"/>
<path fill-rule="evenodd" clip-rule="evenodd" d="M276.593 318.881C271.499 322.682 264.711 325.5 255.998 325.5C247.286 325.5 240.498 322.683 235.405 318.882C238.227 317.089 241.937 316 246 316C249.784 316 253.261 316.944 256 318.522C258.739 316.944 262.216 316 266 316C270.062 316 273.771 317.088 276.593 318.881Z" fill="#FF5858"/>
</svg>
