<svg viewBox="0 0 512 512" fill="none" xmlns="http://www.w3.org/2000/svg">
<path d="M290.321 295.27C287.924 294.03 285.225 295.074 282.911 295.973C274.179 299.363 265.5 302.001 255.999 302.001C246.498 302.001 237.819 299.363 229.088 295.973C226.774 295.074 224.075 294.03 221.678 295.27C216.882 297.75 219.647 304.652 221.162 308.266C227.101 322.433 240.092 333.501 255.999 333.501C271.907 333.501 284.897 322.432 290.836 308.266C292.351 304.652 295.117 297.75 290.321 295.27Z" fill="black" fill-opacity="0.299"/>
<path fill-rule="evenodd" clip-rule="evenodd" d="M288.097 298.71C287.018 301.947 286.026 305.489 282.9 307.361C278.961 309.72 270.821 313 256.002 313C241.189 313 233.047 309.723 229.105 307.363C225.977 305.491 224.983 301.949 223.904 298.71C226.943 298.341 237.64 306.001 255.999 306.001C274.363 306.001 285.062 298.337 288.097 298.71Z" fill="white"/>
<path fill-rule="evenodd" clip-rule="evenodd" d="M276.676 321.568C271.574 326.097 264.76 329.5 256 329.5C247.522 329.5 240.865 326.311 235.82 321.999C241.798 318.082 250.426 317.967 256.597 321.522C262.552 318.09 270.737 318.102 276.676 321.568Z" fill="#FF5858"/>
</svg>
