<svg viewBox="0 0 512 512" fill="none" xmlns="http://www.w3.org/2000/svg">
<path d="M255.999 328C240.999 328 219 308 219 308C219 308 240.999 311.5 255.999 311.5C271 311.5 293 308 293 308C293 308 271 328 255.999 328Z" fill="#FFFF00"/>
<path fill-rule="evenodd" clip-rule="evenodd" d="M219.155 308.024C226.112 312.329 243.171 322 255.999 322C268.828 322 285.888 312.329 292.845 308.024C292.947 308.008 293 308 293 308C293 308 271 328 255.999 328C240.999 328 219 308 219 308C219 308 219.053 308.008 219.155 308.024Z" fill="black" fill-opacity="0.15"/>
<path fill-rule="evenodd" clip-rule="evenodd" d="M219.295 308.264C227.665 310.629 242.043 314 255.999 314C269.956 314 284.334 310.629 292.706 308.263C292.899 308.092 293 308 293 308C293 308 271 311.5 255.999 311.5C240.999 311.5 219 308 219 308C219 308 219.101 308.092 219.295 308.264Z" fill="black" fill-opacity="0.15"/>
<path d="M256.001 305C248 297 242 306 219 308C219 308 240.999 311.5 255.999 311.5C271 311.5 293.002 308 293.002 308C270 306 264 297 256.001 305Z" fill="#FFFF00"/>
</svg>
