<svg viewBox="0 0 512 512" fill="none" xmlns="http://www.w3.org/2000/svg">
<path d="M285.001 300C285.001 298.614 284.283 297.326 283.103 296.598C281.924 295.869 280.452 295.802 279.212 296.422C272.899 299.578 264.546 301.25 256 301.25C247.454 301.25 239.101 299.578 232.789 296.422C231.549 295.802 230.076 295.869 228.897 296.597C227.718 297.326 227 298.614 227 300C227 305.63 229.661 315.062 234.213 323.044C238.665 330.851 245.946 339 256 339C266.054 339 273.335 330.851 277.788 323.044C282.339 315.062 285.001 305.63 285.001 300Z" fill="black" fill-opacity="0.299"/>
<path fill-rule="evenodd" clip-rule="evenodd" d="M279.513 308.666C275.137 311.273 267.751 314 256 314C244.25 314 236.863 311.273 232.487 308.667C231.51 305.263 231 302.202 231 300C245 307 267 307 281.001 300C281.001 302.202 280.49 305.263 279.513 308.666Z" fill="white"/>
<path fill-rule="evenodd" clip-rule="evenodd" d="M273.04 323.169C268.807 329.772 263.019 335 256.001 335C248.984 335 243.196 329.773 238.963 323.17C241.087 322.421 243.477 322 246.003 322C249.787 322 253.264 322.944 256.003 324.522C258.742 322.944 262.219 322 266.003 322C268.528 322 270.917 322.42 273.04 323.169Z" fill="#FF5858"/>
</svg>
