<svg viewBox="0 0 512 512" fill="none" xmlns="http://www.w3.org/2000/svg">
<path fill-rule="evenodd" clip-rule="evenodd" d="M224 297.212C234.474 299.677 245.278 300 256 300C266.723 300 277.525 299.675 288 297.212V310.957C288 321.674 280.491 331.281 269.425 332.335C260.485 333.186 251.515 333.186 242.575 332.335C231.509 331.281 224 321.674 224 310.957V297.212Z" fill="black" fill-opacity="0.299"/>
<path fill-rule="evenodd" clip-rule="evenodd" d="M256 303C235.5 303 227 301 227 301V310.896C227.076 311.058 227.589 311.893 230.094 312.811C233.676 314.125 241.033 315.5 256 315.5C270.967 315.5 278.324 314.125 281.906 312.811C284.411 311.893 284.924 311.057 285 310.896V301C285 301 276.5 303 256 303ZM284.816 313.668C284.238 314.009 283.51 314.353 282.594 314.689C278.676 316.126 271.033 317.5 256 317.5C240.967 317.5 233.324 316.126 229.406 314.689C228.49 314.353 227.762 314.009 227.184 313.668C228.305 321.853 234.441 328.546 242.859 329.348C246.849 329.728 251.334 330 256 330C260.666 330 265.151 329.728 269.141 329.348C277.559 328.546 283.695 321.853 284.816 313.668Z" fill="white"/>
</svg>
