<svg viewBox="0 0 512 512" fill="none" xmlns="http://www.w3.org/2000/svg">
<path fill-rule="evenodd" clip-rule="evenodd" d="M272.324 290C286.173 290 290.277 307.612 302.074 313.531C311.16 318.089 319 311.085 319 313.531C319 333.302 263.87 330.712 255.997 309.661H256.003C248.13 330.712 193 333.302 193 313.531C193 311.085 200.84 318.089 209.926 313.531C221.723 307.612 225.827 290 239.676 290C249.415 290 254.169 293.537 256 298.506C257.831 293.537 262.585 290 272.324 290Z" fill="#FFFF00"/>
<path fill-rule="evenodd" clip-rule="evenodd" d="M196.156 313.724C196.019 313.678 195.885 313.632 195.756 313.588C194.022 312.996 193 312.647 193 313.53C193 333.299 248.114 330.713 256 309.67C263.886 330.713 319 333.299 319 313.53C319 312.647 317.978 312.996 316.244 313.588C316.115 313.632 315.981 313.678 315.844 313.724C304.028 325.163 262.744 320.666 256 302.671C256.001 302.668 256.002 302.665 256.003 302.662H255.997C255.998 302.665 255.999 302.668 256 302.671C249.256 320.666 207.972 325.163 196.156 313.724ZM256 309.67C256.001 309.667 256.002 309.664 256.003 309.661H255.997C255.998 309.664 255.999 309.667 256 309.67Z" fill="black" fill-opacity="0.15"/>
</svg>
