<svg viewBox="0 0 512 512" fill="none" xmlns="http://www.w3.org/2000/svg">
<path fill-rule="evenodd" clip-rule="evenodd" d="M256 331C273.432 331 285 314.876 285 298.611C265.669 300.975 246.342 300.976 227 298.611C227 314.876 238.568 331 256 331Z" fill="black" fill-opacity="0.299"/>
<path fill-rule="evenodd" clip-rule="evenodd" d="M279.548 312.08C281.121 308.807 282 305.339 282 302C265.205 304.054 246.795 304.054 230 302C230 305.339 230.879 308.807 232.452 312.08C237.554 312.94 245.893 314 256 314C266.107 314 274.446 312.94 279.548 312.08ZM277.58 315.536C272.91 322.575 264.987 328 256 328C247.013 328 239.09 322.575 234.42 315.536C239.233 316.274 246.406 317 256 317C265.594 317 272.767 316.274 277.58 315.536Z" fill="white"/>
</svg>
