<svg viewBox="0 0 512 512" fill="none" xmlns="http://www.w3.org/2000/svg">
<path fill-rule="evenodd" clip-rule="evenodd" d="M205.313 337C203.316 383.893 208.495 394 255.997 394C303.5 394 308.371 378.06 306.998 337C305.13 281 291.654 295.925 256.155 296C220.452 295.925 207.188 281 205.313 337ZM284.998 312C284.998 324 292.999 343 280.998 343C269.663 343 282 323 256.155 323C230.311 323 242.648 343 231.313 343C219.312 343 227 324 227 312C239.687 317 272 317 284.998 312Z" fill="#FFFF00"/>
<path fill-rule="evenodd" clip-rule="evenodd" d="M205.033 345.277C205.944 375.787 215.868 383 255.997 383C295.989 383 306.03 371.693 307.163 343.625C307.697 379.785 300.856 394 255.997 394C211.43 394 204.118 385.104 205.033 345.277ZM289.129 317.447C288.926 313.234 288.732 309.192 288.998 306C276 311 235.687 311 223 306C223.257 309.079 223.118 312.948 222.973 316.999C222.685 325.042 222.372 333.801 225.073 338.519C223.991 334.739 224.878 329.037 225.774 323.273C226.385 319.348 227 315.394 227 312C239.687 317 272 317 284.998 312C284.998 315.464 285.665 319.512 286.325 323.518C287.315 329.529 288.29 335.445 286.971 339.152C289.958 334.7 289.527 325.741 289.129 317.447Z" fill="black" fill-opacity="0.15"/>
</svg>
