<svg viewBox="0 0 512 512" fill="none" xmlns="http://www.w3.org/2000/svg">
<path fill-rule="evenodd" clip-rule="evenodd" d="M256 338C281.5 338 296 321 296 305C296 288 278 299 256 299C234 299 216 288 216 305C216 321 230.5 338 256 338Z" fill="black" fill-opacity="0.299"/>
<path fill-rule="evenodd" clip-rule="evenodd" d="M289.388 299.589C286.899 298.521 282.702 299.352 277.101 300.46C271.411 301.587 264.271 303 256 303C247.729 303 240.589 301.587 234.899 300.46C229.298 299.352 225.101 298.521 222.612 299.589L223.652 307.388C223.874 309.053 224.785 310.542 226.29 311.287C230.376 313.309 240.024 317 256 317C271.976 317 281.624 313.309 285.71 311.287C287.214 310.542 288.126 309.053 288.348 307.388L289.388 299.589ZM288.405 318.281C282.912 327.612 271.422 334 256 334C240.578 334 229.088 327.612 223.595 318.281L223.782 315.373C223.88 313.856 225.613 312.914 227 313.538C231.582 315.599 241.361 319 256 319C270.638 319 280.418 315.599 284.999 313.538C286.386 312.914 288.12 313.856 288.218 315.373L288.405 318.281Z" fill="white"/>
</svg>
