<svg width="512" height="512" viewBox="0 0 512 512" fill="none" xmlns="http://www.w3.org/2000/svg">
<path fill-rule="evenodd" clip-rule="evenodd" d="M256 335C281.5 335 296 318 296 302C296 285 278 296 256 296C234 296 216 285 216 302C216 318 230.5 335 256 335Z" fill="black" fill-opacity="0.3"/>
<path fill-rule="evenodd" clip-rule="evenodd" d="M289.388 296.589C286.899 295.521 282.702 296.352 277.101 297.46C271.411 298.587 264.271 300 256 300C247.729 300 240.589 298.587 234.899 297.46C229.298 296.352 225.101 295.521 222.612 296.589L223.652 304.388C223.874 306.053 224.785 307.542 226.29 308.287C230.376 310.309 240.024 314 256 314C271.976 314 281.624 310.309 285.71 308.287C287.214 307.542 288.126 306.053 288.348 304.388L289.388 296.589ZM288.405 315.281C282.912 324.612 271.422 331 256 331C240.578 331 229.088 324.612 223.595 315.281L223.782 312.373C223.88 310.856 225.613 309.914 227 310.538C231.582 312.599 241.361 316 256 316C270.638 316 280.418 312.599 284.999 310.538C286.386 309.914 288.12 310.856 288.218 312.373L288.405 315.281Z" fill="white"/>
</svg>
