<svg viewBox="0 0 512 512" fill="none" xmlns="http://www.w3.org/2000/svg">
<path fill-rule="evenodd" clip-rule="evenodd" d="M256 331C277 331 289 316 289 304C289 292 273.719 299 256 299C238.281 299 223 292 223 304C223 316 235 331 256 331Z" fill="black" fill-opacity="0.299"/>
<path fill-rule="evenodd" clip-rule="evenodd" d="M283.44 300.72L283.194 303.675C283.071 305.144 282.283 306.472 280.956 307.113C277.365 308.848 269.047 312 256 312C243.044 312 234.751 308.892 231.121 307.15C229.745 306.49 228.926 305.114 228.8 303.594L228.56 300.72C230.513 299.653 234.216 300.304 239.193 301.179C243.821 301.993 249.551 303 256 303C262.449 303 268.179 301.993 272.807 301.179C277.784 300.304 281.487 299.653 283.44 300.72Z" fill="white"/>
<path fill-rule="evenodd" clip-rule="evenodd" d="M280.192 317.364C275.281 323.253 266.846 327 256 327C253.93 327 251.948 326.864 250.062 326.602C250.878 320.67 259.717 316 270.5 316C274.006 316 277.306 316.494 280.192 317.364Z" fill="#FF5858"/>
</svg>
