<svg viewBox="0 0 512 512" fill="none" xmlns="http://www.w3.org/2000/svg">
<path d="M255.999 327C240.999 327 224 309 224 309C224 309 240.999 312.5 255.999 312.5C271 312.5 288 309 288 309C288 309 271 327 255.999 327Z" fill="#FFFF00"/>
<path fill-rule="evenodd" clip-rule="evenodd" d="M224.077 309.081C231.652 313.822 244.947 321 255.999 321C267.052 321 280.348 313.821 287.923 309.081C286.671 310.383 270.412 327 255.999 327C241.587 327 225.33 310.384 224.077 309.081Z" fill="black" fill-opacity="0.15"/>
<path fill-rule="evenodd" clip-rule="evenodd" d="M224.055 309.058C231.765 311.316 243.547 314 255.999 314C268.452 314 280.234 311.316 287.945 309.058C287.981 309.02 288 309 288 309C288 309 271 312.5 255.999 312.5C240.999 312.5 224 309 224 309C224 309 224.019 309.02 224.055 309.058Z" fill="black" fill-opacity="0.15"/>
<path d="M256.001 305C247.871 296.871 236 306 224 309C224 309 240.999 312.5 255.999 312.5C271 312.5 288.002 309 288.002 309C276 306 265 297 256.001 305Z" fill="#FFFF00"/>
</svg>
