<svg viewBox="0 0 512 512" fill="none" xmlns="http://www.w3.org/2000/svg">
<path d="M255.999 327C240.999 327 227 309 227 309C227 309 240.999 312.5 255.999 312.5C271 312.5 285 309 285 309C285 309 271 327 255.999 327Z" fill="#FFFF00"/>
<path fill-rule="evenodd" clip-rule="evenodd" d="M227.074 309.093C233.467 313.833 244.957 321 256 321C267.044 321 278.534 313.833 284.927 309.093C283.821 310.483 270.37 327 256 327C241.631 327 228.181 310.484 227.074 309.093Z" fill="black" fill-opacity="0.15"/>
<path fill-rule="evenodd" clip-rule="evenodd" d="M227.444 309.549C234.325 311.687 244.439 314 255.999 314C267.56 314 277.674 311.687 284.556 309.549C284.847 309.197 285 309 285 309C285 309 271 312.5 255.999 312.5C240.999 312.5 227 309 227 309C227 309 227.153 309.197 227.444 309.549Z" fill="black" fill-opacity="0.15"/>
<path d="M256.001 305C250 298 239 306 227 309C227 309 240.999 312.5 255.999 312.5C271 312.5 285.002 309 285.002 309C273 306 262 298 256.001 305Z" fill="#FFFF00"/>
</svg>
