<svg width="512" height="512" viewBox="0 0 512 512" fill="none" xmlns="http://www.w3.org/2000/svg">
<path fill-rule="evenodd" clip-rule="evenodd" d="M256.5 329C274 329 285 319 285 301C267 301 244.979 301 227 301C227 319 239 329 256.5 329Z" fill="black" fill-opacity="0.3"/>
<path fill-rule="evenodd" clip-rule="evenodd" d="M279.732 313H232.268C230.811 310.253 230 307.206 230 304H282C282 307.206 281.189 310.253 279.732 313Z" fill="white"/>
<path fill-rule="evenodd" clip-rule="evenodd" d="M270.311 322.37C266.206 324.664 261.287 326 256 326C250.712 326 245.794 324.664 241.689 322.37C244.713 319.741 249.992 318 256 318C262.008 318 267.287 319.741 270.311 322.37Z" fill="#FF5858"/>
</svg>
