<svg xmlns="http://www.w3.org/2000/svg" width="175" height="84" fill="none" xmlns:v="https://vecta.io/nano"><g clip-path="url(#A)"><g fill="#000"><path d="M88.56 40.307l-11.3814 6.57 6.57 11.3814c.4454.7716 1.6013.6194 1.832-.2412l1.9433-7.2524c6.1292.8316 11.7154 2.7903 16.94 5.113 3.06 1.3607 5.983 2.8392 8.824 4.2877l.535.2733c2.64 1.3474 5.224 2.6648 7.737 3.796 5.345 2.4056 10.617 4.086 15.928 3.4072 5.38-.6878 10.514-3.753 15.677-10.2063a1.501 1.501 0 0 0-.235-2.1084 1.5 1.5 0 0 0-2.108.2343c-4.837 6.0468-9.33 8.544-13.714 9.1046-4.457.5695-9.093-.816-14.317-3.167-2.444-1.0998-4.963-2.3853-7.623-3.742l-.518-.264c-2.838-1.4474-5.825-2.9595-8.967-4.3564-5.27-2.3423-11.017-4.3802-17.3766-5.2914l1.7186-6.4142c.2306-.8606-.6943-1.5703-1.466-1.125zm59.94.42l1.184 2.464c.363.8107.544 1.728.544 2.752 0 .5333-.096 1.0347-.288 1.504-.17.4693-.416.8853-.736 1.248s-.704.6507-1.152.864-.928.32-1.44.32c-.448 0-.864-.1813-1.248-.544-.362-.3413-.565-.736-.608-1.184.086-.1707.16-.2987.224-.384.086-.064.256-.128.512-.192.256.256.512.384.768.384.363 0 .683-.16.96-.48s.416-.7253.416-1.216c0-.1707-.01-.2773-.032-.32-.234-.96-.533-1.824-.896-2.592l-1.088-2.208-.896-1.92c-.256-.6187-.384-1.2373-.384-1.856 0-.512.043-1.0347.128-1.568.086-.5547.235-1.0667.448-1.536s.5-.8533.832-1.152c.363-.2987.822-.448 1.376-.448.064 0 .118.0107.16.032h.192c.214 0 .395.1173.544.352.15.2133.256.4053.32.576 0 .1707-.064.3093-.192.416-.106.0853-.213.1813-.32.288-.256.3413-.448.7253-.576 1.152-.106.4053-.16.8213-.16 1.248v.768c0 .1493.054.3627.16.64l.352.896.416.864.352.576.128.256zm5.518 5.696c-.256-.384-.48-.832-.672-1.344l-.512-1.568-.32-1.6-.16-1.344c-.064-.704-.235-1.4187-.512-2.144-.256-.7253-.384-1.44-.384-2.144 0-.3627.16-.576.48-.64.32-.0853.618-.128.896-.128.085 0 .202.0213.352.064.17.0213.33.0747.48.16.17.064.32.1493.448.256.15.1067.245.2347.288.384 0 .4267.042.9173.128 1.472l.288 1.664.352 1.536.224 1.152c.362-.448.693-1.056.992-1.824l.96-2.304c.34-.768.704-1.44 1.088-2.016.405-.576.885-.896 1.44-.96.448 0 .8.032 1.056.096.256.0427.448.1173.576.224s.213.2453.256.416l.128.608-.96 1.184-.736 1.12-.672 1.216-.704 1.376-.16.352c-.043.1067-.096.2133-.16.32-.3.4053-.544.896-.736 1.472-.17.5547-.374 1.0987-.608 1.632-.214.5333-.48 1.0027-.8 1.408s-.768.64-1.344.704l-.992-.8zm14.86-10.4c.107-.0427.203-.0747.288-.096.107-.0213.213-.0533.32-.096.192.0427.395.0747.608.096.235.0213.5.0747.8.16l.16 1.408c.085.448.128.9387.128 1.472l.128 4.768.16 5.696a20.654 20.654 0 0 1-.224 3.04 8.127 8.127 0 0 1-.992 2.88c-.17.192-.33.4267-.48.704-.15.2987-.352.5867-.608.864-.256.2987-.587.5547-.992.768-.384.2347-.896.384-1.536.448l-.8-.288c-.213-.064-.373-.32-.48-.768.17-.384.437-.7147.8-.992.384-.256.768-.6293 1.152-1.12s.715-1.2053.992-2.144c.3-.9173.448-2.24.448-3.968V47.48l-.032-1.28-.096-1.312-.128-1.472c-.213.448-.448.8747-.704 1.28-.235.384-.533.736-.896 1.056-.34.32-.757.5973-1.248.832-.47.2133-1.035.3627-1.696.448l-.928-.512c-.3-.192-.576-.416-.832-.672a3.642 3.642 0 0 1-.64-.864c-.15-.32-.224-.6827-.224-1.088 0-.128.01-.224.032-.288l.736-2.144c.34-.9173.768-1.824 1.28-2.72.512-.9173 1.12-1.7067 1.824-2.368s1.504-.992 2.4-.992c.17 0 .34.0213.512.064s.34.096.512.16l.256.416zm-4.352 8.576c.32-.0427.64-.2347.96-.576.34-.3413.66-.7787.96-1.312.32-.5547.62-1.1733.896-1.856l.768-2.208a5.957 5.957 0 0 1 .096-.672c.064-.2347.096-.4693.096-.704-.34.0213-.63.096-.864.224a2.785 2.785 0 0 0-.64.48c-.17.192-.33.4053-.48.64l-.48.64-.608 1.152-.64 1.184-.512 1.216c-.128.4053-.192.8-.192 1.184 0 .3413.213.544.64.608z"/></g><path d="M5.2286 29.0018C5.032 20.9745 12.002 15 20.032 15h35.9346c8.0298 0 15 5.9745 14.8033 14.0018C70.0292 59.2427 53.2543 79 37.9992 79S5.9692 59.2427 5.2286 29.0018z" fill="#a3cdff"/><path fill-rule="evenodd" d="M18.8828 68.7908c5.724 6.5617 12.5606 10.2106 19.1165 10.2106 15.255 0 32.03-19.7573 32.7706-49.998.0956-3.904-1.5038-7.3223-4.0958-9.804.2207.8083.345 1.6593.3595 2.5438.5293 32.213-16.9465 53.5084-32.7843 53.5084-5.1757 0-10.5264-2.2742-15.3665-6.4606z" fill="#000" fill-opacity=".15"/><path d="M64.4976 25.5003c3.7497 1.75 4.5 13 5.5 13s4-14 3.25-17.5-3.75-3.875-6.375-6.5-1.625-5-4.5-6.625-7.125-.125-10.125-1.125-2.375-3.875-6.25-4.25-6.75.625-10 1.125-7.125-1.875-10.125-.875-3 3.75-5.375 4.875-5.2498.5-7.9998 2-1.8752 4.125-3.7502 6.375-4.833 3.5-6 7 2.2497 15.5 3.25 15.5 3.125-12.25 5.5-13 5 3 7.625 2.25 2.5002-4 5.375-4.375 6.2502 5.125 9.375 4.375 7.3752-4.625 10.125-4.625 6.25 4.625 9.3748 4.875c3.684.2947 7.3754-4.25 11.1252-2.5z" fill="#002a65"/><g fill="#000"><path fill-rule="evenodd" d="M70.2004 30.504c-.4163-2.163-1.3824-7.1824-6.448-8.254-3.8678-.8182-6.1214.327-8.0885 1.3263-1.3388.6803-2.5448 1.293-4.0367 1.1737-1.5675-.1254-3.2295-1.3517-4.8438-2.543-1.6038-1.1834-3.1606-2.332-4.53-2.332-1.508 0-3.4676 1.1656-5.4452 2.342-1.6283.9685-3.2688 1.9443-4.6798 2.283-1.6394.3935-3.348-.9334-5.0168-2.2297-1.512-1.1743-2.9917-2.3236-4.3582-2.1453-1.5146.1976-2.1966 1.1932-2.8868 2.2008-.6198.9048-1.2462 1.8193-2.4882 2.1742-1.3342.3812-2.6684-.4-3.9698-1.1622-1.26-.7373-2.4873-1.4566-3.6552-1.0878-1.4126.446-2.7367 4.9605-3.7883 8.546-.6222 2.1212-1.15 3.9173-1.5423 4.3532.623 1.966 1.2417 3.351 1.5815 3.351.4053 0 .9953-2.0115 1.7117-4.454 1.0516-3.5854 2.3758-8.0998 3.7883-8.546 1.1678-.3688 2.396.3505 3.6552 1.0878 1.3014.762 2.6356 1.5434 3.9698 1.1622 1.242-.355 1.8684-1.2694 2.4882-2.1742.6902-1.0076 1.3722-2.0032 2.8868-2.2008 1.3665-.1783 2.846.97 4.3582 2.1453 1.669 1.2963 3.3774 2.6232 5.0168 2.2297 1.41-.3387 3.0515-1.3145 4.6797-2.283 1.9777-1.1764 3.9372-2.342 5.4453-2.342 1.3704 0 2.9272 1.1487 4.53 2.332 1.6143 1.1912 3.2763 2.4175 4.8438 2.543 1.5964.1277 3.1943-.6534 4.7977-1.4372 2.0966-1.025 4.2026-2.0544 6.3274-1.0628 2.4247 1.1316 3.5952 6.235 4.4 9.701.4345 1.8942.7567 3.299 1.11 3.299 1 0 4-14 3.25-17.5-.2128-.9932-.6068-1.7348-1.122-2.3476.3636 4.0892-1.1666 12.8476-1.6288 12.8476-.1103 0-.184-.3835-.302-.996z" fill-opacity=".35"/><path d="M21.6576 43.5H54.343c1.0454 0 1.7702 1.0424 1.4062 2.0223l-1.7726 4.7723a3 3 0 0 1-2.8122 1.9554h-7.828a3 3 0 0 1-2.8123-1.9554L38.7432 45.5h-1.4857l-1.781 4.7946a3 3 0 0 1-2.8122 1.9554h-7.828a3 3 0 0 1-2.8123-1.9554l-1.7725-4.7723c-.364-.98.3608-2.0223 1.406-2.0223z"/></g><g fill="#fff"><path d="M54.6965 45.4805l-12.0837 5.6347c.226.0875.47.1348.722.1348h7.828a2 2 0 0 0 1.8748-1.3037l1.6588-4.4658zM34.538 49.9463l1.6382-4.4104-12.0083 5.5996a1.997 1.997 0 0 0 .6672.1145h7.828a2 2 0 0 0 1.8748-1.3037z"/></g><g fill-rule="evenodd"><path d="M38 65.7496c5.25 0 8.25-3.75 8.25-6.75s-3.8203-1.25-8.25-1.25-8.25-1.75-8.25 1.25 3 6.75 8.25 6.75z" fill="#000" fill-opacity=".3"/><path d="M44.8606 58.1797l-.0616.7388c-.0306.3672-.2277.699-.5595.8595-.8975.4337-2.977 1.2218-6.2388 1.2218-3.24 0-5.3123-.777-6.22-1.2127-.3438-.165-.5486-.5088-.5803-.8888l-.06-.7186c.4882-.2668 1.414-.104 2.6582.1147 1.157.2034 2.5894.4553 4.2018.4553s3.0447-.252 4.2017-.4553c1.2444-.2188 2.17-.3816 2.6583-.1147z" fill="#fff"/><path d="M44.048 62.341c-1.2277 1.4722-3.3363 2.41-6.048 2.41-.5175 0-1.013-.034-1.4846-.0995C36.72 63.1675 38.9295 62 41.6252 62c.8764 0 1.7014.1234 2.423.341z" fill="#ff5858"/></g><circle cx="63.25" cy="72.25" r="10.75" fill="#fff"/><circle cx="63.25" cy="72.25" r="9" fill="#1a82ff"/><g fill="#fefefe"><path d="M67.0833 74.2807c1.0565 0 1.9167-.8532 1.9167-1.914s-.8544-1.914-1.9167-1.914c-1.4375 0-1.9166-.4784-1.9166-1.914 0-1.055-.8602-1.914-1.9167-1.914s-1.9166.8532-1.9166 1.914c0 1.4355-.4792 1.914-1.9168 1.914-1.0564 0-1.9166.8533-1.9166 1.914 0 1.055.8602 1.914 1.9166 1.914s1.9168-.8532 1.9168-1.914c0-1.4355.48-1.914 1.9166-1.914s1.9167.4785 1.9167 1.914c0 1.055.86 1.914 1.9166 1.914zm-3.833 3.6173c1.0586 0 1.9167-.857 1.9167-1.914s-.858-1.914-1.9167-1.914-1.9166.857-1.9166 1.914.858 1.914 1.9166 1.914z"/></g></g><defs><clipPath id="A"><path fill="#fff" d="M0 0h175v84H0z"/></clipPath></defs></svg>