<svg xmlns="http://www.w3.org/2000/svg" xmlns:xlink="http://www.w3.org/1999/xlink" width="168" height="151" fill="none" xmlns:v="https://vecta.io/nano"><style><![CDATA[.B{fill:#000}.C{fill-rule:evenodd}]]></style><g clip-path="url(#B)"><path d="M29.3927 125.848c0-.336.144-.576.432-.72.512-.272.864-.56 1.056-.864.944-1.52 1.416-3.136 1.416-4.848 0-.992-.192-1.872-.576-2.64-.192-.384-.584-.6-1.176-.648l-1.44-.144c-.672-.256-1.008-.568-1.008-.936.048-1.792.72-4.296 2.016-7.512.096-.24.328-.36.696-.36.512 0 .816.184.912.552.208.08.392.12.552.12.336 0 .792-.104 1.368-.312.672-.224 1.144-.336 1.416-.336.4 0 .76.136 1.08.408.128.224.192.424.192.6 0 .128-.008.208-.024.24-.512.432-1.336.784-2.472 1.056-1.328.304-2.208.584-2.64.84-.608 1.536-.968 2.808-1.08 3.816 2.384.704 3.696 1.768 3.936 3.192.064.352.104.704.12 1.056l.048 1.056c0 2.912-.848 5.288-2.544 7.128-.288.32-.568.48-.84.48-.112 0-.232-.04-.36-.12a3.289 3.289 0 0 0-.336-.168l-.312-.144c-.272-.16-.416-.376-.432-.648v-.144zm10.047-4.08c0 .336-.144.504-.432.504-.976 0-1.512-.216-1.608-.648-.112-.448-.192-.928-.24-1.44l-.072-1.704c0-.8.072-2.032.216-3.696l.216-3.696c0-.512-.04-1-.12-1.464-.08-.48-.12-.928-.12-1.344 0-.112.048-.232.144-.36.096-.144.208-.24.336-.288.272-.08.472-.12.6-.12.864 0 1.32.936 1.368 2.808v.6l-.144 4.152-.144 2.88-.048 1.872v.96l.048.888v.096zm2.096-.84c.176-.448.424-.992.744-1.632l1.2-2.28 1.224-2.28.768-1.608.336-.744.36-.768c.256-.576.384-1.088.384-1.536 0-.672-.168-1.008-.504-1.008-.208 0-.44.224-.696.672l-.384.648-.336.6-.048.216c0 .08.04.232.12.456.096.224.144.4.144.528 0 .16-.064.312-.192.456-.128.128-.28.192-.456.192-.208 0-.64-.304-1.296-.912-.208-.192-.312-.448-.312-.768 0-.384.144-.84.432-1.368.688-1.296 1.744-2.128 3.168-2.496.16-.048.328-.072.504-.072.736 0 1.216.336 1.44 1.008.144.464.216.952.216 1.464 0 .8-.192 1.712-.576 2.736l-.576 1.296-.552 1.296-.48.96-.744 1.392c-.56.928-.944 1.728-1.152 2.4.128.016.368.024.72.024h1.44c.864 0 1.576.072 2.136.216.448.112.672.424.672.936 0 .112-.024.216-.072.312-.128.288-.504.472-1.128.552l-.888.072-1.032.024c-.256 0-.48-.008-.672-.024h-.936c-.096.016-.176.024-.24.024l-.576.024-.312.024c-.976 0-1.592-.344-1.848-1.032zm8.7998-8.736l.192-.24c.064-.096.16-.144.288-.144.288.032.568.112.84.24.288.128.536.368.744.72l.432.816.312.6.336.504.408.528c.064-.128.176-.312.336-.552l.552-.744.528-.648c.16-.192.264-.296.312-.312.192-.24.4-.472.624-.696.24-.224.528-.336.864-.336.304 0 .584.064.84.192.272.112.408.312.408.6a.906.906 0 0 1-.048.288l-.912 1.056-.888.84c-.08.144-.2.312-.36.504l-.48.576-.432.528c-.112.16-.168.28-.168.36 0 .048.072.16.216.336l.528.6.552.624c.176.208.288.368.336.48l.552.768c.208.24.312.512.312.816 0 .128-.056.248-.168.36s-.232.208-.36.288c-.096 0-.184.008-.264.024-.064.016-.136.024-.216.024a1.221 1.221 0 0 1-.24-.024c-.08-.016-.176-.056-.288-.12-.096-.096-.24-.264-.432-.504l-.6-.768-.576-.744c-.176-.224-.296-.352-.36-.384-.144.192-.288.408-.432.648l-.432.72-.36.696-.264.576c-.096.272-.24.552-.432.84-.176.304-.408.456-.696.456-.176 0-.344-.056-.504-.168-.24-.208-.4-.408-.48-.6-.064-.192-.112-.416-.144-.672 0-.032-.008-.056-.024-.072V121c.176-.464.4-.888.672-1.272.288-.4.552-.832.792-1.296.128-.24.288-.472.48-.696.208-.24.32-.504.336-.792l-.48-.912-.384-.72-.408-.672-.432-.792c-.112-.208-.256-.392-.432-.552s-.272-.36-.288-.6l.192-.504zm10.1353 13.656c0-.336.144-.576.432-.72.512-.272.864-.56 1.056-.864.944-1.52 1.416-3.136 1.416-4.848 0-.992-.192-1.872-.576-2.64-.192-.384-.584-.6-1.176-.648l-1.44-.144c-.672-.256-1.008-.568-1.008-.936.048-1.792.72-4.296 2.016-7.512.096-.24.328-.36.696-.36.512 0 .816.184.912.552.208.08.392.12.552.12.336 0 .792-.104 1.368-.312.672-.224 1.144-.336 1.416-.336.4 0 .76.136 1.08.408.128.224.192.424.192.6 0 .128-.008.208-.024.24-.512.432-1.336.784-2.472 1.056-1.328.304-2.208.584-2.64.84-.608 1.536-.968 2.808-1.08 3.816 2.384.704 3.696 1.768 3.936 3.192.064.352.104.704.12 1.056l.048 1.056c0 2.912-.848 5.288-2.544 7.128-.288.32-.568.48-.84.48-.112 0-.232-.04-.36-.12a3.289 3.289 0 0 0-.336-.168l-.312-.144c-.272-.16-.416-.376-.432-.648v-.144zm10.0472-4.08c0 .336-.144.504-.432.504-.976 0-1.512-.216-1.608-.648-.112-.448-.192-.928-.24-1.44l-.072-1.704c0-.8.072-2.032.216-3.696l.216-3.696c0-.512-.04-1-.12-1.464-.08-.48-.12-.928-.12-1.344 0-.112.048-.232.144-.36.096-.144.208-.24.336-.288.272-.08.472-.12.6-.12.864 0 1.32.936 1.368 2.808v.6l-.144 4.152-.144 2.88-.048 1.872v.96l.048.888v.096zm2.0958-.84c.176-.448.424-.992.744-1.632l1.2-2.28 1.224-2.28.768-1.608.336-.744.36-.768c.256-.576.384-1.088.384-1.536 0-.672-.168-1.008-.504-1.008-.208 0-.44.224-.696.672l-.384.648-.336.6-.048.216c0 .08.04.232.12.456.096.224.144.4.144.528 0 .16-.064.312-.192.456-.128.128-.28.192-.456.192-.208 0-.64-.304-1.296-.912-.208-.192-.312-.448-.312-.768 0-.384.144-.84.432-1.368.688-1.296 1.744-2.128 3.168-2.496.16-.048.328-.072.504-.072.736 0 1.216.336 1.44 1.008.144.464.216.952.216 1.464 0 .8-.192 1.712-.576 2.736l-.576 1.296-.552 1.296-.48.96-.744 1.392c-.56.928-.944 1.728-1.152 2.4.128.016.368.024.72.024h1.44c.864 0 1.576.072 2.136.216.448.112.672.424.672.936 0 .112-.024.216-.072.312-.128.288-.504.472-1.128.552l-.888.072-1.032.024c-.256 0-.48-.008-.672-.024h-.936c-.096.016-.176.024-.24.024l-.576.024-.312.024c-.976 0-1.592-.344-1.848-1.032zm17.7038 3.792c0 .464.024.888.072 1.272.064.4.096.768.096 1.104 0 .144-.024.32-.072.528-.032.208-.096.408-.192.6s-.224.352-.384.48-.368.192-.624.192c-.24 0-.48-.104-.72-.312-.224-.192-.336-.416-.336-.672v-.288l.048-.312-.024-.816v-.816l.024-2.52.024-2.616-.024-2.016-.024-2.256-.096-1.944-.072-1.968c0-.288.056-.504.168-.648.128-.144.4-.216.816-.216.448 0 .744.104.888.312.16.208.288.464.384.768l.456-.168c.192-.064.352-.096.48-.096h.168c.432 0 .76.04.984.12.224.064.448.16.672.288l.072.048c.016 0 .024.008.024.024h.048c.304.16.584.384.84.672a4.599 4.599 0 0 1 .696.96 5.536 5.536 0 0 1 .456 1.104c.112.384.168.752.168 1.104 0 .432-.096.896-.288 1.392-.176.496-.448.952-.816 1.368s-.84.76-1.416 1.032c-.56.272-1.224.408-1.992.408h-.216a.642.642 0 0 1-.24-.048c-.032.064-.048.152-.048.264v3.672zm2.04-6.168c.528-.544.792-1.208.792-1.992a2.506 2.506 0 0 0-.144-.84c-.08-.288-.208-.552-.384-.792-.16-.24-.36-.44-.6-.6-.224-.16-.488-.264-.792-.312l-.312.12c-.096.032-.216.096-.36.192-.128.08-.208.136-.24.168l-.048.048c0 .016-.016.032-.048.048-.032.032-.048.184-.048.456l.024 1.08.048.84v.816c0 .352.016.672.048.96s.112.432.24.432c.24 0 .456-.016.648-.048.208-.048.44-.136.696-.264l.48-.312zm6.7217-.96c.224-.224.4-.512.528-.864l.4077-1.008.048-.144c.096-.256.24-.568.432-.936a6.782 6.782 0 0 1 .672-1.08c.256-.352.536-.648.84-.888s.616-.36.936-.36c.272.08.472.208.6.384.144.176.248.376.312.6.08.208.144.432.192.672a4.482 4.482 0 0 0 .24.648c.208.464.36.96.456 1.488l.528 3.216c.096.528.24 1.016.432 1.464-.032.256-.176.44-.432.552-.24.128-.456.192-.648.192-.288 0-.512-.112-.672-.336-.16-.208-.288-.464-.384-.768-.08-.32-.144-.648-.192-.984-.032-.336-.08-.616-.144-.84-.08-.272-.144-.576-.192-.912l-.168-1.056c-.064-.352-.144-.68-.24-.984-.08-.304-.2-.552-.36-.744-.272.432-.496.84-.672 1.224l-.456 1.08-.384 1.008c-.128.32-.288.648-.48.984-.256.464-.4877.824-.6957 1.08s-.4.448-.576.576c-.176.112-.344.176-.504.192-.16.032-.312.048-.456.048-.16 0-.36-.08-.6-.24-.224-.16-.336-.352-.336-.576v-2.808l.024-2.736-.024-.816-.024-.84c0-.192.032-.376.096-.552.08-.192.208-.328.384-.408h.288c.096-.016.184-.024.264-.024.208 0 .368.064.48.192.128.112.216.256.264.432.064.176.104.36.12.552l.024.48c0 .176.016.344.048.504.048.16.072.328.072.504l-.024 1.512-.024 1.2v.12zm13.0987-4.824a1.702 1.702 0 0 1 .216-.072c.08-.016.16-.04.24-.072.144.032.296.056.456.072.176.016.376.056.6.12l.12 1.056c.064.336.096.704.096 1.104l.096 3.576.12 4.272c0 .768-.056 1.528-.168 2.28-.112.768-.36 1.488-.744 2.16-.128.144-.248.32-.36.528-.112.224-.264.44-.456.648-.192.224-.44.416-.744.576-.288.176-.672.288-1.152.336l-.6-.216c-.16-.048-.28-.24-.36-.576.128-.288.328-.536.6-.744.288-.192.576-.472.864-.84s.536-.904.744-1.608c.224-.688.336-1.68.336-2.976v-1.032l-.024-.96-.072-.984-.096-1.104c-.16.336-.336.656-.528.96-.176.288-.4.552-.672.792-.256.24-.568.448-.936.624-.352.16-.776.272-1.272.336l-.696-.384a3.744 3.744 0 0 1-.624-.504c-.192-.192-.352-.408-.48-.648-.112-.24-.168-.512-.168-.816 0-.096.008-.168.024-.216l.552-1.608c.256-.688.576-1.368.96-2.04.384-.688.84-1.28 1.368-1.776s1.128-.744 1.8-.744a1.578 1.578 0 0 1 .384.048c.128.032.256.072.384.12l.192.312zm-3.264 6.432c.24-.032.48-.176.72-.432.256-.256.496-.584.72-.984.24-.416.464-.88.672-1.392l.576-1.656c.016-.176.04-.344.072-.504a1.999 1.999 0 0 0 .072-.528c-.256.016-.472.072-.648.168a2.094 2.094 0 0 0-.48.36c-.128.144-.248.304-.36.48l-.36.48-.456.864-.48.888-.384.912c-.096.304-.144.6-.144.888 0 .256.16.408.48.456zm13.582-1.08c0-.32-.056-.624-.168-.912-.096-.288-.144-.592-.144-.912a7.234 7.234 0 0 0-.12-1.32c-.08-.432-.12-.864-.12-1.296 0-.304.024-.592.072-.864.064-.288.264-.432.6-.432.576 0 .936.128 1.08.384.16.256.24.56.24.912 0 .432.04.84.12 1.224.08.368.144.816.192 1.344l.048.648c.016.192.048.384.096.576.112-.096.208-.232.288-.408.096-.176.184-.36.264-.552l.216-.576c.08-.192.16-.352.24-.48.128-.176.24-.376.336-.6l.312-.648c.112-.208.232-.392.36-.552s.28-.264.456-.312l.432.144c.16.032.304.088.432.168.144.064.256.16.336.288.096.128.144.304.144.528a8.488 8.488 0 0 0 .264 2.112l.528 1.776c.288-.48.536-1.016.744-1.608l.552-1.752.408-1.536c.128-.48.248-.832.36-1.056.08-.128.224-.232.432-.312.224-.08.408-.12.552-.12.24 0 .448.104.624.312.176.192.264.376.264.552 0 .112-.04.312-.12.6l-.264.96-.768 2.256-.36.936-.216.528-.432 1.032c-.112.352-.248.672-.408.96s-.352.52-.576.696-.528.264-.912.264-.688-.136-.912-.408-.416-.608-.576-1.008c-.16-.416-.304-.856-.432-1.32s-.288-.88-.48-1.248c-.112.192-.232.424-.36.696l-.384.84-.408.816c-.128.256-.264.472-.408.648-.096.096-.16.2-.192.312-.032.096-.08.184-.144.264-.048.08-.128.152-.24.216-.096.048-.264.072-.504.072-.336 0-.592-.096-.768-.288s-.312-.424-.408-.696c-.08-.288-.128-.592-.144-.912l-.024-.84v-.096zm12.382-11.208c.08-.08.224-.12.432-.12.16 0 .32.032.48.096a1.355 1.355 0 0 1 .48.24c.144.096.256.208.336.336.096.128.144.264.144.408 0 .304-.08.512-.24.624-.144.096-.352.144-.624.144-.176 0-.36-.024-.552-.072-.176-.064-.336-.136-.48-.216s-.264-.16-.36-.24c-.08-.096-.12-.184-.12-.264 0-.192.016-.36.048-.504.048-.144.2-.288.456-.432zM137 120.424c0 .128-.032.256-.096.384s-.184.28-.36.456c-.272 0-.528-.024-.768-.072a1.396 1.396 0 0 1-.6-.288c-.16-.144-.288-.352-.384-.624s-.144-.64-.144-1.104a3.552 3.552 0 0 0-.096-.816 4.687 4.687 0 0 1-.072-.816c0-.816-.048-1.592-.144-2.328s-.144-1.512-.144-2.328c0-.336.136-.592.408-.768.16-.048.312-.08.456-.096l.48-.096c.224.064.392.16.504.288l.312.336-.048.48v.504l.096 1.944.216 1.968.216 1.704.168 1.176v.096zm3.423-14.688c0-.192.024-.4.072-.624l.312-.144c.08-.048.184-.072.312-.072.272 0 .488.048.648.144.176.096.304.216.384.36.096.144.16.312.192.504a2.946 2.946 0 0 1 .048.528l.024.888.024.72-.024.768v.744l-.024.552v.6c0 .096.008.184.024.264s.088.12.216.12c.416 0 .776-.064 1.08-.192.32-.144.688-.216 1.104-.216.224 0 .376.088.456.264s.12.352.12.528c0 .208-.048.376-.144.504-.096.112-.216.2-.36.264s-.304.12-.48.168l-.48.12c-.144.064-.32.128-.528.192-.192.048-.376.112-.552.192s-.328.184-.456.312-.192.288-.192.48v.312a1.749 1.749 0 0 1 .024.288c0 .096-.008.2-.024.312v.312c0 .72.048 1.472.144 2.256l.36 2.232.168.672c.064.224.096.432.096.624 0 .272-.072.472-.216.6s-.304.216-.48.264l-.288.048c-.224 0-.432-.08-.624-.24-.176-.144-.328-.328-.456-.552-.08-.224-.152-.528-.216-.912l-.096-1.056-.096-2.328-.048-2.352c0-.064-.008-.12-.024-.168 0-.064-.016-.128-.048-.192-.288.048-.528.12-.72.216s-.416.144-.672.144c-.32 0-.592-.104-.816-.312l-.504-.504c0-.176.04-.4.12-.672.208-.08.4-.136.576-.168l.504-.096.528-.12c.176-.048.368-.128.576-.24.256 0 .4-.096.432-.288.048-.208.072-.384.072-.528l-.024-.72v-.864l-.024-.72v-3.216zm6.1 12.096L146.44 115l-.048-2.904.024-1.8.072-1.848.144-1.68c.08-.544.176-1.008.288-1.392.272-.08.504-.12.696-.12.336 0 .584.128.744.384.16.24.24.52.24.84 0 .4-.032.76-.096 1.08-.064.304-.104.632-.12.984l-.096 1.968-.048 1.728-.024 1.656v1.632c.176-.432.376-.848.6-1.248s.456-.752.696-1.056c.256-.32.52-.568.792-.744.288-.192.568-.288.84-.288.432.032.784.192 1.056.48.288.272.512.6.672.984s.272.776.336 1.176.096.728.096.984c.064.256.104.552.12.888l.096.888c.064.528.176 1.072.336 1.632.16.544.256 1.048.288 1.512-.048.16-.152.304-.312.432s-.304.192-.432.192c-.4 0-.72-.192-.96-.576s-.424-.824-.552-1.32c-.128-.512-.216-1.024-.264-1.536l-.048-1.128c0-.192-.024-.432-.072-.72-.032-.288-.08-.56-.144-.816-.048-.272-.104-.496-.168-.672-.064-.192-.128-.288-.192-.288-.192.064-.376.216-.552.456s-.344.536-.504.888l-.408 1.08-.336 1.104-.216.936-.096.552v.12c0 .032-.008.056-.024.072v.144l-.072.528c-.016.176-.048.344-.096.504-.048.144-.112.264-.192.36s-.176.144-.288.144c-.416 0-.744-.088-.984-.264-.224-.176-.392-.4-.504-.672-.112-.288-.176-.6-.192-.936l-.024-1.056v-.432zm-102.3647 21.8v1.272l.024.312.48-.864c.192-.288.496-.696.912-1.224.032-.032.104-.096.216-.192s.256-.2.432-.312c.192-.112.4-.208.624-.288.24-.08.488-.12.744-.12.48 0 .864.136 1.152.408.304.256.536.576.696.96.176.384.296.8.36 1.248s.096.848.096 1.2c0 .192-.016.464-.048.816s-.096.728-.192 1.128-.232.8-.408 1.2c-.16.384-.376.704-.648.96-.368.336-.8.592-1.296.768s-.944.264-1.344.264a7.584 7.584 0 0 1-1.2-.096c-.384-.064-.76-.152-1.128-.264-.096-.048-.192-.136-.288-.264l-.264-.48a5.653 5.653 0 0 1-.216-.552l-.168-.552c-.048-.048-.096-.2-.144-.456l-.144-.936-.096-1.128-.024-1.056.072-4.008.36-4.368a8.038 8.038 0 0 1 .048-.888c.032-.288.096-.592.192-.912.08-.24.256-.384.528-.432.288-.064.528-.096.72-.096a.9.9 0 0 1 .408.096c.128.064.208.176.24.336l-.336 2.904c-.144.912-.232 1.88-.264 2.904l-.096 2.712zm1.224 2.88l-.24.672-.192.6-.144.672-.072.768c.176.192.344.304.504.336s.368.048.624.048c.4-.048.72-.2.96-.456.256-.256.456-.568.6-.936s.24-.76.288-1.176c.048-.432.072-.832.072-1.2l-.024-.504c0-.192-.024-.376-.072-.552-.032-.176-.08-.328-.144-.456s-.144-.192-.24-.192-.24.08-.432.24c-.176.16-.36.36-.552.6a8.534 8.534 0 0 0-.552.72c-.16.256-.272.48-.336.672l-.048.144zm9.2036 4.224a.213.213 0 0 0 .024.096.213.213 0 0 1 .024.096c0 .256-.112.44-.336.552-.208.128-.424.192-.648.192-.4 0-.72-.224-.96-.672-.24-.432-.424-.936-.552-1.512-.128-.592-.216-1.176-.264-1.752l-.048-1.296-.024-2.088v-1.944l.12-2.568c.096-.848.144-1.728.144-2.64 0-.208.048-.376.144-.504s.224-.256.384-.384c.128 0 .28.008.456.024.192.016.368.056.528.12s.296.152.408.264.168.272.168.48c0 .416-.04.84-.12 1.272-.08.416-.12.832-.12 1.248l-.024 1.656v1.44l.024 1.2.024 1.128v.792l.024.696c0 .624.064 1.32.192 2.088l.432 2.016zm10.1562-.168l.144.408a1.087 1.087 0 0 1 .072.384c0 .128-.04.232-.12.312-.064.08-.152.144-.264.192a1.013 1.013 0 0 1-.312.096c-.112.032-.216.048-.312.048-.32 0-.584-.184-.792-.552-.208-.352-.376-.792-.504-1.32l-.336-1.704-.24-1.632c-.048.336-.208.76-.48 1.272-.256.512-.584 1.008-.984 1.488-.4.464-.84.864-1.32 1.2s-.96.504-1.44.504c-.384 0-.704-.08-.96-.24-.24-.144-.424-.328-.552-.552s-.216-.472-.264-.744c-.048-.288-.072-.552-.072-.792 0-.528.128-1.176.384-1.944.272-.784.632-1.544 1.08-2.28.464-.736.992-1.36 1.584-1.872.608-.528 1.248-.792 1.92-.792.144 0 .304.024.48.072.192.048.384.112.576.192a2.495 2.495 0 0 1 .552.264c.176.096.328.192.456.288.272.224.456.528.552.912s.168.784.216 1.2l.264 2.184c.064.64.184 1.32.36 2.04l.144.888.168.48zm-6.768-1.248v.048c.016 0 .024.008.024.024.208-.016.448-.152.72-.408.272-.272.544-.592.816-.96s.52-.752.744-1.152c.24-.416.416-.784.528-1.104l.216-.48.264-.528c.096-.192.168-.368.216-.528.064-.16.096-.296.096-.408l-.216-.096c-.064-.032-.136-.048-.216-.048-.352 0-.664.136-.936.408s-.512.576-.72.912c-.192.336-.352.664-.48.984l-.264.576c-.224.4-.416.832-.576 1.296-.144.464-.216.912-.216 1.344v.12zm12.7785.432c.192 0 .344.064.456.192.128.128.192.288.192.48 0 .16-.048.288-.144.384-.08.096-.192.168-.336.216s-.312.08-.504.096l-.528.072-.792-.216c-.24-.064-.488-.184-.744-.36l-1.176-1.08c-.368-.384-.656-.824-.864-1.32-.08-.096-.152-.224-.216-.384l-.144-.48-.072-.48-.024-.384c0-.32.032-.656.096-1.008.08-.352.192-.696.336-1.032s.32-.64.528-.912c.208-.288.456-.528.744-.72l.912-.408.672-.216c.224-.08.464-.12.72-.12.368.032.624.104.768.216.144.096.264.328.36.696-.016.08-.064.192-.144.336s-.2.24-.36.288c-.176.08-.352.128-.528.144-.16.016-.32.064-.48.144-.272.128-.488.256-.648.384l-.384.336c-.112.112-.192.224-.24.336-.128.176-.208.376-.24.6s-.048.424-.048.6c0 .336.048.672.144 1.008.112.336.248.656.408.96.16.288.336.544.528.768.208.208.4.36.576.456.272.272.56.408.864.408h.312zm4.6123-1.416a11.727 11.727 0 0 0 .072 1.296c.064.416.096.848.096 1.296 0 .352-.12.616-.36.792-.224.176-.488.264-.792.264-.272 0-.48-.04-.624-.12-.144-.064-.256-.16-.336-.288-.064-.112-.104-.248-.12-.408-.016-.144-.024-.304-.024-.48v-1.824l.024-1.92v-1.92l.024-1.776-.096-3.12-.072-3.288c0-.176.04-.368.12-.576.16-.176.336-.304.528-.384a3.083 3.083 0 0 1 .648-.216c.416.064.704.224.864.48.176.24.264.608.264 1.104l-.072 4.8-.12 3.72.936-.864c.32-.304.6-.624.84-.96.08-.224.184-.448.312-.672.128-.24.28-.448.456-.624.192-.192.392-.344.6-.456.224-.128.464-.192.72-.192.064.032.144.064.24.096.112.032.208.072.288.12s.152.112.216.192c.064.064.096.16.096.288 0 .176-.112.448-.336.816l-.792 1.176-.936 1.224-.792.936c.32.512.704.952 1.152 1.32l1.296.984 1.056.72c.288.208.432.4.432.576 0 .208-.056.376-.168.504a.901.901 0 0 1-.36.288c-.144.064-.296.104-.456.12-.16.032-.296.048-.408.048-.224 0-.52-.136-.888-.408l-1.176-.96-1.224-1.128c-.416-.384-.792-.688-1.128-.912v.336zm15.452 2.808c-.272 0-.52-.072-.744-.216-.208-.16-.432-.312-.672-.456-.528-.304-.936-.704-1.224-1.2s-.432-1.104-.432-1.824c0-.352.056-.768.168-1.248l.336-1.368c.048-.176.16-.416.336-.72.176-.32.392-.624.648-.912a4.77 4.77 0 0 1 .912-.792c.336-.224.68-.336 1.032-.336.144 0 .288.048.432.144.224.144.456.264.696.36l.72.288.744.312c.24.112.464.256.672.432a1.468 1.468 0 0 1 .408.528l.288.6c.08.16.128.328.144.504.016.16.024.328.024.504v.456c-.016.496-.12.96-.312 1.392-.176.416-.392.824-.648 1.224-.128.208-.296.448-.504.72s-.44.528-.696.768-.528.448-.816.624c-.272.16-.552.24-.84.24-.08 0-.168-.008-.264-.024h-.408zm2.352-5.736c0-.464-.168-.8-.504-1.008a2.057 2.057 0 0 0-1.104-.312c-.32 0-.592.128-.816.384-.224.24-.416.544-.576.912-.16.352-.28.736-.36 1.152-.064.4-.096.752-.096 1.056 0 .064.008.192.024.384.032.192.08.392.144.6s.152.392.264.552c.128.16.288.24.48.24.176 0 .336-.024.48-.072l.48-.216c.256-.16.48-.376.672-.648s.344-.568.456-.888c.128-.32.224-.656.288-1.008.08-.352.136-.688.168-1.008v-.12zm3.68-1.128l.048-1.248c.032-.4.112-.792.24-1.176.016-.032.056-.064.12-.096.08-.048.168-.088.264-.12l.144-.048.216-.048c.256.032.512.128.768.288s.384.392.384.696c0 .256-.024.488-.072.696-.048.192-.072.424-.072.696 0 .464-.024.824-.072 1.08-.032.256-.048.496-.048.72l.072 2.136.12 1.464c.256-.032.536-.248.84-.648.3202-.416.6322-.912.9362-1.488s.584-1.184.84-1.824l.624-1.704c.064-.208.088-.416.072-.624 0-.208.024-.392.072-.552.048-.176.152-.32.312-.432.176-.112.464-.168.864-.168.016 0 .032.008.048.024h.048c.128 0 .28.064.456.192s.304.256.384.384l-.096 2.232-.072 1.368c0 .768.048 1.432.144 1.992.112.544.288.984.528 1.32l.264.336c.08.096.152.216.216.36-.032.16-.088.288-.168.384-.064.08-.144.144-.24.192-.096.032-.2.056-.312.072s-.224.04-.336.072c-.352-.08-.64-.224-.864-.432-.208-.208-.384-.456-.528-.744-.128-.304-.224-.632-.288-.984l-.168-1.128-.096.192-.528 1.08c-.208.448-.456.888-.744 1.32-.288.416-.624.776-1.008 1.08-.3682.32-.7682.48-1.2002.48-.464 0-.84-.096-1.128-.288-.272-.176-.488-.472-.648-.888-.144-.416-.248-.952-.312-1.608l-.072-2.424a4.746 4.746 0 0 0 .048-.672v-1.512zm11.5012-8.544c0-.192.024-.4.072-.624l.312-.144c.08-.048.184-.072.312-.072.272 0 .488.048.648.144.176.096.304.216.384.36.096.144.16.312.192.504a2.946 2.946 0 0 1 .048.528l.024.888.024.72-.024.768v.744l-.024.552v.6c0 .096.008.184.024.264s.088.12.216.12c.416 0 .776-.064 1.08-.192.32-.144.688-.216 1.104-.216.224 0 .376.088.456.264s.12.352.12.528c0 .208-.048.376-.144.504-.096.112-.216.2-.36.264s-.304.12-.48.168l-.48.12c-.144.064-.32.128-.528.192-.192.048-.376.112-.552.192s-.328.184-.456.312-.192.288-.192.48v.312a1.749 1.749 0 0 1 .024.288c0 .096-.008.2-.024.312v.312c0 .72.048 1.472.144 2.256l.36 2.232.168.672c.064.224.096.432.096.624 0 .272-.072.472-.216.6s-.304.216-.48.264l-.288.048c-.224 0-.432-.08-.624-.24-.176-.144-.328-.328-.456-.552-.08-.224-.152-.528-.216-.912l-.096-1.056-.096-2.328-.048-2.352c0-.064-.008-.12-.024-.168 0-.064-.016-.128-.048-.192-.288.048-.528.12-.72.216s-.416.144-.672.144c-.32 0-.592-.104-.816-.312l-.504-.504c0-.176.04-.4.12-.672.208-.08.4-.136.576-.168l.504-.096.528-.12c.176-.048.368-.128.576-.24.256 0 .4-.096.432-.288.048-.208.072-.384.072-.528l-.024-.72v-.864l-.024-.72v-3.216zm8.93 15a.213.213 0 0 0 .024.096.213.213 0 0 1 .024.096c0 .256-.112.44-.336.552-.208.128-.424.192-.648.192-.4 0-.72-.224-.96-.672-.24-.432-.424-.936-.552-1.512-.128-.592-.216-1.176-.264-1.752l-.048-1.296-.024-2.088v-1.944l.12-2.568c.096-.848.144-1.728.144-2.64 0-.208.048-.376.144-.504s.224-.256.384-.384c.128 0 .28.008.456.024.192.016.368.056.528.12s.296.152.408.264.168.272.168.48c0 .416-.04.84-.12 1.272-.08.416-.12.832-.12 1.248l-.024 1.656v1.44l.024 1.2.024 1.128v.792l.024.696c0 .624.064 1.32.192 2.088l.432 2.016zm2.572-13.824c.08-.08.224-.12.432-.12.16 0 .32.032.48.096a1.355 1.355 0 0 1 .48.24c.144.096.256.208.336.336.096.128.144.264.144.408 0 .304-.08.512-.24.624-.144.096-.352.144-.624.144-.176 0-.36-.024-.552-.072-.176-.064-.336-.136-.48-.216s-.264-.16-.36-.24c-.08-.096-.12-.184-.12-.264 0-.192.016-.36.048-.504.048-.144.2-.288.456-.432zm2.112 13.512c0 .128-.032.256-.096.384s-.184.28-.36.456c-.272 0-.528-.024-.768-.072a1.396 1.396 0 0 1-.6-.288c-.16-.144-.288-.352-.384-.624s-.144-.64-.144-1.104a3.552 3.552 0 0 0-.096-.816 4.687 4.687 0 0 1-.072-.816c0-.816-.048-1.592-.144-2.328s-.144-1.512-.144-2.328c0-.336.136-.592.408-.768.16-.048.312-.08.456-.096l.48-.096c.224.064.392.16.504.288l.312.336-.048.48v.504l.096 1.944.216 1.968.216 1.704.168 1.176v.096zm4.1-2.832c.224-.224.4-.512.528-.864l.408-1.008.048-.144c.096-.256.24-.568.432-.936a6.782 6.782 0 0 1 .672-1.08c.256-.352.536-.648.84-.888s.616-.36.936-.36c.272.08.472.208.6.384.144.176.248.376.312.6.08.208.144.432.192.672a4.482 4.482 0 0 0 .24.648c.208.464.36.96.456 1.488l.528 3.216c.096.528.24 1.016.432 1.464-.032.256-.176.44-.432.552-.24.128-.456.192-.648.192-.288 0-.512-.112-.672-.336-.16-.208-.288-.464-.384-.768-.08-.32-.144-.648-.192-.984-.032-.336-.08-.616-.144-.84-.08-.272-.144-.576-.192-.912l-.168-1.056c-.064-.352-.144-.68-.24-.984-.08-.304-.2-.552-.36-.744-.272.432-.496.84-.672 1.224l-.456 1.08-.384 1.008c-.128.32-.288.648-.48.984-.256.464-.488.824-.696 1.08s-.4.448-.576.576c-.176.112-.344.176-.504.192-.16.032-.312.048-.456.048-.16 0-.36-.08-.6-.24-.224-.16-.336-.352-.336-.576v-2.808l.024-2.736-.024-.816-.024-.84c0-.192.032-.376.096-.552.08-.192.208-.328.384-.408h.288c.096-.016.184-.024.264-.024.208 0 .368.064.48.192.128.112.216.256.264.432.064.176.104.36.12.552l.024.48c0 .176.016.344.048.504.048.16.072.328.072.504l-.024 1.512-.024 1.2v.12zm7.82-.576c0-.592.072-1.184.216-1.776.16-.608.392-1.152.696-1.632s.68-.864 1.128-1.152c.448-.304.968-.456 1.56-.456.416 0 .776.064 1.08.192.32.128.584.296.792.504s.36.448.456.72c.112.256.168.528.168.816 0 .368-.072.728-.216 1.08-.128.336-.32.64-.576.912s-.576.496-.96.672c-.368.16-.792.248-1.272.264-.208.016-.392.008-.552-.024s-.344-.08-.552-.144c-.016.08-.024.152-.024.216v.12c.016.592.112 1.056.288 1.392s.368.592.576.768c.208.16.408.264.6.312s.32.072.384.072c.496 0 .904-.112 1.224-.336l1.104-.744.264.12c.096.032.184.104.264.216l.048.24c.016.048.024.128.024.24-.016.224-.08.416-.192.576-.096.144-.208.272-.336.384-.416.352-.808.576-1.176.672-.352.112-.816.168-1.392.168-.256 0-.576-.056-.96-.168-.368-.112-.68-.232-.936-.36-.384-.288-.688-.576-.912-.864-.208-.288-.376-.592-.504-.912a5.196 5.196 0 0 1-.24-.984l-.072-1.104zm2.088-1.296c.064.016.16.032.288.048h.336c.544 0 .96-.136 1.248-.408.304-.272.456-.6.456-.984 0-.224-.064-.432-.192-.624s-.304-.288-.528-.288a2.442 2.442 0 0 0-.48.048c-.144.032-.256.112-.336.24-.064.08-.136.16-.216.24s-.16.192-.24.336c-.064.144-.128.328-.192.552-.064.208-.112.488-.144.84z" class="B"/><mask id="A" maskUnits="userSpaceOnUse" x="45.5078" y="3.418" width="76" height="81" class="B"><path fill="#fff" d="M45.5078 3.418h76v81h-76z"/><use xlink:href="#C" class="C"/></mask><use xlink:href="#C" fill="#a3cdff" class="C"/><path d="M115.98 41.5l.266-1.982-1.962-.264-.284 1.96 1.98.286zm3.268-17.4987l-1.956.42 1.956-.42zm-3.587-4.3354l-1.108 1.6648 1.108-1.6648zm-2.788-2.1647l1.414-1.4142-1.414 1.4142zm-2.05-3.407l1.868-.7155-1.868.7155zm-2.45-3.2178l.984-1.7412-.984 1.7412zm-5.62-.7792l.062 2-.062-2zm-4.5054-.346l-.6324 1.8974.6324-1.8974zm-2.551-2.0418l-1.587 1.2173 1.587-1.2173zm-3.699-2.2082L91.805 7.49l.1926-1.9907zm-7.4465.6524l.3945 1.9607-.3945-1.9607zm-2.5535.4726l.304 1.9767-.304-1.9767zm-4.763-.533l.4566-1.9472-.4566 1.9472zm-5.362-.342l-.6324-1.8974.6324 1.8974zm-3.1062 2.6543l1.6413 1.143-1.6413-1.143zm-2.2688 2.2207l.8562 1.8075-.8562-1.8075zm-3.5213.8173l-.246-1.985.246 1.985zm-4.4785 1.1827l.9577 1.7558-.9577-1.7558zM56.126 16.082l1.9158.5744-1.9158-.5744zm-1.3784 2.9183l1.5365 1.2804-1.5365-1.2804zm-2.1575 2.06l-1.2985-1.521 1.2985 1.521zm-3.8424 4.939l1.8973.6326-1.8973-.6326zm3.271 15.4982l1.9794-.286-.2923-2.022-2.0152.3352.328 1.973zm63.6944 1.9827a2.143 2.143 0 0 0 .285.019v-4a1.867 1.867 0 0 1 .248.0167l-.533 3.9643zm.285.02c.625 0 1.076-.2705 1.31-.448.24-.1826.406-.383.506-.518.202-.272.354-.5737.464-.8178.23-.5105.458-1.1704.67-1.8834.435-1.4478.894-3.3733 1.293-5.3808l.945-6.03c.19-1.7872.28-3.6152.017-4.841l-3.91.838c.112.5243.11 1.7588-.084 3.58-.183 1.7298-.51 3.7465-.89 5.6732l-1.2 5.01-.484 1.384c-.066.1455-.08.148-.032.0828.024-.0317.115-.153.286-.2825.163-.1244.548-.3676 1.11-.3676v4zm5.205-19.92c-.674-3.145-2.798-4.4924-4.433-5.581l-2.217 3.3296c1.694 1.1282 2.44 1.69 2.74 3.0896l3.91-.838zM116.77 18c-.91-.6066-1.72-1.1515-2.483-1.914l-2.83 2.8285c1.08 1.0798 2.206 1.823 3.095 2.4152L116.77 18zm-2.483-1.914c-.886-.886-1.206-1.6926-1.595-2.7084l-3.735 1.431c.416 1.086.978 2.583 2.5 4.106l2.83-2.8285zm-1.595-2.7084c-.494-1.29-1.122-2.9927-3.335-4.2435l-1.968 3.4823c.898.508 1.112 1.0034 1.568 2.192l3.735-1.431zm-3.335-4.2435c-2.18-1.2314-4.82-1.0942-6.666-1.037l.124 3.998c2.15-.0664 3.555-.0544 4.574.5213l1.968-3.4823zm-6.666-1.037c-1.69.0523-2.8833.065-3.811-.2442l-1.265 3.7947c1.7362.5788 3.7008.494 5.1998.4475l-.124-3.998zM98.88 7.853c-.7-.2337-1.0032-.5882-1.5965-1.3617l-3.1738 2.4345c.6264.8167 1.5603 2.0735 3.5054 2.722L98.88 7.853zm-1.5965-1.3617c-.366-.477-.915-1.2135-1.7482-1.8112-.8816-.6325-1.9604-1.0364-3.345-1.1704L91.805 7.49c.7813.0756 1.1655.272 1.3987.439.2816.202.5.465.906.9956l3.1738-2.4345zm-5.0933-2.9816c-3.1677-.3066-5.736.22-8.0337.6824l.79 3.9214c2.314-.4656 4.35-.8653 6.8594-.6224l.3853-3.9814zm-8.0337.6824l-2.463.4566.6082 3.9535 2.644-.4886-.79-3.9214zm-2.463.4566c-1.047.161-2.283-.1004-4.0022-.5035l-.9132 3.8944c1.5256.3578 3.564.864 5.5236.5626l-.6082-3.9535zm-4.0022-.5035c-1.7225-.404-4.195-1.044-6.451-.292l1.265 3.7947c.9684-.3228 2.2257-.0884 4.273.3917l.9132-3.8944zm-6.451-.292c-2.32.773-3.3855 2.36-4.115 3.4088l3.2826 2.2857c.719-1.0327 1.1398-1.5806 2.0974-1.8997l-1.265-3.7947zm-4.115 3.4088c-.63.9047-.9494 1.303-1.4836 1.556l1.7123 3.615c1.622-.7682 2.4798-2.0608 3.054-2.8853L67.125 7.2616zm-1.4836 1.556c-.7485.3545-1.6128.48-2.9112.64l.492 3.9697c1.18-.146 2.7024-.3176 4.1315-.9946l-1.7123-3.615zm-2.9112.64c-1.4264.1768-3.321.3922-5.1902 1.412l1.9154 3.5115c1.1093-.605 2.2666-.7678 3.7668-.9537l-.492-3.9697zm-5.1902 1.412c-2.3732 1.2944-2.928 3.2976-3.33 4.638l3.8316 1.1487c.212-.7077.3457-1.1208.549-1.47.1656-.2838.3966-.551.8648-.8063L57.54 10.8695zm-3.33 4.638c-.296.9872-.5062 1.621-1 2.2123l3.073 2.5607c1.08-1.296 1.475-2.6816 1.7577-3.6243l-3.8316-1.1487zm-1 2.2123c-.5055.6066-1.1277 1.144-1.9196 1.8202l2.597 3.0422c.7458-.6367 1.6355-1.39 2.3954-2.3017l-3.073-2.5607zM51.2916 19.54c-1.4856 1.2682-3.4716 2.9198-4.4412 5.8275l3.7946 1.2653c.577-1.7303 1.7098-2.7412 3.2437-4.0506l-2.597-3.0422zm-4.4412 5.8275c-.4404 1.3208-.39 3.11-.2167 4.7424.1838 1.7295.552 3.648.9826 5.424s.9368 3.4653 1.415 4.7394c.235.6266.487 1.216.745 1.679.1242.2226.2956.5.519.7486.123.137.7126.7994 1.7023.7994v-4c.472 0 .8107.1745.975.2793s.2662.2123.299.249c.064.0712.0606.0873-.002-.025-.1155-.2072-.2857-.5825-.4933-1.1356-.4073-1.0853-.8695-2.6138-1.2725-4.2762s-.7325-3.3993-.8924-4.9042c-.1702-1.602-.1094-2.6253.0337-3.0545l-3.7946-1.2653zm5.1472 18.1326c.1204 0 .2372-.0102.349-.0288l-.6562-3.9458c.0978-.0163.2006-.0254.307-.0254v4zM83.9992 80c-6.0183 0-12.6017-3.494-18.2057-10.2252-5.581-6.7032-10.0477-16.4712-11.7955-28.5624l-3.9588.5722C51.8782 54.5072 56.605 65 62.7194 72.334 68.8106 79.6503 76.424 84 83.9992 84v-4zM114 41.213c-1.748 12.091-6.214 21.859-11.795 28.562C96.6008 76.506 90.0175 80 83.9992 80v4c7.575 0 15.1885-4.3496 21.2798-11.6657 6.114-7.344 10.84-17.8267 12.68-30.549L114 41.213z" mask="url(#A)" class="B"/><path d="M51.2286 32.0018C51.032 23.9745 58.002 18 66.032 18h35.935c8.03 0 15 5.9745 14.803 14.0018C116.03 62.2427 99.2543 82 83.9992 82s-32.03-19.7573-32.7706-49.9982z" fill="#a3cdff"/><path d="M64.8828 71.7908c5.724 6.5617 12.5606 10.2106 19.1165 10.2106 15.255 0 32.0297-19.7573 32.7707-49.998.096-3.904-1.504-7.3223-4.096-9.804.22.8083.345 1.6593.36 2.5438.53 32.213-16.947 53.5084-32.7847 53.5084-5.1757 0-10.5264-2.2742-15.3665-6.4606z" fill-opacity=".15" class="B C"/><path d="M110.498 28.5003c3.75 1.75 4.5 13 5.5 13s4-14 3.25-17.5-3.75-3.875-6.375-6.5-1.625-5-4.5-6.625-7.125-.125-10.1254-1.125-2.375-3.875-6.25-4.25-6.75.625-10 1.125-7.125-1.875-10.125-.875-3 3.75-5.375 4.875-5.2498.5-7.9998 2-1.8752 4.125-3.7502 6.375-4.833 3.5-6 7 2.2497 15.5 3.25 15.5 3.125-12.25 5.5-13 5 3 7.625 2.25 2.5002-4 5.375-4.375 6.2502 5.125 9.375 4.375 7.3752-4.625 10.125-4.625 6.25 4.625 9.3748 4.875c3.6836.2947 7.3756-4.25 11.1256-2.5z" fill="#002a65"/><g class="B"><path d="M116.2 33.506c-.416-2.163-1.382-7.1825-6.448-8.254-3.867-.8182-6.12.3268-8.088 1.3263-1.34.6802-2.545 1.293-4.0368 1.1737-1.5675-.1255-3.2295-1.3518-4.8438-2.543-1.6038-1.1834-3.1606-2.332-4.53-2.332-1.508 0-3.4676 1.1655-5.4452 2.342-1.6283.9685-3.2688 1.9444-4.6798 2.283-1.6394.3934-3.348-.9335-5.0168-2.2297-1.512-1.1744-2.9917-2.3236-4.3582-2.1453-1.5146.1975-2.1966 1.193-2.8868 2.2007-.6198.905-1.2462 1.8194-2.4882 2.1743-1.3342.3812-2.6684-.4002-3.9698-1.1623-1.26-.7373-2.4873-1.4565-3.6552-1.0877-1.4125.446-2.7366 4.9604-3.7882 8.5458-.6222 2.1213-1.15 3.9174-1.5423 4.3533.623 1.966 1.2417 3.3508 1.5815 3.3508.4053 0 .9953-2.0114 1.7117-4.454 1.0517-3.5854 2.3758-8.0998 3.7883-8.5458 1.1678-.3688 2.396.3504 3.6552 1.0877 1.3014.762 2.6356 1.5435 3.9698 1.1623 1.242-.355 1.8684-1.2694 2.4882-2.1743.6902-1.0076 1.3722-2.0032 2.8868-2.2007 1.3665-.1783 2.846.971 4.3582 2.1453 1.669 1.2962 3.3774 2.623 5.0168 2.2297 1.41-.3387 3.0515-1.3146 4.6797-2.283 1.9777-1.1764 3.9372-2.342 5.4453-2.342 1.3704 0 2.9272 1.1487 4.53 2.332 1.6143 1.191 3.2763 2.4174 4.8438 2.543 1.5968.1277 3.1948-.6534 4.7978-1.4372 2.096-1.025 4.203-2.0545 6.327-1.0628 2.425 1.1315 3.595 6.235 4.4 9.701.435 1.894.757 3.3 1.1 3.3 1 0 4-14 3.25-17.5-.212-.9933-.607-1.735-1.122-2.3476.364 4.089-1.166 12.8475-1.63 12.8475-.1 0-.184-.3834-.302-.996z" fill-opacity=".35" class="C"/><path d="M67.6576 46.5h32.6854c1.045 0 1.77 1.0424 1.406 2.0223l-1.7724 4.7723a3 3 0 0 1-2.8122 1.9554h-7.828a3 3 0 0 1-2.8123-1.9554L84.7432 48.5h-1.4857l-1.781 4.7946a3 3 0 0 1-2.8122 1.9554h-7.828a3 3 0 0 1-2.8123-1.9554l-1.7725-4.7723c-.364-.98.3608-2.0223 1.406-2.0223z"/></g><g fill="#fff"><path d="M100.696 48.4805l-12.0832 5.6347c.226.0875.47.1348.722.1348h7.828a2 2 0 0 0 1.8748-1.3037l1.6583-4.4658zm-20.158 4.4658l1.6382-4.4104-12.0083 5.5996a1.997 1.997 0 0 0 .6672.1145h7.828a2 2 0 0 0 1.8748-1.3037z"/></g><g class="C"><path d="M84 68.7496c5.25 0 8.25-3.75 8.25-6.75s-3.8203-1.25-8.25-1.25-8.25-1.75-8.25 1.25 3 6.75 8.25 6.75z" fill-opacity=".3" class="B"/><path d="M90.8606 61.1817l-.0616.7385c-.0306.3672-.2277.6992-.5595.8595-.8975.4337-2.977 1.2218-6.239 1.2218-3.239 0-5.3122-.777-6.22-1.2127-.3437-.165-.5485-.5088-.5802-.8888l-.06-.7184c.4882-.2668 1.414-.104 2.6582.1148 1.157.2034 2.5894.4553 4.2017.4553s3.0448-.252 4.2018-.4553c1.2443-.2188 2.17-.3816 2.6583-.1147z" fill="#fff"/><path d="M90.0483 65.34c-1.2277 1.4723-3.3363 2.4092-6.048 2.4092-.5175 0-1.013-.034-1.4846-.0996.204-1.483 2.4138-2.6506 5.1096-2.6506.8765 0 1.7016.1234 2.423.34z" fill="#ff5858"/></g><circle cx="109.25" cy="75.25" r="10.75" class="B"/><circle cx="109.25" cy="75.25" r="9" fill="#1a82ff"/><g fill="#fefefe"><path d="M113.083 77.2807c1.057 0 1.917-.8532 1.917-1.914s-.854-1.914-1.917-1.914c-1.437 0-1.916-.4784-1.916-1.914 0-1.055-.86-1.914-1.917-1.914s-1.917.8532-1.917 1.914c0 1.4355-.48 1.914-1.916 1.914-1.057 0-1.917.8533-1.917 1.914 0 1.055.86 1.914 1.917 1.914s1.916-.8532 1.916-1.914c0-1.4355.48-1.914 1.917-1.914s1.917.4785 1.917 1.914c0 1.055.86 1.914 1.916 1.914zm-3.833 3.6173c1.06 0 1.917-.857 1.917-1.914s-.858-1.914-1.917-1.914a1.915 1.915 0 0 0-1.916 1.914c0 1.057.858 1.914 1.916 1.914z"/></g><path d="M50.0195 70.5282L46.618 83.2226c-.2306.8605-1.3865 1.0127-1.832.241l-8.5857-14.87c-.4455-.7715.2643-1.6965 1.1248-1.466l12.6943 3.4014z" class="B"/><path d="M22 113c-16.5-7.5-3.5-30 19.996-37" stroke="#000" stroke-width="3" stroke-linecap="round" stroke-linejoin="round"/></g><defs><clipPath id="B"><path fill="#fff" d="M0 0h168v151H0z"/></clipPath><path id="C" d="M115.98 41.5a.136.136 0 0 0 .018.0012c1 0 4-14 3.25-17.5-.487-2.2718-1.922-3.227-3.587-4.3354-.9-.5993-1.867-1.2434-2.788-2.1647-1.205-1.2044-1.646-2.3563-2.05-3.407-.475-1.2395-.896-2.3385-2.45-3.2178-1.6-.9036-3.623-.84-5.62-.7792-1.595.0493-3.1734.098-4.5054-.346-1.323-.44-1.94-1.2467-2.551-2.0418-.773-1.0078-1.533-1.9986-3.699-2.2082-2.8386-.2747-5.1406.1885-7.4465.6524-.842.1694-1.6843.339-2.5535.4726-1.5034.2313-3.1405-.1526-4.763-.533-1.885-.442-3.7498-.8793-5.362-.342-1.6382.546-2.382 1.614-3.1062 2.6543-.602.8646-1.1907 1.71-2.2688 2.2207-1.0888.5158-2.2826.6637-3.5213.8173-1.4633.1813-2.9892.3704-4.4785 1.1827-1.5966.871-1.9714 2.12-2.3718 3.4567-.2893.965-.592 1.9747-1.3784 2.9183-.6326.7593-1.3886 1.4046-2.1575 2.06-1.5097 1.2888-3.069 2.62-3.8424 4.939-1.167 3.5 2.2497 15.5 3.25 15.5a.124.124 0 0 0 .021-.0017C55.6055 66.3123 70.4057 82 83.9992 82S112.393 66.3126 115.98 41.5z"/></defs></svg>