<svg width="795" height="367" viewBox="0 0 795 367" fill="none" xmlns="http://www.w3.org/2000/svg">
<g clip-path="url(#clip0)">
<path d="M429 64C429 50.7452 439.745 40 453 40H533C546.255 40 557 50.7452 557 64V118C557 145.614 534.614 168 507 168H479C451.386 168 429 145.614 429 118V64Z" fill="#58FF55"/>
<path fill-rule="evenodd" clip-rule="evenodd" d="M444.918 154.585C453.848 162.908 465.829 168 478.999 168H506.999C534.614 168 556.999 145.614 556.999 118V63.9996C556.999 55.452 552.531 47.9481 545.803 43.6963C548.144 47.4016 549.499 51.7924 549.499 56.4996V114.5C549.499 139.905 528.904 160.5 503.499 160.5H467.499C459.293 160.5 451.588 158.351 444.918 154.585Z" fill="black" fill-opacity="0.15"/>
<path fill-rule="evenodd" clip-rule="evenodd" d="M422.498 83.4995C462.498 88.4994 506.997 77.9995 522.247 57.2495C522.247 69.2495 539.997 83.4995 563.498 83.4995C569.998 64.4995 563.498 28.9995 531.248 30.7495C508.498 5.24947 410.498 15.0084 422.498 83.4995Z" fill="#00747B"/>
<path fill-rule="evenodd" clip-rule="evenodd" d="M527.003 45.4992C511.753 66.2492 466.753 80.2402 426.753 75.2403C425.326 61.2461 428.032 49.5052 433.577 39.9736C424.176 50.4019 419.217 64.7499 422.502 83.4992C462.502 88.4992 507.002 77.9992 522.252 57.2492C522.252 69.2492 540.002 83.4992 563.503 83.4992C564.365 80.9786 564.998 78.1675 565.373 75.1915C542.983 74.1644 527.003 57.1335 527.003 45.4992Z" fill="black" fill-opacity="0.15"/>
<path d="M476.25 111C479.702 111 482.5 108.202 482.5 104.75C482.5 101.298 479.702 98.5 476.25 98.5C472.798 98.5 470 101.298 470 104.75C470 108.202 472.798 111 476.25 111Z" fill="black" fill-opacity="0.299"/>
<path d="M509.75 111C513.202 111 516 108.202 516 104.75C516 101.298 513.202 98.5 509.75 98.5C506.298 98.5 503.5 101.298 503.5 104.75C503.5 108.202 506.298 111 509.75 111Z" fill="black" fill-opacity="0.299"/>
<path fill-rule="evenodd" clip-rule="evenodd" d="M490.323 102.338C489.258 109.15 485.391 117.5 476.25 117.5C471.321 117.5 461.29 113.856 462.443 96.7494C462.474 96.2834 462.728 95.85 463.136 95.622C465.571 94.26 471.022 92 476.25 92C481.478 92 482.249 94.1472 485.5 94.5C488.116 94.7839 489.001 93.25 493.001 93.25C497.001 93.25 497.701 94.8039 500.501 94.5C503.752 94.1472 504.523 92 509.751 92C514.979 92 520.43 94.26 522.865 95.622C523.273 95.85 523.527 96.2834 523.558 96.7494C524.711 113.856 514.681 117.5 509.751 117.5C500.611 117.5 496.744 109.15 495.678 102.338C495.43 100.755 498.049 99.3046 498.751 98C495.606 95.4746 490.398 95.4771 487.251 98C487.954 99.3041 490.571 100.756 490.323 102.338ZM466 104.75C466 110.411 470.589 115 476.25 115C481.911 115 486.5 110.411 486.5 104.75C486.5 99.0891 481.911 94.5 476.25 94.5C470.589 94.5 466 99.0891 466 104.75ZM520.002 104.75C520.002 110.411 515.413 115 509.752 115C504.091 115 499.502 110.411 499.502 104.75C499.502 99.0891 504.091 94.5 509.752 94.5C515.413 94.5 520.002 99.0891 520.002 104.75Z" fill="black"/>
<path fill-rule="evenodd" clip-rule="evenodd" d="M507.292 130.598C507.808 131.641 507.32 132.837 506.295 133.324C498.129 137.208 487.807 137.253 479.657 133.294C478.619 132.787 478.206 131.642 478.722 130.598C479.225 129.582 480.439 129.235 481.435 129.709C488.535 133.085 497.292 133.022 504.425 129.781C505.468 129.307 506.733 129.467 507.292 130.598Z" fill="black" fill-opacity="0.299"/>
<path d="M228.37 65.6247C227.906 49.7291 241.799 38 257.702 38H330.298C346.2 38 360.094 49.7291 359.63 65.6248C357.858 126.32 320.206 166 294 166C267.793 166 230.141 126.32 228.37 65.6247Z" fill="#00FFFF"/>
<path fill-rule="evenodd" clip-rule="evenodd" d="M257.422 145.264C269.205 158.586 282.672 166 294 166C320.206 166 357.858 126.32 359.63 65.6248C359.856 57.8593 356.657 51.0883 351.47 46.1934C351.903 47.7822 352.147 49.4557 352.175 51.1964C353.203 115.783 313.69 158.5 286.5 158.5C277.517 158.5 267.189 153.838 257.422 145.264Z" fill="black" fill-opacity="0.15"/>
<path d="M294 15.0003C310.75 15.0003 334 4.00026 334 26.2503C334 48.5003 309.25 32.5003 294 32.5003C278.75 32.5003 254 48.5003 254 26.2503C254 4.00026 277.25 15.0003 294 15.0003Z" fill="#2E4599"/>
<path fill-rule="evenodd" clip-rule="evenodd" d="M333.991 27.0179C333.593 41.7523 321.61 38.5882 309.283 35.3335C303.95 33.9254 298.552 32.5003 294.001 32.5003C289.45 32.5003 284.052 33.9254 278.719 35.3335C266.297 38.6133 254.224 41.8011 254.004 26.6738C264.737 23.3318 278.08 21.7412 294.001 21.7412C309.931 21.7412 323.279 23.4147 333.991 27.0179Z" fill="black" fill-opacity="0.25"/>
<path d="M250.001 60.9995C271.751 92.2495 358.251 30.2402 359.501 122.999C374.251 47.9995 356.5 28.2402 294.001 28.2402C231.501 28.2402 214.25 51.9995 228.501 113.5C226.75 75.9995 252.25 92.7495 250.001 60.9995Z" fill="#2E4599"/>
<path fill-rule="evenodd" clip-rule="evenodd" d="M291.116 62.9123C272.756 64.336 255.616 65.6649 247.497 54.0004C248.58 69.2846 243.233 73.3295 237.59 77.5975C232.136 81.7232 226.406 86.0573 225.941 100.953C226.631 104.948 227.485 109.129 228.498 113.5C227.59 94.0526 234.012 89.1956 240.09 84.5975C245.733 80.3295 251.081 76.2846 249.998 61.0004C258.116 72.6649 275.256 71.336 293.617 69.9123C317.183 68.0851 342.76 66.1019 353.853 91.2387C344.614 58.7643 316.682 60.9301 291.116 62.9123ZM358.585 109.375C359.119 113.497 359.431 118.026 359.498 123C367.731 81.1364 365.838 56.4839 351.689 42.8721C362.774 58.8831 364.632 81.8751 358.585 109.375Z" fill="black" fill-opacity="0.25"/>
<path d="M279 113C283.418 113 287 109.418 287 105C287 100.582 283.418 97 279 97C274.582 97 271 100.582 271 105C271 109.418 274.582 113 279 113Z" fill="black" fill-opacity="0.299"/>
<path d="M309 113C313.418 113 317 109.418 317 105C317 100.582 313.418 97 309 97C304.582 97 301 100.582 301 105C301 109.418 304.582 113 309 113Z" fill="black" fill-opacity="0.299"/>
<path fill-rule="evenodd" clip-rule="evenodd" d="M284.324 125.383C285.217 124.733 286.468 124.93 287.118 125.824C291.855 132.338 296.145 132.338 300.883 125.824C301.532 124.93 302.783 124.733 303.676 125.383C304.57 126.032 304.767 127.283 304.118 128.176C297.837 136.813 290.164 136.813 283.883 128.176C283.233 127.283 283.43 126.032 284.324 125.383Z" fill="black" fill-opacity="0.299"/>
<path d="M641.98 64.8814C641.625 49.2942 655.399 38 670.99 38H745.008C760.599 38 774.372 49.2942 774.017 64.8814C772.625 125.996 729.926 166 707.999 166C686.071 166 643.372 125.996 641.98 64.8814Z" fill="#FFC24D"/>
<path fill-rule="evenodd" clip-rule="evenodd" d="M672.426 144.54C684.789 158.316 698.388 166 707.998 166C729.925 166 772.624 125.996 774.016 64.8809C774.19 57.2338 770.964 50.62 765.791 45.8662C766.212 47.3805 766.457 48.975 766.501 50.635C768.255 115.535 723.222 158.5 700.498 158.5C692.804 158.5 682.553 153.574 672.426 144.54Z" fill="black" fill-opacity="0.15"/>
<path d="M736.5 18.0005C736.5 28.2177 729.5 37.0004 708 37.0004C686.5 37.0004 679.5 28.2177 679.5 18.0005C679.5 7.78318 695 14.0005 708 14.0005C721 14.0005 736.5 7.78318 736.5 18.0005Z" fill="#B75CFF"/>
<path fill-rule="evenodd" clip-rule="evenodd" d="M680.27 23.493C682.596 31.1745 690.488 37 707.998 37C725.508 37 733.401 31.1745 735.727 23.493C734.966 23.3709 734.186 23.2438 733.389 23.1139C726.095 21.9247 717.356 20.5 707.998 20.5C698.641 20.5 689.902 21.9247 682.607 23.1139C681.81 23.2438 681.031 23.3709 680.27 23.493Z" fill="black" fill-opacity="0.15"/>
<path d="M643.5 85.75C678.25 85.75 729.75 74.75 738.5 52.5C738.5 74.9998 761.75 85.75 772.5 85.75C790.25 34.75 735.849 26.5 708 26.5C663.925 26.5 629.75 39 643.5 85.75Z" fill="#B75CFF"/>
<path fill-rule="evenodd" clip-rule="evenodd" d="M740 44.5C731.25 66.75 679.75 78.25 645 78.25C642.348 69.2344 641.479 61.4925 642.119 54.8685C639.567 62.9378 639.776 73.0876 643.5 85.75C678.25 85.75 729.75 74.75 738.5 52.5C738.5 74.9998 761.75 85.75 772.5 85.75C774.479 80.0628 775.562 74.9072 775.883 70.2353C775.387 72.7846 774.682 75.4544 773.75 78.25C763 78.25 740 66.9998 740 44.5Z" fill="black" fill-opacity="0.15"/>
<path d="M692.5 108C695.814 108 698.5 105.314 698.5 102C698.5 98.6863 695.814 96 692.5 96C689.186 96 686.5 98.6863 686.5 102C686.5 105.314 689.186 108 692.5 108Z" fill="black" fill-opacity="0.299"/>
<path fill-rule="evenodd" clip-rule="evenodd" d="M677.669 105.594C683.188 116.233 698.398 118.341 704.264 106.699C705.163 104.917 705.702 103.02 705.906 101.214C706.958 100.518 709.044 100.518 710.095 101.214C710.3 103.021 710.839 104.917 711.737 106.699C717.603 118.341 732.813 116.233 738.333 105.594C741.771 98.9666 741.982 91.702 733.687 90.2502C728.292 89.306 722.279 89.5449 717.004 91.0372C713.29 92.0879 710.591 94.0233 710.096 97.9963C708.752 97.6484 707.249 97.6484 705.905 97.9962C705.41 94.0233 702.711 92.0879 698.997 91.0372C693.722 89.5449 687.709 89.306 682.315 90.2502C674.019 91.702 674.231 98.9666 677.669 105.594ZM701.585 105.349C696.799 114.848 684.742 112.713 680.332 104.212C677.854 99.4372 676.647 94.2877 682.832 93.2052C687.785 92.3384 693.337 92.5537 698.181 93.9239C703.707 95.4873 703.838 100.879 701.585 105.349ZM714.416 105.349C719.203 114.848 731.259 112.713 735.67 104.212C738.147 99.4372 739.355 94.2877 733.169 93.2052C728.217 92.3384 722.665 92.5537 717.821 93.9239C712.295 95.4873 712.164 100.879 714.416 105.349Z" fill="black"/>
<path d="M723.5 108C726.814 108 729.5 105.314 729.5 102C729.5 98.6863 726.814 96 723.5 96C720.186 96 717.5 98.6863 717.5 102C717.5 105.314 720.186 108 723.5 108Z" fill="black" fill-opacity="0.299"/>
<path fill-rule="evenodd" clip-rule="evenodd" d="M708 137C715.18 137 721 132.075 721 126C713.068 126 702.923 126 695 126C695 132.075 700.82 137 708 137Z" fill="black" fill-opacity="0.299"/>
<path d="M331.5 150.688C331.5 137.329 342.329 126.5 355.688 126.5H436.312C449.671 126.5 460.5 137.329 460.5 150.688V223.25C460.5 241.061 446.061 255.5 428.25 255.5H363.75C345.939 255.5 331.5 241.061 331.5 223.25V150.688Z" fill="#4DD4FF"/>
<path fill-rule="evenodd" clip-rule="evenodd" d="M337.48 241.961C343.328 250.157 352.915 255.5 363.75 255.5H428.25C446.062 255.5 460.5 241.061 460.5 223.25V150.688C460.5 142.073 455.997 134.511 449.216 130.226C451.576 133.96 452.942 138.385 452.942 143.129V219.723C452.942 235.307 440.308 247.941 424.723 247.941H356.192C349.216 247.941 342.757 245.726 337.48 241.961Z" fill="black" fill-opacity="0.15"/>
<path d="M339.563 140.106C341.831 149.932 339.311 167.568 331.5 174.875C314.872 113.902 372.065 121.461 396.001 121.461C419.936 121.461 476.878 112.139 460.5 174.875C452.438 168.576 448.659 153.963 452.438 140.609C419.684 161.522 364.254 156.986 339.563 140.106Z" fill="#FBFF38"/>
<path fill-rule="evenodd" clip-rule="evenodd" d="M330.648 171.525C338.938 161.931 338.415 145.501 337.3 136.578C370.81 152.703 420.949 152.703 455.214 137.082C451.826 149.05 452.892 164.054 461.312 171.573C461.066 172.653 460.796 173.753 460.503 174.875C452.441 168.576 448.662 153.963 452.441 140.609C419.687 161.521 364.257 156.986 339.566 140.105C341.834 149.932 339.314 167.568 331.503 174.875C331.193 173.736 330.908 172.62 330.648 171.525Z" fill="black" fill-opacity="0.15"/>
<path d="M462.51 134.013C457.475 173.615 308.314 181.678 331.242 109.22C351.151 147.916 470.543 70.8186 462.51 134.013Z" fill="#FBFF38"/>
<path fill-rule="evenodd" clip-rule="evenodd" d="M331.26 109.256C319.311 174.126 451.596 164.239 456.463 125.95C457.19 120.236 456.938 115.678 455.865 112.086C461.299 115.875 463.949 122.693 462.51 134.013C457.475 173.616 308.314 181.678 331.242 109.221C331.248 109.233 331.254 109.244 331.26 109.256Z" fill="black" fill-opacity="0.15"/>
<path fill-rule="evenodd" clip-rule="evenodd" d="M396 228.793C406.582 228.793 412.629 221.235 412.629 215.188C412.629 209.141 404.929 212.668 396 212.668C387.071 212.668 379.371 209.141 379.371 215.188C379.371 221.235 385.418 228.793 396 228.793Z" fill="black" fill-opacity="0.299"/>
<path fill-rule="evenodd" clip-rule="evenodd" d="M409.826 213.534L409.702 215.024C409.64 215.764 409.243 216.433 408.574 216.756C406.765 217.63 402.574 219.219 395.999 219.219C389.471 219.219 385.292 217.652 383.462 216.774C382.769 216.442 382.356 215.749 382.293 214.983L382.172 213.534C383.156 212.997 385.022 213.325 387.53 213.766C389.862 214.176 392.749 214.683 395.999 214.683C399.249 214.683 402.136 214.176 404.468 213.766C406.976 213.325 408.842 212.997 409.826 213.534Z" fill="white"/>
<path fill-rule="evenodd" clip-rule="evenodd" d="M408.19 221.922C405.716 224.889 401.466 226.777 396 226.777C394.957 226.777 393.958 226.708 393.008 226.577C393.42 223.588 397.873 221.234 403.307 221.234C405.073 221.234 406.736 221.483 408.19 221.922Z" fill="#FF5858"/>
<path fill-rule="evenodd" clip-rule="evenodd" d="M364.758 191C364.758 185.712 369.044 181.426 374.332 181.426H383.402C387.967 181.426 391.785 184.62 392.744 188.895C393.535 188.552 394.641 188.229 396 188.229C397.359 188.229 398.465 188.552 399.256 188.895C400.215 184.62 404.033 181.426 408.598 181.426H417.668C422.956 181.426 427.242 185.712 427.242 191C427.242 196.288 422.956 200.574 417.668 200.574H408.598C403.32 200.574 399.04 196.305 399.023 191.031C398.498 190.725 397.442 190.244 396 190.244C394.558 190.244 393.502 190.725 392.977 191.031C392.96 196.305 388.68 200.574 383.402 200.574H374.332C369.044 200.574 364.758 196.288 364.758 191Z" fill="black"/>
<path fill-rule="evenodd" clip-rule="evenodd" d="M423.6 186.316C423.186 185.792 422.705 185.325 422.168 184.927L402.949 196.023C403.401 196.53 403.92 196.977 404.492 197.348L423.6 186.316ZM424.665 188.137C425.027 189.02 425.227 189.987 425.227 191C425.227 195.175 421.843 198.559 417.668 198.559H408.598C408.026 198.559 407.468 198.495 406.932 198.375L424.665 188.137Z" fill="white"/>
<path fill-rule="evenodd" clip-rule="evenodd" d="M389.335 186.316C388.921 185.792 388.439 185.325 387.903 184.927L368.684 196.023C369.135 196.53 369.654 196.977 370.227 197.348L389.335 186.316ZM390.4 188.137C390.762 189.02 390.961 189.987 390.961 191C390.961 195.175 387.577 198.559 383.402 198.559H374.332C373.76 198.559 373.203 198.495 372.667 198.375L390.4 188.137Z" fill="white"/>
<path fill-rule="evenodd" clip-rule="evenodd" d="M529.391 169.426C529.39 113.492 558.617 94.5957 608 94.5957C657.383 94.5957 686.61 113.492 686.61 169.426C686.61 196.133 679.051 219.816 679.051 219.816C679.051 219.816 650.58 216.793 608 216.793C565.42 216.793 536.949 219.816 536.949 219.816C536.949 219.816 529.391 196.133 529.391 169.426Z" fill="#3360FF"/>
<path fill-rule="evenodd" clip-rule="evenodd" d="M533.453 206.008C535.243 214.476 536.947 219.816 536.947 219.816C536.947 219.816 565.418 216.793 607.998 216.793C650.578 216.793 679.049 219.816 679.049 219.816C679.049 219.816 686.608 196.133 686.608 169.426C686.608 157.559 685.293 147.36 682.748 138.654C683.968 145.303 684.592 152.686 684.592 160.859C684.592 187.566 677.033 211.25 677.033 211.25C677.033 211.25 648.563 208.226 605.983 208.226C563.402 208.226 534.932 211.25 534.932 211.25C534.932 211.25 534.324 209.345 533.453 206.008Z" fill="black" fill-opacity="0.15"/>
<path d="M541.858 142.341C541.391 126.321 555.393 114.5 571.419 114.5H644.583C660.61 114.5 674.612 126.321 674.144 142.341C672.359 203.51 634.412 243.5 608.001 243.5C581.59 243.5 543.644 203.51 541.858 142.341Z" fill="#FBFF2D"/>
<path fill-rule="evenodd" clip-rule="evenodd" d="M571.137 222.602C583.012 236.027 596.584 243.499 608 243.499C634.411 243.499 672.358 203.51 674.143 142.34C674.372 134.514 671.147 127.69 665.92 122.757C666.356 124.358 666.602 126.045 666.63 127.799C667.666 192.89 627.845 235.941 600.442 235.941C591.389 235.941 580.98 231.242 571.137 222.602Z" fill="black" fill-opacity="0.15"/>
<path d="M679.162 142.731C675.149 144.004 670.898 145.146 666.455 146.161C665.539 146.37 664.615 138.511 663.684 138.71C662.684 138.922 661.676 147.191 660.66 147.392C654.077 148.69 647.144 149.731 640 150.527C638.913 150.648 637.821 135.647 636.725 135.756C635.47 135.882 634.21 151.118 632.945 151.229C619.548 152.404 606.076 152.748 592.633 152.392C591.37 152.358 590.11 141.736 588.854 141.69C587.843 141.653 586.836 152.194 585.83 152.149C577.252 151.763 568.666 151.114 560.131 150.075C559.375 149.983 558.619 139.81 557.863 139.711C557.107 139.613 556.351 149.59 555.596 149.485C549.084 148.581 542.608 147.437 536.195 145.994C540.479 80.7381 676.533 78.7225 679.162 142.731Z" fill="#3360FF"/>
<path d="M557.195 141.724C557.418 140.524 557.64 139.683 557.862 139.712C558.618 139.81 559.373 149.983 560.13 150.075C568.665 151.114 577.251 151.763 585.829 152.149C586.834 152.194 587.842 141.653 588.852 141.69C590.109 141.736 591.369 152.358 592.632 152.392C606.075 152.749 619.547 152.404 632.944 151.229C634.209 151.118 635.469 135.882 636.723 135.757C637.82 135.647 638.912 150.649 639.999 150.527C647.142 149.731 654.076 148.69 660.659 147.392C661.675 147.192 662.683 138.922 663.682 138.71C664.614 138.511 665.538 146.37 666.454 146.161C667.1 146.013 667.742 145.863 668.38 145.71C667.262 143.979 665.699 134.908 664.186 135.182C662.674 135.456 661.676 144.03 660.659 144.231C654.076 145.529 647.646 146.204 640.503 147C639.416 147.121 639.5 131.92 637.227 132.229C634.204 132.641 633.705 147.59 632.44 147.701C619.043 148.877 606.578 149.221 593.136 148.864C592.503 148.848 591.871 146.174 591.24 143.504C590.612 140.843 590.113 137.932 588.852 138.163C586.404 138.612 586.33 148.667 585.325 148.621C576.747 148.235 569.672 147.587 561.138 146.548C560.381 146.456 560.13 135.916 558.366 136.184C557.867 136.26 557.625 138.745 557.195 141.724Z" fill="black" fill-opacity="0.15"/>
<path d="M622.614 201.172C622.614 200.473 622.252 199.825 621.658 199.457C621.063 199.09 620.321 199.057 619.697 199.369C616.516 200.959 612.307 201.802 608 201.802C603.693 201.802 599.484 200.959 596.304 199.369C595.679 199.057 594.937 199.09 594.343 199.457C593.748 199.825 593.387 200.473 593.387 201.172C593.387 204.009 594.728 208.762 597.021 212.784C599.265 216.718 602.934 220.824 608 220.824C613.067 220.824 616.735 216.718 618.979 212.784C621.273 208.762 622.614 204.009 622.614 201.172Z" fill="black" fill-opacity="0.299"/>
<path fill-rule="evenodd" clip-rule="evenodd" d="M619.848 205.539C617.643 206.852 613.921 208.227 608 208.227C602.079 208.227 598.357 206.852 596.152 205.539C595.659 203.824 595.402 202.281 595.402 201.172C602.457 204.699 613.543 204.699 620.598 201.172C620.598 202.281 620.341 203.824 619.848 205.539Z" fill="white"/>
<path fill-rule="evenodd" clip-rule="evenodd" d="M616.586 212.847C614.453 216.175 611.536 218.809 608 218.809C604.464 218.809 601.547 216.174 599.414 212.847C600.484 212.47 601.688 212.258 602.961 212.258C604.868 212.258 606.62 212.734 608 213.529C609.38 212.734 611.132 212.258 613.039 212.258C614.312 212.258 615.516 212.47 616.586 212.847Z" fill="#FF5858"/>
<path fill-rule="evenodd" clip-rule="evenodd" d="M587.339 169.426C594.786 169.426 598 170.484 600.775 171.397C602.883 172.091 604.737 172.701 608 172.701C611.263 172.701 613.117 172.091 615.225 171.397C618 170.484 621.214 169.426 628.661 169.426C640.25 169.426 640.25 171.189 640.25 179.504C640.25 189.834 633.632 191.094 627.905 191.094C616.504 191.094 613.904 185.67 612.018 181.736C610.944 179.497 610.102 177.74 608 177.74C605.898 177.74 605.056 179.497 603.982 181.736C602.096 185.67 599.496 191.094 588.095 191.094C582.367 191.094 575.75 189.834 575.75 179.504C575.75 171.189 575.75 169.426 587.339 169.426ZM602.709 176.229C602.709 180.764 600.189 189.078 588.568 189.078C583.556 189.078 577.766 188.07 577.766 179.882C577.766 172.607 577.766 171.441 587.906 171.441C594.572 171.441 602.709 172.953 602.709 176.229ZM613.291 176.229C613.291 180.764 615.81 189.078 627.432 189.078C632.444 189.078 638.234 188.07 638.234 179.882C638.234 172.607 638.234 171.441 628.094 171.441C621.428 171.441 613.291 172.953 613.291 176.229Z" fill="black"/>
<path d="M591.371 186.055C594.711 186.055 597.418 183.347 597.418 180.008C597.418 176.668 594.711 173.961 591.371 173.961C588.031 173.961 585.324 176.668 585.324 180.008C585.324 183.347 588.031 186.055 591.371 186.055Z" fill="black" fill-opacity="0.299"/>
<path d="M624.629 186.055C627.969 186.055 630.676 183.347 630.676 180.008C630.676 176.668 627.969 173.961 624.629 173.961C621.289 173.961 618.582 176.668 618.582 180.008C618.582 183.347 621.289 186.055 624.629 186.055Z" fill="black" fill-opacity="0.299"/>
<path d="M675.505 238.184C675.474 220.839 689.824 207 707.169 207H772.831C790.176 207 804.526 220.839 804.496 238.184C804.392 296.867 795.663 335 740 335C684.338 335 675.608 296.867 675.505 238.184Z" fill="#74FFB9"/>
<path fill-rule="evenodd" clip-rule="evenodd" d="M691.777 316.013C701.432 328.232 716.552 334.999 740 334.999C795.662 334.999 804.392 296.866 804.495 238.183C804.509 230.03 801.347 222.652 796.189 217.122C796.676 218.965 796.943 220.897 796.962 222.89C797.564 285.968 790.59 327.499 732.5 327.499C714.404 327.499 701.269 323.469 691.777 316.013Z" fill="black" fill-opacity="0.15"/>
<path d="M740 184.5C754.75 184.5 771.25 194.25 790.5 201C809.28 207.585 810.5 223 804 255C797.677 252.417 791.5 236.25 797 228C777.532 231.271 760.5 241 740 241C719.5 241 702.468 231.271 683 228C689.5 241.75 680.323 249.417 676 255C669.5 223 670.721 207.585 689.5 201C708.75 194.25 725.25 184.5 740 184.5Z" fill="#FF53EE"/>
<path fill-rule="evenodd" clip-rule="evenodd" d="M675.949 254.752C675.966 254.834 675.983 254.917 676 255C676.558 254.278 677.198 253.522 677.874 252.723C682.433 247.334 688.659 239.973 682.999 228C690.794 229.309 698.198 231.654 705.59 233.996C716.662 237.502 727.707 241 739.999 241C752.292 241 763.337 237.502 774.408 233.996C781.801 231.654 789.205 229.31 796.999 228C791.499 236.25 797.677 252.417 803.999 255C804.006 254.965 804.013 254.93 804.021 254.896C799.842 248.291 796.774 238.391 800.761 226.418C801.534 224.097 799.632 221.568 797.223 221.994C789.647 223.332 780.189 225.165 774.408 226.996C763.337 230.502 752.292 234 739.999 234C727.707 234 716.662 230.502 705.59 226.996C700.106 225.259 691.038 223.795 683.539 222.621C680.915 222.21 678.895 225.298 679.84 227.781C683.07 236.274 681.797 245.702 675.949 254.752Z" fill="black" fill-opacity="0.15"/>
<path fill-rule="evenodd" clip-rule="evenodd" d="M724.074 281.257C716.324 281.257 704.74 269.507 707.574 265.257C710.287 261.186 734.664 261.498 736.752 267.031C738.842 266.324 741.157 266.324 743.247 267.031C745.334 261.498 769.712 261.186 772.425 265.257C775.259 269.507 763.675 281.257 755.925 281.257C750.724 281.257 743.843 275.014 743.071 269.643C741.149 268.784 738.85 268.784 736.928 269.643C736.156 275.014 729.275 281.257 724.074 281.257Z" fill="black"/>
<path d="M748.121 275.659C755.427 276.023 765.906 272.973 770.915 268.606C770.873 268.703 770.828 268.803 770.779 268.905C768.939 272.772 765.145 276.015 761.451 278.039C759.435 279.144 757.514 279.757 755.926 279.757C753.608 279.757 750.566 278.139 748.121 275.659Z" fill="white"/>
<path d="M715.133 275.814C721.649 275.993 730.199 273.721 735.315 270.264C734.801 272.201 733.398 274.05 732.162 275.364C729.672 278.01 726.482 279.756 724.072 279.756C720.825 279.756 717.634 277.729 715.133 275.814Z" fill="white"/>
<path fill-rule="evenodd" clip-rule="evenodd" d="M740 308.5C748.716 308.5 754.5 300.438 754.5 292.306C744.834 293.488 735.171 293.488 725.5 292.306C725.5 300.438 731.284 308.5 740 308.5Z" fill="black" fill-opacity="0.299"/>
<path fill-rule="evenodd" clip-rule="evenodd" d="M751.774 299.04C752.56 297.403 753 295.67 753 294C744.602 295.027 735.398 295.027 727 294C727 295.67 727.44 297.403 728.226 299.04C730.777 299.47 734.947 300 740 300C745.053 300 749.223 299.47 751.774 299.04ZM750.79 300.768C748.455 304.287 744.494 307 740 307C735.506 307 731.545 304.287 729.21 300.768C731.616 301.137 735.203 301.5 740 301.5C744.797 301.5 748.384 301.137 750.79 300.768Z" fill="white"/>
<path d="M116 141C116 127.745 126.745 117 140 117H220C233.255 117 244 127.745 244 141V197C244 223.51 222.51 245 196 245H164C137.49 245 116 223.51 116 197V141Z" fill="#5C6DFF"/>
<path fill-rule="evenodd" clip-rule="evenodd" d="M126.516 226.984C135.312 237.967 148.835 245 164 245H196C222.51 245 244 223.509 244 197V141C244 132.452 239.532 124.948 232.804 120.696C235.145 124.402 236.5 128.792 236.5 133.5V193.5C236.5 217.8 216.801 237.5 192.5 237.5H156.5C145.156 237.5 134.731 233.564 126.516 226.984Z" fill="black" fill-opacity="0.25"/>
<path d="M182 145.501C161.5 145.501 182.751 135.501 180.001 132.501C177.25 129.501 161.25 145.501 151.75 145.501C142.25 145.501 154.75 132.501 146 130.001C137.469 127.563 117.768 128.928 116.789 166.074C116.774 166.635 115.973 166.792 115.792 166.26C110.114 149.581 95.0293 94.4093 180.001 96.0005C265.232 97.5966 250.016 149.847 244.196 166.367C244.01 166.894 243.226 166.674 243.215 166.116C242.148 108.06 219.886 145.501 182 145.501Z" fill="#FF66CB"/>
<path fill-rule="evenodd" clip-rule="evenodd" d="M176.099 138.262C175.176 139.688 175.895 140.5 180.5 140.5C193.567 140.5 205.079 136.036 214.616 132.337C232.88 125.254 243.899 120.981 244.718 156.252C244.725 156.54 245.135 156.671 245.215 156.395C246.685 151.295 249.041 142.497 248.349 132.974C250.755 146.141 246.643 159.416 244.195 166.366C244.009 166.893 243.224 166.674 243.214 166.115C242.5 127.306 232.316 131.171 214.324 137.999C205.401 141.385 194.559 145.5 181.999 145.5C169.571 145.5 172.488 141.825 176.099 138.262ZM184 127C183.824 129.729 181.819 132.21 179.83 134.279C180.282 133.566 180.414 132.953 179.999 132.5C178.714 131.098 174.535 133.846 169.478 137.171C163.714 140.961 156.809 145.5 151.749 145.5C147.231 145.5 147.689 142.559 148.471 139.206C148.484 140.015 148.937 140.5 150.25 140.5C153.499 140.5 160.362 136.511 167.056 132.62C175.814 127.531 184.283 122.608 184 127ZM148.982 136.97C149.047 136.777 149.115 136.579 149.185 136.377C150.428 132.774 152.176 127.709 144.5 125C136.133 122.047 116.275 123.902 115.288 161.074C115.273 161.635 114.492 161.785 114.32 161.25C114.003 160.263 113.66 159.141 113.312 157.903C114.135 161.21 115.044 164.067 115.791 166.259C115.972 166.791 116.772 166.635 116.787 166.073C117.766 128.928 137.468 127.563 145.999 130C149.676 131.051 149.6 133.955 148.982 136.97Z" fill="black" fill-opacity="0.15"/>
<path fill-rule="evenodd" clip-rule="evenodd" d="M174.95 182.95C174.476 187.474 170.65 191 166 191C161.029 191 157 186.971 157 182C157 177.029 161.029 173 166 173C170.426 173 174.106 176.195 174.859 180.405C175.701 179.986 177.267 179.5 180 179.5C182.733 179.5 184.299 179.986 185.141 180.405C185.894 176.195 189.574 173 194 173C198.971 173 203 177.029 203 182C203 186.971 198.971 191 194 191C189.35 191 185.524 187.474 185.05 182.95C184.119 182.522 182.477 182 180 182C177.523 182 175.881 182.522 174.95 182.95Z" fill="black"/>
<path fill-rule="evenodd" clip-rule="evenodd" d="M200.243 178.833C200.015 178.383 199.739 177.961 199.423 177.574L187.453 184.485C187.633 184.958 187.862 185.406 188.135 185.823L200.243 178.833ZM200.805 180.354C200.932 180.882 200.999 181.433 200.999 182C200.999 185.866 197.865 189 193.999 189C192.128 189 190.428 188.265 189.173 187.07L200.805 180.354Z" fill="white"/>
<path fill-rule="evenodd" clip-rule="evenodd" d="M172.257 178.855C172.03 178.404 171.756 177.982 171.441 177.594L159.465 184.508C159.646 184.98 159.877 185.428 160.151 185.844L172.257 178.855ZM172.813 180.379C172.937 180.899 173.002 181.442 173.002 182.001C173.002 185.867 169.868 189.001 166.002 189.001C164.14 189.001 162.448 188.273 161.194 187.088L172.813 180.379Z" fill="white"/>
<path fill-rule="evenodd" clip-rule="evenodd" d="M180 222C192.75 222 200 213.5 200 205.5C200 197 191 202.5 180 202.5C169 202.5 160 197 160 205.5C160 213.5 167.25 222 180 222Z" fill="black" fill-opacity="0.299"/>
<path fill-rule="evenodd" clip-rule="evenodd" d="M196.697 202.795C195.452 202.26 193.354 202.676 190.553 203.23C187.708 203.793 184.138 204.5 180.003 204.5C175.867 204.5 172.297 203.793 169.452 203.23C166.651 202.676 164.553 202.26 163.309 202.795L163.829 206.694C163.939 207.526 164.395 208.271 165.148 208.644C167.191 209.654 172.015 211.5 180.003 211.5C187.991 211.5 192.815 209.654 194.857 208.644C195.61 208.271 196.066 207.526 196.177 206.694L196.697 202.795ZM196.205 212.14C193.459 216.806 187.713 220 180.003 220C172.292 220 166.546 216.806 163.8 212.14L163.894 210.687C163.943 209.928 164.809 209.457 165.503 209.769C167.794 210.799 172.683 212.5 180.003 212.5C187.322 212.5 192.212 210.799 194.502 209.769C195.196 209.457 196.062 209.928 196.111 210.687L196.205 212.14Z" fill="white"/>
<path fill-rule="evenodd" clip-rule="evenodd" d="M195.352 305.723C195.352 246.028 215.004 190.832 279 190.832C342.996 190.832 362.648 248.272 362.648 305.723C362.648 335.072 195.352 335.072 195.352 305.723Z" fill="#FFD54D"/>
<path fill-rule="evenodd" clip-rule="evenodd" d="M195.383 306.412C197.98 335.07 362.649 334.841 362.649 305.723C362.649 282.43 359.418 259.139 351.312 239.678C355.481 257.14 356.098 277.055 356.098 297.156C356.098 323.002 226.356 326.088 195.383 306.412Z" fill="black" fill-opacity="0.15"/>
<path d="M212.465 239.591C212.107 223.882 225.988 212.5 241.701 212.5H316.297C332.01 212.5 345.891 223.882 345.533 239.591C344.13 301.184 301.098 341.5 278.999 341.5C256.9 341.5 213.868 301.184 212.465 239.591Z" fill="#B14DFF"/>
<path fill-rule="evenodd" clip-rule="evenodd" d="M243.152 319.874C255.612 333.757 269.317 341.501 279.002 341.501C301.101 341.501 344.133 301.184 345.537 239.592C345.712 231.885 342.461 225.22 337.247 220.429C337.671 221.955 337.918 223.562 337.963 225.235C339.73 290.642 294.346 333.942 271.444 333.942C263.69 333.942 253.358 328.978 243.152 319.874Z" fill="black" fill-opacity="0.15"/>
<path fill-rule="evenodd" clip-rule="evenodd" d="M206.438 255.836C226.09 252.561 241.711 244.246 251.789 233.16C250.529 237.192 249.018 242.987 249.018 249.034C266.654 247.522 285.047 243.743 304.699 227.618C313.266 238.955 322.77 249.797 349.043 249.789C345.264 171.432 208.453 171.936 206.438 255.836Z" fill="#FFD54D"/>
<path fill-rule="evenodd" clip-rule="evenodd" d="M218.293 253.121C232.418 248.939 243.832 241.914 251.79 233.16C250.53 237.191 249.019 242.986 249.019 249.033C266.655 247.521 285.048 243.742 304.7 227.617C312.674 238.17 321.459 248.293 343.823 249.638C318.502 244.451 312.178 230.344 309.018 223.295C308.732 222.659 308.473 222.08 308.227 221.57C288.575 237.695 270.182 241.475 252.546 242.986C252.546 236.939 255.065 226.609 256.325 222.578C250.984 231.282 237.413 244.023 218.293 253.121Z" fill="black" fill-opacity="0.15"/>
<path fill-rule="evenodd" clip-rule="evenodd" d="M293.613 299.676H264.387C264.387 307.933 270.647 313.785 279 313.785C287.353 313.785 293.613 307.933 293.613 299.676Z" fill="black" fill-opacity="0.299"/>
<path fill-rule="evenodd" clip-rule="evenodd" d="M290.661 305.723H267.335C266.622 304.367 266.154 302.841 265.977 301.188H292.02C291.843 302.841 291.375 304.367 290.661 305.723Z" fill="white"/>
<path fill-rule="evenodd" clip-rule="evenodd" d="M271.824 310.413C273.848 311.606 276.292 312.273 278.998 312.273C281.705 312.273 284.149 311.606 286.173 310.412C284.644 309.106 282.002 308.242 278.999 308.242C275.996 308.242 273.354 309.106 271.824 310.413Z" fill="#FF4949"/>
<path d="M275.061 278.831C273.132 283.659 270.461 290.348 259.35 290.348C248.124 290.348 246.814 281.88 245.937 276.206C245.495 273.349 245.163 271.2 243.729 271.2C243.477 269.94 243.477 267.673 243.477 266.665C263.674 264.749 269.432 266.925 273.474 268.452C275.281 269.135 276.745 269.688 279.002 269.688C281.259 269.688 282.723 269.135 284.53 268.452C288.571 266.925 294.33 264.749 314.527 266.665C314.527 267.673 314.527 269.94 314.275 271.2C312.841 271.2 312.508 273.349 312.067 276.206C311.19 281.88 309.88 290.348 298.654 290.348C287.543 290.348 284.872 283.659 282.943 278.831C281.854 276.104 281.002 273.971 279.002 273.971C277.002 273.971 276.15 276.104 275.061 278.831Z" fill="black"/>
<path d="M288.336 285.243C295.85 285.888 304.885 282.855 310.35 277.383C309.827 280.553 309.016 283.978 306.583 286.252C304.993 287.738 302.569 288.837 298.654 288.837C294.923 288.837 291.031 287.969 288.336 285.243Z" fill="white"/>
<path d="M274.112 277.142C272.665 280.626 271.365 284.302 268.115 286.545C266.188 287.876 263.447 288.837 259.349 288.837C255.711 288.837 252.061 287.717 250.016 284.561C257.934 285.758 268 282.805 274.112 277.142Z" fill="white"/>
<path d="M445.946 245.722C445.55 229.542 459.599 217.5 475.784 217.5H548.215C564.399 217.5 578.449 229.542 578.052 245.722C576.56 306.677 542.748 346.5 511.999 346.5C481.251 346.5 447.439 306.677 445.946 245.722Z" fill="#C4D9D9"/>
<path fill-rule="evenodd" clip-rule="evenodd" d="M473.469 325.919C485.006 339.145 498.786 346.5 512 346.5C542.749 346.5 576.561 306.676 578.054 245.722C578.246 237.853 575.023 230.963 569.798 225.961C570.243 227.59 570.493 229.306 570.523 231.088C571.59 296.018 536.365 338.941 504.442 338.941C494.009 338.941 483.225 334.357 473.469 325.919Z" fill="black" fill-opacity="0.15"/>
<path d="M565.413 238.664C572.971 242.191 574.483 264.867 576.499 264.867C578.515 264.867 584.561 236.648 583.05 229.594C581.538 222.539 575.491 221.783 570.2 216.492C564.909 211.201 566.925 206.414 561.13 203.139C555.335 199.863 546.769 202.887 540.722 200.871C534.675 198.855 535.934 193.06 528.124 192.305C520.314 191.549 514.519 193.564 507.968 194.572C501.417 195.58 493.606 190.793 487.56 192.808C481.513 194.824 481.513 200.367 476.726 202.635C471.938 204.902 466.144 203.642 460.601 206.666C455.058 209.689 456.821 214.98 453.042 219.515C449.263 224.051 443.301 226.57 440.948 233.625C438.596 240.68 445.483 264.867 447.499 264.867C449.515 264.867 453.798 240.176 458.585 238.664C463.372 237.152 468.663 244.711 473.954 243.199C479.245 241.687 478.994 235.137 484.788 234.381C490.583 233.625 497.386 244.711 503.685 243.199C509.983 241.687 518.55 233.877 524.093 233.877C529.635 233.877 536.69 243.199 542.989 243.703C550.414 244.297 557.855 235.137 565.413 238.664Z" fill="#FF4D4D"/>
<path fill-rule="evenodd" clip-rule="evenodd" d="M576.897 248.751C576.058 244.391 574.111 234.274 563.901 232.114C556.105 230.464 551.562 232.772 547.597 234.787C544.899 236.158 542.468 237.393 539.461 237.153C536.301 236.9 532.951 234.428 529.697 232.027C526.465 229.642 523.327 227.327 520.565 227.327C517.525 227.327 513.575 229.676 509.589 232.047C506.307 233.999 503.001 235.966 500.157 236.649C496.852 237.442 493.408 234.767 490.045 232.155C486.997 229.787 484.014 227.471 481.26 227.83C478.207 228.229 476.832 230.235 475.441 232.266C474.192 234.09 472.929 235.934 470.426 236.649C467.737 237.417 465.047 235.842 462.424 234.306C459.887 232.82 457.411 231.37 455.057 232.114C452.21 233.013 449.541 242.112 447.421 249.339C446.167 253.615 445.105 257.235 444.312 258.113C445.568 262.076 446.815 264.868 447.5 264.868C448.317 264.868 449.506 260.813 450.95 255.89C453.07 248.663 455.739 239.564 458.586 238.664C460.94 237.921 463.416 239.371 465.954 240.857C468.577 242.393 471.266 243.968 473.955 243.2C476.459 242.484 477.721 240.641 478.971 238.817C480.362 236.786 481.736 234.779 484.789 234.381C487.544 234.022 490.526 236.338 493.574 238.705C496.938 241.318 500.381 243.993 503.686 243.2C506.53 242.517 509.837 240.55 513.118 238.598C517.105 236.227 521.054 233.877 524.094 233.877C526.856 233.877 529.994 236.193 533.227 238.578C536.481 240.979 539.831 243.451 542.99 243.703C546.208 243.961 549.429 242.387 552.66 240.807C556.886 238.741 561.131 236.666 565.414 238.664C570.301 240.945 572.661 251.232 574.263 258.218C575.138 262.036 575.788 264.868 576.5 264.868C578.516 264.868 584.563 236.649 583.051 229.594C582.622 227.592 581.828 226.097 580.789 224.862C581.522 233.104 578.438 250.758 577.506 250.758C577.284 250.758 577.135 249.985 576.897 248.751Z" fill="black" fill-opacity="0.15"/>
<path d="M512 318.281C504.441 318.281 493.355 308.203 493.355 308.203C493.355 308.203 504.441 309.967 512 309.967C519.559 309.967 530.645 308.203 530.645 308.203C530.645 308.203 519.559 318.281 512 318.281Z" fill="#FF4D4D"/>
<path fill-rule="evenodd" clip-rule="evenodd" d="M493.434 308.215C496.939 310.384 505.535 315.258 512 315.258C518.464 315.258 527.06 310.384 530.566 308.215C530.618 308.207 530.645 308.203 530.645 308.203C530.645 308.203 519.559 318.281 512 318.281C504.441 318.281 493.355 308.203 493.355 308.203C493.355 308.203 493.382 308.207 493.434 308.215Z" fill="black" fill-opacity="0.15"/>
<path fill-rule="evenodd" clip-rule="evenodd" d="M493.504 308.336C497.722 309.528 504.967 311.227 512 311.227C519.033 311.227 526.278 309.528 530.496 308.336C530.594 308.249 530.645 308.203 530.645 308.203C530.645 308.203 519.559 309.967 512 309.967C504.441 309.967 493.355 308.203 493.355 308.203C493.355 308.203 493.406 308.249 493.504 308.336Z" fill="black" fill-opacity="0.15"/>
<path d="M512 306.692C507.969 302.66 504.945 307.196 493.355 308.203C493.355 308.203 504.441 309.967 512 309.967C519.559 309.967 530.645 308.203 530.645 308.203C519.055 307.196 516.031 302.66 512 306.692Z" fill="#FF4D4D"/>
<path d="M509.479 278.77C509.337 272.901 503.093 271.67 495.372 271.67C487.562 271.67 477.351 271.842 478.899 278.725C481.676 291.07 484.7 294.094 495.372 294.094C505.051 294.094 508.427 287.687 509.258 282.053C510.852 281.253 513.15 281.253 514.744 282.053C515.575 287.687 518.951 294.094 528.629 294.094C539.302 294.094 542.325 291.07 545.102 278.725C546.65 271.842 536.44 271.67 528.629 271.67C520.908 271.67 514.665 272.901 514.522 278.77C512.895 278.357 511.106 278.357 509.479 278.77Z" fill="black"/>
<path fill-rule="evenodd" clip-rule="evenodd" d="M522.219 290.648C521.55 290.283 520.963 289.862 520.445 289.4L543.146 276.715C543.242 277.465 543.134 278.302 542.957 279.059L522.219 290.648ZM542.33 281.543C541.199 285.675 540.012 288.092 538.443 289.572C536.598 291.313 533.861 292.078 528.629 292.078C527.021 292.078 525.634 291.885 524.435 291.544L542.33 281.543Z" fill="white"/>
<path fill-rule="evenodd" clip-rule="evenodd" d="M507.379 280.801L488.587 291.302C490.241 291.832 492.406 292.078 495.372 292.078C500.51 292.078 503.398 290.102 505.086 287.657C506.484 285.633 507.157 283.137 507.379 280.801ZM486.51 290.329L507.456 278.624C507.409 277.8 507.2 277.182 506.899 276.696L484.969 288.951C485.435 289.499 485.928 289.943 486.51 290.329Z" fill="white"/>
<rect x="5" y="223" width="128" height="128" rx="24" fill="#00FFBF"/>
<path fill-rule="evenodd" clip-rule="evenodd" d="M10.4414 342.219C14.843 347.58 21.5221 351 29 351H109C122.255 351 133 340.255 133 327V247C133 239.522 129.58 232.843 124.219 228.441C125.047 230.636 125.5 233.015 125.5 235.5V323.5C125.5 334.546 116.546 343.5 105.5 343.5H17.5C15.0153 343.5 12.6364 343.047 10.4414 342.219Z" fill="black" fill-opacity="0.15"/>
<path d="M92.0017 256.001C120.502 256.001 145.002 247.501 145.002 225.251C145.002 184.251 99.5017 208.312 52.7517 205.251C20.3817 203.131 1.40984 214.855 1.00172 239.751C0.751721 255.001 5.50172 271.751 5.50172 271.751C5.50172 271.751 3.00172 253.751 15.5017 248.001C28.0017 242.251 63.5017 256.001 92.0017 256.001Z" fill="#00BFFF"/>
<path fill-rule="evenodd" clip-rule="evenodd" d="M131.5 220.249C131.5 242.499 118 248.499 89.5 248.499C77.0942 248.499 63.362 246.273 50.7778 244.233C34.4523 241.586 20.0589 239.252 13 242.499C5.4038 245.994 3.34703 254.196 2.90234 260.095C4.13157 266.924 5.50003 271.749 5.50003 271.749C5.50003 271.749 3.00003 253.749 15.5 247.999C22.3457 244.85 36.0896 247.55 51.8042 250.636C64.784 253.186 79.1082 255.999 92 255.999C120.5 255.999 145 247.499 145 225.249C145 209.114 137.953 203.055 126.556 201.454C129.769 205.145 131.5 211.065 131.5 220.249Z" fill="black" fill-opacity="0.15"/>
<path d="M51.5 295.5C55.9183 295.5 59.5 291.918 59.5 287.5C59.5 283.082 55.9183 279.5 51.5 279.5C47.0817 279.5 43.5 283.082 43.5 287.5C43.5 291.918 47.0817 295.5 51.5 295.5Z" fill="black" fill-opacity="0.25"/>
<path d="M86.5 295.5C90.9183 295.5 94.5 291.918 94.5 287.5C94.5 283.082 90.9183 279.5 86.5 279.5C82.0817 279.5 78.5 283.082 78.5 287.5C78.5 291.918 82.0817 295.5 86.5 295.5Z" fill="black" fill-opacity="0.25"/>
<path fill-rule="evenodd" clip-rule="evenodd" d="M69 322C76.1797 322 82 317.075 82 311C74.0676 311 63.9231 311 56 311C56 317.075 61.8203 322 69 322Z" fill="black" fill-opacity="0.25"/>
</g>
<defs>
<clipPath id="clip0">
<rect width="795" height="367" fill="white"/>
</clipPath>
</defs>
</svg>
