<svg xmlns="http://www.w3.org/2000/svg" width="1120" height="426" fill="none" xmlns:v="https://vecta.io/nano"><style><![CDATA[.B{fill:#000}.C{fill-rule:evenodd}.D{fill-opacity:.15}.E{fill:#fff}.F{fill-opacity:.3}.G{fill-opacity:.25}.H{fill-opacity:.2}.I{fill:#884dff}.J{fill:#ff5858}.K{fill:#4cffa6}.L{fill:#ff4d4d}]]></style><g clip-path="url(#A)"><g class="C"><path d="M-13.1955 129.998C-3.5437 63.6426 21.4906 28.3535 86.9413 28.3535s89.8817 35.29 100.1367 101.6445c5.22 33.77-37.1 62.736-100.1368 62.736s-105.0555-28.92-100.1367-62.736z" fill="#ff974d"/><path d="M-12.5938 143.76c6.5755 27.54 45.2657 48.973 99.5345 48.973 63.0373 0 105.3553-28.965 100.1363-62.737-2.496-16.153-5.833-30.4647-10.396-42.875 3.068 10.18 5.47 21.464 7.382 33.827 5.22 33.77-37.1 62.736-100.137 62.736-48.1085 0-84.5964-16.944-96.52-39.924z" class="B D"/></g><path d="M8.9075 88.332c-.515-20.3315 16.635-36.1523 36.973-36.1523h82.1266c20.338 0 37.488 15.821 36.973 36.1525-1.815 71.6308-26.022 118.2748-78.0362 118.2748S10.722 159.963 8.9075 88.332z" fill="#0094ff"/><g class="C"><path d="M35.5195 183.287c12.455 15.004 29.4608 23.32 51.4247 23.32 52.0138 0 76.2218-46.644 78.0358-118.2752.247-9.7286-3.55-18.4245-9.808-24.8484.567 2.1522.87 4.415.87 6.7583.036 76.7223-23.974 127.3163-78.1463 127.3163-17.0495 0-31.1113-5.01-42.3762-14.272z" class="B D"/><path d="M4.2754 100.44c35.5912 0 98.8456 4.613 134.2436-24.4313-3.62 4.8258-6.635 12.3663-7.263 17.4937 14.353 0 29.28-1.2064 38.908-8.1436 0-68.4667-173.706-74.499-165.8886 15.0812z" fill="#ff974d"/><g class="B D"><path d="M19.078 100.583c40.6506-2.2556 98.575-10.0323 126.532-32.9717-3.62 4.8258-7.515 18.399-8.143 23.5266l.874.0422c5.064.2517 15.884.7893 28.128-3.56-9.516 4.948-22.588 5.8818-35.216 5.8818.628-5.1274 3.644-12.668 7.264-17.4937C107.62 101.358 55.5007 101.067 19.078 100.583z"/></g></g><path d="M67.64 137.84c3.998 0 7.2388-3.24 7.2388-7.24s-3.24-7.24-7.2388-7.24-7.2388 3.24-7.2388 7.24 3.24 7.24 7.2388 7.24zm38.606 0c3.997 0 7.238-3.24 7.238-7.24s-3.24-7.24-7.238-7.24-7.2392 3.24-7.2392 7.24 3.2412 7.24 7.2392 7.24z" class="B F"/><g class="C"><path d="M82.6966 131.252c-.451 6.694-7.831 12.017-16.8686 12.017-9.3284 0-16.8905-5.67-16.8905-12.668s7.562-12.667 16.8905-12.667c8.1835 0 15.0077 4.364 16.5595 10.16 2.872-1.098 6.2352-1.098 9.1072 0 1.552-5.795 8.376-10.16 16.5593-10.16 9.33 0 16.89 5.67 16.89 12.667s-7.562 12.668-16.89 12.668c-9.0376 0-16.4174-5.323-16.8685-12.018-2.5513-1.305-5.9376-1.305-8.489.001zm-16.8686 9c7.6626 0 13.8743-4.32 13.8743-9.652s-6.2117-9.65-13.8743-9.65-13.8743 4.32-13.8743 9.65 6.2117 9.652 13.8743 9.652zm42.226 0c7.663 0 13.875-4.32 13.875-9.652s-6.212-9.65-13.875-9.65-13.874 4.32-13.874 9.65 6.212 9.652 13.874 9.652z" class="B"/><path d="M86.9426 176.146c9.596 0 17.4324-6.677 21.0144-15.222.912-2.175 2.428-5.892.036-7.7-1.805-1.365-4.39-.437-6.332.052-4.8403 1.217-9.7096 2.058-14.7184 2.058-6.3322 0-11.0766-1.147-14.3446-1.964-2.0176-.505-4.814-1.576-6.7053-.146-2.3915 1.807-.8763 5.524.0353 7.7 3.5826 8.546 11.4188 15.222 21.0146 15.222z" class="B F"/><path d="M106.34 155.04c-.663 1.987-1.253 4.185-3.174 5.336-2.376 1.423-7.2872 3.402-16.2264 3.402s-13.8472-1.977-16.225-3.4c-1.9226-1.15-2.514-3.35-3.1764-5.337 1.7787-.703 8.2447 2.706 19.3998 2.706s17.625-3.41 19.402-2.706z" class="E"/><path d="M99.4148 168.948c-3.0777 2.732-7.188 4.785-12.472 4.785-5.1148 0-9.13-1.924-12.1734-4.525 3.606-2.363 8.811-2.432 12.533-.288 3.5928-2.07 8.5302-2.063 12.1124.028z" class="J"/></g><path d="M244.575 95.0538c.058-21.7196 17.634-39.6456 39.354-39.6456h75.155c21.72 0 39.296 17.926 39.354 39.6457.184 69.65-.186 114.781-76.93 114.781s-77.116-45.13-76.932-114.7812z" fill="#7846ff"/><path d="M259.613 187.5c10.907 14.39 29.666 22.347 61.893 22.347 76.746 0 77.116-45.13 76.93-114.7813-.027-10.04-3.797-19.2692-9.99-26.292.598 2.3537.916 4.8155.92 7.3456l.018 8.547c.2 70.4176.313 116.1326-76.928 116.1326-24.663 0-41.44-4.66-52.844-13.3z" class="B C D"/><path d="M283.447 99.1746c18.072 7.9804 43.336 7.4504 59.644-4.3315 18.024 15.42 64.675 12.576 64.675-17.718 0-12.22-10.945-22.554-25.998-25.9577-6.17-23.6113-41.696-25.9702-57.44-11.2946-15.606-14.678-45.692-11.6277-54.912 8.9322-15.59-.62-34.174 9.312-34.174 26.812 0 23.4695 29.992 31.781 48.205 23.5575z" fill="#80ffca"/><g class="B"><path d="M340.078 82.7778c-16.307 11.7815-41.572 12.312-59.643 4.3315-14.72 6.6457-37.13 2.4928-45.188-11.732l-.001.2392c0 23.4695 29.992 31.7816 48.205 23.5575 18.072 7.981 43.336 7.45 59.643-4.3314 18.025 15.4205 64.676 12.5755 64.676-17.718 0-3.848-1.085-7.509-3.042-10.8257-1.256 29.13-46.874 31.6865-64.65 16.48z" class="C D"/><path d="M304 146.196c-15.567 0-23.526-14.037-23.526-19.303 0-4.924 9.433-4.153 21.85-3.14 5.942.486 12.567 1.027 19.17 1.027 6.404 0 12.792-.505 19.17-1.027 12.417-1.014 21.85-1.785 21.85 3.14 0 5.266-7.96 19.303-23.526 19.303-6.398 0-10.388-5.844-13.298-10.106-1.895-2.775-1.783-4.372-4.197-4.372s-2.314 1.617-4.195 4.372c-2.9 4.262-6.9 10.106-13.298 10.106z"/></g><g class="C"><g class="E"><path d="M313.7 128.473c-.717-.43-1.592-.77-2.58-1.05L292.5 140.46a21.372 21.372 0 0 0 2.273 1.264l18.927-13.253zm1.638 1.576c.925 1.618.516 3.972-1.98 7.466-2.6 3.623-5.57 6.268-9.345 6.268-2.47 0-4.727-.4-6.77-1.064l18.095-12.67zm42.186-4.386c-1.022-.158-2.267-.236-3.726-.247l-21.58 15.1c.593.6 1.204 1.117 1.84 1.567l23.465-16.43zm2.54.943c.93 3.167-3.33 8.255-5.22 10.256-3.573 3.785-8.852 6.92-15.846 6.92-.97 0-1.88-.178-2.747-.504l23.812-16.673z"/></g><path d="M321.504 182.088c12.668 0 19.907-12.667 19.907-19.906s-9.218-4.223-19.907-4.223-19.906-3.016-19.906 4.223 7.238 19.906 19.906 19.906z" fill-opacity=".4" class="B"/><path d="M338.113 160.103l-.195 2.336c-.08.97-.64 1.828-1.545 2.183-2.258.884-7.215 2.384-14.87 2.384-7.6 0-12.54-1.478-14.82-2.365-.937-.364-1.517-1.253-1.6-2.256l-.2-2.282c1.33-.978 4.094-.69 7.843-.302 2.523.262 5.49.57 8.768.57s6.244-.307 8.767-.57c3.75-.39 6.515-.676 7.844.302z" class="E"/><path d="M333.634 174.54c-3 3.036-7.14 5.134-12.124 5.134s-9.124-2.098-12.123-5.134c3.144-1.303 7.417-2.104 12.123-2.104s8.98.8 12.124 2.104z" class="J"/></g><path d="M736.215 78.7423c-.56-19.1775 16.202-33.3282 35.388-33.3282h87.585c19.185 0 35.947 14.1507 35.388 33.3282-2.138 73.2267-47.564 121.0987-79.18 121.0987s-77.043-47.872-79.18-121.0987z" fill="#0ff"/><path d="M771.266 174.826c14.215 16.072 30.463 25.017 44.13 25.017 31.616 0 77.042-47.872 79.18-121.099.273-9.3687-3.587-17.5377-9.845-23.4433.523 1.9168.817 3.936.85 6.036 1.24 77.9212-46.43 129.4582-79.235 129.4582-10.838 0-23.298-5.625-35.08-15.97z" class="B C D"/><path d="M815.395 17.667c20.208 0 48.26-13.271 48.26 13.5727s-29.86 7.5404-48.26 7.5404-48.258 19.3034-48.258-7.5404 28.05-13.5727 48.258-13.5727z" fill="#2e4599"/><path d="M863.646 32.165c-.48 17.7764-14.938 13.959-29.8 10.0324-6.434-1.6988-12.946-3.4182-18.437-3.4182s-12.002 1.7194-18.437 3.4182c-14.986 3.957-29.552 7.803-29.817-10.4476 12.95-4.032 29.046-5.95 48.255-5.95 19.22 0 35.323 2.02 48.246 6.3662z" class="B C G"/><path d="M762.314 73.1635c26.24 37.7015 130.6-37.11 132.108 74.8005 17.795-90.4846-3.62-114.3234-79.024-114.3234s-96.216 28.6647-79.023 102.8624c-2.112-45.2426 28.653-25.034 25.94-63.3395z" fill="#2e4599"/><g class="B"><path d="M811.92 75.4708c-22.15 1.7175-42.83 3.321-52.624-10.752 1.306 18.4398-5.146 23.3198-11.953 28.469-6.58 4.9774-13.494 10.206-14.054 28.177.832 4.82 1.862 9.864 3.084 15.138-1.095-23.463 6.652-29.322 13.986-34.87 6.808-5.149 13.26-10.029 11.953-28.469 9.795 14.0728 30.473 12.4695 52.625 10.752 28.432-2.2045 59.3-4.597 72.672 25.729-11.146-39.1786-44.845-36.5657-75.69-34.1742zm81.398 56.0552c.645 4.974 1.02 10.438 1.102 16.44 9.933-50.5076 7.65-80.25-9.42-96.672 13.374 19.3166 15.615 47.0557 8.32 80.233z" class="C G"/><path d="M797.3 135.9c5.33 0 9.652-4.32 9.652-9.652s-4.32-9.65-9.652-9.65-9.652 4.32-9.652 9.65 4.322 9.652 9.652 9.652zm36.192 0c5.33 0 9.65-4.32 9.65-9.652s-4.32-9.65-9.65-9.65-9.652 4.32-9.652 9.65 4.32 9.652 9.652 9.652z" class="F"/><g class="C F"><path d="M803.72 150.84c1.078-.784 2.587-.546 3.37.532 5.716 7.86 10.892 7.86 16.607 0 .784-1.078 2.293-1.316 3.37-.532s1.316 2.293.532 3.37c-7.578 10.42-16.835 10.42-24.413 0-.784-1.077-.545-2.587.532-3.37z"/></g></g><path d="M482.284 127.96c3.883-66.7425 29.18-95.4473 94.84-95.4473s90.958 28.7047 94.84 95.4473c2.39 41.114.303 63.226-94.84 63.226s-97.232-22.112-94.84-63.226z" fill="#66f" class="C"/><path d="M482.64 154.738c3.875 23.854 22.677 36.45 94.484 36.45 95.142 0 97.23-22.112 94.84-63.226-1.096-18.838-3.898-34.6456-8.832-47.633 2.72 10.5064 4.397 22.508 5.187 36.083 2.39 41.114.303 63.226-94.84 63.226-59.158 0-82.34-8.55-90.838-24.9z" class="B C H"/><path d="M497.325 83.1238c-.564-19.3274 16.33-33.5886 35.664-33.5886h88.27c19.336 0 36.23 14.2612 35.665 33.5886-2.154 73.7992-47.935 122.0452-79.8 122.0452s-77.645-48.246-79.8-122.0452z" fill="#ffa94d"/><path d="M532.648 179.957c14.327 16.198 30.7 25.213 44.475 25.213 31.864 0 77.645-48.247 79.8-122.0455.276-9.442-3.615-17.6747-9.92-23.6265.527 1.932.823 3.9667.857 6.0832 1.25 78.5298-46.793 130.4688-79.854 130.4688-10.923 0-23.48-5.67-35.356-16.093z" class="B C D"/><path d="M577.125 34.0332c-104.566 0-88.457 73.5608-77.817 111.8618 0-78.425 41.644-36.78 41.644-80.8566 5.4 49.2906 114-2.4318 114 93.6236 15.806-44.076 26.75-124.6288-77.817-124.6288z" fill="#66f"/><g class="B C"><path d="M499.29 145.822l.02.072v-.03l-.02-.04zm2.38-27.034c4.053-25.8295 14.39-31.42 23.357-36.2723 8.237-4.4556 15.32-8.2868 15.32-26.5977 2.175 19.841 20.773 22.3296 42.22 25.1995 26.632 3.5636 57.658 7.7152 67.086 46.4075-11.37-27.559-39.108-31.7765-63.743-35.522-22.67-3.4468-42.712-6.4943-44.955-26.9658 0 18.885-7.645 22.0334-16.384 25.632-8.71 3.586-18.503 7.6196-22.9 28.1188z" class="H"/><path d="M563.508 155.805c1.074-.806 2.6-.588 3.404.486 5.107 6.81 15.32 6.81 20.427 0 .806-1.074 2.33-1.292 3.405-.486s1.292 2.33.486 3.404c-7.052 9.403-21.156 9.403-28.208 0-.806-1.074-.588-2.598.486-3.404z" class="F"/></g><path d="M558.278 135.256c4.365 0 7.904-3.54 7.904-7.904s-3.54-7.903-7.904-7.903-7.903 3.54-7.903 7.903 3.538 7.904 7.903 7.904zm37.696 0c4.364 0 7.903-3.54 7.903-7.904s-3.54-7.903-7.903-7.903-7.904 3.54-7.904 7.903 3.54 7.904 7.904 7.904z" class="B F"/><path d="M537.61 120.664c0-4.03 3.267-7.295 7.296-7.295h20.67c4.03 0 7.295 3.266 7.295 7.295v4.904c.934-.352 2.3-.647 4.256-.647s3.32.294 4.254.647v-4.902c0-4.03 3.266-7.296 7.296-7.296h20.67c4.03 0 7.295 3.267 7.295 7.296v13.374c0 4.03-3.266 7.296-7.295 7.296h-20.67c-4.03 0-7.296-3.266-7.296-7.296v-5.332c-.982-.395-2.383-.748-4.254-.748s-3.273.353-4.256.75v5.33c0 4.03-3.266 7.296-7.295 7.296h-20.67c-4.03 0-7.296-3.267-7.296-7.296v-13.375zm3.04.61c0-2.686 2.178-4.864 4.864-4.864h19.454c2.686 0 4.864 2.178 4.864 4.864v12.16c0 2.686-2.178 4.863-4.864 4.863h-19.454c-2.686 0-4.864-2.177-4.864-4.863v-12.16zm48.635-4.863c-2.687 0-4.864 2.178-4.864 4.864v12.16c0 2.686 2.177 4.863 4.864 4.863h19.454c2.686 0 4.863-2.177 4.863-4.863v-12.16c0-2.686-2.177-4.864-4.863-4.864h-19.454z" class="B C"/><path d="M98.879 290.998c15.806 10.64 50.46 21.886 100.919 21.886s85.112-11.247 100.92-21.886c-22.494-27.966-1.824-69.002-15.807-96.664s-35.26-43.772-85.112-43.772-71.13 16.11-85.113 43.772 6.688 68.698-15.806 96.664z" fill="#ff53ee"/><path d="M199.798 303.157c-50.46 0-76.6-6.99-92.408-17.63 6.398-13.21 4.78-29.413 2.478-45.752.73 18.125.863 36.488-10.989 51.223 15.806 10.64 50.46 21.886 100.919 21.886s85.112-11.247 100.92-21.886c-11.67-14.506-11.722-32.53-11.023-50.38-1.91 13-2.868 27.825 2.816 46.428-17.022 9.727-42.252 16.1-92.712 16.1z" class="B C D"/><path d="M120.11 205.584c-.478-19.52 16.472-34.05 35.998-34.05h87.385c19.527 0 36.477 14.53 35.998 34.05-1.8 73.54-42.593 121.585-79.7 121.585s-77.9-48.046-79.69-121.585z" fill="#ffff80"/><path d="M153.31 302.338c13.92 15.957 30.544 24.83 46.487 24.83 37.097 0 77.9-48.046 79.69-121.585.232-9.493-3.657-17.806-9.96-23.84.537 1.966.84 4.035.875 6.186 1.287 78.335-41.21 130.12-79.724 130.12-12.587 0-25.598-5.53-37.368-15.71z" class="B C D"/><path d="M121.982 243.577C95.84 187.343 140 154.514 202 154.514s93.844 31.613 79.945 84.808c-15.2-12.767-19.758-30.7-17.63-44.684-40.732 62.314-142.342-29.79-142.342 48.94z" fill="#ff53ee"/><g class="B C"><path d="M122.543 234.233c4.033-30.417 29.115-25.95 58.174-20.775 29.837 5.314 63.867 11.375 83.603-18.82-2.127 13.982 2.432 31.917 17.63 44.684l.012-.048c-15.6-25.62-15.44-40.254-13.386-53.755-21.368 29.946-54.534 24.38-83.92 19.45-31.083-5.216-57.934-9.722-62.115 29.264z" class="D"/><path d="M217.74 275.977c-1.244-.506-2.663.09-3.17 1.335-2.824 6.933-11.263 10.805-19.14 9.175-1.315-.272-2.602.573-2.874 1.89s.574 2.602 1.89 2.874c9.752 2.017 20.768-2.622 24.63-12.103.506-1.244-.09-2.663-1.335-3.17z" class="F"/></g><path d="M174.873 237.8c-13.982 0-13.982 2.128-13.982 12.16 0 12.463 7.983 13.982 14.894 13.982 13.754 0 16.127-5.2 19.15-11.247s6.703-6.036 9.727 0 5.396 11.247 19.15 11.247c6.9 0 14.894-1.52 14.894-13.982 0-10.03 0-12.16-13.983-12.16-15.807 0-15.807 3.95-24.926 3.95s-9.12-3.95-24.926-3.95z" class="B"/><g class="E"><path d="M193.376 245.6l-25.508 14.254c-.74-.417-1.42-.934-2.016-1.573l26.178-14.63c.738.573 1.213 1.222 1.346 1.948zm-.12 2.642c-.77 5.587-4.626 13.28-16.905 13.28-1.916 0-3.926-.122-5.78-.603l22.684-12.677zm42.47-4.636l-24.767 13.84c.612.56 1.295 1.08 2.058 1.55l23.16-12.943c-.075-.962-.2-1.77-.452-2.448zm.54 4.974l-20.807 11.628c2.113.824 4.678 1.315 7.78 1.315 8.748 0 13.104-4.266 13.027-12.943z"/></g><path d="M977.83 78.7717c.06-21.8893 17.772-39.9553 39.66-39.9553h75.74c21.9 0 39.6 18.066 39.67 39.9554.18 70.1952-.2 115.6782-77.54 115.6782-77.342 0-77.715-45.484-77.53-115.6783z" fill="#ffc266"/><path d="M992.988 171.927c10.992 14.502 29.902 22.522 62.372 22.522 77.35 0 77.72-45.483 77.54-115.678-.03-10.1183-3.83-19.4198-10.07-26.4975.6 2.372.92 4.8532.93 7.403l.01 8.614c.2 70.9676.32 117.0396-77.52 117.0396-24.86 0-41.77-4.698-53.262-13.403z" class="B C D"/><path d="M978.152 99.6106c-2.432 0-13.982-44.9878 12.16-62.0103 20.548-13.345 47.508-12.08 65.048-30.3972 17.55 18.3162 44.5 17.66 65.05 31.0052 26.14 17.0224 14.9 61.4023 12.16 61.4023s-1.82-36.4766-28.88-37.0845c-27.05-.912-30.7 13.3747-48.33 13.3747s-21.28-14.2867-48.33-13.3747c-27.054.608-26.446 37.0845-28.878 37.0845z" fill="#999"/><g class="C"><path d="M1007.04 53.409c15.16-.5114 22.97 3.7556 30.02 7.6032 5.52 3.0145 10.56 5.7715 18.3 5.7715 7.74 0 12.8-2.757 18.3-5.7715 7.04-3.8476 14.85-8.1146 30.02-7.6032 18.98.4266 26.2 23.0115 28.67 36.4428.4 2.1282.57 5.7177.72 9.3825-.2.2485-.37.3784-.5.3784-.67 0-1.1-2.1312-1.8-5.372-2.13-10.1663-6.57-31.2517-27.08-31.7127-15.17-.5113-22.98 3.7557-30.02 7.6033-5.52 3.0144-10.57 5.7715-18.3 5.7715-7.75 0-12.8-2.757-18.3-5.7715-7.05-3.8476-14.86-8.1146-30.03-7.6033-20.797.4675-25.245 22.1425-27.295 32.1344-.616 3.0026-1.016 4.9502-1.578 4.9502-.18 0-.413-.2503-.677-.7207.247-3.5448.508-6.9783.888-9.0402 2.477-13.4313 9.68-36.0162 28.672-36.4428z" class="B D"/><path d="M1065.3 137.305c8.42 0 10.9 10.707 18.08 14.305 5.53 2.77 10.3-1.487 10.3 0 0 12.02-33.5 10.445-38.3-2.352h.01c-4.8 12.797-38.3 14.372-38.3 2.352 0-1.487 4.77 2.77 10.3 0 7.17-3.598 9.67-14.305 18.1-14.305 5.92 0 8.8 2.15 9.92 5.17 1.12-3.02 4-5.17 9.93-5.17z" fill="#999"/><g class="B D"><path d="M1019 151.728l-.25-.083c-1.05-.36-1.67-.572-1.67-.035 0 12.018 33.5 10.446 38.3-2.347 4.8 12.793 38.3 14.365 38.3 2.347 0-.537-.62-.325-1.68.035l-.24.083c-7.2 6.954-32.28 4.22-36.38-6.72v-.005h-.01c.01.002.01.004.01.005-4.1 10.94-29.2 13.675-36.38 6.72zm36.38-2.465v-.005h-.01c.01.001.01.003.01.005z"/></g></g><path d="M1090.62 117.85c0-13.983-8.8-13.983-14.9-13.983s-17.02.912-17.02 8.207c0 7.904 10.94 20.367 19.76 20.367 6.38 0 12.15-6.378 12.15-14.59z" class="B"/><path d="M1086.98 109.584l-21.9 12.636 1.52 1.755.03.026 21.32-12.3c-.28-.82-.6-1.516-.98-2.107zm1.58 4.698l-20.03 11.566c3.27 2.915 6.9 4.768 9.94 4.768 5.1 0 10.33-5.283 10.33-12.767 0-1.34-.08-2.523-.24-3.567z" class="C E"/><path d="M1020.1 117.85c0-13.983 8.82-13.983 14.9-13.983s17.02.912 17.02 8.207c0 7.904-10.94 20.367-19.76 20.367-6.38 0-12.16-6.378-12.16-14.59z" class="B"/><g class="C"><path d="M1025.02 126.854c-.48-.582-.92-1.224-1.3-1.917l25.96-14.986c.34.6.53 1.293.53 2.125v.243l-25.17 14.535zm24.45-11.176c-.25.67-.55 1.37-.92 2.085-1.08 2.11-2.62 4.272-4.43 6.214-3.72 3.97-8.2 6.64-11.86 6.64-1.85 0-3.7-.69-5.33-1.926l22.54-13.014z" class="E"/><g class="B"><path d="M1055.36 108.12c1.36 0 2.53.34 3.36 1.12.85.8 1.2 1.898 1.2 3.135 0 .503-.4.912-.9.912s-.9-.4-.9-.912c0-.892-.25-1.455-.62-1.805-.4-.36-1.04-.627-2.12-.627-1.07 0-1.73.268-2.1.627-.37.35-.62.913-.62 1.805 0 .503-.4.912-.9.912s-.92-.4-.92-.912c0-1.237.36-2.345 1.2-3.135.84-.78 2-1.12 3.36-1.12zm-11.24-3.948h22.5c.5 0 .9.408.9.912s-.4.912-.9.912h-22.5c-.5 0-.92-.4-.92-.912s.4-.912.92-.912z"/></g></g><path d="M-11.7852 272.168c0-15.99 12.9637-28.955 28.9552-28.955h96.517c15.99 0 28.955 12.964 28.955 28.955v48.26c0 42.643-34.57 77.213-77.2135 77.213h0c-42.644 0-77.2137-34.57-77.2137-77.213v-48.26z" fill="#ff794d"/><path d="M6.4922 370.313c14.1634 16.716 35.3106 27.326 58.936 27.326 42.644 0 77.214-34.57 77.214-77.213v-48.26c0-10.312-5.39-19.366-13.51-24.495 2.825 4.47 4.46 9.767 4.46 15.447v48.258c0 42.644-34.5695 77.214-77.2134 77.214-19.0186 0-36.4312-6.876-49.8874-18.278z" class="B C D"/><path d="M65.4244 280.916c-23.8277 0-60.142-6.937-66.657-12.97 2.7146 11.763-1.2064 24.43-10.5566 33.178-11.1598-54.29 7.239-73.595 63.038-83.85-5.429 5.43-7.842 11.16-9.652 17.192 14.176-13.572 25.9392-21.414 48.862-21.414-6.334 7.24-4.5242 22.62 1.508 27.447 2.413-5.43 2.413-11.16 1.2065-18.097 52.1798 9.35 58.5138 35.6 49.4648 78.722-9.652-7.54-15.08-17.193-10.556-33.178-6.516 6.032-42.83 12.97-66.6576 12.97z" fill="#3955ff"/><g class="B"><path d="M92.0904 240.218l.1658-.397-.1658.397zm-1.63-27.167c-6.331 7.235-4.526 22.607 1.4998 27.44-.5885 1.174-1.6296 2.55-3.3 4.23-10.1373-4-9.421-24.284-4.9464-31.42 2.1432-.165 4.3904-.248 6.7566-.248zm-39.2 4.222l-6.3953 1.25c-5.846 6.275-8.1376 13.75-8.6858 21.973 1.7997-2.117 3.6738-4.197 5.4526-6.1 1.8074-6.003 4.223-11.708 9.6285-17.114zm18.4223 55.196c-23.8276 0-68.6073-6.033-75.1224-12.065l.0176.1c1.8882 10.788 3.736 21.345-7.4 35.123l1.049 5.495c9.3502-8.747 13.2712-21.415 10.5566-33.178 6.515 6.032 42.8294 12.97 66.657 12.97s60.1423-6.937 66.6573-12.97c-4.524 15.986.905 25.637 10.556 33.178l1.152-5.862c-13.016-9.205-8.407-28.13-6.594-35.572l.334-1.396c-6.515 6.032-44.0357 14.176-67.8634 14.176z" class="C H"/><path d="M25.9937 311.982H104.86c2.523 0 4.27 2.516 3.393 4.88l-4.277 11.515c-1.053 2.837-3.76 4.72-6.7857 4.72H78.3028a7.239 7.239 0 0 1-6.7858-4.719l-4.297-11.57h-3.585l-4.297 11.57c-1.0535 2.837-3.76 4.72-6.7858 4.72H33.6637c-3.0258 0-5.7323-1.882-6.7858-4.72l-4.277-11.515c-.8782-2.364.8707-4.88 3.393-4.88z"/></g><g class="E"><path d="M105.718 316.762l-29.1573 13.596c.545.2 1.134.325 1.7422.325h18.8885c2.017 0 3.8216-1.255 4.5236-3.145l4.003-10.776zm-48.64 10.776l3.9527-10.642-28.975 13.5a4.812 4.812 0 0 0 1.61.276h18.8885a4.827 4.827 0 0 0 4.5239-3.145z"/></g><g class="C"><path d="M34.8527 369.29c-1.2043 28.288 1.9196 34.384 30.5747 34.384s31.5934-9.615 30.7654-34.384c-1.1273-33.78-9.256-24.777-30.67-24.732-21.5377-.046-29.5388-9.05-30.67 24.732zm48.0688-15.08c0 7.24 4.8265 18.7-2.413 18.7-6.8375 0 .6045-12.065-14.9858-12.065S57.3745 372.91 50.537 372.91c-7.2395 0-2.6016-11.462-2.6016-18.7 7.6533 3.017 27.1454 3.017 34.9862 0z" fill="#3955ff"/><path d="M34.68 374.283c.5493 18.405 6.536 22.756 30.7434 22.756 24.124 0 30.1813-6.82 30.8648-23.752.3217 21.812-3.805 30.387-30.8648 30.387-26.8846 0-31.2955-5.367-30.7434-29.39zm50.7292-16.788c-.122-2.54-.2393-4.98-.0788-6.905-7.8408 3.016-32.1587 3.016-39.812 0 .1547 1.857.0712 4.19-.0163 6.635-.1737 4.85-.3628 10.136 1.267 12.98-.6532-2.28-.118-5.72.4227-9.197.3684-2.368.7394-4.753.7394-6.8 7.6533 3.016 27.1454 3.016 34.9862 0 0 2.1.4022 4.53.8003 6.948.5975 3.626 1.1855 7.195.39 9.432 1.8017-2.686 1.542-8.1 1.3015-13.094z" class="B H"/></g><path d="M373.676 173.926c0-15.992 12.963-28.955 28.955-28.955h96.517c15.99 0 28.955 12.963 28.955 28.955v57.9c0 37.313-30.248 67.562-67.562 67.562h-19.303c-37.314 0-67.562-30.25-67.562-67.562v-57.9z" fill="#fe59af"/><path d="M389.152 274.87c12.393 14.98 31.124 24.526 52.085 24.526h19.303c37.314 0 67.562-30.248 67.562-67.562v-57.9c0-10.312-5.39-19.366-13.508-24.495 2.825 4.47 4.46 9.767 4.46 15.446v62.736c0 34.65-28.088 62.737-62.737 62.737h-24.13c-16.352 0-31.348-5.8-43.036-15.478z" class="B C H"/><path d="M389.36 161.26c3.016 20.208-5.73 32.574-15.684 41.623-15.08-66.657 28.352-76.61 77.213-76.61s92.898 12.367 77.214 76.61l-.164-.138c-7.493-6.293-15.52-13.034-15.52-40.882-43.433 18.4-79.627 17.795-123.06-.603z" class="K"/><g class="C"><g class="B"><path d="M372.547 197.423c9.586-9.07 16.14-23.056 13.192-42.8 43.433 18.4 86.866 19.002 130.298.603 0 27.284 5.993 36.02 13.26 42.305-.35 1.742-.748 3.526-1.193 5.35l-.164-.138c-7.493-6.293-15.52-13.035-15.52-40.882-43.433 18.398-79.627 17.795-123.06-.603 3.016 20.208-5.73 32.574-15.684 41.623-.422-1.864-.798-3.683-1.13-5.46z" class="D"/><path d="M415.898 217.36c0-2.665 2.16-4.826 4.826-4.826h19.304c2.665 0 4.826 2.16 4.826 4.826v4.027c1.05-.485 2.9-1.01 6.032-1.01s4.98.526 6.032 1.01v-4.027c0-2.665 2.16-4.826 4.826-4.826h19.303c2.666 0 4.826 2.16 4.826 4.826v12.065c0 2.665-2.16 4.826-4.826 4.826h-19.303c-2.665 0-4.826-2.16-4.826-4.826V224.5c-1.132-.51-3.096-1.12-6.032-1.12s-4.9.608-6.032 1.12v4.914c0 2.665-2.16 4.826-4.826 4.826h-19.304c-2.665 0-4.826-2.16-4.826-4.826V217.36z"/></g><g class="E"><path d="M462.875 231.836h-.524c-.95 0-1.798-.44-2.35-1.126l23.37-13.493a3.047 3.047 0 0 1 .093.745v1.987l-20.6 11.887zm20.6-9.244v6.228c0 1.666-1.35 3.016-3.016 3.016h-12.995l16-9.244zm-61.612 9.245h-.526c-.95 0-1.798-.44-2.35-1.125l23.37-13.493a3.039 3.039 0 0 1 .093.744v2l-20.587 11.885zm20.587-9.243v6.227c0 1.666-1.35 3.016-3.016 3.016H426.43l16-9.243z"/></g><path d="M459.333 247.52c8.354 0 12.187 7.288 19.303 9.05 5.953 1.473 16.287 1.206 16.287 1.206-7.238 9.652-40.414 11.763-44.033-2.014-3.62 13.777-35.593 11.666-44.038 2.014 0 0 10.334.267 16.287-1.206 7.116-1.76 10.95-9.05 19.303-9.05 5.875 0 7.34 2.432 8.446 4.826 1.104-2.394 2.57-4.826 8.445-4.826z" class="K"/><path d="M411.667 257.757l-4.815.018c8.445 9.65 40.418 11.763 44.038-2.014 3.62 13.777 36.795 11.665 44.033 2.014 0 0-1.86.047-4.454-.01-11.513 6.3-36.293 6.21-39.545-5.497l-.036.077c-.012-.024-.023-.048-.034-.072-3.253 11.708-27.17 11.8-39.187 5.484z" class="B D"/></g><path d="M450.886 269.84c-9.652 0-15.684 3.318 0 38.305 15.683-34.987 9.65-38.305 0-38.305z" class="K"/><path d="M441.64 274.67c.958 5.7 3.786 14.046 9.25 26.236 5.464-12.2 8.292-20.536 9.25-26.236 1.366 4.876-.76 14.536-9.25 33.475-8.5-18.94-10.617-28.6-9.25-33.475z" class="B C D"/><path d="M860.977 168.27c0-16.116 13.064-29.18 29.18-29.18h97.27c16.12 0 29.18 13.065 29.18 29.18v87.544c0 21.49-17.42 38.91-38.908 38.91h-77.817c-21.49 0-38.908-17.42-38.908-38.91V168.27z" fill="#4dd4ff"/><path d="M868.19 278.39c7.056 9.887 18.622 16.334 31.694 16.334h77.817c21.49 0 38.908-17.42 38.908-38.908V168.27c0-10.393-5.43-19.517-13.6-24.687 2.84 4.505 4.5 9.844 4.5 15.567v92.408c0 18.802-15.24 34.045-34.044 34.045h-82.68c-8.416 0-16.21-2.673-22.575-7.215z" class="B C D"/><path d="M870.703 155.502c2.736 11.855-.304 33.133-9.727 41.948-20.062-73.56 48.94-64.442 77.817-64.442s97.577-11.247 77.817 64.442c-9.73-7.6-14.3-25.23-9.73-41.34-39.514 25.23-106.387 19.758-136.177-.608z" fill="#fbff38"/><path d="M859.94 193.408c10-11.575 9.37-31.396 8.025-42.162 40.43 19.454 100.92 19.454 142.254.608-4.08 14.44-2.8 32.54 7.36 41.613-.3 1.302-.62 2.63-.97 3.983-9.73-7.6-14.3-25.23-9.73-41.34-39.517 25.23-106.4 19.758-136.18-.608 2.736 11.855-.304 33.133-9.727 41.948a125.444 125.444 0 0 1-1.032-4.042z" class="B C D"/><path d="M1019.04 148.152c-6.08 47.78-186.035 57.507-158.374-29.91 24.02 46.685 168.064-46.3302 158.374 29.91z" fill="#fbff38"/><g class="C"><g class="B"><path d="M860.688 118.283c-14.416 78.262 145.182 66.335 151.052 20.14.88-6.894.57-12.392-.72-16.726 6.55 4.57 9.75 12.797 8.02 26.454-6.08 47.78-186.035 57.507-158.374-29.91l.022.043z" class="D"/><path d="M938.793 262.5c12.766 0 20.062-9.12 20.062-16.415s-9.3-3.04-20.062-3.04-20.063-4.255-20.063 3.04 7.296 16.415 20.063 16.415z" class="F"/></g><path d="M955.477 244.093l-.15 1.796c-.074.893-.553 1.7-1.36 2.1-2.183 1.055-7.24 2.97-15.172 2.97-7.876 0-12.918-1.89-15.125-2.95-.836-.4-1.334-1.237-1.41-2.16l-.146-1.747c1.188-.65 3.44-.253 6.464.28 2.814.495 6.297 1.107 10.218 1.107s7.404-.612 10.218-1.107c3.026-.532 5.277-.928 6.464-.28z" class="E"/><path d="M953.5 254.2c-2.985 3.58-8.113 5.86-14.707 5.86-1.26 0-2.464-.083-3.6-.242.496-3.607 5.87-6.446 12.425-6.446 2.13 0 4.138.3 5.892.83z" class="J"/><path d="M901.102 216.904c0-6.38 5.17-11.55 11.55-11.55h10.942c5.507 0 10.114 3.853 11.27 9.01.954-.414 2.288-.803 3.928-.803s2.974.39 3.928.803c1.157-5.157 5.764-9.01 11.27-9.01h10.943c6.38 0 11.55 5.172 11.55 11.55s-5.17 11.55-11.55 11.55h-10.943c-6.366 0-11.53-5.15-11.55-11.513-.635-.37-1.91-.95-3.648-.95s-3.013.58-3.648.95c-.02 6.362-5.184 11.512-11.55 11.512h-10.942c-6.38 0-11.55-5.17-11.55-11.55z" class="B"/><g class="E"><path d="M972.094 211.254c-.5-.632-1.08-1.196-1.727-1.676l-23.187 13.387a9.141 9.141 0 0 0 1.861 1.598l23.053-13.3zm1.285 2.197c.437 1.065.677 2.232.677 3.454 0 5.036-4.083 9.12-9.12 9.12h-10.943c-.7 0-1.362-.076-2.008-.222l21.393-12.35zm-42.624-2.197c-.5-.632-1.08-1.196-1.728-1.676l-23.187 13.387a9.12 9.12 0 0 0 1.862 1.598l23.053-13.3zm1.284 2.197c.437 1.065.677 2.232.677 3.454 0 5.037-4.082 9.12-9.12 9.12h-10.943c-.7 0-1.362-.076-2.008-.222l21.393-12.35z"/></g></g><path d="M628.6 171.87c0-15.99 12.963-28.955 28.955-28.955h96.517c15.99 0 28.955 12.964 28.955 28.955v67.562c0 31.983-25.927 57.9-57.9 57.9H686.5c-31.983 0-57.9-25.927-57.9-57.9V171.87z" fill="#5c6dff"/><path d="M641.277 275.605c10.613 13.25 26.928 21.735 45.224 21.735h38.607c31.983 0 57.9-25.927 57.9-57.9v-67.562c0-10.312-5.39-19.365-13.508-24.495 2.825 4.47 4.46 9.768 4.46 15.447v72.388c0 29.317-23.767 53.084-53.085 53.084h-43.432c-13.687 0-26.264-4.748-36.176-12.687z" class="B C G"/><path d="M708.215 177.298c-24.732 0 .906-12.065-2.412-15.684s-22.622 15.684-34.083 15.684 3.62-15.684-6.937-18.7c-10.293-2.94-34.062-1.294-35.243 43.52-.018.677-.984.866-1.203.224-6.85-20.123-25.05-86.685 77.466-84.765 102.828 1.925 84.47 64.963 77.45 84.894-.224.636-1.17.37-1.183-.303-1.288-70.042-28.146-24.87-73.854-24.87z" fill="#ff66cb"/><g class="C"><g class="B"><path d="M701.1 168.568c-1.114 1.72-.246 2.7 5.31 2.7 15.766 0 29.655-5.386 41.16-9.848 22.034-8.545 35.328-13.7 36.316 28.853.008.347.504.505.6.172 1.774-6.153 4.617-16.768 3.782-28.256 2.902 15.884-2.06 31.9-5.013 40.286-.224.636-1.17.37-1.183-.303-.86-46.822-13.148-42.16-34.855-33.92-10.764 4.085-23.846 9.05-39 9.05-14.994 0-11.475-4.435-7.118-8.733zm9.532-13.587c-.212 3.292-2.63 6.286-5.03 8.782.546-.86.706-1.6.205-2.146-1.55-1.692-6.593 1.623-12.694 5.634-6.954 4.573-15.284 10.05-21.39 10.05-5.45 0-4.898-3.548-3.955-7.594.016.976.562 1.56 2.146 1.56 3.92 0 12.2-4.812 20.276-9.506 10.566-6.14 20.784-12.08 20.442-6.78zm-42.247 12.028l.245-.716c1.5-4.346 3.607-10.456-5.653-13.725-10.095-3.563-34.053-1.325-35.243 43.52-.018.678-.96.858-1.168.213-.383-1.19-.796-2.544-1.215-4.037.992 3.988 2.09 7.436 2.99 10.08.22.642 1.185.453 1.203-.225 1.18-44.815 24.95-46.46 35.243-43.52 4.435 1.268 4.345 4.772 3.6 8.41z" class="D"/><path d="M699.707 222.48c-.572 5.46-5.188 9.713-10.798 9.713-5.997 0-10.858-4.86-10.858-10.858s4.86-10.858 10.858-10.858c5.34 0 9.78 3.855 10.688 8.934 1.016-.506 2.905-1.092 6.202-1.092s5.187.586 6.203 1.092c.908-5.08 5.348-8.934 10.688-8.934 5.997 0 10.858 4.86 10.858 10.858s-4.86 10.858-10.858 10.858c-5.6 0-10.226-4.254-10.8-9.713-1.122-.516-3.103-1.145-6.092-1.145s-4.97.63-6.092 1.145z"/></g><g class="E"><path d="M730.228 217.512c-.276-.542-.6-1.05-1-1.518l-14.44 8.338a8.49 8.49 0 0 0 .822 1.615l14.6-8.435zm.677 1.836a8.495 8.495 0 0 1 .235 1.986c0 4.664-3.78 8.445-8.445 8.445-2.258 0-4.3-.886-5.824-2.33l14.034-8.102zm-34.445-1.808a8.467 8.467 0 0 0-.984-1.52l-14.45 8.342c.22.57.497 1.1.828 1.6l14.606-8.432zm.67 1.84a8.465 8.465 0 0 1 .228 1.956c0 4.664-3.78 8.445-8.446 8.445-2.246 0-4.288-.877-5.8-2.308l14.02-8.093z"/></g><path d="M705.8 269.595c15.383 0 24.13-10.255 24.13-19.907 0-10.255-10.858-3.62-24.13-3.62s-24.13-6.636-24.13 3.62c0 9.652 8.747 19.907 24.13 19.907z" class="B F"/><path d="M725.942 246.424c-1.502-.644-4.033-.143-7.412.525-3.432.68-7.74 1.532-12.73 1.532s-9.296-.852-12.728-1.532c-3.38-.67-5.912-1.17-7.413-.525l.627 4.705c.134 1.004.684 1.902 1.592 2.352 2.465 1.22 8.285 3.446 17.922 3.446s15.457-2.227 17.922-3.446c.908-.45 1.457-1.348 1.59-2.352l.628-4.705zm-.593 11.276c-3.314 5.63-10.245 9.482-19.548 9.482s-16.235-3.854-19.548-9.484l.113-1.752c.06-.916 1.105-1.484 1.94-1.108 2.764 1.243 8.663 3.295 17.494 3.295s14.73-2.052 17.493-3.295c.837-.376 1.883.192 1.942 1.108l.113 1.754z" class="E"/><path d="M721.71 364.697c0-72.02 23.7-138.61 100.92-138.61s100.918 69.3 100.918 138.61c0 35.41-201.837 35.41-201.837 0z" fill="#ffd54d"/><path d="M721.746 365.528c3.134 34.575 201.8 34.298 201.8-.832 0-28.1-3.897-56.2-13.677-79.68 5.03 21.068 5.774 45.094 5.774 69.345 0 31.183-156.53 34.905-193.897 11.167z" class="B D"/></g><path d="M742.36 284.91c-.432-18.952 16.315-32.684 35.272-32.684h89.998c18.957 0 35.704 13.732 35.272 32.684-1.693 74.31-53.6 122.95-80.27 122.95s-78.578-48.64-80.27-122.95z" fill="#b14dff"/><g class="C"><path d="M779.38 381.77c15.032 16.75 31.567 26.092 43.252 26.092 26.66 0 78.578-48.64 80.27-122.95.21-9.298-3.71-17.34-10.002-23.12.512 1.84.8 3.78.864 5.798 2.133 78.91-52.622 131.152-80.253 131.152-9.355 0-21.82-5.99-34.132-16.973z" class="B D"/><path d="M735.085 304.51c23.71-3.952 42.556-13.983 54.715-27.358-1.52 4.864-3.344 11.855-3.344 19.15 21.278-1.823 43.468-6.383 67.178-25.837 10.335 13.678 21.802 26.76 53.5 26.75-4.56-94.535-169.617-93.927-172.048 7.296z" fill="#ffd54d"/><g class="B"><path d="M749.387 301.234c17.042-5.044 30.812-13.52 40.413-24.08-1.52 4.863-3.344 11.855-3.344 19.15 21.278-1.824 43.468-6.384 67.178-25.838 9.62 12.732 20.22 24.945 47.2 26.568-30.55-6.26-38.18-23.278-41.99-31.782l-.954-2.08c-23.7 19.454-45.9 24.014-67.178 25.838 0-7.296 3.04-19.76 4.56-24.622-6.443 10.5-22.817 25.872-45.884 36.848z" class="D"/><path d="M840.26 357.402H805c0 9.963 7.553 17.023 17.63 17.023s17.63-7.06 17.63-17.023z" class="F"/></g><path d="M836.7 364.698h-28.142c-.86-1.636-1.425-3.476-1.64-5.47h31.42c-.214 1.995-.78 3.835-1.64 5.47z" class="E"/><path d="M813.977 370.355c2.44 1.44 5.39 2.245 8.655 2.245s6.214-.806 8.656-2.246c-1.845-1.576-5.033-2.618-8.655-2.618s-6.81 1.042-8.656 2.62z" fill="#ff4949"/></g><path d="M817.875 332.253c-2.327 5.825-5.55 13.896-18.955 13.896-13.544 0-15.123-10.217-16.182-17.062-.533-3.448-.933-6.04-2.664-6.04-.304-1.52-.304-4.256-.304-5.47 24.367-2.31 31.314.314 36.2 2.156 2.18.824 3.946 1.49 6.67 1.49s4.49-.667 6.67-1.49c4.876-1.842 11.823-4.467 36.19-2.156 0 1.215 0 3.95-.304 5.47-1.73 0-2.132 2.592-2.665 6.04-1.058 6.845-2.638 17.062-16.182 17.062-13.405 0-16.628-8.07-18.955-13.896-1.313-3.29-2.34-5.862-4.754-5.862s-3.442 2.573-4.755 5.862z" class="B"/><g class="E"><path d="M833.9 339.987c9.065.778 19.965-2.882 26.56-9.483-.63 3.825-1.6 7.957-4.545 10.7-1.918 1.792-4.843 3.118-9.566 3.118-4.5 0-9.197-1.047-12.448-4.336zm-17.158-9.772c-1.746 4.203-3.315 8.64-7.235 11.345-2.326 1.605-5.633 2.764-10.577 2.764-4.388 0-8.793-1.35-11.26-5.158 9.554 1.444 21.698-2.118 29.072-8.95z"/></g><path d="M973.722 275.866c-.478-19.52 16.472-34.05 35.998-34.05h87.4c19.52 0 36.47 14.53 36 34.05-1.8 73.54-42.6 121.584-79.7 121.584-37.1 0-77.887-48.045-79.688-121.584z" fill="#c4d9d9"/><path d="M1006.92 372.62c13.92 15.957 30.55 24.83 46.5 24.83 37.1 0 77.9-48.045 79.7-121.584.23-9.494-3.66-17.806-9.96-23.842.54 1.966.84 4.036.87 6.186 1.3 78.336-41.2 130.12-79.72 130.12-12.6 0-25.6-5.53-37.37-15.71z" class="B C D"/><path d="M1117.85 267.35c9.12 4.255 10.95 31.613 13.38 31.613s9.73-34.045 7.9-42.556c-1.82-8.51-9.12-9.423-15.5-15.807s-3.95-12.16-10.94-16.1-17.33-.304-24.62-2.736c-7.3-2.432-5.78-9.423-15.2-10.335-9.43-.912-16.42 1.52-24.32 2.736s-17.33-4.56-24.62-2.128c-7.3 2.432-7.3 9.12-13.07 11.855-5.78 2.735-12.77 1.216-19.457 4.863s-4.56 10.03-9.12 15.503-11.752 8.51-14.6 17.022 5.47 37.693 7.903 37.693 7.6-29.79 13.375-31.613 12.16 7.295 18.54 5.47c6.4-1.824 6.08-9.727 13.07-10.64s15.2 12.463 22.8 10.64 17.94-11.247 24.62-11.247c6.7 0 15.2 11.247 22.8 11.855 8.96.717 17.94-10.335 27.05-6.08z" class="L"/><path d="M1131.7 279.52c-1-5.26-3.36-17.466-15.68-20.072-9.4-2-14.9.795-19.67 3.225-3.26 1.654-6.2 3.144-9.82 2.854-3.8-.305-7.85-3.287-11.78-6.184-3.9-2.877-7.68-5.67-11-5.67-3.67 0-8.44 2.835-13.25 5.695-3.96 2.356-7.95 4.73-11.38 5.552-3.98.957-8.14-2.27-12.2-5.422-3.67-2.856-7.27-5.65-10.6-5.217-3.7.48-5.35 2.902-7.02 5.352-1.5 2.2-3.03 4.424-6.05 5.287-3.25.927-6.494-.973-9.66-2.826-3.06-1.793-6.048-3.542-8.888-2.645-3.435 1.084-6.655 12.062-9.212 20.78-1.514 5.16-2.795 9.526-3.75 10.586 1.515 4.78 3.02 8.15 3.846 8.15.986 0 2.42-4.89 4.162-10.83 2.558-8.72 5.778-19.697 9.213-20.782 2.84-.897 5.827.852 8.888 2.645 3.16 1.853 6.41 3.753 9.65 2.826 3.02-.862 4.55-3.086 6.05-5.287 1.68-2.45 3.34-4.87 7.02-5.352 3.33-.433 6.92 2.362 10.6 5.217 4.06 3.153 8.2 6.38 12.2 5.422 3.43-.823 7.42-3.196 11.38-5.55 4.8-2.86 9.58-5.696 13.24-5.696 3.34 0 7.12 2.794 11.02 5.672 3.93 2.896 7.97 5.878 11.78 6.183 3.88.31 7.77-1.588 11.67-3.495 5.1-2.492 10.22-4.995 15.38-2.584 5.9 2.752 8.75 15.162 10.68 23.6 1.06 4.607 1.84 8.023 2.7 8.023 2.43 0 9.73-34.045 7.9-42.556-.5-2.415-1.47-4.22-2.73-5.71.9 9.944-2.83 31.243-3.96 31.243-.27 0-.44-.933-.73-2.422z" class="B C D"/><path d="M1053.4 363.405c-9.12 0-22.5-12.16-22.5-12.16s13.37 2.128 22.5 2.128 22.5-2.128 22.5-2.128-13.38 12.16-22.5 12.16z" class="L"/><g class="B C D"><path d="M1031 351.26c4.23 2.617 14.6 8.498 22.4 8.498s18.17-5.88 22.4-8.497c.06-.01.1-.015.1-.015s-13.38 12.16-22.5 12.16-22.5-12.16-22.5-12.16l.1.014z"/><path d="M1031.1 351.408c5.1 1.438 13.83 3.486 22.3 3.486 8.5 0 17.23-2.05 22.32-3.487.1-.105.18-.16.18-.16s-13.38 2.128-22.5 2.128-22.5-2.128-22.5-2.128.06.057.18.162z"/></g><path d="M1053.4 349.424c-4.86-4.863-8.5.608-22.5 1.824 0 0 13.37 2.128 22.5 2.128s22.5-2.128 22.5-2.128c-14-1.216-17.63-6.687-22.5-1.824z" class="L"/><path d="M1050.37 315.736c-.17-7.08-7.7-8.566-17.02-8.566-9.42 0-21.74.207-19.88 8.51 3.36 14.895 7 18.542 19.88 18.542 11.68 0 15.75-7.73 16.75-14.527 1.92-.964 4.7-.964 6.62.001 1 6.797 5.08 14.526 16.75 14.526 12.88 0 16.53-3.647 19.88-18.542 1.86-8.304-10.45-8.51-19.88-8.51-9.3 0-16.85 1.485-17.02 8.566-1.96-.498-4.12-.498-6.08 0z" class="B"/><g class="C"><g class="E"><path d="M1065.74 330.068c-.8-.44-1.5-.948-2.14-1.505l27.4-15.305c.12.904-.02 1.914-.23 2.828l-25.02 13.982zm24.26-10.985c-1.36 4.985-2.8 7.9-4.7 9.687-2.22 2.1-5.52 3.023-11.84 3.023-1.94 0-3.6-.234-5.06-.645l21.6-12.065zm-42.17-.897l-22.67 12.67c2 .64 4.6.936 8.2.936 6.2 0 9.68-2.385 11.72-5.334 1.68-2.442 2.5-5.454 2.76-8.272zm-25.17 11.495l25.27-14.12c-.06-.994-.3-1.74-.68-2.326l-26.45 14.786c.56.66 1.15 1.196 1.86 1.66z"/></g><path d="M246.02 330.652c8.138-66.742 25.533-95.447 94.84-95.447s86.702 28.705 94.84 95.447c4.984 40.88 6.383 63.227-94.84 63.227s-99.824-22.346-94.84-63.227z" class="I"/><path d="M244.69 359.454c2.966 22.45 22.075 34.424 96.168 34.424 101.223 0 99.824-22.346 94.84-63.226-2.584-21.192-6.1-38.55-11.918-52.37 3.74 11.593 6.36 25.16 8.27 40.82 4.985 40.88 6.383 63.226-94.84 63.226-60.152 0-84.064-7.89-92.52-22.873z" class="B D"/></g><path d="M261.17 286.276c-.478-19.52 16.472-34.05 36-34.05h87.385c19.526 0 36.476 14.528 35.998 34.05-1.8 73.54-42.594 121.584-79.69 121.584s-77.9-48.045-79.69-121.584z" fill="#d5ff80"/><path d="M294.37 383.03c13.92 15.957 30.545 24.83 46.487 24.83 37.097 0 77.9-48.045 79.69-121.584.232-9.494-3.657-17.806-9.96-23.84.537 1.965.84 4.035.874 6.186 1.287 78.335-41.2 130.12-79.724 130.12-12.586 0-25.598-5.53-37.368-15.71z" class="B C D"/><path d="M337.348 299.038c-1.216-10.943-5.47-19.758-9.727-26.75 5.472 6.992 34.045 30.094 63.226 31.614 1.69-6.688 2.297-13.375 0-22.494 3.513 9.423 17.97 30.093 31.48 34.045 5.167-24.318 9.996-76.6-81.33-76.6s-86.16 51.067-81.6 76.6c14.59-4.256 19.454-25.23 15.333-35.26 12.463 14.894 38.934 18.846 62.618 18.846z" class="I"/><path d="M323.822 268.515c3.54 6.062 8.84 15.143 9.874 24.444-23.684 0-49.547-3.952-62-18.846 3.138 9.77.81 31.17-12.057 41.27 14.408-4.41 19.198-25.214 15.098-35.19 12.463 14.895 38.934 18.847 62.618 18.847-1.215-10.943-5.47-19.76-9.727-26.75 5.472 6.99 34.045 30.093 63.226 31.613 1.7-6.687 2.298-13.375 0-22.494 3.503 9.394 17.88 29.965 31.353 34.008-14.615-11.964-30.942-34.752-34.83-45.863 2.128 8.815 3.648 23.7 2.128 28.574-29.18-1.52-61.877-25.534-67.35-32.525l1.677 2.913z" class="B C D"/><path d="M340.86 373.21c-9.12 0-17.63-10.943-17.63-10.943s8.51 2.127 17.63 2.127 17.63-2.127 17.63-2.127-8.51 10.943-17.63 10.943z" class="I"/><g class="B C D"><path d="M323.277 362.32c3.887 2.882 10.872 7.238 17.586 7.238s13.7-4.357 17.586-7.24c-.67.843-8.85 10.887-17.586 10.887s-16.913-10.04-17.586-10.886z"/><path d="M323.5 362.6c4.183 1.3 10.332 2.706 17.36 2.706s13.18-1.407 17.362-2.707l.27-.332s-8.51 2.127-17.63 2.127-17.63-2.127-17.63-2.127.093.12.27.333z"/></g><path d="M340.86 359.833c-3.648-4.256-10.335.608-17.63 2.432 0 0 8.51 2.127 17.63 2.127s17.632-2.127 17.632-2.127c-7.296-1.824-13.983-6.688-17.63-2.432z" class="I"/><g class="B"><path d="M322.014 339.77c4.03 0 7.295-3.266 7.295-7.295s-3.266-7.295-7.295-7.295-7.295 3.266-7.295 7.295 3.266 7.295 7.295 7.295zm37.69 0c4.03 0 7.296-3.266 7.296-7.295s-3.266-7.295-7.296-7.295-7.295 3.266-7.295 7.295 3.266 7.295 7.295 7.295z" class="F"/><path d="M323.232 317.885h-9.727c-8.058 0-14.59 6.532-14.59 14.6s6.533 14.59 14.59 14.59h9.727c7.647 0 13.92-5.883 14.54-13.37 1.93-.83 4.252-.83 6.18 0 .62 7.487 6.894 13.37 14.54 13.37h9.727c8.058 0 14.6-6.532 14.6-14.59s-6.532-14.6-14.6-14.6h-9.727c-7.216 0-13.21 5.238-14.383 12.12-1.993-.8-4.503-.8-6.496 0-1.174-6.88-7.166-12.12-14.382-12.12zm0 3.647c6.043 0 10.943 4.9 10.943 10.943s-4.9 10.943-10.943 10.943h-9.727c-6.044 0-10.943-4.9-10.943-10.943s4.9-10.943 10.943-10.943h9.727zm44.988 0c6.043 0 10.943 4.9 10.943 10.943s-4.9 10.943-10.943 10.943h-9.727c-6.044 0-10.943-4.9-10.943-10.943s4.9-10.943 10.943-10.943h9.727z" class="C"/></g><rect x="505.078" y="252.551" width="154.427" height="154.427" rx="28.9551" fill="#00ffbf"/><path d="M511.645 396.383c5.3 6.47 13.368 10.595 22.4 10.595h96.517c15.99 0 28.955-12.964 28.955-28.955v-96.517c0-9.022-4.126-17.08-10.594-22.39 1 2.648 1.546 5.518 1.546 8.516V373.8c0 13.326-10.804 24.13-24.13 24.13H520.16c-2.998 0-5.868-.546-8.516-1.546z" class="B C D"/><path d="M610.038 292.365c34.384 0 63.942-10.255 63.942-37.098 0-49.465-54.894-20.437-111.296-24.13-39.053-2.557-61.942 11.588-62.434 41.623-.302 18.4 5.43 38.607 5.43 38.607s-3.016-21.716 12.064-28.653 57.91 9.65 92.295 9.65z" fill="#00bfff"/><g class="B"><path d="M657.695 249.234c0 26.844-16.287 34.083-50.67 34.083-14.967 0-31.535-2.686-46.717-5.148-19.696-3.193-37.06-6.008-45.578-2.09-9.164 4.216-11.646 14.112-12.182 21.228 1.483 8.24 3.134 14.06 3.134 14.06s-3.016-21.716 12.065-28.653c8.26-3.8 24.84-.543 43.8 3.18 15.66 3.076 32.94 6.47 48.495 6.47 34.384 0 63.942-10.255 63.942-37.098 0-19.467-8.5-26.777-22.25-28.708 3.876 4.453 5.964 11.595 5.964 22.675z" class="C D"/><path d="M561.18 340.02c5.33 0 9.652-4.32 9.652-9.65s-4.32-9.652-9.652-9.652-9.652 4.32-9.652 9.652 4.322 9.65 9.652 9.65zm42.222 0c5.33 0 9.65-4.32 9.65-9.65s-4.32-9.652-9.65-9.652-9.652 4.32-9.652 9.652 4.32 9.65 9.652 9.65z" class="G"/><path d="M582.29 371.992c8.663 0 15.685-5.942 15.685-13.27h-31.37c0 7.33 7.022 13.27 15.684 13.27z" class="C G"/></g></g><defs><clipPath id="A"><path d="M0 0h1120v426H0z" class="E"/></clipPath></defs></svg>