<svg xmlns="http://www.w3.org/2000/svg" xmlns:xlink="http://www.w3.org/1999/xlink" width="414" height="368" fill="none" xmlns:v="https://vecta.io/nano"><style><![CDATA[.B{fill:#000}.C{fill-rule:evenodd}.D{fill-opacity:.15}.E{fill:#fff}.F{fill-opacity:.3}.G{fill-opacity:.25}.H{fill-opacity:.2}.I{fill:#884dff}.J{fill:#ff5858}.K{fill:#4cffa6}.L{fill:#ff4d4d}.M{fill:#ff53ee}]]></style><g clip-path="url(#A)"><rect x="230" y="23" width="80" height="80" rx="15" fill="#00ffbf"/><path d="M233.398 97.5113c2.75 3.3507 6.926 5.4887 11.6 5.4887h50c8.284 0 15-6.7162 15-15.0005v-50c0-4.6737-2.138-8.848-5.49-11.599.518 1.3718.8 2.8587.8 4.4116v55c0 6.9036-5.596 12.5-12.5 12.5h-55c-1.553 0-3.04-.2832-4.412-.8007z" class="B C D"/><path d="M284.373 43.6254c17.813 0 33.125-5.3125 33.125-19.2188 0-25.625-28.437-10.5868-57.656-12.5-20.23-1.3246-32.09 6.0028-32.344 21.5626-.156 9.5312 2.813 20 2.813 20s-1.563-11.25 6.25-14.8437 30 5 47.812 5z" fill="#00bfff"/><g class="B"><path d="M309.065 21.2802c0 13.9062-8.438 17.6563-26.25 17.6563-7.754 0-16.336-1.3915-24.2-2.6667-10.204-1.6542-19.2-3.1127-23.612-1.0833-4.747 2.184-6.033 7.3106-6.31 10.997.77 4.2682 1.624 7.2842 1.624 7.2842s-1.563-11.25 6.25-14.8437c4.28-1.9682 12.868-.28 22.7 1.6482 8.112 1.5933 17.065 3.3518 25.122 3.3518 17.813 0 33.125-5.3126 33.125-19.2188 0-10.0846-4.404-13.8714-11.527-14.872 2.008 2.307 3.1 6.0067 3.1 11.747z" class="C D"/><path d="M259.063 68.3125c2.76 0 5-2.2386 5-5s-2.24-5-5-5-5 2.2386-5 5 2.24 5 5 5zm21.875 0c2.76 0 5-2.2386 5-5s-2.24-5-5-5-5 2.2386-5 5 2.238 5 5 5z" class="G"/><g class="C G"><path d="M270 84.875c4.487 0 8.125-3.078 8.125-6.875h-16.25c0 3.797 3.638 6.875 8.125 6.875z"/></g></g><path d="M102.252 59.3125C106.435 25.005 115.376 10.25 151 10.25s44.568 14.755 48.75 49.0625c2.562 21.0138 3.28 32.5-48.75 32.5s-51.3128-11.4862-48.75-32.5z" class="C I"/><path d="M101.566 74.1174c1.525 11.5406 11.347 17.695 49.433 17.695 52.03 0 51.313-11.4862 48.75-32.5-1.328-10.8933-3.136-19.8154-6.125-26.9198 1.922 5.959 3.27 12.9324 4.25 20.9823 2.563 21.0138 3.28 32.5-48.75 32.5-30.92 0-43.21-4.056-47.558-11.7575z" class="B C D"/><path d="M110.036 36.5023C109.8 26.468 118.503 19 128.54 19h44.918c10.037 0 18.75 7.468 18.504 17.5023C191.037 74.3033 170.068 99 151 99s-40.038-24.6967-40.963-62.4977z" fill="#d5ff80"/><path d="M127.105 86.2375c7.155 8.2022 15.7 12.7633 23.896 12.7633 19.07 0 40.038-24.6967 40.963-62.4977.12-4.88-1.88-9.1528-5.12-12.255.275 1.0104.43 2.0742.45 3.1798.662 40.2664-21.183 66.8855-40.98 66.8855-6.47 0-13.158-2.8428-19.21-8.0758z" class="B C D"/><path d="M149.195 43.0625c-.625-5.625-2.812-10.1563-5-13.75 2.813 3.5937 17.5 15.4688 32.5 16.25.87-3.4375 1.18-6.875 0-11.5625 1.806 4.8438 9.237 15.4688 16.18 17.5 2.656-12.5 5.14-39.375-41.806-39.375s-44.288 26.25-41.944 39.375c7.5-2.1875 10-12.9687 7.882-18.125 6.406 7.6563 20.013 9.6875 32.187 9.6875z" class="I"/><path d="M142.243 27.3726c1.82 3.116 4.544 7.784 5.076 12.565-12.175 0-25.47-2.0312-31.875-9.6875 1.613 5.022.416 16.022-6.198 21.214 7.406-2.2674 9.868-12.9604 7.76-18.089 6.406 7.6563 20.013 9.6875 32.188 9.6875-.625-5.625-2.813-10.1562-5-13.75 2.812 3.5938 17.5 15.4688 32.5 16.25.87-3.4375 1.18-6.875 0-11.5625 1.8 4.8286 9.19 15.4025 16.116 17.4807-7.512-6.1497-15.905-17.863-17.904-23.5744C176 32.4375 176.78 40.0938 176 42.5938c-15-.7813-31.806-13.125-34.62-16.7188l.862 1.4976z" class="B C D"/><path d="M151 81.1875c-4.688 0-9.062-5.625-9.062-5.625s4.374 1.0937 9.062 1.0937 9.062-1.0937 9.062-1.0937-4.375 5.625-9.062 5.625z" class="I"/><g class="B C D"><path d="M141.96 75.592c1.998 1.4814 5.588 3.721 9.04 3.721s7.042-2.2397 9.04-3.721c-.345.4333-4.55 5.596-9.04 5.596s-8.693-5.1613-9.04-5.596z"/><path d="M142.076 75.734c2.15.6683 5.31 1.39 8.924 1.39s6.773-.7227 8.924-1.39l.138-.1715s-4.375 1.0937-9.062 1.0937-9.062-1.0937-9.062-1.0937l.138.1715z"/></g><path d="M151 74.3123c-1.875-2.1874-5.312.3126-9.062 1.25 0 0 4.374 1.0938 9.062 1.0938s9.063-1.0938 9.063-1.0938c-3.75-.9374-7.188-3.4374-9.063-1.25z" class="I"/><g class="B"><path d="M141.312 64c2.072 0 3.75-1.68 3.75-3.75s-1.678-3.75-3.75-3.75-3.75 1.68-3.75 3.75 1.68 3.75 3.75 3.75zm19.376 0c2.07 0 3.75-1.68 3.75-3.75s-1.68-3.75-3.75-3.75-3.75 1.68-3.75 3.75 1.678 3.75 3.75 3.75z" class="F"/><g class="C"><path d="M141.938 52.75h-5c-4.143 0-7.5 3.358-7.5 7.5s3.357 7.5 7.5 7.5h5c3.93 0 7.155-3.024 7.474-6.8725.99-.426 2.185-.426 3.176 0 .32 3.8485 3.544 6.8725 7.474 6.8725h5c4.143 0 7.5-3.358 7.5-7.5s-3.357-7.5-7.5-7.5h-5c-3.71 0-6.79 2.6925-7.392 6.2296-1.025-.4107-2.315-.4107-3.34 0-.603-3.537-3.683-6.2296-7.392-6.2296zm0 1.875c3.106 0 5.624 2.5184 5.624 5.625s-2.518 5.625-5.624 5.625h-5c-3.107 0-5.626-2.5184-5.626-5.625s2.52-5.625 5.626-5.625h5zm23.124 0c3.107 0 5.626 2.5184 5.626 5.625s-2.52 5.625-5.626 5.625h-5c-3.106 0-5.624-2.5184-5.624-5.625s2.518-5.625 5.624-5.625h5z"/></g></g><path d="M326.125 82.8125c0-37.0197 12.187-71.25 51.875-71.25s51.875 35.6217 51.875 71.25c0 18.2015-103.75 18.2015-103.75 0z" fill="#ffd54d" class="C"/><path d="M326.145 83.2408c1.6 17.7732 103.73 17.6302 103.73-.4272 0-14.445-2.003-28.889-7.03-40.958 2.585 10.8296 2.968 23.1798 2.968 35.6456 0 16.0286-80.46 17.942-99.668 5.7397z" class="B C D"/><path d="M336.74 41.801C336.52 32.059 345.127 25 354.872 25h46.26c9.744 0 18.353 7.059 18.13 16.801-.87 38.1966-27.557 63.199-41.262 63.199s-40.39-25.0025-41.26-63.199z" fill="#b14dff"/><g class="C"><path d="M355.77 91.5873C363.497 100.197 371.996 105 378.002 105c13.705 0 40.39-25.002 41.262-63.1988.108-4.7794-1.908-8.913-5.14-11.8842.263.9464.416 1.943.444 2.9805 1.096 40.5625-27.05 67.4155-41.252 67.4155-4.81 0-11.216-3.0784-17.545-8.7247z" class="B D"/><path d="M333 51.8747c12.188-2.0313 21.875-7.1875 28.125-14.0625-.78 2.5-1.72 6.0938-1.72 9.8438 10.938-.9375 22.344-3.2813 34.53-13.2813 5.313 7.0313 11.207 13.755 27.5 13.75C419.094-.47 334.25-.1565 333 51.8747z" fill="#ffd54d"/><g class="B"><path d="M340.352 50.191c8.76-2.593 15.838-6.95 20.773-12.3786-.78 2.5-1.72 6.0937-1.72 9.8437 10.938-.9375 22.344-3.2812 34.53-13.2812 4.945 6.5444 10.394 12.8224 24.262 13.6564-15.702-3.217-19.624-11.9652-21.584-16.3367l-.5-1.0697c-12.188 10-23.594 12.3437-34.53 13.2812 0-3.75 1.562-10.1562 2.343-12.6562-3.312 5.3975-11.728 13.3-23.585 18.941z" class="D"/><path d="M387.062 79.0625h-18.124c0 5.1208 3.882 8.75 9.062 8.75s9.062-3.6292 9.062-8.75z" class="F"/></g><path d="M385.234 82.8125H370.77c-.443-.841-.733-1.7868-.843-2.8125h16.15c-.1 1.0257-.4 1.9716-.843 2.8125z" class="E"/><path d="M373.55 85.7212c1.255.74 2.77 1.1538 4.45 1.1538s3.194-.414 4.45-1.1543c-.948-.8103-2.587-1.3457-4.45-1.3457s-3.5.5356-4.45 1.3462z" fill="#ff4949"/></g><path d="M375.556 66.1353c-1.196 2.9942-2.853 7.1427-9.743 7.1427-6.962 0-7.774-5.2517-8.318-8.7702-.274-1.7723-.48-3.1048-1.37-3.1048-.156-.7812-.156-2.1875-.156-2.8125 12.525-1.1877 16.096.1616 18.603 1.1087 1.12.4233 2.028.7663 3.428.7663s2.308-.343 3.428-.7663c2.507-.947 6.078-2.2964 18.603-1.1087 0 .625 0 2.0313-.156 2.8125-.9 0-1.096 1.3325-1.37 3.1048-.544 3.5185-1.356 8.7702-8.318 8.7702-6.9 0-8.547-4.1485-9.743-7.1427-.675-1.6908-1.203-3.0135-2.444-3.0135s-1.77 1.3227-2.444 3.0135z" class="B"/><g class="E"><path d="M383.8 70.1108c4.66.4002 10.263-1.48 13.652-4.8745-.324 1.966-.827 4.0903-2.336 5.5006-.986.92-2.5 1.603-4.917 1.603-2.314 0-4.728-.5385-6.4-2.23zm-8.823-5.0228c-.897 2.1606-1.704 4.4407-3.72 5.8318-1.195.825-2.895 1.42-5.437 1.42-2.255 0-4.52-.6943-5.788-2.6518 4.9.7424 11.154-1.0884 14.944-4.6z"/></g><path d="M-7 49c0-8.2843 6.7157-15 15-15h50c8.2843 0 15 6.7157 15 15v25c0 22.0914-17.9086 40-40 40h0C10.9086 114-7 96.0914-7 74V49z" fill="#ff794d"/><path d="M2.4688 99.844C9.806 108.503 20.761 114 33 114c22.0914 0 40-17.9085 40-40V49c0-5.3422-2.7928-10.0322-6.998-12.6896 1.4634 2.316 2.3104 5.06 2.3104 8.002v25c0 22.0914-17.9086 40.0004-40 40.0004-9.8525 0-18.873-3.562-25.8438-9.47z" class="B C D"/><path d="M33.0013 53.5312c-12.3437 0-31.156-3.5937-34.5312-6.7187C-.1236 52.9062-2.155 59.4688-6.9987 64c-5.7813-28.125 3.75-38.125 32.6564-43.4375-2.8125 2.8125-4.0625 5.7813-5.0002 8.9063C28.0013 22.4375 34.095 18.375 45.97 18.375c-3.2812 3.75-2.3437 11.7188.7813 14.2188 1.25-2.8126 1.25-5.7813.625-9.375C74.4076 28.0625 77.6888 41.6562 73.0013 64c-5-3.9062-7.8124-8.9062-5.4687-17.1875-3.375 3.125-22.1875 6.7187-34.5313 6.7187z" fill="#3955ff"/><g class="B"><path d="M46.8035 32.4704l.1037-.2486-.1037.2486zm-.8352-14.0954c-3.28 3.7484-2.3446 11.712.7774 14.2156-.305.6082-.8442 1.32-1.7145 2.1903-5.2515-2.073-4.8805-12.5798-2.5625-16.2773 1.11-.0853 2.274-.1286 3.4996-.1286zm-20.3125 2.1875l-3.3124.6476c-3.0284 3.25-4.2156 7.1236-4.4996 11.3832.932-1.0965 1.9026-2.1738 2.8238-3.1643.9363-3.1104 2.1876-6.066 4.9882-8.8665zm9.542 28.5945c-12.3437 0-35.5416-3.1252-38.9166-6.2502l.009.052c.9782 5.5888 1.9354 11.0577-3.8334 18.1953l.5434 2.846c4.8438-4.5312 6.875-11.0937 5.4688-17.1875 3.375 3.125 22.1875 6.7187 34.5312 6.7187s31.1562-3.5937 34.5313-6.7187c-2.3437 8.2813.4688 13.2813 5.4687 17.1875l.5963-3.0363c-6.7424-4.7686-4.3546-14.573-3.4158-18.4277l.1733-.723c-3.375 3.125-22.8125 7.3437-35.1563 7.3437z" class="C H"/><path d="M12.572 69.625h40.8568c1.3066 0 2.2126 1.303 1.7577 2.528l-2.2157 5.9653c-.5458 1.4694-1.948 2.4443-3.5154 2.4443h-9.785c-1.5675 0-2.9696-.975-3.5154-2.4443L33.93 72.125h-1.8572l-2.226 5.9932c-.5458 1.4694-1.948 2.4443-3.5154 2.4443h-9.785c-1.5675 0-2.9696-.975-3.5154-2.4443l-2.2157-5.9653c-.455-1.225.45-2.528 1.7577-2.528z"/></g><g class="E"><path d="M53.8716 72.1016L38.767 79.145c.2824.1094.5874.1685.9025.1685h9.785a2.5 2.5 0 0 0 2.3435-1.6295l2.0735-5.5823zm-25.198 5.5824l2.0477-5.513-15.0104 6.9994a2.497 2.497 0 0 0 .8341.1431h9.785a2.5 2.5 0 0 0 2.3435-1.6295z"/></g><g class="C"><path d="M17.1606 99.3113c-.6238 14.6537.9945 17.8127 15.839 17.8127s16.3667-4.98 15.9377-17.8127c-.584-17.5-4.795-12.8358-15.8884-12.8125-11.1574-.0235-15.3023-4.6875-15.8884 12.8125zm24.9017-7.8125c0 3.75 2.5004 9.6872-1.25 9.6872-3.542 0 .3132-6.2496-7.7633-6.2496s-4.221 6.2496-7.7633 6.2496c-3.7503 0-1.3477-5.9372-1.3477-9.6872 3.9648 1.5625 14.0625 1.5625 18.1243 0z" fill="#3955ff"/><path d="M17.0733 101.9c.2845 9.535 3.386 11.788 15.9264 11.788 12.4972 0 15.6352-3.533 15.9893-12.304.1666 11.3-1.9712 15.742-15.9893 15.742-13.9274 0-16.2124-2.78-15.9264-15.226zm26.28-8.6967c-.0633-1.3167-.124-2.5797-.041-3.5773-4.0618 1.5625-16.6595 1.5625-20.6243 0 .0802.9622.037 2.1712-.0084 3.437-.1 2.5134-.188 5.25.6564 6.7252-.3384-1.1813-.0612-2.9633.22-4.7645.1908-1.2268.383-2.4624.383-3.523 3.9648 1.5625 14.0625 1.5625 18.1243 0 0 1.0826.2084 2.3476.4147 3.5993.3095 1.8787.614 3.7277.202 4.886.9334-1.3912.7988-4.191.6743-6.783z" class="B H"/></g><path d="M169 103c0-8.2843 6.716-15 15-15h50c8.284 0 15 6.7157 15 15v35c0 16.57-13.43 30-30 30h-20c-16.57 0-30-13.43-30-30v-35z" fill="#5c6dff"/><path d="M175.574 156.74c5.498 6.864 13.95 11.26 23.428 11.26h20c16.57 0 30-13.43 30-30v-35c0-5.342-2.793-10.032-6.998-12.6895 1.464 2.316 2.31 5.06 2.31 8.002v37.5004c0 15.187-12.313 27.5-27.5 27.5h-22.5c-7.09 0-13.606-2.46-18.74-6.573z" class="B C G"/><path d="M210.25 105.812c-12.812 0 .47-6.25-1.25-8.125s-11.718 8.125-17.656 8.125 1.875-8.125-3.594-9.6874c-5.332-1.5235-17.645-.6703-18.257 22.5454-.01.35-.5.45-.623.117-3.55-10.425-12.977-44.907 40.13-43.9124 53.27.9975 43.76 33.6534 40.123 43.9784-.116.33-.607.193-.613-.156-.668-36.2852-14.58-12.885-38.26-12.885z" fill="#ff66cb"/><g class="C"><g class="B"><path d="M206.562 101.29c-.577.89-.128 1.4 2.75 1.4 8.167 0 15.363-2.7907 21.323-5.1023 11.415-4.4267 18.302-7.0974 18.814 14.9473.004.18.26.26.3.09.92-3.187 2.392-8.686 1.96-14.638 1.504 8.23-1.066 16.526-2.596 20.87-.116.33-.607.192-.613-.157-.446-24.2557-6.812-21.84-18.056-17.573-5.577 2.117-12.354 4.69-20.204 4.69-7.767 0-5.944-2.298-3.687-4.524zm4.938-7.039c-.1 1.7056-1.363 3.2562-2.606 4.5494.283-.446.365-.8288.105-1.112-.803-.8763-3.415.84-6.575 2.9194-3.603 2.368-7.918 5.206-11.08 5.206-2.824 0-2.537-1.838-2.05-3.934.01.505.292.81 1.112.81 2.03 0 6.32-2.493 10.504-4.9252 5.474-3.1812 10.767-6.258 10.6-3.5127zm-21.886 6.231l.127-.37c.777-2.25 1.87-5.4167-2.93-7.11-5.23-1.8456-17.64-.6863-18.257 22.546-.01.35-.498.444-.605.1a61.32 61.32 0 0 1-.63-2.091c.515 2.066 1.083 3.852 1.55 5.222.113.333.614.235.623-.116.612-23.2162 12.925-24.0694 18.257-22.546 2.298.6565 2.25 2.4717 1.865 4.356z" class="D"/><path d="M205.844 129.22c-.296 2.827-2.688 5.03-5.594 5.03-3.107 0-5.625-2.518-5.625-5.625S197.143 123 200.25 123c2.766 0 5.066 1.997 5.537 4.628.526-.262 1.505-.566 3.213-.566s2.687.304 3.213.566c.47-2.63 2.77-4.628 5.537-4.628 3.107 0 5.625 2.518 5.625 5.625s-2.518 5.625-5.625 5.625c-2.906 0-5.298-2.204-5.594-5.03-.582-.268-1.608-.594-3.156-.594s-2.574.326-3.156.594z"/></g><g class="E"><path d="M221.654 126.646a4.379 4.379 0 0 0-.513-.787l-7.48 4.32a4.385 4.385 0 0 0 .426.836l7.568-4.37zm.35.95c.08.33.12.674.12 1.028 0 2.416-1.958 4.375-4.375 4.375-1.17 0-2.23-.46-3.016-1.206l7.27-4.197zm-17.844-.936c-.142-.28-.313-.545-.5-.788l-7.485 4.322a4.28 4.28 0 0 0 .43.835l7.566-4.37zm.348.953a4.397 4.397 0 0 1 .118 1.014c0 2.416-1.958 4.375-4.375 4.375-1.164 0-2.222-.455-3.006-1.196l7.263-4.193z"/></g><path d="M209 153.625c7.97 0 12.5-5.312 12.5-10.312 0-5.313-5.625-1.875-12.5-1.875s-12.5-3.438-12.5 1.875c0 5 4.53 10.312 12.5 10.312z" class="B F"/><path d="M219.434 141.622c-.778-.334-2.1-.075-3.84.272-1.778.352-4.01.794-6.594.794s-4.816-.442-6.594-.794c-1.75-.346-3.06-.606-3.84-.273l.325 2.438c.07.52.355.986.825 1.218 1.277.632 4.292 1.786 9.284 1.786s8.008-1.154 9.285-1.786c.47-.232.755-.698.824-1.218l.325-2.437zm-.307 5.84c-1.716 2.917-5.308 4.914-10.128 4.914s-8.41-1.996-10.125-4.91l.058-.9c.03-.474.572-.768 1.006-.573 1.432.644 4.488 1.707 9.062 1.707s7.63-1.063 9.063-1.707c.433-.195.975.1 1.005.573l.06.907z" class="E"/><path d="M51.249 126.312c1.9958-34.307 15-49.062 48.75-49.062s46.7552 14.755 48.7502 49.062c1.23 21.134.156 32.5-48.75 32.5s-49.9796-11.366-48.75-32.5z" fill="#66f"/><path d="M51.4336 140.076C53.4254 152.337 63.1 158.812 100 158.812c48.906 0 49.98-11.366 48.75-32.5-.563-9.683-2.003-17.808-4.54-24.484 1.398 5.4 2.26 11.57 2.665 18.547 1.23 21.133.156 32.5-48.7498 32.5-30.4092 0-42.3253-4.395-46.6936-12.8z" class="B H"/></g><path d="M58.982 103.265C58.692 93.3307 67.3754 86 77.3144 86h45.3726c9.94 0 18.623 7.3307 18.333 17.265C139.912 141.2 116.38 166 100 166s-39.9118-24.8-41.02-62.735z" fill="#ffa94d"/><path d="M77.1367 153.04C84.501 161.366 92.918 166 99.998 166c16.379 0 39.911-24.8 41.019-62.734.14-4.8537-1.86-9.0856-5.1-12.145.27.993.423 2.04.44 3.127.643 40.367-24.052 67.065-41.0466 67.065-5.6144 0-12.0695-2.914-18.1737-8.273z" class="B C D"/><path d="M100.002 78.0312c-53.7502 0-45.4695 37.8128-40.0004 57.4998 0-40.3122 21.406-18.906 21.406-41.5623 2.7763 25.3363 58.5944-1.25 58.5944 48.1253 8.125-22.656 13.75-64.0628-40-64.0628z" fill="#66f"/><g class="B C"><path d="M59.9883 135.494l.0102.037v-.016l-.0102-.02zm1.223-13.896c2.083-13.277 7.3963-16.15 12.0063-18.645 4.2338-2.3 7.8744-4.2594 7.8744-13.6718C82.2094 99.48 91.7695 100.76 102.794 102.234c13.7 1.832 29.638 3.966 34.485 23.855-5.846-14.166-20.103-16.334-32.766-18.26-11.653-1.772-21.9554-3.338-23.1085-13.8612 0 9.7072-3.9297 11.3252-8.4218 13.1752-4.4763 1.844-9.51 3.917-11.7715 14.454z" class="H"/><path d="M93 140.625c.5523-.414 1.3358-.302 1.75.25 2.625 3.5 7.875 3.5 10.5 0 .414-.552 1.198-.664 1.75-.25s.664 1.198.25 1.75c-3.625 4.833-10.875 4.833-14.5 0-.4142-.552-.3023-1.336.25-1.75z" class="F"/></g><path d="M90.3125 130.062c2.2437 0 4.0625-1.818 4.0625-4.062s-1.8188-4.062-4.0625-4.062S86.25 123.756 86.25 126s1.8188 4.062 4.0625 4.062zm19.3755 0c2.243 0 4.062-1.818 4.062-4.062s-1.82-4.062-4.062-4.062-4.063 1.818-4.063 4.062 1.82 4.062 4.063 4.062z" class="B F"/><path d="M79.6875 122.562c0-2.07 1.679-3.75 3.75-3.75h10.625c2.071 0 3.75 1.68 3.75 3.75v2.52c.4802-.18 1.1823-.333 2.1875-.333s1.707.152 2.188.333v-2.52c0-2.07 1.678-3.75 3.75-3.75h10.624c2.072 0 3.75 1.68 3.75 3.75v6.876c0 2.07-1.678 3.75-3.75 3.75h-10.624c-2.072 0-3.75-1.68-3.75-3.75v-2.74c-.506-.203-1.226-.385-2.188-.385s-1.6824.182-2.1875.385v2.74c0 2.07-1.679 3.75-3.75 3.75h-10.625c-2.071 0-3.75-1.68-3.75-3.75v-6.876zm1.5625.313c0-1.38 1.1193-2.5 2.5-2.5h10c1.3807 0 2.5 1.12 2.5 2.5v6.25c0 1.38-1.1193 2.5-2.5 2.5h-10c-1.3807 0-2.5-1.12-2.5-2.5v-6.25zm25-2.5a2.5 2.5 0 0 0-2.5 2.5v6.25a2.5 2.5 0 0 0 2.5 2.5h10a2.5 2.5 0 0 0 2.5-2.5v-6.25a2.5 2.5 0 0 0-2.5-2.5h-10z" class="B C"/><path d="M332 167.406c-33.28 0-57.5-5.625-49.687-22.5-7.812-4.843-7.187-16.562 1.875-19.844C278.718 90.0625 311.2 81.9375 332 81.9375s47.813 8.9063 47.813 43.1245c6.875 2.657 8.594 15.47 1.875 19.844 7.812 16.875-16.406 22.5-49.688 22.5z" fill="#ff4b4b"/><path d="M282.668 156.41c8.34 5.466 25.274 7.56 45.582 7.56 33.282 0 57.5-5.157 49.376-22.032 6.406-1.718 5.156-12.187 0-14.53 1.21-6.874.998-13.69-.78-19.95 1.9 4.946 2.968 10.77 2.968 17.606 6.875 2.657 8.594 15.47 1.875 19.844 7.813 16.875-16.406 22.5-49.688 22.5-24.114 0-43.47-2.953-49.332-10.998z" class="B C D"/><path d="M291.09 113.742C290.893 103.608 299.635 96 309.77 96h44.457c10.136 0 18.878 7.608 18.682 17.742C372.183 151.408 353.746 176 332 176s-40.183-24.593-40.9-62.258z" fill="#fff066"/><path d="M307.035 163.4C314 171.498 322.697 176 332 176c21.747 0 40.184-24.592 40.91-62.258.094-4.906-1.905-9.22-5.143-12.364.28 1.027.44 2.108.46 3.23.696 40.165-18.323 66.705-40.914 66.705-7.317 0-14.26-2.784-20.278-7.913z" class="B C D"/><path d="M361.274 107.238c-12.612 10.893-59.15 17.2-73.338 17.2-10.78-54.3754 87.97-44.3754 86.25-13.282-.322 5.827-8.457 10.43-19.062 11.72 4.218-4.53 7.187-11.094 6.15-15.637z" fill="#ff4b4b"/><g class="C"><g class="B"><path d="M289.2 120.22c16.25 0 64.53-8.75 72.343-19.22 2.188 6.562 1.72 12.97-1.875 17.656 3.46-.46 10.5-2.71 14.323-6.184-1.373 5.196-9.06 9.212-18.853 10.403 4.218-4.53 7.187-11.094 6.15-15.637-12.612 10.893-59.15 17.2-73.338 17.2-1.434-7.23-.93-13.322 1.016-18.378-.787 4.128-.768 8.833.234 14.16z" class="D"/><path d="M341.062 150.062c0 4.918-3.4 12.188-9.062 12.188s-9.062-7.27-9.062-12.188h18.124z" class="F"/></g><path d="M334.424 160.404c-.755.385-1.566.595-2.42.595-2.213 0-4.128-1.407-5.562-3.617 1.046-.216 2.37-.166 3.742.202 2.064.553 3.672 1.673 4.24 2.82z" class="J"/><path d="M339 154.438h-13.996c-.374-1.053-.623-2.123-.74-3.126h15.474c-.117 1.003-.366 2.073-.74 3.126z" class="E"/><g class="B"><path d="M329.78 136.71c-.358 3.808-3.564 6.79-7.467 6.79-4.142 0-7.5-3.358-7.5-7.5s3.358-7.5 7.5-7.5c3.84 0 7.004 2.884 7.447 6.603.482-.2 1.198-.353 2.24-.353s1.76.163 2.24.353c.443-3.72 3.608-6.603 7.447-6.603 4.142 0 7.5 3.358 7.5 7.5s-3.358 7.5-7.5 7.5c-3.903 0-7.11-2.98-7.467-6.79-.507-.21-1.238-.4-2.22-.4s-1.714.2-2.22.4zm-1.53-.71c0 3.28-2.658 5.938-5.938 5.938s-5.937-2.66-5.937-5.938 2.658-5.938 5.937-5.938 5.938 2.66 5.938 5.938zm13.438 5.938c3.28 0 5.937-2.66 5.937-5.938s-2.658-5.938-5.937-5.938-5.938 2.66-5.938 5.938 2.658 5.938 5.938 5.938z"/></g></g><path d="M322.312 139.75c2.072 0 3.75-1.68 3.75-3.75s-1.678-3.75-3.75-3.75-3.75 1.68-3.75 3.75 1.68 3.75 3.75 3.75zm19.376 0c2.07 0 3.75-1.68 3.75-3.75s-1.68-3.75-3.75-3.75-3.75 1.68-3.75 3.75 1.678 3.75 3.75 3.75z" class="B F"/><path d="M-6 167c0-8.284 6.7157-15 15-15h50c8.2843 0 15 6.716 15 15v45c0 11.046-8.9543 20-20 20H14c-11.0457 0-20-8.954-20-20v-45z" fill="#4dd4ff"/><path d="M-2.289 223.604C1.3375 228.686 7.283 232 14.0024 232h40c11.0457 0 20-8.954 20-20v-45c0-5.342-2.7928-10.032-6.998-12.69 1.4634 2.315 2.3104 5.06 2.3104 8.002v47.5c0 9.665-7.835 17.5-17.5 17.5h-42.5c-4.3263 0-8.3317-1.374-11.604-3.71z" class="B C D"/><path d="M-1.0005 160.438c1.4063 6.094-.1562 17.03-5 21.563-10.3124-37.813 25.1563-33.125 40-33.125S84.156 143.094 73.9994 182c-5-3.907-7.3436-12.97-5-21.25-20.3125 12.968-54.6875 10.156-70-.313z" fill="#fbff38"/><path d="M-6.5273 179.922c5.1408-5.95 4.8166-16.138 4.125-21.672 20.7812 10 51.875 10 73.1247.312-2.1006 7.423-1.44 16.728 3.782 21.39-.153.67-.32 1.352-.5016 2.047-5-3.906-7.3436-12.97-5-21.25-20.3125 12.97-54.6875 10.156-70-.312 1.4063 6.093-.1563 17.03-5 21.562-.1926-.706-.3692-1.398-.5303-2.078z" class="B C D"/><path d="M75.2466 156.66c-3.122 24.56-95.625 29.56-81.4063-15.375C6.187 165.28 80.2285 117.47 75.2466 156.66z" fill="#fbff38"/><g class="C"><g class="B"><path d="M-6.1484 141.305c-7.4103 40.23 74.6267 34.098 77.6452 10.353.4505-3.544.2945-6.37-.371-8.598 3.37 2.35 5.0133 6.578 4.121 13.598-3.122 24.56-95.625 29.56-81.4063-15.375.0038.007.0075.015.0113.022z" class="D"/><path d="M34 215.437c6.5625 0 10.3125-4.688 10.3125-8.438S39.537 205.437 34 205.437 23.6875 203.25 23.6875 207s3.75 8.437 10.3125 8.437z" class="F"/></g><path d="M42.5757 205.974l-.077.923c-.0383.46-.2847.874-.6994 1.075-1.122.542-3.7214 1.527-7.7986 1.527-4.0487 0-6.6403-.97-7.775-1.516-.4297-.206-.6857-.636-.7253-1.11l-.0748-.898c.6103-.333 1.7674-.13 3.3227.144 1.4462.254 3.2367.57 5.2522.57s3.806-.315 5.252-.57c1.5555-.274 2.7127-.477 3.323-.144z" class="E"/><path d="M41.5604 211.176c-1.5347 1.84-4.1704 3.012-7.56 3.012-.647 0-1.2663-.043-1.8558-.125.255-1.853 3.0172-3.313 6.387-3.313 1.0955 0 2.127.154 3.0288.426z" class="J"/><path d="M14.625 192c0-3.28 2.6583-5.938 5.9375-5.938h5.625c2.8306 0 5.1986 1.98 5.7935 4.632.4903-.212 1.1762-.413 2.02-.413s1.5287.2 2.02.413c.595-2.65 2.963-4.632 5.7935-4.632h5.625c3.2792 0 5.9375 2.66 5.9375 5.938s-2.6583 5.938-5.9375 5.938h-5.625c-3.2727 0-5.927-2.648-5.9375-5.918-.326-.19-.98-.49-1.875-.49s-1.549.298-1.875.49c-.0106 3.27-2.6648 5.918-5.9375 5.918h-5.625c-3.2792 0-5.9375-2.66-5.9375-5.938z" class="B"/><g class="E"><use xlink:href="#B"/><path d="M29.8655 189.094a4.712 4.712 0 0 0-.8881-.862l-11.9188 6.882a4.699 4.699 0 0 0 .9569.821l11.85-6.84zm.6605 1.13c.2244.548.348 1.147.348 1.776 0 2.59-2.0987 4.687-4.6875 4.687h-5.625c-.355 0-.7005-.04-1.0328-.114l10.9972-6.35z"/></g></g><path d="M110 170c0-8.284 6.716-15 15-15h50c8.284 0 15 6.716 15 15v30c0 19.33-15.67 35-35 35h-10c-19.33 0-35-15.67-35-35v-30z" fill="#fe59af"/><path d="M118.02 222.295C124.44 230.055 134.143 235 145 235h10c19.33 0 35-15.67 35-35v-30c0-5.342-2.792-10.032-6.997-12.69 1.463 2.315 2.3 5.06 2.3 8.002v32.5c0 17.95-14.55 32.5-32.5 32.5h-12.5c-8.47 0-16.24-3-22.294-8.018z" class="B C H"/><path d="M118.126 163.438c1.562 10.468-2.97 16.875-8.125 21.562-7.813-34.53 14.687-39.688 40-39.688s48.125 6.407 40 39.688l-.085-.07c-3.882-3.26-8.04-6.753-8.04-21.18-22.5 9.53-41.25 9.22-63.75-.312z" class="K"/><g class="C"><g class="B"><path d="M109.418 182.172c4.966-4.7 8.36-11.944 6.834-22.172 22.5 9.53 45 9.844 67.5.312 0 14.135 3.105 18.66 6.87 21.916a69.492 69.492 0 0 1-.618 2.772l-.085-.07c-3.882-3.26-8.04-6.753-8.04-21.18-22.5 9.53-41.25 9.22-63.75-.312 1.562 10.468-2.97 16.875-8.125 21.562a75.309 75.309 0 0 1-.585-2.828z" class="D"/><path d="M131.875 192.5a2.5 2.5 0 0 1 2.5-2.5h10a2.5 2.5 0 0 1 2.5 2.5v2.086c.545-.25 1.508-.524 3.125-.524s2.58.273 3.125.524V192.5a2.5 2.5 0 0 1 2.5-2.5h10a2.5 2.5 0 0 1 2.5 2.5v6.25a2.5 2.5 0 0 1-2.5 2.5h-10a2.5 2.5 0 0 1-2.5-2.5v-2.546c-.587-.264-1.604-.58-3.125-.58s-2.538.315-3.125.58v2.546a2.5 2.5 0 0 1-2.5 2.5h-10a2.5 2.5 0 0 1-2.5-2.5v-6.25z"/></g><g class="E"><path d="M156.208 200h-.27a1.558 1.558 0 0 1-1.218-.584l12.107-7c.032.123.048.253.048.386v1.03L156.208 200zm10.666-4.8v3.227c0 .863-.7 1.563-1.562 1.563h-6.733l8.295-4.8zm-31.917 4.8h-.27c-.492 0-.932-.228-1.218-.584l12.107-7a1.543 1.543 0 0 1 .049.387v1.028L134.957 200zm10.668-4.8v3.228c0 .863-.7 1.562-1.563 1.562h-6.734l8.297-4.8z"/></g><path d="M154.375 208.125c4.328 0 6.313 3.775 10 4.687 3.084.763 8.437.625 8.437.625-3.75 5-20.936 6.094-22.81-1.043-1.875 7.137-18.44 6.043-22.813 1.043 0 0 5.353.138 8.437-.625 3.687-.912 5.672-4.687 10-4.687 3.043 0 3.803 1.26 4.375 2.5.572-1.24 1.332-2.5 4.375-2.5z" class="K"/><path d="M129.682 213.43l-2.494.01c4.374 5 20.938 6.094 22.813-1.044 1.875 7.138 19.06 6.044 22.81 1.044 0 0-.963.025-2.307-.005-5.964 3.263-18.8 3.217-20.486-2.848l-.02.04c-.006-.012-.012-.025-.017-.037-1.686 6.065-14.075 6.107-20.3 2.84z" class="B D"/></g><path d="M149.997 219.688c-5 0-8.124 1.718 0 19.843 8.125-18.125 5-19.843 0-19.843z" class="K"/><path d="M145.21 222.19c.496 2.953 1.962 7.277 4.792 13.592 2.83-6.315 4.296-10.64 4.792-13.592.708 2.527-.394 7.53-4.792 17.342-4.398-9.81-5.5-14.815-4.792-17.342z" class="B C D"/><path d="M219.982 176.265c-.3-9.934 8.393-17.265 18.332-17.265h45.373c9.94 0 18.623 7.33 18.333 17.265C300.912 214.2 277.38 239 261 239s-39.912-24.8-41.02-62.735z" fill="#0ff"/><path d="M238.137 226.04c7.364 8.326 15.78 12.96 22.86 12.96 16.38 0 39.91-24.8 41.02-62.734.14-4.854-1.86-9.086-5.1-12.145.27.993.423 2.04.44 3.127.643 40.367-24.052 67.065-41.047 67.065-5.614 0-12.07-2.914-18.173-8.273z" class="B C D"/><path d="M261 144.625c10.47 0 25-6.875 25 7.03s-15.47 3.907-25 3.907-25 10-25-3.907 14.53-7.03 25-7.03z" fill="#2e4599"/><path d="M285.992 152.136c-.25 9.21-7.738 7.23-15.443 5.197-3.333-.88-6.706-1.77-9.55-1.77s-6.218.89-9.55 1.77c-7.764 2.05-15.3 4.042-15.447-5.412 6.708-2.09 15.047-3.083 24.998-3.083 9.957 0 18.3 1.046 24.994 3.298z" class="B C G"/><path d="M233.5 173.375c13.594 19.53 67.656-19.225 68.437 38.75 9.22-46.875-1.875-59.225-40.937-59.225s-49.844 14.85-40.938 53.287c-1.094-23.437 14.844-12.968 13.438-32.812z" fill="#2e4599"/><g class="B"><path d="M259.2 174.57c-11.475.9-22.188 1.72-27.262-5.57.677 9.553-2.665 12.08-6.192 14.748-3.41 2.58-7 5.288-7.28 14.597.43 2.497.965 5.1 1.598 7.843-.568-12.155 3.446-15.19 7.245-18.065 3.527-2.667 6.87-5.195 6.192-14.748 5.074 7.3 15.787 6.46 27.262 5.57 14.73-1.142 30.715-2.38 37.647 13.33-5.774-20.296-23.23-18.943-39.2-17.704zm42.168 29.04c.334 2.577.53 5.407.57 8.516 5.146-26.165 3.962-41.573-4.88-50.08 6.928 10.007 8.09 24.377 4.3 41.564z" class="C G"/><path d="M251.625 205.875c2.76 0 5-2.24 5-5s-2.24-5-5-5-5 2.24-5 5 2.24 5 5 5zm18.75 0c2.76 0 5-2.24 5-5s-2.24-5-5-5-5 2.24-5 5 2.24 5 5 5z" class="F"/><path d="M254.952 213.614c.56-.406 1.34-.282 1.747.276 2.96 4.07 5.642 4.07 8.603 0 .406-.558 1.187-.682 1.746-.276s.682 1.188.276 1.746c-3.926 5.398-8.722 5.398-12.647 0-.406-.558-.283-1.34.275-1.746z" class="C F"/></g><path d="M340.146 182.538c.03-11.252 9.135-20.538 20.387-20.538h38.934c11.25 0 20.357 9.286 20.387 20.538C419.95 218.62 419.758 242 380 242s-39.95-23.38-39.854-59.462z" fill="#7846ff"/><path d="M347.938 230.423C353.587 237.878 363.306 242 380 242c39.757 0 39.95-23.38 39.853-59.462-.014-5.2-1.967-9.982-5.174-13.62a15.524 15.524 0 0 1 .475 3.805l.01 4.428c.098 36.48.162 60.162-39.852 60.162-12.777 0-21.468-2.415-27.375-6.9z" class="B C D"/><path d="M360.285 184.672c9.362 4.135 22.45 3.86 30.898-2.244 9.337 7.99 33.505 6.515 33.505-9.178 0-6.33-5.67-11.684-13.47-13.447-3.196-12.232-21.6-13.454-29.756-5.85-8.085-7.604-23.67-6.024-28.447 4.627-8.077-.322-17.704 4.824-17.704 13.9 0 12.158 15.538 16.464 24.973 12.203z" fill="#80ffca"/><g class="B"><path d="M389.62 176.177c-8.448 6.104-21.536 6.38-30.898 2.244-7.625 3.443-19.234 1.292-23.41-6.077l-.001.124c0 12.158 15.538 16.464 24.973 12.203 9.362 4.135 22.45 3.86 30.898-2.244 9.337 7.99 33.505 6.515 33.505-9.178 0-1.994-.563-3.9-1.577-5.608-.65 15.1-24.282 16.415-33.49 8.536z" class="C D"/><path d="M370.938 209.03c-8.065 0-12.188-7.272-12.188-10 0-2.55 4.886-2.15 11.32-1.626 3.078.252 6.5.532 9.93.532 3.317 0 6.627-.262 9.93-.532 6.433-.525 11.32-.924 11.32 1.626 0 2.728-4.123 10-12.187 10-3.315 0-5.382-3.027-6.89-5.235-.982-1.438-.924-2.265-2.174-2.265s-1.2.838-2.174 2.265c-1.507 2.208-3.574 5.235-6.888 5.235z"/></g><g class="C"><g class="E"><path d="M375.955 199.85c-.372-.222-.825-.4-1.336-.543l-9.646 6.754a11.126 11.126 0 0 0 1.177.655l9.805-6.866zm.85.817c.48.838.267 2.057-1.026 3.867-1.34 1.877-2.886 3.248-4.84 3.248-1.28 0-2.45-.203-3.507-.552l9.374-6.563zm21.855-2.273c-.53-.083-1.174-.123-1.93-.128l-11.18 7.827c.307.305.624.58.953.812l12.156-8.5zm1.316.488c.482 1.64-1.724 4.276-2.703 5.313-1.852 1.96-4.586 3.585-8.2 3.585-.502 0-.975-.092-1.423-.26l12.335-8.638z"/></g><path d="M380 227.626c6.562 0 10.312-6.563 10.312-10.313s-4.775-2.187-10.312-2.187-10.312-1.563-10.312 2.187 3.75 10.313 10.312 10.313z" fill-opacity=".4" class="B"/><path d="M388.605 216.236l-.1 1.21c-.042.502-.33.947-.8 1.13-1.17.458-3.738 1.235-7.704 1.235-3.937 0-6.496-.765-7.678-1.225-.486-.188-.786-.65-.83-1.168l-.098-1.183c.688-.506 2.12-.358 4.063-.156l4.542.295c1.697 0 3.235-.16 4.542-.295 1.942-.202 3.374-.35 4.063.156z" class="E"/><path d="M386.284 223.715c-1.554 1.573-3.7 2.66-6.28 2.66s-4.727-1.087-6.28-2.66c1.63-.675 3.842-1.1 6.28-1.1s4.652.415 6.28 1.1z" class="J"/></g><path d="M47.7406 232.8c-.222-9.742 8.3864-16.8 18.13-16.8h46.2614c9.744 0 18.353 7.06 18.13 16.8-.87 38.197-27.557 63.2-41.262 63.2s-40.3914-25.002-41.2615-63.2z" fill="#ffc24d"/><path d="M66.7695 282.59C74.4966 291.2 82.996 296 89.002 296c13.705 0 40.39-25.002 41.262-63.2.108-4.78-1.908-8.913-5.14-11.884.263.946.416 1.943.444 2.98 1.096 40.563-27.0497 67.416-41.2525 67.416-4.8087 0-11.2157-3.078-17.545-8.725z" class="B C D"/><path d="M106.812 203.5c0 6.386-4.374 11.875-17.812 11.875s-17.8125-5.49-17.8125-11.875S80.875 201 89 201s17.812-3.886 17.812 2.5z" fill="#b75cff"/><path d="M71.672 206.933c1.4538 4.8 6.3866 8.442 17.3306 8.442s15.8765-3.64 17.3305-8.442l-1.46-.237c-4.56-.743-10.021-1.634-15.8695-1.634s-11.3105.89-15.8694 1.634l-1.4612.237z" class="B C D"/><path d="M48.6878 245.844c21.7187 0 53.9062-6.875 59.3752-20.782 0 14.063 14.53 20.782 21.25 20.782 11.094-31.875-22.907-37.032-40.3125-37.032-27.547 0-48.9064 7.813-40.3127 37.032z" fill="#b75cff"/><g class="B"><path d="M109 220.062c-5.47 13.907-37.657 21.094-59.3757 21.094-1.6572-5.635-2.2006-10.473-1.8004-14.613-1.595 5.043-1.4647 11.387.863 19.3 21.7187 0 53.9062-6.875 59.3752-20.782 0 14.063 14.53 20.782 21.25 20.782 1.237-3.555 1.913-6.777 2.115-9.697-.31 1.593-.75 3.262-1.334 5.01-6.718 0-21.093-7.03-21.093-21.094z" class="C D"/><path d="M79.3125 259.75c2.071 0 3.75-1.68 3.75-3.75s-1.679-3.75-3.75-3.75-3.75 1.68-3.75 3.75 1.679 3.75 3.75 3.75z" class="F"/><path d="M70.044 258.247c3.4497 6.65 12.9558 7.967 16.6223.69.5613-1.114.8984-2.3 1.0262-3.43.6572-.435 1.961-.435 2.618 0 .1278 1.13.465 2.315 1.0263 3.43 3.6664 7.276 13.1723 5.958 16.6223-.69 2.15-4.142 2.28-8.683-2.904-9.6-3.37-.6-7.1295-.44-10.4264.492-2.3212.657-4.008 1.866-4.3177 4.35a5.35 5.35 0 0 0-2.619 0c-.3097-2.483-1.9964-3.692-4.3177-4.35-3.297-.933-7.055-1.082-10.4265-.492-5.1848.907-5.0526 5.448-2.9038 9.6zm14.9478-.153c-2.9916 5.937-10.527 4.603-13.2834-.71-1.5483-2.984-2.303-6.202 1.5626-6.88 3.0956-.542 6.5656-.407 9.593.45 3.454.977 3.5357 4.347 2.128 7.14zm8.0194 0c2.9916 5.937 10.527 4.603 13.284-.71 1.548-2.984 2.303-6.202-1.563-6.88-3.096-.542-6.5657-.407-9.593.45-3.4538.977-3.5357 4.347-2.128 7.14z" class="C"/><path d="M98.6875 259.75c2.0715 0 3.7505-1.68 3.7505-3.75s-1.68-3.75-3.7505-3.75-3.75 1.68-3.75 3.75 1.679 3.75 3.75 3.75z" class="F"/><path d="M89 277.875c4.4873 0 8.125-3.078 8.125-6.875h-16.25c0 3.797 3.6377 6.875 8.125 6.875z" class="C F"/></g><path d="M163 239c0-8.284 6.716-15 15-15h50c8.284 0 15 6.716 15 15v35c0 16.57-13.43 30-30 30h-20c-16.57 0-30-13.43-30-30v-35z" fill="#d3ff23"/><path d="M169.574 292.74c5.498 6.864 13.95 11.26 23.428 11.26h20c16.57 0 30-13.43 30-30v-35c0-5.342-2.793-10.032-6.998-12.69 1.464 2.315 2.31 5.06 2.31 8.002v37.5c0 15.187-12.313 27.5-27.5 27.5h-22.5c-7.09 0-13.606-2.46-18.74-6.573z" class="B C D"/><path d="M246.127 233.062c0 11.72-12.813 21.875-45 8.437-23.477-9.8-34.196 6.665-38.125 6.534-1.458-.048-1.982-2.382-1.875-9.2.366-23.448 30.322-19.882 14.27-28.4-1.134-.602-.836-2.357.444-2.44 42.924-2.752 70.286 12.4 70.286 25.057z" fill="#00c5a1"/><g class="B C D"><path d="M200.03 236.344c31.875 11.875 37.812 3.125 37.812-8.593 0-3.47-2.184-7.28-6.24-10.927 9.36 4.767 14.522 10.737 14.522 16.24 0 11.72-12.812 21.875-45 8.438-17.62-7.356-28.052.083-33.823 4.198-1.918 1.368-3.32 2.368-4.302 2.336-.267-.01-.503-.095-.7-.272l.504-.525c6.443-6.72 17.494-18.25 37.238-10.894zm-20.3-20.758c4.6-2.865 6.117-4.78-1.434-7.72l-2.467.14c-1.28.082-1.578 1.837-.445 2.438 4.46 2.367 5.37 3.8 4.346 5.14z"/></g><path d="M199.306 260.527c-1.763-.403-3.942-.902-8.78-.902-7.187 0-11.4 0-9.062 6.25 1.98 5.273 5.98 5.313 9.53 5.313 7.312 0 8.922-2.783 10.02-4.68.566-.977.995-1.72 1.998-1.726 1.003.007 1.433.75 1.998 1.726 1.098 1.898 2.71 4.68 10.02 4.68 3.553 0 7.55-.04 9.53-5.313 2.348-6.25-1.875-6.25-9.062-6.25-4.838 0-7.017.5-8.78.902-1.194.273-2.197.503-3.707.504s-2.513-.23-3.707-.504z" class="B"/><g class="E"><path d="M210.647 269.462c-.646-.168-1.18-.37-1.635-.593l14.812-6.666c.183.393.157.866.1 1.283l-13.278 5.976zm12.93-4.562c-.627 1.898-1.72 3.672-3.65 4.436-2.192.867-4.936.723-7.258.474l10.9-4.9z"/><g class="C"><path d="M200.527 263.266c-.075-.43-.268-.794-.58-1.067l-14.8 6.66c.473.306.96.514 1.472.667l13.91-6.26zm-11.87 6.6c2.627.2 5.54.2 7.993-.84 1.815-.77 3.315-2.543 3.8-4.467l-11.792 5.307z"/></g></g><path d="M193 276.88c3.273.77 6.65.87 10 .87s6.727-.102 10-.87v4.295c0 3.35-2.347 6.35-5.805 6.68a44.205 44.205 0 0 1-8.39 0c-3.458-.33-5.805-3.332-5.805-6.68v-4.295z" class="B C F"/><path d="M203 278.688c-6.406 0-9.062-.626-9.062-.626v3.093c.023.05.184.31.966.6 1.12.4 3.42.84 8.096.84s6.976-.43 8.096-.84c.783-.288.943-.55.966-.6v-3.093s-2.656.626-9.062.626zm9.005 3.333c-.18.107-.408.214-.694.32-1.225.45-3.613.88-8.31.88s-7.086-.43-8.31-.88c-.286-.105-.513-.212-.694-.32.35 2.558 2.268 4.65 4.898 4.9l4.107.204 4.107-.204c2.63-.25 4.548-2.342 4.898-4.9z" class="C E"/><path d="M100.036 295.502C99.8 285.468 108.503 278 118.54 278h44.918c10.037 0 18.75 7.468 18.504 17.502C181.037 333.303 160.068 358 141 358s-40.038-24.697-40.963-62.498z" fill="#c4d9d9"/><path d="M117.105 345.236C124.26 353.438 132.806 358 141 358c19.07 0 40.038-24.697 40.963-62.498.12-4.88-1.88-9.153-5.12-12.255.275 1 .43 2.074.45 3.18.662 40.266-21.183 66.885-40.98 66.885-6.47 0-13.158-2.842-19.21-8.075z" class="B C D"/><path d="M174.124 291.124c4.687 2.188 5.625 16.25 6.875 16.25s5-17.5 4.062-21.875-4.687-4.843-7.968-8.125-2.032-6.25-5.625-8.28-8.907-.156-12.657-1.406-2.968-4.844-7.812-5.313-8.438.782-12.5 1.407-8.906-2.344-12.656-1.094-3.75 4.687-6.72 6.094-6.562.625-10 2.5-2.344 5.156-4.688 7.968-6.0406 4.375-7.4994 8.75 2.812 19.375 4.0624 19.375 3.906-15.312 6.875-16.25 6.25 3.75 9.53 2.813 3.125-5 6.72-5.47 7.813 6.406 11.72 5.47 9.22-5.78 12.656-5.78 7.812 5.78 11.718 6.093c4.605.37 9.22-5.312 13.907-3.125z" class="L"/><path d="M181.247 297.38c-.52-2.704-1.728-8.978-8.06-10.318-4.835-1.022-7.652.41-10.11 1.658-1.673.85-3.18 1.617-5.046 1.467-1.96-.156-4.037-1.69-6.055-3.178-2.004-1.48-3.95-2.915-5.663-2.915-1.886 0-4.335 1.457-6.807 2.927-2.035 1.21-4.086 2.43-5.85 2.854-2.05.492-4.184-1.167-6.27-2.787-1.9-1.468-3.74-2.905-5.447-2.682-1.894.247-2.746 1.492-3.61 2.75-.775 1.13-1.558 2.274-3.1 2.718-1.668.476-3.336-.5-4.962-1.453-1.574-.922-3.1-1.82-4.57-1.36-1.766.558-3.42 6.2-4.736 10.683-.777 2.65-1.436 4.896-1.9276 5.44.779 2.458 1.5526 4.19 1.9766 4.19.507 0 1.244-2.514 2.14-5.568 1.315-4.482 2.97-10.125 4.735-10.682 1.46-.46 2.996.438 4.57 1.36 1.627.952 3.295 1.93 4.963 1.452 1.552-.443 2.335-1.586 3.1-2.717.863-1.26 1.715-2.504 3.608-2.75 1.708-.223 3.558 1.213 5.448 2.68 2.086 1.62 4.222 3.28 6.27 2.787 1.764-.423 3.814-1.643 5.85-2.853 2.472-1.47 4.92-2.928 6.806-2.928 1.713 0 3.66 1.436 5.664 2.915 2.018 1.49 4.095 3.022 6.055 3.18 1.995.16 3.993-.817 5.997-1.797 2.62-1.28 5.253-2.568 7.91-1.328 3.03 1.414 4.494 7.794 5.488 12.126.543 2.368.946 4.124 1.387 4.124 1.25 0 5-17.5 4.063-21.875-.266-1.242-.76-2.17-1.403-2.935.455 5.112-1.458 16.06-2.036 16.06-.138 0-.23-.48-.377-1.245z" class="B C D"/><path d="M141 340.5c-4.688 0-11.562-6.25-11.562-6.25s6.874 1.094 11.562 1.094 11.562-1.094 11.562-1.094-6.875 6.25-11.562 6.25z" class="L"/><g class="B C D"><path d="M129.486 334.258c2.174 1.345 7.505 4.367 11.514 4.367s9.34-3.022 11.514-4.367l.048-.008s-6.874 6.25-11.562 6.25-11.562-6.25-11.562-6.25.016.003.048.008z"/><path d="M129.53 334.332c2.615.74 7.108 1.793 11.47 1.793s8.854-1.053 11.47-1.793l.092-.082s-6.874 1.094-11.562 1.094-11.562-1.094-11.562-1.094.03.03.092.082z"/></g><path d="M141 333.313c-2.5-2.5-4.375.313-11.562.938 0 0 6.874 1.093 11.562 1.093s11.563-1.093 11.563-1.093c-7.188-.625-9.063-3.438-11.563-.938z" class="L"/><path d="M139.437 315.997c-.09-3.64-3.96-4.403-8.75-4.403-4.843 0-11.176.106-10.216 4.375 1.723 7.656 3.598 9.53 10.216 9.53 6.002 0 8.096-3.973 8.61-7.467.99-.496 2.414-.496 3.402 0 .516 3.494 2.6 7.467 8.612 7.467 6.618 0 8.493-1.875 10.215-9.53.96-4.27-5.372-4.375-10.215-4.375-4.79 0-8.66.763-8.75 4.403-1.01-.256-2.118-.256-3.127 0z" class="B"/><g class="C E"><path d="M147.338 323.363a5.858 5.858 0 0 1-1.1-.773l14.078-7.867c.06.465-.007.984-.117 1.453l-12.86 7.187zm12.472-5.646c-.7 2.563-1.437 4.06-2.4 4.98-1.143 1.08-2.84 1.554-6.086 1.554-.997 0-1.857-.12-2.6-.33l11.098-6.202zm-21.674-.46l-11.654 6.513c1.026.328 2.368.48 4.208.48 3.186 0 4.977-1.226 6.024-2.742.867-1.255 1.285-2.803 1.422-4.252zm-12.942 5.9l13-7.26c-.03-.5-.16-.894-.346-1.195l-13.6 7.6c.3.34.595.615.956.854z"/></g><path d="M-18.875 332.406c8.125 5.47 25.9378 11.25 51.8752 11.25s43.75-5.78 51.875-11.25c-11.5624-14.375-.9374-35.468-8.125-49.687s-18.125-22.5-43.75-22.5-36.5628 8.28-43.7503 22.5 3.4375 35.312-8.125 49.687z" class="M"/><path d="M33.0004 338.656c-25.9375 0-39.3754-3.594-47.5003-9.062 3.2884-6.79 2.456-15.12 1.2735-23.518.376 9.316.4436 18.756-5.6486 26.33 8.125 5.47 25.9378 11.25 51.8752 11.25s43.75-5.78 51.875-11.25c-5.9977-7.456-6.0254-16.72-5.666-25.896-.9813 6.687-1.4744 14.302 1.4475 23.865-8.75 5-21.719 8.28-47.6563 8.28z" class="B C D"/><path d="M-7.9643 288.502C-8.2 278.468.5027 271 10.5398 271h44.9184c10.037 0 18.7498 7.468 18.504 17.502C73.0365 326.303 52.068 351 33 351s-40.0375-24.697-40.9633-62.498z" fill="#ffff80"/><path d="M9.1055 338.236C16.2605 346.438 24.8062 351 33.001 351c19.069 0 40.0375-24.697 40.9633-62.498.1195-4.88-1.8798-9.153-5.1198-12.255.2758 1 .4312 2.074.4494 3.18.6616 40.266-21.1832 66.885-40.9804 66.885-6.4697 0-13.158-2.842-19.208-8.075z" class="B C D"/><path d="M-7.0015 308.03C-20.44 279.125 2.26 262.25 34.1353 262.25S82.3735 278.5 75.23 305.844c-7.8125-6.563-10.1562-15.782-9.0625-22.97-20.9375 32.03-73.168-15.313-73.168 25.156z" class="M"/><g class="B C"><path d="M-6.711 303.228c2.073-15.636 14.966-13.34 29.9028-10.68 15.3374 2.73 32.8295 5.847 42.9746-9.674-1.0937 7.187 1.25 16.406 9.0625 22.97l.0065-.025c-8.0137-13.17-7.937-20.692-6.8808-27.63-10.984 15.393-28.0323 12.532-43.1367 9.997-15.9774-2.68-29.7797-4.998-31.929 15.043z" class="D"/><path d="M42.2213 324.686a1.251 1.251 0 0 0-1.6292.686c-1.452 3.564-5.7896 5.555-9.8392 4.717-.676-.14-1.3374.295-1.4773.97a1.25 1.25 0 0 0 .9708 1.477c5.013 1.037 10.6754-1.348 12.661-6.22a1.251 1.251 0 0 0-.686-1.63z" class="F"/></g><path d="M20.1872 305.062C13 305.062 13 306.156 13 311.312c0 6.407 4.104 7.188 7.656 7.188 7.07 0 8.2898-2.678 9.844-5.78s3.4458-3.103 5 0 2.774 5.78 9.844 5.78c3.552 0 7.656-.78 7.656-7.188 0-5.156 0-6.25-7.1873-6.25-8.1252 0-8.1252 2.032-12.8127 2.032s-4.6876-2.032-12.813-2.032z" class="B"/><g class="E"><path d="M29.7 309.066l-13.1116 7.327c-.3804-.214-.73-.48-1.0365-.8l13.4563-7.52c.3794.295.624.63.6918 1.002zm-.06 1.358c-.3952 2.87-2.378 6.826-8.6896 6.826-.985 0-2.0183-.063-2.9706-.3l11.6602-6.516zm21.8315-2.384l-12.7312 7.114c.3144.288.666.556 1.058.797l11.9052-6.652c-.0384-.495-.1076-.9-.232-1.26zm.2775 2.558l-10.6954 5.976c1.0862.424 2.4044.676 4 .676 4.4968 0 6.736-2.193 6.6964-6.652z"/></g><path d="M270.692 241.5c-.02-10.84 8.95-19.5 19.8-19.5h41.04c10.84 0 19.81 8.65 19.8 19.5-.064 36.677-5.52 60.5-40.31 60.5s-40.245-23.833-40.3-60.5z" fill="#74ffb9"/><path d="M280.863 290.135c6.034 7.637 15.484 11.866 30.14 11.866 34.79 0 40.245-23.833 40.3-60.5.01-5.095-1.968-9.706-5.19-13.163.304 1.152.47 2.36.483 3.605.376 39.424-3.983 65.38-40.29 65.38-11.3 0-19.52-2.52-25.452-7.18z" class="B C D"/><path d="M311 207.938c9.218 0 19.53 6.093 31.562 10.312C354.298 222.366 355.06 232 351 252c-3.952-1.614-7.813-11.72-4.375-16.875-12.168 2.044-22.813 8.125-35.625 8.125s-23.458-6.08-35.625-8.125C279.436 243.72 273.7 248.51 271 252c-4.063-20-3.3-29.634 8.437-33.75 12.03-4.22 22.344-10.312 31.563-10.312z" class="M"/><g class="B C"><path d="M270.97 251.845l.03.156 1.172-1.424c2.85-3.368 6.74-7.968 3.203-15.45 4.872.818 9.5 2.284 14.12 3.747 6.92 2.19 13.823 4.378 21.505 4.378s14.586-2.187 21.506-4.378c4.62-1.463 9.248-2.93 14.12-3.747-3.437 5.156.423 15.26 4.375 16.875.005-.022.01-.044.013-.066-2.61-4.128-4.53-10.315-2.037-17.798.483-1.45-.705-3.032-2.21-2.766-4.735.837-10.646 1.983-14.26 3.127-6.92 2.19-13.823 4.378-21.506 4.378s-14.586-2.187-21.505-4.378c-3.428-1.086-9.096-2-13.782-2.735-1.64-.257-2.903 1.674-2.313 3.226 2.02 5.308 1.224 11.2-2.43 16.856z" class="D"/><path d="M301.046 268.41c-4.843 0-12.083-7.344-10.312-10 1.696-2.544 16.932-2.35 18.236 1.108 1.307-.44 2.754-.44 4.06 0 1.304-3.458 16.54-3.652 18.236-1.108 1.77 2.656-5.47 10-10.312 10-3.25 0-7.552-3.902-8.034-7.26-1.2-.537-2.64-.537-3.84 0-.483 3.357-4.784 7.26-8.035 7.26z"/></g><g class="E"><path d="M316.074 264.912c4.566.227 11.116-1.68 14.246-4.408a4.854 4.854 0 0 1-.085.187c-1.15 2.416-3.52 4.443-5.83 5.708-1.26.7-2.46 1.074-3.454 1.074-1.45 0-3.35-1-4.878-2.56zM295.46 265c4.072.112 9.416-1.308 12.614-3.47-.32 1.2-1.198 2.366-1.97 3.187-1.556 1.654-3.55 2.746-5.056 2.746-2.03 0-4.024-1.267-5.587-2.464z"/></g><g class="C"><path d="M311 285.438c5.448 0 9.062-5.04 9.062-10.122-6.04.74-12.08.74-18.124 0 0 5.083 3.614 10.122 9.062 10.122z" class="B F"/><path d="M318.36 279.525c.49-1.023.766-2.107.766-3.15-5.25.642-11 .642-16.25 0 0 1.043.275 2.127.766 3.15 1.595.27 4.2.6 7.36.6s5.764-.33 7.36-.6zm-.615 1.08c-1.46 2.2-3.935 3.895-6.744 3.895s-5.284-1.695-6.744-3.895c1.504.23 3.746.457 6.744.457s5.24-.226 6.744-.457z" class="E"/></g><path d="M218.146 298.538c.03-11.252 9.135-20.538 20.387-20.538h38.934c11.25 0 20.357 9.286 20.387 20.538C297.95 334.62 297.758 358 258 358s-39.95-23.38-39.854-59.462z" fill="#ffc266"/><path d="M225.938 346.423C231.587 353.878 241.306 358 258 358c39.757 0 39.95-23.38 39.853-59.462-.014-5.2-1.967-9.982-5.174-13.62a15.524 15.524 0 0 1 .475 3.805l.01 4.428c.098 36.48.162 60.162-39.852 60.162-12.777 0-21.468-2.415-27.375-6.9z" class="B C D"/><path d="M218.313 309.25c-1.25 0-7.187-23.125 6.25-31.875 10.562-6.86 24.418-6.2 33.437-15.625 9.02 9.415 22.876 9.078 33.438 15.938 13.438 8.75 7.656 31.562 6.25 31.562s-.938-18.75-14.844-19.062c-13.906-.47-15.78 6.874-24.844 6.874s-10.937-7.343-24.843-6.874c-13.906.312-13.594 19.062-14.844 19.062z" fill="#999"/><g class="C"><path d="M233.157 285.5c7.797-.263 11.812 1.93 15.432 3.908 2.836 1.55 5.43 2.967 9.412 2.967s6.575-1.417 9.41-2.967c3.62-1.977 7.635-4.17 15.432-3.908 9.76.22 13.463 11.83 14.736 18.733.202 1.094.295 2.94.37 4.823-.098.127-.187.194-.263.194-.34 0-.57-1.095-.92-2.76-1.1-5.226-3.378-16.064-13.923-16.3-7.797-.263-11.812 1.93-15.432 3.908-2.837 1.55-5.43 2.967-9.412 2.967s-6.575-1.418-9.41-2.967c-3.62-1.978-7.635-4.17-15.432-3.908-10.693.24-12.98 11.38-14.033 16.517-.317 1.544-.522 2.545-.81 2.545-.093 0-.213-.13-.348-.37.127-1.823.26-3.587.456-4.647 1.273-6.904 4.976-18.514 14.736-18.733z" class="B D"/><path d="M263.1 328.625c4.328 0 5.6 5.504 9.297 7.353 2.84 1.425 5.29-.764 5.29 0 0 6.18-17.228 5.37-19.688-1.21H258c-2.46 6.58-19.69 7.388-19.69 1.21 0-.764 2.45 1.425 5.3 0 3.687-1.85 4.97-7.353 9.297-7.353 3.043 0 4.53 1.105 5.1 2.658.572-1.553 2.058-2.658 5.1-2.658z" fill="#999"/><g class="B D"><path d="M239.3 336.04l-.125-.042c-.542-.185-.862-.294-.862-.018 0 6.177 17.224 5.37 19.688-1.207 2.464 6.576 19.688 7.384 19.688 1.207 0-.276-.32-.167-.862.018l-.125.042c-3.693 3.575-16.594 2.17-18.7-3.454 0-.001.001-.002.001-.003H258c0 .001.001.002.001.003-2.107 5.623-15.008 7.03-18.7 3.454zm18.7-1.267c0-.001.001-.002.001-.002H258s.001.001.001.002z"/></g></g><path d="M276.125 318.625c0-7.187-4.53-7.188-7.656-7.187s-8.75.468-8.75 4.218c0 4.063 5.625 10.47 10.156 10.47 3.28 0 6.25-3.278 6.25-7.5z" class="B"/><path d="M274.254 314.377l-11.25 6.495.78.9.014.015 10.96-6.328c-.142-.422-.313-.78-.504-1.083zm.813 2.415l-10.297 5.945c1.682 1.498 3.543 2.45 5.107 2.45 2.63 0 5.312-2.716 5.312-6.562 0-.69-.043-1.296-.122-1.833z" class="C E"/><path d="M239.875 318.625c0-7.187 4.53-7.188 7.656-7.187s8.75.468 8.75 4.218c0 4.063-5.625 10.47-10.156 10.47-3.28 0-6.25-3.278-6.25-7.5z" class="B"/><g class="C"><path d="M242.403 323.25a6.505 6.505 0 0 1-.673-.986l13.342-7.703c.177.308.274.665.274 1.093l-.002.124-12.94 7.472zm12.568-5.745c-.126.345-.284.704-.472 1.073-.554 1.085-1.345 2.196-2.28 3.194-1.91 2.04-4.216 3.414-6.092 3.414-.952 0-1.9-.355-2.745-.99l11.588-6.7z" class="E"/><g class="B"><path d="M258 314.562c.553 0 .9.14 1.086.323.2.18.32.47.32.927a.469.469 0 0 0 .938 0c0-.635-.184-1.205-.617-1.6-.428-.402-1.03-.576-1.727-.576s-1.3.174-1.727.576c-.433.406-.617.976-.617 1.6a.469.469 0 1 0 .938 0c0-.458.13-.747.32-.927.197-.184.533-.323 1.086-.323zm-5.78-2.968h11.562a.469.469 0 0 1 .469.468.469.469 0 0 1-.469.469H252.22a.469.469 0 0 1-.469-.469.469.469 0 0 1 .469-.468z"/></g><path d="M325.124 311.312c5-34.374 17.97-52.656 51.875-52.656s46.563 18.28 51.875 52.656c2.704 17.495-19.218 32.5-51.875 32.5s-54.423-14.98-51.875-32.5z" fill="#ff974d"/><path d="M325.438 318.443c3.406 14.266 23.45 25.37 51.563 25.37 32.656 0 54.58-15.005 51.875-32.5-1.294-8.368-3.022-15.782-5.386-22.21 1.59 5.273 2.834 11.12 3.824 17.523 2.704 17.495-19.22 32.5-51.875 32.5-24.922 0-43.825-8.778-50-20.682z" class="B D"/></g><path d="M336.573 289.728C336.306 279.196 345.19 271 355.726 271h42.546c10.536 0 19.42 8.196 19.153 18.73-.94 37.108-13.48 61.27-40.426 61.27s-39.486-24.163-40.426-61.272z" fill="#0094ff"/><g class="C"><path d="M350.36 338.92C356.812 346.69 365.62 351 377 351c26.945 0 39.486-24.163 40.426-61.27.127-5.04-1.84-9.545-5.08-12.873.293 1.115.45 2.288.45 3.502.02 39.745-12.42 65.955-40.483 65.955-8.832 0-16.117-2.596-21.953-7.393z" class="B D"/><path d="M334.176 296c18.438 0 51.206 2.4 69.544-12.656-1.875 2.5-3.438 6.406-3.763 9.062 7.436 0 15.17-.625 20.156-4.22 0-35.468-89.987-38.593-85.937 7.813z" fill="#ff974d"/><g class="B D"><path d="M341.844 296.075c21.058-1.17 51.066-5.197 65.55-17.08-1.875 2.5-3.894 9.532-4.22 12.188l.453.022c2.624.13 8.23.41 14.572-1.845-4.93 2.563-11.702 3.047-18.244 3.047.325-2.656 1.888-6.562 3.763-9.062-16.006 13.133-43.006 12.982-61.874 12.73z"/></g></g><use xlink:href="#C" class="B F"/><path d="M387 315.375c2.07 0 3.75-1.68 3.75-3.75s-1.68-3.75-3.75-3.75-3.75 1.68-3.75 3.75 1.68 3.75 3.75 3.75z" class="B F"/><g class="C"><path d="M374.8 311.962c-.234 3.468-4.057 6.226-8.74 6.226-4.832 0-8.75-2.94-8.75-6.563s3.918-6.563 8.75-6.563c4.24 0 7.775 2.262 8.58 5.264 1.488-.57 3.23-.57 4.718 0 .804-3.002 4.34-5.264 8.58-5.264 4.832 0 8.75 2.94 8.75 6.563s-3.918 6.563-8.75 6.563c-4.682 0-8.506-2.758-8.74-6.226-1.322-.676-3.076-.676-4.398 0zm-8.74 4.663c3.97 0 7.188-2.24 7.188-5s-3.218-5-7.188-5-7.187 2.24-7.187 5 3.218 5 7.187 5zm21.876 0c3.97 0 7.187-2.24 7.187-5s-3.218-5-7.187-5-7.188 2.24-7.188 5 3.218 5 7.188 5z" class="B"/><path d="M377 335.22c4.97 0 9.03-3.46 10.887-7.886.472-1.126 1.257-3.052.018-3.988-.935-.707-2.274-.226-3.28.027-2.507.63-5.03 1.066-7.625 1.066-3.28 0-5.738-.594-7.43-1.017-1.045-.262-2.494-.816-3.473-.076-1.24.936-.454 2.862.018 3.988 1.856 4.428 5.915 7.886 10.886 7.886z" class="B F"/><path d="M387.05 324.286c-.343 1.03-.65 2.168-1.644 2.764-1.23.737-3.775 1.762-8.406 1.762s-7.173-1.024-8.405-1.76c-.996-.596-1.303-1.735-1.646-2.765.922-.365 4.27 1.402 10.05 1.402s9.13-1.767 10.05-1.402z" class="E"/><path d="M383.463 331.49c-1.595 1.415-3.724 2.48-6.46 2.48-2.65 0-4.73-.997-6.307-2.345 1.868-1.224 4.565-1.26 6.493-.15 1.86-1.072 4.42-1.068 6.275.015z" class="J"/></g></g><defs><clipPath id="A"><path d="M0 0h414v368H0z" class="E"/></clipPath><path id="B" d="M51.1155 189.094a4.712 4.712 0 0 0-.8881-.862l-11.9188 6.882a4.699 4.699 0 0 0 .9569.821l11.85-6.84zm.6605 1.13c.2244.548.348 1.147.348 1.776 0 2.59-2.0987 4.687-4.6875 4.687h-5.625c-.355 0-.7005-.04-1.0328-.114l10.9972-6.35z"/><path id="C" d="M367 315.375c2.07 0 3.75-1.68 3.75-3.75s-1.68-3.75-3.75-3.75-3.75 1.68-3.75 3.75 1.68 3.75 3.75 3.75z"/></defs></svg>