<svg width="795" height="367" viewBox="0 0 795 367" fill="none" xmlns="http://www.w3.org/2000/svg">
<g clip-path="url(#clip0)">
<path fill-rule="evenodd" clip-rule="evenodd" d="M210.999 109.5C219 54.5 239.75 25.25 294 25.25C348.25 25.25 368.5 54.5 377 109.5C381.326 137.492 346.25 161.5 294 161.5C241.75 161.5 206.922 137.529 210.999 109.5Z" fill="#FF974D"/>
<path fill-rule="evenodd" clip-rule="evenodd" d="M211.5 120.907C216.95 143.733 249.019 161.499 294.001 161.499C346.251 161.499 381.327 137.491 377.001 109.499C374.932 96.1102 372.166 84.2474 368.384 73.9609C370.927 82.398 372.919 91.7516 374.502 101.999C378.828 129.991 343.752 153.999 291.502 153.999C251.627 153.999 221.383 139.954 211.5 120.907Z" fill="black" fill-opacity="0.15"/>
<path d="M229.318 74.9656C228.891 58.1134 243.106 45 259.964 45H328.036C344.894 45 359.109 58.1135 358.682 74.9657C357.178 134.338 337.113 173 294 173C250.887 173 230.822 134.338 229.318 74.9656Z" fill="#0094FF"/>
<path fill-rule="evenodd" clip-rule="evenodd" d="M251.375 153.671C261.699 166.107 275.794 173.001 293.999 173.001C337.112 173.001 357.177 134.339 358.681 74.9662C358.885 66.9025 355.737 59.6947 350.551 54.3701C351.021 56.154 351.272 58.0297 351.273 59.9719C351.302 123.565 331.401 165.501 286.499 165.501C272.368 165.501 260.712 161.347 251.375 153.671Z" fill="black" fill-opacity="0.15"/>
<path fill-rule="evenodd" clip-rule="evenodd" d="M225.48 84.9993C254.981 84.9993 307.411 88.8233 336.751 64.7493C333.751 68.7493 331.251 74.9993 330.73 79.2493C342.628 79.2493 355.001 78.2493 362.98 72.4993C362.98 15.7494 219.001 10.7493 225.48 84.9993Z" fill="#FF974D"/>
<path fill-rule="evenodd" clip-rule="evenodd" d="M237.742 85.1198C271.437 83.2506 319.453 76.8051 342.628 57.79C339.628 61.79 336.399 73.0405 335.878 77.2905C336.101 77.3006 336.342 77.3126 336.602 77.3255C340.801 77.5341 349.77 77.9798 359.92 74.3728C352.032 78.4755 341.196 79.2496 330.728 79.2496C331.248 74.9996 333.748 68.7496 336.748 64.7496C311.137 85.764 267.932 85.521 237.742 85.1198Z" fill="black" fill-opacity="0.15"/>
<path d="M278 116C281.314 116 284 113.314 284 110C284 106.686 281.314 104 278 104C274.686 104 272 106.686 272 110C272 113.314 274.686 116 278 116Z" fill="black" fill-opacity="0.299"/>
<path d="M310 116C313.314 116 316 113.314 316 110C316 106.686 313.314 104 310 104C306.686 104 304 106.686 304 110C304 113.314 306.686 116 310 116Z" fill="black" fill-opacity="0.299"/>
<path fill-rule="evenodd" clip-rule="evenodd" d="M290.482 110.539C290.108 116.087 283.991 120.5 276.5 120.5C268.768 120.5 262.5 115.799 262.5 110C262.5 104.201 268.768 99.5 276.5 99.5C283.283 99.5 288.939 103.118 290.226 107.921C292.606 107.011 295.394 107.011 297.774 107.921C299.061 103.118 304.717 99.5 311.5 99.5C319.232 99.5 325.5 104.201 325.5 110C325.5 115.799 319.232 120.5 311.5 120.5C304.009 120.5 297.892 116.087 297.518 110.539C295.403 109.457 292.597 109.457 290.482 110.539ZM276.5 118C282.851 118 288 114.418 288 110C288 105.582 282.851 102 276.5 102C270.149 102 265 105.582 265 110C265 114.418 270.149 118 276.5 118ZM311.5 118C317.851 118 323 114.418 323 110C323 105.582 317.851 102 311.5 102C305.149 102 300 105.582 300 110C300 114.418 305.149 118 311.5 118Z" fill="black"/>
<path fill-rule="evenodd" clip-rule="evenodd" d="M294 147.751C301.953 147.751 308.448 142.217 311.418 135.133C312.174 133.331 313.43 130.25 311.448 128.752C309.951 127.621 307.809 128.39 306.199 128.795C302.187 129.804 298.151 130.501 294 130.501C288.751 130.501 284.819 129.55 282.11 128.873C280.437 128.455 278.12 127.567 276.552 128.752C274.57 130.25 275.826 133.331 276.581 135.133C279.551 142.217 286.046 147.751 294 147.751Z" fill="black" fill-opacity="0.299"/>
<path fill-rule="evenodd" clip-rule="evenodd" d="M310.08 130.257C309.53 131.904 309.041 133.726 307.449 134.68C305.479 135.86 301.409 137.5 293.999 137.5C286.593 137.5 282.522 135.861 280.551 134.681C278.957 133.727 278.467 131.905 277.918 130.257C279.392 129.674 284.752 132.5 293.998 132.5C303.246 132.5 308.607 129.672 310.08 130.257Z" fill="white"/>
<path fill-rule="evenodd" clip-rule="evenodd" d="M304.338 141.784C301.787 144.049 298.38 145.751 294 145.751C289.761 145.751 286.433 144.156 283.91 142C286.899 140.041 291.213 139.984 294.298 141.762C297.276 140.046 301.369 140.051 304.338 141.784Z" fill="#FF5858"/>
<path d="M446.234 74.861C446.282 56.8583 460.85 42 478.853 42H541.147C559.15 42 573.718 56.8584 573.766 74.8611C573.919 132.592 573.612 170 510 170C446.388 170 446.081 132.592 446.234 74.861Z" fill="#7846FF"/>
<path fill-rule="evenodd" clip-rule="evenodd" d="M458.699 151.477C467.739 163.404 483.288 170 510 170C573.612 170 573.919 132.592 573.766 74.861C573.744 66.5393 570.619 58.8894 565.487 53.0684C565.982 55.0193 566.246 57.0598 566.248 59.157C566.25 61.5503 566.257 63.9122 566.263 66.2414C566.42 124.608 566.523 162.5 502.5 162.5C482.057 162.5 468.152 158.636 458.699 151.477Z" fill="black" fill-opacity="0.15"/>
<path d="M478.455 78.2763C493.435 84.8912 514.375 84.4514 527.892 74.6861C542.832 87.4676 581.5 85.11 581.5 60.0003C581.5 49.8716 572.428 41.3061 559.951 38.4847C554.837 18.9141 525.39 16.9589 512.34 29.123C499.405 16.9569 474.467 19.4852 466.825 36.5266C453.903 36.0119 438.5 44.2452 438.5 58.7503C438.5 78.2034 463.36 85.0926 478.455 78.2763Z" fill="#80FFCA"/>
<path fill-rule="evenodd" clip-rule="evenodd" d="M525.392 64.6853C511.875 74.4506 490.935 74.8904 475.955 68.2755C463.756 73.784 445.18 70.3417 438.501 58.5512C438.5 58.6171 438.5 58.6832 438.5 58.7494C438.5 78.2026 463.36 85.0918 478.455 78.2755C493.435 84.8904 514.375 84.4506 527.892 74.6853C542.832 87.4667 581.5 85.1091 581.5 59.9994C581.5 56.8099 580.6 53.7753 578.978 51.0264C577.937 75.1713 540.126 77.2903 525.392 64.6853Z" fill="black" fill-opacity="0.15"/>
<path d="M495.5 117.25C482.597 117.25 476 105.615 476 101.25C476 97.1693 483.818 97.8081 494.11 98.6491C499.035 99.0516 504.527 99.5003 510 99.5003C515.308 99.5003 520.603 99.0812 525.89 98.6491C536.182 97.8081 544 97.1693 544 101.25C544 105.615 537.404 117.25 524.5 117.25C519.197 117.25 515.89 112.406 513.478 108.874C511.907 106.574 512 105.25 509.999 105.25C507.998 105.25 508.081 106.59 506.522 108.874C504.11 112.406 500.803 117.25 495.5 117.25Z" fill="black"/>
<path fill-rule="evenodd" clip-rule="evenodd" d="M503.529 102.56C502.934 102.204 502.209 101.921 501.391 101.69L485.957 112.497C486.553 112.877 487.181 113.229 487.841 113.545L503.529 102.56ZM504.887 103.866C505.653 105.207 505.314 107.159 503.245 110.054C501.1 113.058 498.628 115.25 495.5 115.25C493.452 115.25 491.582 114.926 489.889 114.368L504.887 103.866Z" fill="white"/>
<path fill-rule="evenodd" clip-rule="evenodd" d="M539.853 100.231C539.006 100.1 537.975 100.035 536.765 100.026L518.879 112.551C519.37 113.039 519.877 113.476 520.404 113.85L539.853 100.231ZM541.96 101.013C542.731 103.637 539.201 107.855 537.634 109.514C534.672 112.651 530.297 115.25 524.5 115.25C523.696 115.25 522.94 115.102 522.223 114.833L541.96 101.013Z" fill="white"/>
<path fill-rule="evenodd" clip-rule="evenodd" d="M510 147C520.5 147 526.5 136.5 526.5 130.5C526.5 124.5 518.859 127 510 127C501.141 127 493.5 124.5 493.5 130.5C493.5 136.5 499.5 147 510 147Z" fill="black" fill-opacity="0.4"/>
<path fill-rule="evenodd" clip-rule="evenodd" d="M523.767 128.778L523.606 130.715C523.539 131.518 523.075 132.23 522.325 132.524C520.454 133.257 516.345 134.5 509.999 134.5C503.7 134.5 499.605 133.275 497.715 132.54C496.938 132.238 496.457 131.501 496.388 130.67L496.23 128.778C497.332 127.968 499.624 128.206 502.732 128.528C504.823 128.745 507.283 129 509.999 129C512.714 129 515.175 128.745 517.266 128.528C520.373 128.206 522.666 127.968 523.767 128.778Z" fill="white"/>
<path fill-rule="evenodd" clip-rule="evenodd" d="M520.051 140.744C517.565 143.26 514.133 145 510.002 145C505.87 145 502.439 143.26 499.953 140.744C502.559 139.664 506.101 139 510.002 139C513.903 139 517.445 139.664 520.051 140.744Z" fill="#FF5858"/>
<path d="M23 70C23 56.7452 33.7452 46 47 46H127C140.255 46 151 56.7452 151 70V126C151 152.51 129.51 174 103 174H71C44.4903 174 23 152.51 23 126V70Z" fill="#D3FF23"/>
<path fill-rule="evenodd" clip-rule="evenodd" d="M33.5156 155.984C42.312 166.967 55.8348 174 71.0002 174H103C129.51 174 151 152.509 151 126V69.9996C151 61.452 146.532 53.9481 139.804 49.6963C142.145 53.4016 143.5 57.7924 143.5 62.4996V122.5C143.5 146.8 123.801 166.5 99.5002 166.5H63.5002C52.1559 166.5 41.7308 162.564 33.5156 155.984Z" fill="black" fill-opacity="0.15"/>
<path d="M155.998 60.4995C155.998 79.2495 135.498 95.4995 83.9979 73.9995C46.4352 58.318 29.2853 84.6633 22.9979 84.4537C20.6651 84.3758 19.8277 80.6422 19.9978 69.7495C20.584 32.2326 68.5133 37.9387 42.8299 24.3101C41.0166 23.3479 41.4924 20.5398 43.5409 20.4084C112.219 16.0058 155.998 40.232 155.998 60.4995Z" fill="#00C5A1"/>
<path fill-rule="evenodd" clip-rule="evenodd" d="M82.2501 65.7499C133.25 84.7499 142.75 70.7499 142.75 51.9999C142.75 46.4477 139.255 40.3539 132.764 34.5176C147.739 42.1445 156 51.6957 156 60.4999C156 79.2499 135.5 95.4999 83.9998 73.9999C55.8086 62.2308 39.1153 74.1339 29.8825 80.7173C26.8132 82.9058 24.5684 84.5064 22.9998 84.4541C22.5716 84.4398 22.1937 84.3023 21.8633 84.02C22.1268 83.746 22.3953 83.4659 22.6691 83.1803C32.9783 72.4261 50.6603 53.9811 82.2501 65.7499Z" fill="black" fill-opacity="0.15"/>
<path fill-rule="evenodd" clip-rule="evenodd" d="M49.7876 32.5355C57.1634 27.9513 59.5735 24.8883 47.4925 20.1865C46.1859 20.2504 44.8699 20.3247 43.5446 20.4096C41.4961 20.541 41.0203 23.3491 42.8336 24.3113C49.9698 28.0981 51.4229 30.3922 49.7876 32.5355Z" fill="black" fill-opacity="0.15"/>
<path d="M81.0897 104.443C78.2691 103.798 74.7829 103 67.0416 103C55.542 103 48.7862 103 52.542 113C55.7107 121.437 62.1082 121.5 67.7916 121.5C79.4904 121.5 82.0672 117.048 83.8241 114.012C84.7291 112.448 85.4165 111.26 87.0209 111.25C88.6254 111.26 89.3128 112.448 90.2178 114.012C91.9747 117.048 94.5515 121.5 106.25 121.5C111.934 121.5 118.331 121.437 121.5 113C125.256 103 118.5 103 107 103C99.2589 103 95.7727 103.798 92.9522 104.443C91.0416 104.881 89.4364 105.248 87.0209 105.25C84.6055 105.248 83.0003 104.881 81.0897 104.443Z" fill="black"/>
<path d="M99.2381 118.74C98.2046 118.471 97.3494 118.148 96.6211 117.791L120.32 107.126C120.613 107.755 120.573 108.511 120.483 109.179L99.2381 118.74Z" fill="white"/>
<path d="M119.926 111.457C118.923 114.494 117.174 117.332 114.084 118.554C110.577 119.941 106.186 119.712 102.471 119.312L119.926 111.457Z" fill="white"/>
<path fill-rule="evenodd" clip-rule="evenodd" d="M83.0469 108.826C82.9262 108.137 82.6175 107.555 82.1165 107.118L58.4374 117.775C59.1937 118.263 59.9746 118.596 60.7921 118.841L83.0469 108.826ZM64.0519 119.401C68.2563 119.722 72.9173 119.721 76.8414 118.057C79.7455 116.825 82.1463 113.988 82.9204 110.91L64.0519 119.401Z" fill="white"/>
<path fill-rule="evenodd" clip-rule="evenodd" d="M71 130.606C76.237 131.839 81.6389 132 87 132C92.3615 132 97.7625 131.838 103 130.606V137.479C103 142.837 99.2455 147.641 93.7127 148.168C89.2424 148.593 84.7576 148.593 80.2873 148.168C74.7545 147.641 71 142.837 71 137.479V130.606Z" fill="black" fill-opacity="0.299"/>
<path fill-rule="evenodd" clip-rule="evenodd" d="M87 133.5C76.75 133.5 72.5 132.5 72.5 132.5V137.448C72.5379 137.529 72.7944 137.946 74.0471 138.406C75.8378 139.062 79.5165 139.75 87 139.75C94.4835 139.75 98.1621 139.062 99.9529 138.406C101.206 137.946 101.462 137.529 101.5 137.448V132.5C101.5 132.5 97.25 133.5 87 133.5ZM101.408 138.834C101.119 139.004 100.755 139.177 100.297 139.345C98.3378 140.063 94.5165 140.75 87 140.75C79.4835 140.75 75.6621 140.063 73.7029 139.345C73.2448 139.177 72.881 139.004 72.5921 138.834C73.1524 142.926 76.2204 146.273 80.4295 146.674C82.4245 146.864 84.6669 147 87 147C89.3331 147 91.5755 146.864 93.5705 146.674C97.7796 146.273 100.848 142.926 101.408 138.834Z" fill="white"/>
<path fill-rule="evenodd" clip-rule="evenodd" d="M636.391 95.5039C639.61 40.1832 660.579 16.3906 715.001 16.3906C769.422 16.3906 790.393 40.1831 793.61 95.5039C795.593 129.582 793.862 147.91 715.001 147.91C636.14 147.91 634.409 129.582 636.391 95.5039Z" fill="#6666FF"/>
<path fill-rule="evenodd" clip-rule="evenodd" d="M636.684 117.698C639.895 137.47 655.479 147.91 714.999 147.91C793.859 147.91 795.59 129.582 793.608 95.5036C792.7 79.8901 790.378 66.788 786.288 56.0234C788.543 64.7315 789.932 74.6786 790.586 85.9299C792.569 120.008 790.838 138.336 711.977 138.336C662.942 138.336 643.727 131.25 636.684 117.698Z" fill="black" fill-opacity="0.2"/>
<path d="M648.858 58.3406C648.391 42.3207 662.393 30.5 678.419 30.5H751.583C767.61 30.5 781.612 42.3207 781.144 58.3406C779.359 119.51 741.412 159.5 715.001 159.5C688.59 159.5 650.644 119.51 648.858 58.3406Z" fill="#FFA94D"/>
<path fill-rule="evenodd" clip-rule="evenodd" d="M678.137 138.602C690.012 152.027 703.584 159.499 715 159.499C741.411 159.499 779.358 119.51 781.143 58.3401C781.372 50.514 778.147 43.69 772.92 38.7568C773.356 40.3581 773.602 42.0447 773.63 43.799C774.666 108.89 734.845 151.941 707.442 151.941C698.389 151.941 687.98 147.242 678.137 138.602Z" fill="black" fill-opacity="0.15"/>
<path d="M715.002 17.6504C628.33 17.6504 641.683 78.623 650.502 110.369C650.502 45.3652 685.019 79.8828 685.019 43.3496C689.496 84.2049 779.502 41.334 779.502 120.951C792.603 84.418 801.674 17.6504 715.002 17.6504Z" fill="#6666FF"/>
<path fill-rule="evenodd" clip-rule="evenodd" d="M650.484 110.31C650.49 110.33 650.495 110.349 650.501 110.369C650.501 110.361 650.501 110.352 650.501 110.344C650.495 110.332 650.49 110.321 650.484 110.31ZM652.456 87.902C655.815 66.4928 664.383 61.8582 671.816 57.837C678.644 54.144 684.514 50.9684 684.514 35.791C686.316 52.2366 701.732 54.2993 719.509 56.6781C741.584 59.6319 767.3 63.073 775.115 95.1443C765.69 72.301 742.699 68.8054 722.28 65.7007C703.49 62.8437 686.877 60.3178 685.018 43.3496C685.018 59.0028 678.681 61.6124 671.438 64.5952C664.22 67.5677 656.101 70.9109 652.456 87.902Z" fill="black" fill-opacity="0.2"/>
<path fill-rule="evenodd" clip-rule="evenodd" d="M703.713 118.583C704.603 117.915 705.867 118.095 706.534 118.986C710.767 124.63 719.233 124.63 723.466 118.986C724.134 118.095 725.397 117.915 726.288 118.583C727.178 119.251 727.359 120.514 726.691 121.405C720.845 129.199 709.155 129.199 703.309 121.405C702.642 120.514 702.822 119.251 703.713 118.583Z" fill="black" fill-opacity="0.299"/>
<path d="M699.379 101.551C702.997 101.551 705.93 98.6179 705.93 95C705.93 91.3821 702.997 88.4492 699.379 88.4492C695.761 88.4492 692.828 91.3821 692.828 95C692.828 98.6179 695.761 101.551 699.379 101.551Z" fill="black" fill-opacity="0.299"/>
<path d="M730.621 101.551C734.239 101.551 737.172 98.6179 737.172 95C737.172 91.3821 734.239 88.4492 730.621 88.4492C727.003 88.4492 724.07 91.3821 724.07 95C724.07 98.6179 727.003 101.551 730.621 101.551Z" fill="black" fill-opacity="0.299"/>
<path fill-rule="evenodd" clip-rule="evenodd" d="M682.246 89.457C682.246 86.1174 684.953 83.4102 688.293 83.4102H705.426C708.765 83.4102 711.473 86.1174 711.473 89.457V93.521C712.247 93.2288 713.379 92.9844 715 92.9844C716.621 92.9844 717.753 93.2288 718.527 93.521V89.457C718.527 86.1174 721.235 83.4102 724.574 83.4102H741.707C745.047 83.4102 747.754 86.1174 747.754 89.457V100.543C747.754 103.883 745.047 106.59 741.707 106.59H724.574C721.235 106.59 718.527 103.883 718.527 100.543V96.124C717.713 95.7963 716.551 95.5039 715 95.5039C713.449 95.5039 712.287 95.7963 711.473 96.124V100.543C711.473 103.883 708.765 106.59 705.426 106.59H688.293C684.953 106.59 682.246 103.883 682.246 100.543V89.457ZM684.766 89.9609C684.766 87.7345 686.57 85.9297 688.797 85.9297H704.922C707.148 85.9297 708.953 87.7345 708.953 89.9609V100.039C708.953 102.265 707.148 104.07 704.922 104.07H688.797C686.57 104.07 684.766 102.265 684.766 100.039V89.9609ZM725.078 85.9297C722.852 85.9297 721.047 87.7345 721.047 89.9609V100.039C721.047 102.265 722.852 104.07 725.078 104.07H741.203C743.43 104.07 745.234 102.265 745.234 100.039V89.9609C745.234 87.7345 743.43 85.9297 741.203 85.9297H725.078Z" fill="black"/>
<path d="M125.736 167.618C125.784 149.474 140.466 134.5 158.61 134.5H221.39C239.534 134.5 254.216 149.474 254.264 167.618C254.418 225.8 254.109 263.5 190 263.5C125.891 263.5 125.581 225.8 125.736 167.618Z" fill="#FFC266"/>
<path fill-rule="evenodd" clip-rule="evenodd" d="M138.301 244.831C147.411 256.852 163.082 263.499 190.002 263.499C254.112 263.499 254.421 225.799 254.266 167.617C254.244 159.23 251.095 151.521 245.922 145.654C246.421 147.62 246.688 149.677 246.69 151.79C246.692 154.203 246.699 156.583 246.705 158.93C246.863 217.753 246.966 255.941 182.444 255.941C161.841 255.941 147.827 252.047 138.301 244.831Z" fill="black" fill-opacity="0.15"/>
<path d="M126.003 184.891C123.988 184.891 114.414 147.602 136.082 133.492C153.113 122.431 175.456 123.479 189.999 108.297C204.543 123.479 226.886 122.935 243.917 133.996C265.585 148.105 256.263 184.891 253.995 184.891C251.728 184.891 252.484 154.656 230.06 154.152C207.636 153.396 204.613 165.238 189.999 165.238C175.386 165.238 172.362 153.396 149.939 154.152C127.515 154.656 128.019 184.891 126.003 184.891Z" fill="#999999"/>
<path fill-rule="evenodd" clip-rule="evenodd" d="M149.942 146.594C162.516 146.17 168.989 149.707 174.827 152.896C179.401 155.395 183.583 157.68 190.003 157.68C196.423 157.68 200.605 155.395 205.179 152.896C211.017 149.707 217.49 146.17 230.064 146.594C245.801 146.948 251.772 165.668 253.825 176.801C254.15 178.565 254.3 181.54 254.422 184.577C254.264 184.783 254.121 184.891 253.998 184.891C253.45 184.891 253.079 183.124 252.514 180.438C250.742 172.011 247.067 154.534 230.063 154.152C217.49 153.729 211.016 157.265 205.178 160.454C200.605 162.953 196.422 165.238 190.002 165.238C183.583 165.238 179.4 162.953 174.826 160.454C168.989 157.265 162.515 153.729 149.942 154.152C132.7 154.54 129.013 172.506 127.314 180.788C126.803 183.276 126.472 184.891 126.006 184.891C125.856 184.891 125.664 184.683 125.445 184.293C125.65 181.355 125.866 178.51 126.181 176.801C128.234 165.668 134.205 146.948 149.942 146.594Z" fill="black" fill-opacity="0.15"/>
<path fill-rule="evenodd" clip-rule="evenodd" d="M198.226 216.133C205.204 216.133 207.272 225.008 213.217 227.99C217.795 230.287 221.746 226.758 221.746 227.99C221.746 237.953 193.966 236.648 189.998 226.04H190.002C186.034 236.648 158.254 237.953 158.254 227.99C158.254 226.758 162.205 230.287 166.783 227.99C172.728 225.008 174.796 216.133 181.774 216.133C186.682 216.133 189.078 217.915 190 220.419C190.922 217.915 193.318 216.133 198.226 216.133Z" fill="#999999"/>
<path fill-rule="evenodd" clip-rule="evenodd" d="M159.845 228.088C159.775 228.064 159.708 228.041 159.643 228.019C158.769 227.721 158.254 227.545 158.254 227.99C158.254 237.951 186.026 236.648 190 226.045C193.974 236.648 221.746 237.951 221.746 227.99C221.746 227.545 221.231 227.721 220.357 228.019C220.292 228.041 220.225 228.064 220.155 228.088C214.201 233.851 193.398 231.585 190 222.517C190.001 222.516 190.001 222.514 190.002 222.513H189.998C189.999 222.514 189.999 222.516 190 222.517C186.602 231.585 165.799 233.851 159.845 228.088ZM190 226.045C190.001 226.043 190.001 226.042 190.002 226.04H189.998C189.999 226.042 189.999 226.043 190 226.045Z" fill="black" fill-opacity="0.15"/>
<path d="M219.229 200.008C219.229 188.418 211.922 188.418 206.883 188.418C201.844 188.418 192.773 189.174 192.773 195.221C192.773 201.771 201.844 212.102 209.15 212.102C214.441 212.102 219.229 206.815 219.229 200.008Z" fill="black"/>
<path fill-rule="evenodd" clip-rule="evenodd" d="M216.203 193.156L198.062 203.63C198.46 204.127 198.881 204.614 199.322 205.085C199.329 205.092 199.336 205.099 199.342 205.107L217.016 194.903C216.788 194.223 216.512 193.646 216.203 193.156ZM217.515 197.05L200.91 206.637C203.622 209.054 206.625 210.59 209.147 210.59C213.39 210.59 217.713 206.21 217.713 200.008C217.713 198.896 217.643 197.916 217.515 197.05Z" fill="white"/>
<path d="M160.771 200.008C160.771 188.418 168.078 188.418 173.117 188.418C178.156 188.418 187.227 189.174 187.227 195.221C187.227 201.771 178.156 212.102 170.85 212.102C165.559 212.102 160.771 206.815 160.771 200.008Z" fill="black"/>
<path fill-rule="evenodd" clip-rule="evenodd" d="M164.846 207.47C164.447 206.988 164.083 206.456 163.762 205.881L185.275 193.46C185.56 193.956 185.717 194.531 185.717 195.221C185.717 195.288 185.716 195.355 185.713 195.423L164.846 207.47ZM185.111 198.207C184.907 198.763 184.654 199.341 184.351 199.935C183.457 201.685 182.181 203.476 180.676 205.086C177.598 208.377 173.878 210.59 170.852 210.59C169.318 210.59 167.773 210.018 166.426 208.994L185.111 198.207Z" fill="white"/>
<path fill-rule="evenodd" clip-rule="evenodd" d="M190.002 193.457C190.893 193.457 191.435 193.68 191.753 193.977C192.062 194.267 192.27 194.734 192.27 195.473C192.27 195.89 192.608 196.229 193.025 196.229C193.443 196.229 193.781 195.89 193.781 195.473C193.781 194.448 193.485 193.529 192.786 192.874C192.096 192.227 191.127 191.945 190.002 191.945C188.877 191.945 187.908 192.227 187.217 192.874C186.519 193.529 186.223 194.448 186.223 195.473C186.223 195.89 186.561 196.229 186.979 196.229C187.396 196.229 187.734 195.89 187.734 195.473C187.734 194.734 187.942 194.267 188.251 193.977C188.569 193.68 189.111 193.457 190.002 193.457Z" fill="black"/>
<path fill-rule="evenodd" clip-rule="evenodd" d="M180.678 188.67H190H199.322C199.74 188.67 200.078 189.008 200.078 189.426C200.078 189.843 199.74 190.182 199.322 190.182H190H180.678C180.26 190.182 179.922 189.843 179.922 189.426C179.922 189.008 180.26 188.67 180.678 188.67Z" fill="black"/>
<path d="M407.002 243.643C353.335 243.643 314.283 234.572 326.881 207.361C314.284 199.551 315.291 180.654 329.904 175.363C321.086 118.926 373.461 105.824 407.002 105.824C440.543 105.824 484.1 120.186 484.1 175.363C495.186 179.646 497.957 200.307 487.123 207.361C499.721 234.572 460.668 243.643 407.002 243.643Z" fill="#FF4B4B"/>
<path fill-rule="evenodd" clip-rule="evenodd" d="M327.449 225.907C340.899 234.722 368.204 238.099 400.951 238.099C454.617 238.099 493.67 229.785 480.569 202.574C490.899 199.802 488.883 182.922 480.569 179.142C482.521 168.058 482.178 157.069 479.309 146.973C482.358 154.948 484.096 164.341 484.096 175.363C495.182 179.646 497.953 200.306 487.119 207.361C499.717 234.572 460.664 243.642 406.998 243.642C368.114 243.642 336.902 238.881 327.449 225.907Z" fill="black" fill-opacity="0.15"/>
<path d="M341.032 157.108C340.717 140.767 354.813 128.5 371.157 128.5H442.844C459.188 128.5 473.284 140.767 472.969 157.108C471.796 217.845 442.068 257.5 407 257.5C371.933 257.5 342.204 217.845 341.032 157.108Z" fill="#FFF066"/>
<path fill-rule="evenodd" clip-rule="evenodd" d="M366.742 237.182C377.972 250.243 391.997 257.5 406.998 257.5C442.065 257.5 471.794 217.845 472.967 157.108C473.119 149.199 469.895 142.243 464.675 137.172C465.127 138.828 465.383 140.571 465.414 142.381C466.536 207.147 435.868 249.941 399.44 249.941C387.641 249.941 376.448 245.453 366.742 237.182Z" fill="black" fill-opacity="0.15"/>
<path d="M454.205 146.621C433.869 164.186 358.827 174.355 335.948 174.355C318.563 86.6756 477.798 102.801 475.026 152.939C474.507 162.335 461.389 169.756 444.288 171.836C451.091 164.529 455.878 153.947 454.205 146.621Z" fill="#FF4B4B"/>
<path fill-rule="evenodd" clip-rule="evenodd" d="M337.967 167.553C364.17 167.553 442.023 153.443 454.621 136.562C458.148 147.145 457.393 157.475 451.598 165.033C457.178 164.289 468.527 160.661 474.693 155.061C472.479 163.44 460.084 169.915 444.292 171.836C451.095 164.529 455.882 153.947 454.209 146.622C433.873 164.186 358.83 174.355 335.952 174.355C333.64 162.696 334.451 152.873 337.589 144.721C336.322 151.377 336.352 158.963 337.967 167.553Z" fill="black" fill-opacity="0.15"/>
<path fill-rule="evenodd" clip-rule="evenodd" d="M421.613 215.676C421.613 223.605 416.113 235.328 407 235.328C397.887 235.328 392.387 223.605 392.387 215.676H421.613Z" fill="black" fill-opacity="0.299"/>
<path fill-rule="evenodd" clip-rule="evenodd" d="M410.907 232.352C409.689 232.973 408.382 233.312 407.003 233.312C403.434 233.312 400.347 231.043 398.035 227.48C399.722 227.131 401.855 227.211 404.068 227.804C407.397 228.696 409.99 230.502 410.907 232.352Z" fill="#FF5858"/>
<path fill-rule="evenodd" clip-rule="evenodd" d="M418.284 222.73H395.715C395.113 221.034 394.711 219.308 394.523 217.691H419.475C419.288 219.308 418.885 221.034 418.284 222.73Z" fill="white"/>
<path fill-rule="evenodd" clip-rule="evenodd" d="M403.419 194.146C402.842 200.288 397.672 205.094 391.379 205.094C384.7 205.094 379.285 199.679 379.285 193C379.285 186.321 384.7 180.906 391.379 180.906C397.569 180.906 402.673 185.557 403.387 191.554C404.163 191.247 405.318 190.984 407 190.984C408.682 190.984 409.837 191.247 410.613 191.554C411.327 185.557 416.431 180.906 422.621 180.906C429.3 180.906 434.715 186.321 434.715 193C434.715 199.679 429.3 205.094 422.621 205.094C416.328 205.094 411.158 200.288 410.581 194.146C409.764 193.809 408.586 193.504 407 193.504C405.414 193.504 404.236 193.809 403.419 194.146ZM400.953 193C400.953 198.288 396.667 202.574 391.379 202.574C386.091 202.574 381.805 198.288 381.805 193C381.805 187.712 386.091 183.426 391.379 183.426C396.667 183.426 400.953 187.712 400.953 193ZM422.621 202.574C427.909 202.574 432.195 198.288 432.195 193C432.195 187.712 427.909 183.426 422.621 183.426C417.333 183.426 413.047 187.712 413.047 193C413.047 198.288 417.333 202.574 422.621 202.574Z" fill="black"/>
<path d="M391.379 199.047C394.719 199.047 397.426 196.34 397.426 193C397.426 189.66 394.719 186.953 391.379 186.953C388.039 186.953 385.332 189.66 385.332 193C385.332 196.34 388.039 199.047 391.379 199.047Z" fill="black" fill-opacity="0.299"/>
<path d="M422.621 199.047C425.961 199.047 428.668 196.34 428.668 193C428.668 189.66 425.961 186.953 422.621 186.953C419.281 186.953 416.574 189.66 416.574 193C416.574 196.34 419.281 199.047 422.621 199.047Z" fill="black" fill-opacity="0.299"/>
<path d="M234 243C234 229.745 244.745 219 258 219H338C351.255 219 362 229.745 362 243V283C362 318.346 333.346 347 298 347V347C262.654 347 234 318.346 234 283V243Z" fill="#FF794D"/>
<path fill-rule="evenodd" clip-rule="evenodd" d="M249.152 324.35C260.892 338.205 278.42 347 298.002 347C333.349 347 362.002 318.346 362.002 283V243C362.002 234.452 357.534 226.948 350.806 222.696C353.147 226.402 354.502 230.792 354.502 235.5V275.5C354.502 310.846 325.849 339.5 290.502 339.5C274.739 339.5 260.306 333.8 249.152 324.35Z" fill="black" fill-opacity="0.15"/>
<path d="M297.999 250.25C278.249 250.25 248.149 244.5 242.749 239.5C244.999 249.25 241.749 259.75 233.999 267C224.749 222 239.999 206 286.249 197.5C281.749 202 279.749 206.75 278.249 211.75C289.999 200.5 299.749 194 318.749 194C313.499 200 314.999 212.75 319.999 216.75C321.999 212.25 321.999 207.5 320.999 201.75C364.249 209.5 369.499 231.25 361.999 267C353.999 260.75 349.499 252.75 353.249 239.5C347.849 244.5 317.749 250.25 297.999 250.25Z" fill="#3955FF"/>
<path fill-rule="evenodd" clip-rule="evenodd" d="M320.082 216.559C320.141 216.423 320.198 216.287 320.253 216.15C320.203 216.283 320.147 216.419 320.082 216.559ZM318.749 194C313.501 199.998 314.997 212.74 319.992 216.745C319.505 217.718 318.642 218.857 317.249 220.25C308.847 216.933 309.44 200.121 313.149 194.206C314.926 194.069 316.788 194 318.749 194ZM286.249 197.5C284.435 197.833 282.668 198.178 280.949 198.536C276.103 203.738 274.204 209.934 273.749 216.75C275.241 214.995 276.793 213.272 278.267 211.687C279.765 206.71 281.767 201.981 286.249 197.5ZM301.514 243.25C281.764 243.25 244.648 238.25 239.248 233.25L239.262 233.333C240.827 242.275 242.359 251.026 233.129 262.446C233.389 263.93 233.679 265.448 233.998 267C241.749 259.75 244.999 249.25 242.748 239.5C248.149 244.5 278.248 250.25 297.998 250.25C317.748 250.25 347.848 244.5 353.248 239.5C349.499 252.75 353.998 260.75 361.998 267C362.344 265.351 362.663 263.731 362.953 262.141C352.165 254.512 355.985 238.825 357.487 232.657C357.593 232.222 357.687 231.834 357.764 231.5C352.364 236.5 321.264 243.25 301.514 243.25Z" fill="black" fill-opacity="0.2"/>
<path d="M265.315 276H330.686C332.777 276 334.226 278.085 333.498 280.045L329.953 289.589C329.08 291.94 326.837 293.5 324.329 293.5H308.673C306.165 293.5 303.921 291.94 303.048 289.589L299.486 280H296.515L292.953 289.589C292.08 291.94 289.837 293.5 287.329 293.5H271.673C269.165 293.5 266.921 291.94 266.048 289.589L262.503 280.045C261.775 278.085 263.225 276 265.315 276Z" fill="black"/>
<path d="M331.393 279.961L307.226 291.23C307.677 291.405 308.165 291.5 308.67 291.5H324.326C325.998 291.5 327.493 290.46 328.075 288.893L331.393 279.961Z" fill="white"/>
<path d="M291.076 288.893L294.353 280.072L270.336 291.271C270.757 291.42 271.207 291.5 271.67 291.5H287.327C288.998 291.5 290.494 290.46 291.076 288.893Z" fill="white"/>
<path fill-rule="evenodd" clip-rule="evenodd" d="M272.656 323.5C271.658 346.946 274.247 352 297.999 352C321.75 352 324.185 344.03 323.499 323.5C322.565 295.5 315.827 302.962 298.078 303C280.226 302.962 273.594 295.5 272.656 323.5ZM312.499 311C312.499 317 316.5 326.5 310.499 326.5C304.832 326.5 311 316.5 298.078 316.5C285.155 316.5 291.324 326.5 285.656 326.5C279.656 326.5 283.5 317 283.5 311C289.844 313.5 306 313.5 312.499 311Z" fill="#3955FF"/>
<path fill-rule="evenodd" clip-rule="evenodd" d="M272.516 327.638C272.972 342.894 277.934 346.5 297.999 346.5C317.994 346.5 323.015 340.846 323.582 326.813C323.848 344.893 320.428 352 297.999 352C275.715 352 272.059 347.552 272.516 327.638ZM314.564 313.724C314.463 311.617 314.366 309.596 314.499 308C308 310.5 287.844 310.5 281.5 308C281.628 309.539 281.559 311.474 281.487 313.499C281.343 317.521 281.186 321.901 282.537 324.26C281.995 322.37 282.439 319.518 282.887 316.637C283.192 314.674 283.5 312.697 283.5 311C289.844 313.5 306 313.5 312.499 311C312.499 312.732 312.832 314.756 313.162 316.759C313.658 319.764 314.145 322.723 313.486 324.576C314.979 322.35 314.764 317.871 314.564 313.724Z" fill="black" fill-opacity="0.2"/>
<path d="M549 140C549 126.745 559.745 116 573 116H653C666.255 116 677 126.745 677 140V188C677 218.928 651.928 244 621 244H605C574.072 244 549 218.928 549 188V140Z" fill="#FE59AF"/>
<path fill-rule="evenodd" clip-rule="evenodd" d="M561.828 223.671C572.1 236.088 587.626 244 604.999 244H620.999C651.927 244 676.999 218.928 676.999 188V140C676.999 131.452 672.531 123.948 665.803 119.696C668.144 123.402 669.499 127.792 669.499 132.5V184.5C669.499 213.218 646.218 236.5 617.499 236.5H597.499C583.945 236.5 571.515 231.684 561.828 223.671Z" fill="black" fill-opacity="0.2"/>
<path d="M562 129.5C564.5 146.25 557.25 156.5 549 164C536.5 108.75 572.5 100.5 613 100.5C653.5 100.5 690 110.75 677 164L676.865 163.886C670.653 158.67 664 153.082 664 130C628 145.25 598 144.75 562 129.5Z" fill="#4CFFA6"/>
<path fill-rule="evenodd" clip-rule="evenodd" d="M548.066 159.476C556.012 151.957 561.444 140.365 559.001 124C595.001 139.25 631.001 139.75 667.001 124.5C667.001 147.115 671.968 154.355 677.991 159.565C677.701 161.009 677.371 162.487 677.002 164L676.866 163.886C670.655 158.67 664.002 153.082 664.002 130C628.002 145.25 598.002 144.75 562.002 129.5C564.502 146.25 557.252 156.5 549.002 164C548.653 162.455 548.341 160.948 548.066 159.476Z" fill="black" fill-opacity="0.15"/>
<path fill-rule="evenodd" clip-rule="evenodd" d="M584 176C584 173.791 585.791 172 588 172H604C606.209 172 608 173.791 608 176V179.338C608.871 178.936 610.413 178.5 613 178.5C615.587 178.5 617.129 178.936 618 179.338V176C618 173.791 619.791 172 622 172H638C640.209 172 642 173.791 642 176V186C642 188.209 640.209 190 638 190H622C619.791 190 618 188.209 618 186V181.927C617.061 181.504 615.433 181 613 181C610.567 181 608.939 181.504 608 181.927V186C608 188.209 606.209 190 604 190H588C585.791 190 584 188.209 584 186V176Z" fill="black"/>
<path fill-rule="evenodd" clip-rule="evenodd" d="M622.933 188H622.5C621.712 188 621.009 187.636 620.551 187.066L639.923 175.882C639.973 176.08 640 176.287 640 176.5V178.147L622.933 188ZM640 180.337V185.5C640 186.881 638.88 188 637.5 188H626.727L640 180.337Z" fill="white"/>
<path fill-rule="evenodd" clip-rule="evenodd" d="M588.932 188H588.5C587.712 188 587.009 187.635 586.551 187.065L605.923 175.881C605.973 176.079 606 176.286 606 176.5V178.146L588.932 188ZM606 180.336V185.5C606 186.881 604.881 188 603.5 188H592.726L606 180.336Z" fill="white"/>
<path fill-rule="evenodd" clip-rule="evenodd" d="M620 201C626.924 201 630.101 207.041 636 208.5C640.934 209.721 649.5 209.5 649.5 209.5C643.5 217.5 616.002 219.25 613.002 207.831C610.002 219.25 583.5 217.5 576.5 209.5C576.5 209.5 585.066 209.721 590 208.5C595.899 207.041 599.076 201 606 201C610.87 201 612.085 203.015 613 205C613.915 203.015 615.13 201 620 201Z" fill="#4CFFA6"/>
<path fill-rule="evenodd" clip-rule="evenodd" d="M580.491 209.485C578.185 209.544 576.5 209.5 576.5 209.5C583.5 217.5 610.002 219.25 613.002 207.831C616.002 219.25 643.5 217.5 649.5 209.5C649.5 209.5 647.959 209.54 645.808 209.492C636.266 214.713 615.726 214.64 613.03 204.936C613.02 204.957 613.01 204.979 613 205C612.991 204.98 612.982 204.96 612.972 204.94C610.276 214.645 590.452 214.712 580.491 209.485Z" fill="black" fill-opacity="0.15"/>
<path d="M612.999 219.5C604.999 219.5 599.999 222.25 612.999 251.25C625.999 222.25 620.999 219.5 612.999 219.5Z" fill="#4CFFA6"/>
<path fill-rule="evenodd" clip-rule="evenodd" d="M605.332 223.504C606.126 228.229 608.47 235.146 612.999 245.25C617.528 235.146 619.873 228.229 620.666 223.504C621.799 227.546 620.036 235.552 612.999 251.25C605.962 235.552 604.2 227.546 605.332 223.504Z" fill="black" fill-opacity="0.15"/>
<path d="M-11.6484 306.518C1.45293 315.336 30.1763 324.658 72.0004 324.658C113.825 324.658 142.547 315.336 155.649 306.518C137.004 283.338 154.137 249.324 142.547 226.396C130.957 203.469 113.321 190.115 72.0003 190.115C30.6795 190.115 13.0428 203.469 1.45293 226.396C-10.1369 249.324 6.9959 283.338 -11.6484 306.518Z" fill="#FF53EE"/>
<path fill-rule="evenodd" clip-rule="evenodd" d="M72.0006 316.596C30.1765 316.596 8.50782 310.801 -4.59355 301.983C0.708928 291.032 -0.633095 277.604 -2.54007 264.061C-1.93362 279.083 -1.8247 294.304 -11.6484 306.518C1.45292 315.336 30.1763 324.658 72.0004 324.658C113.825 324.658 142.547 315.336 155.649 306.518C145.977 294.494 145.933 279.555 146.512 264.76C144.93 275.543 144.135 287.823 148.846 303.242C134.737 311.305 113.825 316.596 72.0006 316.596Z" fill="black" fill-opacity="0.15"/>
<path d="M5.94582 235.722C5.54956 219.542 19.5988 207.5 35.7837 207.5H108.215C124.399 207.5 138.449 219.542 138.052 235.722C136.56 296.677 102.748 336.5 71.9991 336.5C41.2505 336.5 7.43859 296.677 5.94582 235.722Z" fill="#FFFF80"/>
<path fill-rule="evenodd" clip-rule="evenodd" d="M33.4688 315.919C45.0062 329.145 58.7862 336.5 72.0005 336.5C102.749 336.5 136.561 296.676 138.054 235.722C138.246 227.853 135.023 220.963 129.798 215.961C130.243 217.59 130.493 219.306 130.523 221.088C131.59 286.018 96.3648 328.941 64.4419 328.941C54.0095 328.941 43.2245 324.357 33.4688 315.919Z" fill="black" fill-opacity="0.15"/>
<path d="M7.49974 267.213C-14.1682 220.602 22.4341 193.391 73.8329 193.391C125.232 193.391 151.617 219.594 140.096 263.686C127.499 253.103 123.72 238.238 125.483 226.648C91.7215 278.299 7.49974 201.957 7.49974 267.213Z" fill="#FF53EE"/>
<path fill-rule="evenodd" clip-rule="evenodd" d="M7.96875 259.468C11.3113 234.255 32.1014 237.958 56.1871 242.247C80.9186 246.652 109.125 251.675 125.484 226.648C123.72 238.238 127.499 253.103 140.097 263.685C140.1 263.672 140.104 263.659 140.107 263.646C127.185 242.411 127.309 230.28 129.012 219.09C111.3 243.911 83.81 239.298 59.4542 235.211C33.6906 230.887 11.4343 227.152 7.96875 259.468Z" fill="black" fill-opacity="0.15"/>
<path fill-rule="evenodd" clip-rule="evenodd" d="M86.8693 294.068C85.8384 293.648 84.6622 294.144 84.2422 295.175C81.9009 300.921 74.9065 304.131 68.3766 302.78C67.2865 302.554 66.2199 303.255 65.9944 304.345C65.7689 305.435 66.4697 306.502 67.5598 306.727C75.6432 308.4 84.7738 304.554 87.9755 296.696C88.3955 295.665 87.9003 294.488 86.8693 294.068Z" fill="black" fill-opacity="0.299"/>
<path d="M51.3394 262.426C39.75 262.426 39.75 264.189 39.75 272.504C39.75 282.834 46.3675 284.094 52.0953 284.094C63.4959 284.094 65.4627 279.775 67.9688 274.771C70.4748 269.768 73.5251 269.768 76.0312 274.771C78.5374 279.775 80.5043 284.094 91.9049 284.094C97.6327 284.094 104.25 282.834 104.25 272.504C104.25 264.189 104.25 262.426 92.6607 262.426C79.5587 262.426 79.5587 265.701 72.0001 265.701C64.4415 265.701 64.4414 262.426 51.3394 262.426Z" fill="black"/>
<path d="M66.6771 268.882L45.5347 280.697C44.9213 280.351 44.3576 279.922 43.8633 279.392L65.5616 267.267C66.1734 267.742 66.5676 268.28 66.6771 268.882Z" fill="white"/>
<path d="M66.5788 271.071C65.9414 275.701 62.7444 282.078 52.5668 282.078C50.9786 282.078 49.3123 281.977 47.7767 281.578L66.5788 271.071Z" fill="white"/>
<path d="M101.783 267.228L81.2539 278.7C81.761 279.163 82.3278 279.595 82.9602 279.985L102.157 269.257C102.095 268.459 101.984 267.789 101.783 267.228Z" fill="white"/>
<path d="M102.23 271.35L84.9841 280.988C86.7356 281.671 88.8613 282.078 91.4326 282.078C98.6837 282.078 102.294 278.542 102.23 271.35Z" fill="white"/>
<path fill-rule="evenodd" clip-rule="evenodd" d="M432.392 277.504C439.138 222.183 453.556 198.391 511.001 198.391C568.447 198.391 582.866 222.183 589.611 277.504C593.743 311.389 594.902 329.91 511.002 329.91C427.102 329.91 428.26 311.389 432.392 277.504Z" fill="#884DFF"/>
<path fill-rule="evenodd" clip-rule="evenodd" d="M431.285 301.377C433.743 319.986 449.582 329.91 510.996 329.91C594.896 329.91 593.737 311.389 589.605 277.504C587.464 259.938 584.548 245.552 579.727 234.096C582.828 243.705 584.999 254.949 586.582 267.93C590.713 301.815 591.872 320.336 507.972 320.336C458.115 320.336 438.294 313.795 431.285 301.377Z" fill="black" fill-opacity="0.15"/>
<path d="M444.946 240.722C444.55 224.542 458.599 212.5 474.784 212.5H547.215C563.399 212.5 577.449 224.542 577.052 240.722C575.56 301.677 541.748 341.5 510.999 341.5C480.251 341.5 446.439 301.677 444.946 240.722Z" fill="#D5FF80"/>
<path fill-rule="evenodd" clip-rule="evenodd" d="M472.469 320.919C484.006 334.145 497.786 341.5 511 341.5C541.749 341.5 575.561 301.676 577.054 240.722C577.246 232.853 574.023 225.963 568.798 220.961C569.243 222.59 569.493 224.306 569.523 226.088C570.59 291.018 535.365 333.941 503.442 333.941C493.009 333.941 482.225 329.357 472.469 320.919Z" fill="black" fill-opacity="0.15"/>
<path d="M508.089 251.301C507.081 242.23 503.554 234.924 500.026 229.129C504.561 234.924 528.245 254.072 552.433 255.332C553.833 249.789 554.337 244.246 552.433 236.688C555.344 244.498 567.326 261.631 578.524 264.906C582.807 244.75 586.81 201.414 511.112 201.414C435.414 201.414 439.698 243.742 443.477 264.906C455.571 261.379 459.603 243.994 456.186 235.68C466.517 248.025 488.457 251.301 508.089 251.301Z" fill="#884DFF"/>
<path fill-rule="evenodd" clip-rule="evenodd" d="M496.879 226.001C499.813 231.025 504.207 238.553 505.064 246.262C485.433 246.262 463.996 242.986 453.665 230.641C456.267 238.739 454.336 256.476 443.672 264.848C455.614 261.192 459.584 243.949 456.186 235.68C466.516 248.025 488.457 251.301 508.089 251.301C507.081 242.23 503.554 234.924 500.026 229.129C504.561 234.924 528.245 254.072 552.432 255.332C553.833 249.789 554.336 244.246 552.432 236.688C555.335 244.474 567.251 261.524 578.419 264.875C566.305 254.959 552.773 236.071 549.549 226.861C551.313 234.168 552.573 246.514 551.313 250.545C527.125 249.285 500.025 229.381 495.49 223.586C495.889 224.304 496.361 225.114 496.879 226.001Z" fill="black" fill-opacity="0.15"/>
<path d="M511 312.777C503.441 312.777 496.387 303.707 496.387 303.707C496.387 303.707 503.441 305.471 511 305.471C518.559 305.471 525.613 303.707 525.613 303.707C525.613 303.707 518.559 312.777 511 312.777Z" fill="#884DFF"/>
<path fill-rule="evenodd" clip-rule="evenodd" d="M496.422 303.754C499.643 306.143 505.433 309.754 510.998 309.754C516.563 309.754 522.353 306.143 525.575 303.754C525.018 304.453 518.239 312.778 510.998 312.778C503.757 312.778 496.98 304.455 496.422 303.754Z" fill="black" fill-opacity="0.15"/>
<path fill-rule="evenodd" clip-rule="evenodd" d="M496.61 303.984C500.078 305.061 505.175 306.227 511 306.227C516.825 306.227 521.922 305.061 525.39 303.984C525.536 303.806 525.613 303.707 525.613 303.707C525.613 303.707 518.559 305.471 511 305.471C503.441 305.471 496.387 303.707 496.387 303.707C496.387 303.707 496.464 303.806 496.61 303.984Z" fill="black" fill-opacity="0.15"/>
<path d="M511 301.692C507.977 298.164 502.434 302.196 496.387 303.707C496.387 303.707 503.441 305.471 511 305.471C518.559 305.471 525.614 303.707 525.614 303.707C519.566 302.196 514.023 298.164 511 301.692Z" fill="#884DFF"/>
<path d="M495.379 285.062C498.719 285.062 501.426 282.355 501.426 279.016C501.426 275.676 498.719 272.969 495.379 272.969C492.039 272.969 489.332 275.676 489.332 279.016C489.332 282.355 492.039 285.062 495.379 285.062Z" fill="black" fill-opacity="0.299"/>
<path d="M526.621 285.062C529.961 285.062 532.668 282.355 532.668 279.016C532.668 275.676 529.961 272.969 526.621 272.969C523.281 272.969 520.574 275.676 520.574 279.016C520.574 282.355 523.281 285.062 526.621 285.062Z" fill="black" fill-opacity="0.299"/>
<path fill-rule="evenodd" clip-rule="evenodd" d="M496.387 266.922H488.324C481.645 266.922 476.23 272.336 476.23 279.016C476.23 285.695 481.645 291.109 488.324 291.109H496.387C502.725 291.109 507.925 286.233 508.439 280.027C510.037 279.341 511.963 279.341 513.561 280.027C514.075 286.233 519.275 291.109 525.613 291.109H533.676C540.355 291.109 545.77 285.695 545.77 279.016C545.77 272.336 540.355 266.922 533.676 266.922H525.613C519.632 266.922 514.665 271.264 513.692 276.967C512.04 276.305 509.96 276.305 508.308 276.967C507.335 271.264 502.368 266.922 496.387 266.922ZM496.387 269.945C501.396 269.945 505.457 274.006 505.457 279.016C505.457 284.025 501.396 288.086 496.387 288.086H488.324C483.315 288.086 479.254 284.025 479.254 279.016C479.254 274.006 483.315 269.945 488.324 269.945H496.387ZM533.676 269.945C538.685 269.945 542.746 274.006 542.746 279.016C542.746 284.025 538.685 288.086 533.676 288.086H525.613C520.604 288.086 516.543 284.025 516.543 279.016C516.543 274.006 520.604 269.945 525.613 269.945H533.676Z" fill="black"/>
</g>
<defs>
<clipPath id="clip0">
<rect width="795" height="367" fill="white"/>
</clipPath>
</defs>
</svg>
