<svg xmlns="http://www.w3.org/2000/svg" xmlns:xlink="http://www.w3.org/1999/xlink" width="1440" height="367" fill="none" xmlns:v="https://vecta.io/nano"><style><![CDATA[.B{fill:#000}.C{fill-rule:evenodd}.D{fill-opacity:.15}.E{fill-opacity:.3}.F{fill:#fff}.G{fill:#ff5858}.H{fill-opacity:.25}.I{fill-opacity:.2}.J{fill:#884dff}.K{fill:#4cffa6}.L{fill:#ff53ee}.M{fill:#ff4d4d}]]></style><g clip-path="url(#A)"><path d="M1084 64c0-13.2548 10.75-24 24-24h80c13.25 0 24 10.7452 24 24v54c0 27.614-22.4 50-50 50h-28c-27.6 0-50-22.386-50-50V64z" fill="#58ff55"/><g class="C"><path d="M1099.92 154.584c8.93 8.323 20.9 13.415 34.08 13.415h28c27.6 0 50-22.386 50-50V63.9986c0-8.5476-4.47-16.0515-11.2-20.3033 2.34 3.7054 3.7 8.096 3.7 12.8033V114.5c0 25.405-20.6 46-46 46h-36c-8.2 0-15.9-2.15-22.58-5.915z" class="B D"/><path d="M1077.5 83.4995c40 5 84.5-5.5 99.75-26.25 0 12 17.75 26.25 41.25 26.25 6.5-19 0-54.5-32.25-52.75-22.75-25.5-120.75-15.741-108.75 52.75z" fill="#00747b"/><g class="B D"><path d="M1182 45.5002c-15.25 20.75-60.25 34.74-100.25 29.741-1.42-13.9943 1.28-25.735 6.83-35.2667-9.4 10.4283-14.36 24.7763-11.08 43.5256 40 5 84.5-5.5 99.75-26.25 0 12 17.75 26.25 41.25 26.25.86-2.5207 1.5-5.3317 1.87-8.3077-22.4-1.027-38.37-18.058-38.37-29.6923z"/></g></g><use xlink:href="#B" class="B E"/><path d="M1164.75 111c3.45 0 6.25-2.798 6.25-6.25s-2.8-6.25-6.25-6.25-6.25 2.798-6.25 6.25 2.8 6.25 6.25 6.25z" class="B E"/><g class="C"><path d="M1145.32 102.338c-1.06 6.812-4.93 15.162-14.07 15.162-4.93 0-14.96-3.644-13.8-20.7506.03-.466.3-.8994.7-1.1274 2.43-1.362 7.88-3.622 13.1-3.622s6 2.1472 9.25 2.5c2.62.284 3.5-1.25 7.5-1.25s4.7 1.554 7.5 1.25c3.25-.3528 4.02-2.5 9.25-2.5s10.68 2.26 13.12 3.622c.4.228.66.6614.7 1.1274 1.15 17.1066-8.88 20.7506-13.8 20.7506-9.14 0-13-8.35-14.07-15.162-.25-1.583 2.37-3.0334 3.07-4.338-3.14-2.5254-8.35-2.523-11.5 0 .7 1.304 3.32 2.756 3.07 4.338zM1121 104.75c0 5.66 4.6 10.25 10.25 10.25s10.25-4.59 10.25-10.25-4.6-10.25-10.25-10.25-10.25 4.589-10.25 10.25zm54 0c0 5.66-4.6 10.25-10.25 10.25s-10.25-4.59-10.25-10.25 4.6-10.25 10.25-10.25 10.25 4.589 10.25 10.25z" class="B"/><path d="M1162.3 130.598c.52 1.043.03 2.24-1 2.726-8.17 3.884-18.5 3.93-26.64-.03-1.04-.507-1.45-1.652-.94-2.696.5-1.016 1.72-1.363 2.7-.89 7.1 3.376 15.86 3.313 23 .072 1.05-.474 2.3-.314 2.87.817z" class="B E"/><path d="M217 109.5c8-55 28.75-84.25 83-84.25s74.5 29.25 83 84.25c4.326 27.992-30.75 52-83 52s-87.078-23.97-83-52z" fill="#ff974d"/><path d="M217.5 120.907c5.45 22.826 37.52 40.592 82.5 40.592 52.25 0 87.326-24.008 83-52-2.07-13.3888-4.835-25.2516-8.617-35.538 2.543 8.437 4.535 17.7907 6.118 28.038 4.326 27.992-30.75 52-83 52-39.875 0-70.12-14.045-80.002-33.092z" class="B D"/></g><path d="M235.318 74.9656C234.89 58.1134 249.106 45 265.964 45h68.072c16.858 0 31.073 13.1135 30.646 29.9657C363.178 134.338 343.113 173 300 173s-63.178-38.662-64.682-98.0344z" fill="#0094ff"/><g class="C"><path d="M257.375 153.67C267.7 166.106 281.794 173 300 173c43.113 0 63.178-38.662 64.682-98.0348.204-8.0637-2.944-15.2714-8.13-20.596.47 1.784.72 3.6596.722 5.6018.03 63.593-19.872 105.529-64.774 105.529-14.13 0-25.787-4.154-35.124-11.83z" class="B D"/><path d="M231.48 84.9993c29.5 0 81.93 3.824 111.27-20.25-3 4-5.5 10.25-6.02 14.5 11.898 0 24.27-1 32.25-6.75 0-56.75-143.98-61.75-137.5 12.5z" fill="#ff974d"/><g class="B D"><path d="M243.742 85.1208c33.695-1.8692 81.71-8.3147 104.886-27.3298-3 4-6.23 15.2504-6.75 19.5004l.724.035c4.2.2086 13.168.6543 23.318-2.9527-7.888 4.1026-18.724 4.8768-29.192 4.8768.52-4.25 3.02-10.5 6.02-14.5-25.61 21.0144-68.816 20.7714-99.006 20.3702z"/></g></g><path d="M284 116c3.314 0 6-2.686 6-6s-2.686-6-6-6-6 2.686-6 6 2.686 6 6 6zm32 0c3.314 0 6-2.686 6-6s-2.686-6-6-6-6 2.686-6 6 2.686 6 6 6z" class="B E"/><g class="C"><path d="M296.482 110.54c-.374 5.548-6.49 9.96-13.982 9.96-7.732 0-14-4.7-14-10.5s6.268-10.5 14-10.5c6.783 0 12.44 3.618 13.726 8.42 2.38-.9 5.168-.9 7.548 0 1.287-4.803 6.943-8.42 13.726-8.42 7.732 0 14 4.7 14 10.5s-6.268 10.5-14 10.5c-7.49 0-13.608-4.413-13.982-9.96-2.115-1.082-4.92-1.082-7.036 0zM282.5 118c6.35 0 11.5-3.582 11.5-8s-5.15-8-11.5-8-11.5 3.582-11.5 8 5.15 8 11.5 8zm35 0c6.35 0 11.5-3.582 11.5-8s-5.15-8-11.5-8-11.5 3.582-11.5 8 5.15 8 11.5 8z" class="B"/><path d="M300 147.75c7.953 0 14.448-5.534 17.418-12.618.756-1.802 2.012-4.883.03-6.38-1.497-1.13-3.64-.362-5.25.043-4.012 1.01-8.048 1.706-12.2 1.706-5.25 0-9.18-.95-11.9-1.628-1.673-.418-4-1.306-5.558-.12-1.982 1.498-.726 4.58.03 6.38 2.97 7.084 9.465 12.618 17.42 12.618z" class="B E"/><path d="M316.08 130.257c-.55 1.647-1.04 3.47-2.63 4.423-1.97 1.18-6.04 2.82-13.45 2.82s-11.477-1.64-13.448-2.82c-1.594-.954-2.084-2.776-2.633-4.424 1.474-.583 6.834 2.243 16.08 2.243s14.61-2.828 16.082-2.243z" class="F"/><path d="M310.338 141.783c-2.55 2.265-5.958 3.967-10.338 3.967-4.24 0-7.567-1.595-10.1-3.75 2.99-1.96 7.303-2.016 10.388-.238 2.978-1.716 7.07-1.71 10.04.022z" class="G"/></g><path d="M467.234 74.86C467.282 56.8583 481.85 42 499.853 42h62.294c18.003 0 32.57 14.8584 32.62 32.861C594.92 132.592 594.612 170 531 170s-63.92-37.408-63.766-95.14z" fill="#7846ff"/><path d="M479.7 151.477C488.74 163.404 504.288 170 531 170c63.612 0 63.92-37.408 63.766-95.14-.022-8.3217-3.147-15.9716-8.28-21.7926.495 1.951.76 3.9914.76 6.0886l.015 7.0844c.157 58.3666.26 96.2586-63.763 96.2586-20.443 0-34.348-3.864-43.8-11.023z" class="B C D"/><path d="M499.455 78.2773c14.98 6.615 35.92 6.175 49.437-3.5902 14.94 12.7814 53.608 10.4238 53.608-14.686 0-10.1286-9.072-18.694-21.55-21.5155-5.114-19.5707-34.56-21.5258-47.61-9.3617-12.935-12.1662-37.873-9.6378-45.515 7.4036-12.922-.5147-28.325 7.7185-28.325 22.2236 0 19.4532 24.86 26.3424 39.955 19.526z" fill="#80ffca"/><g class="B"><path d="M546.392 64.6843c-13.517 9.7653-34.457 10.205-49.437 3.5902-12.2 5.5085-30.775 2.0662-37.454-9.7243v.1983c0 19.453 24.86 26.3423 39.955 19.526 14.98 6.615 35.92 6.175 49.437-3.5902 14.94 12.7815 53.608 10.424 53.608-14.6858 0-3.1896-.9-6.224-2.522-8.973-1.04 24.145-38.852 26.264-53.586 13.659z" class="C D"/><path d="M516.5 117.25c-12.903 0-19.5-11.635-19.5-16 0-4.0807 7.818-3.442 18.1-2.601 4.925.4025 10.417.8512 15.9.8512 5.308 0 10.603-.419 15.9-.8512 10.292-.84 18.1-1.4798 18.1 2.601 0 4.365-6.596 16-19.5 16-5.303 0-8.6-4.844-11.022-8.376-1.57-2.3-1.478-3.624-3.48-3.624s-1.918 1.34-3.477 3.624c-2.412 3.532-5.72 8.376-11.022 8.376z"/></g><g class="C"><g class="F"><path d="M524.53 102.56c-.595-.356-1.32-.64-2.138-.87l-15.434 10.807c.596.38 1.224.732 1.884 1.048l15.688-10.985zm1.358 1.306c.766 1.34.427 3.293-1.642 6.188-2.145 3.004-4.617 5.196-7.745 5.196-2.048 0-3.918-.324-5.6-.882l14.998-10.502zm34.965-3.634c-.847-.13-1.878-.196-3.088-.205l-17.886 12.525c.5.488.998.925 1.525 1.3l19.45-13.62zm2.107.782c.77 2.624-2.76 6.842-4.326 8.5-2.962 3.137-7.337 5.736-13.134 5.736-.804 0-1.56-.148-2.277-.417l19.737-13.82z"/></g><path d="M531 147c10.5 0 16.5-10.5 16.5-16.5s-7.64-3.5-16.5-3.5-16.5-2.5-16.5 3.5 6 16.5 16.5 16.5z" fill-opacity=".4" class="B"/><path d="M544.767 128.778l-.16 1.937c-.067.803-.53 1.515-1.28 1.81-1.87.733-5.98 1.976-12.326 1.976-6.3 0-10.394-1.225-12.284-1.96-.777-.302-1.258-1.04-1.327-1.87l-.158-1.892c1.102-.8 3.394-.572 6.502-.25 2.09.217 4.55.472 7.267.472s5.176-.255 7.267-.472c3.107-.322 5.4-.56 6.5.25z" class="F"/><path d="M541.05 140.744c-2.486 2.516-5.918 4.256-10.05 4.256s-7.563-1.74-10.05-4.256c2.606-1.08 6.148-1.744 10.05-1.744s7.443.664 10.05 1.744z" class="G"/></g><path d="M897.37 65.6247C896.906 49.729 910.8 38 926.702 38h72.596c15.902 0 29.792 11.729 29.332 27.6248C1026.86 126.32 989.206 166 963 166s-63.86-39.68-65.63-100.3753z" fill="#0ff"/><path d="M926.422 145.264C938.205 158.586 951.672 166 963 166c26.206 0 63.86-39.68 65.63-100.3752.23-7.7655-2.97-14.5365-8.16-19.4314a20.467 20.467 0 0 1 .71 5.003C1022.2 115.783 982.7 158.5 955.5 158.5c-8.983 0-19.31-4.662-29.078-13.236z" class="B C D"/><path d="M963 15.0003c16.75 0 40-11 40 11.25s-24.75 6.25-40 6.25-40 16-40-6.25 23.25-11.25 40-11.25z" fill="#2e4599"/><path d="M1003 27.019c-.4 14.7343-12.38 11.5703-24.707 8.3156-5.333-1.4082-10.73-2.8333-15.282-2.8333s-9.95 1.425-15.282 2.8333c-12.422 3.2798-24.495 6.4675-24.715-8.6597 10.733-3.342 24.076-4.9326 39.997-4.9326 15.93 0 29.278 1.6734 39.99 5.2767z" class="B C H"/><path d="M919 60.9995c21.75 31.25 108.25-30.7593 109.5 61.9995 14.75-74.9995-3-94.7588-65.5-94.7588S883.25 51.9995 897.5 113.5c-1.75-37.5005 23.75-20.7505 21.5-52.5005z" fill="#2e4599"/><g class="B"><path d="M960.116 62.9114c-18.36 1.4236-35.5 2.7525-43.62-8.912 1.083 15.2842-4.264 19.329-9.907 23.5972-5.454 4.1256-11.184 8.4597-11.65 23.3554.7 3.995 1.544 8.176 2.557 12.547-.908-19.4474 5.514-24.3044 11.592-28.9024 5.643-4.268 10.99-8.313 9.908-23.5972 8.118 11.6645 25.258 10.3356 43.62 8.912 23.566-1.8273 49.143-3.8104 60.233 21.3263-9.24-32.4744-37.168-30.3086-62.734-28.3263zm67.464 46.4626c.54 4.122.85 8.65.92 13.625 8.23-41.8636 6.34-66.516-7.8-80.128 11.08 16.01 12.94 39.003 6.9 66.503z" class="C H"/><use xlink:href="#C" class="E"/><path d="M978 113c4.418 0 8-3.582 8-8s-3.582-8-8-8-8 3.582-8 8 3.582 8 8 8z" class="E"/><path d="M953.324 125.383c.893-.65 2.144-.453 2.794.44 4.737 6.514 9.027 6.514 13.765 0 .65-.894 1.9-1.09 2.793-.44s1.09 1.9.442 2.793c-6.28 8.637-13.954 8.637-20.235 0-.65-.893-.453-2.144.44-2.793z" class="C E"/></g><path d="M23 70c0-13.2548 10.7452-24 24-24h80c13.255 0 24 10.7452 24 24v56c0 26.5-21.5 48-48 48H71c-26.5097 0-48-21.5-48-48V70z" fill="#d3ff23"/><path d="M33.5156 155.983C42.312 166.966 55.8348 174 71.0002 174H103c26.5 0 48-21.49 48-48V69.9986c0-8.5476-4.468-16.0515-11.196-20.3033 2.34 3.7054 3.696 8.096 3.696 12.8033V122.5c0 24.3-19.7 44-43.9998 44h-36c-11.3443 0-21.7694-3.936-29.9846-10.516z" class="B C D"/><path d="M155.998 60.4995c0 18.75-20.5 35-72 13.5-37.5627-15.6815-54.7126 10.6638-61 10.4542-2.3328-.078-3.1702-3.8115-3-14.7042.5862-37.517 48.5155-31.8108 22.832-45.4394-1.8133-.9622-1.3375-3.7703.71-3.9017 68.678-4.4026 112.457 19.8236 112.457 40.091z" fill="#00c5a1"/><g class="B C D"><path d="M82.25 65.75c51 19 60.5 5 60.5-13.75 0-5.5522-3.495-11.646-9.986-17.4823C147.74 42.1445 156 51.6957 156 60.5c0 18.75-20.5 35-72.0002 13.5-28.1912-11.77-44.8845.134-54.1173 6.7174-3.0693 2.1885-5.314 3.79-6.8827 3.7368-.4282-.0143-.806-.1518-1.1365-.434l.8058-.8397C32.9783 72.426 50.6603 53.98 82.25 65.75zM49.7876 32.5364c7.3758-4.584 9.786-7.6472-2.295-12.35l-3.948.223c-2.0485.1313-2.5243 2.9395-.7 3.9017 7.1362 3.7868 8.5893 6.0808 6.954 8.224z"/></g><path d="M81.0897 104.443C78.269 103.798 74.783 103 67.0416 103c-11.4996 0-18.2554 0-14.4996 10 3.1687 8.437 9.5662 8.5 15.2496 8.5 11.6988 0 14.2756-4.452 16.0325-7.488.905-1.564 1.5924-2.752 3.1968-2.762 1.6045.01 2.292 1.198 3.197 2.762 1.757 3.036 4.3337 7.488 16.0322 7.488 5.684 0 12.08-.063 15.25-8.5 3.756-10-3-10-14.5-10-7.741 0-11.2273.798-14.0478 1.443-1.9106.438-3.5158.805-5.9313.807s-4.0206-.37-5.9312-.807z" class="B"/><g class="F"><path d="M99.238 118.74c-1.0335-.27-1.8887-.592-2.617-.95l23.7-10.665c.293.63.253 1.385.163 2.053l-21.245 9.56zm20.688-7.284c-1.003 3.038-2.752 5.875-5.842 7.097-3.507 1.387-7.898 1.158-11.613.758l17.455-7.855z"/><g class="C"><path d="M83.047 108.827c-.1207-.69-.4294-1.27-.9304-1.708l-23.679 10.657c.7563.488 1.5372.82 2.3547 1.066l22.2548-10.015zm-18.995 10.575c4.2044.32 8.8654.32 12.7895-1.344 2.904-1.232 5.305-4.07 6.08-7.147l-18.8685 8.49z"/></g></g><path d="M71 130.605C76.237 131.838 81.639 132 87 132s10.7625-.162 16-1.394v6.873c0 5.358-3.7545 10.162-9.2873 10.69a70.842 70.842 0 0 1-13.4254 0C74.7545 147.64 71 142.836 71 137.478v-6.873z" class="B C E"/><path d="M87 133.5c-10.25 0-14.5-1-14.5-1v4.948c.038.08.2944.498 1.547.958 1.7907.656 5.4694 1.344 12.953 1.344s11.162-.688 12.953-1.344c1.253-.46 1.509-.877 1.547-.958V132.5s-4.25 1-14.5 1zm14.408 5.334c-.29.17-.653.343-1.11.51-1.9592.718-5.7805 1.405-13.297 1.405s-11.338-.687-13.297-1.405c-.458-.168-.822-.34-1.1108-.51.5603 4.092 3.6283 7.44 7.8374 7.84 1.995.2 4.2374.326 6.5705.326s4.5755-.136 6.5705-.326c4.209-.4 7.2775-3.748 7.8375-7.84z" class="C F"/><path d="M656.39 95.504c3.22-55.3207 24.188-79.1133 78.6-79.1133S810.393 40.183 813.6 95.504c1.983 34.078.252 52.406-78.61 52.406s-80.592-18.328-78.6-52.406z" fill="#66f" class="C"/><path d="M656.684 117.698C659.895 137.47 675.48 147.9 735 147.9c78.86 0 80.59-18.328 78.61-52.4064-.908-15.6135-3.23-28.7156-7.32-39.4802 2.255 8.708 3.644 18.6552 4.298 29.9065 1.983 34.078.252 52.406-78.61 52.406-49.035 0-68.25-7.086-75.293-20.638z" class="B C I"/><path d="M668.858 58.3406C668.39 42.3207 682.393 30.5 698.42 30.5h73.164c16.027 0 30.03 11.8207 29.56 27.8406C799.36 119.5 761.412 159.5 735 159.5s-64.357-40-66.143-101.1594z" fill="#ffa94d"/><path d="M698.137 138.603C710.012 152.028 723.584 159.5 735 159.5c26.41 0 64.358-39.99 66.143-101.16.23-7.826-2.996-14.65-8.223-19.5832.436 1.6013.682 3.2878.7 5.042 1.036 65.091-38.785 108.142-66.188 108.142-9.053 0-19.462-4.7-29.305-13.34z" class="B C D"/><path d="M735.002 17.6504c-86.672 0-73.32 60.9726-64.5 92.7186 0-65.0038 34.517-30.4862 34.517-67.0194 4.477 40.8553 94.483-2.0156 94.483 77.6014 13.1-36.533 22.172-103.3006-64.5-103.3006z" fill="#66f"/><g class="B C"><path d="M670.484 110.3l.017.06v-.025l-.017-.034zm1.972-22.408c3.36-21.4092 11.927-26.0438 19.36-30.065 6.828-3.693 12.698-6.8686 12.698-22.046 1.802 16.4456 17.218 18.5083 34.995 20.887 22.075 2.9538 47.79 6.395 55.606 38.4662C785.7 72.3 762.7 68.8054 742.28 65.7007c-18.8-2.857-35.403-5.383-37.262-22.351 0 15.6532-6.337 18.2628-13.58 21.2456-7.218 2.9725-15.337 6.3157-18.982 23.3068z" class="I"/><path d="M723.713 118.583c.9-.668 2.154-.488 2.82.403 4.233 5.644 12.7 5.644 16.932 0 .668-.89 1.93-1.07 2.822-.403s1.07 1.93.403 2.822c-5.846 7.794-17.536 7.794-23.382 0-.667-.89-.487-2.154.404-2.822z" class="E"/></g><use xlink:href="#D" class="B E"/><path d="M750.62 101.55c3.618 0 6.55-2.933 6.55-6.55s-2.933-6.5508-6.55-6.5508-6.55 2.933-6.55 6.5508 2.933 6.55 6.55 6.55z" class="B E"/><path d="M702.246 89.457c0-3.3396 2.707-6.0468 6.047-6.0468h17.133c3.34 0 6.047 2.7072 6.047 6.0468v4.064c.774-.2922 1.906-.5366 3.527-.5366s2.753.2444 3.527.5366v-4.064c0-3.3396 2.708-6.0468 6.047-6.0468h17.133c3.34 0 6.047 2.7072 6.047 6.0468v11.086c0 3.34-2.707 6.047-6.047 6.047h-17.133c-3.34 0-6.047-2.707-6.047-6.047v-4.42c-.814-.3277-1.976-.62-3.527-.62s-2.713.2924-3.527.62v4.42c0 3.34-2.708 6.047-6.047 6.047h-17.133c-3.34 0-6.047-2.707-6.047-6.047V89.457zm2.52.504c0-2.2264 1.804-4.0312 4.03-4.0312h16.125c2.226 0 4.03 1.8048 4.03 4.0312v10.078c0 2.226-1.805 4.03-4.03 4.03h-16.125c-2.227 0-4.03-1.805-4.03-4.03V89.961zm40.312-4.0312c-2.226 0-4.03 1.8048-4.03 4.0312v10.078c0 2.226 1.805 4.03 4.03 4.03h16.125c2.227 0 4.03-1.805 4.03-4.03V89.961c0-2.2264-1.804-4.0312-4.03-4.0312h-16.125z" class="B C"/><path d="M130.736 167.618c.048-18.144 14.73-33.118 32.874-33.118h62.78c18.144 0 32.826 14.974 32.874 33.118.154 58.182-.155 95.882-64.264 95.882s-64.42-37.7-64.264-95.882z" fill="#ffc266"/><path d="M143.3 244.83c9.1 12.02 24.78 18.668 51.7 18.668 64.1 0 64.42-37.7 64.264-95.882-.022-8.387-3.17-16.096-8.344-21.963a25.018 25.018 0 0 1 .768 6.136l.015 7.14c.158 58.823.26 97.01-64.26 97.01-20.603 0-34.617-3.894-44.143-11.1z" class="B C D"/><path d="M131.003 184.89c-2.015 0-11.59-37.29 10.08-51.4 17.03-11.06 39.374-10.013 53.917-25.195 14.544 15.182 36.887 14.638 53.918 25.7 21.668 14.11 12.346 50.895 10.078 50.895s-1.51-30.235-23.935-30.74c-22.424-.756-25.447 11.086-40.06 11.086s-17.637-11.842-40.06-11.086c-22.424.504-21.92 30.74-23.936 30.74z" fill="#999"/><g class="C"><path d="M154.942 146.593c12.574-.424 19.047 3.113 24.885 6.302 4.574 2.5 8.756 4.784 15.176 4.784s10.602-2.285 15.176-4.784c5.838-3.19 12.31-6.726 24.885-6.302 15.737.354 21.708 19.074 23.76 30.207.325 1.764.475 4.74.597 7.776-.158.206-.3.314-.424.314-.548 0-.92-1.767-1.484-4.453-1.772-8.426-5.447-25.903-22.45-26.286-12.573-.423-19.047 3.113-24.885 6.303-4.573 2.498-8.756 4.783-15.176 4.783s-10.602-2.285-15.176-4.783c-5.837-3.2-12.31-6.726-24.884-6.303-17.242.388-20.93 18.354-22.628 26.636-.51 2.488-.842 4.103-1.308 4.103-.15 0-.342-.208-.56-.598.205-2.938.42-5.783.736-7.492 2.053-11.133 8.024-29.853 23.76-30.207z" class="B D"/><path d="M203.226 216.133c6.978 0 9.046 8.875 14.99 11.857 4.578 2.297 8.53-1.232 8.53 0 0 9.963-27.78 8.658-31.748-1.95h.004c-3.968 10.608-31.748 11.913-31.748 1.95 0-1.232 3.95 2.297 8.53 0 5.945-2.982 8.013-11.857 14.99-11.857 4.908 0 7.304 1.782 8.226 4.286.922-2.504 3.318-4.286 8.226-4.286z" fill="#999"/><g class="B D"><path d="M164.844 228.088l-.2-.07c-.874-.298-1.39-.474-1.39-.03 0 9.962 27.772 8.66 31.746-1.945 3.974 10.604 31.746 11.907 31.746 1.945 0-.445-.515-.27-1.39.03l-.2.07c-5.953 5.765-26.758 3.498-30.156-5.57.001-.001.001-.003.002-.004h-.004c.001.001.001.003.002.004-3.398 9.068-24.203 11.335-30.156 5.57zM195 226.045c.001-.001.001-.003.002-.004h-.004c.001.001.001.003.002.004z"/></g></g><path d="M224.23 200.008c0-11.6-7.307-11.6-12.346-11.6s-14.1.756-14.1 6.803c0 6.55 9.07 16.88 16.377 16.88 5.29 0 10.08-5.287 10.08-12.094z" class="B"/><path d="M221.203 193.156l-18.14 10.474 1.26 1.455.02.022 17.674-10.204c-.228-.68-.504-1.257-.813-1.747zm1.312 3.894l-16.605 9.587c2.712 2.417 5.715 3.953 8.237 3.953 4.243 0 8.566-4.38 8.566-10.582 0-1.112-.07-2.092-.198-2.958z" class="C F"/><path d="M165.77 200.008c0-11.6 7.307-11.6 12.346-11.6s14.1.756 14.1 6.803c0 6.55-9.07 16.88-16.377 16.88-5.29 0-10.08-5.287-10.08-12.094z" class="B"/><g class="C"><path d="M169.846 207.47c-.4-.482-.763-1.014-1.084-1.59l21.513-12.42c.285.496.442 1.07.442 1.76l-.004.202-20.867 12.047zm20.265-9.263c-.204.556-.457 1.134-.76 1.728-.894 1.75-2.17 3.54-3.675 5.15-3.078 3.29-6.798 5.504-9.824 5.504-1.534 0-3.08-.572-4.426-1.596l18.685-10.787z" class="F"/><g class="B"><path d="M195.002 193.457c.9 0 1.433.223 1.75.52.3.3.517.757.517 1.496a.756.756 0 0 0 .755.756.757.757 0 0 0 .756-.756c0-1.025-.296-1.944-.995-2.6-.7-.647-1.66-.93-2.784-.93s-2.094.282-2.785.93c-.698.655-.994 1.574-.994 2.6 0 .417.338.756.756.756a.756.756 0 0 0 .755-.756c0-.74.208-1.206.517-1.496.318-.297.86-.52 1.75-.52zm-9.324-4.787h18.644c.418 0 .756.338.756.756s-.338.756-.756.756h-18.644a.757.757 0 0 1-.756-.756.757.757 0 0 1 .756-.756z"/></g></g><path d="M420.002 243.643c-53.667 0-92.72-9.07-80.12-36.282-12.597-7.8-11.6-26.707 3.023-31.998-8.818-56.437 43.557-69.54 77.098-69.54s77.098 14.362 77.098 69.54c11.086 4.283 13.857 24.944 3.023 31.998 12.598 27.21-26.455 36.282-80.12 36.282z" fill="#ff4b4b"/><path d="M340.45 225.907c13.45 8.815 40.755 12.192 73.502 12.192 53.666 0 92.72-8.314 79.618-35.525 10.33-2.772 8.314-19.652 0-23.432 1.952-11.084 1.61-22.073-1.26-32.17 3.05 7.975 4.787 17.368 4.787 28.4 11.086 4.283 13.857 24.943 3.023 31.998 12.598 27.21-26.455 36.28-80.12 36.28-38.884 0-70.096-4.76-79.55-17.735z" class="B C D"/><path d="M354.032 157.108c-.315-16.34 13.78-28.608 30.125-28.608h71.687c16.344 0 30.44 12.267 30.125 28.608-1.173 60.737-30.9 100.392-65.97 100.392s-64.796-39.655-65.968-100.392z" fill="#fff066"/><path d="M379.742 237.182c11.23 13.06 25.255 20.318 40.256 20.318 35.067 0 64.796-39.655 65.97-100.392.152-7.91-3.072-14.865-8.292-19.936.452 1.656.708 3.4.74 5.21 1.122 64.766-29.546 107.56-65.974 107.56-11.8 0-22.992-4.488-32.698-12.76z" class="B C D"/><path d="M467.205 146.622c-20.336 17.565-95.378 27.734-118.257 27.734-17.385-87.6794 141.85-71.554 139.078-21.416-.52 9.396-13.637 16.817-30.738 18.897 6.803-7.307 11.6-17.89 9.917-25.215z" fill="#ff4b4b"/><g class="C"><g class="B"><path d="M350.967 167.553c26.203 0 104.056-14.1 116.654-30.99 3.527 10.583 2.772 20.913-3.023 28.47 5.58-.744 16.93-4.372 23.095-9.972-2.214 8.38-14.61 14.854-30.4 16.775 6.803-7.307 11.6-17.89 9.917-25.214-20.336 17.564-95.38 27.733-118.257 27.733-2.312-11.66-1.5-21.482 1.637-29.634-1.267 6.656-1.237 14.242.378 22.832z" class="D"/><path d="M434.613 215.676c0 7.93-5.5 19.652-14.613 19.652s-14.613-11.723-14.613-19.652h29.226z" class="E"/></g><path d="M423.907 232.353c-1.218.62-2.525.96-3.904.96-3.57 0-6.656-2.27-8.968-5.832 1.687-.35 3.82-.27 6.033.324 3.33.892 5.922 2.698 6.84 4.548z" class="G"/><path d="M431.284 222.73h-22.57c-.602-1.696-1.004-3.422-1.192-5.04h24.952c-.187 1.617-.6 3.343-1.19 5.04z" class="F"/><g class="B"><path d="M416.42 194.146c-.577 6.142-5.747 10.948-12.04 10.948-6.68 0-12.094-5.415-12.094-12.094s5.415-12.094 12.094-12.094c6.2 0 11.294 4.65 12.008 10.648.776-.307 1.93-.57 3.613-.57s2.837.263 3.613.57c.714-5.997 5.818-10.648 12.008-10.648 6.68 0 12.094 5.415 12.094 12.094s-5.415 12.094-12.094 12.094c-6.293 0-11.463-4.806-12.04-10.948-.817-.337-1.995-.642-3.58-.642s-2.764.305-3.58.642zM413.953 193c0 5.288-4.286 9.574-9.574 9.574s-9.574-4.286-9.574-9.574 4.286-9.574 9.574-9.574 9.574 4.286 9.574 9.574zm21.668 9.574c5.288 0 9.574-4.286 9.574-9.574s-4.286-9.574-9.574-9.574-9.574 4.286-9.574 9.574 4.286 9.574 9.574 9.574z"/></g></g><use xlink:href="#E" class="B E"/><path d="M435.62 199.047c3.34 0 6.047-2.707 6.047-6.047s-2.707-6.047-6.047-6.047-6.047 2.707-6.047 6.047 2.707 6.047 6.047 6.047z" class="B E"/><path d="M1287.98 64.8814C1287.63 49.2942 1301.4 38 1317 38H1391c15.6 0 29.36 11.2942 29 26.8814C1418.63 125.996 1375.93 166 1354 166s-64.63-40.004-66.02-101.1186z" fill="#ffc24d"/><path d="M1318.43 144.54C1330.8 158.315 1344.4 166 1354 166c21.93 0 64.62-40.004 66.02-101.12.17-7.647-3.06-14.26-8.23-19.0148.42 1.5143.67 3.1088.7 4.7688 1.76 64.9-43.28 107.865-66 107.865-7.7 0-17.95-4.926-28.07-13.96z" class="B C D"/><path d="M1382.5 18.0005c0 10.2172-7 19-28.5 19s-28.5-8.7827-28.5-19 15.5-4 28.5-4 28.5-6.2173 28.5 4z" fill="#b75cff"/><path d="M1326.27 23.493C1328.6 31.1745 1336.5 37 1354 37s25.4-5.8255 27.73-13.507l-2.34-.379c-7.3-1.1892-16.03-2.614-25.4-2.614s-18.1 1.4247-25.4 2.614l-2.34.379z" class="B C D"/><path d="M1289.5 85.75c34.75 0 86.25-11 95-33.25 0 22.4998 23.25 33.25 34 33.25 17.75-51-36.65-59.25-64.5-59.25-44.07 0-78.25 12.5-64.5 59.25z" fill="#b75cff"/><g class="B"><path d="M1386 44.5c-8.75 22.25-60.25 33.75-95 33.75-2.65-9.0156-3.52-16.7575-2.88-23.3815-2.55 8.0693-2.34 18.219 1.38 30.8815 34.75 0 86.25-11 95-33.25 0 22.4998 23.25 33.25 34 33.25 1.98-5.6872 3.06-10.8428 3.38-15.5147-.5 2.5493-1.2 5.219-2.13 8.0147-10.75 0-33.75-11.2502-33.75-33.75z" class="C D"/><path d="M1338.5 108c3.3 0 6-2.686 6-6s-2.7-6-6-6-6 2.6863-6 6 2.7 6 6 6z" class="E"/><path d="M1323.67 105.594c5.52 10.64 20.73 12.747 26.6 1.105.9-1.782 1.44-3.68 1.65-5.485 1.05-.696 3.13-.696 4.2 0 .2 1.807.74 3.703 1.64 5.485 5.86 11.642 21.07 9.534 26.6-1.105 3.44-6.6274 3.65-13.892-4.64-15.3438-5.4-.9442-11.4-.7053-16.7.787-3.7 1.0507-6.4 2.986-6.9 6.959-1.35-.348-2.85-.348-4.2-.0001-.5-3.973-3.2-5.9083-6.9-6.96-5.28-1.4923-11.3-1.7312-16.7-.787-8.3 1.4518-8.08 8.7164-4.64 15.3438zm23.92-.245c-4.8 9.5-16.85 7.364-21.26-1.137-2.48-4.7748-3.68-9.9243 2.5-11.0068 4.95-.8668 10.5-.6515 15.35.7187 5.53 1.5634 5.66 6.955 3.4 11.425zm12.83 0c4.78 9.5 16.84 7.364 21.25-1.137 2.48-4.7748 3.68-9.9243-2.5-11.0068-4.95-.8668-10.5-.6515-15.35.7187-5.53 1.5634-5.66 6.955-3.4 11.425z" class="C"/><path d="M1369.5 108c3.3 0 6-2.686 6-6s-2.7-6-6-6-6 2.6863-6 6 2.7 6 6 6z" class="E"/><path d="M1354 137c7.18 0 13-4.925 13-11h-26c0 6.075 5.82 11 13 11z" class="C E"/></g><path d="M240 243c0-13.255 10.745-24 24-24h80c13.255 0 24 10.745 24 24v40c0 35.346-28.654 64-64 64h0c-35.346 0-64-28.654-64-64v-40z" fill="#ff794d"/><path d="M255.152 324.35c11.74 13.855 29.268 22.65 48.85 22.65 35.347 0 64-28.654 64-64v-40c0-8.548-4.468-16.052-11.196-20.304 2.34 3.706 3.696 8.096 3.696 12.804v40c0 35.346-28.653 64-64 64-15.763 0-30.196-5.7-41.35-15.15z" class="B C D"/><path d="M304 250.25c-19.75 0-49.85-5.75-55.25-10.75 2.25 9.75-1 20.25-8.75 27.5-9.25-45 6-61 52.25-69.5-4.5 4.5-6.5 9.25-8 14.25C296 200.5 305.75 194 324.75 194c-5.25 6-3.75 18.75 1.25 22.75 2-4.5 2-9.25 1-15 43.25 7.75 48.5 29.5 41 65.25-8-6.25-12.5-14.25-8.75-27.5-5.4 5-35.5 10.75-55.25 10.75z" fill="#3955ff"/><g class="B"><path d="M326.082 216.56l.17-.41-.17.41zM324.748 194c-5.247 5.998-3.75 18.74 1.244 22.745-.487.973-1.35 2.112-2.743 3.505-8.402-3.317-7.81-20.13-4.1-26.044 1.776-.137 3.64-.206 5.6-.206zm-32.5 3.5l-5.3 1.036c-4.846 5.202-6.745 11.398-7.2 18.214 1.492-1.755 3.044-3.478 4.518-5.063 1.498-4.977 3.5-9.706 7.98-14.187zm15.266 45.75c-19.75 0-56.866-5-62.266-10l.014.083c1.565 8.942 3.097 17.692-6.133 29.113.26 1.484.55 3 .87 4.553 7.75-7.25 11-17.75 8.75-27.5 5.4 5 35.5 10.75 55.25 10.75s49.85-5.75 55.25-10.75c-3.75 13.25.75 21.25 8.75 27.5l.954-4.858c-10.788-7.63-6.967-23.316-5.465-29.484l.277-1.157c-5.4 5-36.5 11.75-56.25 11.75z" class="C I"/><path d="M271.315 276h65.37c2.09 0 3.54 2.085 2.812 4.045l-3.545 9.544c-.873 2.35-3.116 3.91-5.624 3.91h-15.656c-2.508 0-4.752-1.56-5.625-3.91l-3.562-9.59h-2.97l-3.562 9.59c-.873 2.35-3.116 3.91-5.624 3.91h-15.656c-2.508 0-4.752-1.56-5.625-3.91l-3.545-9.544c-.728-1.96.722-4.045 2.812-4.045z"/></g><g class="F"><path d="M337.393 279.96l-24.167 11.27c.45.175.94.27 1.444.27h15.656c1.672 0 3.167-1.04 3.75-2.607l3.318-8.932zm-40.317 8.933l3.277-8.82-24.017 11.2a3.995 3.995 0 0 0 1.334.229h15.657c1.67 0 3.167-1.04 3.75-2.607z"/></g><g class="C"><path d="M278.656 323.5c-.998 23.446 1.59 28.5 25.343 28.5s26.186-7.97 25.5-28.5c-.934-28-7.672-20.538-25.42-20.5-17.852-.038-24.484-7.5-25.422 20.5zM318.5 311c0 6 4 15.5-2 15.5-5.667 0 .5-10-12.42-10s-6.754 10-12.422 10c-6 0-2.156-9.5-2.156-15.5 6.344 2.5 22.5 2.5 29 0z" fill="#3955ff"/><path d="M278.516 327.638c.456 15.256 5.418 18.862 25.483 18.862 19.995 0 25.016-5.654 25.583-19.687C329.848 344.893 326.428 352 304 352c-22.284 0-25.94-4.448-25.483-24.362zm42.048-13.914c-.1-2.107-.198-4.128-.065-5.724-6.5 2.5-26.655 2.5-33 0 .128 1.54.06 3.474-.013 5.5-.144 4.022-.3 8.402 1.05 10.76-.542-1.9-.098-4.742.35-7.623.305-1.963.613-3.94.613-5.637 6.344 2.5 22.5 2.5 29 0 0 1.732.333 3.756.663 5.76.496 3.005.983 5.964.324 7.817 1.493-2.226 1.278-6.705 1.078-10.852z" class="B I"/></g><path d="M570 142c0-13.255 10.745-24 24-24h80c13.255 0 24 10.745 24 24v48c0 30.928-25.072 56-56 56h-16c-30.928 0-56-25.072-56-56v-48z" fill="#fe59af"/><path d="M582.828 225.67C593.1 238.087 608.626 246 626 246h16c30.928 0 56-25.072 56-56v-48c0-8.548-4.468-16.052-11.196-20.304 2.34 3.706 3.696 8.096 3.696 12.804v52c0 28.718-23.28 52-52 52h-20c-13.554 0-25.984-4.816-35.67-12.83z" class="B C I"/><path d="M583 131.5c2.5 16.75-4.75 27-13 34.5-12.5-55.25 23.5-63.5 64-63.5s77 10.25 64 63.5l-.135-.114C691.653 160.67 685 155.082 685 132c-36 15.25-66 14.75-102-.5z" class="K"/><g class="C"><g class="B"><path d="M569.066 161.476c7.946-7.52 13.378-19.11 10.935-35.476 36 15.25 72 15.75 108 .5 0 22.615 4.967 29.855 11 35.065-.3 1.444-.62 2.922-.99 4.435l-.136-.114c-6.21-5.216-12.864-10.804-12.864-33.886-36 15.25-66 14.75-102-.5 2.5 16.75-4.75 27-13 34.5-.35-1.545-.66-3.052-.936-4.524z" class="D"/><path d="M605 178c0-2.21 1.79-4 4-4h16c2.21 0 4 1.79 4 4v3.338c.87-.402 2.413-.838 5-.838s4.13.436 5 .838V178c0-2.21 1.79-4 4-4h16c2.21 0 4 1.79 4 4v10c0 2.21-1.79 4-4 4h-16c-2.21 0-4-1.79-4-4v-4.073c-.94-.423-2.567-.927-5-.927s-4.06.504-5 .927V188c0 2.21-1.79 4-4 4h-16c-2.21 0-4-1.79-4-4v-10z"/></g><g class="F"><path d="M643.933 190h-.433c-.788 0-1.5-.364-1.95-.934l19.372-11.184a2.521 2.521 0 0 1 .077.618v1.647L643.933 190zM661 182.338v5.163c0 1.38-1.12 2.5-2.5 2.5h-10.773L661 182.338zM609.932 190h-.432c-.788 0-1.5-.365-1.95-.935l19.372-11.184a2.523 2.523 0 0 1 .077.619v1.646L609.932 190zM627 182.336v5.164a2.5 2.5 0 0 1-2.5 2.5h-10.774L627 182.336z"/></g><path d="M641 203c6.924 0 10.1 6.04 16 7.5 4.934 1.22 13.5 1 13.5 1-6 8-33.498 9.75-36.498-1.67-3 11.42-29.502 9.67-36.502 1.67 0 0 8.566.22 13.5-1 5.9-1.46 9.076-7.5 16-7.5 4.87 0 6.085 2.015 7 4 .915-1.985 2.13-4 7-4z" class="K"/><path d="M601.49 211.485l-3.99.015c7 8 33.502 9.75 36.502-1.67 3 11.42 30.498 9.67 36.498 1.67 0 0-1.54.04-3.692-.008-9.542 5.22-30.082 5.148-32.778-4.556L634 207l-.028-.06c-2.696 9.705-22.52 9.772-32.48 4.545z" class="B D"/></g><path d="M634 221.5c-8 0-13 2.75 0 31.75 13-29 8-31.75 0-31.75z" class="K"/><path d="M626.332 225.504c.794 4.725 3.138 11.642 7.667 21.746 4.53-10.104 6.874-17.02 7.667-21.746 1.133 4.042-.63 12.048-7.667 27.746-7.037-15.698-8.8-23.704-7.667-27.746z" class="B C D"/><path d="M986.5 161.688c0-13.36 10.83-24.188 24.2-24.188h80.62c13.36 0 24.2 10.83 24.2 24.188v72.562c0 17.81-14.44 32.25-32.25 32.25h-64.5c-17.8 0-32.25-14.44-32.25-32.25v-72.562z" fill="#4dd4ff"/><path d="M992.48 252.96c5.848 8.196 15.44 13.54 26.27 13.54h64.5c17.8 0 32.25-14.44 32.25-32.25v-72.563c0-8.614-4.5-16.176-11.28-20.46 2.36 3.734 3.72 8.158 3.72 12.902v76.594c0 15.585-12.63 28.22-28.22 28.22h-68.53c-6.97 0-13.433-2.216-18.7-5.98z" class="B C D"/><path d="M994.563 151.106c2.268 9.827-.252 27.463-8.063 34.77-16.628-60.973 40.57-53.414 64.5-53.414 23.94 0 80.88-9.322 64.5 53.414-8.06-6.3-11.84-20.912-8.06-34.266-32.76 20.913-88.2 16.377-112.877-.504z" fill="#fbff38"/><path d="M985.648 182.525c8.3-9.594 7.767-26.024 6.652-34.947 33.5 16.125 83.65 16.125 117.9.504-3.38 11.968-2.32 26.972 6.1 34.49-.24 1.08-.5 2.18-.8 3.302-8.06-6.3-11.84-20.912-8.06-34.266-32.75 20.912-88.18 16.377-112.874-.504 2.268 9.827-.252 27.463-8.063 34.77a106.059 106.059 0 0 1-.855-3.35z" class="B C D"/><path d="M1117.5 145.013c-5.03 39.602-154.196 47.665-131.268-24.793 19.908 38.696 139.298-38.4014 131.268 24.793z" fill="#fbff38"/><g class="C"><g class="B"><path d="M986.26 120.256c-11.95 64.87 120.34 54.983 125.2 16.694.73-5.714.48-10.272-.6-13.864 5.44 3.79 8.1 10.607 6.65 21.927-5.03 39.603-154.196 47.665-131.268-24.792l.018.035z" class="D"/><path d="M1051 239.792c10.58 0 16.63-7.558 16.63-13.605s-7.7-2.52-16.63-2.52-16.63-3.527-16.63 2.52 6.05 13.605 16.63 13.605z" class="E"/></g><path d="M1064.83 224.535l-.13 1.49c-.06.74-.46 1.41-1.13 1.732-1.8.875-6 2.463-12.57 2.463-6.53 0-10.7-1.566-12.54-2.444-.7-.333-1.1-1.026-1.17-1.792l-.12-1.448c1-.537 2.85-.21 5.36.232 2.33.4 5.22.917 8.47.917s6.14-.507 8.47-.917c2.5-.44 4.37-.77 5.36-.232z" class="F"/><path d="M1063.2 232.922c-2.47 2.967-6.72 4.856-12.2 4.856-1.04 0-2.04-.07-3-.2.4-2.99 4.86-5.343 10.3-5.343 1.76 0 3.43.25 4.88.688z" class="G"/><path d="M1019.76 202c0-5.288 4.28-9.574 9.57-9.574h9.07c4.57 0 8.4 3.194 9.34 7.47.8-.343 1.9-.666 3.26-.666s2.47.323 3.26.666c.95-4.275 4.77-7.47 9.34-7.47h9.07c5.3 0 9.57 4.286 9.57 9.574s-4.28 9.574-9.57 9.574h-9.07c-5.28 0-9.56-4.27-9.58-9.543-.52-.306-1.58-.787-3.02-.787s-2.5.48-3.02.787c-.02 5.274-4.3 9.543-9.58 9.543h-9.07c-5.3 0-9.57-4.286-9.57-9.574z" class="B"/><g class="F"><path d="M1078.6 197.317c-.4-.524-.9-1-1.43-1.4l-19.22 11.096c.45.507.97.954 1.54 1.325l19.1-11.032zm1.07 1.82c.36.883.56 1.85.56 2.863 0 4.175-3.4 7.56-7.56 7.56h-9.07c-.57 0-1.13-.064-1.67-.184l17.74-10.238zm-35.34-1.82c-.4-.524-.9-1-1.43-1.4l-19.22 11.096c.46.507.97.954 1.55 1.325l19.1-11.032zm1.07 1.82c.36.883.56 1.85.56 2.863 0 4.175-3.38 7.56-7.56 7.56h-9.07c-.57 0-1.13-.064-1.66-.184l17.73-10.238z"/></g><path d="M1179.4 169.426c0-55.934 29.23-74.8303 78.6-74.8303s78.6 18.8963 78.6 74.8303c0 26.707-7.56 50.4-7.56 50.4s-28.47-3.023-71.05-3.023-71.05 3.023-71.05 3.023-7.56-23.683-7.56-50.4z" fill="#3360ff"/><path d="M1183.45 206.008c1.8 8.468 3.5 13.808 3.5 13.808s28.47-3.023 71.05-3.023 71.05 3.023 71.05 3.023 7.56-23.683 7.56-50.4c0-11.867-1.32-22.066-3.86-30.772 1.22 6.65 1.84 14.032 1.84 22.205 0 26.707-7.56 50.39-7.56 50.39s-28.47-3.024-71.05-3.024-71.05 3.024-71.05 3.024-.6-1.905-1.48-5.242z" class="B D"/></g><path d="M1191.86 142.34c-.47-16.02 13.53-27.84 29.56-27.84h73.16c16.03 0 30.03 11.82 29.56 27.84-1.78 61.17-39.73 101.16-66.14 101.16s-64.36-40-66.14-101.16z" fill="#fbff2d"/><path d="M1221.14 222.603C1233 236.028 1246.58 243.5 1258 243.5c26.4 0 64.36-39.99 66.14-101.16.23-7.826-3-14.65-8.22-19.583.44 1.6.68 3.288.7 5.042 1.04 65.09-38.8 108.142-66.2 108.142-9.05 0-19.46-4.7-29.3-13.34z" class="B C D"/><path d="M1329.16 142.732c-4 1.273-8.26 2.415-12.7 3.43-.92.21-1.84-7.65-2.78-7.452-1 .213-2 8.482-3.02 8.683-6.58 1.298-13.52 2.34-20.66 3.135-1.1.12-2.18-14.88-3.28-14.77-1.25.126-2.5 15.362-3.77 15.473-13.4 1.175-26.87 1.52-40.32 1.163-1.26-.034-2.52-10.656-3.78-10.702-1-.037-2 10.504-3.02 10.458-8.58-.385-17.16-1.034-25.7-2.073-.76-.092-1.5-10.265-2.27-10.364-.75-.098-1.5 9.88-2.26 9.774-6.52-.904-13-2.048-19.4-3.49 4.28-65.256 140.33-67.2715 142.96-3.263z" fill="#3360ff"/><g class="B"><path d="M1207.2 141.724c.22-1.2.44-2.04.66-2.012.76.098 1.5 10.27 2.27 10.363 8.53 1.04 17.12 1.688 25.7 2.074 1 .045 2-10.496 3.02-10.46 1.26.046 2.52 10.668 3.78 10.702 13.44.357 26.92.012 40.3-1.163 1.27-.11 2.53-15.347 3.78-15.472 1.1-.1 2.2 14.892 3.28 14.77 7.14-.796 14.08-1.837 20.66-3.135 1.02-.2 2.02-8.47 3.02-8.682.93-.2 1.86 7.66 2.77 7.45l1.93-.45c-1.12-1.73-2.68-10.802-4.2-10.528-1.52.274-2.5 8.848-3.53 9.05-6.58 1.298-13 1.973-20.16 2.77-1.08.12-1-15.08-3.27-14.77-3.03.412-3.52 15.36-4.8 15.472-13.4 1.176-25.86 1.52-39.3 1.163-.64-.016-1.27-2.7-1.9-5.36-.63-2.66-1.13-5.572-2.4-5.34-2.45.45-2.52 10.504-3.52 10.458-8.58-.386-15.66-1.034-24.2-2.073-.76-.092-1-10.632-2.77-10.364-.5.076-.74 2.56-1.17 5.54z" class="D"/><path d="M1272.6 201.172c0-.7-.36-1.347-.95-1.715-.6-.367-1.34-.4-1.96-.088-3.18 1.6-7.4 2.433-11.7 2.433s-8.52-.843-11.7-2.433c-.62-.312-1.36-.28-1.96.088-.6.368-.95 1.016-.95 1.715 0 2.837 1.34 7.6 3.63 11.612 2.24 3.934 5.9 8.04 10.98 8.04s8.74-4.106 10.98-8.04c2.3-4.022 3.63-8.775 3.63-11.612z" class="E"/></g><g class="C"><path d="M1269.85 205.54c-2.2 1.313-5.93 2.688-11.85 2.688s-9.64-1.375-11.85-2.688c-.5-1.715-.75-3.258-.75-4.367 7.06 3.527 18.14 3.527 25.2 0 0 1.11-.26 2.652-.75 4.367z" class="F"/><path d="M1266.6 212.847c-2.14 3.328-5.05 5.962-8.6 5.962s-6.45-2.635-8.6-5.962c1.07-.377 2.28-.59 3.55-.59 1.9 0 3.66.476 5.04 1.27 1.38-.795 3.13-1.27 5.04-1.27 1.27 0 2.48.212 3.55.59z" class="G"/><g class="B"><path d="M1237.34 169.426c7.45 0 10.66 1.058 13.44 1.97 2.1.694 3.96 1.304 7.22 1.304s5.12-.6 7.22-1.304c2.78-.913 6-1.97 13.44-1.97 11.6 0 11.6 1.763 11.6 10.078 0 10.33-6.62 11.6-12.35 11.6-11.4 0-14-5.424-15.88-9.358-1.08-2.24-1.92-3.996-4.02-3.996s-2.94 1.757-4.02 3.996c-1.88 3.934-4.48 9.358-15.88 9.358-5.73 0-12.35-1.26-12.35-11.6 0-8.315 0-10.078 11.6-10.078zm15.37 6.803c0 4.535-2.52 12.85-14.14 12.85-5 0-10.8-1.008-10.8-9.196 0-7.275 0-8.44 10.14-8.44 6.66 0 14.8 1.512 14.8 4.788zm10.58 0c0 4.535 2.52 12.85 14.14 12.85 5 0 10.8-1.008 10.8-9.196 0-7.275 0-8.44-10.14-8.44-6.66 0-14.8 1.512-14.8 4.788z"/></g></g><use xlink:href="#F" class="B E"/><path d="M1274.63 186.055c3.34 0 6.05-2.708 6.05-6.047s-2.7-6.047-6.05-6.047-6.05 2.707-6.05 6.047 2.7 6.047 6.05 6.047z" class="B E"/><path d="M1321.5 238.184c-.03-17.345 14.32-31.184 31.67-31.184h65.66c17.35 0 31.7 13.84 31.67 31.184-.1 58.683-8.84 96.816-64.5 96.816s-64.4-38.133-64.5-96.816z" fill="#74ffb9"/><path d="M1337.78 316.014c9.65 12.22 24.77 18.986 48.22 18.986 55.66 0 64.4-38.133 64.5-96.816.02-8.153-3.14-15.53-8.3-21.06.5 1.843.75 3.775.77 5.768.6 63.078-6.37 104.61-64.46 104.61-18.1 0-31.23-4.03-40.72-11.486z" class="B C D"/><path d="M1386 184.5c14.75 0 31.25 9.75 50.5 16.5 18.78 6.585 20 22 13.5 54-6.32-2.583-12.5-18.75-7-27-19.47 3.27-36.5 13-57 13s-37.53-9.73-57-13c6.5 13.75-2.68 21.417-7 27-6.5-32-5.28-47.415 13.5-54 19.25-6.75 35.75-16.5 50.5-16.5z" class="L"/><g class="B C"><path d="M1321.95 254.753l.05.248 1.87-2.277c4.56-5.388 10.8-12.75 5.13-24.723 7.8 1.3 15.2 3.655 22.6 5.996 11.07 3.506 22.12 7.004 34.4 7.004s23.34-3.498 34.4-7.004c7.4-2.34 14.8-4.686 22.6-5.996-5.5 8.25.68 24.418 7 27 .01-.034.01-.07.02-.104-4.18-6.605-7.25-16.505-3.26-28.478.77-2.32-1.13-4.85-3.54-4.425-7.57 1.34-17.03 3.172-22.8 5.003-11.07 3.506-22.12 7.004-34.4 7.004s-23.34-3.498-34.4-7.004c-5.48-1.737-14.55-3.2-22.05-4.375-2.63-.41-4.64 2.677-3.7 5.16 3.23 8.493 1.96 17.92-3.9 26.97z" class="D"/><path d="M1370.07 281.257c-7.75 0-19.33-11.75-16.5-16 2.72-4.07 27.1-3.76 29.18 1.774 2.1-.707 4.4-.707 6.5 0 2.08-5.533 26.46-5.845 29.18-1.774 2.83 4.25-8.76 16-16.5 16-5.2 0-12.1-6.243-12.86-11.614-1.92-.86-4.22-.86-6.14 0-.77 5.37-7.66 11.614-12.86 11.614z"/></g><g class="F"><path d="M1394.12 275.658c7.3.364 17.8-2.686 22.8-7.053-.04.097-.08.197-.13.3-1.84 3.867-5.64 7.1-9.33 9.134-2 1.105-3.94 1.718-5.52 1.718-2.32 0-5.36-1.618-7.8-4.098zm-33 .157c6.52.18 15.07-2.092 20.2-5.55-.52 1.937-1.92 3.786-3.16 5.1-2.5 2.646-5.68 4.392-8.1 4.392-3.25 0-6.44-2.027-8.94-3.943z"/></g><g class="C"><path d="M1386 308.5c8.72 0 14.5-8.062 14.5-16.194-9.67 1.182-19.33 1.182-29 0 0 8.132 5.78 16.194 14.5 16.194z" class="B E"/><path d="M1397.77 299.04c.8-1.637 1.23-3.37 1.23-5.04-8.4 1.027-17.6 1.027-26 0 0 1.67.44 3.403 1.23 5.04 2.55.43 6.72.96 11.77.96s9.22-.53 11.77-.96zm-.98 1.728c-2.34 3.52-6.3 6.232-10.8 6.232s-8.45-2.713-10.8-6.232c2.4.37 6 .732 10.8.732s8.38-.363 10.8-.732z" class="F"/></g><path d="M771 141c0-13.255 10.745-24 24-24h80c13.255 0 24 10.745 24 24v56c0 26.5-21.5 48-48 48h-32c-26.5 0-48-21.5-48-48v-56z" fill="#5c6dff"/><path d="M781.516 226.983C790.312 237.966 803.835 245 819 245h32c26.5 0 48-21.49 48-48v-56c0-8.548-4.468-16.052-11.196-20.304 2.34 3.706 3.696 8.096 3.696 12.804v60c0 24.3-19.7 44-44 44h-36c-11.344 0-21.77-3.936-29.984-10.516z" class="B C H"/><path d="M837 145.5c-20.5 0 .75-10-2-13s-18.75 13-28.25 13 3-13-5.75-15.5c-8.53-2.438-28.232-1.073-29.21 36.073-.015.56-.816.718-.997.186-5.678-16.68-20.763-71.8507 64.21-70.2595 85.23 1.596 70.015 53.8465 64.195 70.3665-.186.527-.97.307-.98-.25C897.148 108.06 874.886 145.5 837 145.5z" fill="#ff66cb"/><g class="C"><g class="B"><path d="M831.1 138.262c-.923 1.426-.204 2.238 4.4 2.238 13.067 0 24.58-4.464 34.116-8.163 18.264-7.083 29.283-11.356 30.102 23.915.007.288.417.42.497.143 1.47-5.1 3.826-13.898 3.134-23.42 2.406 13.167-1.706 26.442-4.154 33.392-.186.527-.97.308-.98-.25-.714-38.81-10.898-34.944-28.9-28.116-8.923 3.386-19.765 7.5-32.325 7.5-12.428 0-9.51-3.675-5.9-7.238zM839 127c-.176 2.73-2.18 5.2-4.17 7.28.452-.713.584-1.326.17-1.78-1.285-1.402-5.464 1.346-10.52 4.67-5.764 3.8-12.67 8.33-17.73 8.33-4.518 0-4.06-2.94-3.278-6.294.013.81.466 1.294 1.78 1.294 3.25 0 10.112-3.99 16.806-7.88 8.758-5.09 17.227-10.012 16.944-5.62zm-35.018 9.97l.203-.593c1.243-3.603 2.99-8.668-4.685-11.377-8.367-2.953-28.225-1.098-29.212 36.074-.015.56-.796.71-.968.176-.317-.987-.66-2.11-1.008-3.347.823 3.307 1.732 6.164 2.48 8.356.18.532.98.376.996-.186.98-37.145 20.68-38.5 29.212-36.073 3.677 1.05 3.6 3.955 2.983 6.97z" class="D"/><path d="M829.95 182.95c-.474 4.524-4.3 8.05-8.95 8.05-4.97 0-9-4.03-9-9s4.03-9 9-9c4.426 0 8.106 3.195 8.86 7.405.842-.42 2.408-.905 5.14-.905s4.3.486 5.14.905c.753-4.2 4.433-7.405 8.86-7.405 4.97 0 9 4.03 9 9s-4.03 9-9 9c-4.65 0-8.476-3.526-8.95-8.05-.93-.428-2.573-.95-5.05-.95s-4.12.522-5.05.95z"/></g><g class="F"><path d="M855.243 178.833a6.98 6.98 0 0 0-.82-1.259l-11.97 6.9c.18.473.4.92.682 1.338l12.108-7zm.562 1.52c.127.528.194 1.08.194 1.646 0 3.866-3.134 7-7 7-1.87 0-3.57-.735-4.826-1.93l11.632-6.716zm-28.548-1.498a6.976 6.976 0 0 0-.816-1.261l-11.976 6.914c.18.472.412.92.686 1.336l12.106-7zm.556 1.524a6.985 6.985 0 0 1 .19 1.622c0 3.866-3.134 7-7 7-1.862 0-3.554-.728-4.808-1.913l11.62-6.7z"/></g><path d="M835 222c12.75 0 20-8.5 20-16.5 0-8.5-9-3-20-3s-20-5.5-20 3c0 8 7.25 16.5 20 16.5z" class="B E"/><path d="M851.697 202.795c-1.245-.535-3.343-.12-6.144.435-2.845.563-6.415 1.27-10.55 1.27s-7.706-.707-10.55-1.27c-2.8-.554-4.9-.97-6.143-.435l.52 3.9c.1.832.566 1.577 1.32 1.95 2.043 1 6.867 2.856 14.855 2.856s12.812-1.846 14.854-2.856c.753-.373 1.21-1.118 1.32-1.95l.52-3.9zm-.492 9.345c-2.746 4.666-8.492 7.86-16.202 7.86s-13.457-3.194-16.203-7.86l.094-1.453c.05-.76.915-1.23 1.61-.918 2.29 1.03 7.18 2.73 14.5 2.73s12.21-1.7 14.5-2.73c.694-.312 1.56.16 1.61.918l.094 1.453z" class="F"/><path d="M850.352 305.723c0-59.695 19.652-114.89 83.648-114.89s83.65 57.44 83.65 114.89c0 29.35-167.298 29.35-167.298 0z" fill="#ffd54d"/><path d="M850.383 306.412c2.597 28.658 167.267 28.43 167.267-.69 0-23.293-3.23-46.584-11.34-66.045 4.17 17.462 4.8 37.377 4.8 57.478 0 25.846-129.744 28.932-160.717 9.256z" class="B D"/></g><path d="M867.465 239.59c-.358-15.71 13.523-27.09 29.236-27.09h74.596c15.713 0 29.593 11.382 29.233 27.09-1.4 61.593-44.432 101.91-66.53 101.91s-65.13-40.316-66.534-101.91z" fill="#b14dff"/><g class="C"><path d="M898.152 319.873c12.46 13.883 26.165 21.627 35.85 21.627 22.1 0 65.13-40.317 66.538-101.91.17-7.707-3.08-14.372-8.293-19.163.424 1.526.67 3.133.716 4.806 1.767 65.407-43.617 108.707-66.52 108.707-7.754 0-18.086-4.964-28.292-14.068z" class="B D"/><path d="M861.438 255.836c19.652-3.275 35.273-11.6 45.35-22.676-1.26 4.032-2.77 9.827-2.77 15.874 17.636-1.512 36.03-5.29 55.68-21.416 8.567 11.337 18.07 22.18 44.34 22.17-3.78-78.357-140.587-77.853-142.602 6.047z" fill="#ffd54d"/><g class="B"><path d="M873.293 253.12c14.125-4.182 25.54-11.207 33.497-19.96-1.26 4.03-2.77 9.826-2.77 15.873 17.636-1.512 36.03-5.29 55.68-21.416 7.974 10.553 16.76 20.676 39.123 22.02-25.32-5.187-31.645-19.294-34.805-26.343l-.79-1.725c-19.652 16.125-38.045 19.905-55.68 21.416 0-6.047 2.52-16.377 3.78-20.408-5.34 8.704-18.912 21.445-38.032 30.543z" class="D"/><path d="M948.613 299.676h-29.226c0 8.257 6.26 14.11 14.613 14.11s14.613-5.852 14.613-14.11z" class="E"/></g><path d="M945.66 305.723h-23.326c-.713-1.356-1.18-2.882-1.358-4.535h26.043c-.177 1.653-.645 3.18-1.36 4.535z" class="F"/><path d="M926.824 310.413c2.024 1.193 4.468 1.86 7.174 1.86s5.15-.667 7.175-1.86c-1.53-1.306-4.17-2.17-7.174-2.17s-5.645.864-7.175 2.17z" fill="#ff4949"/></g><path d="M930.06 278.83c-1.93 4.828-4.6 11.517-15.71 11.517-11.226 0-12.536-8.468-13.413-14.142-.442-2.857-.774-5.006-2.208-5.006-.252-1.26-.252-3.527-.252-4.535 20.197-1.916 25.955.26 29.997 1.787 1.807.683 3.27 1.236 5.528 1.236s3.72-.553 5.528-1.236c4.04-1.527 9.8-3.703 29.997-1.787 0 1.008 0 3.275-.252 4.535-1.434 0-1.767 2.15-2.208 5.006-.877 5.674-2.187 14.142-13.413 14.142-11.11 0-13.782-6.69-15.71-11.517-1.09-2.727-1.94-4.86-3.94-4.86s-2.852 2.133-3.94 4.86z" class="B"/><g class="F"><path d="M943.336 285.243c7.514.645 16.55-2.388 22.014-7.86-.523 3.17-1.334 6.595-3.767 8.87-1.6 1.486-4.014 2.585-7.93 2.585-3.73 0-7.623-.868-10.318-3.594zm-14.224-8.1c-1.447 3.484-2.747 7.16-5.997 9.403-1.927 1.33-4.668 2.292-8.766 2.292-3.638 0-7.288-1.12-9.333-4.276 7.918 1.197 17.984-1.756 24.096-7.42z"/></g><path d="M-11.6484 306.518c13.1013 8.818 41.8247 18.14 83.6488 18.14s70.5466-9.322 83.6486-18.14c-18.645-23.18-1.512-57.194-13.102-80.122s-29.226-36.28-70.5467-36.28-58.9575 13.354-70.5474 36.28 5.543 56.942-13.1013 80.122z" class="L"/><path d="M72.0006 316.596c-41.824 0-63.4928-5.795-76.594-14.613C.709 291.032-.633 277.604-2.54 264.06c.6065 15.022.7154 30.243-9.1083 42.457 13.1013 8.818 41.8247 18.14 83.6488 18.14s70.5466-9.322 83.6486-18.14c-9.672-12.024-9.716-26.963-9.137-41.758-1.582 10.783-2.377 23.063 2.334 38.482-14.11 8.063-35.02 13.354-76.8454 13.354z" class="B C D"/><path d="M5.9458 235.722c-.3963-16.18 13.653-28.222 29.838-28.222h72.4313c16.184 0 30.234 12.042 29.837 28.222C136.56 296.677 102.748 336.5 71.999 336.5S7.4386 296.677 5.9458 235.722z" fill="#ffff80"/><path d="M33.4688 315.92c11.5374 13.226 25.3174 20.58 38.5317 20.58 30.7485 0 64.5605-39.824 66.0535-100.778.192-7.87-3.03-14.76-8.256-19.76.445 1.63.695 3.345.725 5.127 1.067 64.93-34.1582 107.853-66.081 107.853-10.4324 0-21.2174-4.584-30.973-13.022z" class="B C D"/><path d="M7.4997 267.213c-21.668-46.61 14.9344-73.822 66.3332-73.822s77.784 26.203 66.263 70.295c-12.597-10.583-16.376-25.448-14.613-37.038C91.7215 278.3 7.4997 201.957 7.4997 267.213z" class="L"/><g class="B C"><path d="M7.9688 259.468c3.3425-25.213 24.1326-21.5 48.2184-17.22 24.7315 4.405 52.938 9.428 69.297-15.6-1.764 11.6 2.015 26.455 14.613 37.037.003-.013.007-.026.01-.04-12.922-21.235-12.798-33.366-11.095-44.556-17.712 24.82-45.202 20.208-69.5578 16.12-25.7636-4.324-48.02-8.06-51.4854 24.257z" class="D"/><path d="M86.8693 294.067c-1.031-.42-2.207.076-2.627 1.107-2.3413 5.746-9.3357 8.956-15.8656 7.605-1.09-.226-2.1567.475-2.3822 1.565s.4753 2.157 1.5654 2.382c8.0834 1.673 17.214-2.173 20.4157-10.03a2.017 2.017 0 0 0-1.1062-2.628z" class="E"/></g><path d="M51.3394 262.426c-11.5894 0-11.5894 1.763-11.5894 10.078 0 10.33 6.6175 11.6 12.3453 11.6 11.4006 0 13.3674-4.32 15.8735-9.323s5.5563-5.003 8.0624 0 4.473 9.323 15.8737 9.323c5.7278 0 12.345-1.26 12.345-11.6 0-8.315 0-10.078-11.5893-10.078-13.102 0-13.102 3.275-20.6606 3.275s-7.5587-3.275-20.6607-3.275z" class="B"/><g class="F"><path d="M66.677 268.883l-21.1424 11.815c-.6134-.346-1.177-.775-1.6714-1.305l21.6983-12.125c.6118.475 1.006 1.013 1.1155 1.615zm-.0982 2.19c-.6374 4.63-3.8344 11.007-14.012 11.007-1.5882 0-3.2545-.1-4.8-.5l18.802-10.507zm35.2042-3.842l-20.53 11.47c.507.463 1.074.895 1.7063 1.285l19.1968-10.728c-.062-.798-.173-1.468-.374-2.03zm.447 4.12l-17.246 9.638c1.7515.683 3.8772 1.1 6.4485 1.1 7.25 0 10.8614-3.537 10.7974-10.728z"/></g><path d="M1100.95 245.722c-.4-16.18 13.65-28.222 29.83-28.222h72.43c16.2 0 30.24 12.042 29.84 28.222-1.5 60.955-35.3 100.778-66.05 100.778s-64.56-39.823-66.05-100.778z" fill="#c4d9d9"/><path d="M1128.47 325.92c11.54 13.226 25.32 20.58 38.53 20.58 30.75 0 64.56-39.824 66.05-100.778.2-7.87-3.03-14.76-8.25-19.76.44 1.63.7 3.345.72 5.127 1.07 64.93-34.16 107.853-66.08 107.853-10.43 0-21.22-4.584-30.97-13.022z" class="B C D"/><path d="M1220.4 238.664c7.56 3.527 9.07 26.203 11.1 26.203 2 0 8.06-28.22 6.55-35.273s-7.56-7.81-12.85-13.102-3.28-10.078-9.07-13.353c-5.8-3.276-14.36-.252-20.4-2.268s-4.8-7.81-12.6-8.566-13.6 1.26-20.15 2.267-14.36-3.78-20.4-1.764-6.05 7.56-10.83 9.827c-4.8 2.267-10.6 1.007-16.13 4.03s-3.78 8.314-7.56 12.85-9.74 7.055-12.1 14.1 4.53 31.242 6.55 31.242 6.3-24.69 11.08-26.203c4.8-1.512 10.08 6.047 15.37 4.535 5.3-1.512 5.04-8.062 10.84-8.818 5.8-.756 12.6 10.33 18.9 8.818 6.3-1.512 14.87-9.322 20.4-9.322 5.55 0 12.6 9.322 18.9 9.826 7.42.594 14.86-8.566 22.42-5.04z" class="M"/><path d="M1231.9 248.752c-.84-4.36-2.8-14.477-13-16.637-7.8-1.65-12.34.658-16.3 2.673-2.7 1.37-5.13 2.606-8.14 2.366-3.16-.253-6.5-2.725-9.76-5.126-3.24-2.385-6.37-4.7-9.14-4.7-3.04 0-6.98 2.35-10.97 4.72-3.28 1.952-6.6 3.92-9.43 4.602-3.3.793-6.75-1.882-10.12-4.494-3.04-2.368-6.03-4.684-8.78-4.325-3.05.4-4.43 2.405-5.82 4.436-1.25 1.824-2.5 3.668-5 4.383-2.7.768-5.38-.807-8-2.343-2.53-1.486-5-2.936-7.36-2.192-2.85.9-5.52 9.998-7.64 17.225-1.25 4.276-2.3 7.896-3.1 8.774 1.26 3.963 2.5 6.754 3.2 6.754.82 0 2-4.054 3.45-8.977 2.12-7.227 4.8-16.326 7.64-17.226 2.35-.743 4.83.707 7.36 2.193 2.63 1.536 5.32 3.11 8 2.343 2.5-.716 3.76-2.56 5-4.383 1.4-2.03 2.77-4.038 5.82-4.436 2.75-.36 5.74 1.957 8.78 4.324 3.37 2.613 6.8 5.288 10.12 4.495 2.84-.683 6.15-2.65 9.43-4.602 3.98-2.37 7.93-4.72 10.97-4.72 2.77 0 5.9 2.316 9.14 4.7 3.25 2.4 6.6 4.873 9.76 5.125 3.22.258 6.44-1.317 9.67-2.896 4.23-2.066 8.47-4.14 12.75-2.143 4.9 2.28 7.25 12.568 8.85 19.554.88 3.818 1.53 6.65 2.24 6.65 2.02 0 8.06-28.218 6.55-35.273-.43-2.002-1.22-3.497-2.26-4.732.73 8.242-2.35 25.896-3.28 25.896-.23 0-.38-.773-.6-2.007z" class="B C D"/><path d="M1167 318.28c-7.56 0-18.64-10.078-18.64-10.078s11.08 1.764 18.64 1.764 18.64-1.764 18.64-1.764-11.08 10.078-18.64 10.078z" class="M"/><g class="B C D"><path d="M1148.43 308.215c3.5 2.17 12.1 7.043 18.57 7.043s15.06-4.874 18.57-7.043l.07-.012s-11.08 10.078-18.64 10.078-18.64-10.078-18.64-10.078a2.132 2.132 0 0 0 .07.012z"/><path d="M1148.5 308.336c4.22 1.192 11.47 2.89 18.5 2.89s14.28-1.7 18.5-2.89l.14-.133s-11.08 1.764-18.64 1.764-18.64-1.764-18.64-1.764.05.046.14.133z"/></g><path d="M1167 306.69c-4.03-4.032-7.05.504-18.64 1.51 0 0 11.08 1.764 18.64 1.764s18.65-1.764 18.65-1.764c-11.6-1.007-14.62-5.543-18.65-1.51z" class="M"/><path d="M1164.48 278.77c-.14-5.87-6.4-7.1-14.1-7.1-7.8 0-18.02.172-16.47 7.055 2.78 12.345 5.8 15.37 16.47 15.37 9.68 0 13.06-6.407 13.9-12.04 1.6-.8 3.9-.8 5.48 0 .83 5.634 4.2 12.04 13.9 12.04 10.67 0 13.7-3.024 16.47-15.37 1.55-6.883-8.66-7.055-16.47-7.055-7.72 0-13.97 1.23-14.1 7.1-1.62-.413-3.4-.413-5.04 0z" class="B"/><g class="C"><g class="F"><path d="M1177.22 290.648c-.67-.365-1.26-.786-1.77-1.248l22.7-12.685c.1.75-.02 1.587-.2 2.344l-20.74 11.6zm20.1-9.105c-1.13 4.132-2.32 6.55-3.9 8.03-1.84 1.74-4.58 2.506-9.8 2.506-1.6 0-3-.193-4.2-.534l17.9-10zm-34.94-.743l-18.8 10.502c1.65.53 3.82.776 6.78.776 5.14 0 8.03-1.976 9.72-4.42 1.4-2.024 2.07-4.52 2.3-6.857zm-20.87 9.528l20.95-11.704c-.05-.824-.26-1.442-.56-1.928l-21.93 12.255c.46.548.96.992 1.54 1.377z"/></g><path d="M447.392 277.504c6.746-55.32 21.164-79.113 78.61-79.113s71.865 23.792 78.6 79.113c4.132 33.885 5.29 52.406-78.61 52.406s-82.742-18.52-78.6-52.406z" class="J"/><path d="M446.285 301.377c2.458 18.61 18.297 28.533 79.71 28.533 83.9 0 82.74-18.52 78.61-52.406-2.14-17.566-5.057-31.952-9.878-43.408 3.1 9.61 5.272 20.853 6.855 33.834 4.13 33.885 5.3 52.406-78.6 52.406-49.857 0-69.678-6.54-76.687-18.96z" class="B D"/></g><path d="M459.946 240.722c-.396-16.18 13.653-28.222 29.838-28.222h72.43c16.184 0 30.234 12.042 29.837 28.222C590.56 301.677 556.748 341.5 526 341.5s-64.56-39.823-66.053-100.778z" fill="#d5ff80"/><path d="M487.47 320.92c11.537 13.226 25.317 20.58 38.53 20.58 30.75 0 64.56-39.824 66.054-100.778.192-7.87-3.03-14.76-8.256-19.76.445 1.63.695 3.345.725 5.127 1.067 64.93-34.158 107.853-66.08 107.853-10.433 0-21.217-4.584-30.973-13.022z" class="B C D"/><path d="M523.09 251.3c-1.008-9.07-4.535-16.377-8.063-22.172 4.535 5.795 28.22 24.943 52.407 26.203 1.4-5.543 1.904-11.086 0-18.644 2.91 7.8 14.893 24.943 26.09 28.218 4.283-20.156 8.286-63.492-67.412-63.492s-71.414 42.328-67.635 63.492c12.094-3.527 16.126-20.912 12.71-29.226 10.33 12.345 32.27 15.62 51.903 15.62z" class="J"/><path d="M511.88 226c2.934 5.024 7.328 12.552 8.185 20.26-19.63 0-41.068-3.276-51.4-15.62 2.602 8.098.67 25.835-9.993 34.207 11.942-3.656 15.912-20.9 12.514-29.168 10.33 12.345 32.27 15.62 51.903 15.62-1.008-9.07-4.535-16.377-8.063-22.172 4.535 5.795 28.22 24.943 52.406 26.203 1.4-5.543 1.904-11.086 0-18.644 2.903 7.786 14.82 24.836 25.987 28.187-12.114-9.916-25.646-28.804-28.87-38.014 1.764 7.307 3.024 19.653 1.764 23.684-24.188-1.26-51.288-21.164-55.823-26.96l1.39 2.415z" class="B C D"/><path d="M526 312.777c-7.56 0-14.613-9.07-14.613-9.07s7.054 1.764 14.613 1.764 14.613-1.764 14.613-1.764-7.054 9.07-14.613 9.07z" class="J"/><g class="B C D"><path d="M511.422 303.754c3.22 2.39 9.01 6 14.576 6s11.355-3.61 14.577-6c-.557.7-7.336 9.024-14.577 9.024s-14.018-8.323-14.576-9.024z"/><path d="M511.6 303.984c3.468 1.077 8.565 2.243 14.4 2.243s10.922-1.166 14.4-2.243l.223-.277S533.56 305.47 526 305.47s-14.613-1.764-14.613-1.764.077.1.223.277z"/></g><path d="M526 301.69c-3.023-3.528-8.566.504-14.613 2.015 0 0 7.054 1.764 14.613 1.764s14.614-1.764 14.614-1.764c-6.048-1.51-11.59-5.543-14.614-2.015z" class="J"/><g class="B"><use xlink:href="#G" class="E"/><path d="M541.62 285.062c3.34 0 6.047-2.707 6.047-6.046s-2.707-6.047-6.047-6.047-6.047 2.707-6.047 6.047 2.707 6.046 6.047 6.046z" class="E"/><path d="M511.387 266.922h-8.063c-6.68 0-12.094 5.414-12.094 12.094s5.415 12.093 12.094 12.093h8.063c6.338 0 11.538-4.876 12.052-11.082 1.598-.686 3.524-.686 5.122 0 .514 6.206 5.714 11.082 12.052 11.082h8.063c6.68 0 12.094-5.414 12.094-12.093s-5.415-12.094-12.094-12.094h-8.063c-5.98 0-10.948 4.342-11.92 10.045-1.652-.662-3.732-.662-5.384 0-.973-5.703-5.94-10.045-11.92-10.045zm0 3.023c5.01 0 9.07 4.06 9.07 9.07s-4.06 9.07-9.07 9.07h-8.063c-5.01 0-9.07-4.06-9.07-9.07s4.06-9.07 9.07-9.07h8.063zm37.29 0c5.01 0 9.07 4.06 9.07 9.07s-4.06 9.07-9.07 9.07h-8.063c-5.01 0-9.07-4.06-9.07-9.07s4.06-9.07 9.07-9.07h8.063z" class="C"/></g><rect x="668" y="223" width="128" height="128" rx="24" fill="#00ffbf"/><path d="M673.44 342.22c4.402 5.36 11.08 8.78 18.56 8.78h80c13.255 0 24-10.745 24-24v-80c0-7.478-3.42-14.157-8.78-18.56.828 2.195 1.28 4.574 1.28 7.06v88c0 11.046-8.954 20-20 20h-88c-2.485 0-4.864-.453-7.06-1.28z" class="B C D"/><path d="M755.002 256c28.5 0 53-8.5 53-30.75 0-41-45.5-16.94-92.25-20-32.37-2.12-51.342 9.604-51.75 34.5-.25 15.25 4.5 32 4.5 32s-2.5-18 10-23.75 48 8 76.5 8z" fill="#00bfff"/><g class="B"><path d="M794.5 220.25c0 22.25-13.5 28.25-42 28.25-12.406 0-26.138-2.226-38.722-4.266-16.326-2.647-30.72-4.98-37.778-1.734-7.596 3.495-9.653 11.697-10.098 17.596 1.23 6.83 2.598 11.654 2.598 11.654s-2.5-18 10-23.75c6.846-3.15 20.6-.45 36.304 2.637C727.784 253.187 742.108 256 755 256c28.5 0 53-8.5 53-30.75 0-16.135-7.047-22.194-18.444-23.795 3.213 3.69 4.944 9.61 4.944 18.795z" class="C D"/><path d="M714.5 295.5c4.418 0 8-3.582 8-8s-3.582-8-8-8-8 3.582-8 8 3.582 8 8 8zm35 0c4.418 0 8-3.582 8-8s-3.582-8-8-8-8 3.582-8 8 3.582 8 8 8z" class="H"/><path d="M732 322c7.18 0 13-4.925 13-11h-26c0 6.075 5.82 11 13 11z" class="C H"/></g></g><defs><clipPath id="A"><path d="M0 0h1440v367H0z" class="F"/></clipPath><path id="B" d="M1131.25 111c3.45 0 6.25-2.798 6.25-6.25s-2.8-6.25-6.25-6.25-6.25 2.798-6.25 6.25 2.8 6.25 6.25 6.25z"/><path id="C" d="M948 113c4.418 0 8-3.582 8-8s-3.582-8-8-8-8 3.582-8 8 3.582 8 8 8z"/><path id="D" d="M719.38 101.55c3.618 0 6.55-2.933 6.55-6.55s-2.933-6.5508-6.55-6.5508-6.55 2.933-6.55 6.5508 2.933 6.55 6.55 6.55z"/><path id="E" d="M404.38 199.047c3.34 0 6.047-2.707 6.047-6.047s-2.707-6.047-6.047-6.047-6.047 2.707-6.047 6.047 2.707 6.047 6.047 6.047z"/><path id="F" d="M1241.37 186.055c3.34 0 6.05-2.708 6.05-6.047s-2.7-6.047-6.05-6.047-6.05 2.707-6.05 6.047 2.7 6.047 6.05 6.047z"/><path id="G" d="M510.38 285.062c3.34 0 6.047-2.707 6.047-6.046s-2.707-6.047-6.047-6.047-6.047 2.707-6.047 6.047 2.707 6.046 6.047 6.046z"/></defs></svg>