<svg xmlns="http://www.w3.org/2000/svg" xmlns:xlink="http://www.w3.org/1999/xlink" width="292" height="530" fill="none" xmlns:v="https://vecta.io/nano"><style><![CDATA[.B{fill-rule:evenodd}.C{fill:#000}.D{fill:#fff}.E{fill-opacity:.15}.F{fill:#ffee52}.G{fill:#ff6df3}.H{fill:#44e9ff}.I{fill:#5cff94}.J{fill:#1f78ff}.K{fill-opacity:.3197}.L{fill-opacity:.245}]]></style><g clip-path="url(#C)"><g class="C"><path d="M138 3.3V1.74h9.92V3.3h-1.68v.24c1.307.6133 1.96 1.68 1.96 3.2 0 1.1467-.36 2.06-1.08 2.74-.707.68-1.773 1.02-3.2 1.02H138V8.94h5.6c1.04 0 1.82-.2333 2.34-.7s.78-1.1.78-1.9c0-.9467-.327-1.6933-.98-2.24-.64-.5333-1.5-.8-2.58-.8H138zm1.68 17.886v-.24c-.667-.32-1.16-.7667-1.48-1.34-.32-.56-.48-1.1533-.48-1.78 0-.6533.107-1.26.32-1.82.227-.56.553-1.0533.98-1.48.44-.4133.973-.74 1.6-.98s1.353-.36 2.18-.36h.32c.813 0 1.533.12 2.16.36s1.153.5667 1.58.98c.44.4267.773.92 1 1.48s.34 1.1533.34 1.78c0 .68-.153 1.2933-.46 1.84-.293.56-.753 1-1.38 1.32v.24h1.56v1.56h-7.88c-.4 0-.6.18-.6.54v.5H138v-1.06c0-.4533.147-.8267.44-1.12.293-.28.667-.42 1.12-.42h.12zm-.48-3.2c0 .4667.087.8933.26 1.28.173.4.42.74.74 1.02s.7.5 1.14.66c.453.16.953.24 1.5.24h.24c.533 0 1.02-.08 1.46-.24.453-.16.84-.3867 1.16-.68.32-.28.567-.62.74-1.02.187-.3867.28-.8067.28-1.26 0-.4667-.087-.8933-.26-1.28s-.42-.7267-.74-1.02c-.307-.28-.687-.5-1.14-.66-.44-.16-.927-.24-1.46-.24h-.32c-1.133 0-2.02.2933-2.66.88-.627.6-.94 1.3733-.94 2.32zm-1.2 9.806v-1.56h9.92v1.56h-1.68v.24c1.307.6133 1.96 1.68 1.96 3.2 0 1.1467-.36 2.06-1.08 2.74-.707.68-1.773 1.02-3.2 1.02H138v-1.56h5.6c1.04 0 1.82-.2333 2.34-.7s.78-1.1.78-1.9c0-.9467-.327-1.6933-.98-2.24-.64-.5333-1.5-.8-2.58-.8H138zm4.84 20.046c-.827 0-1.56-.14-2.2-.42-.627-.2667-1.16-.6267-1.6-1.08-.427-.4534-.753-.9867-.98-1.6-.227-.6-.34-1.2267-.34-1.88 0-.6667.113-1.3.34-1.9s.553-1.1267.98-1.58c.44-.4534.973-.82 1.6-1.1.64-.2667 1.373-.4 2.2-.4h.24c.813 0 1.533.1333 2.16.4.64.28 1.18.6466 1.62 1.1.44.4666.773 1 1 1.6s.34 1.2266.34 1.88-.113 1.28-.34 1.88-.56 1.1266-1 1.58c-.44.4666-.98.8333-1.62 1.1-.627.28-1.347.42-2.16.42h-.24zm-3.64-4.98c0 .48.08.92.24 1.32.173.4133.42.7733.74 1.08s.7.5466 1.14.72c.453.1733.96.26 1.52.26h.24c.533 0 1.02-.0867 1.46-.26.453-.1734.84-.4134 1.16-.72s.567-.6667.74-1.08c.187-.4134.28-.8534.28-1.32s-.093-.9067-.28-1.32c-.173-.4134-.42-.7734-.74-1.08s-.707-.5467-1.16-.72c-.44-.1734-.927-.26-1.46-.26h-.24c-.56 0-1.067.0866-1.52.26-.44.1733-.82.4133-1.14.72s-.567.66-.74 1.06c-.16.4133-.24.86-.24 1.34zm-2.16 7.586v9.32h-1.44v-9.32h1.44zm7.92 15.526h2.32l2.92 4.56h.24V62.6H152v9.36h-2.56l-2.92-4.56h-.24v.8c0 .5333-.087 1.0466-.26 1.54s-.427.9266-.76 1.3c-.333.3866-.747.6933-1.24.92-.48.24-1.04.36-1.68.36h-.36c-.6 0-1.16-.12-1.68-.36s-.973-.5734-1.36-1c-.373-.4267-.673-.9334-.9-1.52-.213-.5734-.32-1.2-.32-1.88 0-.7867.12-1.4934.36-2.12s.567-1.16.98-1.6c.427-.44.92-.78 1.48-1.02.573-.2267 1.18-.34 1.82-.34h1.08v1.68h-.96c-.507 0-.96.08-1.36.24-.387.1733-.72.4066-1 .7-.267.3066-.473.6666-.62 1.08s-.22.86-.22 1.34c0 .44.073.8466.22 1.22.147.3866.347.72.6 1 .267.28.573.5.92.66.36.16.74.24 1.14.24h.12c.84 0 1.493-.2667 1.96-.8.48-.5334.72-1.2.72-2v-1.88zm2.96 16.306v1.78l-4.72-2.92h-.24l-4.96 3.16v-1.82l4.36-2.7v-.36l-4.36-2.7v-1.82l4.96 3.16h.24l4.72-2.92v1.78l-4.12 2.5v.36l4.12 2.5zm-8.4 12.786v-.24c-.307-.1734-.573-.3867-.8-.64-.213-.24-.4-.5067-.56-.8-.147-.28-.253-.58-.32-.9-.08-.3067-.12-.6067-.12-.9 0-.6667.113-1.2867.34-1.86s.553-1.08.98-1.52c.427-.4267.953-.7667 1.58-1.02.64-.24 1.367-.36 2.18-.36h.32c.8 0 1.513.1266 2.14.38.64.2533 1.173.5933 1.6 1.02.44.4266.773.9266 1 1.5s.34 1.18.34 1.82c0 .68-.16 1.3066-.48 1.88-.307.5866-.76 1.0533-1.36 1.4v.24h1.56v1.56H134v-1.56h5.52zm-.32-3.32c0 .4666.087.9.26 1.3s.42.7466.74 1.04c.32.3066.7.5466 1.14.72.453.1733.953.26 1.5.26h.24c.533 0 1.02-.0867 1.46-.26.453-.1734.84-.4134 1.16-.72.32-.2934.567-.6467.74-1.06.187-.4.28-.8267.28-1.28 0-.4667-.087-.9067-.26-1.32-.173-.4-.42-.7534-.74-1.06-.32-.2934-.7-.5267-1.14-.7-.44-.16-.927-.24-1.46-.24h-.32c-.56 0-1.06.08-1.5.24-.44.1733-.82.4066-1.14.7-.307.3066-.547.66-.72 1.06-.16.4-.24.84-.24 1.32zm8.72 15.2863c.867 0 1.56-.267 2.08-.8.533-.534.8-1.274.8-2.22 0-.454-.08-.874-.24-1.26-.16-.374-.393-.7-.7-.98-.293-.267-.647-.48-1.06-.64-.413-.147-.867-.22-1.36-.22h-2.08v.24c.587.32 1.047.773 1.38 1.36.333.6.5 1.266.5 2 0 .64-.107 1.233-.32 1.78-.2.546-.5 1.013-.9 1.4-.4.4-.887.706-1.46.92-.56.226-1.2.34-1.92.34h-.24c-.693 0-1.327-.127-1.9-.38-.573-.24-1.067-.58-1.48-1.02-.413-.427-.733-.94-.96-1.54-.227-.587-.34-1.227-.34-1.92s.113-1.34.34-1.94c.227-.587.54-1.1.94-1.54.413-.427.9-.767 1.46-1.0203.573-.24 1.2-.36 1.88-.36h5.1c.733 0 1.4.1267 2 .38s1.107.6003 1.52 1.0403c.427.44.753.946.98 1.52.227.586.34 1.213.34 1.88s-.1 1.286-.3 1.86-.493 1.066-.88 1.48c-.373.413-.833.733-1.38.96-.533.24-1.133.36-1.8.36v-1.68zm-8.72-2.94c0 .48.073.913.22 1.3.16.4.38.74.66 1.02s.613.493 1 .64.813.22 1.28.22h.24c.467 0 .893-.08 1.28-.24s.72-.38 1-.66.493-.62.64-1.02c.16-.387.24-.807.24-1.26s-.08-.874-.24-1.26-.38-.727-.66-1.02c-.28-.28-.607-.5-.98-.66s-.773-.24-1.2-.24h-.38c-.44 0-.853.073-1.24.22-.373.146-.7.36-.98.64s-.5.613-.66 1c-.147.4-.22.84-.22 1.32zm11.68 10.946c.387 0 .713.133.98.4.28.28.42.613.42 1s-.14.713-.42.98c-.267.28-.593.42-.98.42s-.72-.14-1-.42c-.267-.267-.4-.593-.4-.98s.133-.72.4-1c.28-.267.613-.4 1-.4zm-11.44-2.84v3.48h7.04v-3.12h1.44v4.68h-8.48v3.24H138v-8.28h1.44zM180 18.3v-1.56h9.92v1.56h-1.68v.24c1.307.6133 1.96 1.68 1.96 3.2 0 1.1467-.36 2.06-1.08 2.74-.707.68-1.773 1.02-3.2 1.02H180v-1.56h5.6c1.04 0 1.82-.2333 2.34-.7s.78-1.1.78-1.9c0-.9467-.327-1.6933-.98-2.24-.64-.5333-1.5-.8-2.58-.8H180zm1.68 17.886v-.24c-.667-.32-1.16-.7667-1.48-1.34-.32-.56-.48-1.1533-.48-1.78 0-.6533.107-1.26.32-1.82.227-.56.553-1.0533.98-1.48.44-.4133.973-.74 1.6-.98s1.353-.36 2.18-.36h.32c.813 0 1.533.12 2.16.36s1.153.5667 1.58.98c.44.4267.773.92 1 1.48s.34 1.1533.34 1.78c0 .68-.153 1.2933-.46 1.84-.293.56-.753 1-1.38 1.32v.24h1.56v1.56h-7.88c-.4 0-.6.18-.6.54v.5H180v-1.06c0-.4533.147-.8267.44-1.12.293-.28.667-.42 1.12-.42h.12zm-.48-3.2c0 .4667.087.8933.26 1.28.173.4.42.74.74 1.02s.7.5 1.14.66c.453.16.953.24 1.5.24h.24c.533 0 1.02-.08 1.46-.24.453-.16.84-.3867 1.16-.68.32-.28.567-.62.74-1.02.187-.3867.28-.8067.28-1.26 0-.4667-.087-.8933-.26-1.28s-.42-.7267-.74-1.02c-.307-.28-.687-.5-1.14-.66-.44-.16-.927-.24-1.46-.24h-.32c-1.133 0-2.02.2933-2.66.88-.627.6-.94 1.3733-.94 2.32zm-1.2 9.806v-1.56h9.92v1.56h-1.68v.24c1.307.6133 1.96 1.68 1.96 3.2 0 1.1467-.36 2.06-1.08 2.74-.707.68-1.773 1.02-3.2 1.02H180v-1.56h5.6c1.04 0 1.82-.2333 2.34-.7s.78-1.1.78-1.9c0-.9467-.327-1.6933-.98-2.24-.64-.5333-1.5-.8-2.58-.8H180zm4.84 20.046c-.827 0-1.56-.14-2.2-.42-.627-.2667-1.16-.6267-1.6-1.08-.427-.4534-.753-.9867-.98-1.6-.227-.6-.34-1.2267-.34-1.88 0-.6667.113-1.3.34-1.9s.553-1.1267.98-1.58c.44-.4534.973-.82 1.6-1.1.64-.2667 1.373-.4 2.2-.4h.24c.813 0 1.533.1333 2.16.4.64.28 1.18.6466 1.62 1.1.44.4666.773 1 1 1.6s.34 1.2266.34 1.88-.113 1.28-.34 1.88-.56 1.1266-1 1.58c-.44.4666-.98.8333-1.62 1.1-.627.28-1.347.42-2.16.42h-.24zm-3.64-4.98c0 .48.08.92.24 1.32.173.4133.42.7733.74 1.08s.7.5466 1.14.72c.453.1733.96.26 1.52.26h.24c.533 0 1.02-.0867 1.46-.26.453-.1734.84-.4134 1.16-.72s.567-.6667.74-1.08c.187-.4134.28-.8534.28-1.32s-.093-.9067-.28-1.32c-.173-.4134-.42-.7734-.74-1.08s-.707-.5467-1.16-.72c-.44-.1734-.927-.26-1.46-.26h-.24c-.56 0-1.067.0866-1.52.26-.44.1733-.82.4133-1.14.72s-.567.66-.74 1.06c-.16.4133-.24.86-.24 1.34zm-2.16 7.586v9.32h-1.44v-9.32h1.44zm2.52 16.166h11.7v-.24l-5.26-2.3V77.4h.12l5.88 2.62v3.26h-12.44v3.96H180v-9.6h1.56v3.96zm.12 15.806v-.24c-.667-.32-1.16-.7667-1.48-1.34-.32-.56-.48-1.1534-.48-1.78 0-.6534.107-1.26.32-1.82.227-.56.553-1.0534.98-1.48.44-.4134.973-.74 1.6-.98s1.353-.36 2.18-.36h.32c.813 0 1.533.12 2.16.36s1.153.5666 1.58.98c.44.4266.773.92 1 1.48s.34 1.1533.34 1.78c0 .68-.153 1.2933-.46 1.84-.293.56-.753 1-1.38 1.32v.24h1.56v1.56h-7.88c-.4 0-.6.18-.6.54v.5004H180V98.956c0-.4534.147-.8267.44-1.12.293-.28.667-.42 1.12-.42h.12zm-.48-3.2c0 .4666.087.8933.26 1.28.173.4.42.74.74 1.02s.7.5 1.14.66c.453.16.953.24 1.5.24h.24c.533 0 1.02-.08 1.46-.24.453-.16.84-.3867 1.16-.68.32-.28.567-.62.74-1.02.187-.3867.28-.8067.28-1.26 0-.4667-.087-.8934-.26-1.28s-.42-.7267-.74-1.02c-.307-.28-.687-.5-1.14-.66-.44-.16-.927-.24-1.46-.24h-.32c-1.133 0-2.02.2933-2.66.88-.627.6-.94 1.3733-.94 2.32zm-1.2 9.8064v-1.56h14v1.56h-5.88v.24c.64.306 1.147.733 1.52 1.28.373.56.56 1.24.56 2.04 0 1.08-.36 1.953-1.08 2.62-.707.68-1.773 1.02-3.2 1.02H180v-1.56h5.6c1.04 0 1.82-.234 2.34-.7s.78-1.1.78-1.9c0-.947-.327-1.694-.98-2.24-.64-.534-1.5-.8-2.58-.8H180zm1.68 17.886v-.24c-.667-.32-1.16-.767-1.48-1.34-.32-.56-.48-1.154-.48-1.78 0-.654.107-1.26.32-1.82.227-.56.553-1.054.98-1.48.44-.414.973-.74 1.6-.98s1.353-.36 2.18-.36h.32c.813 0 1.533.12 2.16.36s1.153.566 1.58.98c.44.426.773.92 1 1.48s.34 1.153.34 1.78c0 .68-.153 1.293-.46 1.84-.293.56-.753 1-1.38 1.32v.24h1.56v1.56h-7.88c-.4 0-.6.18-.6.54v.5H180v-1.06c0-.454.147-.827.44-1.12.293-.28.667-.42 1.12-.42h.12zm-.48-3.2c0 .466.087.893.26 1.28.173.4.42.74.74 1.02s.7.5 1.14.66c.453.16.953.24 1.5.24h.24c.533 0 1.02-.08 1.46-.24.453-.16.84-.387 1.16-.68.32-.28.567-.62.74-1.02.187-.387.28-.807.28-1.26 0-.467-.087-.894-.26-1.28s-.42-.727-.74-1.02c-.307-.28-.687-.5-1.14-.66-.44-.16-.927-.24-1.46-.24h-.32c-1.133 0-2.02.293-2.66.88-.627.6-.94 1.373-.94 2.32z" fill-opacity=".35"/><path d="M96 18.3v-1.56h9.92v1.56h-1.68v.24c1.307.6133 1.96 1.68 1.96 3.2 0 1.1467-.36 2.06-1.08 2.74-.707.68-1.773 1.02-3.2 1.02H96v-1.56h5.6c1.04 0 1.82-.2333 2.34-.7s.78-1.1.78-1.9c0-.9467-.327-1.6933-.98-2.24-.64-.5333-1.5-.8-2.58-.8H96zm1.68 17.886v-.24c-.6667-.32-1.16-.7667-1.48-1.34-.32-.56-.48-1.1533-.48-1.78 0-.6533.1067-1.26.32-1.82.2267-.56.5533-1.0533.98-1.48.44-.4133.9733-.74 1.6-.98s1.3533-.36 2.18-.36h.32c.813 0 1.533.12 2.16.36s1.153.5667 1.58.98c.44.4267.773.92 1 1.48s.34 1.1533.34 1.78c0 .68-.153 1.2933-.46 1.84-.293.56-.753 1-1.38 1.32v.24h1.56v1.56h-7.88c-.4 0-.6.18-.6.54v.5H96v-1.06c0-.4533.1467-.8267.44-1.12.2933-.28.6667-.42 1.12-.42h.12zm-.48-3.2c0 .4667.0867.8933.26 1.28.1733.4.42.74.74 1.02s.7.5 1.14.66c.4533.16.953.24 1.5.24h.24c.533 0 1.02-.08 1.46-.24.453-.16.84-.3867 1.16-.68.32-.28.567-.62.74-1.02.187-.3867.28-.8067.28-1.26 0-.4667-.087-.8933-.26-1.28s-.42-.7267-.74-1.02c-.307-.28-.687-.5-1.14-.66-.44-.16-.927-.24-1.46-.24h-.32c-1.1333 0-2.02.2933-2.66.88-.6267.6-.94 1.3733-.94 2.32zM96 42.792v-1.56h9.92v1.56h-1.68v.24c1.307.6133 1.96 1.68 1.96 3.2 0 1.1467-.36 2.06-1.08 2.74-.707.68-1.773 1.02-3.2 1.02H96v-1.56h5.6c1.04 0 1.82-.2333 2.34-.7s.78-1.1.78-1.9c0-.9467-.327-1.6933-.98-2.24-.64-.5333-1.5-.8-2.58-.8H96zm4.84 20.046c-.827 0-1.56-.14-2.2-.42-.6267-.2667-1.16-.6267-1.6-1.08-.4267-.4534-.7533-.9867-.98-1.6-.2267-.6-.34-1.2267-.34-1.88 0-.6667.1133-1.3.34-1.9s.5533-1.1267.98-1.58c.44-.4534.9733-.82 1.6-1.1.64-.2667 1.373-.4 2.2-.4h.24c.813 0 1.533.1333 2.16.4.64.28 1.18.6466 1.62 1.1.44.4666.773 1 1 1.6s.34 1.2266.34 1.88-.113 1.28-.34 1.88-.56 1.1266-1 1.58c-.44.4666-.98.8333-1.62 1.1-.627.28-1.347.42-2.16.42h-.24zm-3.64-4.98c0 .48.08.92.24 1.32.1733.4133.42.7733.74 1.08s.7.5466 1.14.72c.4533.1733.96.26 1.52.26h.24c.533 0 1.02-.0867 1.46-.26.453-.1734.84-.4134 1.16-.72s.567-.6667.74-1.08c.187-.4134.28-.8534.28-1.32s-.093-.9067-.28-1.32c-.173-.4134-.42-.7734-.74-1.08s-.707-.5467-1.16-.72c-.44-.1734-.927-.26-1.46-.26h-.24c-.56 0-1.0667.0866-1.52.26-.44.1733-.82.4133-1.14.72s-.5667.66-.74 1.06c-.16.4133-.24.86-.24 1.34zm-2.16 7.586v9.32H93.6v-9.32h1.44zm7.92 15.526h2.32l2.92 4.56h.24V77.6H110v9.36h-2.56l-2.92-4.56h-.24v.8c0 .5333-.087 1.0466-.26 1.54s-.427.9266-.76 1.3c-.333.3866-.747.6933-1.24.92-.48.24-1.04.36-1.68.36h-.36c-.6 0-1.16-.12-1.68-.36s-.9733-.5734-1.36-1c-.3733-.4267-.6733-.9334-.9-1.52-.2133-.5734-.32-1.2-.32-1.88 0-.7867.12-1.4934.36-2.12s.5667-1.16.98-1.6a4.526 4.526 0 0 1 1.48-1.02c.5733-.2267 1.18-.34 1.82-.34h1.08v1.68h-.96c-.5067 0-.96.08-1.36.24-.3867.1733-.72.4066-1 .7-.2667.3066-.4733.6666-.62 1.08s-.22.86-.22 1.34c0 .44.0733.8466.22 1.22.1467.3866.3467.72.6 1 .2667.28.5733.5.92.66.36.16.74.24 1.14.24h.12c.84 0 1.493-.2667 1.96-.8.48-.5334.72-1.2.72-2v-1.88zm-2.88 10.686c-.8667 0-1.5667.2666-2.1.8-.52.5333-.78 1.2733-.78 2.22 0 .4533.08.8666.24 1.24.16.3866.3867.7133.68.98.3067.28.66.4933 1.06.64.4133.16.873.24 1.38.24h2.08v-.24c-.587-.3067-1.047-.7467-1.38-1.32s-.5-1.24-.5-2c0-.6534.1-1.2534.3-1.8s.493-1.02.88-1.42c.4-.4.88-.7134 1.44-.94.56-.2134 1.2-.32 1.92-.32h.24c.693 0 1.327.12 1.9.36.587.24 1.087.5733 1.5 1 .427.44.753.9533.98 1.54.24.6.36 1.2533.36 1.96s-.12 1.3533-.36 1.94c-.227.6-.547 1.1133-.96 1.54-.413.44-.907.78-1.48 1.02s-1.2.36-1.88.36h-5.04c-.7467 0-1.42-.1267-2.02-.38-.5867-.24-1.0933-.58-1.52-1.02-.4133-.4267-.7333-.9334-.96-1.52s-.34-1.22-.34-1.9.1-1.3067.3-1.88.4867-1.0667.86-1.48c.3867-.4134.8467-.7334 1.38-.96.5467-.2267 1.1533-.34 1.82-.34v1.68zm8.72 2.94c0-.48-.08-.92-.24-1.32-.16-.3867-.387-.72-.68-1s-.64-.4934-1.04-.64c-.387-.1467-.807-.22-1.26-.22h-.24c-.467 0-.893.08-1.28.24-.373.16-.7.38-.98.66-.267.28-.473.6133-.62 1s-.22.8133-.22 1.28c0 .4533.073.8733.22 1.26.16.3866.373.72.64 1 .267.2933.587.52.96.68s.773.24 1.2.24h.38c.44 0 .853-.0734 1.24-.22s.72-.36 1-.64c.293-.28.52-.62.68-1.02.16-.3867.24-.82.24-1.3zm-2.88 7.3064v3.6h-1.32v.24c.547.253.947.613 1.2 1.08.267.466.4 1 .4 1.6 0 1-.327 1.806-.98 2.42s-1.607.94-2.86.98l-.24-1.64c.92 0 1.58-.22 1.98-.66.413-.44.62-.98.62-1.62 0-.414-.08-.774-.24-1.08-.16-.294-.38-.54-.66-.74s-.607-.347-.98-.44-.773-.14-1.2-.14h-4.2v2.52H96v-6.36h1.44v2.28h7.04v-2.04h1.44zm-8.24 20.006v-.24c-.6667-.32-1.16-.767-1.48-1.34-.32-.56-.48-1.154-.48-1.78 0-.654.1067-1.26.32-1.82.2267-.56.5533-1.054.98-1.48.44-.414.9733-.74 1.6-.98s1.3533-.36 2.18-.36h.32c.813 0 1.533.12 2.16.36s1.153.566 1.58.98c.44.426.773.92 1 1.48s.34 1.153.34 1.78c0 .68-.153 1.293-.46 1.84-.293.56-.753 1-1.38 1.32v.24h1.56v1.56h-7.88c-.4 0-.6.18-.6.54v.5H96v-1.06c0-.454.1467-.827.44-1.12.2933-.28.6667-.42 1.12-.42h.12zm-.48-3.2c0 .466.0867.893.26 1.28.1733.4.42.74.74 1.02s.7.5 1.14.66c.4533.16.953.24 1.5.24h.24c.533 0 1.02-.08 1.46-.24.453-.16.84-.387 1.16-.68.32-.28.567-.62.74-1.02.187-.387.28-.807.28-1.26 0-.467-.087-.894-.26-1.28s-.42-.727-.74-1.02c-.307-.28-.687-.5-1.14-.66-.44-.16-.927-.24-1.46-.24h-.32c-1.1333 0-2.02.293-2.66.88-.6267.6-.94 1.373-.94 2.32zM54 38.3v-1.56h9.92v1.56h-1.68v.24c1.3067.6133 1.96 1.68 1.96 3.2 0 1.1467-.36 2.06-1.08 2.74-.7067.68-1.7733 1.02-3.2 1.02H54v-1.56h5.6c1.04 0 1.82-.2333 2.34-.7s.78-1.1.78-1.9c0-.9467-.3267-1.6933-.98-2.24-.64-.5333-1.5-.8-2.58-.8H54zm1.68 17.886v-.24c-.6667-.32-1.16-.7667-1.48-1.34-.32-.56-.48-1.1533-.48-1.78 0-.6533.1067-1.26.32-1.82.2267-.56.5533-1.0533.98-1.48.44-.4133.9733-.74 1.6-.98s1.3533-.36 2.18-.36h.32c.8133 0 1.5333.12 2.16.36s1.1533.5667 1.58.98c.44.4267.7733.92 1 1.48s.34 1.1533.34 1.78c0 .68-.1533 1.2933-.46 1.84-.2933.56-.7533 1-1.38 1.32v.24h1.56v1.56h-7.88c-.4 0-.6.18-.6.54v.5H54v-1.06c0-.4533.1467-.8267.44-1.12.2933-.28.6667-.42 1.12-.42h.12zm-.48-3.2c0 .4667.0867.8933.26 1.28.1733.4.42.74.74 1.02s.7.5 1.14.66c.4533.16.9533.24 1.5.24h.24c.5333 0 1.02-.08 1.46-.24.4533-.16.84-.3867 1.16-.68.32-.28.5667-.62.74-1.02.1867-.3867.28-.8067.28-1.26 0-.4667-.0867-.8933-.26-1.28s-.42-.7267-.74-1.02c-.3067-.28-.6867-.5-1.14-.66-.44-.16-.9267-.24-1.46-.24h-.32c-1.1333 0-2.02.2933-2.66.88-.6267.6-.94 1.3733-.94 2.32zM54 62.792v-1.56h9.92v1.56h-1.68v.24c1.3067.6133 1.96 1.68 1.96 3.2 0 1.1467-.36 2.06-1.08 2.74-.7067.68-1.7733 1.02-3.2 1.02H54v-1.56h5.6c1.04 0 1.82-.2333 2.34-.7s.78-1.1.78-1.9c0-.9467-.3267-1.6933-.98-2.24-.64-.5333-1.5-.8-2.58-.8H54zm4.84 20.046c-.8267 0-1.56-.14-2.2-.42-.6267-.2667-1.16-.6267-1.6-1.08-.4267-.4534-.7533-.9867-.98-1.6-.2267-.6-.34-1.2267-.34-1.88 0-.6667.1133-1.3.34-1.9s.5533-1.1267.98-1.58c.44-.4534.9733-.82 1.6-1.1.64-.2667 1.3733-.4 2.2-.4h.24c.8133 0 1.5333.1333 2.16.4.64.28 1.18.6466 1.62 1.1a4.764 4.764 0 0 1 1 1.6c.2267.6.34 1.2266.34 1.88s-.1133 1.28-.34 1.88-.56 1.1266-1 1.58c-.44.4666-.98.8333-1.62 1.1-.6267.28-1.3467.42-2.16.42h-.24zm-3.64-4.98c0 .48.08.92.24 1.32.1733.4133.42.7733.74 1.08s.7.5466 1.14.72c.4533.1733.96.26 1.52.26h.24c.5333 0 1.02-.0867 1.46-.26.4533-.1734.84-.4134 1.16-.72s.5667-.6667.74-1.08c.1867-.4134.28-.8534.28-1.32s-.0933-.9067-.28-1.32c-.1733-.4134-.42-.7734-.74-1.08s-.7067-.5467-1.16-.72c-.44-.1734-.9267-.26-1.46-.26h-.24c-.56 0-1.0667.0866-1.52.26-.44.1733-.82.4133-1.14.72s-.5667.66-.74 1.06c-.16.4133-.24.86-.24 1.34zm-2.16 7.586v9.32H51.6v-9.32h1.44zm2.52 16.156h11.7v-.24L62 99.0705v-1.66h.12L68 100.03v3.26H55.56v3.96H54v-9.5995h1.56V101.6zm.24 15.807v-.24c-.64-.32-1.1467-.74-1.52-1.26s-.56-1.18-.56-1.98c0-.547.0933-1.054.28-1.52.1733-.454.44-.847.8-1.18.36-.32.8067-.574 1.34-.76.5333-.174 1.1533-.26 1.86-.26h5.92v1.56H58.2c-1.04 0-1.8.213-2.28.64s-.72 1.08-.72 1.96c0 .946.32 1.686.96 2.22.6533.546 1.52.82 2.6.82h5.16v1.56H51.56c-.4533 0-.8267-.147-1.12-.44-.2933-.28-.44-.647-.44-1.1v-5.66h1.44v5.1c0 .36.2.54.6.54h3.76zM222 38.3v-1.56h9.92v1.56h-1.68v.24c1.307.6133 1.96 1.68 1.96 3.2 0 1.1467-.36 2.06-1.08 2.74-.707.68-1.773 1.02-3.2 1.02H222v-1.56h5.6c1.04 0 1.82-.2333 2.34-.7s.78-1.1.78-1.9c0-.9467-.327-1.6933-.98-2.24-.64-.5333-1.5-.8-2.58-.8H222zm1.68 17.886v-.24c-.667-.32-1.16-.7667-1.48-1.34-.32-.56-.48-1.1533-.48-1.78 0-.6533.107-1.26.32-1.82.227-.56.553-1.0533.98-1.48.44-.4133.973-.74 1.6-.98s1.353-.36 2.18-.36h.32c.813 0 1.533.12 2.16.36s1.153.5667 1.58.98c.44.4267.773.92 1 1.48s.34 1.1533.34 1.78c0 .68-.153 1.2933-.46 1.84-.293.56-.753 1-1.38 1.32v.24h1.56v1.56h-7.88c-.4 0-.6.18-.6.54v.5H222v-1.06c0-.4533.147-.8267.44-1.12.293-.28.667-.42 1.12-.42h.12zm-.48-3.2c0 .4667.087.8933.26 1.28.173.4.42.74.74 1.02s.7.5 1.14.66c.453.16.953.24 1.5.24h.24c.533 0 1.02-.08 1.46-.24.453-.16.84-.3867 1.16-.68.32-.28.567-.62.74-1.02.187-.3867.28-.8067.28-1.26 0-.4667-.087-.8933-.26-1.28s-.42-.7267-.74-1.02c-.307-.28-.687-.5-1.14-.66-.44-.16-.927-.24-1.46-.24h-.32c-1.133 0-2.02.2933-2.66.88-.627.6-.94 1.3733-.94 2.32zm-1.2 9.806v-1.56h9.92v1.56h-1.68v.24c1.307.6133 1.96 1.68 1.96 3.2 0 1.1467-.36 2.06-1.08 2.74-.707.68-1.773 1.02-3.2 1.02H222v-1.56h5.6c1.04 0 1.82-.2333 2.34-.7s.78-1.1.78-1.9c0-.9467-.327-1.6933-.98-2.24-.64-.5333-1.5-.8-2.58-.8H222zm4.84 20.046c-.827 0-1.56-.14-2.2-.42-.627-.2667-1.16-.6267-1.6-1.08-.427-.4534-.753-.9867-.98-1.6-.227-.6-.34-1.2267-.34-1.88 0-.6667.113-1.3.34-1.9s.553-1.1267.98-1.58c.44-.4534.973-.82 1.6-1.1.64-.2667 1.373-.4 2.2-.4h.24c.813 0 1.533.1333 2.16.4.64.28 1.18.6466 1.62 1.1.44.4666.773 1 1 1.6s.34 1.2266.34 1.88-.113 1.28-.34 1.88-.56 1.1266-1 1.58c-.44.4666-.98.8333-1.62 1.1-.627.28-1.347.42-2.16.42h-.24zm-3.64-4.98c0 .48.08.92.24 1.32.173.4133.42.7733.74 1.08s.7.5466 1.14.72c.453.1733.96.26 1.52.26h.24c.533 0 1.02-.0867 1.46-.26.453-.1734.84-.4134 1.16-.72s.567-.6667.74-1.08c.187-.4134.28-.8534.28-1.32s-.093-.9067-.28-1.32c-.173-.4134-.42-.7734-.74-1.08s-.707-.5467-1.16-.72c-.44-.1734-.927-.26-1.46-.26h-.24c-.56 0-1.067.0866-1.52.26-.44.1733-.82.4133-1.14.72s-.567.66-.74 1.06c-.16.4133-.24.86-.24 1.34zm-2.16 7.586v9.32h-1.44v-9.32h1.44zm2.52 16.1656h11.7v-.24l-5.26-2.299v-1.66h.12L236 100.03v3.26h-12.44v3.96H222v-9.5995h1.56V101.6zm2.92 9.747c-.987.04-1.78.346-2.38.92s-.9 1.373-.9 2.4c0 .466.053.873.16 1.22s.253.64.44.88c.187.253.4.453.64.6.253.16.52.286.8.38l-.4 1.48c-.92-.28-1.673-.8-2.26-1.56-.573-.747-.86-1.76-.86-3.04 0-.707.12-1.36.36-1.96.253-.587.607-1.094 1.06-1.52s.993-.76 1.62-1 1.32-.36 2.08-.36h.48c.693 0 1.34.12 1.94.36.6.253 1.113.6 1.54 1.04.44.44.78.953 1.02 1.54.253.6.38 1.246.38 1.94 0 .813-.153 1.513-.46 2.1-.293.6-.66 1.086-1.1 1.46-.44.386-.92.666-1.44.84-.52.186-1 .28-1.44.28h-1.28v-8zm4.24 3.32c0-.44-.073-.854-.22-1.24a3.111 3.111 0 0 0-.58-1c-.253-.28-.553-.514-.9-.7-.333-.174-.7-.287-1.1-.34v6.4c.427-.027.813-.134 1.16-.32.347-.174.64-.407.88-.7.24-.28.427-.607.56-.98.133-.36.2-.734.2-1.12z" fill-opacity=".35"/></g><path d="M34.563 411.045C34.4886 403.143 41.1413 397 49.0433 397h31.91c7.902 0 14.555 6.143 14.48 14.045C95.1694 438.877 87.2284 457 64.998 457S34.826 438.877 34.563 411.045h0z" fill="#44e8ff"/><path d="M43.957 447.91c4.7902 5.848 11.6367 9.09 21.04 9.09 22.2305 0 30.1716-18.124 30.4345-45.955.0357-3.763-1.4545-7.127-3.8784-9.62.2217.825.345 1.692.3565 2.6.3776 29.8-7.2755 49.468-30.4282 49.468-7.307 0-13.0704-1.958-17.5245-5.575z" class="B C E"/><path d="M89.842 410.828c3.5154 1.64 4.2188 8.203 5.1565 8.203 1.875 0 9.9606-30.937-30-30.937S33.1232 419.03 34.9982 419.03c.9377 0 2.93-7.5 5.1562-8.203s4.6875 2.1 7.1485 1.406 2.344-3.046 5.04-3.398 5.8596 3.633 8.789 2.93 6.9143-3.164 9.4922-3.164 5.8593 3.398 8.79 3.632c3.4535.277 6.9143-3.046 10.4297-1.406z" class="F"/><g class="B C"><path d="M94.7682 413.322c-.4022-1.4-1.4428-5.022-6.3338-5.774-2.1958-.338-4.0635.187-5.8647.693-1.517.427-2.9864.84-4.565.713-1.4576-.116-3.002-1.016-4.5038-1.89-1.517-.884-2.99-1.742-4.2853-1.742-1.5138 0-3.5128.85-5.4987 1.692l-3.9933 1.472c-1.5478.372-3.16-.565-4.736-1.48-1.4062-.816-2.7818-1.615-4.053-1.45-1.4325.187-2.0705.936-2.7235 1.703-.5756.676-1.1627 1.366-2.3156 1.695-1.2487.357-2.4977-.19-3.7158-.726-1.1824-.52-2.336-1.026-3.4326-.68-1.31.414-2.5385 3.18-3.5192 5.387-.6862 1.545-1.25 2.816-1.637 2.816-.0147 0-.0295-.001-.044-.002.4383 2.018 1.0715 3.283 1.4508 3.283.386 0 .9508-1.27 1.637-2.816.9806-2.207 2.2092-4.973 3.519-5.387 1.0966-.346 2.2502.16 3.4327.68 1.218.535 2.467 1.083 3.7157.726 1.153-.33 1.74-1.02 2.3157-1.695.653-.767 1.291-1.516 2.7234-1.703 1.2713-.166 2.6468.633 4.053 1.45 1.575.914 3.1882 1.85 4.736 1.48 1.209-.3 2.5978-.88 3.9932-1.473 1.986-.843 3.985-1.69 5.5-1.69 1.295 0 2.7682.858 4.285 1.74 1.5017.875 3.0462 1.775 4.5038 1.89 1.4477.116 2.897-.4 4.3507-.92 2.0142-.718 4.0373-1.44 6.08-.487 2.2446 1.048 3.343 4.102 4.0875 6.173.4216 1.173.73 2.03 1.069 2.03 1.1736 0 4.7794-12.117-2.4813-21.184 4.4862 7.728 3.2325 16.028 2.481 16.028-.0696 0-.13-.2-.23-.554z" fill-opacity=".1585"/><path d="M65 446.22c4.922 0 7.7344-4.922 7.7344-7.735s-3.5815-1.64-7.7344-1.64-7.7344-1.172-7.7344 1.64S60.078 446.22 65 446.22z" fill-opacity=".3574"/></g><path d="M71.451 437.678l-.0757.907c-.0314.377-.2486.71-.6004.848-.8773.344-2.8032.927-5.7778.927-2.9527 0-4.8722-.574-5.7582-.92-.3644-.142-.5894-.487-.622-.876l-.0738-.887c.5165-.38 1.591-.27 3.0476-.118l3.4064.222c1.2728 0 2.426-.12 3.406-.222 1.457-.15 2.5313-.262 3.0478.118z" class="B D"/><path d="M69.7097 443.286c-1.165 1.18-2.7735 1.995-4.7102 1.995s-3.545-.815-4.7104-1.995c1.2218-.506 2.8818-.817 4.7104-.817s3.4887.31 4.7102.817z" fill="#ff5858" class="B"/><path d="M62.2295 424.395c-1.322-.302-2.9562-.676-6.585-.676-5.3904 0-8.5573 0-6.7966 4.687 1.4852 3.955 4.484 3.985 7.1482 3.985 5.484 0 6.6916-2.087 7.5152-3.5.4242-.734.7465-1.3 1.4986-1.295.752.005 1.0744.56 1.4986 1.295.8233 1.423 2.0313 3.5 7.5152 3.5 2.664 0 5.6628-.03 7.1482-3.985 1.7604-4.687-1.4062-4.687-6.7966-4.687-3.6288 0-5.263.374-6.5853.676-.8955.205-1.6478.377-2.78.378s-1.8846-.173-2.7804-.378z" class="C"/><g class="D"><path d="M70.7384 431.097c-.4844-.127-.8852-.278-1.2267-.445l11.1092-5c.1373.295.118.65.076.963l-9.9586 4.482zm9.6978-3.413c-.4704 1.423-1.3 2.753-2.7387 3.327-1.6437.65-3.702.542-5.4436.355l8.1823-3.682z"/><path d="M63.145 426.45c-.0565-.323-.2013-.596-.4362-.8l-11.0995 4.996c.3544.228.7204.385 1.1036.5l10.432-4.695zm-8.904 4.957c1.9708.15 4.1557.15 5.995-.63 1.3612-.577 2.4867-1.907 2.8495-3.35l-8.8446 3.98z" class="B"/></g><path d="M197 408.25c0-6.213 5.037-11.25 11.25-11.25h37.5c6.213 0 11.25 5.037 11.25 11.25v27.188c0 11.908-9.654 21.562-21.562 21.562h-16.876C206.654 457 197 447.346 197 435.438V408.25z" fill="#ff8f57"/><path d="M202.703 450.045c3.94 4.276 9.588 6.955 15.86 6.955h16.875c11.91 0 21.562-9.654 21.562-21.563V408.25c0-4.007-2.094-7.524-5.248-9.518 1.098 1.737 1.733 3.796 1.733 6.002v28.125c0 11.39-9.234 20.625-20.625 20.625h-18.75c-4.218 0-8.14-1.266-11.408-3.44z" fill-opacity=".2" class="B C"/><path d="M227.94 410.36c-9.6 0 .35-4.687-.938-6.093s-8.79 6.093-13.242 6.093 1.406-6.093-2.695-7.265c-4-1.143-13.235-.503-13.693 16.91-.007.264-.383.337-.468.088-2.66-7.82-9.732-33.68 30.098-32.935 39.952.75 32.82 25.24 30.092 32.985-.087.246-.455.144-.46-.118-.5-27.214-10.935-9.664-28.694-9.664z" class="I"/><g class="B C"><path d="M225.17 406.97c-.43.668-.094 1.048 2.064 1.048 6.125 0 11.52-2.093 15.992-3.826 8.56-3.32 13.726-5.323 14.1 11.2.003.135.196.196.233.067.69-2.39 1.794-6.516 1.47-10.98 1.13 6.173-.8 12.397-1.947 15.655-.087.247-.455.144-.46-.118-.334-18.192-5.108-16.38-13.542-13.18-4.182 1.587-9.265 3.516-15.152 3.516-5.825 0-4.46-1.722-2.767-3.392zm3.704-5.28c-.082 1.28-1.02 2.44-1.953 3.41.21-.334.273-.62.078-.833-.602-.657-2.56.63-4.932 2.19-2.7 1.777-5.938 3.905-8.3 3.905-2.117 0-1.903-1.378-1.537-2.95.007.378.22.605.834.605 1.523 0 4.74-1.87 7.878-3.694 4.105-2.385 8.075-4.693 7.942-2.634zm-16.413 4.67l.094-.276c.583-1.688 1.402-4.063-2.196-5.332-3.922-1.385-13.23-.515-13.693 16.91-.007.263-.374.333-.454.082-.148-.46-.308-.983-.47-1.56.385 1.547.8 2.883 1.16 3.91.084.25.46.176.467-.087.46-17.412 9.694-18.052 13.693-16.9 1.722.492 1.688 1.853 1.4 3.265h0z" fill-opacity=".1084"/><path d="M227 445.162c3.73 0 6.773-2.594 8.165-5.914.355-.845.943-2.3.014-2.992-.7-.53-1.705-.17-2.46.02-1.88.472-3.772.8-5.72.8-2.46 0-4.303-.445-5.573-.763-.784-.196-1.87-.612-2.605-.057-.93.702-.34 2.147.014 2.992 1.39 3.32 4.436 5.914 8.164 5.914z" fill-opacity=".3"/></g><path d="M234.537 436.96c-.258.772-.487 1.626-1.234 2.073-.923.553-2.83 1.322-6.304 1.322s-5.38-.768-6.304-1.32c-.747-.447-.977-1.302-1.234-2.074.69-.273 3.203 1.05 7.537 1.05s6.848-1.325 7.54-1.05z" class="B D"/><path d="M231.85 442.365c-1.196 1.06-2.793 1.86-4.846 1.86-1.987 0-3.547-.748-4.73-1.758 1.402-.918 3.424-.945 4.87-.112 1.396-.805 3.314-.802 4.706.01z" fill="#ff5858" class="B"/><g class="C"><use xlink:href="#D" fill-opacity=".4"/><path d="M234.5 430.28c1.553 0 2.812-1.26 2.812-2.812s-1.26-2.813-2.812-2.813-2.812 1.26-2.812 2.813 1.26 2.812 2.812 2.812z" fill-opacity=".4"/><g class="B"><path d="M225.35 427.72c-.175 2.6-3.043 4.67-6.554 4.67-3.624 0-6.563-2.204-6.563-4.922s2.94-4.922 6.563-4.922c3.18 0 5.83 1.696 6.434 3.947 1.116-.426 2.422-.426 3.538 0 .603-2.25 3.255-3.947 6.434-3.947 3.624 0 6.563 2.203 6.563 4.922s-2.94 4.922-6.563 4.922c-3.51 0-6.38-2.07-6.554-4.67-.99-.507-2.307-.507-3.298 0zm-6.554 3.498c2.977 0 5.39-1.68 5.39-3.75s-2.414-3.75-5.39-3.75-5.39 1.68-5.39 3.75 2.414 3.75 5.39 3.75zm16.406 0c2.977 0 5.39-1.68 5.39-3.75s-2.414-3.75-5.39-3.75-5.39 1.68-5.39 3.75 2.414 3.75 5.39 3.75z"/></g></g><path d="M109.438 420.234c3.137-25.73 9.843-36.796 36.562-36.796s33.425 11.066 36.563 36.796c1.92 15.76 2.46 24.375-36.563 24.375s-38.484-8.614-36.562-24.375z" class="B J"/><path d="M108.926 431.338c1.143 8.655 8.51 13.27 37.075 13.27 39.023 0 38.484-8.615 36.562-24.375-.997-8.172-2.353-14.865-4.596-20.194 1.442 4.47 2.453 9.702 3.19 15.74 1.922 15.76 2.46 24.375-36.562 24.375-23.19 0-32.408-3.042-35.668-8.817h0z" class="B C L"/><path d="M116 401.25c0-6.213 5.037-11.25 11.25-11.25h37.5c6.213 0 11.25 5.037 11.25 11.25v23.438c0 13.98-11.333 25.312-25.312 25.312h-9.376C127.333 450 116 438.667 116 424.688V401.25z" class="G"/><path d="M124.223 443.36c4.503 4.123 10.502 6.64 17.1 6.64h9.375c13.98 0 25.312-11.333 25.312-25.313V401.25c0-4.007-2.095-7.524-5.25-9.518 1.098 1.737 1.733 3.796 1.733 6.002v25.313c0 12.944-10.493 23.437-23.437 23.437h-13.125c-4.26 0-8.256-1.137-11.7-3.124z" class="B C E"/><path d="M144.645 408.047c-.47-4.22-2.1-7.617-3.75-10.313 2.11 2.696 13.125 11.602 24.375 12.188.65-2.578.885-5.156 0-8.672 1.354 3.633 6.927 11.602 12.135 13.125 1.992-9.375 3.854-29.53-31.354-29.53s-33.216 19.687-31.458 29.53c5.625-1.64 7.5-9.727 5.91-13.594 4.805 5.742 15 7.266 24.14 7.266z" class="J"/><g class="B C"><path d="M139.43 396.28c1.365 2.338 3.41 5.838 3.807 9.424-9.13 0-19.102-1.523-23.906-7.265 1.2 3.766.312 12.016-4.648 15.9 5.554-1.7 7.4-9.72 5.82-13.567 4.805 5.742 15 7.266 24.14 7.266-.47-4.22-2.1-7.617-3.75-10.313 2.11 2.696 13.125 11.602 24.375 12.188.65-2.578.885-5.156 0-8.672 1.35 3.622 6.892 11.552 12.087 13.11-5.634-4.613-11.93-13.398-13.428-17.68.82 3.398 1.406 9.14.82 11.015-11.25-.586-23.855-9.843-25.964-12.54.185.334.405.71.646 1.123z" class="L"/><path d="M146 439.22c5.977 0 9.375-3.985 9.375-7.735 0-3.984-4.22-1.406-9.375-1.406s-9.375-2.578-9.375 1.406c0 3.75 3.398 7.735 9.375 7.735z" class="K"/></g><path d="M153.826 430.216c-.583-.25-1.567-.056-2.88.204-1.334.264-3.007.595-4.946.595s-3.612-.33-4.945-.595c-1.313-.26-2.297-.455-2.88-.204l.244 1.828c.052.4.265.74.618.913.957.474 3.22 1.34 6.963 1.34s6.006-.865 6.963-1.34c.353-.174.567-.523.62-.913l.243-1.828zm-.23 4.38c-1.287 2.187-3.98 3.684-7.595 3.684s-6.307-1.497-7.595-3.684l.044-.682c.023-.355.43-.576.754-.43 1.074.483 3.366 1.28 6.797 1.28s5.723-.797 6.797-1.28c.325-.146.73.075.754.43l.044.682z" class="B D"/><g class="C K"><use xlink:href="#E"/><path d="M154.203 423.984c2.07 0 3.75-1.678 3.75-3.75s-1.68-3.75-3.75-3.75-3.75 1.68-3.75 3.75 1.68 3.75 3.75 3.75z"/></g><path d="M152.563 482.045c-.074-7.902 6.578-14.045 14.48-14.045h31.91c7.902 0 14.555 6.143 14.48 14.045-.263 27.832-8.204 45.955-30.434 45.955s-30.172-18.123-30.435-45.955h0z" class="F"/><path d="M161.957 518.91c4.8 5.848 11.637 9.09 21.04 9.09 22.23 0 30.172-18.124 30.435-45.955.035-3.763-1.455-7.127-3.88-9.62.222.825.345 1.692.357 2.6.377 29.8-7.276 49.468-30.43 49.468-7.307 0-13.07-1.958-17.524-5.575z" class="B C E"/><path d="M162.376 474.212c15.234 19.22 39.726-17.46 50.625 15.234 19.218-40.546-75.47-44.062-59.766.82 1.172-11.602 9.14-3.633 9.14-16.055z" fill="#44e8ff"/><g class="C"><g class="B"><path d="M186.04 473.786c-9 2.62-18.233 5.303-25.07-3.323 0 8.51-2 9.288-4.094 10.1-1.597.62-3.248 1.26-4.1 5.368-.578-1.654-1.006-3.242-1.293-4.763.052 2.775.6 5.807 1.762 9.1.57-5.632 2.74-6.652 4.822-7.632 2.208-1.038 4.32-2.03 4.32-8.423 6.834 8.622 15.53 5.994 24.03 3.426 10.444-3.155 20.586-6.22 26.596 11.808 1.74-3.672 2.546-7.04 2.585-10.096-.408 1.934-1.102 3.972-2.117 6.112-5.62-18.02-16.364-14.895-27.43-11.677z" fill-opacity=".1277"/><path d="M189.916 508.265c-.48-.196-1.026.035-1.22.514-1.1 2.673-4.343 4.166-7.38 3.538-.507-.105-1.003.22-1.108.728s.22 1.003.728 1.108c3.76.778 8.007-1.01 9.496-4.666.195-.48-.035-1.027-.515-1.222z" fill-opacity=".25"/></g><path d="M181.827 496.498c-.066-2.73-2.97-3.303-6.56-3.303-3.633 0-8.382.08-7.662 3.282 1.292 5.742 2.698 7.148 7.662 7.148 4.502 0 6.072-2.98 6.458-5.6.742-.37 1.81-.37 2.552.001.387 2.62 1.957 5.6 6.458 5.6 4.964 0 6.37-1.406 7.662-7.148.72-3.202-4.03-3.282-7.662-3.282-3.59 0-6.495.573-6.56 3.303a4.85 4.85 0 0 0-2.346 0z"/></g><g class="B D"><path d="M187.75 502.024c-.3-.17-.585-.366-.825-.58l10.558-5.9c.045.35-.005.738-.088 1.1l-9.645 5.4zm9.354-4.235c-.526 1.922-1.078 3.046-1.808 3.734-.858.8-2.13 1.166-4.565 1.166-.748 0-1.393-.1-1.95-.25l8.324-4.65zm-16.254-.347l-8.74 4.885c.77.246 1.776.36 3.155.36 2.4 0 3.734-.92 4.52-2.056.65-.94.963-2.102 1.066-3.2zm-9.706 4.432l9.742-5.445c-.022-.383-.12-.67-.26-.896l-10.2 5.7c.217.255.446.46.717.64z"/></g><path d="M81.424 475.58c-.1413-7.712 6.453-13.58 14.1668-13.58h32.815c7.713 0 14.308 5.868 14.166 13.58-.514 28.095-12.284 46.42-30.574 46.42s-30.0597-18.325-30.574-46.42h0z" class="I"/><path d="M92.5586 512.708C97.615 518.683 104.216 522 111.998 522c18.3 0 30.06-18.325 30.574-46.42.068-3.714-1.426-7-3.854-9.41.215.793.335 1.627.346 2.493.405 30.007-11.564 49.82-30.58 49.82-6.09 0-11.4556-2.03-15.9244-5.777z" class="B C E"/><path d="M126.297 468.797c.82 12.422 13.477 2.812 15.704 15.234 3.984-13.476 1.054-24.843-10.9-23.906-1.992-4.48-8.32-6.914-18.515-6.914-20.6605 0-36.68 5.273-30.5863 30.82.703-12.9 13.71-4.57 15.3514-14.883 1.0547 5.274 3.047 7.5 7.735 10.664-.82-4.687-.352-9.61 1.172-12.773 0 8.555 5.04 12.54 11.718 15.82 0-7.734 3.164-12.304 8.32-14.062z" class="G"/><path d="M135.346 474.373c-3.716-.735-7.546-1.492-7.293-8.975-.42.84-1.464 1.417-2.745 2.127-3.016 1.67-7.343 4.064-7.92 12.287-6.68-3.28-10.43-6.796-10.43-15.35-2.1 2.578-3.633 7.97-2.813 12.656-3.398-2.11-5.7418-5.508-6.7964-10.78-.7672 4.822-4.3264 5.647-7.851 6.464-4.0147.93-7.9845 1.852-7.735 8.653-.475-1.992-.8144-3.86-1.0263-5.613.1336 2.467.5444 5.19 1.2604 8.19.3734-6.843 4.2143-7.71 7.9815-8.557 3.33-.75 6.6004-1.488 7.37-6.326 1.0547 5.274 3.0467 7.5 7.7347 10.664-.82-4.687-.352-9.61 1.172-12.773 0 8.555 5.04 12.54 11.718 15.82 0-7.734 3.164-12.304 8.32-14.062.412 6.246 3.818 6.922 7.385 7.63 3.526.7 7.21 1.43 8.318 7.605 1.308-4.425 1.87-8.623 1.614-12.233-.175 2.604-.72 5.46-1.614 8.483-.43-4.678-3.5-5.285-6.653-5.908z" class="B C E"/><path d="M112 508.64c-3.516 0-6.797-4.22-6.797-4.22s3.28.82 6.797.82 6.797-.82 6.797-.82-3.28 4.22-6.797 4.22z" class="G"/><g class="B C E"><path d="M105.22 504.443c1.498 1.11 4.19 2.79 6.78 2.79s5.282-1.68 6.78-2.79c-.26.326-3.412 4.197-6.78 4.197s-6.52-3.87-6.78-4.197z"/><path d="M105.307 504.55c1.613.5 3.983 1.043 6.693 1.043s5.08-.542 6.693-1.043l.104-.13s-3.28.82-6.797.82-6.797-.82-6.797-.82l.104.13z"/></g><path d="M112 503.485c-1.406-1.64-3.984.234-6.797.937 0 0 3.28.82 6.797.82s6.797-.82 6.797-.82c-2.813-.703-5.39-2.578-6.797-.937z" class="G"/><path d="M102.4 487.547c-5.4 0-5.4.82-5.4 4.687 0 4.805 3.078 5.39 5.742 5.39 5.303 0 6.217-2.01 7.383-4.336s2.584-2.327 3.75 0 2.08 4.336 7.383 4.336c2.664 0 5.742-.586 5.742-5.39 0-3.867 0-4.687-5.4-4.687-6.094 0-6.094 1.523-9.6 1.523s-3.516-1.523-9.6-1.523z" class="C"/><g class="D"><path d="M109.52 490.55l-9.8334 5.495c-.2853-.16-.5475-.36-.7774-.606L109 489.8c.285.22.468.47.52.75zm-.04 1.018c-.297 2.154-1.784 5.12-6.518 5.12-.738 0-1.513-.047-2.228-.233l8.746-4.887zm16.37-1.788l-9.548 5.336a5.359 5.359 0 0 0 .793.598l8.93-5c-.028-.37-.08-.682-.174-.944zm.2 1.92l-8.022 4.483c.815.317 1.803.507 3 .507 3.373 0 5.052-1.645 5.023-5z"/></g><path transform="matrix(-4e-8 -1 -1 4e-8 292 432)" fill="url(#A)" fill-opacity=".75" d="M0 0h50v292H0z"/><path transform="rotate(90 292 80)" fill="url(#B)" fill-opacity=".75" d="M292 80h50v292h-50z"/><path d="M0 134c0-6.627 5.3726-12 12-12h268c6.627 0 12 5.373 12 12v244c0 6.627-5.373 12-12 12H12c-6.6274 0-12-5.373-12-12V134z" class="C"/><path d="M0 146h292v-12c0-6.627-5.373-12-12-12H12c-6.6274 0-12 5.373-12 12v12z" fill="#282828"/><rect x="24" y="166" width="180" height="12" rx="6" class="F"/><rect x="216" y="166" width="20" height="12" rx="6" class="D"/><rect x="44" y="190" width="30" height="12" rx="6" class="J"/><rect x="86" y="190" width="50" height="12" rx="6" class="H"/><rect x="64" y="214" width="30" height="12" rx="6" class="F"/><rect x="104" y="214" width="100" height="12" rx="6" fill="#ff8f57"/><rect x="64" y="238" width="40" height="12" rx="6" class="F"/><rect x="116" y="238" width="30" height="12" rx="6" class="H"/><rect x="84" y="262" width="40" height="12" rx="6" class="J"/><rect x="136" y="262" width="60" height="12" rx="6" class="H"/><rect x="208" y="262" width="60" height="12" rx="6" class="F"/><g class="D"><rect x="64" y="286" width="20" height="12" rx="6"/><rect x="158" y="238" width="20" height="12" rx="6"/></g><rect x="64" y="310" width="40" height="12" rx="6" class="F"/><rect x="116" y="310" width="30" height="12" rx="6" class="H"/><rect x="158" y="310" width="60" height="12" rx="6" class="I"/><rect x="230" y="310" width="30" height="12" rx="6" class="H"/><rect x="44" y="334" width="50" height="12" rx="6" class="G"/><rect x="24" y="358" width="20" height="12" rx="6" class="D"/><circle cx="15" cy="134" r="5" fill="#ff6d60"/><circle cx="30" cy="134" r="5" fill="#ffcd4b"/><circle cx="45" cy="134" r="5" class="I"/></g><defs><linearGradient id="A" x1="37.0833" y1="146" x2="0" y2="146" gradientUnits="userSpaceOnUse"><stop stop-color="#fff"/><stop offset="1" stop-color="#fff" stop-opacity="0"/></linearGradient><linearGradient id="B" x1="329.083" y1="226" x2="292" y2="226" gradientUnits="userSpaceOnUse"><stop stop-color="#fff"/><stop offset="1" stop-color="#fff" stop-opacity="0"/></linearGradient><clipPath id="C"><path d="M0 0h292v530H0z" class="D"/></clipPath><path id="D" d="M219.5 430.28c1.553 0 2.812-1.26 2.812-2.812s-1.26-2.813-2.812-2.813-2.812 1.26-2.812 2.813 1.26 2.812 2.812 2.812z"/><path id="E" d="M137.797 423.984c2.07 0 3.75-1.678 3.75-3.75s-1.68-3.75-3.75-3.75-3.75 1.68-3.75 3.75 1.68 3.75 3.75 3.75z"/></defs></svg>