<svg xmlns="http://www.w3.org/2000/svg" xmlns:xlink="http://www.w3.org/1999/xlink" width="780" height="268" fill="none" xmlns:v="https://vecta.io/nano"><style><![CDATA[.B{fill-rule:evenodd}.C{fill:#000}.D{fill:#fff}.E{fill:#ffee52}.F{fill-opacity:.15}.G{fill:#ff6df3}.H{fill:#44e9ff}.I{fill-opacity:.35}.J{fill:#5cff94}.K{fill:#1f78ff}.L{fill-opacity:.245}.M{fill-opacity:.3197}]]></style><g clip-path="url(#C)"><g class="C I"><path d="M3.3 139H1.74v-9.92H3.3v1.68h.24c.6133-1.307 1.68-1.96 3.2-1.96 1.1467 0 2.06.36 2.74 1.08.68.707 1.02 1.773 1.02 3.2V139H8.94v-5.6c0-1.04-.2333-1.82-.7-2.34s-1.1-.78-1.9-.78c-.9467 0-1.6933.327-2.24.98-.5333.64-.8 1.5-.8 2.58V139zm17.886-1.68h-.24c-.32.667-.7667 1.16-1.34 1.48-.56.32-1.1533.48-1.78.48-.6533 0-1.26-.107-1.82-.32-.56-.227-1.0533-.553-1.48-.98-.4133-.44-.74-.973-.98-1.6s-.36-1.353-.36-2.18v-.32c0-.813.12-1.533.36-2.16s.5667-1.153.98-1.58c.4267-.44.92-.773 1.48-1s1.1533-.34 1.78-.34c.68 0 1.2933.153 1.84.46.56.293 1 .753 1.32 1.38h.24v-1.56h1.56v7.88c0 .4.18.6.54.6h.5V139h-1.06c-.4533 0-.8267-.147-1.12-.44-.28-.293-.42-.667-.42-1.12v-.12zm-3.2.48c.4667 0 .8933-.087 1.28-.26.4-.173.74-.42 1.02-.74s.5-.7.66-1.14c.16-.453.24-.953.24-1.5v-.24c0-.533-.08-1.02-.24-1.46-.16-.453-.3867-.84-.68-1.16-.28-.32-.62-.567-1.02-.74-.3867-.187-.8067-.28-1.26-.28-.4667 0-.8933.087-1.28.26s-.7267.42-1.02.74c-.28.307-.5.687-.66 1.14-.16.44-.24.927-.24 1.46v.32c0 1.133.2933 2.02.88 2.66.6.627 1.3733.94 2.32.94zm9.806 1.2h-1.56v-9.92h1.56v1.68h.24c.6133-1.307 1.68-1.96 3.2-1.96 1.1467 0 2.06.36 2.74 1.08.68.707 1.02 1.773 1.02 3.2V139h-1.56v-5.6c0-1.04-.2333-1.82-.7-2.34s-1.1-.78-1.9-.78c-.9467 0-1.6933.327-2.24.98-.5333.64-.8 1.5-.8 2.58V139zm20.046-4.84c0 .827-.14 1.56-.42 2.2-.2667.627-.6267 1.16-1.08 1.6-.4534.427-.9867.753-1.6.98-.6.227-1.2267.34-1.88.34-.6667 0-1.3-.113-1.9-.34s-1.1267-.553-1.58-.98c-.4534-.44-.82-.973-1.1-1.6-.2667-.64-.4-1.373-.4-2.2v-.24c0-.813.1333-1.533.4-2.16.28-.64.6466-1.18 1.1-1.62.4666-.44 1-.773 1.6-1s1.2266-.34 1.88-.34 1.28.113 1.88.34 1.1266.56 1.58 1c.4666.44.8333.98 1.1 1.62.28.627.42 1.347.42 2.16v.24zm-4.98 3.64c.48 0 .92-.08 1.32-.24.4133-.173.7733-.42 1.08-.74s.5466-.7.72-1.14c.1733-.453.26-.96.26-1.52v-.24c0-.533-.0867-1.02-.26-1.46-.1734-.453-.4134-.84-.72-1.16s-.6667-.567-1.08-.74c-.4134-.187-.8534-.28-1.32-.28s-.9067.093-1.32.28c-.4134.173-.7734.42-1.08.74s-.5467.707-.72 1.16c-.1734.44-.26.927-.26 1.46v.24c0 .56.0866 1.067.26 1.52.1733.44.4133.82.72 1.14s.66.567 1.06.74c.4133.16.86.24 1.34.24zm7.586 2.16h9.32v1.44h-9.32v-1.44zm15.526-7.92v-2.32l4.56-2.92v-.24h-7.92V125h9.36v2.56l-4.56 2.92v.24h.8c.5333 0 1.0466.087 1.54.26s.9266.427 1.3.76c.3866.333.6933.747.92 1.24.24.48.36 1.04.36 1.68v.36c0 .6-.12 1.16-.36 1.68s-.5734.973-1 1.36c-.4267.373-.9334.673-1.52.9-.5734.213-1.2.32-1.88.32-.7867 0-1.4934-.12-2.12-.36s-1.16-.567-1.6-.98c-.44-.427-.78-.92-1.02-1.48-.2267-.573-.34-1.18-.34-1.82v-1.08h1.68v.96c0 .507.08.96.24 1.36.1733.387.4066.72.7 1 .3066.267.6666.473 1.08.62s.86.22 1.34.22c.44 0 .8466-.073 1.22-.22.3866-.147.72-.347 1-.6.28-.267.5-.573.66-.92.16-.36.24-.74.24-1.14v-.12c0-.84-.2667-1.493-.8-1.96-.5334-.48-1.2-.72-2-.72h-1.88zm16.306-2.96h1.78l-2.92 4.72v.24l3.16 4.96h-1.82l-2.7-4.36h-.36l-2.7 4.36h-1.82l3.16-4.96v-.24l-2.92-4.72h1.78l2.5 4.12h.36l2.5-4.12zm12.786 8.4h-.24c-.1734.307-.3867.573-.64.8-.24.213-.5067.4-.8.56-.28.147-.58.253-.9.32-.3067.08-.6067.12-.9.12-.6667 0-1.2867-.113-1.86-.34s-1.08-.553-1.52-.98c-.4267-.427-.7667-.953-1.02-1.58-.24-.64-.36-1.367-.36-2.18v-.32c0-.8.1266-1.513.38-2.14.2533-.64.5933-1.173 1.02-1.6.4266-.44.9266-.773 1.5-1s1.18-.34 1.82-.34c.68 0 1.3066.16 1.88.48.5866.307 1.0533.76 1.4 1.36h.24v-1.56h1.56V143h-1.56v-5.52zm-3.32.32c.4666 0 .9-.087 1.3-.26s.7466-.42 1.04-.74c.3066-.32.5466-.7.72-1.14.1733-.453.26-.953.26-1.5v-.24c0-.533-.0867-1.02-.26-1.46-.1734-.453-.4134-.84-.72-1.16-.2934-.32-.6467-.567-1.06-.74-.4-.187-.8267-.28-1.28-.28-.4667 0-.9067.087-1.32.26-.4.173-.7534.42-1.06.74-.2934.32-.5267.7-.7 1.14-.16.44-.24.927-.24 1.46v.32c0 .56.08 1.06.24 1.5.1733.44.4066.82.7 1.14.3066.307.66.547 1.06.72.4.16.84.24 1.32.24zm15.2863-8.72c0-.867-.267-1.56-.8-2.08-.534-.533-1.274-.8-2.22-.8-.454 0-.874.08-1.26.24-.374.16-.7.393-.98.7-.267.293-.48.647-.64 1.06-.147.413-.22.867-.22 1.36v2.08h.24c.32-.587.773-1.047 1.36-1.38.6-.333 1.266-.5 2-.5.64 0 1.233.107 1.78.32.546.2 1.013.5 1.4.9.4.4.706.887.92 1.46.226.56.34 1.2.34 1.92v.24c0 .693-.127 1.327-.38 1.9-.24.573-.58 1.067-1.02 1.48-.427.413-.94.733-1.54.96-.587.227-1.227.34-1.92.34s-1.34-.113-1.94-.34c-.587-.227-1.1-.54-1.54-.94-.427-.413-.767-.9-1.0202-1.46-.24-.573-.36-1.2-.36-1.88v-5.1c0-.733.1266-1.4.38-2s.6002-1.107 1.0402-1.52c.44-.427.946-.753 1.52-.98.586-.227 1.213-.34 1.88-.34s1.286.1 1.86.3 1.066.493 1.48.88c.413.373.733.833.96 1.38.24.533.36 1.133.36 1.8h-1.68zm-2.94 8.72c.48 0 .913-.073 1.3-.22.4-.16.74-.38 1.02-.66s.493-.613.64-1 .22-.813.22-1.28v-.24c0-.467-.08-.893-.24-1.28s-.38-.72-.66-1-.62-.493-1.02-.64c-.387-.16-.807-.24-1.26-.24s-.874.08-1.26.24-.727.38-1.02.66c-.28.28-.5.607-.66.98s-.24.773-.24 1.2v.38c0 .44.073.853.22 1.24.146.373.36.7.64.98s.613.5 1 .66c.4.147.84.22 1.32.22zm10.946-11.68c0-.387.133-.713.4-.98.28-.28.613-.42 1-.42s.713.14.98.42c.28.267.42.593.42.98s-.14.72-.42 1c-.267.267-.593.4-.98.4s-.72-.133-1-.4c-.267-.28-.4-.613-.4-1zm-2.84 11.44h3.48v-7.04h-3.12v-1.44h4.68v8.48h3.24V139h-8.28v-1.44zm15.006-5.52v-2.32l4.56-2.92v-.24h-7.92V125h9.36v2.56l-4.56 2.92v.24h.8c.533 0 1.047.087 1.54.26s.927.427 1.3.76c.387.333.693.747.92 1.24.24.48.36 1.04.36 1.68v.36c0 .6-.12 1.16-.36 1.68s-.573.973-1 1.36c-.427.373-.933.673-1.52.9-.573.213-1.2.32-1.88.32-.787 0-1.493-.12-2.12-.36s-1.16-.567-1.6-.98c-.44-.427-.78-.92-1.02-1.48-.227-.573-.34-1.18-.34-1.82v-1.08h1.68v.96c0 .507.08.96.24 1.36.173.387.407.72.7 1 .307.267.667.473 1.08.62s.86.22 1.34.22c.44 0 .847-.073 1.22-.22.387-.147.72-.347 1-.6.28-.267.5-.573.66-.92.16-.36.24-.74.24-1.14v-.12c0-.84-.267-1.493-.8-1.96-.533-.48-1.2-.72-2-.72h-1.88zm10.446 6.96h-1.56v-14h1.56v5.64h.24c.347-.6.827-1.053 1.44-1.36.613-.32 1.28-.48 2-.48.613 0 1.193.113 1.74.34a4.246 4.246 0 0 1 1.44.98c.427.427.76.953 1 1.58.253.627.38 1.34.38 2.14v.4c0 .813-.12 1.533-.36 2.16s-.573 1.153-1 1.58c-.413.427-.9.753-1.46.98-.56.213-1.153.32-1.78.32-.32 0-.647-.04-.98-.12-.333-.067-.653-.173-.96-.32-.293-.16-.567-.347-.82-.56-.253-.227-.467-.493-.64-.8h-.24V139zm3.32-1.2c.48 0 .92-.08 1.32-.24.4-.173.747-.413 1.04-.72.307-.307.54-.68.7-1.12.173-.44.26-.933.26-1.48v-.4c0-.533-.087-1.013-.26-1.44-.16-.44-.393-.813-.7-1.12-.293-.32-.647-.567-1.06-.74-.4-.173-.833-.26-1.3-.26s-.9.093-1.3.28c-.4.173-.753.42-1.06.74-.293.32-.527.707-.7 1.16-.173.44-.26.927-.26 1.46v.24c0 .547.087 1.047.26 1.5.173.44.407.82.7 1.14.307.32.66.567 1.06.74s.833.26 1.3.26zm12.126-11.68c0-.387.133-.713.4-.98.28-.28.613-.42 1-.42s.713.14.98.42c.28.267.42.593.42.98s-.14.72-.42 1c-.267.267-.593.4-.98.4s-.72-.133-1-.4c-.267-.28-.4-.613-.4-1zm-3.32 2.96h5.52v12.36c0 .453-.147.827-.44 1.12-.28.293-.647.44-1.1.44h-4.46v-1.44h3.9c.36 0 .54-.2.54-.6v-10.44h-3.96v-1.44zm18.366 8.12h-.24c-.32.64-.74 1.147-1.26 1.52s-1.18.56-1.98.56c-.546 0-1.053-.093-1.52-.28-.453-.173-.846-.44-1.18-.8-.32-.36-.573-.807-.76-1.34-.173-.533-.26-1.153-.26-1.86v-5.92h1.56v5.72c0 1.04.214 1.8.64 2.28s1.08.72 1.96.72c.947 0 1.687-.32 2.22-.96.547-.653.82-1.52.82-2.6v-5.16h1.56v12.36c0 .453-.146.827-.44 1.12-.28.293-.646.44-1.1.44h-5.66v-1.44h5.1c.36 0 .54-.2.54-.6v-3.76zm6.606 1.8h-1.56v-9.92h1.56v1.68h.24c.614-1.307 1.68-1.96 3.2-1.96 1.147 0 2.06.36 2.74 1.08.68.707 1.02 1.773 1.02 3.2V139h-1.56v-5.6c0-1.04-.233-1.82-.7-2.34s-1.1-.78-1.9-.78c-.946 0-1.693.327-2.24.98-.533.64-.8 1.5-.8 2.58V139zm12.246 0h-1.56v-14h1.56v5.88h.24c.307-.64.734-1.147 1.28-1.52.56-.373 1.24-.56 2.04-.56 1.08 0 1.954.36 2.62 1.08.68.707 1.02 1.773 1.02 3.2V139h-1.56v-5.6c0-1.04-.233-1.82-.7-2.34s-1.1-.78-1.9-.78c-.946 0-1.693.327-2.24.98-.533.64-.8 1.5-.8 2.58V139zm11.827-4.48c.04.987.346 1.78.92 2.38s1.373.9 2.4.9c.466 0 .873-.053 1.22-.16s.64-.253.88-.44c.253-.187.453-.4.6-.64.16-.253.286-.52.38-.8l1.48.4c-.28.92-.8 1.673-1.56 2.26-.747.573-1.76.86-3.04.86-.707 0-1.36-.12-1.96-.36-.587-.253-1.094-.607-1.52-1.06s-.76-.993-1-1.62-.36-1.32-.36-2.08v-.48c0-.693.12-1.34.36-1.94.253-.6.6-1.113 1.04-1.54.44-.44.953-.78 1.54-1.02.6-.253 1.246-.38 1.94-.38.813 0 1.513.153 2.1.46.6.293 1.086.66 1.46 1.1.386.44.666.92.84 1.44.186.52.28 1 .28 1.44v1.28h-8zm3.32-4.24c-.44 0-.854.073-1.24.22a3.111 3.111 0 0 0-1 .58c-.28.253-.514.553-.7.9-.174.333-.287.7-.34 1.1h6.4c-.027-.427-.134-.813-.32-1.16-.174-.347-.407-.64-.7-.88-.28-.24-.607-.427-.98-.56-.36-.133-.734-.2-1.12-.2zm9.346 8.72h-1.56v-14h1.56v5.88h.24c.306-.64.733-1.147 1.28-1.52.56-.373 1.24-.56 2.04-.56 1.08 0 1.953.36 2.62 1.08.68.707 1.02 1.773 1.02 3.2V139h-1.56v-5.6c0-1.04-.234-1.82-.7-2.34s-1.1-.78-1.9-.78c-.947 0-1.694.327-2.24.98-.534.64-.8 1.5-.8 2.58V139zm11.826-4.48c.04.987.346 1.78.92 2.38s1.373.9 2.4.9c.466 0 .873-.053 1.22-.16s.64-.253.88-.44c.253-.187.453-.4.6-.64.16-.253.286-.52.38-.8l1.48.4c-.28.92-.8 1.673-1.56 2.26-.747.573-1.76.86-3.04.86-.707 0-1.36-.12-1.96-.36-.587-.253-1.094-.607-1.52-1.06s-.76-.993-1-1.62-.36-1.32-.36-2.08v-.48c0-.693.12-1.34.36-1.94.253-.6.6-1.113 1.04-1.54.44-.44.953-.78 1.54-1.02.6-.253 1.246-.38 1.94-.38.813 0 1.513.153 2.1.46.6.293 1.086.66 1.46 1.1.386.44.666.92.84 1.44.186.52.28 1 .28 1.44v1.28h-8zm3.32-4.24c-.44 0-.854.073-1.24.22a3.111 3.111 0 0 0-1 .58c-.28.253-.514.553-.7.9-.174.333-.287.7-.34 1.1h6.4c-.027-.427-.134-.813-.32-1.16-.174-.347-.407-.64-.7-.88-.28-.24-.607-.427-.98-.56-.36-.133-.734-.2-1.12-.2zm7.226-1.2h3.6v1.32h.24c.253-.547.613-.947 1.08-1.2.466-.267 1-.4 1.6-.4 1 0 1.806.327 2.42.98s.94 1.607.98 2.86l-1.64.24c0-.92-.22-1.58-.66-1.98-.44-.413-.98-.62-1.62-.62-.414 0-.774.08-1.08.24-.294.16-.54.38-.74.66s-.347.607-.44.98-.14.773-.14 1.2v4.2h2.52V139h-6.36v-1.44h2.28v-7.04h-2.04v-1.44z"/><path d="M53.3 97h-1.56v-9.92h1.56v1.68h.24c.6133-1.3067 1.68-1.96 3.2-1.96 1.1467 0 2.06.36 2.74 1.08.68.7067 1.02 1.7733 1.02 3.2V97h-1.56v-5.6c0-1.04-.2333-1.82-.7-2.34s-1.1-.78-1.9-.78c-.9467 0-1.6933.3267-2.24.98-.5333.64-.8 1.5-.8 2.58V97zm17.886-1.68h-.24c-.32.6667-.7667 1.16-1.34 1.48-.56.32-1.1533.48-1.78.48-.6533 0-1.26-.1067-1.82-.32-.56-.2267-1.0533-.5533-1.48-.98-.4133-.44-.74-.9733-.98-1.6s-.36-1.3533-.36-2.18v-.32c0-.8133.12-1.5333.36-2.16s.5667-1.1533.98-1.58c.4267-.44.92-.7733 1.48-1s1.1533-.34 1.78-.34c.68 0 1.2933.1533 1.84.46.56.2933 1 .7533 1.32 1.38h.24v-1.56h1.56v7.88c0 .4.18.6.54.6h.5V97h-1.06c-.4533 0-.8267-.1467-1.12-.44-.28-.2933-.42-.6667-.42-1.12v-.12zm-3.2.48c.4667 0 .8933-.0867 1.28-.26.4-.1733.74-.42 1.02-.74s.5-.7.66-1.14c.16-.4533.24-.9533.24-1.5v-.24c0-.5333-.08-1.02-.24-1.46-.16-.4533-.3867-.84-.68-1.16-.28-.32-.62-.5667-1.02-.74-.3867-.1867-.8067-.28-1.26-.28-.4667 0-.8933.0867-1.28.26s-.7267.42-1.02.74c-.28.3067-.5.6867-.66 1.14-.16.44-.24.9267-.24 1.46v.32c0 1.1333.2933 2.02.88 2.66.6.6267 1.3733.94 2.32.94zm9.806 1.2h-1.56v-9.92h1.56v1.68h.24c.6133-1.3067 1.68-1.96 3.2-1.96 1.1467 0 2.06.36 2.74 1.08.68.7067 1.02 1.7733 1.02 3.2V97h-1.56v-5.6c0-1.04-.2333-1.82-.7-2.34s-1.1-.78-1.9-.78c-.9467 0-1.6933.3267-2.24.98-.5333.64-.8 1.5-.8 2.58V97zm20.046-4.84c0 .8267-.14 1.56-.42 2.2-.2667.6267-.6267 1.16-1.08 1.6-.4534.4267-.9867.7533-1.6.98-.6.2267-1.2267.34-1.88.34-.6667 0-1.3-.1133-1.9-.34s-1.1267-.5533-1.58-.98c-.4534-.44-.82-.9733-1.1-1.6-.2667-.64-.4-1.3733-.4-2.2v-.24c0-.8133.1333-1.5333.4-2.16.28-.64.6466-1.18 1.1-1.62a4.764 4.764 0 0 1 1.6-1c.6-.2267 1.2266-.34 1.88-.34s1.28.1133 1.88.34 1.1266.56 1.58 1c.4666.44.8333.98 1.1 1.62.28.6267.42 1.3467.42 2.16v.24zm-4.98 3.64c.48 0 .92-.08 1.32-.24.4133-.1733.7733-.42 1.08-.74s.5466-.7.72-1.14c.1733-.4533.26-.96.26-1.52v-.24c0-.5333-.0867-1.02-.26-1.46-.1734-.4533-.4134-.84-.72-1.16s-.6667-.5667-1.08-.74c-.4134-.1867-.8534-.28-1.32-.28s-.9067.0933-1.32.28c-.4134.1733-.7734.42-1.08.74s-.5467.7067-.72 1.16c-.1734.44-.26.9267-.26 1.46v.24c0 .56.0866 1.0667.26 1.52.1733.44.4133.82.72 1.14s.66.5667 1.06.74c.4133.16.86.24 1.34.24zm7.5857 2.16h9.32v1.44h-9.32v-1.44zm16.166-2.52v-11.7h-.24l-2.3 5.26h-1.66v-.12l2.62-5.88h3.26v12.44h3.96V97h-9.6v-1.56h3.96zm15.807-.12h-.24c-.32.6667-.767 1.16-1.34 1.48-.56.32-1.154.48-1.78.48-.654 0-1.26-.1067-1.82-.32-.56-.2267-1.054-.5533-1.48-.98-.414-.44-.74-.9733-.98-1.6s-.36-1.3533-.36-2.18v-.32c0-.8133.12-1.5333.36-2.16s.566-1.1533.98-1.58c.426-.44.92-.7733 1.48-1s1.153-.34 1.78-.34c.68 0 1.293.1533 1.84.46.56.2933 1 .7533 1.32 1.38h.24v-1.56h1.56v7.88c0 .4.18.6.54.6h.5V97h-1.06c-.454 0-.827-.1467-1.12-.44-.28-.2933-.42-.6667-.42-1.12v-.12zm-3.2.48c.466 0 .893-.0867 1.28-.26.4-.1733.74-.42 1.02-.74s.5-.7.66-1.14c.16-.4533.24-.9533.24-1.5v-.24c0-.5333-.08-1.02-.24-1.46-.16-.4533-.387-.84-.68-1.16-.28-.32-.62-.5667-1.02-.74-.387-.1867-.807-.28-1.26-.28-.467 0-.894.0867-1.28.26s-.727.42-1.02.74c-.28.3067-.5.6867-.66 1.14-.16.44-.24.9267-.24 1.46v.32c0 1.1333.293 2.02.88 2.66.6.6267 1.373.94 2.32.94zm9.806 1.2h-1.56V83h1.56v5.88h.24c.306-.64.733-1.1467 1.28-1.52.56-.3733 1.24-.56 2.04-.56 1.08 0 1.953.36 2.62 1.08.68.7067 1.02 1.7733 1.02 3.2V97h-1.56v-5.6c0-1.04-.234-1.82-.7-2.34s-1.1-.78-1.9-.78c-.947 0-1.694.3267-2.24.98-.534.64-.8 1.5-.8 2.58V97zm17.886-1.68h-.24c-.32.6667-.767 1.16-1.34 1.48-.56.32-1.154.48-1.78.48-.654 0-1.26-.1067-1.82-.32-.56-.2267-1.054-.5533-1.48-.98-.414-.44-.74-.9733-.98-1.6s-.36-1.3533-.36-2.18v-.32c0-.8133.12-1.5333.36-2.16s.566-1.1533.98-1.58c.426-.44.92-.7733 1.48-1s1.153-.34 1.78-.34c.68 0 1.293.1533 1.84.46.56.2933 1 .7533 1.32 1.38h.24v-1.56h1.56v7.88c0 .4.18.6.54.6h.5V97h-1.06c-.454 0-.827-.1467-1.12-.44-.28-.2933-.42-.6667-.42-1.12v-.12zm-3.2.48c.466 0 .893-.0867 1.28-.26.4-.1733.74-.42 1.02-.74s.5-.7.66-1.14c.16-.4533.24-.9533.24-1.5v-.24c0-.5333-.08-1.02-.24-1.46-.16-.4533-.387-.84-.68-1.16-.28-.32-.62-.5667-1.02-.74-.387-.1867-.807-.28-1.26-.28-.467 0-.894.0867-1.28.26s-.727.42-1.02.74c-.28.3067-.5.6867-.66 1.14-.16.44-.24.9267-.24 1.46v.32c0 1.1333.293 2.02.88 2.66.6.6267 1.373.94 2.32.94zm16.826 1.2h-2.88l-1.2-9.2h-.24l-1.2 9.2h-2.88l-1.56-9.92h1.6l1.32 9.2h.24l1.16-9.2h2.88l1.16 9.2h.24l1.32-9.2h1.6l-1.56 9.92zm6.666-6.96v-2.32l4.56-2.92v-.24h-7.92V83h9.36v2.56l-4.56 2.92v.24h.8c.533 0 1.047.0867 1.54.26s.927.4267 1.3.76c.387.3333.693.7467.92 1.24.24.48.36 1.04.36 1.68v.36c0 .6-.12 1.16-.36 1.68s-.573.9733-1 1.36c-.427.3733-.933.6733-1.52.9-.573.2133-1.2.32-1.88.32-.787 0-1.493-.12-2.12-.36s-1.16-.5667-1.6-.98a4.526 4.526 0 0 1-1.02-1.48c-.227-.5733-.34-1.18-.34-1.82v-1.08h1.68v.96c0 .5067.08.96.24 1.36.173.3867.407.72.7 1 .307.2667.667.4733 1.08.62s.86.22 1.34.22c.44 0 .847-.0733 1.22-.22.387-.1467.72-.3467 1-.6.28-.2667.5-.5733.66-.92.16-.36.24-.74.24-1.14v-.12c0-.84-.267-1.4933-.8-1.96-.533-.48-1.2-.72-2-.72h-1.88zm16.926 5.44h-.24a2.81 2.81 0 0 1-.62.8c-.24.2267-.507.4133-.8.56-.28.1467-.58.2533-.9.32-.32.08-.627.12-.92.12-.667 0-1.287-.1133-1.86-.34s-1.08-.5533-1.52-.98c-.427-.4267-.767-.9533-1.02-1.58-.24-.64-.36-1.3667-.36-2.18v-.32c0-.8.127-1.5133.38-2.14.253-.64.593-1.1733 1.02-1.6.427-.44.927-.7733 1.5-1s1.18-.34 1.82-.34c.68 0 1.313.1533 1.9.46.6.2933 1.06.7533 1.38 1.38h.24V83h1.56v14h-1.56v-1.52zm-3.32.32c.467 0 .9-.0867 1.3-.26a3.025 3.025 0 0 0 1.04-.74c.307-.32.547-.7.72-1.14.173-.4533.26-.9533.26-1.5v-.24c0-.5333-.087-1.02-.26-1.46-.173-.4533-.413-.84-.72-1.16-.293-.32-.647-.5667-1.06-.74-.4-.1867-.827-.28-1.28-.28-.467 0-.907.0867-1.32.26-.4.1733-.753.42-1.06.74-.293.32-.527.7-.7 1.14-.16.44-.24.9267-.24 1.46v.32c0 .56.08 1.06.24 1.5.173.44.407.82.7 1.14.307.3067.66.5467 1.06.72.4.16.84.24 1.32.24zM202.833 83h3.26v9.8h2.16v1.56h-2.16V97h-1.68v-2.64h-6.48v-2.32l4.9-9.04zm-3.46 9.56v.24h5.04v-9.08h-.24l-4.8 8.84zm12.706-.04c.04.9867.347 1.78.92 2.38s1.374.9 2.4.9c.467 0 .874-.0533 1.22-.16s.64-.2533.88-.44c.254-.1867.454-.4.6-.64.16-.2533.287-.52.38-.8l1.48.4c-.28.92-.8 1.6733-1.56 2.26-.746.5733-1.76.86-3.04.86-.706 0-1.36-.12-1.96-.36-.586-.2533-1.093-.6067-1.52-1.06s-.76-.9933-1-1.62-.36-1.32-.36-2.08v-.48c0-.6933.12-1.34.36-1.94.254-.6.6-1.1133 1.04-1.54.44-.44.954-.78 1.54-1.02.6-.2533 1.247-.38 1.94-.38.814 0 1.514.1533 2.1.46.6.2933 1.087.66 1.46 1.1.387.44.667.92.84 1.44.187.52.28 1 .28 1.44v1.28h-8zm3.32-4.24c-.44 0-.853.0733-1.24.22-.373.1333-.706.3267-1 .58-.28.2533-.513.5533-.7.9-.173.3333-.286.7-.34 1.1h6.4c-.026-.4267-.133-.8133-.32-1.16-.173-.3467-.406-.64-.7-.88-.28-.24-.606-.4267-.98-.56-.36-.1333-.733-.2-1.12-.2zm7.446-1.2h3.12V83h1.56v4.08h3.84v1.44h-3.84v6.44c0 .4.18.6.54.6h2.82V97h-3.38c-.453 0-.826-.1467-1.12-.44-.28-.2933-.42-.6667-.42-1.12v-6.92h-3.12v-1.44zm16.986-2.96c0-.3867.134-.7133.4-.98.28-.28.614-.42 1-.42s.714.14.98.42c.28.2667.42.5933.42.98s-.14.72-.42 1c-.266.2667-.593.4-.98.4s-.72-.1333-1-.4c-.266-.28-.4-.6133-.4-1zm-3.32 2.96h5.52v12.36c0 .4533-.146.827-.44 1.12-.28.293-.646.44-1.1.44h-4.46v-1.44h3.9c.36 0 .54-.2.54-.6V88.52h-3.96v-1.44z"/><path d="M53.3 181h-1.56v-9.92h1.56v1.68h.24c.6133-1.307 1.68-1.96 3.2-1.96 1.1467 0 2.06.36 2.74 1.08.68.707 1.02 1.773 1.02 3.2V181h-1.56v-5.6c0-1.04-.2333-1.82-.7-2.34s-1.1-.78-1.9-.78c-.9467 0-1.6933.327-2.24.98-.5333.64-.8 1.5-.8 2.58V181zm17.886-1.68h-.24c-.32.667-.7667 1.16-1.34 1.48-.56.32-1.1533.48-1.78.48-.6533 0-1.26-.107-1.82-.32-.56-.227-1.0533-.553-1.48-.98-.4133-.44-.74-.973-.98-1.6s-.36-1.353-.36-2.18v-.32c0-.813.12-1.533.36-2.16s.5667-1.153.98-1.58c.4267-.44.92-.773 1.48-1s1.1533-.34 1.78-.34c.68 0 1.2933.153 1.84.46.56.293 1 .753 1.32 1.38h.24v-1.56h1.56v7.88c0 .4.18.6.54.6h.5V181h-1.06c-.4533 0-.8267-.147-1.12-.44-.28-.293-.42-.667-.42-1.12v-.12zm-3.2.48c.4667 0 .8933-.087 1.28-.26.4-.173.74-.42 1.02-.74s.5-.7.66-1.14c.16-.453.24-.953.24-1.5v-.24c0-.533-.08-1.02-.24-1.46-.16-.453-.3867-.84-.68-1.16-.28-.32-.62-.567-1.02-.74-.3867-.187-.8067-.28-1.26-.28-.4667 0-.8933.087-1.28.26s-.7267.42-1.02.74c-.28.307-.5.687-.66 1.14-.16.44-.24.927-.24 1.46v.32c0 1.133.2933 2.02.88 2.66.6.627 1.3733.94 2.32.94zm9.806 1.2h-1.56v-9.92h1.56v1.68h.24c.6133-1.307 1.68-1.96 3.2-1.96 1.1467 0 2.06.36 2.74 1.08.68.707 1.02 1.773 1.02 3.2V181h-1.56v-5.6c0-1.04-.2333-1.82-.7-2.34s-1.1-.78-1.9-.78c-.9467 0-1.6933.327-2.24.98-.5333.64-.8 1.5-.8 2.58V181zm20.046-4.84c0 .827-.14 1.56-.42 2.2-.2667.627-.6267 1.16-1.08 1.6-.4534.427-.9867.753-1.6.98-.6.227-1.2267.34-1.88.34-.6667 0-1.3-.113-1.9-.34s-1.1267-.553-1.58-.98c-.4534-.44-.82-.973-1.1-1.6-.2667-.64-.4-1.373-.4-2.2v-.24c0-.813.1333-1.533.4-2.16.28-.64.6466-1.18 1.1-1.62.4666-.44 1-.773 1.6-1s1.2266-.34 1.88-.34 1.28.113 1.88.34 1.1266.56 1.58 1c.4666.44.8333.98 1.1 1.62.28.627.42 1.347.42 2.16v.24zm-4.98 3.64c.48 0 .92-.08 1.32-.24.4133-.173.7733-.42 1.08-.74s.5466-.7.72-1.14c.1733-.453.26-.96.26-1.52v-.24c0-.533-.0867-1.02-.26-1.46-.1734-.453-.4134-.84-.72-1.16s-.6667-.567-1.08-.74c-.4134-.187-.8534-.28-1.32-.28s-.9067.093-1.32.28c-.4134.173-.7734.42-1.08.74s-.5467.707-.72 1.16c-.1734.44-.26.927-.26 1.46v.24c0 .56.0866 1.067.26 1.52.1733.44.4133.82.72 1.14s.66.567 1.06.74c.4133.16.86.24 1.34.24zm7.5857 2.16h9.32v1.44h-9.32v-1.44zm15.526-7.92v-2.32l4.56-2.92v-.24h-7.92V167h9.36v2.56l-4.56 2.92v.24h.8a4.616 4.616 0 0 1 1.54.26c.494.173.927.427 1.3.76.387.333.694.747.92 1.24.24.48.36 1.04.36 1.68v.36c0 .6-.12 1.16-.36 1.68s-.573.973-1 1.36c-.426.373-.933.673-1.52.9-.573.213-1.2.32-1.88.32-.786 0-1.493-.12-2.12-.36s-1.16-.567-1.6-.98c-.44-.427-.78-.92-1.02-1.48-.226-.573-.34-1.18-.34-1.82v-1.08h1.68v.96c0 .507.08.96.24 1.36.174.387.407.72.7 1 .307.267.667.473 1.08.62s.86.22 1.34.22c.44 0 .847-.073 1.22-.22.387-.147.72-.347 1-.6.28-.267.5-.573.66-.92.16-.36.24-.74.24-1.14v-.12c0-.84-.266-1.493-.8-1.96-.533-.48-1.2-.72-2-.72h-1.88zm10.687 2.88c0 .867.266 1.567.8 2.1.533.52 1.273.78 2.22.78.453 0 .866-.08 1.24-.24.386-.16.713-.387.98-.68.28-.307.493-.66.64-1.06.16-.413.24-.873.24-1.38v-2.08h-.24c-.307.587-.747 1.047-1.32 1.38s-1.24.5-2 .5c-.654 0-1.254-.1-1.8-.3s-1.02-.493-1.42-.88c-.4-.4-.714-.88-.94-1.44-.214-.56-.32-1.2-.32-1.92v-.24c0-.693.12-1.327.36-1.9.24-.587.573-1.087 1-1.5.44-.427.953-.753 1.54-.98.6-.24 1.253-.36 1.96-.36s1.353.12 1.94.36c.6.227 1.113.547 1.54.96.44.413.78.907 1.02 1.48s.36 1.2.36 1.88v5.04c0 .747-.127 1.42-.38 2.02-.24.587-.58 1.093-1.02 1.52-.427.413-.934.733-1.52.96s-1.22.34-1.9.34-1.307-.1-1.88-.3-1.067-.487-1.48-.86c-.414-.387-.734-.847-.96-1.38-.227-.547-.34-1.153-.34-1.82h1.68zm2.94-8.72c-.48 0-.92.08-1.32.24-.387.16-.72.387-1 .68s-.494.64-.64 1.04c-.147.387-.22.807-.22 1.26v.24c0 .467.08.893.24 1.28.16.373.38.7.66.98.28.267.613.473 1 .62s.813.22 1.28.22c.453 0 .873-.073 1.26-.22.386-.16.72-.373 1-.64.293-.267.52-.587.68-.96s.24-.773.24-1.2v-.38c0-.44-.074-.853-.22-1.24s-.36-.72-.64-1c-.28-.293-.62-.52-1.02-.68-.387-.16-.82-.24-1.3-.24zm7.306 2.88h3.6v1.32h.24c.253-.547.613-.947 1.08-1.2.466-.267 1-.4 1.6-.4 1 0 1.806.327 2.42.98s.94 1.607.98 2.86l-1.64.24c0-.92-.22-1.58-.66-1.98-.44-.413-.98-.62-1.62-.62-.414 0-.774.08-1.08.24-.294.16-.54.38-.74.66s-.347.607-.44.98-.14.773-.14 1.2v4.2h2.52V181h-6.36v-1.44h2.28v-7.04h-2.04v-1.44zm20.006 8.24h-.24c-.32.667-.767 1.16-1.34 1.48-.56.32-1.154.48-1.78.48-.654 0-1.26-.107-1.82-.32-.56-.227-1.054-.553-1.48-.98-.414-.44-.74-.973-.98-1.6s-.36-1.353-.36-2.18v-.32c0-.813.12-1.533.36-2.16s.566-1.153.98-1.58c.426-.44.92-.773 1.48-1s1.153-.34 1.78-.34c.68 0 1.293.153 1.84.46.56.293 1 .753 1.32 1.38h.24v-1.56h1.56v7.88c0 .4.18.6.54.6h.5V181h-1.06c-.454 0-.827-.147-1.12-.44-.28-.293-.42-.667-.42-1.12v-.12zm-3.2.48c.466 0 .893-.087 1.28-.26.4-.173.74-.42 1.02-.74s.5-.7.66-1.14c.16-.453.24-.953.24-1.5v-.24c0-.533-.08-1.02-.24-1.46-.16-.453-.387-.84-.68-1.16-.28-.32-.62-.567-1.02-.74-.387-.187-.807-.28-1.26-.28-.467 0-.894.087-1.28.26s-.727.42-1.02.74c-.28.307-.5.687-.66 1.14-.16.44-.24.927-.24 1.46v.32c0 1.133.293 2.02.88 2.66.6.627 1.373.94 2.32.94zm11.246-5.76v-2.32l4.56-2.92v-.24h-7.92V167h9.36v2.56l-4.56 2.92v.24h.8c.533 0 1.047.087 1.54.26s.927.427 1.3.76c.387.333.693.747.92 1.24.24.48.36 1.04.36 1.68v.36c0 .6-.12 1.16-.36 1.68s-.573.973-1 1.36c-.427.373-.933.673-1.52.9-.573.213-1.2.32-1.88.32-.787 0-1.493-.12-2.12-.36s-1.16-.567-1.6-.98c-.44-.427-.78-.92-1.02-1.48-.227-.573-.34-1.18-.34-1.82v-1.08h1.68v.96c0 .507.08.96.24 1.36.173.387.407.72.7 1 .307.267.667.473 1.08.62s.86.22 1.34.22c.44 0 .847-.073 1.22-.22.387-.147.72-.347 1-.6.28-.267.5-.573.66-.92.16-.36.24-.74.24-1.14v-.12c0-.84-.267-1.493-.8-1.96-.533-.48-1.2-.72-2-.72h-1.88zm16.566-2.96c0-.867-.267-1.56-.8-2.08-.533-.533-1.273-.8-2.22-.8-.453 0-.873.08-1.26.24-.373.16-.7.393-.98.7-.267.293-.48.647-.64 1.06-.147.413-.22.867-.22 1.36v2.08h.24c.32-.587.773-1.047 1.36-1.38.6-.333 1.267-.5 2-.5.64 0 1.233.107 1.78.32.547.2 1.013.5 1.4.9.4.4.707.887.92 1.46.227.56.34 1.2.34 1.92v.24c0 .693-.127 1.327-.38 1.9-.24.573-.58 1.067-1.02 1.48-.427.413-.94.733-1.54.96-.587.227-1.227.34-1.92.34s-1.34-.113-1.94-.34c-.587-.227-1.1-.54-1.54-.94-.427-.413-.767-.9-1.02-1.46-.24-.573-.36-1.2-.36-1.88v-5.1c0-.733.127-1.4.38-2s.6-1.107 1.04-1.52c.44-.427.947-.753 1.52-.98.587-.227 1.213-.34 1.88-.34s1.287.1 1.86.3 1.067.493 1.48.88c.413.373.733.833.96 1.38.24.533.36 1.133.36 1.8h-1.68zm-2.94 8.72c.48 0 .913-.073 1.3-.22.4-.16.74-.38 1.02-.66s.493-.613.64-1 .22-.813.22-1.28v-.24c0-.467-.08-.893-.24-1.28s-.38-.72-.66-1-.62-.493-1.02-.64c-.387-.16-.807-.24-1.26-.24s-.873.08-1.26.24-.727.38-1.02.66c-.28.28-.5.607-.66.98s-.24.773-.24 1.2v.38c0 .44.073.853.22 1.24.147.373.36.7.64.98s.613.5 1 .66c.4.147.84.22 1.32.22zm15.066-.48h-.24c-.32.667-.767 1.16-1.34 1.48-.56.32-1.153.48-1.78.48-.653 0-1.26-.107-1.82-.32-.56-.227-1.053-.553-1.48-.98-.413-.44-.74-.973-.98-1.6s-.36-1.353-.36-2.18v-.32c0-.813.12-1.533.36-2.16s.567-1.153.98-1.58c.427-.44.92-.773 1.48-1s1.153-.34 1.78-.34c.68 0 1.293.153 1.84.46.56.293 1 .753 1.32 1.38h.24v-1.56h1.56v7.88c0 .4.18.6.54.6h.5V181h-1.06c-.453 0-.827-.147-1.12-.44-.28-.293-.42-.667-.42-1.12v-.12zm-3.2.48c.467 0 .893-.087 1.28-.26.4-.173.74-.42 1.02-.74s.5-.7.66-1.14c.16-.453.24-.953.24-1.5v-.24c0-.533-.08-1.02-.24-1.46-.16-.453-.387-.84-.68-1.16-.28-.32-.62-.567-1.02-.74-.387-.187-.807-.28-1.26-.28-.467 0-.893.087-1.28.26s-.727.42-1.02.74c-.28.307-.5.687-.66 1.14-.16.44-.24.927-.24 1.46v.32c0 1.133.293 2.02.88 2.66.6.627 1.373.94 2.32.94zm17.526-2.32c-.107.547-.293 1.053-.56 1.52a4.337 4.337 0 0 1-.98 1.22c-.4.333-.867.593-1.4.78s-1.127.28-1.78.28c-.693 0-1.353-.113-1.98-.34-.613-.227-1.153-.553-1.62-.98-.467-.44-.84-.973-1.12-1.6-.267-.627-.4-1.347-.4-2.16v-.24c0-.8.133-1.52.4-2.16.28-.64.653-1.18 1.12-1.62s1.007-.78 1.62-1.02c.627-.24 1.287-.36 1.98-.36.627 0 1.207.093 1.74.28s1 .453 1.4.8a3.936 3.936 0 0 1 1 1.2c.267.467.447.973.54 1.52l-1.56.36c-.04-.347-.14-.68-.3-1-.147-.333-.353-.62-.62-.86-.253-.253-.567-.453-.94-.6s-.807-.22-1.3-.22c-.48 0-.933.093-1.36.28-.413.173-.78.427-1.1.76-.32.32-.573.707-.76 1.16-.173.453-.26.947-.26 1.48v.24c0 .56.087 1.067.26 1.52.187.44.44.813.76 1.12s.693.547 1.12.72c.427.16.887.24 1.38.24s.92-.073 1.28-.22c.373-.16.687-.36.94-.6.267-.253.473-.54.62-.86.16-.32.267-.653.32-1l1.56.36zM215.08 167h3.26v9.8h2.16v1.56h-2.16V181h-1.68v-2.64h-6.48v-2.32l4.9-9.04zm-3.46 9.56v.24h5.04v-9.08h-.24l-4.8 8.84zm11.466-5.48h3.06v-2.52c0-.453.14-.827.42-1.12.294-.293.667-.44 1.12-.44h3.92v1.44h-3.36c-.36 0-.54.2-.54.6v2.04h4.14v1.44h-4.14V181h-1.56v-8.48h-3.06v-1.44zM244.01 181h-2.88l-1.2-9.2h-.24l-1.2 9.2h-2.88l-1.56-9.92h1.6l1.32 9.2h.24l1.16-9.2h2.88l1.16 9.2h.24l1.32-9.2h1.6l-1.56 9.92z"/><path d="M103.3 223h-1.56v-9.92h1.56v1.68h.24c.613-1.307 1.68-1.96 3.2-1.96 1.147 0 2.06.36 2.74 1.08.68.707 1.02 1.773 1.02 3.2V223h-1.56v-5.6c0-1.04-.233-1.82-.7-2.34s-1.1-.78-1.9-.78c-.947 0-1.693.327-2.24.98-.533.64-.8 1.5-.8 2.58V223zm17.886-1.68h-.24c-.32.667-.767 1.16-1.34 1.48-.56.32-1.153.48-1.78.48-.653 0-1.26-.107-1.82-.32-.56-.227-1.053-.553-1.48-.98-.413-.44-.74-.973-.98-1.6s-.36-1.353-.36-2.18v-.32c0-.813.12-1.533.36-2.16s.567-1.153.98-1.58c.427-.44.92-.773 1.48-1s1.153-.34 1.78-.34c.68 0 1.293.153 1.84.46.56.293 1 .753 1.32 1.38h.24v-1.56h1.56v7.88c0 .4.18.6.54.6h.5V223h-1.06c-.453 0-.827-.147-1.12-.44-.28-.293-.42-.667-.42-1.12v-.12zm-3.2.48c.467 0 .893-.087 1.28-.26.4-.173.74-.42 1.02-.74s.5-.7.66-1.14c.16-.453.24-.953.24-1.5v-.24c0-.533-.08-1.02-.24-1.46-.16-.453-.387-.84-.68-1.16-.28-.32-.62-.567-1.02-.74-.387-.187-.807-.28-1.26-.28-.467 0-.893.087-1.28.26s-.727.42-1.02.74c-.28.307-.5.687-.66 1.14-.16.44-.24.927-.24 1.46v.32c0 1.133.293 2.02.88 2.66.6.627 1.373.94 2.32.94zm9.806 1.2h-1.56v-9.92h1.56v1.68h.24c.614-1.307 1.68-1.96 3.2-1.96 1.147 0 2.06.36 2.74 1.08.68.707 1.02 1.773 1.02 3.2V223h-1.56v-5.6c0-1.04-.233-1.82-.7-2.34s-1.1-.78-1.9-.78c-.946 0-1.693.327-2.24.98-.533.64-.8 1.5-.8 2.58V223zm20.046-4.84c0 .827-.14 1.56-.42 2.2-.266.627-.626 1.16-1.08 1.6-.453.427-.986.753-1.6.98-.6.227-1.226.34-1.88.34-.666 0-1.3-.113-1.9-.34s-1.126-.553-1.58-.98c-.453-.44-.82-.973-1.1-1.6-.266-.64-.4-1.373-.4-2.2v-.24c0-.813.134-1.533.4-2.16.28-.64.647-1.18 1.1-1.62.467-.44 1-.773 1.6-1s1.227-.34 1.88-.34 1.28.113 1.88.34 1.127.56 1.58 1c.467.44.834.98 1.1 1.62.28.627.42 1.347.42 2.16v.24zm-4.98 3.64c.48 0 .92-.08 1.32-.24.414-.173.774-.42 1.08-.74s.547-.7.72-1.14c.174-.453.26-.96.26-1.52v-.24c0-.533-.086-1.02-.26-1.46-.173-.453-.413-.84-.72-1.16s-.666-.567-1.08-.74c-.413-.187-.853-.28-1.32-.28s-.906.093-1.32.28c-.413.173-.773.42-1.08.74s-.546.707-.72 1.16c-.173.44-.26.927-.26 1.46v.24c0 .56.087 1.067.26 1.52.174.44.414.82.72 1.14s.66.567 1.06.74c.414.16.86.24 1.34.24zm7.586 2.16h9.32v1.44h-9.32v-1.44zm16.166-2.52v-11.7h-.24l-2.3 5.26h-1.66v-.12l2.62-5.88h3.26v12.44h3.96V223h-9.6v-1.56h3.96zm15.807-.24h-.24c-.32.64-.74 1.147-1.26 1.52s-1.18.56-1.98.56c-.547 0-1.054-.093-1.52-.28-.454-.173-.847-.44-1.18-.8-.32-.36-.574-.807-.76-1.34-.174-.533-.26-1.153-.26-1.86v-5.92h1.56v5.72c0 1.04.213 1.8.64 2.28s1.08.72 1.96.72c.946 0 1.686-.32 2.22-.96.546-.653.82-1.52.82-2.6v-5.16h1.56v12.36c0 .453-.147.827-.44 1.12-.28.293-.647.44-1.1.44h-5.66v-1.44h5.1c.36 0 .54-.2.54-.6v-3.76zm8.686.24v-11.7h-.24l-2.3 5.26h-1.66v-.12l2.62-5.88h3.26v12.44h3.96V223h-9.6v-1.56h3.96zm8.046-8.36h3.6v1.32h.24c.253-.547.613-.947 1.08-1.2.466-.267 1-.4 1.6-.4 1 0 1.806.327 2.42.98s.94 1.607.98 2.86l-1.64.24c0-.92-.22-1.58-.66-1.98-.44-.413-.98-.62-1.62-.62-.414 0-.774.08-1.08.24-.294.16-.54.38-.74.66s-.347.607-.44.98-.14.773-.14 1.2v4.2h2.52V223h-6.36v-1.44h2.28v-7.04h-2.04v-1.44zm20.126 0c0-.867-.267-1.56-.8-2.08-.533-.533-1.273-.8-2.22-.8-.453 0-.873.08-1.26.24-.373.16-.7.393-.98.7-.267.293-.48.647-.64 1.06-.147.413-.22.867-.22 1.36v2.08h.24c.32-.587.773-1.047 1.36-1.38.6-.333 1.267-.5 2-.5.64 0 1.233.107 1.78.32.547.2 1.013.5 1.4.9.4.4.707.887.92 1.46.227.56.34 1.2.34 1.92v.24c0 .693-.127 1.327-.38 1.9-.24.573-.58 1.067-1.02 1.48-.427.413-.94.733-1.54.96-.587.227-1.227.34-1.92.34s-1.34-.113-1.94-.34c-.587-.227-1.1-.54-1.54-.94-.427-.413-.767-.9-1.02-1.46-.24-.573-.36-1.2-.36-1.88v-5.1c0-.733.127-1.4.38-2s.6-1.107 1.04-1.52c.44-.427.947-.753 1.52-.98.587-.227 1.213-.34 1.88-.34s1.287.1 1.86.3 1.067.493 1.48.88c.413.373.733.833.96 1.38.24.533.36 1.133.36 1.8h-1.68zm-2.94 8.72c.48 0 .913-.073 1.3-.22.4-.16.74-.38 1.02-.66s.493-.613.64-1 .22-.813.22-1.28v-.24c0-.467-.08-.893-.24-1.28s-.38-.72-.66-1-.62-.493-1.02-.64c-.387-.16-.807-.24-1.26-.24s-.873.08-1.26.24-.727.38-1.02.66c-.28.28-.5.607-.66.98s-.24.773-.24 1.2v.38c0 .44.073.853.22 1.24.147.373.36.7.64.98s.613.5 1 .66c.4.147.84.22 1.32.22zm9.926-6.16c0 .48.2.847.6 1.1.413.253 1.16.42 2.24.5 1.16.093 2.04.373 2.64.84.613.453.92 1.12.92 2v.12c0 .48-.1.913-.3 1.3-.187.373-.453.693-.8.96-.333.267-.747.467-1.24.6-.48.147-1.007.22-1.58.22-.773 0-1.44-.1-2-.3-.547-.213-1.007-.487-1.38-.82-.36-.347-.633-.733-.82-1.16-.187-.44-.293-.88-.32-1.32l1.48-.36c.067.76.36 1.373.88 1.84.52.453 1.213.68 2.08.68.733 0 1.32-.14 1.76-.42.453-.293.68-.7.68-1.22 0-.56-.22-.96-.66-1.2s-1.153-.393-2.14-.46c-1.147-.08-2.027-.347-2.64-.8s-.92-1.113-.92-1.98v-.12c0-.467.1-.873.3-1.22.2-.36.467-.66.8-.9.347-.24.733-.42 1.16-.54s.873-.18 1.34-.18c.653 0 1.227.093 1.72.28.493.173.907.407 1.24.7.333.28.587.607.76.98.187.373.307.747.36 1.12l-1.48.36c-.067-.64-.327-1.14-.78-1.5-.44-.36-1.02-.54-1.74-.54-.28 0-.553.033-.82.1-.253.053-.48.14-.68.26s-.36.273-.48.46c-.12.173-.18.38-.18.62zm11.746 7.36h-1.56v-14h1.56v5.88h.24c.307-.64.733-1.147 1.28-1.52.56-.373 1.24-.56 2.04-.56 1.08 0 1.953.36 2.62 1.08.68.707 1.02 1.773 1.02 3.2V223h-1.56v-5.6c0-1.04-.233-1.82-.7-2.34s-1.1-.78-1.9-.78c-.947 0-1.693.327-2.24.98-.533.64-.8 1.5-.8 2.58V223zM103.3 55h-1.56v-9.92h1.56v1.68h.24c.613-1.3067 1.68-1.96 3.2-1.96 1.147 0 2.06.36 2.74 1.08.68.7067 1.02 1.7733 1.02 3.2V55h-1.56v-5.6c0-1.04-.233-1.82-.7-2.34s-1.1-.78-1.9-.78c-.947 0-1.693.3267-2.24.98-.533.64-.8 1.5-.8 2.58V55zm17.886-1.68h-.24c-.32.6667-.767 1.16-1.34 1.48-.56.32-1.153.48-1.78.48-.653 0-1.26-.1067-1.82-.32-.56-.2267-1.053-.5533-1.48-.98-.413-.44-.74-.9733-.98-1.6s-.36-1.3533-.36-2.18v-.32c0-.8133.12-1.5333.36-2.16s.567-1.1533.98-1.58c.427-.44.92-.7733 1.48-1s1.153-.34 1.78-.34c.68 0 1.293.1533 1.84.46.56.2933 1 .7533 1.32 1.38h.24v-1.56h1.56v7.88c0 .4.18.6.54.6h.5V55h-1.06c-.453 0-.827-.1467-1.12-.44-.28-.2933-.42-.6667-.42-1.12v-.12zm-3.2.48c.467 0 .893-.0867 1.28-.26.4-.1733.74-.42 1.02-.74s.5-.7.66-1.14c.16-.4533.24-.9533.24-1.5v-.24c0-.5333-.08-1.02-.24-1.46-.16-.4533-.387-.84-.68-1.16-.28-.32-.62-.5667-1.02-.74-.387-.1867-.807-.28-1.26-.28-.467 0-.893.0867-1.28.26s-.727.42-1.02.74c-.28.3067-.5.6867-.66 1.14-.16.44-.24.9267-.24 1.46v.32c0 1.1333.293 2.02.88 2.66.6.6267 1.373.94 2.32.94zm9.806 1.2h-1.56v-9.92h1.56v1.68h.24c.614-1.3067 1.68-1.96 3.2-1.96 1.147 0 2.06.36 2.74 1.08.68.7067 1.02 1.7733 1.02 3.2V55h-1.56v-5.6c0-1.04-.233-1.82-.7-2.34s-1.1-.78-1.9-.78c-.946 0-1.693.3267-2.24.98-.533.64-.8 1.5-.8 2.58V55zm20.046-4.84c0 .8267-.14 1.56-.42 2.2-.266.6267-.626 1.16-1.08 1.6-.453.4267-.986.7533-1.6.98-.6.2267-1.226.34-1.88.34-.666 0-1.3-.1133-1.9-.34s-1.126-.5533-1.58-.98c-.453-.44-.82-.9733-1.1-1.6-.266-.64-.4-1.3733-.4-2.2v-.24c0-.8133.134-1.5333.4-2.16.28-.64.647-1.18 1.1-1.62a4.768 4.768 0 0 1 1.6-1c.6-.2267 1.227-.34 1.88-.34s1.28.1133 1.88.34 1.127.56 1.58 1c.467.44.834.98 1.1 1.62.28.6267.42 1.3467.42 2.16v.24zm-4.98 3.64c.48 0 .92-.08 1.32-.24.414-.1733.774-.42 1.08-.74s.547-.7.72-1.14c.174-.4533.26-.96.26-1.52v-.24c0-.5333-.086-1.02-.26-1.46-.173-.4533-.413-.84-.72-1.16s-.666-.5667-1.08-.74c-.413-.1867-.853-.28-1.32-.28s-.906.0933-1.32.28c-.413.1733-.773.42-1.08.74s-.546.7067-.72 1.16c-.173.44-.26.9267-.26 1.46v.24c0 .56.087 1.0667.26 1.52.174.44.414.82.72 1.14s.66.5667 1.06.74c.414.16.86.24 1.34.24zm7.586 2.16h9.32v1.44h-9.32v-1.44zm16.166-2.52v-11.7h-.24l-2.3 5.26h-1.66v-.12l2.62-5.88h3.26v12.44h3.96V55h-9.6v-1.56h3.96zm9.747-2.92c.04.9867.346 1.78.92 2.38s1.373.9 2.4.9c.466 0 .873-.0533 1.22-.16s.64-.2533.88-.44c.253-.1867.453-.4.6-.64a3.692 3.692 0 0 0 .38-.8l1.48.4c-.28.92-.8 1.6733-1.56 2.26-.747.5733-1.76.86-3.04.86-.707 0-1.36-.12-1.96-.36-.587-.2533-1.094-.6067-1.52-1.06s-.76-.9933-1-1.62-.36-1.32-.36-2.08v-.48c0-.6933.12-1.34.36-1.94.253-.6.6-1.1133 1.04-1.54.44-.44.953-.78 1.54-1.02.6-.2533 1.246-.38 1.94-.38.813 0 1.513.1533 2.1.46.6.2933 1.086.66 1.46 1.1.386.44.666.92.84 1.44.186.52.28 1 .28 1.44v1.28h-8zm3.32-4.24c-.44 0-.854.0733-1.24.22-.374.1333-.707.3267-1 .58-.28.2533-.514.5533-.7.9-.174.3333-.287.7-.34 1.1h6.4c-.027-.4267-.134-.8133-.32-1.16-.174-.3467-.407-.64-.7-.88-.28-.24-.607-.4267-.98-.56-.36-.1333-.734-.2-1.12-.2zM191.603 41h3.26v9.8h2.16v1.56h-2.16V55h-1.68v-2.64h-6.48v-2.32l4.9-9.04zm-3.46 9.56v.24h5.04v-9.08h-.24l-4.8 8.84zm20.846.92c-.107.5467-.294 1.0533-.56 1.52-.254.4667-.58.8733-.98 1.22-.4.3333-.867.5933-1.4.78s-1.127.28-1.78.28c-.694 0-1.354-.1133-1.98-.34-.614-.2267-1.154-.5533-1.62-.98-.467-.44-.84-.9733-1.12-1.6-.267-.6267-.4-1.3467-.4-2.16v-.24c0-.8.133-1.52.4-2.16.28-.64.653-1.18 1.12-1.62s1.006-.78 1.62-1.02c.626-.24 1.286-.36 1.98-.36.626 0 1.206.0933 1.74.28s1 .4533 1.4.8c.413.3333.746.7333 1 1.2.266.4667.446.9733.54 1.52l-1.56.36c-.04-.3467-.14-.68-.3-1-.147-.3333-.354-.62-.62-.86-.254-.2533-.567-.4533-.94-.6s-.807-.22-1.3-.22c-.48 0-.934.0933-1.36.28-.414.1733-.78.4267-1.1.76-.32.32-.574.7067-.76 1.16-.174.4533-.26.9467-.26 1.48v.24c0 .56.086 1.0667.26 1.52.186.44.44.8133.76 1.12s.693.5467 1.12.72c.426.16.886.24 1.38.24s.92-.0733 1.28-.22c.373-.16.686-.36.94-.6.266-.2533.473-.54.62-.86.16-.32.266-.6533.32-1l1.56.36zm4.166 3.52h-1.56V41h1.56v5.64h.24c.347-.6.827-1.0533 1.44-1.36.613-.32 1.28-.48 2-.48.613 0 1.193.1133 1.74.34a4.246 4.246 0 0 1 1.44.98c.427.4267.76.9533 1 1.58.253.6267.38 1.34.38 2.14v.4c0 .8133-.12 1.5333-.36 2.16s-.573 1.1533-1 1.58c-.413.4267-.9.7533-1.46.98-.56.2133-1.153.32-1.78.32-.32 0-.647-.04-.98-.12-.333-.0667-.653-.1733-.96-.32-.293-.16-.567-.3467-.82-.56-.253-.2267-.467-.4933-.64-.8h-.24V55zm3.32-1.2c.48 0 .92-.08 1.32-.24.4-.1733.747-.4133 1.04-.72.307-.3067.54-.68.7-1.12.173-.44.26-.9333.26-1.48v-.4c0-.5333-.087-1.0133-.26-1.44-.16-.44-.393-.8133-.7-1.12-.293-.32-.647-.5667-1.06-.74-.4-.1733-.833-.26-1.3-.26s-.9.0933-1.3.28c-.4.1733-.753.42-1.06.74-.293.32-.527.7067-.7 1.16-.173.44-.26.9267-.26 1.46v.24c0 .5467.087 1.0467.26 1.5.173.44.407.82.7 1.14.307.32.66.5667 1.06.74s.833.26 1.3.26zm15.406-.32h-.24a2.81 2.81 0 0 1-.62.8c-.24.2267-.507.4133-.8.56-.28.1467-.58.2533-.9.32-.32.08-.627.12-.92.12-.667 0-1.287-.1133-1.86-.34s-1.08-.5533-1.52-.98c-.427-.4267-.767-.9533-1.02-1.58-.24-.64-.36-1.3667-.36-2.18v-.32c0-.8.127-1.5133.38-2.14.253-.64.593-1.1733 1.02-1.6.427-.44.927-.7733 1.5-1s1.18-.34 1.82-.34c.68 0 1.313.1533 1.9.46.6.2933 1.06.7533 1.38 1.38h.24V41h1.56v14h-1.56v-1.52zm-3.32.32c.467 0 .9-.0867 1.3-.26a3.025 3.025 0 0 0 1.04-.74c.307-.32.547-.7.72-1.14.173-.4533.26-.9533.26-1.5v-.24c0-.5333-.087-1.02-.26-1.46-.173-.4533-.413-.84-.72-1.16-.293-.32-.647-.5667-1.06-.74-.4-.1867-.827-.28-1.28-.28-.467 0-.907.0867-1.32.26-.4.1733-.753.42-1.06.74-.293.32-.527.7-.7 1.14-.16.44-.24.9267-.24 1.46v.32c0 .56.08 1.06.24 1.5.173.44.407.82.7 1.14.307.3067.66.5467 1.06.72.4.16.84.24 1.32.24zm9.446 1.2h-1.56V41h1.56v5.88h.24c.307-.64.733-1.1467 1.28-1.52.56-.3733 1.24-.56 2.04-.56 1.08 0 1.953.36 2.62 1.08.68.7067 1.02 1.7733 1.02 3.2V55h-1.56v-5.6c0-1.04-.233-1.82-.7-2.34s-1.1-.78-1.9-.78c-.947 0-1.693.3267-2.24.98-.533.64-.8 1.5-.8 2.58V55z"/></g><path d="M525.493 61.3857C525.406 52.167 533.167 45 542.386 45h37.228c9.22 0 16.98 7.167 16.893 16.3857C596.2 93.8562 586.936 115 561 115s-35.2-21.1438-35.507-53.6143h0z" fill="#44e8ff"/><path d="M536.453 104.394C542.042 111.217 550.03 115 561 115c25.935 0 35.2-21.1436 35.507-53.614.04-4.4-1.697-8.3147-4.525-11.2218.26.963.402 1.9745.416 3.0214.44 34.7786-8.488 57.7135-35.5 57.7135-8.525 0-15.248-2.285-20.445-6.505z" fill-opacity=".2455" class="B C"/><path d="M589.985 61.1328c4.1 1.914 4.922 9.5703 6.016 9.5703 2.187 0 11.62-36.0937-35-36.0937S523.813 70.703 526 70.703c1.095 0 3.42-8.75 6.016-9.5703s5.47 2.46 8.34 1.6406 2.735-3.5546 5.88-3.9648 6.836 4.2383 10.254 3.418 8.066-3.6914 11.074-3.6914 6.836 3.9648 10.254 4.2382c4.03.3224 8.067-3.5546 12.168-1.6406z" class="E"/><g class="B C"><path d="M595.733 64.0412c-.47-1.6335-1.683-5.8582-7.39-6.736-2.562-.394-4.74.2182-6.842.8088-1.77.4974-3.484.9792-5.326.8318-1.7-.136-3.502-1.186-5.254-2.2063-1.77-1.031-3.488-2.032-5-2.032-1.766 0-4.098.99-6.415 1.9736l-4.66 1.7178c-1.806.4334-3.688-.6596-5.525-1.7268-1.64-.9526-3.246-1.8848-4.73-1.6912-1.67.218-2.415 1.0924-3.177 1.987-.672.7888-1.356 1.5933-2.702 1.9777-1.456.4162-2.914-.2236-4.335-.8476-1.38-.606-2.725-1.197-4.004-.793-1.53.4826-2.962 3.7092-4.106 6.2844-.8 1.8025-1.46 3.286-1.9 3.286a.459.459 0 0 1-.051-.003c.51 2.355 1.25 3.8312 1.692 3.8312.45 0 1.1-1.4834 1.9-3.286 1.144-2.5753 2.578-5.8018 4.106-6.2845 1.28-.404 2.625.187 4.005.793 1.42.624 2.878 1.2638 4.335.8477 1.345-.3845 2.03-1.189 2.7-1.9778.762-.8947 1.506-1.769 3.178-1.987 1.483-.1936 3.087.7386 4.728 1.6912 1.838 1.0673 3.72 2.1602 5.525 1.7268 1.41-.3385 3.03-1.0265 4.66-1.7177 2.317-.9836 4.65-1.9737 6.416-1.9737 1.51 0 3.23 1 5 2.032 1.752 1.0205 3.554 2.0702 5.254 2.2064 1.69.135 3.38-.468 5.076-1.0727 2.35-.8378 4.7-1.6798 7.092-.568 2.62 1.2223 3.9 4.7855 4.77 7.2018.492 1.368.852 2.3686 1.247 2.3686 1.37 0 5.576-14.1365-2.895-24.7155 5.234 9.017 3.772 18.6998 2.895 18.6998-.082 0-.152-.245-.268-.647z" fill-opacity=".1585"/><path d="M561 102.42c5.742 0 9.023-5.742 9.023-9.0233s-4.178-1.914-9.023-1.914-9.023-1.367-9.023 1.914 3.28 9.0233 9.023 9.0233z" fill-opacity=".3574"/></g><path d="M568.528 92.457l-.088 1.059c-.037.439-.3.8285-.7.9892-1.023.401-3.27 1.0807-6.74 1.0807-3.444 0-5.684-.6697-6.717-1.0716-.426-.1655-.688-.5682-.726-1.0227l-.086-1.035c.602-.443 1.856-.3128 3.555-.1368l3.974.2582c1.485 0 2.83-.1395 3.974-.2582 1.7-.176 2.953-.3062 3.556.137z" class="B D"/><path d="M566.495 99.0006c-1.36 1.3764-3.236 2.3274-5.496 2.3274s-4.136-.95-5.495-2.327c1.425-.591 3.362-.954 5.495-.954s4.07.363 5.496.9537z" fill="#ff5858" class="B"/><path d="M557.768 76.9613c-1.543-.353-3.45-.7894-7.683-.7894-6.29 0-9.983 0-7.93 5.4687 1.733 4.6137 5.23 4.6485 8.34 4.6485 6.398 0 7.807-2.435 8.768-4.095.495-.8554.87-1.505 1.75-1.5105.877.0055 1.253.655 1.748 1.5105.96 1.66 2.37 4.095 8.768 4.095 3.108 0 6.606-.0348 8.34-4.6485 2.054-5.4687-1.64-5.4687-7.93-5.4687-4.234 0-6.14.4364-7.683.7894-1.045.24-1.922.44-3.243.44s-2.2-.202-3.244-.44z" class="C"/><g class="D"><path d="M567.693 84.7794c-.565-.1474-1.033-.3237-1.43-.52l12.96-5.8327c.16.344.138.7577.1 1.123l-11.618 5.2287zm11.314-3.9824c-.55 1.66-1.505 3.213-3.195 3.8814-1.918.7585-4.32.6333-6.35.4145l9.546-4.296z"/><path d="M558.837 79.3576c-.066-.3768-.235-.695-.51-.9338l-12.95 5.8278c.413.267.84.45 1.288.5832l12.17-5.4772zM548.45 85.141c2.3.1753 4.85.175 6.995-.7353 1.588-.6735 2.9-2.2252 3.324-3.9085l-10.32 4.6438z" class="B"/></g><path d="M534 175.125c0-7.25 5.876-13.125 13.125-13.125h43.75c7.25 0 13.125 5.876 13.125 13.125v31.72C604 220.737 592.737 232 578.844 232h-19.688C545.263 232 534 220.737 534 206.844v-31.72z" fill="#ff8f57"/><path d="M540.652 223.886c4.597 4.99 11.186 8.114 18.505 8.114h19.687C592.738 232 604 220.737 604 206.844v-31.72c0-4.674-2.443-8.778-6.123-11.104 1.28 2.027 2.022 4.428 2.022 7.002v32.813c0 13.29-10.773 24.062-24.063 24.062H553.96c-4.92 0-9.497-1.477-13.31-4.012z" fill-opacity=".2" class="B C"/><path d="M570.093 177.587c-11.21 0 .4-5.47-1.094-7.1s-10.254 7.1-15.45 7.1 1.64-7.1-3.145-8.477c-4.666-1.333-15.44-.586-15.975 19.728-.01.307-.446.392-.545.102-3.105-9.122-11.355-39.294 35.114-38.424 46.6.873 38.29 29.448 35.107 38.482-.102.288-.53.168-.537-.137-.584-31.75-12.758-11.274-33.476-11.274z" class="J"/><g class="B C"><path d="M566.864 173.628c-.504.78-.1 1.223 2.407 1.223 7.146 0 13.442-2.44 18.658-4.464 9.988-3.873 16.014-6.2 16.462 13.08.003.157.228.23.27.078.805-2.8 2.094-7.602 1.715-12.81 1.316 7.2-.933 14.463-2.272 18.264-.102.288-.53.168-.536-.137-.39-21.224-5.96-19.1-15.8-15.376-4.88 1.85-10.81 4.102-17.677 4.102-6.796 0-5.202-2.01-3.228-3.958zm4.32-6.16c-.096 1.49-1.19 2.848-2.28 3.98.247-.39.32-.724.092-.972-.703-.766-2.988.736-5.754 2.555-3.152 2.072-6.928 4.555-9.695 4.555-2.47 0-2.22-1.608-1.793-3.44.007.44.255.706.972.706 1.778 0 5.53-2.18 9.19-4.31 4.8-2.783 9.422-5.476 9.266-3.073zm-19.15 5.45l.1-.322c.68-1.97 1.636-4.74-2.562-6.22-4.576-1.615-15.436-.6-15.975 19.728-.008.307-.436.388-.53.096a53.036 53.036 0 0 1-.548-1.82c.45 1.804.946 3.363 1.353 4.56.1.3.537.205.545-.102.535-20.314 11.3-21.06 15.975-19.728 2 .574 1.97 2.16 1.632 3.81h0z" fill-opacity=".1084"/><path d="M568.998 218.19c4.35 0 7.902-3.027 9.526-6.9.414-.985 1.1-2.67.017-3.49-.82-.62-2-.198-2.87.023-2.194.552-4.4.933-6.672.933-2.87 0-5.02-.52-6.502-.9-.914-.23-2.182-.714-3.04-.066-1.084.82-.398 2.504.016 3.49 1.624 3.874 5.176 6.9 9.525 6.9z" fill-opacity=".3"/></g><path d="M577.79 208.624c-.3.9-.568 1.897-1.438 2.418-1.077.645-3.303 1.542-7.355 1.542s-6.277-.896-7.355-1.54c-.872-.522-1.14-1.518-1.44-2.42.806-.318 3.737 1.227 8.794 1.227s7.99-1.546 8.794-1.226z" class="B D"/><path d="M574.652 214.928c-1.395 1.238-3.258 2.17-5.654 2.17-2.318 0-4.138-.872-5.518-2.052 1.635-1.07 3.994-1.102 5.682-.13 1.628-.938 3.866-.935 5.5.013z" fill="#ff5858" class="B"/><g class="C"><use xlink:href="#D" fill-opacity=".4"/><path d="M577.75 200.828c1.812 0 3.28-1.47 3.28-3.28s-1.47-3.28-3.28-3.28-3.28 1.47-3.28 3.28 1.47 3.28 3.28 3.28z" fill-opacity=".4"/><path d="M567.076 197.842c-.204 3.034-3.55 5.447-7.646 5.447-4.23 0-7.657-2.57-7.657-5.742s3.428-5.742 7.657-5.742c3.71 0 6.803 1.978 7.506 4.605 1.302-.498 2.826-.498 4.128 0 .703-2.627 3.797-4.605 7.506-4.605 4.23 0 7.657 2.57 7.657 5.742s-3.428 5.742-7.657 5.742c-4.096 0-7.442-2.413-7.646-5.448-1.156-.59-2.692-.59-3.848.001zm-7.646 4.08c3.473 0 6.29-1.96 6.29-4.375s-2.816-4.375-6.29-4.375-6.29 1.96-6.29 4.375 2.815 4.375 6.29 4.375zm19.14 0c3.474 0 6.29-1.96 6.29-4.375s-2.815-4.375-6.29-4.375-6.29 1.96-6.29 4.375 2.816 4.375 6.29 4.375z" class="B"/></g><path d="M706.33 111.844C706.166 102.846 713.86 96 722.86 96h38.283c9 0 16.693 6.846 16.528 15.844C777.07 144.62 763.338 166 742 166s-35.07-21.38-35.67-54.156h0z" class="J"/><path d="M719.32 155.16C725.22 162.13 732.92 166 742 166c21.338 0 35.07-21.38 35.67-54.157.08-4.332-1.664-8.166-4.497-10.977.25.926.4 1.9.404 2.91.472 35.008-13.492 58.123-35.68 58.123-7.103 0-13.364-2.37-18.578-6.74z" class="B C F"/><path d="M758.68 103.93c.957 14.492 15.722 3.28 18.32 17.773 4.65-15.723 1.23-28.9842-12.715-27.8905-2.324-5.228-9.707-8.0664-21.6-8.0664-24.104 0-42.793 6.1523-35.684 35.957.82-15.04 15.996-5.332 17.9-17.363 1.23 6.152 3.555 8.75 9.024 12.44-.957-5.47-.41-11.21 1.367-14.902 0 9.98 5.88 14.63 13.672 18.457 0-9.024 3.69-14.356 9.707-16.406z" class="G"/><path d="M769.237 110.435c-4.336-.857-8.804-1.74-8.51-10.4702-.49.9782-1.708 1.6532-3.203 2.4802-3.518 1.948-8.566 4.742-9.238 14.336-7.793-3.828-12.168-7.93-12.168-17.91-2.46 3.008-4.24 9.297-3.282 14.766-3.964-2.46-6.698-6.426-7.93-12.578-.895 5.625-5.047 6.588-9.16 7.54-4.684 1.086-9.315 2.16-9.024 10.095-.555-2.323-.95-4.503-1.198-6.548.156 2.878.636 6.054 1.47 9.556.435-7.984 4.917-8.994 9.312-9.984 3.883-.875 7.7-1.735 8.598-7.38 1.23 6.152 3.555 8.75 9.023 12.44-.957-5.47-.4-11.21 1.368-14.902 0 9.98 5.88 14.63 13.672 18.457 0-9.024 3.69-14.356 9.707-16.406.48 7.287 4.454 8.075 8.616 8.9 4.114.815 8.412 1.668 9.704 8.872 1.527-5.163 2.183-10.06 1.883-14.272-.204 3.038-.84 6.37-1.883 9.897-.502-5.458-4.084-6.166-7.76-6.893z" class="B C F"/><path d="M742 150.414c-4.102 0-7.93-4.922-7.93-4.922s3.828.957 7.93.957 7.93-.957 7.93-.957-3.828 4.922-7.93 4.922z" class="G"/><g class="B C F"><path d="M734.1 145.518c1.748 1.296 4.9 3.255 7.91 3.255s6.162-1.96 7.9-3.255c-.302.38-3.98 4.896-7.9 4.896s-7.606-4.516-7.91-4.896z"/><path d="M734.192 145.642c1.88.585 4.647 1.217 7.808 1.217s5.926-.632 7.808-1.217l.122-.15s-3.828.957-7.93.957-7.93-.957-7.93-.957l.122.15z"/></g><path d="M742 144.4c-1.64-1.915-4.648.273-7.93 1.093 0 0 3.828.957 7.93.957s7.93-.957 7.93-.957c-3.282-.82-6.29-3.008-7.93-1.093z" class="G"/><path d="M730.79 125.805c-6.29 0-6.29.957-6.29 5.468 0 5.606 3.59 6.29 6.7 6.29 6.186 0 7.254-2.343 8.613-5.058s3.015-2.715 4.376 0 2.427 5.058 8.613 5.058c3.108 0 6.7-.683 6.7-6.29 0-4.51 0-5.468-6.29-5.468-7.11 0-7.11 1.777-11.21 1.777s-4.102-1.777-11.21-1.777z" class="C"/><g class="D"><path d="M739.1 129.308l-11.473 6.4c-.332-.187-.638-.42-.907-.708l11.775-6.58c.332.257.546.55.605.876zm-.042 1.188c-.346 2.513-2.08 5.973-7.603 5.973-.862 0-1.766-.055-2.6-.27l10.203-5.702zm19.102-2.096l-11.14 6.225c.275.252.582.486.925.697l10.418-5.82c-.034-.433-.095-.796-.204-1.1zm.245 2.248l-9.358 5.23c.95.37 2.104.592 3.5.592 3.935 0 5.894-1.92 5.86-5.822z"/></g><g class="B"><path d="M609.345 79.2734c3.66-30.02 11.484-42.9296 42.656-42.9296s38.996 12.9106 42.656 42.9296C696.9 97.6605 697.528 107.71 652 107.71s-44.898-10.0505-42.656-28.4376z" class="K"/><path d="M608.746 92.228c1.334 10.098 9.93 15.482 43.254 15.482 45.527 0 44.898-10.0504 42.656-28.4375-1.162-9.5342-2.745-17.3425-5.362-23.5596 1.683 5.215 2.862 11.3184 3.72 18.3643 2.242 18.387 2.87 28.4378-42.656 28.4378-27.053 0-37.81-3.549-41.613-10.287h0z" class="C L"/></g><path d="M617 57.125C617 49.8762 622.876 44 630.125 44h43.75C681.124 44 687 49.8762 687 57.125v27.3438C687 100.778 673.778 114 657.47 114H646.53c-16.31 0-29.53-13.222-29.53-29.5312V57.125z" class="G"/><path d="M626.594 106.253c5.253 4.81 12.253 7.747 19.938 7.747h10.938c16.31 0 29.53-13.222 29.53-29.5313V57.125c0-4.6745-2.444-8.7782-6.124-11.1035 1.28 2.0264 2.022 4.4278 2.022 7.002v29.5312c0 15.1014-12.242 27.3434-27.344 27.3434h-15.312c-4.97 0-9.632-1.326-13.65-3.645z" fill-opacity=".2047" class="B C"/><path d="M650.42 65.0547c-.547-4.922-2.46-8.8867-4.375-12.0313 2.46 3.1446 15.312 13.5352 28.437 14.2188.76-3.0078 1.033-6.0156 0-10.1172 1.58 4.2383 8.082 13.5352 14.158 15.3125 2.325-10.9375 4.497-34.453-36.58-34.453s-38.752 22.9687-36.7 34.453c6.563-1.914 8.75-11.3477 6.897-15.8594 5.605 6.6992 17.51 8.4766 28.164 8.4766z" class="K"/><g class="B C"><path d="M644.337 51.326c1.592 2.7268 3.976 6.811 4.44 10.9944-10.652 0-22.285-1.7773-27.9-8.4765 1.41 4.394.364 14.0194-5.423 18.562 6.48-1.984 8.634-11.3403 6.8-15.8277 5.606 6.6992 17.512 8.4766 28.164 8.4766-.546-4.922-2.46-8.8867-4.375-12.0313 2.46 3.1446 15.313 13.5352 28.438 14.2188.76-3.0078 1.033-6.0156 0-10.1172 1.575 4.2252 8.04 13.4775 14.102 15.2958-6.574-5.38-13.917-15.6305-15.666-20.6278.957 3.9648 1.64 10.664.957 12.8515-13.125-.6836-27.83-11.4843-30.292-14.629l.754 1.3103z" class="L"/><path d="M652 101.422c6.973 0 10.938-4.6485 10.938-9.0235 0-4.6484-4.922-1.6406-10.938-1.6406s-10.938-3.0078-10.938 1.6406c0 4.375 3.965 9.0235 10.938 9.0235z" class="M"/></g><path d="M661.13 90.9186c-.68-.292-1.828-.0648-3.36.2382-1.555.3082-3.508.6945-5.77.6945s-4.214-.3863-5.77-.6945c-1.532-.303-2.68-.5302-3.36-.2382l.284 2.1326c.06.4552.3.8624.722 1.066 1.117.553 3.755 1.562 8.124 1.562s7.006-1.0092 8.123-1.562c.412-.2037.66-.611.722-1.066l.284-2.1326zm-.27 5.111c-1.502 2.5515-4.643 4.2983-8.86 4.2983s-7.36-1.7468-8.86-4.2983l.05-.795c.027-.4148.5-.6724.88-.5018 1.253.5636 3.927 1.4935 7.93 1.4935s6.676-.93 7.93-1.4935c.38-.1706.853.087.88.5018l.05.795z" class="B D"/><g class="C M"><path d="M642.43 83.6484c2.416 0 4.375-1.9586 4.375-4.375s-1.96-4.375-4.375-4.375-4.375 1.9587-4.375 4.375 1.958 4.375 4.375 4.375zm19.14 0c2.417 0 4.375-1.9586 4.375-4.375s-1.958-4.375-4.375-4.375-4.375 1.9587-4.375 4.375 1.96 4.375 4.375 4.375z"/></g><path d="M623.493 155.386c-.087-9.22 7.674-16.386 16.893-16.386h37.228c9.22 0 16.98 7.167 16.893 16.386C694.2 187.856 684.936 209 659 209s-35.2-21.144-35.507-53.614h0z" class="E"/><path d="M634.453 198.394C640.042 205.217 648.03 209 659 209c25.935 0 35.2-21.144 35.507-53.614.04-4.4-1.697-8.315-4.525-11.222.26.963.402 1.975.416 3.022.44 34.778-8.488 57.713-35.5 57.713-8.525 0-15.248-2.285-20.445-6.505z" class="B C F"/><path d="M634.936 146.246c17.773 22.422 46.347-20.37 59.062 17.774 22.422-47.305-88.047-51.407-69.726.957 1.367-13.536 10.664-4.24 10.664-18.73z" fill="#44e8ff"/><g class="C"><g class="B"><path d="M662.544 145.748c-10.513 3.058-21.272 6.187-29.25-3.877 0 9.93-2.333 10.836-4.777 11.785-1.862.723-3.788 1.47-4.794 6.262-.675-1.93-1.173-3.78-1.51-5.557.06 3.238.712 6.775 2.056 10.616.663-6.57 3.195-7.76 5.625-8.904 2.577-1.21 5.04-2.37 5.04-9.827 7.973 10.06 18.12 6.993 28.034 3.998 12.185-3.682 24.017-7.257 31.028 13.776 2.03-4.284 2.972-8.214 3.017-11.78-.476 2.257-1.286 4.634-2.47 7.13-6.555-21.023-19.092-17.377-32-13.623z" fill-opacity=".1277"/><path d="M667.07 185.976c-.56-.228-1.198.04-1.425.6-1.27 3.118-5.066 4.86-8.6 4.127-.59-.123-1.17.257-1.292.85s.258 1.17.85 1.293c4.386.907 9.34-1.18 11.078-5.444.228-.56-.04-1.198-.6-1.425z" fill-opacity=".25"/></g><path d="M657.632 172.247c-.077-3.184-3.465-3.852-7.655-3.852-4.238 0-9.78.093-8.94 3.828 1.507 6.7 3.148 8.34 8.94 8.34 5.252 0 7.084-3.476 7.535-6.534.865-.433 2.112-.433 2.977.001.45 3.057 2.283 6.533 7.534 6.533 5.792 0 7.432-1.64 8.94-8.34.84-3.735-4.7-3.828-8.94-3.828-4.19 0-7.577.668-7.654 3.853a5.646 5.646 0 0 0-2.737-.001z"/></g><g class="B D"><path d="M664.544 178.694a5.155 5.155 0 0 1-.962-.677l12.318-6.884c.052.407-.006.86-.102 1.272l-11.254 6.3zm10.913-4.94c-.613 2.242-1.257 3.553-2.1 4.357-1 .944-2.486 1.36-5.326 1.36-.872 0-1.625-.105-2.275-.3l9.7-5.427zm-18.964-.404l-10.197 5.7c.897.287 2.072.42 3.68.42 2.788 0 4.355-1.072 5.27-2.398.76-1.1 1.125-2.453 1.245-3.72zm-11.325 5.17l11.366-6.35c-.025-.447-.138-.783-.302-1.046l-11.9 6.65c.253.297.52.538.836.747z"/></g><path transform="matrix(-1 0 0 1 579 0)" fill="url(#A)" fill-opacity=".75" d="M0 0h50v268H0z"/><path fill="url(#B)" fill-opacity=".75" d="M201 0h50v268h-50z"/><path d="M244 12c0-6.6274 5.373-12 12-12h268c6.627 0 12 5.3726 12 12v244c0 6.627-5.373 12-12 12H256c-6.627 0-12-5.373-12-12V12z" class="C"/><path d="M244 24h292V12c0-6.6274-5.373-12-12-12H256c-6.627 0-12 5.3726-12 12v12z" fill="#282828"/><rect x="268" y="44" width="180" height="12" rx="6" class="E"/><rect x="460" y="44" width="20" height="12" rx="6" class="D"/><rect x="288" y="68" width="30" height="12" rx="6" class="K"/><rect x="330" y="68" width="50" height="12" rx="6" class="H"/><rect x="308" y="92" width="30" height="12" rx="6" class="E"/><rect x="348" y="92" width="100" height="12" rx="6" fill="#ff8f57"/><rect x="308" y="116" width="40" height="12" rx="6" class="E"/><rect x="360" y="116" width="30" height="12" rx="6" class="H"/><rect x="328" y="140" width="40" height="12" rx="6" class="K"/><rect x="380" y="140" width="60" height="12" rx="6" class="H"/><rect x="452" y="140" width="60" height="12" rx="6" class="E"/><g class="D"><rect x="308" y="164" width="20" height="12" rx="6"/><rect x="402" y="116" width="20" height="12" rx="6"/></g><rect x="308" y="188" width="40" height="12" rx="6" class="E"/><rect x="360" y="188" width="30" height="12" rx="6" class="H"/><rect x="402" y="188" width="60" height="12" rx="6" class="J"/><rect x="474" y="188" width="30" height="12" rx="6" class="H"/><rect x="288" y="212" width="50" height="12" rx="6" class="G"/><rect x="268" y="236" width="20" height="12" rx="6" class="D"/><circle cx="259" cy="12" r="5" fill="#ff6d60"/><circle cx="274" cy="12" r="5" fill="#ffcd4b"/><circle cx="289" cy="12" r="5" class="J"/></g><defs><linearGradient id="A" x1="37.0833" y1="134" x2="0" y2="134" gradientUnits="userSpaceOnUse"><stop stop-color="#fff"/><stop offset="1" stop-color="#fff" stop-opacity="0"/></linearGradient><linearGradient id="B" x1="238.083" y1="134" x2="201" y2="134" gradientUnits="userSpaceOnUse"><stop stop-color="#fff"/><stop offset="1" stop-color="#fff" stop-opacity="0"/></linearGradient><clipPath id="C"><path d="M0 0h780v268H0z" class="D"/></clipPath><path id="D" d="M560.25 200.828c1.812 0 3.28-1.47 3.28-3.28s-1.47-3.28-3.28-3.28-3.28 1.47-3.28 3.28 1.47 3.28 3.28 3.28z"/></defs></svg>