<svg xmlns="http://www.w3.org/2000/svg" width="347" height="199" fill="none" xmlns:v="https://vecta.io/nano"><path d="M6.8223 90.0186l.108 1.328c.3265-.465.7277-.8273 1.2036-1.0874.476-.2656 1.0072-.4012 1.5938-.4068.4704 0 .8965.0664 1.2784.1993.3873.1328.7166.3403.9878.6225s.4786.642.6225 1.079c.1494.4317.224.9463.224 1.544V99h-1.5356v-5.6694c0-.3985-.0443-.736-.1328-1.0127s-.2214-.5008-.3985-.6724c-.1715-.1715-.3846-.296-.639-.3735-.249-.0775-.5368-.1162-.8633-.1162-.5147 0-.9684.13-1.3613.39-.3874.2546-.6973.592-.9297 1.0127V99H5.4443v-8.9814h1.378zM21.5562 99c-.061-.1162-.1107-.26-.1495-.4316l-.0747-.548c-.155.155-.3292.3016-.523.44-.1882.1384-.3985.26-.631.3653-.227.105-.4704.188-.7304.25s-.5368.0913-.83.0913c-.476 0-.9076-.0692-1.295-.2075-.382-.1384-.7084-.3237-.9795-.5562a2.571 2.571 0 0 1-.6226-.8383c-.144-.3265-.2158-.678-.2158-1.0542 0-.4925.0968-.9242.2905-1.295.1992-.3707.4787-.678.8384-.9213.3597-.249.7913-.4345 1.295-.5562.509-.1217 1.0763-.1826 1.7017-.1826h1.6767v-.7056c0-.271-.0498-.5146-.1494-.7304s-.2407-.3985-.4233-.548c-.1826-.155-.4068-.274-.6724-.357-.26-.083-.5534-.1245-.88-.1245-.3043 0-.5783.0387-.8217.1162-.238.0774-.44.1798-.606.307s-.296.2795-.39.4565c-.0886.1716-.133.3514-.133.5396h-1.544c.0055-.3265.0885-.6475.25-.963.166-.3154.4012-.5977.7056-.8467.31-.2545.6834-.4593 1.1206-.6142.4427-.155.9435-.2325 1.5024-.2325.5092 0 .9823.0637 1.4195.19.437.1217.8134.31 1.129.5644.321.25.5727.5617.7553.938s.274.8162.274 1.3198V97.04c0 .2988.0276.617.083.9546.0553.332.1328.6226.2324.8716V99h-1.602zm-2.7144-1.1704c.2988 0 .5783-.0387.8384-.1162s.4953-.18.7055-.3072c.216-.1272.4012-.271.5562-.4316.155-.166.2767-.3376.3652-.5146v-1.818h-1.4277c-.8965 0-1.5938.1328-2.0918.3984s-.747.6835-.747 1.2534c0 .2214.036.4262.108.6143a1.371 1.371 0 0 0 .3404.4897c.1494.133.3375.238.5644.3155s.4898.1162.7886.1162zm8.4004-7.81l.108 1.328c.3265-.465.7277-.8273 1.2036-1.0874.476-.2656 1.0072-.4012 1.5938-.4068.4703 0 .8964.0664 1.2783.1993.3874.1328.7166.3403.9878.6225s.4787.642.6225 1.079c.1494.4317.2242.9463.2242 1.544V99h-1.5357v-5.6694c0-.3985-.0443-.736-.1328-1.0127s-.2214-.5008-.3984-.6724c-.1716-.1715-.3846-.296-.6392-.3735-.25-.0775-.5368-.1162-.8633-.1162-.5146 0-.9684.13-1.3613.39-.3874.2546-.6973.592-.9297 1.0127V99h-1.5356v-8.9814h1.378zm8.4004 4.4077c0-.6475.094-1.248.2822-1.8013.1882-.559.4565-1.043.8052-1.4526.354-.4095.783-.7305 1.2866-.963.5036-.238 1.0708-.357 1.7017-.357.6364 0 1.2063.12 1.71.357.509.2324.938.5534 1.2866.963.3542.4095.6254.8937.8135 1.4526.1882.5534.2822 1.1538.2822 1.8013v.1826c0 .6474-.094 1.248-.2822 1.8013s-.4593 1.0348-.8135 1.4443c-.3486.4095-.7747.7305-1.2783.963s-1.0708.3486-1.7016.3486c-.6364 0-1.2092-.1162-1.7183-.3486-.5036-.2324-.9325-.5534-1.2866-.963-.3487-.4095-.617-.89-.8052-1.4443s-.2822-1.154-.2822-1.8013v-.1826zm1.5356.1826c0 .4427.0526.866.1577 1.27.1052.3984.263.7498.4732 1.0542.2158.3044.4842.545.8052.7222s.6945.2656 1.1206.2656c.4205 0 .7885-.0885 1.104-.2656a2.317 2.317 0 0 0 .7968-.7222c.216-.3044.3763-.6558.4815-1.0542.105-.404.1577-.8273.1577-1.27v-.1826c0-.4372-.0553-.855-.166-1.2534-.1052-.404-.2656-.7582-.4815-1.0625a2.317 2.317 0 0 0-.7968-.7222c-.3155-.1826-.6862-.274-1.1123-.274s-.797.0913-1.1123.274c-.3155.177-.581.4178-.797.7222-.2103.3043-.368.6585-.4732 1.0625-.105.3984-.1577.8162-.1577 1.2534v.1826zm16.56 5.644h-7.6118V99h7.6118v1.253zM61.4746 99H59.94V88.873l-3.1626 1.2037v-1.403L61.35 86.914h.1245V99zm6.6074-8.9814l.108 1.328c.3265-.465.7277-.8273 1.2037-1.0874.476-.2656 1.007-.4012 1.5937-.4068.4704 0 .8965.0664 1.2783.1993.3874.1328.7167.3403.9878.6225s.4787.642.6226 1.079c.1494.4317.224.9463.224 1.544V99h-1.5356v-5.6694c0-.3985-.0443-.736-.133-1.0127s-.2213-.5008-.3984-.6724c-.1715-.1715-.3846-.296-.6392-.3735-.25-.0775-.5367-.1162-.8632-.1162-.5147 0-.9685.13-1.3614.39-.3873.2546-.6972.592-.9297 1.0127V99H66.704v-8.9814h1.378zM82.816 99c-.061-.1162-.1107-.26-.1494-.4316l-.0747-.548c-.155.155-.3293.3016-.523.44-.188.1384-.3984.26-.6308.3653-.227.105-.4704.188-.7305.25s-.5368.0913-.83.0913c-.476 0-.9075-.0692-1.295-.2075-.3818-.1384-.7083-.3237-.9795-.5562a2.572 2.572 0 0 1-.6225-.8383c-.144-.3265-.216-.678-.216-1.0542 0-.4925.097-.9242.2906-1.295.1992-.3707.4787-.678.8384-.9213.3597-.249.7913-.4345 1.295-.5562.509-.1217 1.0763-.1826 1.7016-.1826h1.6768v-.7056c0-.271-.0498-.5146-.1494-.7304s-.2407-.3985-.4234-.548c-.1826-.155-.4067-.274-.6723-.357-.26-.083-.5534-.1245-.88-.1245-.3044 0-.5783.0387-.8218.1162-.238.0774-.44.1798-.606.307s-.296.2795-.3902.4565c-.0885.1716-.1328.3514-.1328.5396h-1.544c.0055-.3265.0885-.6475.25-.963.166-.3154.4012-.5977.7056-.8467.31-.2545.6834-.4593 1.1206-.6142.4427-.155.9435-.2325 1.5024-.2325.509 0 .9823.0637 1.4194.19.4372.1217.8135.31 1.129.5644.32.25.5728.5617.7554.938s.274.8162.274 1.3198V97.04c0 .2988.0277.617.083.9546.0554.332.133.6226.2325.8716V99h-1.602zm-2.7143-1.1704c.2988 0 .5783-.0387.8383-.1162s.4953-.18.7056-.3072c.2158-.1272.4012-.271.5562-.4316.155-.166.2767-.3376.3652-.5146v-1.818h-1.4277c-.8965 0-1.5938.1328-2.0918.3984s-.747.6835-.747 1.2534c0 .2214.036.4262.108.6143.0775.1882.191.3514.3403.4897.1494.133.3376.238.5645.3155s.4897.1162.7886.1162zm10.6582-9.9858v2.1748h3.42v1.187h-3.42v4.8808c0 .3487.0442.6364.1328.8633s.2103.4095.3652.548a1.37 1.37 0 0 0 .5313.2822c.2047.0553.4205.083.6474.083l.5147-.025.5146-.0747.4732-.083.3652-.083.2158 1.0874c-.1273.0774-.2822.1466-.4648.2075-.1826.0553-.382.1024-.5977.141-.2158.0443-.4455.0775-.689.0996l-.714.0332c-.3985 0-.772-.0553-1.1206-.166-.343-.1162-.642-.296-.8965-.5396-.2546-.25-.4565-.5672-.606-.9545-.1438-.393-.2158-.866-.2158-1.4195v-4.8808h-2.3574v-1.187h2.3574v-2.1748h1.544zm12.4592 2.0087l.448.0166c.155.0056.302.0194.44.0415.144.0166.274.0388.39.0665s.22.058.298.0913l-.207 1.5024c-.3-.0664-.584-.1134-.855-.141-.266-.0332-.545-.0498-.838-.0498-.72 0-1.304.1632-1.752.4897s-.77.783-.98 1.3697V99h-1.5444v-8.9814h1.4614l.074 1.4277c.365-.4925.803-.88 1.312-1.162.514-.2878 1.098-.4317 1.75-.4317zm4.566.166h4.6v7.6533h2.93V99h-7.52v-1.328h3.054v-6.317h-3.054v-1.3364zm2.855-2.3575c0-.2545.075-.4676.224-.639.155-.177.388-.2657.698-.2657.304 0 .534.0886.688.2657.155.1715.233.3846.233.639 0 .249-.078.4566-.233.6226s-.384.25-.688.25c-.3 0-.543-.083-.698-.25-.15-.166-.224-.3735-.224-.6226zm12.94 10.102c-.3.4427-.672.7886-1.12 1.0376-.448.2435-.965.3652-1.552.3652-.47 0-.896-.072-1.278-.2158a2.495 2.495 0 0 1-.98-.689c-.27-.31-.48-.7028-.63-1.1787-.144-.4814-.216-1.057-.216-1.7265v-5.3374h1.535v5.354c0 .487.04.891.117 1.212s.193.5783.348.772c.155.1882.343.32.565.3985.227.0775.487.1162.78.1162.625 0 1.13-.1273 1.51-.3818.387-.2546.675-.5977.863-1.0293v-6.4414h1.544V99h-1.395l-.09-1.2368zm5.088-7.7446l.042.8466c.183-.3154.42-.5617.714-.7387.3-.177.658-.2684 1.08-.274.824 0 1.375.32 1.652.963.177-.2877.41-.5174.697-.689.293-.177.647-.2684 1.063-.274.658 0 1.164.202 1.52.606s.53 1.0155.53 1.8345V99h-1.46v-6.7236c0-.7526-.346-1.1262-1.038-1.1206-.182 0-.34.025-.473.0747s-.243.119-.332.2075c-.088.083-.158.1826-.207.2988a1.268 1.268 0 0 0-.1.3486V99h-1.46v-6.732c0-.3597-.08-.6364-.24-.83s-.415-.2878-.763-.2822c-.32 0-.57.0636-.747.191s-.308.296-.39.5063V99h-1.46v-8.9814h1.377zM143.154 99h-1.535V88.873l-3.163 1.2037v-1.403l4.574-1.7597h.124V99zm4.798-4.5737c0-.6475.094-1.248.282-1.8013.19-.559.457-1.043.806-1.4526.354-.4095.783-.7305 1.286-.963.504-.238 1.07-.357 1.702-.357s1.206.12 1.7.357c.51.2324.938.5534 1.286.963.355.4095.626.8937.814 1.4526.188.5534.282 1.1538.282 1.8013v.1826c0 .6474-.094 1.248-.282 1.8013s-.46 1.0348-.814 1.4443c-.348.4095-.774.7305-1.278.963s-1.07.3486-1.702.3486c-.636 0-1.21-.1162-1.718-.3486-.503-.2324-.932-.5534-1.286-.963-.35-.4095-.617-.89-.806-1.4443s-.282-1.154-.282-1.8013v-.1826zm1.536.1826c0 .4427.052.866.158 1.27.105.3984.262.7498.473 1.0542a2.386 2.386 0 0 0 .805.7222c.32.177.694.2656 1.12.2656.42 0 .79-.0885 1.104-.2656a2.315 2.315 0 0 0 .797-.7222c.216-.3044.377-.6558.482-1.0542.105-.404.157-.8273.157-1.27v-.1826c0-.4372-.055-.855-.166-1.2534-.105-.404-.265-.7582-.48-1.0625a2.315 2.315 0 0 0-.797-.7222c-.315-.1826-.686-.274-1.112-.274s-.797.0913-1.112.274c-.316.177-.582.4178-.797.7222s-.368.6585-.473 1.0625c-.106.3984-.158.8162-.158 1.2534v.1826zm10.9-2.3906h1.095c.388 0 .728-.0526 1.02-.1578.3-.105.548-.25.747-.4316.205-.1826.36-.4012.465-.6558s.158-.534.158-.8383c0-.7028-.18-1.2313-.54-1.5855-.36-.3597-.885-.5395-1.577-.5395-.326 0-.625.0498-.896.1494-.266.094-.495.2324-.69.415-.188.1826-.335.4012-.44.6558s-.158.5395-.158.855h-1.544c0-.4593.09-.89.266-1.295.183-.4095.437-.7636.764-1.0625.326-.3043.716-.5423 1.17-.7138.46-.177.968-.2657 1.527-.2657.543 0 1.038.0748 1.486.2242.448.1438.833.3597 1.154.6474s.57.6447.747 1.0708.266.9186.266 1.4776c0 .2324-.036.473-.108.722s-.183.4925-.332.7305c-.15.2324-.343.4538-.58.664-.233.2047-.512.3763-.84.5146.393.1273.72.2933.98.498.265.2047.476.4344.63.689s.27.523.332.8052c.066.2822.1.5617.1.8384 0 .5644-.097 1.0652-.3 1.5024s-.462.808-.805 1.1123c-.343.299-.75.5285-1.22.69-.464.155-.968.2324-1.5.2324-.532 0-1.032-.0747-1.503-.224-.465-.1494-.87-.368-1.212-.6558s-.617-.639-.82-1.0542-.3-.888-.3-1.4194h1.535c0 .3154.053.6032.158.8633.11.26.266.4814.465.664s.44.3238.722.4234c.288.0996.606.1494.955.1494s.664-.0443.946-.1328c.282-.094.523-.2352.722-.4234s.352-.4205.457-.6972c.1-.2822.166-.6143.166-.996 0-.3763-.064-.7-.19-.9712-.122-.2767-.296-.5064-.523-.69s-.493-.3182-.814-.4067c-.315-.0886-.664-.1328-1.046-.1328h-1.095v-1.245zm10.26 5.5283h5.72V99h-7.678v-1.129l5.362-6.5825h-5.288v-1.27h7.305v1.0874l-5.42 6.6406zm8.916-4.8062l.605-6.0263h6.2v1.494h-4.906l-.34 3.2207c.238-.1383.523-.26.855-.3652s.717-.1577 1.154-.1577c.56 0 1.06.0968 1.502.2905s.82.4676 1.13.8218c.3.3486.548.772.714 1.27s.25 1.0514.25 1.66c0 .5756-.077 1.1096-.232 1.602s-.4.9186-.706 1.2783c-.3.3542-.703.6336-1.18.8384-.476.1992-1.034.2988-1.676.2988-.493 0-.958-.0692-1.395-.2075s-.827-.346-1.17-.6226c-.338-.2767-.617-.6253-.84-1.046-.216-.4205-.35-.9103-.406-1.4692h1.46c.094.6862.345 1.2064.755 1.5605s.946.5313 1.594.5313c.365 0 .69-.0636.97-.191.282-.1328.517-.3182.705-.5562.194-.2435.338-.534.432-.8716.1-.3375.15-.7138.15-1.129 0-.3763-.055-.7277-.166-1.0542-.105-.3265-.26-.6087-.464-.8466-.205-.2435-.457-.4344-.756-.5728s-.642-.2075-1.03-.2075c-.255 0-.476.0194-.664.058-.183.0332-.35.083-.498.1494a2.452 2.452 0 0 0-.424.2407l-.398.3238-1.228-.3155zm10.21 0l.606-6.0263h6.2v1.494h-4.906l-.34 3.2207c.238-.1383.523-.26.855-.3652s.717-.1577 1.154-.1577c.56 0 1.06.0968 1.502.2905s.82.4676 1.13.8218c.3.3486.548.772.714 1.27s.25 1.0514.25 1.66c0 .5756-.077 1.1096-.232 1.602s-.39.9186-.706 1.2783c-.3.3542-.703.6336-1.18.8384-.476.1992-1.034.2988-1.676.2988-.493 0-.958-.0692-1.395-.2075s-.827-.346-1.17-.6226-.617-.6253-.84-1.046c-.216-.4205-.35-.9103-.406-1.4692h1.46c.095.6862.346 1.2064.756 1.5605s.946.5313 1.594.5313c.365 0 .69-.0636.97-.191.282-.1328.517-.3182.705-.5562.194-.2435.338-.534.432-.8716.1-.3375.15-.7138.15-1.129 0-.3763-.055-.7277-.166-1.0542-.105-.3265-.26-.6087-.464-.8466-.205-.2435-.457-.4344-.756-.5728s-.642-.2075-1.03-.2075c-.255 0-.476.0194-.664.058-.183.0332-.35.083-.498.1494a2.452 2.452 0 0 0-.424.2407l-.398.3238-1.23-.3155zM204.414 99h-1.536V88.873l-3.162 1.2037v-1.403l4.574-1.7597h.124V99zm6.88-1.3613c.548 0 1.03-.047 1.445-.141.415-.0997.774-.238 1.08-.415.3-.177.567-.3846.772-.6225a3.303 3.303 0 0 0 .498-.7969c.133-.2933.23-.6004.3-.9214.06-.3265.1-.6585.117-.996a3.657 3.657 0 0 1-.457.4732c-.17.1438-.365.271-.58.3818s-.457.1992-.722.2656c-.26.061-.545.0913-.855.0913-.598 0-1.115-.1162-1.552-.3486-.432-.238-.79-.548-1.07-.9297s-.5-.8135-.623-1.295-.2-.9657-.2-1.4527c0-.57.078-1.1067.232-1.6103.16-.509.396-.9518.706-1.328.315-.382.706-.6835 1.17-.9048.47-.227 1.016-.3404 1.636-.3404.465 0 .882.0665 1.253.1993.376.1272.706.307.988.5395.288.227.534.498.74.8135.204.31.37.6475.498 1.0127.133.3597.23.7388.3 1.1372.06.393.092.7886.092 1.187v.5562l-.075 1.5854c-.05.5368-.15 1.057-.3 1.5606a6.08 6.08 0 0 1-.614 1.4277c-.266.4427-.612.83-1.038 1.162s-.943.595-1.552.7886-1.33.2905-2.167.2905h-.157v-1.3696h.157zm1.835-3.9512c.26 0 .512-.0415.755-.1245.25-.0886.476-.2103.68-.3652.2-.1605.396-.346.556-.5562.166-.2158.296-.4538.4-.714v-.498c0-.5368-.063-1.0155-.19-1.436-.12-.4206-.3-.7748-.506-1.0625-.2-.2933-.457-.5175-.74-.6724-.277-.155-.573-.2324-.888-.2324-.36 0-.678.072-.955.2158s-.51.343-.705.5976c-.188.249-.332.548-.432.8965-.1.343-.15.714-.15 1.1123a4.148 4.148 0 0 0 .133 1.0459c.088.3376.22.6392.398.9048.183.2656.4.4815.68.6475.276.1605.6.2407.97.2407zm6.964-3.669h4.59v7.6533h2.93V99h-7.52v-1.328h3.055v-6.317h-3.055v-1.3364zm2.856-2.3575c0-.2545.074-.4676.224-.639.155-.177.387-.2657.697-.2657.304 0 .534.0886.69.2657.155.1715.232.3846.232.639 0 .249-.077.4566-.232.6226s-.385.25-.69.25c-.3 0-.542-.083-.697-.25s-.224-.3735-.224-.6226zM232.354 99v-7.7944h-2.473v-1.187h2.473v-.631c0-.5755.084-1.079.25-1.5107.17-.4372.41-.8025.713-1.0958.3-.2932.68-.5146 1.113-.664s.913-.224 1.444-.224c.365 0 .72.0304 1.063.0913l1.07.2324-.182 1.27c-.227-.0775-.493-.144-.797-.1992-.3-.061-.62-.0913-.963-.0913-.72.0055-1.262.188-1.627.5478-.36.3597-.54.9076-.54 1.6436v.631h3.462v1.187h-3.462V99h-1.544zm7.488-4.5737c0-.6475.094-1.248.282-1.8013.188-.559.457-1.043.805-1.4526.354-.4095.783-.7305 1.287-.963.503-.238 1.07-.357 1.7-.357.637 0 1.207.12 1.7.357.5.2324.938.5534 1.287.963.354.4095.625.8937.814 1.4526.188.5534.282 1.1538.282 1.8013v.1826c0 .6474-.094 1.248-.282 1.8013s-.46 1.0348-.814 1.4443c-.35.4095-.775.7305-1.278.963s-1.07.3486-1.702.3486-1.21-.1162-1.718-.3486-.933-.5534-1.287-.963c-.348-.4095-.617-.89-.805-1.4443s-.282-1.154-.282-1.8013v-.1826zm1.535.1826c0 .4427.053.866.158 1.27.105.3984.263.7498.473 1.0542.216.3044.485.545.805.7222s.695.2656 1.12.2656.79-.0885 1.104-.2656a2.315 2.315 0 0 0 .797-.7222c.216-.3044.376-.6558.48-1.0542.106-.404.158-.8273.158-1.27v-.1826c0-.4372-.055-.855-.166-1.2534-.105-.404-.266-.7582-.48-1.0625s-.476-.545-.797-.7222c-.316-.1826-.686-.274-1.113-.274s-.796.0913-1.112.274c-.315.177-.58.4178-.797.7222-.2.3043-.368.6585-.473 1.0625-.105.3984-.158.8162-.158 1.2534v.1826zm14.934 3.1543c-.3.4427-.673.7886-1.12 1.0376-.448.2435-.966.3652-1.552.3652-.47 0-.897-.072-1.28-.2158-.38-.1494-.708-.379-.98-.69s-.482-.7028-.63-1.1787c-.144-.4814-.216-1.057-.216-1.7265v-5.3374h1.536v5.354c0 .487.04.891.116 1.212s.194.5783.35.772c.155.1882.343.32.564.3985.227.0775.487.1162.78.1162.626 0 1.13-.1273 1.51-.3818.388-.2546.675-.5977.863-1.0293v-6.4414h1.544V99h-1.394l-.09-1.2368zm12.036-9.986L263.34 99h-1.6l4.99-10.7412h-6.54V86.914h8.168v.8632zm6.267 5.57l2.4-3.3286h1.8l-3.345 4.441L278.905 99h-1.776l-2.482-3.42-2.482 3.42h-1.793l3.437-4.5405-3.346-4.441h1.777l2.374 3.3286zm6.74-3.3286h4.6v7.6533h2.93V99h-7.52v-1.328h3.055v-6.317h-3.055v-1.3364zm2.855-2.3575c0-.2545.075-.4676.225-.639.155-.177.387-.2657.697-.2657.304 0 .534.0886.69.2657.155.1715.232.3846.232.639 0 .249-.077.4566-.232.6226s-.385.25-.69.25c-.3 0-.542-.083-.697-.25s-.225-.3735-.225-.6226zm7.355 2.3575h4.6v7.6533h2.93V99h-7.52v-1.328h3.055v-6.317h-3.055v-1.3364zm2.855-2.3575c0-.2545.075-.4676.225-.639.155-.177.387-.2657.697-.2657.304 0 .534.0886.69.2657.155.1715.232.3846.232.639 0 .249-.077.4566-.232.6226s-.385.25-.69.25c-.3 0-.542-.083-.697-.25s-.225-.3735-.225-.6226zm14.552 2.4073c-.006.603-.17 1.14-.5 1.6103s-.75.8384-1.287 1.104c.3.1328.6.2988.84.498.254.1936.47.4178.647.6723.183.2546.32.5313.415.83.1.2988.15.617.15.9546 0 .5478-.103 1.0348-.307 1.461s-.474.7858-.822 1.079c-.343.2878-.747.509-1.212.664-.465.1494-.963.224-1.494.224-.543 0-1.05-.0747-1.52-.224s-.872-.368-1.22-.6558c-.343-.2933-.614-.653-.813-1.079s-.3-.9158-.3-1.4692c0-.3376.047-.6558.14-.9546.094-.3044.23-.581.407-.83.177-.2545.4-.4814.64-.6806s.53-.3653.838-.498c-.265-.1328-.506-.2905-.722-.473-.215-.1882-.398-.3957-.548-.6226-.15-.2324-.265-.4842-.348-.7554s-.125-.556-.125-.855c0-.5258.09-.9934.266-1.403.177-.415.42-.7636.73-1.046.316-.2822.69-.498 1.12-.6474s.913-.2242 1.428-.2242c.51 0 .982.0748 1.42.2242s.816.3652 1.137.6474.573.631.756 1.046c.182.4095.274.877.274 1.403zm-1.262 5.6362c0-.3376-.058-.6475-.174-.9297s-.27-.523-.473-.7222c-.205-.2047-.45-.3624-.74-.473-.282-.1107-.592-.166-.93-.166-.35 0-.664.0553-.946.166s-.523.2684-.722.473c-.2.1993-.355.44-.465.7222s-.158.592-.158.9297c0 .3486.053.6613.158.938.1.271.265.5008.465.689s.44.332.722.4317c.288.0996.61.1494.963.1494.337 0 .647-.0498.93-.1494s.523-.2435.723-.4317.362-.4178.473-.689c.116-.2767.174-.5894.174-.938zm-.282-5.6113c0-.3044-.053-.584-.158-.8384s-.24-.4732-.423-.6558c-.177-.188-.4-.332-.64-.4316-.25-.1052-.523-.1577-.822-.1577s-.57.0498-.814.1494c-.243.094-.453.2324-.63.415s-.315.404-.415.664c-.094.2545-.14.5395-.14.855s.047.6004.14.855c.1.249.238.465.415.6475.183.177.396.3154.64.415.25.094.523.1412.82.1412s.565-.047.814-.1412c.25-.0996.462-.238.64-.415.183-.1826.324-.4012.423-.6558s.15-.5367.15-.8466zm8.143 7.8276a2.48 2.48 0 0 0 .805-.1328c.266-.0886.5-.2103.706-.3652.204-.1605.368-.346.49-.5562.128-.2158.194-.4482.2-.6973h1.452c-.005.3985-.11.7803-.315 1.1455-.2.3597-.468.678-.805.9546-.338.2712-.725.4898-1.163.6558-.437.1605-.893.2407-1.37.2407-.68 0-1.276-.1217-1.785-.3652s-.935-.57-1.278-.9795c-.338-.415-.592-.89-.764-1.4277-.17-.5424-.257-1.1124-.257-1.7v-.3486c0-.5922.086-1.1594.257-1.7017s.426-1.0182.764-1.4277c.343-.415.77-.7443 1.278-.9878s1.104-.3653 1.785-.3653c.53 0 1.018.0858 1.46.2574.448.166.833.3956 1.154.689a3.048 3.048 0 0 1 .763 1.0293c.183.3985.274.8246.274 1.2783h-1.452c-.006-.271-.067-.5257-.183-.7636-.11-.2435-.263-.4566-.457-.6392s-.426-.3265-.697-.4316-.553-.1577-.863-.1577c-.476 0-.877.0968-1.204.2905-.32.188-.58.4372-.78.747-.2.3043-.343.6474-.432 1.0293-.083.3818-.124.7664-.124 1.1538v.3486a5.571 5.571 0 0 0 .124 1.1704c.09.3818.23.7277.424 1.0376.2.3044.46.5534.78.747.326.188.73.2822 1.212.2822zm12.268-8.0684l.45.0166c.155.0056.3.0194.44.0415.143.0166.273.0388.4.0665s.22.058.3.0913l-.208 1.5024c-.3-.0664-.584-.1134-.855-.141-.266-.0332-.545-.0498-.838-.0498-.72 0-1.304.1632-1.752.4897-.443.3265-.77.783-.98 1.3697V99h-1.544v-8.9814h1.46l.074 1.4277c.366-.4925.803-.88 1.312-1.162.515-.2878 1.098-.4317 1.75-.4317zm11.904 4.7564c0 .642-.078 1.2423-.233 1.8013-.155.5533-.382 1.0348-.68 1.4443s-.67.7305-1.113.963c-.437.2324-.938.3486-1.502.3486-.548 0-1.032-.0885-1.453-.2656a3.016 3.016 0 0 1-1.071-.7637v4.3163h-1.535V90.0186h1.403l.074.9794c.3-.3707.66-.653 1.08-.8466.427-.1993.92-.299 1.478-.299.575 0 1.085.1135 1.527.3404a3.16 3.16 0 0 1 1.113.9463c.298.404.525.888.68 1.4526.155.559.233 1.1732.233 1.8428v.1743zm-1.536-.1743c0-.4372-.05-.8522-.15-1.245-.094-.3985-.244-.747-.45-1.046-.2-.3044-.453-.545-.763-.7222s-.68-.2656-1.113-.2656c-.492 0-.907.1162-1.245.3486-.332.227-.597.5202-.797.88V96.71c.2.3542.465.6447.797.8716.332.2213.753.332 1.262.332.426 0 .794-.0885 1.104-.2656.3-.1826.564-.426.764-.7305s.346-.6558.44-1.0542.15-.8162.15-1.2534v-.1743zM9.1548 115.347l2.399-3.328h1.8013l-3.3452 4.44 3.4365 4.54H11.67l-2.482-3.42L6.706 121H4.913l3.4365-4.54-3.3452-4.44h1.7764l2.374 3.328zm14.078 1.262c0 .642-.0775 1.242-.2324 1.8s-.3818 1.035-.6807 1.444-.6696.73-1.1123.963c-.4372.233-.938.35-1.5024.35-.548 0-1.032-.09-1.4527-.266-.415-.177-.772-.43-1.0708-.763v4.316H15.646V112.02h1.4028l.0747.98c.299-.37.6586-.653 1.079-.847.426-.2.9187-.298 1.4776-.298.5755 0 1.0846.113 1.5273.34s.8135.542 1.1123.946.5257.888.6807 1.453c.155.56.2324 1.173.2324 1.843v.174zm-1.5356-.174c0-.438-.0498-.853-.1494-1.246-.094-.398-.2435-.747-.4483-1.045-.1992-.305-.4538-.546-.7637-.723s-.6806-.265-1.1123-.265c-.4925 0-.9075.116-1.245.348-.332.227-.5976.52-.797.88v4.325c.1993.354.465.645.797.872.332.22.7526.332 1.2617.332.426 0 .794-.09 1.104-.266.31-.183.5645-.426.7637-.73s.346-.656.44-1.055c.0996-.398.1494-.816.1494-1.253v-.174zm6.8564.373l-1.129 1.088V121h-1.544v-12.75h1.544v7.803l1.0044-1.08 2.9468-2.955h1.8677l-3.6358 3.743 4.192 5.238H31.849l-3.2954-4.192zm14.958-4.74c-.0055.604-.1688 1.14-.4897 1.61s-.75.838-1.2866 1.104c.3098.133.5893.3.8383.498.2546.193.4704.418.6475.672a2.92 2.92 0 0 1 .415.83c.0996.3.1494.617.1494.955 0 .548-.1023 1.035-.307 1.46-.1992.426-.473.786-.8218 1.08-.343.288-.747.51-1.212.664-.4648.15-.963.224-1.494.224-.5423 0-1.0487-.075-1.519-.224-.4648-.15-.8715-.368-1.2202-.656-.343-.293-.6142-.653-.8135-1.08s-.2988-.916-.2988-1.47c0-.338.047-.656.141-.955.094-.304.2297-.58.4068-.83.177-.254.39-.48.639-.68s.5285-.365.8384-.498a3.567 3.567 0 0 1-.7222-.473c-.2158-.188-.3984-.395-.5478-.622-.1494-.233-.2656-.485-.3486-.756s-.1246-.556-.1246-.855c0-.525.0886-.993.2657-1.402.177-.416.4205-.764.7304-1.046.3155-.283.69-.498 1.1206-.648.4372-.15.913-.224 1.4278-.224.509 0 .9822.075 1.4194.224s.8163.365 1.1372.648.5728.63.7554 1.046c.1826.41.274.877.274 1.402zm-1.2617 5.637c0-.338-.058-.648-.1743-.93-.1107-.282-.2684-.523-.4732-.722-.2047-.205-.45-.363-.7387-.473-.2823-.11-.5922-.166-.9297-.166-.3487 0-.664.055-.9463.166s-.523.268-.7222.473c-.1992.2-.354.44-.4648.722-.1052.282-.1577.592-.1577.93 0 .348.0525.66.1577.938.1107.27.2656.5.4648.69s.44.332.7222.43c.2878.1.6087.15.963.15.3375 0 .6474-.05.9297-.15s.523-.243.722-.43c.2048-.19.3625-.418.4732-.69.1162-.277.1743-.6.1743-.938zm-.2822-5.612c0-.304-.0526-.584-.1577-.838-.0997-.255-.2408-.473-.4234-.656-.177-.188-.39-.332-.639-.432-.249-.105-.523-.157-.8218-.157s-.57.05-.8135.15c-.2435.094-.4538.233-.631.415s-.3154.404-.415.664c-.094.255-.141.54-.141.855s.047.6.141.855c.0996.25.238.465.415.648.1827.177.3957.315.6392.415.25.094.523.14.8218.14.2933 0 .5644-.047.8135-.14.25-.1.462-.238.639-.415.1826-.183.3238-.402.4234-.656s.1494-.537.1494-.847zm7.62 5.72l.3984 1.088 2.7393-6.88h1.7182l-4.557 10.367c-.105.233-.2407.48-.4067.74-.1605.26-.357.5-.5894.722s-.5036.407-.8135.556-.6668.224-1.0708.224c-.072 0-.152-.005-.2407-.016a2.408 2.408 0 0 1-.2656-.033l-.25-.042-.191-.04.25-1.254c.0387 0 .0913.003.1577.01l.2075.016.2075.008.1578.01c.2102 0 .4012-.058.5727-.175.177-.116.332-.254.4648-.415.1384-.16.2546-.326.3487-.498l.2324-.423.6143-1.195-3.8682-8.558h1.7183l2.4653 5.793zm12.5674-8.906v1.378h-.1328c-.5092 0-.9657.052-1.3697.157-.3984.106-.7498.25-1.0542.432s-.5672.4-.7885.656c-.216.25-.3957.523-.5396.822a4.58 4.58 0 0 0-.332.938c-.0775.326-.1273.658-.1494.996.1438-.172.31-.33.498-.473a3.247 3.247 0 0 1 .606-.382c.2213-.11.4565-.197.7055-.258.2546-.066.5202-.1.797-.1.6032 0 1.1234.116 1.5606.348.437.227.7968.53 1.079.905s.4897.803.6225 1.278a5.386 5.386 0 0 1 .1992 1.453c0 .565-.0802 1.096-.2407 1.594-.155.498-.39.935-.7056 1.31-.3154.37-.7083.664-1.1787.88-.4648.216-1.0044.324-1.6186.324-.4372 0-.8384-.064-1.2036-.19-.3597-.127-.6835-.3-.9712-.515a3.728 3.728 0 0 1-.7554-.78c-.2158-.3-.3957-.62-.5395-.963-.1384-.343-.2435-.7-.3155-1.07s-.108-.74-.108-1.112v-.722c0-.553.0332-1.107.0996-1.66.072-.56.191-1.093.357-1.602s.39-.985.6723-1.428.6364-.836 1.0625-1.162c.4317-.327.9435-.584 1.5357-.772s1.2838-.282 2.0752-.282h.1328zm-2.0088 5.445a2.326 2.326 0 0 0-.7554.125 2.651 2.651 0 0 0-.6807.348c-.2102.15-.3956.33-.556.54s-.2878.442-.3818.697v.515c0 .53.0636 1.004.191 1.42.1273.4.2988.755.5146 1.038s.465.498.747.647c.2822.144.5783.216.8882.216.3597 0 .678-.07.9546-.208a1.999 1.999 0 0 0 .6972-.572c.1937-.244.3376-.534.4317-.872.0996-.343.1494-.714.1494-1.112 0-.354-.0443-.697-.1328-1.03-.0886-.338-.224-.637-.4068-.897a2.066 2.066 0 0 0-.6889-.623c-.2767-.154-.6004-.232-.9712-.232zm7.1055.59l.606-6.026h6.2007v1.494h-4.9058l-.3403 3.22c.238-.138.523-.26.855-.365s.7166-.158 1.1538-.158c.559 0 1.0597.097 1.5024.3s.82.468 1.129.822c.31.35.548.772.714 1.27s.25 1.052.25 1.66c0 .576-.0774 1.1-.2324 1.602s-.39.92-.7056 1.28c-.31.354-.7028.633-1.1787.838-.476.2-1.0348.3-1.6767.3-.4925 0-.9574-.07-1.3946-.208s-.8273-.345-1.1704-.622c-.3375-.277-.617-.625-.8383-1.046-.216-.42-.3514-.9-.4068-1.47h1.461c.094.686.346 1.206.7554 1.56.415.355.9463.532 1.5938.532.3652 0 .689-.064.9712-.19.2822-.133.5174-.32.7055-.556.1937-.244.3376-.534.4317-.872.0996-.338.1494-.714.1494-1.13 0-.376-.0554-.728-.166-1.054-.1052-.327-.26-.61-.465-.847s-.4565-.434-.7553-.573-.642-.207-1.0293-.207c-.2546 0-.476.02-.664.058-.1826.033-.3486.083-.498.15s-.2905.147-.4233.24l-.3984.324-1.2285-.316zm9.3798 1.495c0-.67.0803-1.284.2408-1.843.1604-.565.3956-1.05.7055-1.453s.69-.72 1.1372-.946c.4538-.227.9685-.34 1.544-.34.5312 0 .9988.09 1.4028.273.4095.178.7637.438 1.0625.78l.0664-.888h1.411v12.434h-1.5356v-4.266c-.2988.315-.6475.558-1.046.73-.3984.166-.8577.25-1.378.25-.57 0-1.079-.116-1.5274-.35-.4427-.232-.82-.553-1.129-.963s-.5478-.9-.7138-1.444c-.1605-.56-.2408-1.16-.2408-1.8v-.174zm1.5357.174c0 .437.047.855.141 1.253.0996.4.25.75.4482 1.055s.45.547.7554.73c.31.177.678.266 1.104.266.4925 0 .9048-.11 1.2368-.332s.6032-.5.8135-.864v-4.432c-.105-.172-.227-.327-.3652-.465-.1328-.144-.285-.27-.4566-.374-.166-.105-.3514-.185-.556-.24-.1992-.06-.4178-.092-.6558-.092-.426 0-.794.092-1.104.274s-.5672.43-.772.74c-.1992.304-.3486.656-.4482 1.054-.094.4-.141.816-.141 1.254v.174zm9.662-4.6l.0415.846c.1826-.315.4206-.56.714-.74.2988-.177.6585-.268 1.079-.273.8245 0 1.375.32 1.6518.962.177-.287.4095-.517.6973-.69.2933-.177.6474-.268 1.0625-.273.6585 0 1.165.202 1.52.605s.5313 1.016.5313 1.835V121h-1.46v-6.724c0-.752-.3458-1.126-1.0376-1.12-.1826 0-.3403.025-.473.074s-.2435.12-.332.208a.882.882 0 0 0-.2076.299c-.0498.1-.083.227-.0996.348V121h-1.461v-6.732c0-.36-.0802-.636-.2407-.83s-.415-.288-.7637-.282c-.32 0-.57.063-.747.19s-.307.296-.39.506V121h-1.461v-8.98h1.378zm12.1934 4.79l-1.1285 1.088V121h-1.544v-12.75h1.544v7.803l1.0044-1.08 2.947-2.955h1.867l-3.635 3.743L105.27 121h-1.95l-3.296-4.192zm7.762-4.79h4.6v7.653h2.93V121h-7.52v-1.328h3.054v-6.317h-3.054v-1.336zm2.855-2.358c0-.254.075-.467.224-.64.155-.177.388-.266.698-.266.304 0 .534.09.688.266.155.172.233.385.233.64 0 .25-.078.457-.233.623s-.384.25-.688.25c-.3 0-.543-.083-.698-.25-.15-.166-.224-.374-.224-.623zm8.65 3.694c.32-.47.716-.836 1.187-1.096s.998-.4 1.585-.406c.47 0 .896.07 1.278.207.388.133.717.343.988.63s.48.653.623 1.096c.15.437.224.957.224 1.56V121h-1.536v-5.67c0-.736-.177-1.284-.53-1.644s-.85-.537-1.503-.53c-.492 0-.94.122-1.344.365-.4.238-.722.556-.97.955V121h-1.536v-12.75h1.536v5.105zm16.11-1.287c-.005.604-.168 1.14-.49 1.61s-.75.838-1.287 1.104c.3.133.59.3.838.498.255.193.47.418.648.672a2.936 2.936 0 0 1 .415.83c.1.3.15.617.15.955 0 .548-.102 1.035-.307 1.46-.2.426-.473.786-.822 1.08-.343.288-.747.51-1.212.664-.464.15-.962.224-1.494.224-.542 0-1.048-.075-1.52-.224-.465-.15-.87-.368-1.22-.656-.343-.293-.614-.653-.813-1.08s-.3-.916-.3-1.47c0-.338.047-.656.14-.955.094-.304.23-.58.407-.83.177-.254.4-.48.64-.68s.528-.365.838-.498c-.265-.132-.506-.3-.722-.473-.216-.188-.398-.395-.548-.622-.15-.233-.265-.485-.348-.756s-.125-.556-.125-.855c0-.525.09-.993.266-1.402.177-.416.42-.764.73-1.046.316-.283.69-.498 1.12-.648s.913-.224 1.427-.224.983.075 1.42.224.816.365 1.137.648.573.63.755 1.046c.183.41.274.877.274 1.402zm-1.26 5.637c0-.338-.058-.648-.175-.93-.1-.282-.268-.523-.473-.722-.205-.205-.45-.363-.74-.473-.282-.11-.592-.166-.93-.166-.35 0-.664.055-.947.166s-.523.268-.722.473c-.2.2-.354.44-.465.722-.105.282-.157.592-.157.93 0 .348.052.66.157.938.11.27.266.5.465.69s.44.332.722.43c.288.1.61.15.963.15.338 0 .648-.05.93-.15s.523-.243.722-.43c.205-.19.363-.418.473-.69.117-.277.175-.6.175-.938zm-.283-5.612c0-.304-.052-.584-.157-.838-.1-.255-.24-.473-.424-.656-.177-.188-.4-.332-.64-.432-.25-.105-.523-.157-.822-.157s-.57.05-.813.15c-.244.094-.454.233-.63.415s-.315.404-.415.664c-.094.255-.14.54-.14.855s.047.6.14.855c.1.25.238.465.415.648.183.177.396.315.64.415.25.094.523.14.822.14.293 0 .564-.047.814-.14.25-.1.462-.238.64-.415.182-.183.323-.402.423-.656s.15-.537.15-.847zm8.285 9.073c-.63 0-1.212-.108-1.744-.324-.525-.216-.976-.517-1.353-.904s-.67-.847-.88-1.378-.316-1.1-.316-1.735v-.35c0-.725.116-1.372.35-1.942.232-.576.54-1.06.92-1.453s.825-.703 1.312-.913c.492-.2.996-.315 1.5-.315.648 0 1.212.113 1.694.34.487.22.89.53 1.212.93.32.392.56.857.714 1.394s.24 1.118.24 1.743v.69h-6.416c.016.4.094.794.232 1.154.144.36.338.675.58.946.25.266.545.476.888.63s.723.233 1.138.233c.547 0 1.034-.11 1.46-.332s.78-.515 1.062-.88l.938.73c-.15.227-.338.446-.564.656-.222.205-.48.387-.772.548s-.626.288-.996.382c-.37.1-.775.15-1.212.15zm-.2-8.052c-.3 0-.603.058-.88.175-.276.1-.525.276-.747.498-.22.215-.41.484-.564.805-.15.315-.255.68-.315 1.096h4.83v-.117c-.017-.3-.075-.595-.175-.888-.094-.293-.235-.556-.423-.788s-.426-.42-.714-.565c-.282-.144-.62-.216-1.013-.216zm13.88-1.046c-.005.604-.168 1.14-.49 1.61s-.75.838-1.287 1.104c.3.133.59.3.838.498.255.193.47.418.648.672a2.936 2.936 0 0 1 .415.83c.1.3.15.617.15.955 0 .548-.102 1.035-.307 1.46-.2.426-.473.786-.822 1.08-.343.288-.747.51-1.212.664-.464.15-.962.224-1.494.224-.542 0-1.048-.075-1.52-.224-.465-.15-.87-.368-1.22-.656-.343-.293-.614-.653-.813-1.08s-.3-.916-.3-1.47c0-.338.047-.656.14-.955.094-.304.23-.58.407-.83.177-.254.4-.48.64-.68s.528-.365.838-.498c-.266-.132-.506-.3-.722-.473-.216-.188-.4-.395-.548-.622a3.061 3.061 0 0 1-.349-.756c-.083-.27-.124-.556-.124-.855 0-.525.088-.993.266-1.402.177-.416.42-.764.73-1.046s.69-.498 1.12-.648c.437-.15.913-.224 1.427-.224.51 0 .983.075 1.42.224s.816.365 1.137.648.573.63.755 1.046c.183.41.274.877.274 1.402zm-1.26 5.637c0-.338-.06-.648-.175-.93-.1-.282-.268-.523-.473-.722-.205-.205-.45-.363-.74-.473-.282-.11-.592-.166-.93-.166-.35 0-.664.055-.947.166s-.523.268-.722.473c-.2.2-.354.44-.465.722-.105.282-.157.592-.157.93 0 .348.052.66.157.938.11.27.266.5.465.69s.44.332.722.43c.288.1.61.15.963.15.338 0 .648-.05.93-.15s.523-.243.722-.43c.205-.19.363-.418.473-.69.116-.277.175-.6.175-.938zm-.283-5.612c0-.304-.052-.584-.157-.838s-.24-.473-.424-.656c-.177-.188-.4-.332-.64-.432-.25-.105-.523-.157-.822-.157s-.57.05-.813.15c-.244.094-.454.233-.63.415s-.315.404-.415.664c-.094.255-.14.54-.14.855s.047.6.14.855c.1.25.238.465.415.648.183.177.396.315.64.415.25.094.523.14.822.14.293 0 .564-.047.813-.14.25-.1.463-.238.64-.415.182-.183.323-.402.423-.656s.15-.537.15-.847zm11.93 4.516c0 .642-.078 1.242-.233 1.8s-.382 1.035-.68 1.444a3.186 3.186 0 0 1-1.112.963c-.437.233-.94.35-1.51.35-.575 0-1.076-.102-1.502-.307s-.78-.498-1.08-.88l-.075 1.02h-1.41v-12.75h1.536v4.73c.293-.365.647-.644 1.062-.838s.9-.3 1.453-.3c.575 0 1.084.113 1.527.34s.814.542 1.112.946.526.888.68 1.453c.155.56.233 1.173.233 1.843v.174zm-1.536-.174c0-.438-.044-.853-.133-1.246-.083-.398-.218-.747-.407-1.045-.188-.305-.434-.546-.738-.723s-.678-.265-1.12-.265c-.266 0-.51.036-.73.108-.222.066-.42.163-.598.3s-.327.27-.465.44c-.133.166-.246.35-.34.548v3.926c.1.2.216.385.348.556.14.166.296.313.473.44s.377.227.598.3c.22.067.465.1.73.1.42 0 .78-.086 1.08-.258.304-.177.55-.415.738-.713.194-.3.335-.645.424-1.038s.14-.808.14-1.245v-.174zm11.712.174c0 .642-.077 1.242-.232 1.8s-.382 1.035-.68 1.444-.67.73-1.112.963c-.437.233-.938.35-1.503.35-.547 0-1.032-.09-1.452-.266-.415-.177-.772-.43-1.07-.763v4.316h-1.536V112.02h1.403l.075.98c.3-.37.658-.653 1.08-.847s.92-.298 1.478-.298c.575 0 1.084.113 1.527.34a3.157 3.157 0 0 1 1.112.946c.3.404.526.888.68 1.453.155.56.232 1.173.232 1.843v.174zm-1.535-.174c0-.438-.05-.853-.15-1.246-.094-.398-.243-.747-.448-1.045-.2-.305-.454-.546-.764-.723s-.68-.265-1.112-.265c-.492 0-.908.116-1.245.348-.332.227-.598.52-.797.88v4.325c.2.354.465.645.797.872.332.22.753.332 1.262.332.426 0 .794-.09 1.104-.266.3-.183.564-.426.763-.73s.346-.656.44-1.055c.1-.398.15-.816.15-1.253v-.174zm10.135 2.183c0-.183-.036-.346-.108-.5s-.194-.285-.365-.407-.4-.232-.68-.332-.634-.2-1.054-.282c-.515-.105-.985-.232-1.41-.382s-.783-.326-1.088-.53c-.298-.2-.53-.454-.697-.73s-.25-.608-.25-.98c0-.365.086-.706.257-1.02.172-.32.413-.6.723-.838s.677-.427 1.104-.565.904-.207 1.42-.207c.553 0 1.05.07 1.494.215s.82.343 1.13.598.548.553.714.896.257.703.257 1.096h-1.535c0-.193-.05-.382-.15-.564-.1-.188-.238-.354-.415-.498s-.393-.26-.647-.35-.532-.133-.847-.133c-.326 0-.614.036-.863.108s-.448.17-.615.29c-.16.12-.282.263-.365.423s-.124.327-.124.498c0 .177.033.335.1.473s.18.263.34.374.384.2.655.3c.277.088.626.174 1.046.257.554.116 1.05.252 1.486.407.437.15.805.332 1.104.548.3.2.526.456.68.738.16.282.24.61.24.98 0 .398-.092.76-.274 1.087s-.426.606-.747.84-.706.412-1.154.54-.938.19-1.47.19c-.61 0-1.152-.08-1.627-.24s-.88-.382-1.212-.647c-.327-.27-.58-.584-.756-.938-.17-.354-.257-.722-.257-1.104h1.536c.022.315.105.58.25.797.15.216.332.4.547.523a2.35 2.35 0 0 0 .731.282c.266.055.528.083.79.083.647 0 1.16-.12 1.535-.357s.567-.553.573-.946zm5.28-6.6h4.532v9.04c0 .576-.08 1.085-.24 1.527s-.385.814-.69 1.113c-.3.304-.667.534-1.104.69-.432.16-.924.24-1.478.24-.315 0-.61-.01-.888-.033-.27-.016-.56-.052-.863-.108l.108-1.26c.094.016.213.03.357.04l.43.033.424.017.323.008c.288 0 .56-.04.814-.116s.476-.196.664-.374.335-.412.44-.705.166-.645.166-1.07v-7.703h-2.997v-1.336zm2.78-2.366c0-.25.075-.46.224-.63.15-.177.38-.266.69-.266s.542.09.697.266c.155.172.233.382.233.63s-.078.46-.233.63c-.155.166-.387.25-.697.25s-.54-.083-.69-.25c-.15-.172-.224-.382-.224-.63zm12.277 2.2l.448.016c.155.006.302.02.44.042.144.016.274.038.4.066.122.028.222.058.3.09l-.208 1.503c-.298-.067-.583-.114-.855-.14-.265-.034-.545-.05-.838-.05-.72 0-1.303.163-1.75.5s-.77.783-.98 1.37V121h-1.544v-8.98h1.46l.075 1.427c.365-.492.802-.88 1.31-1.162.515-.288 1.1-.43 1.752-.43zm4.565.166h4.59v7.653h2.93V121h-7.52v-1.328h3.055v-6.317h-3.055v-1.336zm2.856-2.358c0-.254.074-.467.224-.64.155-.177.387-.266.697-.266.304 0 .534.09.69.266.155.172.233.385.233.64 0 .25-.078.457-.233.623s-.385.25-.69.25c-.3 0-.542-.083-.697-.25s-.224-.374-.224-.623zm12.775-.755v1.378h-.133c-.51 0-.966.052-1.37.157-.398.106-.75.25-1.054.432s-.567.4-.79.656a3.727 3.727 0 0 0-.539.822c-.144.298-.255.61-.332.938s-.127.658-.15.996c.144-.172.3-.33.498-.473.19-.15.39-.277.606-.382.222-.11.457-.197.706-.258.255-.066.52-.1.797-.1.603 0 1.123.116 1.56.348.438.227.797.53 1.08.905s.49.803.622 1.278.2.96.2 1.453c0 .565-.08 1.096-.24 1.594s-.39.935-.706 1.31c-.315.37-.708.664-1.18.88-.465.216-1.004.324-1.618.324-.438 0-.84-.064-1.204-.19s-.683-.3-.97-.515-.54-.48-.756-.78-.395-.62-.54-.963a5.769 5.769 0 0 1-.315-1.071c-.072-.37-.108-.74-.108-1.112v-.722a14.004 14.004 0 0 1 .099-1.66c.072-.56.19-1.093.357-1.602s.4-.985.672-1.428a4.436 4.436 0 0 1 1.063-1.162c.432-.327.944-.584 1.536-.772s1.283-.282 2.075-.282h.133zm-2.01 5.445a2.332 2.332 0 0 0-.756.125 2.65 2.65 0 0 0-.68.348c-.2.15-.396.33-.556.54s-.288.442-.382.697v.515c0 .53.063 1.004.19 1.42.127.4.3.755.514 1.038s.465.498.747.647c.283.144.58.216.89.216.36 0 .678-.07.954-.208a2.007 2.007 0 0 0 .698-.572c.193-.244.337-.534.43-.872.1-.343.15-.714.15-1.112 0-.354-.045-.697-.133-1.03-.09-.338-.224-.637-.407-.897s-.412-.468-.69-.623-.6-.232-.97-.232zm7.105.59l.606-6.026h6.2v1.494h-4.906l-.34 3.22c.238-.138.523-.26.855-.365s.716-.158 1.154-.158c.56 0 1.06.097 1.502.3s.82.468 1.13.822c.3.35.548.772.714 1.27s.25 1.052.25 1.66c0 .576-.078 1.1-.233 1.602s-.4.92-.705 1.28c-.3.354-.703.633-1.18.838-.476.2-1.035.3-1.677.3-.492 0-.957-.07-1.394-.208s-.827-.345-1.17-.622-.618-.625-.84-1.046-.35-.9-.407-1.47h1.46c.094.686.346 1.206.756 1.56s.946.532 1.593.532c.366 0 .69-.064.972-.19.282-.133.517-.32.705-.556.194-.244.338-.534.432-.872s.15-.714.15-1.13c0-.376-.055-.728-.166-1.054-.105-.327-.26-.61-.465-.847s-.456-.434-.755-.573-.642-.207-1.03-.207c-.255 0-.476.02-.664.058-.183.033-.35.083-.498.15s-.29.147-.424.24l-.398.324-1.23-.316zm14.643 6.06h-1.536v-10.127l-3.162 1.204v-1.403l4.573-1.76h.125V121zm4.798-4.574c0-.647.094-1.248.282-1.8.188-.56.457-1.043.805-1.453.354-.41.783-.73 1.287-.963s1.07-.356 1.7-.356c.637 0 1.207.12 1.7.356.5.233.938.554 1.287.963s.625.894.814 1.453c.188.553.282 1.154.282 1.8v.183c0 .647-.094 1.248-.282 1.8s-.46 1.035-.814 1.444-.775.73-1.278.963-1.07.35-1.702.35-1.21-.116-1.718-.35c-.504-.232-.933-.553-1.287-.963-.348-.41-.617-.9-.805-1.444s-.282-1.154-.282-1.8v-.183zm1.535.183c0 .443.053.866.158 1.27.105.398.263.75.473 1.054.216.304.484.545.805.722s.695.266 1.12.266c.42 0 .79-.09 1.104-.266.32-.177.587-.418.797-.722.216-.304.376-.656.48-1.054.106-.404.158-.827.158-1.27v-.183c0-.437-.055-.855-.166-1.253-.105-.404-.266-.758-.48-1.063s-.476-.545-.797-.722c-.316-.182-.686-.274-1.113-.274s-.796.092-1.112.274c-.315.177-.58.418-.797.722-.2.305-.368.66-.473 1.063-.105.398-.158.816-.158 1.253v.183zm10.95 3.138h5.72V121h-7.678v-1.13l5.362-6.582h-5.287v-1.27h7.305v1.087l-5.42 6.64zm14.27 1.253c-.06-.116-.11-.26-.15-.432l-.075-.547c-.155.154-.33.3-.523.44-.188.14-.398.26-.63.366-.227.105-.47.188-.73.25s-.537.09-.83.09c-.476 0-.908-.07-1.295-.208s-.71-.323-.98-.556c-.265-.238-.473-.517-.622-.838-.144-.327-.216-.678-.216-1.054 0-.493.097-.924.3-1.295.2-.37.48-.678.84-.922.36-.25.79-.434 1.295-.556s1.076-.182 1.7-.182h1.677v-.706c0-.27-.05-.515-.15-.73s-.24-.4-.424-.548c-.182-.155-.406-.274-.672-.357-.26-.083-.553-.125-.88-.125-.304 0-.578.04-.822.117-.238.077-.44.18-.606.307s-.296.28-.4.456c-.088.172-.133.352-.133.54h-1.543c.005-.327.088-.648.25-.963s.4-.598.705-.847c.3-.254.684-.46 1.12-.614s.943-.232 1.502-.232c.51 0 .982.063 1.42.2.437.122.813.3 1.128.565.32.25.573.562.756.938s.274.816.274 1.32v4.175c0 .3.027.617.083.955.055.332.133.622.232.87V121h-1.602zm-2.714-1.17c.3 0 .578-.04.838-.117s.495-.18.706-.307.4-.27.556-.43c.155-.166.277-.338.365-.515v-1.818h-1.428c-.896 0-1.593.133-2.09.4s-.747.683-.747 1.253c0 .22.036.426.107.614.078.188.19.352.34.5s.337.238.564.315.5.117.79.117zm14.46-7.762c-.006.604-.17 1.14-.5 1.61s-.75.838-1.287 1.104c.3.133.6.3.84.498.254.193.47.418.647.672.183.255.32.53.415.83.1.3.15.617.15.955 0 .548-.103 1.035-.307 1.46s-.474.786-.822 1.08c-.343.288-.747.51-1.212.664-.465.15-.963.224-1.494.224-.543 0-1.05-.075-1.52-.224s-.872-.368-1.22-.656c-.343-.293-.614-.653-.813-1.08s-.3-.916-.3-1.47c0-.338.047-.656.14-.955.094-.304.23-.58.407-.83.177-.254.4-.48.64-.68s.53-.365.84-.498c-.266-.132-.507-.3-.723-.473-.215-.188-.398-.395-.547-.622-.15-.233-.266-.485-.35-.756s-.125-.556-.125-.855c0-.525.09-.993.266-1.402.177-.416.42-.764.73-1.046.315-.283.688-.498 1.12-.648.437-.15.913-.224 1.428-.224.51 0 .982.075 1.42.224s.817.365 1.137.648.573.63.756 1.046c.182.41.274.877.274 1.402zm-1.262 5.637c0-.338-.058-.648-.174-.93s-.27-.523-.473-.722c-.205-.205-.45-.363-.74-.473-.282-.11-.592-.166-.93-.166-.348 0-.664.055-.946.166s-.523.268-.722.473c-.2.2-.354.44-.465.722-.105.282-.158.592-.158.93 0 .348.053.66.158.938.11.27.265.5.465.69s.44.332.722.43c.288.1.61.15.963.15.337 0 .647-.05.93-.15s.523-.243.723-.43.362-.418.473-.69c.116-.277.174-.6.174-.938zm-.282-5.612c0-.304-.053-.584-.158-.838-.1-.255-.24-.473-.423-.656-.177-.188-.4-.332-.64-.432-.25-.105-.523-.157-.822-.157s-.57.05-.814.15c-.243.094-.453.233-.63.415s-.316.404-.416.664c-.094.255-.14.54-.14.855s.047.6.14.855c.1.25.238.465.416.648.182.177.395.315.64.415.25.094.523.14.82.14s.565-.047.814-.14c.25-.1.462-.238.64-.415.183-.183.324-.402.423-.656s.15-.537.15-.847zm4.557-.074h4.6v7.653h2.93V121h-7.52v-1.328h3.055v-6.317h-3.055v-1.336zm2.855-2.358c0-.254.075-.467.225-.64.155-.177.387-.266.697-.266.304 0 .534.09.69.266.155.172.232.385.232.64 0 .25-.077.457-.232.623s-.385.25-.69.25c-.3 0-.542-.083-.697-.25s-.225-.374-.225-.623zm7.82 2.358l.04.846c.183-.315.42-.56.714-.74.3-.177.66-.268 1.08-.273.825 0 1.375.32 1.652.962a2.042 2.042 0 0 1 .697-.689c.294-.177.648-.268 1.063-.273.658 0 1.165.202 1.52.605s.53 1.016.53 1.835V121h-1.46v-6.724c0-.752-.346-1.126-1.037-1.12-.183 0-.34.025-.474.074s-.243.12-.332.208c-.088.083-.157.183-.207.3a1.264 1.264 0 0 0-.1.348V121h-1.46v-6.732c0-.36-.08-.636-.24-.83s-.415-.288-.764-.282c-.32 0-.57.063-.747.19s-.307.296-.4.506V121h-1.46v-8.98h1.378zm9.214 4.416c0-.67.083-1.284.25-1.843.17-.565.412-1.05.722-1.453s.694-.72 1.137-.946.938-.34 1.486-.34c.537 0 1.004.09 1.403.273s.752.438 1.046.78v-4.657h1.535V121h-1.41l-.066-.946c-.3.365-.656.642-1.07.83s-.9.282-1.453.282c-.542 0-1.035-.116-1.477-.35s-.81-.553-1.12-.963-.55-.9-.722-1.444-.257-1.16-.257-1.8v-.174zm1.535.174c0 .437.047.852.14 1.245s.238.74.432 1.038c.2.298.45.536.755.713.305.172.67.258 1.096.258.26 0 .495-.03.706-.092s.4-.146.572-.257.324-.252.457-.407.25-.337.35-.53v-4.167c-.2-.365-.468-.664-.806-.896-.337-.238-.758-.357-1.26-.357-.432 0-.803.088-1.113.265-.304.177-.556.418-.755.723-.194.298-.338.647-.432 1.045s-.14.808-.14 1.246v.174zm8.675-.174c0-.67.083-1.284.25-1.843.17-.565.412-1.05.722-1.453s.694-.72 1.137-.946.938-.34 1.486-.34c.537 0 1.004.09 1.403.273s.752.438 1.046.78v-4.657h1.535V121h-1.41l-.066-.946c-.3.365-.656.642-1.07.83s-.9.282-1.453.282c-.542 0-1.035-.116-1.477-.35-.437-.232-.81-.553-1.12-.963s-.55-.9-.722-1.444-.257-1.16-.257-1.8v-.174zm1.535.174c0 .437.047.852.14 1.245s.238.74.432 1.038.45.536.755.713c.305.172.67.258 1.096.258.26 0 .495-.03.706-.092s.4-.146.572-.257.324-.252.457-.407.25-.337.35-.53v-4.167c-.2-.365-.468-.664-.806-.896-.337-.238-.758-.357-1.26-.357-.432 0-.803.088-1.113.265-.304.177-.556.418-.755.723-.194.298-.338.647-.432 1.045s-.14.808-.14 1.246v.174z" fill="#343a40"/><path d="M5.0918 147v-9.242h2.7485a4.505 4.505 0 0 1 1.1172.152c.364.093.6877.24.9712.438s.51.453.6792.762.2518.68.2476 1.11c-.0043.24-.0445.46-.1206.66a1.82 1.82 0 0 1-.3047.539c-.127.157-.2772.295-.4507.413a3.399 3.399 0 0 1-.5522.305c.2454.072.4697.175.6728.31a2.077 2.077 0 0 1 .5332.482c.148.186.2624.398.3428.635s.127.493.127.768c.0043.432-.0783.812-.2475 1.143s-.3957.607-.6792.83-.6115.39-.984.508a3.851 3.851 0 0 1-1.1426.184h-2.958zm1.1807-4.323v3.326h1.809c.2454-.004.4782-.044.6982-.12.22-.08.4147-.19.584-.33s.3026-.31.4-.514.1524-.434.1524-.692c.0042-.263-.0402-.495-.1333-.7s-.2137-.374-.3745-.514-.349-.254-.565-.33-.4486-.118-.6982-.127H6.2725zm0-.977h1.6377a2.414 2.414 0 0 0 .6475-.102c.2116-.068.4-.163.565-.286s.2983-.28.4-.463.1523-.393.1523-.635c0-.258-.0508-.478-.1523-.66a1.221 1.221 0 0 0-.3999-.444c-.165-.12-.3576-.205-.5776-.26a2.895 2.895 0 0 0-.6665-.089h-1.606v2.94zm8.0107.114h.838c.2962 0 .5565-.04.7808-.12s.419-.2.5712-.33.275-.307.3555-.5.1206-.41.1206-.64c0-.538-.1375-.942-.4126-1.213s-.677-.412-1.206-.412c-.2497 0-.4782.038-.6856.114s-.3787.178-.5268.317-.256.307-.3365.502-.1206.412-.1206.654h-1.1806c0-.352.0677-.682.203-.99s.3343-.584.584-.812.548-.415.895-.546.7406-.203 1.168-.203c.4147 0 .7934.057 1.1362.17s.637.275.8823.495.436.493.5713.82.203.703.203 1.13c0 .178-.0275.362-.0825.552s-.1396.377-.254.56-.2624.347-.4443.508c-.1778.156-.3915.288-.641.393.3004.098.55.225.75.38s.364.332.4824.527.2074.4.254.616.0762.43.0762.64c0 .43-.074.814-.2222 1.15s-.3533.618-.6157.85-.5734.404-.933.527-.7406.178-1.1553.178c-.4062 0-.7892-.057-1.149-.17s-.6644-.282-.9268-.502-.4718-.49-.6284-.806-.2285-.68-.2285-1.086h1.1743c0 .242.0402.462.1206.66s.203.368.3555.507.3364.248.5522.324.4634.114.73.114.5078-.033.7236-.1.4-.18.5523-.324.2687-.32.349-.533.127-.47.127-.762-.0487-.535-.146-.742-.2264-.388-.4-.527-.3767-.244-.622-.31-.5078-.102-.7998-.102h-.838v-.952zM20.707 147v-9.242h2.7486c.3808.004.7532.055 1.1172.152s.6876.24.971.438.5.453.6792.762.2518.68.2476 1.11c-.0042.24-.0444.46-.1206.66s-.1735.38-.3047.54a2.079 2.079 0 0 1-.4507.413 3.401 3.401 0 0 1-.5522.305c.2454.072.4697.175.6728.31a2.077 2.077 0 0 1 .5332.482c.148.186.2624.398.3428.635s.127.493.127.768c.0042.432-.0783.812-.2476 1.143s-.3957.607-.6792.83-.6115.39-.984.508-.75.18-1.1426.184h-2.958zm1.1807-4.323v3.326h1.809c.2454-.004.4782-.044.6982-.12.22-.08.4147-.19.584-.33a1.498 1.498 0 0 0 .3999-.514c.1016-.204.1523-.434.1523-.692.0043-.263-.0402-.495-.1333-.7s-.2137-.374-.3745-.514-.349-.254-.565-.33-.4486-.118-.6982-.127h-1.8726zm0-.977h1.6377c.22-.005.436-.038.6475-.102s.4-.163.565-.286.2983-.28.4-.463.1523-.393.1523-.635c0-.258-.0507-.478-.1523-.66s-.2306-.33-.4-.444c-.165-.12-.3576-.205-.5776-.26a2.896 2.896 0 0 0-.6665-.089h-1.606v2.94zM32.336 147h-1.1743v-7.744l-2.4184.92v-1.072l3.4975-1.346h.0952V147zm3.9864 0v-9.242h2.7485c.381.004.7533.055 1.1172.152s.6877.24.9712.438.51.453.6792.762.2518.68.2475 1.11c-.0042.24-.0444.46-.1206.66s-.1735.38-.3047.54-.277.295-.4506.413-.3576.22-.5523.305c.2455.072.4697.175.673.31.2073.13.385.292.5332.482s.2623.398.3427.635.127.493.127.768c.0042.432-.0783.812-.2476 1.143s-.3956.607-.6792.83-.6115.39-.9838.508-.749.18-1.1426.184h-2.958zm1.1806-4.323v3.326h1.809c.2455-.004.4782-.044.6983-.12.22-.08.4147-.19.584-.33a1.498 1.498 0 0 0 .3999-.514c.1016-.204.1524-.434.1524-.692.0042-.263-.0402-.495-.1333-.7s-.2137-.374-.3745-.514-.349-.254-.565-.33-.4485-.118-.6982-.127H37.503zm0-.977h1.6377a2.414 2.414 0 0 0 .6475-.102c.2116-.068.4-.163.565-.286s.2984-.28.4-.463.1524-.393.1524-.635c0-.258-.0508-.478-.1524-.66s-.2306-.33-.4-.444c-.165-.12-.3576-.205-.5776-.26a2.895 2.895 0 0 0-.6665-.089h-1.606v2.94zm11.4004 2.196h1.2886v.958h-1.2886V147H47.73v-2.146h-4.2148v-.69l4.1386-6.405h1.2505v6.138zm-4.088 0H47.73v-4.577l-.1904.356-2.7232 4.22zm12.9873-5.478L53.975 147h-1.2314l3.815-8.214h-5.002v-1.028h6.246v.66zm7.757 5.046c0 .59-.0677 1.11-.2032 1.568s-.33.836-.584 1.15-.565.544-.933.705-.7893.24-1.2632.24-.8908-.08-1.2632-.24-.6813-.396-.9395-.705-.457-.696-.5966-1.15-.2032-.98-.2032-1.568V141.3c0-.588.0677-1.11.2032-1.562s.33-.842.584-1.155.5713-.55.9395-.71.7935-.247 1.2632-.247.895.082 1.2632.247.6855.398.9394.71.455.698.5903 1.155.2032.974.2032 1.562v2.164zm-4.8052-.235l3.599-2.76c-.0677-.613-.2475-1.08-.5395-1.396s-.7046-.483-1.2505-.483c-.618 0-1.075.2-1.371.63s-.438 1.022-.438 1.822v2.19zm3.6245-1.637l-3.5928 2.748c.072.597.256 1.052.5523 1.365s.7088.47 1.2378.47c.622 0 1.077-.212 1.3647-.635s.438-1.033.438-1.828v-2.12zM73.234 147h-6.0557v-.844l3.028-3.364.6792-.8c.182-.233.328-.447.438-.64.11-.2.1884-.386.235-.56a2.147 2.147 0 0 0 .0698-.546c0-.228-.038-.442-.1142-.64s-.18-.38-.3238-.527-.31-.264-.514-.35-.4253-.133-.6792-.133c-.309 0-.5777.044-.8062.133s-.4126.216-.565.38-.2603.357-.3364.6-.108.493-.108.78h-1.1807c0-.39.0677-.755.203-1.098s.33-.65.584-.908.5713-.463.9395-.616.7955-.228 1.2695-.228c.436 0 .8273.065 1.1743.197s.6475.304.8887.533.4253.5.5522.812.1968.654.1968 1.022c0 .275-.0466.548-.1397.82s-.22.53-.3808.794-.3407.522-.5523.78l-.66.762-2.482 2.692h4.64V147zm7.2807-4.082H76.668V147H75.48v-9.242h5.6748v1.003H76.668v3.16h3.8466v.996zm7.7505-.2h-3.8593v3.275h4.5004V147h-5.6748v-9.242h5.6177v1.003h-4.4433v2.97h3.8593v.997zm8.4107-2.558c-.0043.46-.129.872-.3745 1.23s-.5734.64-.984.845c.237.1.4507.228.641.38s.3597.32.495.515.2455.406.3174.634.1143.472.1143.73c0 .42-.0783.792-.235 1.118s-.3618.6-.6284.825-.5713.39-.9268.508-.7363.17-1.1426.17c-.4147 0-.802-.057-1.1616-.17s-.6665-.282-.933-.502-.4697-.5-.622-.825-.2285-.7-.2285-1.124c0-.258.036-.5.108-.73s.1757-.444.311-.634a2.459 2.459 0 0 1 .4887-.521c.1905-.152.4042-.28.6412-.38-.2032-.1-.3873-.222-.5523-.362a2.297 2.297 0 0 1-.4189-.476c-.1143-.177-.2032-.37-.2666-.577s-.0953-.426-.0953-.654c0-.402.0678-.76.2032-1.073s.3216-.584.5586-.8.5268-.38.857-.495.6982-.17 1.0918-.17.751.057 1.0854.17.6242.28.8697.495.438.483.5776.8.2095.67.2095 1.073zm-.965 4.3c0-.258-.0444-.495-.1333-.71s-.2052-.4-.3618-.552c-.1566-.157-.345-.277-.565-.362s-.4528-.127-.71-.127c-.2666 0-.5078.042-.7236.127s-.4.205-.5522.362c-.1524.152-.271.336-.3555.552s-.1206.453-.1206.71c0 .267.0402.506.1206.717s.203.383.3555.527.3364.254.5522.33.4655.114.7363.114c.2582 0 .4952-.038.71-.114s.4-.186.5522-.33.2772-.32.3618-.527.1333-.45.1333-.717zm-.2158-4.29c0-.233-.0402-.446-.1206-.64s-.184-.362-.3237-.502-.2984-.254-.4888-.33-.4-.12-.6284-.12-.436.038-.622.114-.347.178-.4824.317-.2412.31-.3174.508-.108.413-.108.654.036.46.108.654.182.355.3174.495.3026.24.4888.317.4.108.6284.108.4316-.036.622-.108.3533-.182.4887-.317.2476-.307.3238-.502.1142-.4.1142-.647zm7.109 6.81h-1.174v-7.744l-2.4183.92v-1.072l3.4973-1.346h.095V147zm9.14-4.082h-3.847V147h-1.187v-9.242h5.675v1.003h-4.488v3.16h3.847v.996zm7.75-.2h-3.86v3.275h4.5V147h-5.675v-9.242h5.618v1.003h-4.444v2.97h3.86v.997zm7.864.2h-3.846V147h-1.187v-9.242H128v1.003h-4.487v3.16h3.846v.996zm2.546 4.082v-9.242h2.14c.643.008 1.217.118 1.72.33.508.207.935.5 1.282.876s.618.82.8 1.346.282 1.098.286 1.732v.68c-.004.634-.1 1.214-.286 1.74-.182.52-.448.97-.8 1.346s-.774.664-1.282.876c-.503.207-1.077.313-1.72.317h-2.14zm1.193-8.277v7.32h.946c.5-.005.93-.09 1.295-.26s.664-.408.9-.704.42-.646.533-1.048.18-.838.184-1.307v-.692c-.004-.47-.065-.904-.184-1.3-.118-.403-.296-.75-.533-1.04-.237-.297-.537-.53-.9-.7s-.796-.258-1.295-.266h-.946zm12.72 5.497c-.055.427-.165.82-.33 1.18s-.38.663-.648.92-.575.453-.94.596-.762.2-1.206.2c-.38 0-.728-.053-1.04-.16s-.586-.26-.832-.45-.45-.415-.628-.673-.32-.54-.438-.845-.2-.624-.26-.958-.085-.673-.09-1.016v-1.288c.004-.343.034-.682.09-1.016s.146-.654.26-.958.264-.586.438-.845.387-.488.628-.68.523-.338.832-.444.656-.165 1.04-.165c.46 0 .874.072 1.238.216.364.14.677.34.94.603s.472.57.628.933.267.766.318 1.206h-1.174c-.04-.28-.104-.54-.197-.78s-.218-.453-.375-.635-.35-.323-.577-.425-.49-.16-.8-.16c-.28 0-.527.047-.743.14s-.396.212-.552.368-.282.34-.387.546-.184.427-.248.66-.1.472-.14.718l-.038.704v1.3c0 .23.013.466.038.71s.077.48.14.718c.064.232.146.452.248.66a2.11 2.11 0 0 0 .387.552c.156.157.34.28.552.375.212.088.46.133.743.133.31 0 .575-.05.8-.146s.42-.233.577-.406.282-.386.375-.623.158-.5.197-.78h1.174zm7.674-5.802L147.667 147h-1.232l3.815-8.214h-5.002v-1.028h6.246v.66zm7.624 8.582h-6.056v-.844l3.028-3.364.68-.8c.182-.233.328-.447.438-.64.1-.2.188-.386.235-.56a2.174 2.174 0 0 0 .07-.546c0-.228-.038-.442-.115-.64-.07-.203-.18-.38-.323-.527s-.31-.264-.514-.35-.426-.133-.68-.133c-.31 0-.577.044-.806.133s-.412.216-.565.38c-.148.16-.26.357-.336.6s-.108.493-.108.78h-1.18c0-.39.068-.755.203-1.098s.33-.65.584-.908c.26-.258.572-.463.94-.616s.795-.228 1.27-.228c.436 0 .828.065 1.175.197s.647.304.888.533.426.5.553.812.196.654.196 1.022c0 .275-.046.548-.14.82s-.22.53-.38.794-.34.522-.552.78l-.66.762-2.48 2.692h4.64V147zm2.558-4.634l.463-4.608h4.742v1.142h-3.752l-.26 2.463c.182-.106.4-.2.654-.28s.548-.12.882-.12c.428 0 .81.074 1.15.223s.627.357.863.628.42.6.546.97.19.804.19 1.27c0 .44-.06.848-.178 1.225s-.298.702-.54.977-.538.485-.902.64-.79.23-1.282.23c-.377 0-.732-.053-1.066-.16s-.633-.264-.895-.476-.472-.478-.642-.8-.268-.696-.31-1.123h1.118c.07.525.264.922.577 1.193.318.27.724.406 1.22.406.28 0 .527-.048.743-.146a1.48 1.48 0 0 0 .539-.425c.148-.186.258-.408.33-.666s.114-.546.114-.864c0-.287-.042-.556-.126-.806s-.2-.465-.356-.647-.35-.332-.578-.438-.5-.16-.787-.16c-.194 0-.364.015-.507.045-.14.025-.267.063-.38.114a1.843 1.843 0 0 0-.324.184l-.305.247-.94-.24zm11.8 2.24h-3.085l-.743 2.393h-1.174l2.984-9.242h.983l2.933 9.242h-1.168l-.73-2.393zm-2.768-1.022h2.457l-1.22-4.012-1.238 4.012zm7.427 2.374c.42 0 .787-.036 1.105-.108s.592-.182.825-.317.434-.294.6-.476.284-.4.38-.6.176-.46.222-.704.076-.504.09-.762c-.1.127-.218.247-.35.362s-.28.207-.444.292-.35.152-.553.203c-.198.046-.416.07-.653.07-.457 0-.853-.09-1.187-.267s-.603-.42-.82-.71-.375-.622-.476-1-.153-.74-.153-1.11c0-.436.06-.846.178-1.23.123-.4.303-.728.54-1.016s.54-.523.895-.692.776-.26 1.25-.26c.356 0 .675.05.96.152s.54.235.755.413.408.38.565.622.284.495.38.774.175.565.222.87.07.603.07.908v.425l-.057 1.212a6.209 6.209 0 0 1-.229 1.194c-.1.385-.266.75-.47 1.09s-.467.635-.793.89-.722.455-1.187.603-1.018.222-1.657.222h-.12v-1.047h.12zm1.403-3.02c.2 0 .392-.032.578-.096a1.914 1.914 0 0 0 .52-.279 2.256 2.256 0 0 0 .426-.425 2.037 2.037 0 0 0 .298-.546v-.38c0-.41-.05-.777-.146-1.098s-.222-.593-.387-.813-.35-.395-.565-.514-.438-.178-.68-.178c-.276 0-.52.055-.73.165s-.392.263-.54.457-.254.42-.33.686-.114.546-.114.85a3.217 3.217 0 0 0 .101.799c.068.26.17.49.305.692s.313.368.52.495c.212.123.46.185.743.185zm5.02 4.062v-9.242h2.14c.643.008 1.217.118 1.72.33s.936.5 1.283.876.618.82.8 1.346c.187.52.282 1.098.286 1.732v.68c-.004.634-.1 1.214-.286 1.74-.18.52-.448.97-.8 1.346s-.775.664-1.283.876-1.077.313-1.72.317h-2.14zm1.193-8.277v7.32h.946c.5-.005.93-.09 1.295-.26s.665-.408.902-.704.418-.646.533-1.048.18-.838.184-1.307v-.692c-.004-.47-.066-.904-.184-1.3-.12-.403-.296-.75-.533-1.04-.237-.297-.538-.53-.902-.7s-.795-.258-1.295-.266h-.946zm11.82 4.005h-3.86v3.275h4.5V147h-5.675v-9.242h5.618v1.003h-4.444v2.97h3.86v.997zm8.39 4.272h-6.055v-.844l3.028-3.364.68-.8c.182-.233.328-.447.438-.64.1-.2.188-.386.235-.56s.07-.36.07-.546c0-.228-.038-.442-.114-.64s-.18-.38-.324-.527-.31-.264-.514-.35-.425-.133-.68-.133c-.31 0-.578.044-.806.133s-.413.216-.565.38-.26.357-.336.6-.108.493-.108.78h-1.18c0-.39.068-.755.203-1.098s.33-.65.584-.908.57-.463.94-.616.795-.228 1.27-.228c.436 0 .827.065 1.174.197s.648.304.89.533.425.5.552.812.197.654.197 1.022c0 .275-.046.548-.14.82s-.22.53-.38.794-.34.522-.553.78l-.66.762-2.482 2.692h4.64V147zm3.403-1.04c.42 0 .787-.036 1.104-.108s.593-.182.825-.317c.237-.136.434-.294.59-.476s.283-.4.38-.6.175-.46.222-.704a5.827 5.827 0 0 0 .089-.762c-.102.127-.218.247-.35.362s-.28.207-.445.292-.35.152-.552.203-.417.07-.654.07c-.457 0-.853-.09-1.187-.267s-.603-.42-.82-.71-.374-.622-.476-1-.152-.74-.152-1.11c0-.436.06-.846.178-1.23s.302-.728.54-1.016.54-.523.895-.692.777-.26 1.25-.26c.355 0 .675.05.958.152.288.098.54.235.756.413s.408.38.564.622.284.495.38.774.176.565.222.87.07.603.07.908v.425l-.057 1.212c-.038.41-.114.81-.228 1.194s-.267.75-.47 1.09-.468.635-.794.89-.72.455-1.187.603-1.017.222-1.656.222h-.12v-1.047h.12zm1.403-3.02a1.764 1.764 0 0 0 .577-.096c.19-.067.364-.16.52-.28a2.251 2.251 0 0 0 .425-.425c.127-.165.226-.347.298-.546v-.38c0-.41-.048-.777-.146-1.098-.093-.322-.222-.593-.387-.813s-.35-.395-.565-.514c-.21-.118-.438-.178-.68-.178-.275 0-.518.055-.73.165s-.39.263-.54.457c-.143.19-.253.42-.33.686s-.114.546-.114.85c0 .27.034.537.102.8s.17.49.304.692c.14.203.314.368.52.495s.46.185.743.185zm6.512-1.124h.838c.296 0 .557-.04.78-.12s.42-.2.57-.33.275-.307.356-.5.12-.41.12-.64c0-.538-.137-.942-.412-1.213s-.677-.412-1.206-.412c-.25 0-.48.038-.686.114s-.38.178-.527.317-.256.307-.336.502-.12.412-.12.654h-1.18c0-.352.067-.682.203-.99s.334-.584.584-.812.548-.415.895-.546.74-.203 1.168-.203c.414 0 .793.057 1.136.17s.637.275.882.495.436.493.57.82.204.703.204 1.13c0 .178-.028.362-.083.552s-.14.377-.254.56-.262.347-.444.508c-.178.156-.392.288-.64.393.3.098.55.225.75.38s.364.332.482.527.208.4.254.616a2.777 2.777 0 0 1 .076.641c0 .43-.074.814-.222 1.15s-.353.618-.616.85-.573.404-.933.527-.74.178-1.155.178c-.406 0-.79-.057-1.15-.17s-.664-.282-.927-.502-.472-.49-.628-.806-.23-.68-.23-1.086h1.175c0 .242.04.462.12.66s.203.368.356.507.336.248.552.324.463.114.73.114.508-.033.724-.1.4-.18.552-.324.27-.32.35-.533.127-.47.127-.762-.05-.535-.146-.742-.226-.388-.4-.527c-.17-.14-.377-.244-.622-.31s-.508-.102-.8-.102h-.838v-.952zM227.526 147h-1.174v-7.744l-2.418.92v-1.072l3.497-1.346h.095V147zm8.76-3.104h1.29v.958h-1.29V147h-1.174v-2.146h-4.215v-.69l4.14-6.405h1.25v6.138zm-4.088 0h2.914v-4.577l-.19.356-2.723 4.22zm12.22-1.168h-3.86v3.275h4.5V147h-5.675v-9.242H245v1.003h-4.443v2.97h3.86v.997zm7.135 1.88h-3.085l-.742 2.393h-1.175l2.984-9.242h.984L253.45 147h-1.168l-.73-2.393zm-2.767-1.022h2.456l-1.22-4.012-1.237 4.012zm10.924.31h1.29v.958h-1.29V147h-1.174v-2.146h-4.215v-.69l4.138-6.405h1.25v6.138zm-4.088 0h2.914v-4.577l-.19.356-2.723 4.22zm11.464-6.145v1.054h-.102c-.39 0-.738.04-1.047.12s-.573.2-.806.33-.434.307-.603.5-.303.4-.413.63-.194.467-.254.717a4.64 4.64 0 0 0-.114.762c.1-.13.237-.252.38-.362a2.507 2.507 0 0 1 .463-.292c.17-.085.35-.15.54-.197s.398-.076.61-.076c.462 0 .86.09 1.194.267.334.173.61.404.825.69s.374.614.476.978a4.135 4.135 0 0 1 .152 1.111c0 .432-.06.838-.184 1.22s-.298.715-.54 1.003-.542.507-.902.672-.768.248-1.238.248c-.334 0-.64-.05-.92-.146s-.523-.23-.743-.394-.412-.368-.577-.596a3.695 3.695 0 0 1-.413-.737 4.429 4.429 0 0 1-.241-.818 4.47 4.47 0 0 1-.083-.851v-.552c0-.423.026-.847.077-1.27s.146-.836.273-1.225a4.746 4.746 0 0 1 .514-1.092 3.363 3.363 0 0 1 .812-.888c.33-.25.722-.447 1.174-.59s.982-.216 1.587-.216h.102zm-1.536 4.165c-.2 0-.392.03-.578.095a1.997 1.997 0 0 0-.52.266 1.984 1.984 0 0 0-.426.413 2.057 2.057 0 0 0-.292.533v.394c0 .406.05.768.146 1.085s.23.578.394.794.355.38.57.495a1.476 1.476 0 0 0 .679.165c.276 0 .52-.053.73-.16a1.534 1.534 0 0 0 .534-.438c.148-.186.258-.408.33-.666s.114-.546.114-.85a3.028 3.028 0 0 0-.102-.787c-.067-.258-.17-.487-.31-.686s-.315-.357-.526-.476-.46-.177-.743-.177zm5.433.45l.464-4.608h4.742v1.142h-3.752l-.26 2.463c.182-.106.4-.2.654-.28s.548-.12.882-.12c.427 0 .8.074 1.15.223s.626.357.863.628.42.6.546.97.2.804.2 1.27c0 .44-.06.848-.177 1.225s-.3.702-.54.977-.537.485-.9.64-.792.23-1.282.23c-.377 0-.733-.053-1.067-.16s-.632-.264-.895-.476-.472-.478-.64-.8-.27-.696-.31-1.123h1.117c.072.525.265.922.578 1.193s.723.406 1.22.406c.28 0 .526-.048.742-.146s.396-.243.54-.425.258-.408.33-.666.114-.546.114-.864c0-.287-.042-.556-.127-.806-.08-.25-.2-.465-.355-.647s-.35-.332-.578-.438-.49-.16-.787-.16c-.195 0-.364.015-.508.045-.14.025-.266.063-.38.114a1.871 1.871 0 0 0-.323.184l-.305.247-.94-.24zm11.718-4.615v1.054h-.1c-.4 0-.74.04-1.048.12-.304.08-.573.2-.806.33s-.434.307-.603.5a2.872 2.872 0 0 0-.413.629c-.1.228-.194.467-.253.717s-.098.504-.115.762c.1-.13.237-.252.38-.362s.3-.212.464-.292c.17-.085.35-.15.54-.197s.398-.076.61-.076c.462 0 .86.09 1.194.267.334.173.61.404.825.69s.375.614.476.978.152.734.152 1.11c0 .432-.06.838-.184 1.22s-.298.715-.54 1.003-.542.507-.902.672c-.355.165-.768.248-1.237.248-.335 0-.64-.05-.92-.146s-.522-.23-.742-.394-.413-.368-.578-.596a3.695 3.695 0 0 1-.413-.737c-.105-.262-.186-.535-.24-.818s-.082-.568-.082-.85v-.552a10.608 10.608 0 0 1 .076-1.27c.055-.427.146-.836.273-1.225s.298-.753.514-1.092a3.397 3.397 0 0 1 .812-.888c.33-.25.722-.447 1.175-.59s.98-.216 1.587-.216h.1zm-1.536 4.165a1.769 1.769 0 0 0-.578.095 2.013 2.013 0 0 0-.52.266 1.957 1.957 0 0 0-.425.413c-.123.16-.22.338-.292.533v.394c0 .406.048.768.146 1.085s.228.578.393.794.356.38.57.495a1.48 1.48 0 0 0 .68.165c.275 0 .518-.053.73-.16a1.54 1.54 0 0 0 .533-.438c.148-.186.258-.408.33-.666s.114-.546.114-.85a3.071 3.071 0 0 0-.101-.787c-.068-.258-.172-.487-.31-.686s-.316-.357-.527-.476-.46-.177-.743-.177zm8.823 5.084h-1.174v-7.744l-2.418.92v-1.072l3.497-1.346h.095V147zm9.852-8.582L296.01 147h-1.23l3.815-8.214h-5.002v-1.028h6.246v.66zm1.834 8.582v-9.242h2.14c.644.008 1.217.118 1.72.33s.935.5 1.282.876.618.82.8 1.346.28 1.098.285 1.732v.68c-.004.634-.1 1.214-.285 1.74-.182.52-.45.97-.8 1.346s-.774.664-1.282.876-1.077.313-1.72.317h-2.14zm1.194-8.277v7.32h.945c.5-.005.93-.09 1.295-.26s.665-.408.902-.704.42-.646.533-1.048.18-.838.184-1.307v-.692c-.004-.47-.066-.904-.184-1.3-.118-.403-.296-.75-.533-1.04-.237-.297-.538-.53-.902-.7s-.795-.258-1.295-.266h-.945zm7.154 3.643l.463-4.608h4.742v1.142h-3.752l-.26 2.463c.182-.106.4-.2.654-.28s.548-.12.882-.12c.427 0 .8.074 1.15.223s.626.357.863.628.42.6.546.97.19.804.19 1.27c0 .44-.06.848-.178 1.225s-.3.702-.54.977-.537.485-.9.64-.79.23-1.282.23c-.377 0-.732-.053-1.067-.16s-.632-.264-.895-.476-.472-.478-.64-.8-.27-.696-.31-1.123h1.117c.072.525.265.922.578 1.193s.724.406 1.22.406c.28 0 .527-.048.742-.146s.396-.243.54-.425.258-.408.33-.666.114-.546.114-.864c0-.287-.042-.556-.127-.806s-.2-.465-.355-.647-.35-.332-.578-.438-.49-.16-.787-.16c-.195 0-.364.015-.508.045-.14.025-.266.063-.38.114a1.871 1.871 0 0 0-.323.184l-.305.247-.94-.24zm9.432 3.872c0-.127.02-.245.057-.355s.102-.205.178-.286.17-.15.286-.197.247-.07.4-.07.285.023.4.07.216.113.292.197.14.176.178.286a.986.986 0 0 1 .064.355c0 .123-.022.24-.064.35s-.097.2-.178.28-.173.14-.292.184-.247.07-.4.07-.286-.024-.4-.07-.2-.104-.286-.184a.897.897 0 0 1-.178-.28c-.038-.1-.057-.226-.057-.35zm7.808 0c0-.127.02-.245.057-.355s.1-.205.178-.286.17-.15.285-.197.248-.07.4-.07.286.023.4.07.216.113.292.197.14.176.178.286.063.228.063.355-.02.24-.063.35-.098.2-.178.28-.173.14-.292.184-.248.07-.4.07-.285-.024-.4-.07-.21-.104-.285-.184-.136-.174-.178-.28-.057-.226-.057-.35zm7.807 0c0-.127.02-.245.057-.355s.102-.205.178-.286.172-.15.286-.197.247-.07.4-.07.285.023.4.07.215.113.292.197.14.176.177.286.064.228.064.355-.02.24-.064.35-.097.2-.177.28-.174.14-.292.184-.248.07-.4.07-.286-.024-.4-.07-.2-.104-.286-.184a.897.897 0 0 1-.178-.28c-.038-.1-.057-.226-.057-.35z" fill="#6c757d"/><path d="M9.32 34.204c-.9407 0-1.853-.1247-2.737-.374-.8727-.2607-1.5753-.595-2.108-1.003l.935-2.074c.5.374 1.1163.6743 1.82.9s1.4053.34 2.108.34c.782 0 1.36-.1133 1.734-.34.374-.238.56-.5497.56-.935 0-.2833-.1133-.5157-.34-.697-.2153-.1927-.4987-.3457-.85-.46-.34-.1133-.8047-.238-1.394-.374l-2.227-.646c-.578-.2153-1.0767-.56-1.496-1.037-.408-.476-.612-1.1107-.612-1.904 0-.6913.187-1.3147.56-1.87.374-.5667.935-1.0143 1.683-1.343.7593-.3287 1.683-.493 2.77-.493.7593 0 1.5017.0907 2.227.272s1.36.442 1.904.782L13 25.04c-1.0993-.6233-2.1987-.935-3.298-.935-.7707 0-1.343.1247-1.717.374-.3627.2493-.544.578-.544.986s.2097.714.63.918c.4307.1927 1.0823.3853 1.955.578l2.227.646a3.621 3.621 0 0 1 1.479 1.02c.4193.4647.63 1.0937.63 1.887 0 .68-.1927 1.3033-.578 1.87-.374.5553-.9407.9973-1.7 1.326s-1.683.493-2.77.493zm12.6428-.646c-.2606.1927-.5836.34-.97.442-.374.0907-.7706.136-1.2.136-1.088 0-1.9323-.2777-2.533-.833-.5893-.5553-.884-1.3713-.884-2.448v-3.757h-1.41v-2.04h1.41V22.83h2.652v2.227h2.278v2.04h-2.278v3.723c0 .3853.0964.6857.29.9.204.204.4874.306.85.306.4194 0 .7764-.1133 1.07-.34l.714 1.87zm5.1777-8.84c1.4167 0 2.5047.34 3.264 1.02.7593.6687 1.14 1.683 1.14 3.043V34h-2.482v-1.14c-.4987.85-1.428 1.275-2.788 1.275-.7027 0-1.3147-.12-1.836-.357-.5-.238-.9-.5667-1.173-.986s-.408-.8953-.408-1.428c0-.85.3173-1.5187.952-2.006.646-.4873 1.6377-.73 2.975-.73h2.108c0-.578-.1757-1.02-.527-1.326-.3513-.3173-.8783-.476-1.58-.476-.4873 0-.97.0793-1.445.238-.4647.1473-.8613.3513-1.2.612l-.952-1.853c.4987-.3513 1.0937-.6233 1.785-.816.7027-.1927 1.4223-.29 2.16-.29zm-.204 7.633c.4533 0 .8557-.102 1.207-.306.3513-.2153.6007-.527.748-.935v-.935h-1.82c-1.088 0-1.632.357-1.632 1.07 0 .34.1303.612.39.816.272.1927.6403.29 1.105.29zm12.9062 1.207c-.2607.1927-.5837.34-.97.442-.374.0907-.7707.136-1.2.136-1.088 0-1.9323-.2777-2.533-.833-.5893-.5553-.884-1.3713-.884-2.448v-3.757h-1.41v-2.04h1.41V22.83h2.652v2.227h2.278v2.04h-2.278v3.723c0 .3853.0963.6857.29.9.204.204.4873.306.85.306.4193 0 .7763-.1133 1.07-.34l.714 1.87zm10.1655-4.097c0 .034-.017.272-.05.714h-6.92c.1246.5667.4193 1.0143.884 1.343s1.0426.493 1.734.493c.476 0 .8953-.068 1.258-.204.374-.1473.7196-.374 1.037-.68l1.41 1.53c-.8614.986-2.1194 1.48-3.774 1.48-1.0314 0-1.9437-.1983-2.737-.595-.7934-.408-1.4054-.97-1.836-1.683s-.646-1.5243-.646-2.43c0-.8953.2096-1.7.63-2.414.4306-.7253 1.0143-1.2863 1.75-1.683.748-.408 1.58-.612 2.5-.612.8953 0 1.7056.1927 2.43.578s1.292.9407 1.7 1.666c.4193.714.63 1.547.63 2.5zm-4.743-2.737c-.6007 0-1.105.17-1.513.5s-.6574.8047-.748 1.394h4.505c-.0907-.578-.34-1.037-.748-1.377-.408-.3513-.9067-.527-1.496-.527z" fill="#343a40"/><path d="M59.6662 34.136c-.7593 0-1.5016-.0907-2.227-.272-.7253-.1927-1.3033-.4307-1.734-.714l.884-1.904c.408.2607.9.476 1.48.646.578.1587 1.1447.238 1.7.238 1.122 0 1.683-.2777 1.683-.833 0-.2607-.153-.4477-.46-.56s-.7763-.2097-1.41-.29c-.748-.1133-1.3656-.2437-1.853-.39s-.9123-.408-1.275-.782c-.3513-.374-.527-.9067-.527-1.598 0-.578.1644-1.088.493-1.53.34-.4533.8274-.8047 1.462-1.054.646-.2493 1.4054-.374 2.278-.374.646 0 1.2864.0737 1.92.22.646.136 1.1787.3287 1.598.578l-.884 1.887c-.8046-.4533-1.683-.68-2.635-.68-.5666 0-.9916.0793-1.275.238s-.425.3627-.425.612c0 .2833.153.4817.46.595s.7934.22 1.462.323c.748.1247 1.36.2607 1.836.408.476.136.8897.39 1.24.765s.527.8953.527 1.564c0 .5667-.17 1.07-.5 1.513s-.8386.7877-1.496 1.037c-.646.238-1.4166.357-2.312.357zm14.9133-4.675c0 .034-.017.272-.05.714h-6.92c.1247.5667.4193 1.0143.884 1.343s1.0427.493 1.734.493c.476 0 .8953-.068 1.258-.204.374-.1473.7197-.374 1.037-.68l1.41 1.53c-.8613.986-2.1193 1.48-3.774 1.48-1.0313 0-1.9437-.1983-2.737-.595-.7933-.408-1.4053-.97-1.836-1.683s-.646-1.5243-.646-2.43c0-.8953.2097-1.7.63-2.414.4307-.7253 1.0143-1.2863 1.75-1.683.748-.408 1.58-.612 2.5-.612.8953 0 1.7057.1927 2.43.578s1.292.9407 1.7 1.666c.4193.714.63 1.547.63 2.5zm-4.743-2.737c-.6007 0-1.105.17-1.513.5s-.6573.8047-.748 1.394h4.505c-.0907-.578-.34-1.037-.748-1.377-.408-.3513-.9067-.527-1.496-.527zm12.0676-2.006c1.1333 0 2.0457.34 2.737 1.02.7027.68 1.054 1.6887 1.054 3.026V34h-2.652v-4.828c0-.7253-.1587-1.2637-.476-1.615-.3173-.3627-.7763-.544-1.377-.544-.6687 0-1.2013.2097-1.598.63-.3967.408-.595 1.02-.595 1.836V34h-2.652v-9.146h2.533v1.07c.3513-.3853.7877-.68 1.31-.884.5213-.2153 1.0937-.323 1.717-.323zm15.6105-3.332V34h-2.533v-1.054c-.6573.7933-1.6093 1.2-2.856 1.2-.8613 0-1.6433-.1927-2.346-.578-.6913-.3853-1.2353-.935-1.632-1.65s-.595-1.5413-.595-2.482.1983-1.768.595-2.482.9407-1.2637 1.632-1.65c.7027-.3853 1.4847-.578 2.346-.578 1.1673 0 2.0797.3683 2.737 1.105v-4.437h2.652zm-4.93 10.574c.6687 0 1.224-.2267 1.666-.68.442-.4647.663-1.0823.663-1.853s-.22-1.3827-.663-1.836c-.442-.4647-.9973-.697-1.666-.697-.68 0-1.24.2323-1.683.697-.442.4533-.663 1.0653-.663 1.836s.22 1.3883.663 1.853c.442.4533 1.003.68 1.683.68z" fill="#dc3545"/><path d="M10.392 74.456c-.2267.204-.5.3627-.85.476-.3287.102-.6743.153-1.037.153-.8387 0-1.4847-.2267-1.938-.68s-.68-1.0937-.68-1.92v-5.406H4.29v-1.02h1.598v-1.955h1.207v1.955h2.72v1.02h-2.72v5.338c0 .5327.1303.9407.39 1.224.272.272.6573.408 1.156.408.2493 0 .4873-.0397.714-.12.238-.0793.442-.1927.612-.34l.425.867zm5.5368.63c-.8613 0-1.6376-.1927-2.33-.578-.6913-.3967-1.2353-.9407-1.632-1.632s-.595-1.4733-.595-2.346.1984-1.6547.595-2.346.9407-1.2297 1.632-1.615 1.4677-.578 2.33-.578 1.6377.1927 2.33.578 1.2297.9237 1.615 1.615c.3967.6913.595 1.4733.595 2.346s-.1983 1.6547-.595 2.346c-.3853.6913-.9236 1.2353-1.615 1.632-.6913.3853-1.4676.578-2.33.578zm0-1.07c.6347 0 1.2014-.1417 1.7-.425.5-.2947.9067-.7083 1.2-1.24s.425-1.14.425-1.82-.1416-1.2863-.425-1.82-.68-.9407-1.2-1.224c-.4986-.2947-1.0653-.442-1.7-.442s-1.207.1473-1.717.442c-.4986.2833-.8953.6913-1.2 1.224-.2833.5327-.425 1.14-.425 1.82s.1417 1.2863.425 1.82c.2947.5327.6914.9463 1.2 1.24.5.2833 1.0824.425 1.717.425z" fill="#6c757d"/><path d="M38.0232 63.1V75h-2.26l-5.933-7.225V75h-2.72V63.1h2.278l5.916 7.225V63.1h2.72zm6.3175 2.618c1.4167 0 2.5047.34 3.264 1.02.7594.6687 1.14 1.683 1.14 3.043V75h-2.482v-1.14c-.4986.85-1.428 1.275-2.788 1.275-.7026 0-1.3146-.12-1.836-.357-.5-.238-.9-.5667-1.173-.986s-.408-.8953-.408-1.428c0-.85.3174-1.5187.952-2.006.646-.4873 1.6377-.73 2.975-.73h2.108c0-.578-.1756-1.02-.527-1.326-.3513-.3173-.8783-.476-1.58-.476-.4873 0-.97.0793-1.445.238-.4646.1473-.8613.3513-1.2.612l-.952-1.853c.4987-.3513 1.0937-.6233 1.785-.816.7027-.1927 1.4224-.29 2.16-.29zm-.204 7.633c.4534 0 .8557-.102 1.207-.306.3514-.2153.6007-.527.748-.935v-.935h-1.82c-1.088 0-1.632.357-1.632 1.07 0 .34.1304.612.39.816.272.1927.6404.29 1.105.29zm12.9062 1.207c-.2606.1927-.5836.34-.97.442-.374.0907-.7706.136-1.2.136-1.088 0-1.9323-.2777-2.533-.833-.5893-.5553-.884-1.3713-.884-2.448v-3.757h-1.41v-2.04h1.41V63.83h2.652v2.227h2.278v2.04h-2.278v3.723c0 .3853.0964.6857.29.9.204.204.4874.306.85.306.4194 0 .7764-.1133 1.07-.34l.714 1.87zm4.0217-7.497c.3174-.442.7424-.7763 1.275-1.003.544-.2267 1.1674-.34 1.87-.34v2.448l-.595-.034c-.7593 0-1.3543.2153-1.785.646-.4306.4193-.646 1.054-.646 1.904V75h-2.652v-9.146h2.533v1.207zm4.722-1.207h2.652V75h-2.652v-9.146zm1.326-1.275c-.4873 0-.884-.1417-1.2-.425s-.46-.6347-.46-1.054.153-.7707.46-1.054.7027-.425 1.2-.425.884.136 1.2.408.46.612.46 1.02c0 .442-.153.8103-.46 1.105-.306.2833-.7027.425-1.2.425zm13.0013 1.275V75h-2.516v-1.088c-.3514.3967-.7707.7027-1.258.918-.4874.204-1.0144.306-1.58.306-1.2014 0-2.1534-.3457-2.856-1.037s-1.054-1.717-1.054-3.077v-5.168h2.652v4.777c0 1.4733.6176 2.2 1.853 2.2.6346 0 1.1446-.204 1.53-.612.3853-.4193.578-1.037.578-1.853v-4.522h2.652zm14.17-.136c1.1446 0 2.0513.34 2.72 1.02.68.6687 1.02 1.6773 1.02 3.026V75h-2.652v-4.828c0-.7253-.153-1.2637-.46-1.615-.2947-.3627-.7197-.544-1.275-.544-.6234 0-1.1164.204-1.48.612-.3627.3967-.544.9917-.544 1.785V75h-2.652v-4.828c0-1.4393-.578-2.16-1.734-2.16-.612 0-1.0994.204-1.462.612-.3627.3967-.544.9917-.544 1.785V75h-2.652v-9.146h2.533v1.054c.34-.3853.7536-.68 1.24-.884.4986-.204 1.0426-.306 1.632-.306.646 0 1.2296.1303 1.75.39.5213.2493.9406.6177 1.258 1.105.374-.476.8443-.8443 1.41-1.105.578-.2607 1.207-.39 1.887-.39zm10.3623 4.148h4.454v1.054h-4.454v-1.054z" fill="#343a40"/><path d="M4.97 169.628h4.573v1.41H4.97v-1.41zm9.745-6.528V175H13.03v-10.42h-2.686v-1.48h4.37zm3.742 9.673c.3173 0 .578.113.782.34.2153.215.323.487.323.816 0 .17-.0227.334-.068.493-.034.16-.1077.402-.22.73l-.8 2.363h-1.07l.63-2.533c-.2154-.08-.39-.2-.527-.39-.1247-.193-.187-.414-.187-.663 0-.34.1076-.618.323-.833s.4873-.323.816-.323zm10.1546-4.012c.68.26 1.2013.635 1.564 1.122s.544 1.07.544 1.75c0 .714-.1927 1.337-.578 1.87-.3854.52-.935.924-1.65 1.207s-1.5527.425-2.516.425c-.952 0-1.785-.142-2.5-.425-.7027-.283-1.2467-.686-1.632-1.207-.3854-.533-.578-1.156-.578-1.87 0-.68.1756-1.264.527-1.75.3626-.487.884-.86 1.564-1.122-.544-.26-.9577-.606-1.24-1.037s-.425-.94-.425-1.53c0-.657.1756-1.23.527-1.717.3626-.487.867-.86 1.513-1.122s1.394-.39 2.244-.39c.8613 0 1.615.13 2.26.39.6573.26 1.1616.635 1.513 1.122.3626.487.544 1.06.544 1.717 0 .578-.1474 1.088-.442 1.53-.2834.43-.697.776-1.24 1.037zm-2.635-4.42c-.8047 0-1.4394.176-1.904.527-.4647.34-.697.805-.697 1.394s.2266 1.054.68 1.394c.4646.34 1.105.5 1.92.5.8273 0 1.4733-.17 1.938-.5.476-.34.714-.805.714-1.394s-.2437-1.054-.73-1.394c-.476-.35-1.1164-.527-1.92-.527zm0 9.418c.9406 0 1.683-.193 2.227-.578.544-.397.816-.93.816-1.598 0-.657-.272-1.173-.816-1.547-.544-.385-1.2864-.578-2.227-.578s-1.6774.193-2.2.578c-.5327.374-.8.9-.8 1.547 0 .67.2663 1.2.8 1.598.5326.385 1.2693.578 2.2.578zm11.4334-5.984c.782 0 1.48.147 2.09.442.6233.295 1.1107.72 1.462 1.275.3513.544.527 1.173.527 1.887 0 .748-.187 1.405-.56 1.972-.3627.567-.867 1.01-1.513 1.326-.6347.306-1.3487.46-2.142.46-1.598 0-2.8333-.516-3.706-1.547-.8613-1.03-1.292-2.493-1.292-4.386 0-1.326.2323-2.454.697-3.383.476-.94 1.1333-1.65 1.972-2.125.85-.487 1.836-.73 2.958-.73.578 0 1.122.062 1.632.187.5.113.952.283 1.326.5l-.646 1.326c-.5667-.374-1.326-.56-2.278-.56-1.2353 0-2.2043.385-2.907 1.156-.7027.76-1.054 1.87-1.054 3.332l.017.425c.34-.5.8047-.895 1.394-1.156.6007-.272 1.275-.408 2.023-.408zm-.204 5.984c.782 0 1.4167-.2 1.904-.63s.73-.98.73-1.683-.2493-1.258-.748-1.666c-.4873-.42-1.1447-.63-1.972-.63-.5327 0-1.0087.102-1.428.306-.408.204-.73.482-.97.833-.2267.35-.34.742-.34 1.173 0 .42.1077.805.323 1.156.2267.34.5497.618.97.833.4307.204.9407.306 1.53.306zm15.9152-1.683h-2.26V175h-1.65v-2.924h-6.613v-1.2l6.086-7.786h1.836l-5.83 7.514h4.573v-2.584h1.598v2.584h2.26v1.462zm16.7875-8.976V175h-1.394l-7.14-8.874V175h-1.7v-11.9h1.394l7.14 8.874V163.1h1.7zm11.144 8.925h-6.324l-1.31 2.975h-1.75l5.39-11.9h1.683l5.406 11.9h-1.785l-1.31-2.975zm-.595-1.36l-2.567-5.83-2.567 5.83h5.134zm15.698-7.565V175h-1.394l-7.14-8.874V175h-1.7v-11.9h1.394l7.14 8.874V163.1h1.7zm8.9343 12.036c-1.202 0-2.284-.26-3.247-.782-.964-.533-1.723-1.264-2.2784-2.193-.544-.93-.816-1.966-.816-3.11s.272-2.182.816-3.11c.5554-.93 1.3144-1.655 2.2784-2.176.963-.533 2.045-.8 3.247-.8 1.2 0 2.266.266 3.23.8.963.52 1.717 1.247 2.26 2.176.544.918.816 1.955.816 3.11s-.272 2.2-.816 3.128c-.544.918-1.298 1.643-2.26 2.176-.964.52-2.04.782-3.23.782zm0-1.513c.872 0 1.654-.198 2.346-.595.702-.397 1.252-.94 1.65-1.632.408-.703.612-1.485.612-2.346s-.204-1.638-.612-2.33c-.397-.703-.947-1.252-1.65-1.65-.692-.397-1.474-.595-2.346-.595s-1.666.198-2.38.595c-.703.397-1.258.946-1.666 1.65-.397.69-.595 1.468-.595 2.33s.198 1.643.595 2.346a4.431 4.431 0 0 0 1.666 1.632c.714.397 1.507.595 2.38.595z" fill="#dc3545"/><path d="M219.006 175l-.013-6.63-3.29 5.525h-.598l-3.29-5.486V175h-1.248v-9.1h1.066l3.796 6.396 3.744-6.396h1.066l.013 9.1h-1.248zm6.306-6.955c.953 0 1.68.234 2.184.702.51.468.767 1.166.767 2.093V175h-1.183v-.9c-.208.32-.507.568-.897.74-.38.165-.836.247-1.365.247-.77 0-1.39-.186-1.86-.56-.46-.373-.69-.862-.69-1.47s.22-1.092.663-1.456c.442-.373 1.144-.56 2.106-.56h1.976v-.247c0-.537-.156-.95-.468-1.235s-.77-.43-1.378-.43c-.407 0-.806.07-1.196.208-.4.13-.72.308-.988.533l-.52-.936c.355-.286.78-.503 1.274-.65.494-.156 1.018-.234 1.573-.234zm-.286 6.07c.477 0 .888-.104 1.235-.312.347-.217.598-.52.754-.9v-.962h-1.924c-1.057 0-1.586.355-1.586 1.066 0 .347.134.62.403.82s.64.3 1.118.3zm11.517-6.006l-3.34 7.58c-.295.702-.642 1.196-1.04 1.482-.4.286-.863.43-1.417.43-.338 0-.668-.056-.988-.17-.312-.104-.572-.26-.78-.468l.533-.936c.355.338.767.507 1.235.507.303 0 .554-.082.754-.247.208-.156.394-.43.56-.82l.22-.48-3.042-6.877h1.3l2.405 5.512 2.38-5.512h1.222zm10.493 5.76V175h-6.54v-.884l3.705-3.575c.45-.433.754-.806.9-1.118.156-.32.234-.64.234-.962 0-.477-.17-.845-.507-1.105-.33-.27-.806-.403-1.43-.403-1.006 0-1.78.33-2.327.988l-.884-.767c.355-.433.82-.77 1.39-1.014.58-.243 1.226-.364 1.937-.364.953 0 1.71.23 2.275.69.563.45.845 1.066.845 1.846 0 .485-.104.945-.312 1.378s-.603.927-1.183 1.482l-2.782 2.678h4.667zm3.89-7.97v9.1h-1.287v-7.97h-2.054v-1.13h3.34zm2.862 7.397c.243 0 .442.087.598.26.165.165.247.373.247.624 0 .13-.017.256-.052.377-.026.12-.082.308-.17.56l-.61 1.807h-.82l.48-1.937c-.165-.06-.3-.16-.403-.3-.095-.147-.143-.316-.143-.507 0-.26.082-.472.247-.637s.373-.247.624-.247zm11.962.572V175h-6.54v-.884l3.705-3.575c.45-.433.754-.806.9-1.118.156-.32.234-.64.234-.962 0-.477-.17-.845-.507-1.105-.33-.27-.806-.403-1.43-.403-1.006 0-1.78.33-2.327.988l-.884-.767c.355-.433.82-.77 1.39-1.014.58-.243 1.226-.364 1.937-.364.953 0 1.71.23 2.275.69.563.45.845 1.066.845 1.846 0 .485-.104.945-.312 1.378s-.603.927-1.183 1.482l-2.782 2.678h4.667zm4.748 1.235c-.72 0-1.36-.182-1.924-.546-.554-.373-.992-.9-1.313-1.612s-.48-1.534-.48-2.496.16-1.794.48-2.496.76-1.235 1.313-1.6c.564-.373 1.205-.56 1.924-.56.71 0 1.344.186 1.898.56.564.364 1.006.897 1.326 1.6s.48 1.534.48 2.496-.16 1.794-.48 2.496-.762 1.24-1.326 1.612c-.554.364-1.187.546-1.898.546zm0-1.157c.728 0 1.31-.3 1.742-.897.442-.598.663-1.465.663-2.6s-.22-2.002-.663-2.6c-.433-.598-1.014-.897-1.742-.897-.736 0-1.326.3-1.768.897-.433.598-.65 1.465-.65 2.6s.217 2.002.65 2.6c.442.598 1.032.897 1.768.897zm11.31-.078V175h-6.54v-.884l3.705-3.575c.45-.433.754-.806.9-1.118.156-.32.234-.64.234-.962 0-.477-.17-.845-.507-1.105-.33-.27-.806-.403-1.43-.403-1.005 0-1.78.33-2.327.988l-.884-.767c.355-.433.82-.77 1.39-1.014.58-.243 1.226-.364 1.937-.364.953 0 1.712.23 2.275.69.563.45.845 1.066.845 1.846 0 .485-.104.945-.312 1.378s-.602.927-1.183 1.482l-2.782 2.678h4.667zm4.75 1.235c-.72 0-1.36-.182-1.924-.546-.555-.373-.992-.9-1.313-1.612s-.48-1.534-.48-2.496.16-1.794.48-2.496.758-1.235 1.313-1.6c.563-.373 1.205-.56 1.924-.56.71 0 1.343.186 1.898.56.563.364 1.005.897 1.326 1.6s.48 1.534.48 2.496-.16 1.794-.48 2.496-.763 1.24-1.326 1.612c-.555.364-1.187.546-1.898.546zm0-1.157c.728 0 1.31-.3 1.742-.897.442-.598.663-1.465.663-2.6s-.22-2.002-.663-2.6c-.433-.598-1.014-.897-1.742-.897-.737 0-1.326.3-1.768.897-.433.598-.65 1.465-.65 2.6s.217 2.002.65 2.6c.442.598 1.03.897 1.768.897zm11.265-8.047v9.1h-1.287v-7.97h-2.054v-1.13h3.34zm5.916 3.575c.598 0 1.13.113 1.6.338.477.225.85.55 1.118.975.27.416.403.897.403 1.443 0 .572-.143 1.075-.43 1.508-.277.433-.663.77-1.157 1.014-.485.234-1.03.35-1.638.35-1.222 0-2.166-.394-2.834-1.183-.658-.79-.988-1.907-.988-3.354 0-1.014.178-1.876.533-2.587.364-.72.867-1.26 1.508-1.625.65-.373 1.404-.56 2.262-.56.442 0 .858.048 1.248.143.4.087.728.217 1.014.4l-.494 1.014c-.433-.286-1.014-.43-1.742-.43-.944 0-1.685.295-2.223.884-.537.58-.806 1.43-.806 2.548l.013.325c.26-.4.616-.685 1.066-.884.46-.208.975-.312 1.547-.312zm-.156 4.576c.598 0 1.084-.16 1.456-.48s.56-.75.56-1.287-.2-.962-.572-1.274c-.372-.32-.875-.48-1.508-.48-.407 0-.77.078-1.092.234-.312.156-.56.368-.74.637-.173.27-.26.568-.26.897 0 .32.083.615.247.884.174.26.42.472.74.637.33.156.72.234 1.17.234zm5.112-4.225c-.243 0-.45-.082-.624-.247-.173-.173-.26-.4-.26-.65 0-.25.087-.46.26-.624.173-.173.38-.26.624-.26s.446.082.61.247.247.377.247.637-.087.477-.26.65c-.165.165-.364.247-.598.247zm0 5.252c-.243 0-.45-.082-.624-.247-.173-.173-.26-.4-.26-.65 0-.25.087-.46.26-.624.173-.173.38-.26.624-.26s.446.082.61.247.247.377.247.637-.087.477-.26.65c-.165.165-.364.247-.598.247zm4.908-9.178v9.1h-1.287v-7.97h-2.054v-1.13h3.34zm7.555 4.33c.52.2.918.485 1.196.858s.416.82.416 1.34c0 .546-.148 1.023-.442 1.43-.295.4-.715.706-1.26.923s-1.188.325-1.924.325c-.728 0-1.365-.108-1.91-.325-.538-.217-.954-.524-1.248-.923-.295-.407-.442-.884-.442-1.43 0-.52.134-.966.403-1.34.277-.373.676-.66 1.196-.858-.416-.2-.733-.464-.95-.793s-.325-.72-.325-1.17c0-.503.134-.94.403-1.313.277-.373.663-.66 1.157-.858s1.066-.3 1.716-.3c.658 0 1.235.1 1.73.3.502.2.888.485 1.157.858.277.373.416.8.416 1.313 0 .442-.113.832-.338 1.17-.217.33-.533.594-.95.793zm-2.015-3.38c-.616 0-1.1.134-1.456.403-.356.26-.533.615-.533 1.066s.173.806.52 1.066c.355.26.845.4 1.47.4.632 0 1.126-.13 1.482-.4.364-.26.546-.615.546-1.066s-.187-.806-.56-1.066c-.364-.27-.854-.403-1.47-.403zm0 7.202c.72 0 1.287-.147 1.703-.442.416-.303.624-.71.624-1.222 0-.503-.208-.897-.624-1.183-.416-.295-.984-.442-1.703-.442s-1.283.147-1.7.442c-.408.286-.61.68-.61 1.183 0 .51.203.92.61 1.222.407.295.97.442 1.7.442zm5.675-4.225c-.243 0-.45-.082-.624-.247-.173-.173-.26-.4-.26-.65 0-.25.087-.46.26-.624.173-.173.38-.26.624-.26s.446.082.61.247.247.377.247.637-.087.477-.26.65c-.165.165-.364.247-.598.247zm0 5.252c-.243 0-.45-.082-.624-.247-.173-.173-.26-.4-.26-.65 0-.25.087-.46.26-.624.173-.173.38-.26.624-.26s.446.082.61.247.247.377.247.637-.087.477-.26.65c-.165.165-.364.247-.598.247zm10.004-2.314h-1.73V175h-1.26v-2.236h-5.057v-.9l4.654-5.954h1.404l-4.46 5.746h3.497v-1.976h1.222v1.976h1.73v1.118zm4.706-3.29c.598 0 1.13.113 1.6.338.476.225.85.55 1.118.975.268.416.403.897.403 1.443 0 .572-.143 1.075-.43 1.508-.278.433-.663.77-1.157 1.014-.486.234-1.032.35-1.638.35-1.222 0-2.167-.394-2.834-1.183-.66-.79-.988-1.907-.988-3.354 0-1.014.177-1.876.533-2.587.364-.72.866-1.26 1.508-1.625.65-.373 1.404-.56 2.262-.56.442 0 .858.048 1.248.143.4.087.728.217 1.014.4l-.494 1.014c-.434-.286-1.014-.43-1.742-.43-.945 0-1.686.295-2.223.884-.538.58-.806 1.43-.806 2.548l.013.325c.26-.4.615-.685 1.066-.884.46-.208.975-.312 1.547-.312zm-.156 4.576c.598 0 1.083-.16 1.456-.48s.56-.75.56-1.287-.19-.962-.572-1.274c-.373-.32-.876-.48-1.508-.48-.408 0-.772.078-1.092.234-.312.156-.56.368-.74.637-.174.27-.26.568-.26.897 0 .32.082.615.247.884.173.26.42.472.74.637.33.156.72.234 1.17.234z" fill="#343a40"/><path d="M0 0h347v1H0zm0 198h347v1H0z" fill="#e5e5e5"/><path d="M294.614 34.001C294.516 29.9872 298 27 302.016 27h17.967c4.015 0 7.5 2.9872 7.402 7.001C327.015 49.1213 318.627 59 311 59s-16.015-9.8787-16.386-24.999z" fill="#a3cdff"/><path fill-rule="evenodd" d="M301.44 53.8934c2.862 3.281 6.28 5.1054 9.56 5.1054 7.627 0 16.015-9.8787 16.385-24.999.048-1.952-.752-3.6612-2.048-4.902.1.404.173.8296.18 1.272.264 16.1065-8.473 26.7542-16.392 26.7542-2.588 0-5.264-1.1372-7.684-3.2304z" fill="#000" fill-opacity=".15"/><path d="M324.25 32.25c1.875.875 2.25 6.5 2.75 6.5s2-7 1.625-8.75-1.875-1.9375-3.188-3.25-.812-2.5-2.25-3.3125-3.562-.0625-5.062-.5625-1.188-1.9375-3.125-2.125-3.375.3125-5 .5625-3.563-.9375-5.063-.4375-1.5 1.875-2.687 2.4375-2.625.25-4 1-.938 2.0625-1.875 3.1875-2.417 1.75-3 3.5 1.125 7.75 1.625 7.75 1.562-6.125 2.75-6.5 2.5 1.5 3.812 1.125 1.25-2 2.688-2.1875 3.125 2.5625 4.687 2.1875 3.688-2.3125 5.063-2.3125 3.125 2.3125 4.687 2.4375c1.842.1474 3.688-2.125 5.563-1.25z" fill="#002a65"/><g fill="#000"><path fill-rule="evenodd" d="M327.096 34.752c-.208-1.0816-.69-3.5913-3.224-4.127-1.934-.41-3.06.1635-4.044.6632-.67.34-1.272.6465-2.018.5868-.784-.0627-1.615-.6758-2.422-1.2714-.802-.5917-1.58-1.166-2.266-1.166-.754 0-1.734.5828-2.722 1.17-.814.4843-1.635.9722-2.34 1.1415-.82.1968-1.674-.4667-2.51-1.1148-.756-.5872-1.495-1.1618-2.18-1.0727-.757.0988-1.098.5966-1.443 1.1004-.3.4525-.623.9097-1.244 1.087-.667.1906-1.334-.2-1.985-.581-.63-.3686-1.244-.7283-1.828-.544-.706.223-1.368 2.4803-1.894 4.273-.31 1.0606-.574 1.9587-.77 2.1766.312.983.62 1.6754.79 1.6754.202 0 .497-1.0057.856-2.227.525-1.7927 1.188-4.05 1.894-4.273.584-.1844 1.198.1753 1.827.544.65.381 1.318.7717 1.985.581.62-.1774.935-.6346 1.244-1.087.345-.5038.686-1.0016 1.444-1.1004.683-.089 1.423.4855 2.18 1.0727.834.648 1.69 1.3116 2.508 1.1148.706-.1693 1.526-.6572 2.34-1.1415.99-.5882 1.97-1.17 2.723-1.17.685 0 1.463.5744 2.265 1.166.807.5956 1.638 1.2087 2.422 1.2714.798.064 1.597-.3266 2.4-.7185 1.048-.5125 2.1-1.0273 3.164-.5315 1.212.5658 1.797 3.1176 2.195 4.8505.217.947.378 1.6495.555 1.6495.5 0 2-7 1.625-8.75-.107-.4966-.304-.8674-.56-1.1737.182 2.0445-.584 6.4237-.815 6.4237-.055 0-.092-.1917-.15-.498z" fill-opacity=".35"/><path d="M302.83 41.25h16.343c.522 0 .885.5212.703 1.011l-.887 2.3862c-.218.5877-.78.9777-1.406.9777h-3.914c-.627 0-1.188-.4-1.406-.9777l-.9-2.3973h-.743l-.89 2.3973c-.218.5877-.78.9777-1.406.9777h-3.914c-.627 0-1.188-.4-1.406-.9777l-.886-2.3862c-.182-.49.18-1.011.703-1.011z"/></g><path d="M319.35 42.2402l-6.042 2.8174a1 1 0 0 0 .361.0674h3.914c.418 0 .792-.26.938-.6518l.83-2.233zm-10.08 2.233l.82-2.2052-6.004 2.7997c.105.0373.218.0573.334.0573h3.914a1 1 0 0 0 .937-.6518z" fill="#fff"/><g fill-rule="evenodd"><path d="M311 52.3748c2.625 0 4.125-1.875 4.125-3.375s-1.9-.625-4.125-.625-4.125-.875-4.125.625 1.5 3.375 4.125 3.375z" fill="#000" fill-opacity=".3"/><path d="M314.43 48.589l-.03.3692c-.016.1837-.114.3496-.28.4298-.45.2168-1.49.611-3.12.611-1.62 0-2.656-.3886-3.1-.6063-.172-.0825-.274-.2545-.3-.4444l-.03-.3592c.244-.1334.707-.052 1.33.0573.58.1017 1.295.2277 2.1.2277s1.523-.126 2.1-.2277c.622-.1094 1.085-.1908 1.33-.0573z" fill="#fff"/><path d="M314.024 50.6705c-.614.736-1.668 1.2046-3.024 1.2046-.26 0-.506-.017-.742-.0498.102-.7415 1.207-1.3253 2.555-1.3253.438 0 .85.0617 1.21.1705z" fill="#ff5858"/></g><circle cx="323.625" cy="55.625" r="5.375" fill="#fff"/><circle cx="323.625" cy="55.625" r="4.5" fill="#1a82ff"/><path d="M325.542 56.6404c.528 0 .958-.4266.958-.957a.955.955 0 0 0-.958-.957c-.72 0-.96-.2392-.96-.957 0-.5275-.43-.957-.958-.957s-.958.4266-.958.957c0 .7177-.24.957-.96.957-.528 0-.958.4266-.958.957s.43.957.958.957.96-.4266.96-.957c0-.7177.24-.957.958-.957s.958.2393.958.957c0 .5275.43.957.96.957zm-1.917 1.8096a.958.958 0 1 0-.958-.957.958.958 0 0 0 .958.957z" fill="#fefefe"/></svg>