<svg xmlns="http://www.w3.org/2000/svg" width="264" height="286" fill="none" xmlns:v="https://vecta.io/nano"><g clip-path="url(#A)" fill-rule="evenodd"><path d="M255.037 75.3776c20.59 15.772 33.878 33.4054 37.105 48.8204l.787 3.758 3.423 1.737c14.266 7.24 23.037 16.61 28.03 26.732 5.03 10.194 6.49 21.7 5.202 33.483-2.36 21.613-13.842 43.134-27.106 56.694-18.06-11.673-30.765-26.933-37.8-41.63-7.874-16.424-8.025-30.493-3.425-38.46l12.167-21.074-22.298 9.744c-23.087 10.088-57.487 9.052-95.73-1.733-36.164-10.198-74.53-28.78-107.633-52.878 12.354-30.0424 31.7056-47.686 53.922-56.74 23.812-9.7047 51.723-9.8534 79.19-3.398 27.438 6.4485 53.828 19.356 74.176 34.9436zM95.6312 29.015c-28.022 11.4202-51.4354 34.2453-65.059 71.609l-2.0252 5.555 4.715 3.566c35.7165 27.016 77.87 47.85 117.776 59.105 32.904 9.278 65.236 12.303 91.353 6.016-1.09 11.634 1.93 24.68 7.848 37.024 9.112 19.005 25.802 38.095 49.285 51.653l4.948 2.856 4.307-3.752c17.853-15.553 33.645-42.937 36.71-71.002 1.548-14.176-.122-28.846-6.757-42.298-6.233-12.634-16.616-23.72-31.846-32.174-5.483-19.585-21.556-38.7453-42.118-54.497-22.113-16.9396-50.565-30.842-80.245-37.8177-29.65-6.9685-61.134-7.1553-88.8908 4.1567z" fill="#3f9"/><path d="M4.2212 258.758c87.606 10.917 185.0678-12.01 218.4678-57.316 0 26.202 38.875 57.316 90.344 57.316 14.236-41.486 0-118.998-70.633-115.177C192.574 87.9034-22.0606 109.21 4.2212 258.758z" fill="#a3cdff"/></g><defs><clipPath id="A"><path fill="#fff" d="M0 0h264v286H0z"/></clipPath></defs></svg>