<svg xmlns="http://www.w3.org/2000/svg" width="622" height="161" fill="none" xmlns:v="https://vecta.io/nano"><style><![CDATA[.B{fill:#000}.C{fill:#fe59af}.D{fill:#0b20a0}.E{fill-rule:evenodd}]]></style><path d="M488.22 47.3516c0-13.3584 10.83-24.1875 24.187-24.1875h80.625c13.36 0 24.188 10.829 24.188 24.1875v64.5004c0 22.264-18.05 40.312-40.313 40.312H528.53c-22.264 0-40.312-18.048-40.312-40.312V47.3516z" class="D"/><path d="M496.5 136.328c7.367 9.628 18.975 15.837 32.034 15.837h48.375c22.264 0 40.313-18.048 40.313-40.312V47.3526c0-8.6144-4.503-16.177-11.284-20.462 2.36 3.7343 3.725 8.1593 3.725 12.9034v68.53c0 20.038-16.243 36.28-36.28 36.28h-52.406c-9.205 0-17.7-3.085-24.476-8.278z" fill-opacity=".35" class="B E"/><path d="M595.552 35.2578c-15.622 24.1875-90.704 42.58-109.348 28.2188S468.064 2 552.72 2c54.17 0 75.08 15.621 64.5 69.0352-12.598-9.0704-19.148-21.416-21.667-35.7774z" class="C"/><g class="E"><path d="M495.273 56.4226c18.644 14.3613 85.664-5.039 101.285-29.2266 2.52 14.3614 7.054 27.715 19.653 36.7852 2.407-12.152 3.184-22.035 2.31-30.0524 2.175 9.6176 1.727 21.813-1.303 37.107-12.598-9.0703-19.148-21.416-21.667-35.7774-15.622 24.1875-90.704 42.58-109.348 28.2188-11.006-8.4774-15.34-28.3675.37-43.243-8.883 12.7-1.43 28.3857 8.7 36.1882z" fill-opacity=".15" class="B"/><path d="M527.177 128.48c-1.006 23.63 1.604 28.722 25.54 28.722s26.39-8.032 25.7-28.722c-.94-28.22-7.732-20.698-25.62-20.66-17.99-.037-24.675-7.558-25.62 20.66zm40.154-12.598c0 6.047 4.032 15.62-2.015 15.62-5.712 0 .504-10.078-12.52-10.078s-6.806 10.078-12.518 10.078c-6.048 0-2.173-9.574-2.173-15.62 6.393 2.52 22.675 2.52 29.225 0z" class="C"/><path d="M527.036 132.65c.46 15.375 5.46 19.01 25.682 19.01 20.15 0 25.21-5.698 25.782-19.84.27 18.22-3.178 25.384-25.782 25.384-22.458 0-26.143-4.483-25.682-24.552zm42.377-14.023c-.102-2.123-.2-4.16-.066-5.77-6.55 2.52-26.864 2.52-33.257 0 .13 1.552.06 3.5-.014 5.543-.145 4.053-.303 8.467 1.06 10.844-.546-1.905-.1-4.778.353-7.683.308-1.978.618-3.97.618-5.68 6.393 2.52 22.675 2.52 29.225 0 0 1.746.336 3.786.67 5.804.5 3.03 1 6.01.325 7.88 1.505-2.243 1.288-6.758 1.088-10.937z" fill-opacity=".15" class="B"/><path d="M521.477 87.664c0-5.2877 4.286-9.5743 9.574-9.5743h9.07c4.564 0 8.383 3.194 9.342 7.469.79-.343 1.897-.666 3.256-.666s2.465.323 3.255.666c.96-4.275 4.778-7.469 9.342-7.469h9.07c5.287 0 9.574 4.2866 9.574 9.5743s-4.287 9.5742-9.574 9.5742h-9.07c-5.277 0-9.557-4.2695-9.574-9.5428-.525-.3067-1.582-.7873-3.023-.7873s-2.498.4806-3.024.7874c-.017 5.2732-4.297 9.5427-9.574 9.5427h-9.07c-5.288 0-9.574-4.2865-9.574-9.5742z" fill="#fff"/><path d="M580.32 82.9787a7.615 7.615 0 0 0-1.432-1.3889l-19.22 11.0962a7.62 7.62 0 0 0 1.543 1.3248l19.108-11.032zm1.065 1.82c.362.8832.56 1.8502.56 2.8637 0 4.1745-3.384 7.5586-7.558 7.5586h-9.07c-.573 0-1.13-.0636-1.666-.184l17.733-10.2382zm-35.332-1.82a7.585 7.585 0 0 0-1.432-1.3889L525.4 92.686a7.62 7.62 0 0 0 1.543 1.3248l19.108-11.032zm1.066 1.82c.36.8832.56 1.8502.56 2.8637 0 4.1745-3.384 7.5586-7.56 7.5586h-9.07c-.572 0-1.13-.0636-1.665-.184l17.733-10.2382z" fill="#9ca2af"/></g><g class="B"><path d="M3.97 34H2.566v-8.928H3.97v1.512h.216c.552-1.176 1.512-1.764 2.88-1.764 1.032 0 1.854.324 2.466.972.612.636.918 1.596.918 2.88V34H9.046v-5.04c0-.936-.2-1.638-.63-2.106s-1-.702-1.7-.702c-.852 0-1.524.294-2.016.882-.48.576-.72 1.35-.72 2.322V34zm16.0975-1.512h-.216c-.288.6-.7 1.044-1.206 1.332-.504.288-1.038.432-1.602.432-.588 0-1.134-.096-1.638-.288a3.973 3.973 0 0 1-1.332-.882c-.372-.396-.666-.876-.882-1.44s-.324-1.218-.324-1.962v-.288c0-.732.108-1.38.324-1.944s.5-1.038.882-1.422c.384-.396.828-.696 1.332-.9s1.038-.306 1.602-.306c.612 0 1.164.138 1.656.414.504.264.9.678 1.188 1.242h.216v-1.404h1.404v7.092c0 .36.162.54.486.54h.45V34h-.954c-.408 0-.744-.132-1.008-.396-.252-.264-.378-.6-.378-1.008v-.108zm-2.88.432c.42 0 .804-.078 1.152-.234.36-.156.666-.378.918-.666s.45-.63.594-1.026c.144-.408.216-.858.216-1.35v-.216c0-.48-.072-.918-.216-1.314-.144-.408-.348-.756-.612-1.044-.252-.288-.558-.5-.918-.666-.348-.168-.726-.252-1.134-.252-.42 0-.804.078-1.152.234s-.654.378-.918.666c-.252.276-.45.618-.594 1.026-.144.396-.216.834-.216 1.314v.288c0 1.02.264 1.818.792 2.394.54.564 1.236.846 2.088.846zM26.013 34H24.61v-8.928h1.404v1.512h.216c.552-1.176 1.512-1.764 2.88-1.764 1.032 0 1.854.324 2.466.972.612.636.918 1.596.918 2.88V34H31.09v-5.04c0-.936-.2-1.638-.63-2.106s-1-.702-1.7-.702c-.852 0-1.524.294-2.016.882-.48.576-.72 1.35-.72 2.322V34zm18.0415-4.356c0 .744-.126 1.404-.378 1.98-.24.564-.564 1.044-.972 1.44-.408.384-.888.678-1.44.882-.54.204-1.104.306-1.692.306-.6 0-1.17-.102-1.7-.306s-1.014-.498-1.422-.882c-.408-.396-.738-.876-1-1.44-.24-.576-.36-1.236-.36-1.98v-.216c0-.732.12-1.38.36-1.944.252-.576.582-1.062 1-1.458.42-.396.9-.696 1.44-.9s1.104-.306 1.692-.306 1.152.102 1.692.306 1.014.504 1.422.9c.42.396.75.882 1 1.458.252.564.378 1.212.378 1.944v.216zm-4.482 3.276c.432 0 .828-.072 1.188-.216a2.867 2.867 0 0 0 .972-.666c.276-.288.492-.63.648-1.026.156-.408.234-.864.234-1.368v-.216c0-.48-.078-.918-.234-1.314-.156-.408-.372-.756-.648-1.044a2.867 2.867 0 0 0-.972-.666c-.372-.168-.768-.252-1.188-.252s-.816.084-1.188.252a2.867 2.867 0 0 0-.972.666c-.276.288-.492.636-.648 1.044-.156.396-.234.834-.234 1.314v.216c0 .504.078.96.234 1.368.156.396.372.738.648 1.026s.594.5.954.666c.372.144.774.216 1.206.216zM46.4 34.864h8.388v1.296H46.4v-1.296zm14.5495-2.268v-10.53h-.216l-2.07 4.734h-1.494v-.108l2.358-5.292h2.934v11.196h3.564V34h-8.64v-1.404h3.564zm14.6575.036h-.216c-.144.276-.33.516-.558.72-.216.204-.456.372-.72.504a3.098 3.098 0 0 1-.81.288c-.288.072-.564.108-.828.108-.6 0-1.158-.102-1.674-.306a4.123 4.123 0 0 1-1.368-.882c-.384-.384-.7-.858-.918-1.422-.216-.576-.324-1.23-.324-1.962v-.288c0-.72.114-1.362.342-1.926.228-.576.534-1.056.918-1.44a3.81 3.81 0 0 1 1.35-.9c.516-.204 1.062-.306 1.638-.306.612 0 1.182.138 1.7.414.54.264.954.678 1.242 1.242h.216V21.4h1.404V34h-1.404v-1.368zm-2.988.288c.42 0 .8-.078 1.17-.234s.672-.378.936-.666c.276-.288.492-.63.648-1.026.156-.408.234-.858.234-1.35v-.216c0-.48-.078-.918-.234-1.314-.156-.408-.372-.756-.648-1.044-.264-.288-.582-.5-.954-.666-.36-.168-.744-.252-1.152-.252-.42 0-.816.078-1.188.234-.36.156-.678.378-.954.666-.264.288-.474.63-.63 1.026-.144.396-.216.834-.216 1.314v.288c0 .504.072.954.216 1.35.156.396.366.738.63 1.026.276.276.594.492.954.648.36.144.756.216 1.188.216zM81.1204 34h-1.404V21.4h1.404v5.292h.216c.276-.576.66-1.032 1.152-1.368.504-.336 1.116-.504 1.836-.504.972 0 1.758.324 2.358.972.612.636.918 1.596.918 2.88V34h-1.404v-5.04c0-.936-.2-1.638-.63-2.106s-1-.702-1.7-.702c-.852 0-1.524.294-2.016.882-.48.576-.72 1.35-.72 2.322V34zm9.5275-8.928h2.754v-2.268c0-.408.126-.744.378-1.008.264-.264.6-.396 1.008-.396h3.528v1.296h-3.024c-.324 0-.486.18-.486.54v1.836h3.726v1.296h-3.726V34h-1.404v-7.632h-2.754v-1.296zm17.591 7.416h-.216c-.288.6-.7 1.044-1.206 1.332-.504.288-1.038.432-1.602.432-.588 0-1.134-.096-1.638-.288a3.973 3.973 0 0 1-1.332-.882c-.372-.396-.666-.876-.882-1.44s-.324-1.218-.324-1.962v-.288c0-.732.108-1.38.324-1.944s.5-1.038.882-1.422c.384-.396.828-.696 1.332-.9s1.038-.306 1.602-.306c.612 0 1.164.138 1.656.414.504.264.9.678 1.188 1.242h.216v-1.404h1.404v7.092c0 .36.162.54.486.54h.45V34h-.954c-.408 0-.744-.132-1.008-.396-.252-.264-.378-.6-.378-1.008v-.108zm-2.88.432c.42 0 .804-.078 1.152-.234.36-.156.666-.378.918-.666s.45-.63.594-1.026c.144-.408.216-.858.216-1.35v-.216c0-.48-.072-.918-.216-1.314-.144-.408-.348-.756-.612-1.044-.252-.288-.558-.5-.918-.666-.348-.168-.726-.252-1.134-.252-.42 0-.804.078-1.152.234s-.654.378-.918.666c-.252.276-.45.618-.594 1.026-.144.396-.216.834-.216 1.314v.288c0 1.02.264 1.818.792 2.394.54.564 1.236.846 2.088.846zM113.86 34h-1.404V21.4h1.404v5.076h.216c.312-.54.744-.948 1.296-1.224.552-.288 1.152-.432 1.8-.432.552 0 1.074.102 1.566.306s.924.498 1.296.882c.384.384.684.858.9 1.422.228.564.342 1.206.342 1.926v.36c0 .732-.108 1.38-.324 1.944s-.516 1.038-.9 1.422c-.372.384-.8.678-1.314.882-.504.192-1.038.288-1.602.288-.288 0-.582-.036-.882-.108a3.657 3.657 0 0 1-.864-.288c-.264-.144-.5-.312-.738-.504-.228-.204-.42-.444-.576-.72h-.216V34zm2.988-1.08c.432 0 .828-.072 1.188-.216.36-.156.672-.372.936-.648.276-.276.486-.612.63-1.008.156-.396.234-.84.234-1.332v-.36c0-.48-.078-.912-.234-1.296-.144-.396-.354-.732-.63-1.008-.264-.288-.582-.5-.954-.666-.36-.156-.75-.234-1.17-.234s-.8.084-1.17.252c-.36.156-.678.378-.954.666-.264.288-.474.636-.63 1.044-.156.396-.234.834-.234 1.314v.216c0 .492.078.942.234 1.35.156.396.366.738.63 1.026.276.288.594.5.954.666s.75.234 1.17.234zm9.257-4.14h.306l3.402-3.708h1.728v.108l-3.708 4.086v.324l4.14 4.302V34h-1.728l-3.798-3.924h-.342V34h-1.404V21.4h1.404v7.38zm8.412-3.708h2.808V21.4h1.404v3.672h3.456v1.296h-3.456v5.796c0 .36.162.54.486.54h2.538V34h-3.042c-.408 0-.744-.132-1.008-.396-.252-.264-.378-.6-.378-1.008v-6.228h-2.808v-1.296zM3.646 63H2.242V50.4h1.404v5.076h.216c.312-.54.744-.948 1.296-1.224.552-.288 1.152-.432 1.8-.432.552 0 1.074.102 1.566.306s.924.498 1.296.882c.384.384.684.858.9 1.422.228.564.342 1.206.342 1.926v.36c0 .732-.108 1.38-.324 1.944s-.516 1.038-.9 1.422c-.372.384-.8.678-1.314.882-.504.192-1.038.288-1.602.288-.288 0-.582-.036-.882-.108a3.657 3.657 0 0 1-.864-.288c-.264-.144-.5-.312-.738-.504-.228-.204-.42-.444-.576-.72h-.216V63zm2.988-1.08c.432 0 .828-.072 1.188-.216.36-.156.672-.372.936-.648.276-.276.486-.612.63-1.008.156-.396.234-.84.234-1.332v-.36c0-.48-.078-.912-.234-1.296-.144-.396-.354-.732-.63-1.008-.264-.288-.582-.5-.954-.666-.36-.156-.75-.234-1.17-.234s-.8.084-1.17.252c-.36.156-.678.378-.954.666-.264.288-.474.636-.63 1.044-.156.396-.234.834-.234 1.314v.216c0 .492.078.942.234 1.35.156.396.366.738.63 1.026.276.288.594.5.954.666s.75.234 1.17.234zm6.7915-4.86V50.4h7.884v1.404h-6.408v4.5h.216c.12-.24.276-.468.468-.684.192-.228.414-.426.666-.594.264-.168.558-.3.882-.396.324-.108.684-.162 1.08-.162.576 0 1.104.096 1.584.288.492.192.912.462 1.26.8s.618.768.8 1.26c.204.492.306 1.038.306 1.638v.324c0 .6-.096 1.17-.288 1.7-.192.528-.474 1.002-.846 1.422-.372.408-.834.732-1.386.972s-1.188.36-1.908.36c-.732 0-1.38-.108-1.944-.324s-1.038-.516-1.422-.9-.678-.834-.882-1.35c-.192-.528-.288-1.098-.288-1.7v-.504h1.512v.396c0 .996.276 1.746.828 2.25.564.492 1.296.738 2.196.738.48 0 .9-.084 1.26-.252.372-.18.678-.414.918-.702.252-.3.438-.642.558-1.026.12-.396.18-.804.18-1.224v-.108c0-.372-.066-.72-.198-1.044-.12-.324-.294-.606-.522-.846-.216-.24-.486-.426-.8-.558-.312-.144-.654-.216-1.026-.216-.252 0-.486.036-.702.108-.204.072-.384.168-.54.288-.156.108-.288.234-.396.378-.096.144-.162.282-.198.414h-2.844zm12.4795 2.268c0 .78.24 1.4.72 1.9.48.468 1.146.702 1.998.702.408 0 .78-.072 1.116-.216.348-.144.642-.348.882-.612.252-.276.444-.594.576-.954.144-.372.216-.786.216-1.242v-1.872h-.216c-.276.528-.672.942-1.188 1.242s-1.116.45-1.8.45c-.588 0-1.128-.1-1.62-.27s-.918-.444-1.278-.792c-.36-.36-.642-.792-.846-1.296-.192-.504-.288-1.08-.288-1.728v-.216c0-.624.108-1.194.324-1.7.216-.528.516-.978.9-1.35.396-.384.858-.678 1.386-.882.54-.216 1.128-.324 1.764-.324s1.218.108 1.746.324c.54.204 1.002.492 1.386.864.396.372.702.816.918 1.332s.324 1.08.324 1.692v4.536c0 .672-.114 1.278-.342 1.818-.216.528-.522.984-.918 1.368-.384.372-.84.66-1.368.864s-1.098.306-1.7.306-1.176-.1-1.692-.27-.96-.438-1.332-.774c-.372-.348-.66-.762-.864-1.242-.204-.492-.306-1.038-.306-1.638h1.512zm2.646-7.848c-.432 0-.828.072-1.188.216-.348.144-.648.348-.9.612s-.444.576-.576.936c-.132.348-.198.726-.198 1.134v.216c0 .42.072.804.216 1.152.144.336.342.63.594.882.252.24.552.426.9.558s.732.198 1.152.198c.408 0 .786-.066 1.134-.198.348-.144.648-.336.9-.576.264-.24.468-.528.612-.864s.216-.696.216-1.08v-.342c0-.396-.066-.768-.198-1.116s-.324-.648-.576-.9c-.252-.264-.558-.468-.918-.612-.348-.144-.738-.216-1.17-.216zm10.3555 10.116v-10.53h-.216l-2.07 4.734h-1.494v-.108l2.358-5.292h2.934v11.196h3.564V63h-8.64v-1.404h3.564zM53.24 54.072c0-.78-.24-1.404-.72-1.872-.48-.48-1.146-.72-1.998-.72-.408 0-.786.072-1.134.216-.336.144-.63.354-.882.63-.24.264-.432.582-.576.954-.132.372-.198.78-.198 1.224v1.872h.216c.288-.528.696-.942 1.224-1.242.54-.3 1.14-.45 1.8-.45.576 0 1.1.096 1.602.288.492.18.912.45 1.26.8.36.36.636.798.828 1.314.204.504.306 1.08.306 1.728v.216c0 .624-.114 1.194-.342 1.7-.216.516-.522.96-.918 1.332-.384.372-.846.66-1.386.864-.528.204-1.104.306-1.728.306s-1.206-.102-1.746-.306c-.528-.204-1-.486-1.386-.846-.384-.372-.7-.8-.918-1.314-.216-.516-.324-1.08-.324-1.692v-4.6c0-.66.114-1.26.342-1.8s.54-.996.936-1.368a4.123 4.123 0 0 1 1.368-.882c.528-.204 1.092-.306 1.692-.306s1.158.1 1.674.27.96.444 1.332.792c.372.336.66.75.864 1.242.216.48.324 1.02.324 1.62H53.24zm-2.646 7.848c.432 0 .822-.066 1.17-.198.36-.144.666-.342.918-.594s.444-.552.576-.9.198-.732.198-1.152v-.216c0-.42-.072-.804-.216-1.152s-.342-.648-.594-.9-.558-.444-.918-.576c-.348-.144-.726-.216-1.134-.216s-.786.072-1.134.216-.654.342-.918.594c-.252.252-.45.546-.594.882s-.216.696-.216 1.08v.342c0 .396.066.768.198 1.116a2.554 2.554 0 0 0 .576.882c.252.252.552.45.9.594.36.132.756.198 1.188.198zm15.5035-3.276c0 .744-.126 1.404-.378 1.98-.24.564-.564 1.044-.972 1.44-.408.384-.888.678-1.44.882-.54.204-1.104.306-1.692.306-.6 0-1.17-.102-1.7-.306s-1.014-.498-1.422-.882c-.408-.396-.738-.876-1-1.44-.24-.576-.36-1.236-.36-1.98v-.216c0-.732.12-1.38.36-1.944.252-.576.582-1.062 1-1.458.42-.396.9-.696 1.44-.9s1.104-.306 1.692-.306 1.152.102 1.692.306 1.014.504 1.422.9c.42.396.75.882 1 1.458.252.564.378 1.212.378 1.944v.216zm-4.482 3.276c.432 0 .828-.072 1.188-.216a2.867 2.867 0 0 0 .972-.666c.276-.288.492-.63.648-1.026.156-.408.234-.864.234-1.368v-.216c0-.48-.078-.918-.234-1.314-.156-.408-.372-.756-.648-1.044a2.867 2.867 0 0 0-.972-.666c-.372-.168-.768-.252-1.188-.252s-.816.084-1.188.252a2.867 2.867 0 0 0-.972.666c-.276.288-.492.636-.648 1.044-.156.396-.234.834-.234 1.314v.216c0 .504.078.96.234 1.368.156.396.372.738.648 1.026s.594.5.954.666c.372.144.774.216 1.206.216zm13.5595-.54h-.216c-.288.576-.666 1.032-1.134 1.368s-1.062.504-1.782.504c-.492 0-.948-.084-1.368-.252-.408-.156-.762-.396-1.062-.72-.288-.324-.516-.726-.684-1.206-.156-.48-.234-1.038-.234-1.674v-5.328h1.404v5.148c0 .936.192 1.62.576 2.052s.972.648 1.764.648c.852 0 1.518-.288 1.998-.864.492-.588.738-1.368.738-2.34v-4.644h1.404v11.124c0 .408-.132.744-.396 1.008-.252.264-.582.396-1 .396h-5.094v-1.296h4.6c.324 0 .486-.18.486-.54V61.38zm12.9655-2.736c0 .744-.126 1.404-.378 1.98-.24.564-.564 1.044-.972 1.44-.408.384-.888.678-1.44.882-.54.204-1.104.306-1.692.306-.6 0-1.17-.102-1.7-.306s-1.014-.498-1.422-.882c-.408-.396-.738-.876-1-1.44-.24-.576-.36-1.236-.36-1.98v-.216c0-.732.12-1.38.36-1.944.252-.576.582-1.062 1-1.458.42-.396.9-.696 1.44-.9s1.104-.306 1.692-.306 1.152.102 1.692.306 1.014.504 1.422.9c.42.396.75.882 1 1.458.252.564.378 1.212.378 1.944v.216zm-4.482 3.276c.432 0 .828-.072 1.188-.216a2.867 2.867 0 0 0 .972-.666c.276-.288.492-.63.648-1.026.156-.408.234-.864.234-1.368v-.216c0-.48-.078-.918-.234-1.314-.156-.408-.372-.756-.648-1.044a2.867 2.867 0 0 0-.972-.666c-.372-.168-.768-.252-1.188-.252s-.816.084-1.188.252a2.867 2.867 0 0 0-.972.666c-.276.288-.492.636-.648 1.044-.156.396-.234.834-.234 1.314v.216c0 .504.078.96.234 1.368.156.396.372.738.648 1.026s.594.5.954.666c.372.144.774.216 1.206.216zm10.8595 1.332c-.636 0-1.212-.084-1.728-.252-.516-.18-.96-.42-1.332-.72-.372-.312-.66-.672-.864-1.08-.192-.42-.288-.876-.288-1.368v-.216c0-.432.066-.816.198-1.152s.306-.63.522-.882.462-.462.738-.63c.288-.168.582-.294.882-.378v-.216c-.276-.084-.534-.2-.774-.378a3.374 3.374 0 0 1-.648-.594c-.18-.228-.324-.486-.432-.774-.108-.3-.162-.624-.162-.972v-.216c0-.48.096-.918.288-1.314a2.994 2.994 0 0 1 .81-1.044c.36-.288.78-.5 1.26-.666.492-.168 1.038-.252 1.638-.252h.108c.588 0 1.128.084 1.62.252.492.156.912.378 1.26.666.36.288.636.636.828 1.044.192.396.288.834.288 1.314v.216c0 .348-.054.672-.162.972-.108.288-.258.546-.45.774-.18.228-.396.426-.648.594-.24.168-.492.294-.756.378v.216c.3.084.588.2.864.378a2.939 2.939 0 0 1 .756.63c.216.252.4.546.522.882s.198.72.198 1.152v.216c0 .492-.102.948-.306 1.368-.192.408-.474.768-.846 1.08-.372.3-.816.54-1.332.72-.516.168-1.092.252-1.728.252h-.324zm.27-1.368c.816 0 1.476-.2 1.98-.63.516-.42.774-.966.774-1.638v-.108c0-.744-.264-1.32-.792-1.728-.516-.408-1.188-.612-2.016-.612h-.108c-.828 0-1.506.204-2.034.612-.516.408-.774.984-.774 1.728v.108c0 .672.252 1.218.756 1.638.516.42 1.182.63 1.998.63h.216zm-.108-6.12c.756 0 1.368-.198 1.836-.594s.702-.894.702-1.494v-.108c0-.612-.234-1.104-.702-1.476-.456-.384-1.068-.576-1.836-.576s-1.386.192-1.854.576c-.456.372-.684.864-.684 1.476v.108c0 .6.234 1.098.702 1.494s1.08.594 1.836.594zM103.163 63h-1.404v-8.928h1.404v1.512h.216c.552-1.176 1.512-1.764 2.88-1.764 1.032 0 1.854.324 2.466.972.612.636.918 1.596.918 2.88V63h-1.404v-5.04c0-.936-.2-1.638-.63-2.106s-1-.702-1.7-.702c-.852 0-1.524.294-2.016.882-.48.576-.72 1.35-.72 2.322V63zm10.698 0h-1.404V50.4h1.404v5.076h.216c.312-.54.744-.948 1.296-1.224.552-.288 1.152-.432 1.8-.432.552 0 1.074.102 1.566.306s.924.498 1.296.882c.384.384.684.858.9 1.422.228.564.342 1.206.342 1.926v.36c0 .732-.108 1.38-.324 1.944s-.516 1.038-.9 1.422c-.372.384-.8.678-1.314.882-.504.192-1.038.288-1.602.288-.288 0-.582-.036-.882-.108a3.657 3.657 0 0 1-.864-.288c-.264-.144-.5-.312-.738-.504-.228-.204-.42-.444-.576-.72h-.216V63zm2.988-1.08c.432 0 .828-.072 1.188-.216.36-.156.672-.372.936-.648.276-.276.486-.612.63-1.008.156-.396.234-.84.234-1.332v-.36c0-.48-.078-.912-.234-1.296-.144-.396-.354-.732-.63-1.008-.264-.288-.582-.5-.954-.666-.36-.156-.75-.234-1.17-.234s-.8.084-1.17.252c-.36.156-.678.378-.954.666-.264.288-.474.636-.63 1.044-.156.396-.234.834-.234 1.314v.216c0 .492.078.942.234 1.35.156.396.366.738.63 1.026.276.288.594.5.954.666s.75.234 1.17.234zm13.325-7.848h1.404V63h-1.404v-1.62h-.216c-.288.576-.666 1.032-1.134 1.368s-1.062.504-1.782.504c-.492 0-.948-.084-1.368-.252-.408-.156-.762-.396-1.062-.72-.288-.324-.516-.726-.684-1.206-.156-.48-.234-1.038-.234-1.674v-5.328h1.404v5.148c0 .936.192 1.62.576 2.052s.972.648 1.764.648c.852 0 1.518-.288 1.998-.864.492-.588.738-1.368.738-2.34v-4.644zM143.4 63h-1.404v-6.408c0-.42-.096-.762-.288-1.026-.192-.276-.498-.414-.918-.414-.396 0-.72.15-.972.45-.24.288-.36.738-.36 1.35V63h-1.404v-6.48c0-.396-.108-.72-.324-.972-.216-.264-.504-.396-.864-.396-.432 0-.768.156-1.008.468-.228.312-.342.72-.342 1.224V63h-1.404v-8.928h1.404v.972h.216c.156-.42.384-.726.684-.918.3-.204.654-.306 1.062-.306.432 0 .786.114 1.062.342.288.228.486.522.594.882h.216c.408-.816 1.056-1.224 1.944-1.224.672 0 1.188.216 1.548.648.372.42.558.972.558 1.656V63zM2.476 83.072H5.23v-2.268c0-.408.126-.744.378-1.008.264-.264.6-.396 1.008-.396h3.528v1.296H7.12c-.324 0-.486.18-.486.54v1.836h3.726v1.296H6.634V92H5.23v-7.632H2.476v-1.296zm17.4655 0h1.602l-2.628 4.248v.216L21.7595 92h-1.638l-2.43-3.924h-.324L14.9375 92h-1.638l2.844-4.464v-.216l-2.628-4.248h1.602l2.25 3.708h.324l2.25-3.708zM25.69 92h-1.404V79.4h1.404v5.076h.216c.312-.54.744-.948 1.296-1.224.552-.288 1.152-.432 1.8-.432.552 0 1.074.102 1.566.306s.924.498 1.296.882c.384.384.684.858.9 1.422.228.564.342 1.206.342 1.926v.36c0 .732-.108 1.38-.324 1.944s-.516 1.038-.9 1.422c-.372.384-.8.678-1.314.882-.504.192-1.038.288-1.602.288-.288 0-.582-.036-.882-.108a3.657 3.657 0 0 1-.864-.288c-.264-.144-.5-.312-.738-.504-.228-.204-.42-.444-.576-.72h-.216V92zm2.988-1.08c.432 0 .828-.072 1.188-.216.36-.156.672-.372.936-.648.276-.276.486-.612.63-1.008.156-.396.234-.84.234-1.332v-.36c0-.48-.078-.912-.234-1.296-.144-.396-.354-.732-.63-1.008-.264-.288-.582-.5-.954-.666-.36-.156-.75-.234-1.17-.234s-.8.084-1.17.252c-.36.156-.678.378-.954.666-.264.288-.474.636-.63 1.044-.156.396-.234.834-.234 1.314v.216c0 .492.078.942.234 1.35.156.396.366.738.63 1.026.276.288.594.5.954.666s.75.234 1.17.234zm13.8655-.288h-.216c-.144.276-.33.516-.558.72-.216.204-.456.372-.72.504a3.098 3.098 0 0 1-.81.288c-.288.072-.564.108-.828.108-.6 0-1.158-.102-1.674-.306a4.123 4.123 0 0 1-1.368-.882c-.384-.384-.7-.858-.918-1.422-.216-.576-.324-1.23-.324-1.962v-.288c0-.72.114-1.362.342-1.926.228-.576.534-1.056.918-1.44a3.81 3.81 0 0 1 1.35-.9c.516-.204 1.062-.306 1.638-.306.612 0 1.182.138 1.7.414.54.264.954.678 1.242 1.242h.216V79.4h1.404V92h-1.404v-1.368zm-2.988.288c.42 0 .8-.078 1.17-.234s.672-.378.936-.666c.276-.288.492-.63.648-1.026.156-.408.234-.858.234-1.35v-.216c0-.48-.078-.918-.234-1.314-.156-.408-.372-.756-.648-1.044-.264-.288-.582-.5-.954-.666-.36-.168-.744-.252-1.152-.252-.42 0-.816.078-1.188.234-.36.156-.678.378-.954.666-.264.288-.474.63-.63 1.026-.144.396-.216.834-.216 1.314v.288c0 .504.072.954.216 1.35.156.396.366.738.63 1.026.276.276.594.492.954.648.36.144.756.216 1.188.216zM53.24 83.072c0-.78-.24-1.404-.72-1.872-.48-.48-1.146-.72-1.998-.72-.408 0-.786.072-1.134.216-.336.144-.63.354-.882.63-.24.264-.432.582-.576.954-.132.372-.198.78-.198 1.224v1.872h.216c.288-.528.696-.942 1.224-1.242.54-.3 1.14-.45 1.8-.45.576 0 1.1.096 1.602.288.492.18.912.45 1.26.8.36.36.636.798.828 1.314.204.504.306 1.08.306 1.728v.216c0 .624-.114 1.194-.342 1.7-.216.516-.522.96-.918 1.332-.384.372-.846.66-1.386.864-.528.204-1.104.306-1.728.306s-1.206-.102-1.746-.306c-.528-.204-1-.486-1.386-.846-.384-.372-.7-.8-.918-1.314-.216-.516-.324-1.08-.324-1.692v-4.6c0-.66.114-1.26.342-1.8s.54-.996.936-1.368a4.123 4.123 0 0 1 1.368-.882c.528-.204 1.092-.306 1.692-.306s1.158.1 1.674.27.96.444 1.332.792c.372.336.66.75.864 1.242.216.48.324 1.02.324 1.62H53.24zm-2.646 7.848c.432 0 .822-.066 1.17-.198.36-.144.666-.342.918-.594s.444-.552.576-.9.198-.732.198-1.152v-.216c0-.42-.072-.804-.216-1.152s-.342-.648-.594-.9-.558-.444-.918-.576c-.348-.144-.726-.216-1.134-.216s-.786.072-1.134.216-.654.342-.918.594c-.252.252-.45.546-.594.882s-.216.696-.216 1.08v.342c0 .396.066.768.198 1.116a2.554 2.554 0 0 0 .576.882c.252.252.552.45.9.594.36.132.756.198 1.188.198zm13.9915-.288h-.216c-.144.276-.33.516-.558.72-.216.204-.456.372-.72.504a3.098 3.098 0 0 1-.81.288c-.288.072-.564.108-.828.108-.6 0-1.158-.102-1.674-.306a4.123 4.123 0 0 1-1.368-.882c-.384-.384-.7-.858-.918-1.422-.216-.576-.324-1.23-.324-1.962v-.288c0-.72.114-1.362.342-1.926.228-.576.534-1.056.918-1.44a3.81 3.81 0 0 1 1.35-.9c.516-.204 1.062-.306 1.638-.306.612 0 1.182.138 1.7.414.54.264.954.678 1.242 1.242h.216V79.4h1.404V92h-1.404v-1.368zm-2.988.288c.42 0 .8-.078 1.17-.234s.672-.378.936-.666c.276-.288.492-.63.648-1.026.156-.408.234-.858.234-1.35v-.216c0-.48-.078-.918-.234-1.314-.156-.408-.372-.756-.648-1.044-.264-.288-.582-.5-.954-.666-.36-.168-.744-.252-1.152-.252-.42 0-.816.078-1.188.234-.36.156-.678.378-.954.666-.264.288-.474.63-.63 1.026-.144.396-.216.834-.216 1.314v.288c0 .504.072.954.216 1.35.156.396.366.738.63 1.026.276.276.594.492.954.648.36.144.756.216 1.188.216zm13.8835-.288h-.216c-.288.54-.684.948-1.188 1.224-.492.264-1.032.396-1.62.396-.6 0-1.164-.102-1.692-.306s-.996-.498-1.404-.882c-.396-.384-.714-.858-.954-1.422-.228-.576-.342-1.23-.342-1.962v-.288c0-.72.12-1.362.36-1.926.24-.576.558-1.056.954-1.44.396-.396.858-.696 1.386-.9s1.08-.306 1.656-.306c.648 0 1.212.144 1.692.432.492.276.876.684 1.152 1.224h.216v-1.404h1.404v11.124c0 .408-.132.744-.396 1.008-.252.264-.582.396-1 .396h-5.814v-1.296h5.3c.324 0 .486-.18.486-.54v-3.132zm-2.988.288c.42 0 .8-.078 1.17-.234s.672-.378.936-.666c.276-.288.492-.63.648-1.026.156-.408.234-.858.234-1.35v-.216c0-.48-.078-.918-.234-1.314-.156-.408-.372-.756-.648-1.044-.264-.288-.582-.5-.954-.666-.36-.168-.744-.252-1.152-.252-.42 0-.816.078-1.188.234-.36.156-.678.378-.954.666-.264.288-.474.63-.63 1.026-.144.396-.216.834-.216 1.314v.288c0 .504.072.954.216 1.35.156.396.366.738.63 1.026.276.276.594.492.954.648.36.144.756.216 1.188.216zm11.0035 1.332c-.636 0-1.212-.084-1.728-.252-.516-.18-.96-.42-1.332-.72-.372-.312-.66-.672-.864-1.08-.192-.42-.288-.876-.288-1.368v-.216c0-.432.066-.816.198-1.152s.306-.63.522-.882.462-.462.738-.63c.288-.168.582-.294.882-.378v-.216c-.276-.084-.534-.2-.774-.378a3.374 3.374 0 0 1-.648-.594c-.18-.228-.324-.486-.432-.774-.108-.3-.162-.624-.162-.972v-.216c0-.48.096-.918.288-1.314a2.994 2.994 0 0 1 .81-1.044c.36-.288.78-.5 1.26-.666.492-.168 1.038-.252 1.638-.252h.108c.588 0 1.128.084 1.62.252.492.156.912.378 1.26.666.36.288.636.636.828 1.044.192.396.288.834.288 1.314v.216c0 .348-.054.672-.162.972-.108.288-.258.546-.45.774-.18.228-.396.426-.648.594-.24.168-.492.294-.756.378v.216c.3.084.588.2.864.378a2.939 2.939 0 0 1 .756.63c.216.252.4.546.522.882s.198.72.198 1.152v.216c0 .492-.102.948-.306 1.368-.192.408-.474.768-.846 1.08-.372.3-.816.54-1.332.72-.516.168-1.092.252-1.728.252h-.324zm.27-1.368c.816 0 1.476-.2 1.98-.63.516-.42.774-.966.774-1.638v-.108c0-.744-.264-1.32-.792-1.728-.516-.408-1.188-.612-2.016-.612h-.108c-.828 0-1.506.204-2.034.612-.516.408-.774.984-.774 1.728v.108c0 .672.252 1.218.756 1.638.516.42 1.182.63 1.998.63h.216zm-.108-6.12c.756 0 1.368-.198 1.836-.594s.702-.894.702-1.494v-.108c0-.612-.234-1.104-.702-1.476-.456-.384-1.068-.576-1.836-.576s-1.386.192-1.854.576c-.456.372-.684.864-.684 1.476v.108c0 .6.234 1.098.702 1.494s1.08.594 1.836.594zm8.1055 3.204c.036.888.312 1.602.828 2.142s1.236.8 2.16.8c.42 0 .786-.048 1.098-.144s.576-.228.792-.396c.228-.168.408-.36.54-.576a3.296 3.296 0 0 0 .342-.72l1.332.36c-.252.828-.72 1.506-1.404 2.034-.672.516-1.584.774-2.736.774-.636 0-1.224-.108-1.764-.324-.528-.228-.984-.546-1.368-.954s-.684-.894-.9-1.458-.324-1.188-.324-1.872v-.432c0-.624.108-1.206.324-1.746.228-.54.54-1.002.936-1.386.396-.396.858-.702 1.386-.918.54-.228 1.122-.342 1.746-.342.732 0 1.362.138 1.9.414.54.264.978.594 1.314 1 .348.396.6.828.756 1.296.168.468.252.9.252 1.296v1.152h-7.2zm2.988-3.816c-.396 0-.768.066-1.116.198-.336.12-.636.294-.9.522-.252.228-.462.498-.63.8-.156.3-.258.63-.306 1h5.76c-.024-.384-.12-.732-.288-1.044-.156-.312-.366-.576-.63-.792-.252-.216-.546-.384-.882-.504-.324-.12-.66-.18-1.008-.18zm8.861 1.224c0 .432.18.762.54 1 .372.228 1.044.378 2.016.45 1.044.084 1.836.336 2.376.756.552.408.828 1.008.828 1.8v.108c0 .432-.1.822-.27 1.17-.168.336-.408.624-.72.864-.3.24-.672.42-1.116.54-.432.132-.906.198-1.422.198-.696 0-1.296-.1-1.8-.27-.492-.192-.906-.438-1.242-.738-.324-.312-.57-.66-.738-1.044-.168-.396-.264-.792-.288-1.188l1.332-.324c.06.684.324 1.236.792 1.656.468.408 1.092.612 1.872.612.66 0 1.188-.126 1.584-.378.408-.264.612-.63.612-1.098 0-.504-.198-.864-.594-1.08s-1.038-.354-1.926-.414c-1.032-.072-1.824-.312-2.376-.72s-.828-1.002-.828-1.782v-.108c0-.42.1-.786.27-1.098a2.455 2.455 0 0 1 .72-.81c.312-.216.66-.378 1.044-.486s.786-.162 1.206-.162c.588 0 1.104.084 1.548.252.444.156.816.366 1.116.63.3.252.528.546.684.882.168.336.276.672.324 1.008l-1.332.324c-.06-.576-.294-1.026-.702-1.35-.396-.324-.918-.486-1.566-.486-.252 0-.498.03-.738.1-.228.048-.432.126-.612.234s-.324.246-.432.414c-.108.156-.162.342-.162.558zm16.08 5.256h-.216c-.144.276-.33.516-.558.72-.216.204-.456.372-.72.504a3.098 3.098 0 0 1-.81.288c-.288.072-.564.108-.828.108-.6 0-1.158-.102-1.674-.306a4.123 4.123 0 0 1-1.368-.882c-.384-.384-.7-.858-.918-1.422-.216-.576-.324-1.23-.324-1.962v-.288c0-.72.114-1.362.342-1.926.228-.576.534-1.056.918-1.44a3.81 3.81 0 0 1 1.35-.9c.516-.204 1.062-.306 1.638-.306.612 0 1.182.138 1.7.414.54.264.954.678 1.242 1.242h.216V79.4h1.404V92h-1.404v-1.368zm-2.988.288c.42 0 .8-.078 1.17-.234s.672-.378.936-.666c.276-.288.492-.63.648-1.026.156-.408.234-.858.234-1.35v-.216c0-.48-.078-.918-.234-1.314-.156-.408-.372-.756-.648-1.044-.264-.288-.582-.5-.954-.666-.36-.168-.744-.252-1.152-.252-.42 0-.816.078-1.188.234-.36.156-.678.378-.954.666-.264.288-.474.63-.63 1.026-.144.396-.216.834-.216 1.314v.288c0 .504.072.954.216 1.35.156.396.366.738.63 1.026.276.276.594.492.954.648.36.144.756.216 1.188.216zm14.82 1.08h-2.592l-1.08-8.28h-.216l-1.08 8.28h-2.592l-1.404-8.928H124l1.188 8.28h.216l1.044-8.28h2.592l1.044 8.28h.216l1.188-8.28h1.44L131.524 92zm2.994-8.928h2.808V79.4h1.404v3.672h3.456v1.296h-3.456v5.796c0 .36.162.54.486.54h2.538V92h-3.042c-.408 0-.744-.132-1.008-.396-.252-.264-.378-.6-.378-1.008v-6.228h-2.808v-1.296zM4.87 115.78h.306l3.402-3.708h1.728v.108l-3.708 4.086v.324l4.14 4.302V121H9l-3.798-3.924H4.87V121H3.466v-12.6H4.87v7.38zm15.6295 3.852h-.216c-.144.276-.33.516-.558.72-.216.204-.456.372-.72.504a3.098 3.098 0 0 1-.81.288c-.288.072-.564.108-.828.108-.6 0-1.158-.102-1.674-.306a4.123 4.123 0 0 1-1.368-.882c-.384-.384-.7-.858-.918-1.422-.216-.576-.324-1.23-.324-1.962v-.288c0-.72.114-1.362.342-1.926.228-.576.534-1.056.918-1.44a3.81 3.81 0 0 1 1.35-.9c.516-.204 1.062-.306 1.638-.306.612 0 1.182.138 1.7.414.54.264.954.678 1.242 1.242h.216V108.4h1.404V121h-1.404v-1.368zm-2.988.288c.42 0 .8-.078 1.17-.234s.672-.378.936-.666c.276-.288.492-.63.648-1.026.156-.408.234-.858.234-1.35v-.216c0-.48-.078-.918-.234-1.314-.156-.408-.372-.756-.648-1.044-.264-.288-.582-.5-.954-.666-.36-.168-.744-.252-1.152-.252-.42 0-.816.078-1.188.234-.36.156-.678.378-.954.666-.264.288-.474.63-.63 1.026-.144.396-.216.834-.216 1.314v.288c0 .504.072.954.216 1.35.156.396.366.738.63 1.026.276.276.594.492.954.648.36.144.756.216 1.188.216zm13.5775-.432h-.216c-.288.6-.7 1.044-1.206 1.332-.504.288-1.038.432-1.602.432-.588 0-1.134-.096-1.638-.288a3.973 3.973 0 0 1-1.332-.882c-.372-.396-.666-.876-.882-1.44s-.324-1.218-.324-1.962v-.288c0-.732.108-1.38.324-1.944s.5-1.038.882-1.422c.384-.396.828-.696 1.332-.9s1.038-.306 1.602-.306c.612 0 1.164.138 1.656.414.504.264.9.678 1.188 1.242h.216v-1.404h1.404v7.092c0 .36.162.54.486.54h.45V121h-.954c-.408 0-.744-.132-1.008-.396-.252-.264-.378-.6-.378-1.008v-.108zm-2.88.432c.42 0 .804-.078 1.152-.234.36-.156.666-.378.918-.666s.45-.63.594-1.026c.144-.408.216-.858.216-1.35v-.216c0-.48-.072-.918-.216-1.314-.144-.408-.348-.756-.612-1.044-.252-.288-.558-.5-.918-.666-.348-.168-.726-.252-1.134-.252-.42 0-.804.078-1.152.234s-.654.378-.918.666c-.252.276-.45.618-.594 1.026-.144.396-.216.834-.216 1.314v.288c0 1.02.264 1.818.792 2.394.54.564 1.236.846 2.088.846zm7.2595-4.86v-6.66h7.884v1.404h-6.408v4.5h.216c.12-.24.276-.468.468-.684.192-.228.414-.426.666-.594.264-.168.558-.3.882-.396.324-.108.684-.162 1.08-.162.576 0 1.104.096 1.584.288.492.192.912.462 1.26.8s.618.768.8 1.26c.204.492.306 1.038.306 1.638v.324c0 .6-.096 1.17-.288 1.7-.192.528-.474 1.002-.846 1.422-.372.408-.834.732-1.386.972s-1.188.36-1.908.36c-.732 0-1.38-.108-1.944-.324s-1.038-.516-1.422-.9-.678-.834-.882-1.35c-.192-.528-.288-1.098-.288-1.7v-.504h1.512v.396c0 .996.276 1.746.828 2.25.564.492 1.296.738 2.196.738.48 0 .9-.084 1.26-.252.372-.18.678-.414.918-.702.252-.3.438-.642.558-1.026.12-.396.18-.804.18-1.224v-.108c0-.372-.066-.72-.198-1.044-.12-.324-.294-.606-.522-.846-.216-.24-.486-.426-.8-.558-.312-.144-.654-.216-1.026-.216-.252 0-.486.036-.702.108-.204.072-.384.168-.54.288-.156.108-.288.234-.396.378-.096.144-.162.282-.198.414h-2.844zm12.2634 9.54h-1.404v-12.528h1.404v1.404h.216c.312-.54.744-.948 1.296-1.224.552-.288 1.152-.432 1.8-.432.552 0 1.074.102 1.566.306s.924.498 1.296.882c.384.384.684.858.9 1.422.228.564.342 1.206.342 1.926v.36c0 .732-.108 1.38-.324 1.944s-.516 1.038-.9 1.422c-.372.384-.8.678-1.314.882-.504.192-1.038.288-1.602.288-.288 0-.582-.036-.882-.108a3.657 3.657 0 0 1-.864-.288c-.264-.144-.5-.312-.738-.504-.228-.204-.42-.444-.576-.72h-.216v4.968zm2.988-4.68c.432 0 .828-.072 1.188-.216.36-.156.672-.372.936-.648.276-.276.486-.612.63-1.008.156-.396.234-.84.234-1.332v-.36c0-.48-.078-.912-.234-1.296-.144-.396-.354-.732-.63-1.008-.264-.288-.582-.5-.954-.666-.36-.156-.75-.234-1.17-.234s-.8.084-1.17.252c-.36.156-.678.378-.954.666-.264.288-.474.636-.63 1.044-.156.396-.234.834-.234 1.314v.216c0 .492.078.942.234 1.35.156.396.366.738.63 1.026.276.288.594.5.954.666s.75.234 1.17.234zm6.4495-7.848h3.24v1.188h.216c.228-.492.552-.852.972-1.08.42-.24.9-.36 1.44-.36.9 0 1.626.294 2.178.882s.846 1.446.882 2.574l-1.476.216c0-.828-.198-1.422-.594-1.782-.396-.372-.882-.558-1.458-.558-.372 0-.696.072-.972.216-.264.144-.486.342-.666.594s-.312.546-.396.882-.126.696-.126 1.08v3.78h2.268V121h-5.724v-1.296h2.052v-6.336h-1.836v-1.296zm17.8795 0h1.602l-2.628 4.248v.216L76.867 121h-1.638l-2.43-3.924h-.324L70.045 121h-1.638l2.844-4.464v-.216l-2.628-4.248h1.602l2.25 3.708h.324l2.25-3.708zm13.0915 4.572c0 .744-.126 1.404-.378 1.98-.24.564-.564 1.044-.972 1.44-.408.384-.888.678-1.44.882-.54.204-1.104.306-1.692.306-.6 0-1.17-.102-1.7-.306s-1.014-.498-1.422-.882c-.408-.396-.738-.876-1-1.44-.24-.576-.36-1.236-.36-1.98v-.216c0-.732.12-1.38.36-1.944.252-.576.582-1.062 1-1.458.42-.396.9-.696 1.44-.9s1.104-.306 1.692-.306 1.152.102 1.692.306 1.014.504 1.422.9c.42.396.75.882 1 1.458.252.564.378 1.212.378 1.944v.216zm-4.482 3.276c.432 0 .828-.072 1.188-.216a2.867 2.867 0 0 0 .972-.666c.276-.288.492-.63.648-1.026.156-.408.234-.864.234-1.368v-.216c0-.48-.078-.918-.234-1.314-.156-.408-.372-.756-.648-1.044a2.867 2.867 0 0 0-.972-.666c-.372-.168-.768-.252-1.188-.252s-.816.084-1.188.252a2.867 2.867 0 0 0-.972.666c-.276.288-.492.636-.648 1.044-.156.396-.234.834-.234 1.314v.216c0 .504.078.96.234 1.368.156.396.372.738.648 1.026s.594.5.954.666c.372.144.774.216 1.206.216zm15.5035-3.276c0 .744-.126 1.404-.378 1.98-.24.564-.564 1.044-.972 1.44-.408.384-.888.678-1.44.882-.54.204-1.104.306-1.692.306-.6 0-1.17-.102-1.7-.306s-1.014-.498-1.422-.882c-.408-.396-.738-.876-1-1.44-.24-.576-.36-1.236-.36-1.98v-.216c0-.732.12-1.38.36-1.944.252-.576.582-1.062 1-1.458.42-.396.9-.696 1.44-.9s1.104-.306 1.692-.306 1.152.102 1.692.306 1.014.504 1.422.9c.42.396.75.882 1 1.458.252.564.378 1.212.378 1.944v.216zm-4.482 3.276c.432 0 .828-.072 1.188-.216a2.867 2.867 0 0 0 .972-.666c.276-.288.492-.63.648-1.026.156-.408.234-.864.234-1.368v-.216c0-.48-.078-.918-.234-1.314-.156-.408-.372-.756-.648-1.044a2.867 2.867 0 0 0-.972-.666c-.372-.168-.768-.252-1.188-.252s-.816.084-1.188.252a2.867 2.867 0 0 0-.972.666c-.276.288-.492.636-.648 1.044-.156.396-.234.834-.234 1.314v.216c0 .504.078.96.234 1.368.156.396.372.738.648 1.026s.594.5.954.666c.372.144.774.216 1.206.216zm8.105-2.952c.036.888.312 1.602.828 2.142s1.236.8 2.16.8c.42 0 .786-.048 1.098-.144s.576-.228.792-.396c.228-.168.408-.36.54-.576a3.296 3.296 0 0 0 .342-.72l1.332.36c-.252.828-.72 1.506-1.404 2.034-.672.516-1.584.774-2.736.774-.636 0-1.224-.108-1.764-.324-.528-.228-.984-.546-1.368-.954s-.684-.894-.9-1.458-.324-1.188-.324-1.872v-.432c0-.624.108-1.206.324-1.746.228-.54.54-1.002.936-1.386.396-.396.858-.702 1.386-.918.54-.228 1.122-.342 1.746-.342.732 0 1.362.138 1.9.414.54.264.978.594 1.314 1 .348.396.6.828.756 1.296.168.468.252.9.252 1.296v1.152h-7.2zm2.988-3.816c-.396 0-.768.066-1.116.198-.336.12-.636.294-.9.522-.252.228-.462.498-.63.8-.156.3-.258.63-.306 1h5.76c-.024-.384-.12-.732-.288-1.044-.156-.312-.366-.576-.63-.792-.252-.216-.546-.384-.882-.504-.324-.12-.66-.18-1.008-.18zm9.78-3.744c0-.348.12-.642.36-.882.252-.252.552-.378.9-.378s.642.126.882.378c.252.24.378.534.378.882s-.126.648-.378.9c-.24.24-.534.36-.882.36s-.648-.12-.9-.36c-.24-.252-.36-.552-.36-.9zm-2.556 10.296h3.132v-6.336h-2.808v-1.296h4.212v7.632h2.916V121h-7.452v-1.296zm17.717-.072h-.216c-.144.276-.33.516-.558.72-.216.204-.456.372-.72.504a3.098 3.098 0 0 1-.81.288c-.288.072-.564.108-.828.108-.6 0-1.158-.102-1.674-.306a4.123 4.123 0 0 1-1.368-.882c-.384-.384-.7-.858-.918-1.422-.216-.576-.324-1.23-.324-1.962v-.288c0-.72.114-1.362.342-1.926.228-.576.534-1.056.918-1.44a3.81 3.81 0 0 1 1.35-.9c.516-.204 1.062-.306 1.638-.306.612 0 1.182.138 1.7.414.54.264.954.678 1.242 1.242h.216V108.4h1.404V121h-1.404v-1.368zm-2.988.288c.42 0 .8-.078 1.17-.234s.672-.378.936-.666c.276-.288.492-.63.648-1.026.156-.408.234-.858.234-1.35v-.216c0-.48-.078-.918-.234-1.314-.156-.408-.372-.756-.648-1.044-.264-.288-.582-.5-.954-.666-.36-.168-.744-.252-1.152-.252-.42 0-.816.078-1.188.234-.36.156-.678.378-.954.666-.264.288-.474.63-.63 1.026-.144.396-.216.834-.216 1.314v.288c0 .504.072.954.216 1.35.156.396.366.738.63 1.026.276.276.594.492.954.648.36.144.756.216 1.188.216zm8.178 4.68H134.5v-12.528h1.404v1.404h.216c.312-.54.744-.948 1.296-1.224.552-.288 1.152-.432 1.8-.432.552 0 1.074.102 1.566.306s.924.498 1.296.882c.384.384.684.858.9 1.422.228.564.342 1.206.342 1.926v.36c0 .732-.108 1.38-.324 1.944s-.516 1.038-.9 1.422c-.372.384-.8.678-1.314.882-.504.192-1.038.288-1.602.288-.288 0-.582-.036-.882-.108a3.657 3.657 0 0 1-.864-.288c-.264-.144-.5-.312-.738-.504-.228-.204-.42-.444-.576-.72h-.216v4.968zm2.988-4.68c.432 0 .828-.072 1.188-.216.36-.156.672-.372.936-.648.276-.276.486-.612.63-1.008.156-.396.234-.84.234-1.332v-.36c0-.48-.078-.912-.234-1.296-.144-.396-.354-.732-.63-1.008-.264-.288-.582-.5-.954-.666-.36-.156-.75-.234-1.17-.234s-.8.084-1.17.252c-.36.156-.678.378-.954.666-.264.288-.474.636-.63 1.044-.156.396-.234.834-.234 1.314v.216c0 .492.078.942.234 1.35.156.396.366.738.63 1.026.276.288.594.5.954.666s.75.234 1.17.234zM3.646 150H2.242v-12.6h1.404v5.076h.216c.312-.54.744-.948 1.296-1.224.552-.288 1.152-.432 1.8-.432.552 0 1.074.102 1.566.306s.924.498 1.296.882c.384.384.684.858.9 1.422.228.564.342 1.206.342 1.926v.36c0 .732-.108 1.38-.324 1.944s-.516 1.038-.9 1.422c-.372.384-.8.678-1.314.882-.504.192-1.038.288-1.602.288-.288 0-.582-.036-.882-.108a3.657 3.657 0 0 1-.864-.288c-.264-.144-.5-.312-.738-.504-.228-.204-.42-.444-.576-.72h-.216V150zm2.988-1.08c.432 0 .828-.072 1.188-.216.36-.156.672-.372.936-.648.276-.276.486-.612.63-1.008.156-.396.234-.84.234-1.332v-.36c0-.48-.078-.912-.234-1.296-.144-.396-.354-.732-.63-1.008-.264-.288-.582-.5-.954-.666-.36-.156-.75-.234-1.17-.234s-.8.084-1.17.252c-.36.156-.678.378-.954.666-.264.288-.474.636-.63 1.044-.156.396-.234.834-.234 1.314v.216c0 .492.078.942.234 1.35.156.396.366.738.63 1.026.276.288.594.5.954.666s.75.234 1.17.234zm13.7935-.288h-.216c-.156.276-.348.516-.576.72-.216.192-.456.36-.72.504a3.098 3.098 0 0 1-.81.288c-.276.072-.546.108-.8.108-.6 0-1.158-.102-1.674-.306a4.123 4.123 0 0 1-1.368-.882c-.384-.384-.7-.858-.918-1.422-.216-.576-.324-1.23-.324-1.962v-.288c0-.72.114-1.362.342-1.926.228-.576.534-1.056.918-1.44a3.81 3.81 0 0 1 1.35-.9c.516-.204 1.062-.306 1.638-.306.612 0 1.176.144 1.692.432.528.276.948.684 1.26 1.224h.216v-1.404h1.404V153.6h-1.404v-4.968zm-2.988.288c.42 0 .8-.078 1.17-.234s.672-.378.936-.666c.276-.288.492-.63.648-1.026.156-.408.234-.858.234-1.35v-.216c0-.48-.078-.918-.234-1.314-.156-.408-.372-.756-.648-1.044-.264-.288-.582-.5-.954-.666-.36-.168-.744-.252-1.152-.252-.42 0-.816.078-1.188.234-.36.156-.678.378-.954.666-.264.288-.474.63-.63 1.026-.144.396-.216.834-.216 1.314v.288c0 .504.072.954.216 1.35.156.396.366.738.63 1.026.276.276.594.492.954.648.36.144.756.216 1.188.216zm6.6655-7.848h3.24v1.188h.216c.228-.492.552-.852.972-1.08.42-.24.9-.36 1.44-.36.9 0 1.626.294 2.178.882s.846 1.446.882 2.574l-1.476.216c0-.828-.198-1.422-.594-1.782-.396-.372-.882-.558-1.458-.558-.372 0-.696.072-.972.216-.264.144-.486.342-.666.594s-.312.546-.396.882-.126.696-.126 1.08v3.78h2.268V150H23.89v-1.296h2.052v-6.336h-1.836v-1.296zM36.7105 150h-1.404v-12.6h1.404v5.076h.216c.312-.54.744-.948 1.296-1.224.552-.288 1.152-.432 1.8-.432.552 0 1.074.102 1.566.306s.924.498 1.296.882c.384.384.684.858.9 1.422.228.564.342 1.206.342 1.926v.36c0 .732-.108 1.38-.324 1.944s-.516 1.038-.9 1.422c-.372.384-.8.678-1.314.882-.504.192-1.038.288-1.602.288-.288 0-.582-.036-.882-.108a3.657 3.657 0 0 1-.864-.288c-.264-.144-.5-.312-.738-.504-.228-.204-.42-.444-.576-.72h-.216V150zm2.988-1.08c.432 0 .828-.072 1.188-.216.36-.156.672-.372.936-.648.276-.276.486-.612.63-1.008.156-.396.234-.84.234-1.332v-.36c0-.48-.078-.912-.234-1.296-.144-.396-.354-.732-.63-1.008-.264-.288-.582-.5-.954-.666-.36-.156-.75-.234-1.17-.234s-.8.084-1.17.252c-.36.156-.678.378-.954.666-.264.288-.474.636-.63 1.044-.156.396-.234.834-.234 1.314v.216c0 .492.078.942.234 1.35.156.396.366.738.63 1.026.276.288.594.5.954.666s.75.234 1.17.234zm10.2294-.324v-10.53h-.216l-2.07 4.734h-1.494v-.108l2.358-5.292h2.934v11.196h3.564V150h-8.64v-1.404h3.564zM66.2594 150h-1.404v-6.408c0-.42-.096-.762-.288-1.026-.192-.276-.498-.414-.918-.414-.396 0-.72.15-.972.45-.24.288-.36.738-.36 1.35V150h-1.404v-6.48c0-.396-.108-.72-.324-.972-.216-.264-.504-.396-.864-.396-.432 0-.768.156-1.008.468-.228.312-.342.72-.342 1.224V150h-1.404v-8.928h1.404v.972h.216c.156-.42.384-.726.684-.918.3-.204.654-.306 1.062-.306.432 0 .786.114 1.062.342.288.228.486.522.594.882h.216c.408-.816 1.056-1.224 1.944-1.224.672 0 1.188.216 1.548.648.372.42.558.972.558 1.656V150zm3.8395 0h-1.404v-12.6h1.404v5.292h.216c.276-.576.66-1.032 1.152-1.368.504-.336 1.116-.504 1.836-.504.972 0 1.758.324 2.358.972.612.636.918 1.596.918 2.88V150h-1.404v-5.04c0-.936-.2-1.638-.63-2.106s-1-.702-1.7-.702c-.852 0-1.524.294-2.016.882-.48.576-.72 1.35-.72 2.322V150zm15.9715-8.928h1.602l-2.628 4.248v.216l2.844 4.464h-1.638l-2.43-3.924h-.324l-2.43 3.924h-1.638l2.844-4.464v-.216l-2.628-4.248h1.602l2.25 3.708h.324l2.25-3.708zM91.818 153.6h-1.404v-12.528h1.404v1.404h.216c.312-.54.744-.948 1.296-1.224.552-.288 1.152-.432 1.8-.432.552 0 1.074.102 1.566.306s.924.498 1.296.882c.384.384.684.858.9 1.422.228.564.342 1.206.342 1.926v.36c0 .732-.108 1.38-.324 1.944s-.516 1.038-.9 1.422c-.372.384-.8.678-1.314.882-.504.192-1.038.288-1.602.288-.288 0-.582-.036-.882-.108a3.657 3.657 0 0 1-.864-.288c-.264-.144-.5-.312-.738-.504-.228-.204-.42-.444-.576-.72h-.216v4.968zm2.988-4.68c.432 0 .828-.072 1.188-.216.36-.156.672-.372.936-.648.276-.276.486-.612.63-1.008.156-.396.234-.84.234-1.332v-.36c0-.48-.078-.912-.234-1.296-.144-.396-.354-.732-.63-1.008-.264-.288-.582-.5-.954-.666-.36-.156-.75-.234-1.17-.234s-.8.084-1.17.252c-.36.156-.678.378-.954.666-.264.288-.474.636-.63 1.044-.156.396-.234.834-.234 1.314v.216c0 .492.078.942.234 1.35.156.396.366.738.63 1.026.276.288.594.5.954.666s.75.234 1.17.234zm6.449-7.848h3.24v1.188h.216c.228-.492.552-.852.972-1.08.42-.24.9-.36 1.44-.36.9 0 1.626.294 2.178.882s.846 1.446.882 2.574l-1.476.216c0-.828-.198-1.422-.594-1.782-.396-.372-.882-.558-1.458-.558-.372 0-.696.072-.972.216-.264.144-.486.342-.666.594s-.312.546-.396.882-.126.696-.126 1.08v3.78h2.268V150h-5.724v-1.296h2.052v-6.336h-1.836v-1.296zm18.006 7.416h-.216c-.288.6-.7 1.044-1.206 1.332-.504.288-1.038.432-1.602.432-.588 0-1.134-.096-1.638-.288a3.973 3.973 0 0 1-1.332-.882c-.372-.396-.666-.876-.882-1.44s-.324-1.218-.324-1.962v-.288c0-.732.108-1.38.324-1.944s.5-1.038.882-1.422c.384-.396.828-.696 1.332-.9s1.038-.306 1.602-.306c.612 0 1.164.138 1.656.414.504.264.9.678 1.188 1.242h.216v-1.404h1.404v7.092c0 .36.162.54.486.54h.45V150h-.954c-.408 0-.744-.132-1.008-.396-.252-.264-.378-.6-.378-1.008v-.108zm-2.88.432c.42 0 .804-.078 1.152-.234.36-.156.666-.378.918-.666s.45-.63.594-1.026c.144-.408.216-.858.216-1.35v-.216c0-.48-.072-.918-.216-1.314-.144-.408-.348-.756-.612-1.044-.252-.288-.558-.5-.918-.666-.348-.168-.726-.252-1.134-.252-.42 0-.804.078-1.152.234s-.654.378-.918.666c-.252.276-.45.618-.594 1.026-.144.396-.216.834-.216 1.314v.288c0 1.02.264 1.818.792 2.394.54.564 1.236.846 2.088.846zm15.845-3.276c0 .744-.126 1.404-.378 1.98-.24.564-.564 1.044-.972 1.44-.408.384-.888.678-1.44.882-.54.204-1.104.306-1.692.306-.6 0-1.17-.102-1.7-.306s-1.014-.498-1.422-.882c-.408-.396-.738-.876-1-1.44-.24-.576-.36-1.236-.36-1.98v-.216c0-.732.12-1.38.36-1.944.252-.576.582-1.062 1-1.458.42-.396.9-.696 1.44-.9s1.104-.306 1.692-.306 1.152.102 1.692.306 1.014.504 1.422.9c.42.396.75.882 1 1.458.252.564.378 1.212.378 1.944v.216zm-4.482 3.276c.432 0 .828-.072 1.188-.216a2.867 2.867 0 0 0 .972-.666c.276-.288.492-.63.648-1.026.156-.408.234-.864.234-1.368v-.216c0-.48-.078-.918-.234-1.314-.156-.408-.372-.756-.648-1.044a2.867 2.867 0 0 0-.972-.666c-.372-.168-.768-.252-1.188-.252s-.816.084-1.188.252a2.867 2.867 0 0 0-.972.666c-.276.288-.492.636-.648 1.044-.156.396-.234.834-.234 1.314v.216c0 .504.078.96.234 1.368.156.396.372.738.648 1.026s.594.5.954.666c.372.144.774.216 1.206.216zm6.8-11.52h8.424v2.196l-5.3 8.028c-.252.384-.444.714-.576 1s-.198.558-.198.846v.54h-1.476v-.648c0-.216.018-.42.054-.612a3.638 3.638 0 0 1 .198-.576c.096-.204.2-.414.342-.63l.504-.774 5.166-7.74v-.216h-7.128V137.4z" fill-opacity=".5"/><path d="M180 94.08h4.68v-6.84h7.04v-4.32h-7.04V76H180v6.92h-7v4.32h7v6.84zm255.72-10.72h18.72V79h-18.72v4.36zm0 7.88h18.72v-4.32h-18.72v4.32z"/></g><path d="M221.06 96.744h3.484v-5.226c.936 1.144 2.418 1.742 3.926 1.742 3.588 0 5.928-3.016 5.928-6.786 0-3.718-2.288-6.734-5.876-6.734-1.56 0-3.094.546-4.16 1.82V80h-3.302v16.744zm6.552-6.708c-1.794 0-3.094-1.482-3.094-3.536 0-2.08 1.326-3.536 3.094-3.536 1.898 0 3.224 1.482 3.224 3.536s-1.326 3.536-3.224 3.536zm16.5 3.224c3.588 0 5.876-3.016 5.876-6.76s-2.34-6.76-5.928-6.76c-1.508 0-3 .598-3.926 1.716v-5.564h-3.484V93h3.302v-1.56c.962 1.248 2.6 1.82 4.16 1.82zm-.884-3.224c-1.768 0-3.094-1.456-3.094-3.536 0-2.028 1.3-3.536 3.094-3.536 1.872 0 3.224 1.508 3.224 3.536 0 2.054-1.352 3.536-3.224 3.536z" class="D"/><path d="M252.787 84.966h11.57v-1.638h-11.57v1.638zm0 3.9h11.57v-1.638h-11.57v1.638zM266.537 93h2.262l2.886-3.822c.4-.494.806-1.326.806-1.326l.832 1.326 2.86 3.822h2.262l-4.706-6.448 4.602-6.214h-2.236l-2.834 3.77-.754 1.17-.78-1.17-2.834-3.77h-2.262l4.628 6.214L266.537 93zm13.532 0h3.484v-4.992c0-3.094 1.482-4.472 4.498-4.472V79.74c-2.86 0-4.186 1.7-4.55 2.756V80h-3.432v13zm25.975-1.144h1.768v-4.888h4.914V85.33h-4.914v-4.888h-1.768v4.888h-4.888v1.638h4.888v4.888zm11.124 4.966c1.482 0 3.276-.208 4.654-3.198l6.032-13.286h-2.028l-3.77 8.424-.598 1.508-.572-1.43-3.978-8.502h-2.054l5.694 11.83-.286.572c-.858 1.82-1.716 2.2-3.094 2.2v1.872zm18.2 0c4.316 0 6.9-2.704 6.9-6.968V80h-3.302v1.768c-.702-1.3-2.418-2.028-4.082-2.028-3.614 0-5.876 2.808-5.876 6.292 0 3.458 2.262 6.266 5.876 6.266 1.924 0 3.328-.9 3.9-1.924 0 .104 0 .208-.026.286-.104 2.08-1.326 3.536-3.744 3.536-1.222 0-2.73-.364-3.77-1.17l-1.3 2.184c1.196.988 3.094 1.612 5.434 1.612zm.286-7.566c-1.768 0-3.12-1.352-3.12-3.224 0-1.898 1.352-3.276 3.12-3.276 1.794 0 3.146 1.378 3.146 3.198 0 1.95-1.326 3.302-3.146 3.302zm25.32 2.6h1.768v-4.888h4.914V85.33h-4.914v-4.888h-1.768v4.888h-4.888v1.638h4.888v4.888zM370.242 93h10.478v-1.768h-8.06l1.404-1.534 6.526-7.878v-1.482h-10v1.768h7.54l-1.326 1.43-6.552 7.956V93zm19.994.26c3.588 0 5.876-3.016 5.876-6.76s-2.34-6.76-5.928-6.76c-1.508 0-3 .598-3.926 1.716v-5.564h-3.484V93h3.302v-1.56c.962 1.248 2.6 1.82 4.16 1.82zm-.884-3.224c-1.768 0-3.094-1.456-3.094-3.536 0-2.028 1.3-3.536 3.094-3.536 1.872 0 3.224 1.508 3.224 3.536 0 2.054-1.352 3.536-3.224 3.536z" class="B"/><path d="M289.556 85.408h8.7v-2.444h-4.498c2.262-1.794 4.186-3.796 4.186-6.084s-1.82-3.614-4.212-3.614c-1.56 0-2.964.65-4.108 1.898l1.326 1.82c.702-.78 1.586-1.248 2.392-1.248 1.17 0 1.664.624 1.664 1.43 0 1.508-1.82 3.432-5.46 6.526v1.716zm54.92 0h8.7v-2.444h-4.498c2.262-1.794 4.186-3.796 4.186-6.084s-1.82-3.614-4.212-3.614c-1.56 0-2.964.65-4.108 1.898l1.326 1.82c.702-.78 1.586-1.248 2.392-1.248 1.17 0 1.664.624 1.664 1.43 0 1.508-1.82 3.432-5.46 6.526v1.716zm53.498 0h8.7v-2.444h-4.498c2.262-1.794 4.186-3.796 4.186-6.084s-1.82-3.614-4.212-3.614c-1.56 0-2.964.65-4.108 1.898l1.326 1.82c.702-.78 1.586-1.248 2.392-1.248 1.17 0 1.664.624 1.664 1.43 0 1.508-1.82 3.432-5.46 6.526v1.716z" class="C"/><g opacity=".8"><path d="M221.8 65h2.68v-5.08c0-1.44.78-2.58 2.2-2.58 1.32 0 1.76.78 1.76 2.24V65h2.68v-5.76c0-2.8-.96-4.44-3.56-4.44-1.2 0-2.3.42-3.08 1.46v-4.42h-2.68V65zm108.516 0h2.68v-5.08c0-1.44.78-2.58 2.2-2.58 1.32 0 1.76.78 1.76 2.24V65h2.68v-5.76c0-2.8-.96-4.44-3.56-4.44-1.2 0-2.3.42-3.08 1.46v-4.42h-2.68V65z" class="D"/><path d="M232.67 60.86h7.58v-1.3h-7.58v1.3zM246.016 65h2.68V52.04h-2.4l-4.28 3.4 1.2 1.88 2.8-1.82V65zm10.7.22c3.08 0 4.96-1.64 4.96-4 0-1.4-.72-2.62-2.1-3.2.88-.58 1.32-1.52 1.32-2.68 0-1.98-1.58-3.5-4.18-3.5-2.62 0-4.2 1.52-4.2 3.5 0 1.16.44 2.1 1.32 2.68-1.38.58-2.1 1.8-2.1 3.2 0 2.36 1.88 4 4.98 4zm0-2.36c-1.38 0-2.16-.82-2.16-1.88s.74-1.94 2.16-1.94c1.4 0 2.14.88 2.14 1.94s-.76 1.88-2.14 1.88zm0-5.6c-1.16 0-1.72-.76-1.72-1.6 0-.86.6-1.58 1.72-1.58 1.1 0 1.72.72 1.72 1.58 0 .84-.58 1.6-1.72 1.6zm11.762 7.94c3.04 0 5.16-2.76 5.16-6.68s-2.12-6.68-5.16-6.68c-3.06 0-5.18 2.76-5.18 6.68s2.12 6.68 5.18 6.68zm0-2.4c-1.58 0-2.4-1.76-2.4-4.28s.82-4.28 2.4-4.28c1.56 0 2.36 1.76 2.36 4.28s-.8 4.28-2.36 4.28zm6.594-1.94h7.58v-1.3h-7.58v1.3zm13.726 4.34c1.58 0 3-.62 3.72-1.9V65h1.46V51.84h-1.52v5.12c-.72-1.26-2.1-1.9-3.66-1.9-2.7 0-4.6 2.22-4.6 5.08 0 2.82 1.9 5.06 4.6 5.06zm.34-1.48c-1.94 0-3.38-1.52-3.38-3.58 0-2.08 1.44-3.6 3.38-3.6 1.86 0 3.32 1.56 3.32 3.6s-1.46 3.58-3.32 3.58zm16.294.22v-1.46l-6.78-2.78 6.78-2.78v-1.48l-8.56 3.76v1l8.56 3.74zm22.246 0v-1.46l-6.78-2.78 6.78-2.78v-1.48l-8.56 3.76v1l8.56 3.74zm13.507-3.08h7.58v-1.3h-7.58v1.3zM354.532 65h2.68V52.04h-2.4l-4.28 3.4 1.2 1.88 2.8-1.82V65zm10.7.22c3.08 0 4.96-1.64 4.96-4 0-1.4-.72-2.62-2.1-3.2.88-.58 1.32-1.52 1.32-2.68 0-1.98-1.58-3.5-4.18-3.5-2.62 0-4.2 1.52-4.2 3.5 0 1.16.44 2.1 1.32 2.68-1.38.58-2.1 1.8-2.1 3.2 0 2.36 1.88 4 4.98 4zm0-2.36c-1.38 0-2.16-.82-2.16-1.88s.74-1.94 2.16-1.94c1.4 0 2.14.88 2.14 1.94s-.76 1.88-2.14 1.88zm0-5.6c-1.16 0-1.72-.76-1.72-1.6 0-.86.6-1.58 1.72-1.58 1.1 0 1.72.72 1.72 1.58 0 .84-.58 1.6-1.72 1.6zm11.762 7.94c3.04 0 5.16-2.76 5.16-6.68s-2.12-6.68-5.16-6.68c-3.06 0-5.18 2.76-5.18 6.68s2.12 6.68 5.18 6.68zm0-2.4c-1.58 0-2.4-1.76-2.4-4.28s.82-4.28 2.4-4.28c1.56 0 2.36 1.76 2.36 4.28s-.8 4.28-2.36 4.28zm11.134 1.32h1.36v-3.76h3.78V59.1h-3.78v-3.76h-1.36v3.76h-3.76v1.26h3.76v3.76zm12.077 1.08c1.58 0 3-.62 3.72-1.9V65h1.46V51.84h-1.52v5.12c-.72-1.26-2.1-1.9-3.66-1.9-2.7 0-4.6 2.22-4.6 5.08 0 2.82 1.9 5.06 4.6 5.06zm.34-1.48c-1.94 0-3.38-1.52-3.38-3.58 0-2.08 1.44-3.6 3.38-3.6 1.86 0 3.32 1.56 3.32 3.6s-1.46 3.58-3.32 3.58z" class="B"/><path d="M307.29 65h2.94l1.18-1.82.86-1.66.9 1.66 1.12 1.82h2.96l-3.32-5.1 3.32-4.9h-2.94l-1.2 1.8-.84 1.56-.86-1.56-1.18-1.8h-2.94l3.3 4.9-3.3 5.1z" class="C"/></g><g opacity=".8"><path d="M226.252 119.173c2.588 0 4.623-1.984 4.623-4.485s-2.035-4.486-4.623-4.486c-2.57 0-4.606 1.984-4.606 4.486s2.036 4.485 4.606 4.485zm0-2.14c-1.294 0-2.26-.983-2.26-2.345 0-1.346.966-2.347 2.26-2.347s2.26 1 2.26 2.347c0 1.362-.966 2.345-2.26 2.345z" class="D"/><path d="M232.745 113.67h7.677v-1.087h-7.677v1.087zm0 2.587h7.677v-1.087h-7.677v1.087zm27.973 1.984h1.173v-3.243h3.26v-1.087h-3.26v-3.243h-1.173v3.243h-3.243v1.087h3.243v3.243zm10.278 1.846c-1.38-1.587-2.26-3.657-2.26-6.003s.88-4.416 2.26-6.003l-.776-.828c-1.466 1.466-2.777 3.726-2.777 6.83s1.31 5.365 2.777 6.83l.776-.828zM275.87 119h1.31v-11.178h-1.156l-3.226 2.57.62.95 2.45-1.76V119zm4.128-3.57h6.537v-1.12H280v1.12zm7.992 6.055h2.31v-3.467c.62.76 1.604 1.156 2.605 1.156 2.38 0 3.933-2.002 3.933-4.503 0-2.467-1.518-4.468-3.9-4.468-1.035 0-2.052.363-2.76 1.208v-1.035h-2.2v11.11zm4.347-4.45c-1.19 0-2.053-.983-2.053-2.345 0-1.38.88-2.347 2.053-2.347 1.26 0 2.14.984 2.14 2.347s-.88 2.345-2.14 2.345zm10.947 2.14c2.38 0 3.898-2.002 3.898-4.485s-1.552-4.486-3.933-4.486c-1 0-1.984.397-2.605 1.14v-3.692h-2.31V119h2.19v-1.035c.638.828 1.725 1.208 2.76 1.208zm-.587-2.14c-1.173 0-2.053-.966-2.053-2.345 0-1.346.863-2.347 2.053-2.347 1.242 0 2.14 1 2.14 2.347 0 1.362-.897 2.345-2.14 2.345zm4.996 2.295h1.225l5.33-12.282h-1.242l-5.313 12.282zm10.61-.328h1.31v-11.178h-1.156l-3.225 2.57.62.95 2.45-1.76V119zm8.544.173c2.45 0 4.192-2.398 4.192-5.762s-1.743-5.762-4.192-5.762c-2.467 0-4.21 2.398-4.21 5.762s1.742 5.762 4.21 5.762zm0-1.208c-1.708 0-2.812-1.915-2.812-4.554 0-2.657 1.104-4.554 2.812-4.554 1.7 0 2.777 1.897 2.777 4.554 0 2.64-1.087 4.554-2.777 4.554zm9.956 1.208c2.45 0 4.19-2.398 4.19-5.762s-1.742-5.762-4.19-5.762c-2.467 0-4.21 2.398-4.21 5.762s1.742 5.762 4.21 5.762zm0-1.208c-1.708 0-2.812-1.915-2.812-4.554 0-2.657 1.104-4.554 2.812-4.554 1.7 0 2.777 1.897 2.777 4.554 0 2.64-1.087 4.554-2.777 4.554zm6.488 2.95c1.467-1.466 2.778-3.726 2.778-6.83s-1.31-5.365-2.778-6.83l-.776.828c1.38 1.587 2.26 3.657 2.26 6.003s-.88 4.416-2.26 6.003l.776.828zm6.997-7.176h.914l-.052-2.38 2.036 1.26.43-.776-2.14-1.12 2.14-1.156-.43-.776-2.036 1.26.07-2.38h-.93l.07 2.38-2.053-1.26-.43.776 2.14 1.156-2.14 1.12.43.776 2.036-1.242-.052 2.364zm8.64 6.348c-1.38-1.587-2.26-3.657-2.26-6.003s.88-4.416 2.26-6.003l-.777-.828c-1.466 1.466-2.777 3.726-2.777 6.83s1.31 5.365 2.777 6.83l.777-.828zm20.49-4.658h6.538v-1.12h-6.538v1.12zm23.185 5.486c1.466-1.466 2.777-3.726 2.777-6.83s-1.31-5.365-2.777-6.83l-.776.828c1.38 1.587 2.26 3.657 2.26 6.003s-.88 4.416-2.26 6.003l.776.828z" class="B"/><path d="M242.558 119h2.31v-8.625h-2.31V119zm1.138-9.677c.76 0 1.38-.62 1.38-1.363 0-.76-.62-1.38-1.38-1.38-.74 0-1.362.62-1.362 1.38 0 .742.62 1.363 1.362 1.363zm7.286 9.85c2.587 0 4.623-1.984 4.623-4.485s-2.036-4.486-4.623-4.486c-2.57 0-4.606 1.984-4.606 4.486s2.035 4.485 4.606 4.485zm0-2.14c-1.294 0-2.26-.983-2.26-2.345 0-1.346.966-2.347 2.26-2.347s2.26 1 2.26 2.347c0 1.362-.966 2.345-2.26 2.345zm108.9 1.967h2.536l1.018-1.57.742-1.432.776 1.432.966 1.57h2.553l-2.864-4.4 2.864-4.226h-2.536l-1.035 1.552-.724 1.346-.742-1.346-1.018-1.552h-2.536l2.847 4.226-2.847 4.4zm13.73.173c2.588 0 4.623-1.984 4.623-4.485s-2.035-4.486-4.623-4.486c-2.57 0-4.605 1.984-4.605 4.486s2.035 4.485 4.605 4.485zm0-2.14c-1.293 0-2.26-.983-2.26-2.345 0-1.346.966-2.347 2.26-2.347s2.26 1 2.26 2.347c0 1.362-.966 2.345-2.26 2.345zM387.414 119h2.312v-8.625h-2.312V119zm1.14-9.677c.76 0 1.38-.62 1.38-1.363 0-.76-.62-1.38-1.38-1.38-.742 0-1.363.62-1.363 1.38 0 .742.62 1.363 1.363 1.363zm7.285 9.85c2.587 0 4.623-1.984 4.623-4.485s-2.036-4.486-4.623-4.486c-2.57 0-4.606 1.984-4.606 4.486s2.035 4.485 4.606 4.485zm0-2.14c-1.294 0-2.26-.983-2.26-2.345 0-1.346.966-2.347 2.26-2.347s2.26 1 2.26 2.347c0 1.362-.966 2.345-2.26 2.345z" class="C"/></g><g opacity=".3"><path d="M222.528 139h1.574v-7.732h-1.574V139zm6.15.118c1.62 0 2.655-1.364 2.655-3.056s-1.057-3.055-2.68-3.055c-.68 0-1.35.27-1.774.776v-2.515h-1.574V139h1.492v-.705c.435.564 1.175.823 1.88.823zm-.4-1.458c-.8 0-1.398-.658-1.398-1.598 0-.916.588-1.598 1.398-1.598.846 0 1.457.682 1.457 1.598 0 .93-.61 1.598-1.457 1.598z" class="D"/><path d="M232.597 135.37h5.228v-.74h-5.228v.74zm0 1.763h5.228v-.74h-5.228v.74zm6.836 1.868h.893v-3.3c0-.834.6-1.68 1.598-1.68 1.034 0 1.375.646 1.375 1.62V139h.905v-3.337c0-.858.61-1.633 1.574-1.633 1.046 0 1.387.646 1.387 1.62V139h.905v-3.466c0-1.575-.73-2.374-2.104-2.374-.67 0-1.562.376-1.974 1.2-.27-.8-.916-1.2-1.833-1.2-.8 0-1.515.482-1.833 1.105v-.987h-.893V139zm10.464.118a.628.628 0 0 0 .623-.623c0-.34-.282-.623-.623-.623s-.61.282-.61.623.258.623.61.623zm27.79.622c-.94-1.08-1.54-2.49-1.54-4.09s.6-3.008 1.54-4.09l-.53-.564c-.998 1-1.89 2.538-1.89 4.653s.893 3.655 1.89 4.653l.53-.564zm1.252-.74h.893v-3.3c0-.834.6-1.68 1.598-1.68 1.034 0 1.375.646 1.375 1.62V139h.905v-3.337c0-.858.61-1.633 1.574-1.633 1.046 0 1.387.646 1.387 1.62V139h.905v-3.466c0-1.575-.73-2.374-2.104-2.374-.67 0-1.562.376-1.974 1.2-.27-.8-.916-1.2-1.833-1.2-.8 0-1.515.482-1.833 1.105v-.987h-.893V139zm10.464.118a.628.628 0 0 0 .623-.623c0-.34-.282-.623-.623-.623s-.61.282-.61.623.26.623.61.623zm25.852.622c-.94-1.08-1.54-2.49-1.54-4.09s.6-3.008 1.54-4.09l-.53-.564c-1 1-1.892 2.538-1.892 4.653s.893 3.655 1.892 4.653l.53-.564zm1.1-.74h1.574v-5.875h-1.574V139zm.775-6.592c.517 0 .94-.423.94-.928a.943.943 0 0 0-.94-.94c-.505 0-.928.423-.928.94 0 .505.423.928.928.928zm2 8.284h1.575v-2.362c.423.517 1.093.788 1.774.788 1.622 0 2.68-1.364 2.68-3.067 0-1.68-1.034-3.044-2.655-3.044-.705 0-1.4.247-1.88.823v-.705h-1.493v7.567zm2.96-3.032c-.8 0-1.398-.67-1.398-1.598 0-.94.6-1.598 1.398-1.598.858 0 1.457.67 1.457 1.598s-.6 1.598-1.457 1.598zm7.457 1.458c1.622 0 2.656-1.364 2.656-3.056s-1.058-3.055-2.68-3.055c-.682 0-1.352.27-1.775.776v-2.515h-1.574V139h1.492v-.705c.435.564 1.175.823 1.88.823zm-.4-1.458c-.8 0-1.4-.658-1.4-1.598 0-.916.588-1.598 1.4-1.598.846 0 1.457.682 1.457 1.598 0 .93-.61 1.598-1.457 1.598zm8.68-1.092h4.453v-.764h-4.453v.764zM342.29 139h1.022l1.304-1.727c.176-.224.364-.6.364-.6l.376.6 1.293 1.727h1.022l-2.127-2.914 2.08-2.808h-1l-1.28 1.703-.34.53-.352-.53-1.28-1.703h-1.022l2.09 2.808L342.29 139zm6.115 0h1.575v-2.256c0-1.398.67-2.02 2.032-2.02v-1.716c-1.292 0-1.89.764-2.056 1.246v-1.128h-1.55V139zm9.072-2.432h4.453v-.764h-4.453v.764zm5.938 4.16c.67 0 1.48-.094 2.104-1.445l2.726-6.004h-.917l-1.704 3.807-.27.68-.258-.646-1.798-3.842h-.928l2.573 5.346-.13.258c-.388.823-.776 1-1.4 1v.846zm8.22 0c1.95 0 3.114-1.222 3.114-3.15v-4.453h-1.493v.8c-.317-.588-1.092-.917-1.844-.917-1.634 0-2.656 1.27-2.656 2.844 0 1.563 1.022 2.832 2.656 2.832.87 0 1.504-.412 1.762-.87 0 .047 0 .094-.012.13-.047.94-.6 1.6-1.692 1.6-.552 0-1.233-.165-1.703-.53l-.588.987c.54.446 1.398.728 2.456.728zm.13-3.42c-.8 0-1.4-.61-1.4-1.457 0-.858.61-1.48 1.4-1.48.81 0 1.422.623 1.422 1.446 0 .88-.6 1.492-1.422 1.492zm8.317 1.915h.835l3.63-8.366h-.846l-3.62 8.366zm4.726-.223h4.735v-.8H385.9l.635-.693 2.95-3.56v-.67h-4.524v.8h3.408l-.6.646-2.96 3.595V139zm6.098 1.304c1-.998 1.892-2.538 1.892-4.653s-.893-3.654-1.892-4.653l-.53.564c.94 1.08 1.54 2.49 1.54 4.09s-.6 3.008-1.54 4.09l.53.564zm3.015.306h.634l.823-2.69h-.88l-.576 2.69zm5.477-1.492c1.786 0 3.03-1.622 3.03-3.925s-1.245-3.925-3.03-3.925c-1.798 0-3.043 1.622-3.043 3.925s1.245 3.925 3.043 3.925zm0-1.41c-.928 0-1.4-1.034-1.4-2.514s.482-2.515 1.4-2.515c.916 0 1.386 1.034 1.386 2.515s-.47 2.514-1.386 2.514zm4.52 2.597c1-.998 1.892-2.538 1.892-4.653s-.893-3.654-1.892-4.653l-.53.564c.94 1.08 1.54 2.49 1.54 4.09s-.6 3.008-1.54 4.09l.53.564z" class="B"/><path d="M251.696 139h1.575v-3.043c0-.776.4-1.457 1.198-1.457.846 0 1.022.575 1.022 1.35V139h1.575v-3.102c0-.776.423-1.398 1.198-1.398.835 0 1.023.575 1.023 1.35V139h1.574v-3.35c0-1.504-.517-2.644-2.174-2.644-.67 0-1.48.34-1.903 1.046-.306-.658-.88-1.046-1.8-1.046-.705 0-1.398.376-1.74.905v-.787h-1.54V139zm12.76.118c.68 0 1.42-.26 1.833-.823V139h1.54v-5.875h-1.54v.717c-.423-.564-1.152-.835-1.833-.835-1.622 0-2.656 1.363-2.656 3.055s1.034 3.056 2.656 3.056zm.4-1.458c-.846 0-1.457-.67-1.457-1.598 0-.916.61-1.598 1.457-1.598.81 0 1.398.682 1.398 1.598 0 .94-.587 1.598-1.398 1.598zm3.71 1.34h1.727l.693-1.07.505-.976.53.976.658 1.07h1.74l-1.95-2.996 1.95-2.88h-1.727l-.705 1.057-.494.917-.505-.917-.693-1.057h-1.727l1.938 2.88-1.938 2.996zm24.73.118c1.093 0 2.56-.482 2.56-1.928 0-1.198-1.092-1.633-2.09-1.868-.54-.117-1.034-.223-1.034-.552 0-.247.34-.41.705-.41.517 0 1.057.13 1.633.41l.53-1.175c-.61-.353-1.222-.588-2.186-.588-1.104 0-2.28.635-2.28 1.833 0 1.128.952 1.516 2.115 1.822.505.14 1 .223 1 .575s-.6.494-.963.494c-.88 0-1.434-.317-1.833-.623l-.564 1.2c.33.306 1.14.8 2.397.8zm3.496-.118h1.575v-2.256c0-1.398.67-2.02 2.033-2.02v-1.716c-1.293 0-1.892.764-2.057 1.246v-1.128h-1.55V139zm8.695 1.692h1.575v-7.567h-1.493v.705c-.434-.564-1.175-.823-1.88-.823-1.62 0-2.655 1.363-2.655 3.044 0 1.703 1.057 3.067 2.68 3.067.68 0 1.35-.27 1.774-.788v2.362zm-1.398-3.032c-.846 0-1.457-.67-1.457-1.598s.61-1.598 1.457-1.598c.81 0 1.398.658 1.398 1.598 0 .93-.587 1.598-1.398 1.598zm6.376 1.458c.622 0 1.14-.212 1.492-.447l-.447-1.163c-.047.035-.376.246-.752.246-.282 0-.528-.164-.528-.67v-2.69h1.62v-1.27h-1.62v-1.48l-1.575.353v1.128h-.858v1.27h.858v2.714c0 1.328.635 2 1.8 2zm22.583-3.55h3.936v-1.105h-2.032c1.022-.8 1.89-1.715 1.89-2.75s-.822-1.633-1.903-1.633c-.705 0-1.34.293-1.857.857l.6.823c.317-.353.716-.564 1.08-.564.528 0 .752.282.752.646 0 .682-.823 1.55-2.468 2.95v.776zm19.645 0h3.936v-1.105h-2.033c1.022-.8 1.892-1.715 1.892-2.75s-.823-1.633-1.904-1.633c-.705 0-1.34.293-1.856.857l.6.823c.317-.353.717-.564 1.08-.564.53 0 .752.282.752.646 0 .682-.822 1.55-2.467 2.95v.776zm23.064 0h3.936v-1.105h-2.033c1.022-.8 1.892-1.715 1.892-2.75s-.823-1.633-1.904-1.633c-.705 0-1.34.293-1.856.857l.6.823c.317-.353.717-.564 1.08-.564.53 0 .752.282.752.646 0 .682-.822 1.55-2.467 2.95v.776z" class="C"/></g><g opacity=".1"><path d="M225.102 157.1c1.38 0 2.26-1.16 2.26-2.6s-.9-2.6-2.28-2.6c-.58 0-1.15.23-1.5.66v-2.14h-1.34V157h1.27v-.6c.37.48 1 .7 1.6.7zm-.34-1.24c-.68 0-1.2-.56-1.2-1.36 0-.78.5-1.36 1.2-1.36.72 0 1.24.58 1.24 1.36 0 .8-.52 1.36-1.24 1.36zm3.396 1.14h4.8v-1.2h-2.64c1.2-.9 2.44-2.2 2.44-3.43 0-1.28-1.02-1.96-2.25-1.96-.5 0-1.46.15-2.25 1l.68.88c.53-.48 1.05-.68 1.46-.68.64 0 .95.4.95.87 0 .84-1 1.87-3.2 3.64v.86zm8.26-6.58c-1.53 0-2.46 1.03-2.46 2.37 0 1.2.93 2.16 2.2 2.16.05 0 .13-.01.2-.02l-1.13 1.5 1.06.72 1.97-2.65c.4-.52.62-1.15.62-1.77 0-1.3-.92-2.3-2.45-2.3zm0 1.18c.67 0 1.05.5 1.05 1.13 0 .6-.4 1.1-1.05 1.1-.64 0-1.06-.5-1.06-1.1 0-.64.4-1.13 1.06-1.13zm5.92 5.5c1.5 0 2.68-1.15 2.68-2.6s-1.18-2.6-2.68-2.6c-1.5 0-2.67 1.15-2.67 2.6s1.18 2.6 2.67 2.6zm0-1.24c-.75 0-1.3-.57-1.3-1.36 0-.78.56-1.36 1.3-1.36s1.3.58 1.3 1.36c0 .8-.56 1.36-1.3 1.36z" class="D"/><path d="M246.104 153.9h4.45v-.63h-4.45v.63zm0 1.5h4.45v-.63h-4.45v.63zm33.804 1.15h.68v-1.88h1.9v-.63h-1.9v-1.88h-.68v1.88h-1.88v.63h1.88v1.88zm5.958 1.07c-.8-.92-1.3-2.12-1.3-3.48s.5-2.56 1.3-3.48l-.45-.48c-.85.85-1.6 2.16-1.6 3.96s.76 3.1 1.6 3.96l.45-.48zm2.826-.63h.76v-6.48h-.67l-1.87 1.5.36.55 1.42-1.02V157zm2.393-2.07h3.8v-.65h-3.8v.65zm7.503 2.17c1.38 0 2.26-1.16 2.26-2.6s-.9-2.6-2.28-2.6c-.58 0-1.15.23-1.5.66v-2.14h-1.34V157h1.27v-.6c.37.48 1 .7 1.6.7zm-.34-1.24c-.68 0-1.2-.56-1.2-1.36 0-.78.5-1.36 1.2-1.36.72 0 1.24.58 1.24 1.36 0 .8-.52 1.36-1.24 1.36zm3.466 2.58h1.34v-2c.36.44.93.67 1.5.67 1.38 0 2.28-1.16 2.28-2.6 0-1.43-.88-2.6-2.26-2.6-.6 0-1.2.2-1.6.7v-.6h-1.27v6.44zm2.52-2.58c-.7 0-1.2-.57-1.2-1.36 0-.8.5-1.36 1.2-1.36.73 0 1.24.57 1.24 1.36s-.5 1.36-1.24 1.36zm6.346 1.24c1.38 0 2.26-1.16 2.26-2.6s-.9-2.6-2.28-2.6c-.58 0-1.15.23-1.5.66v-2.14h-1.34V157h1.27v-.6c.37.48 1 .7 1.6.7zm-.34-1.24c-.68 0-1.2-.56-1.2-1.36 0-.78.5-1.36 1.2-1.36.72 0 1.24.58 1.24 1.36 0 .8-.52 1.36-1.24 1.36zm2.896 1.33h.7l3.1-7.12h-.72l-3.08 7.12zm6.152-.2h.76v-6.48h-.67l-1.87 1.5.36.55 1.42-1.02V157zm4.953.1c1.42 0 2.43-1.4 2.43-3.34s-1-3.34-2.43-3.34c-1.43 0-2.44 1.4-2.44 3.34s1 3.34 2.44 3.34zm0-.7c-1 0-1.63-1.1-1.63-2.64 0-1.54.64-2.64 1.63-2.64.98 0 1.6 1.1 1.6 2.64 0 1.53-.63 2.64-1.6 2.64zm5.77.7c1.42 0 2.43-1.4 2.43-3.34s-1-3.34-2.43-3.34c-1.43 0-2.44 1.4-2.44 3.34s1 3.34 2.44 3.34zm0-.7c-1 0-1.63-1.1-1.63-2.64 0-1.54.64-2.64 1.63-2.64.98 0 1.6 1.1 1.6 2.64 0 1.53-.63 2.64-1.6 2.64zm3.762 1.7c.85-.85 1.6-2.16 1.6-3.96s-.76-3.1-1.6-3.96l-.45.48c.8.92 1.3 2.12 1.3 3.48s-.5 2.56-1.3 3.48l.45.48zm4.055-4.16h.53l-.03-1.38 1.18.73.25-.45-1.24-.65 1.24-.67-.25-.45-1.18.73.04-1.38h-.54l.04 1.38-1.2-.73-.25.45 1.24.67-1.24.65.25.45 1.18-.72-.03 1.37zm5 3.68c-.8-.92-1.3-2.12-1.3-3.48s.5-2.56 1.3-3.48l-.45-.48c-.85.85-1.6 2.16-1.6 3.96s.76 3.1 1.6 3.96l.45-.48zm29.642-2.7h3.8v-.65h-3.8v.65zm31.03 3.18c.85-.85 1.6-2.16 1.6-3.96s-.76-3.1-1.6-3.96l-.45.48c.8.92 1.3 2.12 1.3 3.48s-.5 2.56-1.3 3.48l.45.48z" class="B"/><path d="M251.792 157h1.34v-5h-1.34v5zm.66-5.6c.44 0 .8-.36.8-.8 0-.44-.36-.8-.8-.8-.43 0-.8.36-.8.8 0 .43.36.8.8.8zm4.574 5.7c1.38 0 2.26-1.16 2.26-2.6s-.9-2.6-2.28-2.6c-.58 0-1.15.23-1.5.66v-2.14h-1.34V157h1.27v-.6c.37.48 1 .7 1.6.7zm-.34-1.24c-.68 0-1.2-.56-1.2-1.36 0-.78.5-1.36 1.2-1.36.72 0 1.24.58 1.24 1.36 0 .8-.52 1.36-1.24 1.36zm3.396 1.14h4.8v-1.2h-2.64c1.2-.9 2.44-2.2 2.44-3.43 0-1.28-1.02-1.96-2.25-1.96-.5 0-1.46.15-2.25 1l.68.88c.53-.48 1.05-.68 1.46-.68.64 0 .95.4.95.87 0 .84-1 1.87-3.2 3.64v.86zm8.26-6.58c-1.53 0-2.46 1.03-2.46 2.37 0 1.2.93 2.16 2.2 2.16.05 0 .13-.01.2-.02l-1.13 1.5 1.06.72 1.97-2.65c.4-.52.62-1.15.62-1.77 0-1.3-.92-2.3-2.45-2.3zm0 1.18c.67 0 1.05.5 1.05 1.13 0 .6-.4 1.1-1.05 1.1-.64 0-1.06-.5-1.06-1.1 0-.64.4-1.13 1.06-1.13zm5.92 5.5c1.5 0 2.68-1.15 2.68-2.6s-1.18-2.6-2.68-2.6c-1.5 0-2.67 1.15-2.67 2.6s1.18 2.6 2.67 2.6zm0-1.24c-.75 0-1.3-.57-1.3-1.36 0-.78.56-1.36 1.3-1.36s1.3.58 1.3 1.36c0 .8-.56 1.36-1.3 1.36zm69.122 1.14h1.47l.6-.9.43-.83.45.83.56.9h1.48l-1.66-2.55 1.66-2.45h-1.47l-.6.9-.42.78-.43-.78-.6-.9h-1.47l1.65 2.45-1.65 2.55zm8.484.1c1.38 0 2.26-1.16 2.26-2.6s-.9-2.6-2.28-2.6c-.58 0-1.15.23-1.5.66v-2.14H349V157h1.27v-.6c.37.48 1 .7 1.6.7zm-.34-1.24c-.68 0-1.2-.56-1.2-1.36 0-.78.5-1.36 1.2-1.36.72 0 1.24.58 1.24 1.36 0 .8-.52 1.36-1.24 1.36zm3.396 1.14h4.8v-1.2h-2.64c1.2-.9 2.44-2.2 2.44-3.43 0-1.28-1.02-1.96-2.25-1.96-.5 0-1.46.15-2.25 1l.68.88c.53-.48 1.05-.68 1.46-.68.64 0 .95.4.95.87 0 .84-1 1.87-3.2 3.64v.86zm8.26-6.58c-1.53 0-2.46 1.03-2.46 2.37 0 1.2.93 2.16 2.2 2.16.05 0 .13-.01.2-.02l-1.13 1.5 1.06.72 1.97-2.65c.4-.52.62-1.15.62-1.77 0-1.3-.92-2.3-2.45-2.3zm0 1.18c.67 0 1.05.5 1.05 1.13 0 .6-.4 1.1-1.05 1.1-.64 0-1.06-.5-1.06-1.1 0-.64.4-1.13 1.06-1.13zm5.92 5.5c1.5 0 2.68-1.15 2.68-2.6s-1.18-2.6-2.68-2.6c-1.5 0-2.67 1.15-2.67 2.6s1.18 2.6 2.67 2.6zm0-1.24c-.75 0-1.3-.57-1.3-1.36 0-.78.56-1.36 1.3-1.36s1.3.58 1.3 1.36c0 .8-.56 1.36-1.3 1.36zm8.007 1.14h1.34v-5h-1.34v5zm.66-5.6c.44 0 .8-.36.8-.8 0-.44-.36-.8-.8-.8-.43 0-.8.36-.8.8 0 .43.36.8.8.8zm4.574 5.7c1.38 0 2.26-1.16 2.26-2.6s-.9-2.6-2.28-2.6c-.58 0-1.15.23-1.5.66v-2.14h-1.34V157h1.27v-.6c.37.48 1 .7 1.6.7zm-.34-1.24c-.68 0-1.2-.56-1.2-1.36 0-.78.5-1.36 1.2-1.36.72 0 1.24.58 1.24 1.36 0 .8-.52 1.36-1.24 1.36zm3.396 1.14h4.8v-1.2h-2.64c1.2-.9 2.44-2.2 2.44-3.43 0-1.28-1.02-1.96-2.25-1.96-.5 0-1.46.15-2.25 1l.68.88c.53-.48 1.05-.68 1.46-.68.64 0 .95.4.95.87 0 .84-1 1.87-3.2 3.64v.86zm8.26-6.58c-1.53 0-2.46 1.03-2.46 2.37 0 1.2.93 2.16 2.2 2.16.05 0 .13-.01.2-.02l-1.13 1.5 1.06.72 1.97-2.65c.4-.52.62-1.15.62-1.77 0-1.3-.92-2.3-2.45-2.3zm0 1.18c.67 0 1.05.5 1.05 1.13 0 .6-.4 1.1-1.05 1.1-.64 0-1.06-.5-1.06-1.1 0-.64.4-1.13 1.06-1.13zm5.92 5.5c1.5 0 2.68-1.15 2.68-2.6s-1.18-2.6-2.68-2.6c-1.5 0-2.67 1.15-2.67 2.6s1.18 2.6 2.67 2.6zm0-1.24c-.75 0-1.3-.57-1.3-1.36 0-.78.56-1.36 1.3-1.36s1.3.58 1.3 1.36c0 .8-.56 1.36-1.3 1.36z" class="C"/></g><g opacity=".3"><path d="M224.533 41.1075c.624 0 1.355-.3333 1.677-.86V41h1.355v-5.375h-1.44v2.752c0 .73-.365 1.3652-1.118 1.3652-.666 0-.99-.344-.99-1.0965V35.625h-1.44v3.2142c0 1.3975.473 2.2683 1.956 2.2683zm7.21 0c1.484 0 2.43-1.247 2.43-2.795s-.968-2.795-2.45-2.795c-.624 0-1.237.2472-1.624.7095v-2.3005h-1.44V41h1.365v-.645c.398.516 1.075.7525 1.72.7525zm-.365-1.333c-.73 0-1.28-.602-1.28-1.462 0-.8385.538-1.462 1.28-1.462.774 0 1.333.6235 1.333 1.462 0 .8492-.56 1.462-1.333 1.462z" class="D"/><path d="M235.328 37.6782h4.784V37h-4.784v.6772zm0 1.6125h4.784v-.6772h-4.784v.6772zM241.583 41h.817v-3c0-.7633.548-1.5373 1.462-1.5373.946 0 1.258.5913 1.258 1.4835V41h.828v-3.053c0-.7848.56-1.4943 1.44-1.4943.957 0 1.27.5913 1.27 1.4835V41h.827v-3.1713c0-1.4405-.666-2.1715-1.924-2.1715-.613 0-1.43.344-1.806 1.1073-.247-.7418-.838-1.1073-1.677-1.1073-.73 0-1.387.4408-1.677 1.0105v-.903h-.817V41zm9.573.1075a.574.574 0 0 0 .57-.5698.574.574 0 0 0-.57-.5697c-.312 0-.56.258-.56.5697s.237.5698.56.5698zm21.94.5698c-.86-.989-1.41-2.279-1.41-3.741s.55-2.752 1.41-3.74l-.484-.516c-.914.9138-1.73 2.322-1.73 4.257s.817 3.3433 1.73 4.257l.484-.516zM274.243 41h.817v-3c0-.7633.548-1.5373 1.462-1.5373.946 0 1.257.5913 1.257 1.4835V41h.828v-3.053c0-.7848.56-1.4943 1.44-1.4943.956 0 1.268.5913 1.268 1.4835V41h.828v-3.1713c0-1.4405-.667-2.1715-1.924-2.1715-.613 0-1.43.344-1.806 1.1073-.248-.7418-.84-1.1073-1.677-1.1073-.73 0-1.387.4408-1.677 1.0105v-.903h-.817V41zm9.573.1075c.31 0 .57-.258.57-.5698s-.258-.5697-.57-.5697-.56.258-.56.5697.236.5698.56.5698zm23.65.5698c-.86-.989-1.408-2.279-1.408-3.741s.548-2.752 1.408-3.74l-.483-.516c-.914.9138-1.73 2.322-1.73 4.257s.817 3.3433 1.73 4.257l.483-.516zm.587-.6773h1.58l.635-.9783.462-.8922.484.8922.602.9783h1.59l-1.785-2.7413 1.785-2.6337h-1.58l-.645.9675-.45.8385-.462-.8385-.635-.9675h-1.58l1.774 2.6337L308.054 41zm6.036 1.548h1.44v-2.1608c.387.473 1 .7203 1.624.7203 1.483 0 2.45-1.247 2.45-2.8058 0-1.5372-.946-2.7842-2.43-2.7842-.645 0-1.28.2257-1.72.7525v-.645H314.1v6.923zm2.71-2.7735c-.742 0-1.28-.6128-1.28-1.462 0-.86.548-1.462 1.28-1.462.785 0 1.333.6127 1.333 1.462s-.548 1.462-1.333 1.462zm6.822 1.333c1.483 0 2.43-1.247 2.43-2.795s-.967-2.795-2.45-2.795c-.623 0-1.236.2472-1.623.7095v-2.3005h-1.44V41h1.365v-.645c.398.516 1.075.7525 1.72.7525zm-.366-1.333c-.73 0-1.28-.602-1.28-1.462 0-.8385.538-1.462 1.28-1.462.774 0 1.333.6235 1.333 1.462 0 .8492-.56 1.462-1.333 1.462zm7.942-.9998h4.074v-.6987h-4.074v.6987zM335.275 41h.936l1.193-1.5802c.16-.2043.333-.5483.333-.5483l.344.5483L339.264 41h.935l-1.946-2.666 1.903-2.5693h-.925l-1.17 1.5588-.312.4837-.323-.4837-1.17-1.5588h-.936l1.914 2.5693L335.275 41zm5.595 0h1.44v-2.064c0-1.2793.613-1.85 1.86-1.85v-1.5695c-1.183 0-1.73.6987-1.882 1.1395v-1.032h-1.42V41zm8.3-2.2253h4.074v-.6987h-4.074v.6987zm5.433 3.8055c.613 0 1.355-.086 1.924-1.3222l2.494-5.4933h-.838l-1.56 3.483-.247.6235s-.118-.344-.237-.5912l-1.644-3.5153h-.85L356 40.656l-.12.2365c-.354.7525-.71.9138-1.28.9138v.774zm7.52 0c1.784 0 2.85-1.118 2.85-2.88V35.625h-1.366v.73c-.3-.5375-1-.8385-1.687-.8385-1.495 0-2.43 1.16-2.43 2.6015 0 1.4297.935 2.5907 2.43 2.5907.795 0 1.376-.3762 1.612-.7955 0 .043 0 .086-.01.1183-.043.86-.548 1.462-1.548 1.462-.505 0-1.128-.1505-1.558-.4837l-.538.903c.495.4085 1.28.6664 2.247.6664zm.118-3.1282c-.73 0-1.3-.56-1.3-1.333 0-.7848.56-1.3545 1.3-1.3545.742 0 1.3.5697 1.3 1.3222 0 .8063-.548 1.3653-1.3 1.3653zm7.6 1.7523h.763l3.322-7.654h-.774l-3.31 7.654zM374.175 41h4.332v-.73h-3.333l.58-.6343 2.698-3.2572v-.6128h-4.14v.73h3.118l-.548.5913-2.71 3.2895V41zm5.58 1.1933c.914-.9138 1.73-2.322 1.73-4.257s-.817-3.3432-1.73-4.257l-.484.516c.86.99 1.408 2.28 1.408 3.74s-.548 2.752-1.408 3.741l.484.516zm2.758.2795h.58l.752-2.4618h-.806l-.527 2.4618zM384.782 41h5.16v-1.2793h-2.838c1.3-.9675 2.623-2.365 2.623-3.6872 0-1.376-1.097-2.107-2.42-2.107-.527 0-1.57.1612-2.42 1.0857l.73.946c.57-.516 1.13-.73 1.57-.73.688 0 1.02.43 1.02.9353 0 .903-1.075 2.0102-3.43 3.913V41zm8.6.1075c1.71 0 2.87-.9353 2.87-2.4295 0-1.4513-1.193-2.2038-2.58-2.2038-.3 0-.57.043-.817.1183v-1.2793h3V34.034h-4.44v3.483l.526.4837c.3-.172.785-.3547 1.28-.3547.86 0 1.537.3655 1.537 1.1072 0 .5805-.452 1.118-1.42 1.118-.59 0-1.27-.2365-1.645-.5375l-.548 1.0643c.527.4192 1.28.7095 2.236.7095zm6.236 0c1.71 0 2.87-.9353 2.87-2.4295 0-1.4513-1.193-2.2038-2.58-2.2038-.3 0-.57.043-.817.1183v-1.2793h3V34.034h-4.44v3.483l.527.4837c.3-.172.785-.3547 1.28-.3547.86 0 1.538.3655 1.538 1.1072 0 .5805-.452 1.118-1.42 1.118-.592 0-1.27-.2365-1.645-.5375l-.548 1.0643c.526.4192 1.28.7095 2.236.7095zm4.343 1.0858c.914-.9138 1.73-2.322 1.73-4.257s-.817-3.3432-1.73-4.257l-.483.516c.86.99 1.408 2.28 1.408 3.74s-.548 2.752-1.408 3.741l.483.516z" class="B"/><path d="M252.802 41h1.44v-2.7843c0-.7095.365-1.333 1.096-1.333.774 0 .936.5268.936 1.2363V41h1.44v-2.838c0-.7095.387-1.2793 1.097-1.2793.763 0 .935.5268.935 1.2363V41h1.44v-3.0638c0-1.376-.473-2.4187-1.988-2.4187-.613 0-1.355.3117-1.742.9567-.28-.602-.806-.9567-1.655-.9567-.645 0-1.28.344-1.59.8277v-.7202h-1.41V41zm9.407 0h1.44v-5.375h-1.44V41zm.71-6.0308c.473 0 .86-.387.86-.8492a.863.863 0 0 0-.86-.86c-.462 0-.85.387-.85.86 0 .4622.387.8492.85.8492zM264.75 41h1.44v-2.7198c0-.817.483-1.3975 1.204-1.3975.73 0 .935.4193.935 1.204V41h1.44v-3.096c0-1.4728-.494-2.3865-1.913-2.3865-.656 0-1.27.2365-1.7.8277v-.7202h-1.408V41zm22.626.1075c1 0 2.344-.4408 2.344-1.763 0-1.0965-1-1.4943-1.914-1.7093-.494-.1075-.946-.2042-.946-.5052 0-.2258.312-.3763.645-.3763.473 0 .968.1183 1.494.3763l.484-1.075c-.56-.3225-1.118-.5375-2-.5375-1.01 0-2.086.5805-2.086 1.677 0 1.032.87 1.3867 1.935 1.6662.462.13.925.2043.925.5268s-.55.4515-.882.4515c-.806 0-1.31-.2903-1.677-.5698l-.516 1.1073c.3.2795 1.043.73 2.193.73zm3.2-.1075h1.44v-2.064c0-1.2793.613-1.85 1.86-1.85v-1.5695c-1.183 0-1.73.6987-1.882 1.1395v-1.032h-1.42V41zm7.955 1.548h1.44v-6.923h-1.365v.645c-.398-.516-1.075-.7525-1.72-.7525-1.483 0-2.43 1.247-2.43 2.7842 0 1.5588.967 2.8058 2.45 2.8058.623 0 1.236-.2473 1.623-.7203v2.1608zm-1.28-2.7735c-.774 0-1.333-.6128-1.333-1.462s.56-1.462 1.333-1.462c.74 0 1.28.602 1.28 1.462 0 .8492-.538 1.462-1.28 1.462zm5.833 1.333c.57 0 1.043-.1935 1.365-.4085l-.408-1.0643c-.043.0323-.344.2258-.688.2258-.258 0-.484-.1505-.484-.6128V36.786h1.483v-1.16h-1.483v-1.3545l-1.44.3225v1.032h-.784v1.16h.784v2.4832c0 1.2148.58 1.8383 1.656 1.8383zM326.82 37.86h3.6v-1.0105h-1.86c.935-.7418 1.73-1.5695 1.73-2.5155s-.752-1.4943-1.74-1.4943c-.645 0-1.226.2688-1.7.7848l.55.7525c.3-.3225.655-.516.99-.516.483 0 .688.258.688.5912 0 .6236-.753 1.42-2.258 2.6983v.7095zm17.973 0h3.6v-1.0105h-1.86c.936-.7418 1.73-1.5695 1.73-2.5155s-.752-1.4943-1.74-1.4943c-.645 0-1.226.2688-1.7.7848l.548.7525c.29-.3225.656-.516.99-.516.484 0 .688.258.688.5912 0 .6236-.752 1.42-2.257 2.6983v.7095zm21.1 0h3.6v-1.0105h-1.86c.936-.7418 1.73-1.5695 1.73-2.5155s-.752-1.4943-1.74-1.4943c-.645 0-1.226.2688-1.7.7848l.548.7525c.29-.3225.656-.516.99-.516.484 0 .688.258.688.5912 0 .6236-.752 1.42-2.257 2.6983v.7095z" class="C"/></g><g opacity=".1"><path d="M222.558 24h1.514v-7.4354h-1.514V24zm2.67 0h1.514v-2.8702c0-.8136.44-1.4577 1.243-1.4577.746 0 .995.4407.995 1.2656V24h1.514v-3.2544c0-1.582-.542-2.5086-2.01-2.5086-.678 0-1.3.2373-1.74.825v-2.4973h-1.514V24zm9.59.113c1.56 0 2.553-1.3108 2.553-2.938s-1.017-2.938-2.576-2.938c-.655 0-1.3.26-1.706.7458v-2.4182h-1.515V24h1.436v-.678c.418.5424 1.13.79 1.808.79zm-.385-1.4012c-.768 0-1.344-.6328-1.344-1.5368 0-.8814.565-1.5368 1.344-1.5368.814 0 1.402.6554 1.402 1.5368 0 .8927-.588 1.5368-1.402 1.5368zM238.35 24h1.514v-2.1696c0-1.3447.644-1.9436 1.955-1.9436V18.237c-1.243 0-1.82.7345-1.977 1.1978V18.35h-1.492V24z" class="D"/><path d="M242.88 20.5083h5.028v-.712h-5.028v.712zm0 1.695h5.028v-.712h-5.028v.712zM249.454 24h.86v-3.164c0-.8023.576-1.616 1.536-1.616.995 0 1.323.6215 1.323 1.5594V24h.87v-3.2092c0-.825.587-1.5707 1.514-1.5707 1.006 0 1.333.6215 1.333 1.5594V24h.87v-3.3335c0-1.5142-.7-2.2826-2.022-2.2826-.644 0-1.503.3616-1.9 1.164-.26-.7797-.88-1.164-1.763-1.164-.768 0-1.457.4633-1.762 1.0622v-.9492h-.86V24zm10.063.113c.327 0 .6-.2712.6-.599s-.272-.599-.6-.599-.588.2712-.588.599.25.599.588.599zm23.063.599c-.904-1.0396-1.48-2.3956-1.48-3.9324s.577-2.8928 1.48-3.9324l-.51-.5424c-.96.9605-1.82 2.4408-1.82 4.4748s.86 3.5143 1.82 4.4748l.51-.5424zm1.204-.712h.86v-3.164c0-.8023.576-1.616 1.537-1.616.994 0 1.322.6215 1.322 1.5594V24h.87v-3.2092c0-.825.588-1.5707 1.514-1.5707 1.006 0 1.334.6215 1.334 1.5594V24h.87v-3.3335c0-1.5142-.7-2.2826-2.023-2.2826-.644 0-1.503.3616-1.898 1.164-.26-.7797-.882-1.164-1.763-1.164-.77 0-1.458.4633-1.763 1.0622v-.9492h-.86V24zm10.063.113a.603.603 0 0 0 .599-.5989.603.603 0 0 0-.599-.5989c-.328 0-.588.2712-.588.599s.25.599.588.599zm26.727.599c-.904-1.0396-1.48-2.3956-1.48-3.9324s.577-2.8928 1.48-3.9324l-.51-.5424c-.96.9605-1.82 2.4408-1.82 4.4748s.86 3.5143 1.82 4.4748l.51-.5424zm18.896-3.05h4.283v-.7345h-4.283v.7345zm18.618 3.8872h.6l.79-2.5877h-.848l-.553 2.5877zM360.7 24h.86v-5.503h-.86V24zm.43-6.4862c.316 0 .576-.2486.576-.565a.579.579 0 0 0-.576-.5763c-.317 0-.565.26-.565.5763a.559.559 0 0 0 .565.565zM363.006 24h.858v-3.1075c0-.87.633-1.6724 1.64-1.6724.994 0 1.4.5424 1.4 1.5594V24h.87v-3.3335c0-1.4803-.644-2.2826-2-2.2826-.814 0-1.514.3842-1.9 1.051v-2.8702h-.858V24zm9.03.113c1.525 0 2.6-1.2656 2.6-2.859 0-1.616-1.074-2.8702-2.6-2.8702-.87 0-1.66.3616-2.068 1.0735v-2.8928h-.86V24h.825v-.9605c.407.7232 1.21 1.0735 2.102 1.0735zm-.192-.8362c-1.05 0-1.876-.87-1.876-2.0227s.825-2.034 1.876-2.034c1.096 0 1.91.8588 1.91 2.034 0 1.164-.813 2.0227-1.91 2.0227zM375.85 24h.86v-2.6103c0-1.3447.836-2.068 2.125-2.068v-.938c-1.096 0-1.808.5537-2.125 1.277v-1.164h-.86V24zm4.244 1.2543c.96-.9605 1.82-2.4408 1.82-4.4748s-.86-3.5143-1.82-4.4748l-.508.5424c.904 1.0396 1.48 2.3956 1.48 3.9324s-.576 2.8928-1.48 3.9324l.508.5424zm2.9.2938h.6l.79-2.5877h-.847l-.554 2.5877zm4.6-1.548h.86v-7.3224h-.757l-2.113 1.6837.407.6215 1.604-1.1526V24zm5.597.113c1.605 0 2.746-1.5707 2.746-3.7742s-1.14-3.7742-2.746-3.7742c-1.616 0-2.757 1.5707-2.757 3.7742s1.14 3.7742 2.757 3.7742zm0-.79c-1.12 0-1.842-1.2543-1.842-2.9832 0-1.7402.723-2.9832 1.842-2.9832 1.108 0 1.82 1.243 1.82 2.9832 0 1.729-.71 2.9832-1.82 2.9832zm6.522.79c1.605 0 2.746-1.5707 2.746-3.7742s-1.14-3.7742-2.746-3.7742c-1.616 0-2.757 1.5707-2.757 3.7742s1.14 3.7742 2.757 3.7742zm0-.79c-1.12 0-1.842-1.2543-1.842-2.9832 0-1.7402.723-2.9832 1.842-2.9832 1.107 0 1.82 1.243 1.82 2.9832 0 1.729-.712 2.9832-1.82 2.9832zm4.25 1.9323c.96-.9605 1.82-2.4408 1.82-4.4748s-.86-3.5143-1.82-4.4748l-.508.5424c.904 1.0396 1.48 2.3956 1.48 3.9324s-.576 2.8928-1.48 3.9324l.508.5424z" class="B"/><path d="M261.247 24h1.514v-2.9267c0-.7458.384-1.4012 1.153-1.4012.813 0 .983.5537.983 1.2995V24h1.514v-2.9832c0-.7458.407-1.3447 1.153-1.3447.802 0 .983.5537.983 1.2995V24h1.514v-3.2205c0-1.4464-.497-2.5425-2.09-2.5425-.644 0-1.423.3277-1.83 1.0057-.294-.6328-.848-1.0057-1.74-1.0057-.678 0-1.345.3616-1.673.87v-.757h-1.48V24zm9.887 0h1.515v-5.65h-1.515V24zm.746-6.3393c.497 0 .904-.4068.904-.8927a.907.907 0 0 0-.904-.904c-.486 0-.892.4068-.892.904 0 .486.406.8927.892.8927zM273.805 24h1.514v-2.859c0-.8588.51-1.47 1.266-1.47.768 0 .983.4407.983 1.2656V24h1.514v-3.2544c0-1.548-.52-2.5086-2.01-2.5086-.7 0-1.334.2486-1.786.87v-.757h-1.48V24zm21.772 0h1.515v-2.9267c0-.7458.384-1.4012 1.152-1.4012.814 0 .983.5537.983 1.2995V24h1.514v-2.9832c0-.7458.407-1.3447 1.153-1.3447.802 0 .983.5537.983 1.2995V24h1.514v-3.2205c0-1.4464-.497-2.5425-2.1-2.5425-.644 0-1.424.3277-1.83 1.0057-.294-.6328-.847-1.0057-1.74-1.0057-.678 0-1.345.3616-1.672.87v-.757h-1.48V24zm12.272.113c.656 0 1.367-.2486 1.763-.79V24h1.48v-5.65h-1.48v.6893c-.407-.5424-1.107-.8023-1.763-.8023-1.56 0-2.554 1.3108-2.554 2.938s.995 2.938 2.554 2.938zm.384-1.4012c-.813 0-1.4-.644-1.4-1.5368 0-.8814.588-1.5368 1.4-1.5368.78 0 1.345.6554 1.345 1.5368 0 .904-.565 1.5368-1.345 1.5368zM311.8 24h1.66l.667-1.0283.485-.938.51.938.633 1.0283h1.672l-1.876-2.8815 1.876-2.7685h-1.66l-.678 1.017-.475.8814-.485-.8814-.667-1.017h-1.66l1.864 2.7685L311.8 24zm9.83 0h1.515v-5.65h-1.515V24zm.746-6.3393c.497 0 .904-.4068.904-.8927a.907.907 0 0 0-.904-.904c-.486 0-.893.4068-.893.904 0 .486.407.8927.893.8927zm4.05 6.4523c.6 0 1.096-.2034 1.435-.4294l-.43-1.1187c-.045.034-.362.2373-.723.2373-.27 0-.51-.1582-.51-.644v-2.5877h1.56V18.35h-1.56v-1.4238l-1.514.34V18.35h-.825v1.2204h.825v2.6103c0 1.277.6 1.9323 1.74 1.9323zm5.423 0c1.56 0 2.553-1.3108 2.553-2.938s-1.017-2.938-2.576-2.938c-.655 0-1.3.26-1.706.7458v-2.4182h-1.514V24h1.435v-.678c.418.5424 1.13.79 1.808.79zm-.385-1.4012c-.768 0-1.344-.6328-1.344-1.5368 0-.8814.565-1.5368 1.344-1.5368.814 0 1.402.6554 1.402 1.5368 0 .8927-.588 1.5368-1.402 1.5368zM335.38 24h1.514v-2.1696c0-1.3447.644-1.9436 1.955-1.9436V18.237c-1.243 0-1.82.7345-1.977 1.1978V18.35h-1.492V24zm12.568.113c1.56 0 2.554-1.3108 2.554-2.938s-1.017-2.938-2.577-2.938c-.655 0-1.3.26-1.706.7458v-2.4182h-1.514V24h1.435v-.678c.418.5424 1.13.79 1.808.79zm-.384-1.4012c-.77 0-1.345-.6328-1.345-1.5368 0-.8814.565-1.5368 1.345-1.5368.813 0 1.4.6554 1.4 1.5368 0 .8927-.588 1.5368-1.4 1.5368zm7.16 1.4012c1.56 0 2.553-1.3108 2.553-2.938s-1.017-2.938-2.576-2.938c-.655 0-1.3.26-1.706.7458v-2.4182h-1.515V24h1.436v-.678c.418.5424 1.13.79 1.808.79zm-.385-1.4012c-.768 0-1.344-.6328-1.344-1.5368 0-.8814.565-1.5368 1.344-1.5368.814 0 1.402.6554 1.402 1.5368 0 .8927-.588 1.5368-1.402 1.5368z" class="C"/></g></svg>