<svg xmlns="http://www.w3.org/2000/svg" xmlns:xlink="http://www.w3.org/1999/xlink" width="250" height="445" fill="none" xmlns:v="https://vecta.io/nano"><style><![CDATA[.B{fill-rule:evenodd}.C{fill:#fff}.D{fill:#000}.E{fill:#d7ff71}.F{fill:#a3cdff}.G{fill-opacity:.222}.H{fill:#2a3a4d}.I{fill-opacity:.3746}.J{fill-opacity:.2642}]]></style><g clip-path="url(#B)"><path fill="#1e2c3d" d="M0 0h250v444.667H0z"/><rect x="10.6641" y="21.332" width="228.667" height="73.3333" rx="5.3333" class="H"/><path d="M33.5626 40.943l-.441.733c-.1218.2028-.3912.2718-.6023.155l-1.2245-.68c-.6213.6735-1.4618 1.156-2.4156 1.3423v.9316c0 .234-.197.4233-.4405.4233h-.8818c-.2436 0-.4405-.1892-.4405-.4233v-.9316c-.9538-.1863-1.7943-.6688-2.4156-1.3423l-1.2245.68c-.211.1168-.4805.0478-.6023-.155l-.441-.733c-.1218-.2024-.0493-.4614.1614-.5778l1.2294-.6824c-.1463-.4207-.2338-.8682-.2338-1.3363s.0875-.9152.2338-1.3364l-1.2294-.682c-.2107-.1168-.2832-.3755-.1614-.5782l.441-.7332c.1218-.2023.3912-.2717.6023-.155l1.2245.68c.6213-.6735 1.4618-1.156 2.4156-1.3423v-.9317c0-.234.197-.4233.4405-.4233h.8818c.2436 0 .4405.1892.4405.4233v.9317c.9538.1862 1.7943.6688 2.4156 1.3423l1.2245-.68c.211-.1168.4805-.0474.6023.155l.441.7332c.1217.2027.0493.4614-.1614.5782l-1.2294.682c.1463.4212.2338.8682.2338 1.3364s-.0875.9156-.2338 1.3363l1.2294.6824c.2107.1164.283.3754.1614.5778h0zm.662-1.0987l-1.0325-.5723c.0578-.3006.096-.6074.096-.9245s-.0382-.624-.096-.9245l1.0325-.5723c.4218-.2336.5658-.7518.3222-1.1564l-.8814-1.4663c-.243-.4047-.7827-.544-1.204-.31l-1.0432.5778c-.487-.398-1.041-.7234-1.6565-.933v-.7184c0-.4673-.3947-.8466-.8818-.8466h-1.7627c-.487 0-.8818.3793-.8818.8466v.7184c-.6156.2095-1.1694.535-1.6565.933l-1.0432-.5778c-.4213-.234-.961-.0948-1.204.31l-.8814 1.4663c-.2436.4046-.099.9228.3222 1.1564l1.0325.5723c-.0578.3006-.096.608-.096.9245s.0382.624.096.9245l-1.0325.5723c-.4213.2336-.5658.7518-.3222 1.1564l.8814 1.4663c.243.4047.7827.544 1.204.31l1.0432-.5778c.487.398 1.041.7238 1.6565.933v.7184c0 .4673.3947.8466.8818.8466H28.88c.487 0 .8818-.3793.8818-.8466v-.7184c.6156-.209 1.1694-.535 1.6565-.933l1.0432.5778c.4213.234.961.0948 1.204-.31l.8814-1.4663c.2436-.4046.0996-.9228-.3222-1.1564h0zm-6.2272-.2275c-.7303 0-1.3223-.5685-1.3223-1.27s.592-1.27 1.3223-1.27 1.3222.569 1.3222 1.27-.592 1.27-1.3222 1.27h0zm.0001-3.3867c-1.2174 0-2.2036.9473-2.2036 2.1165s.9862 2.1165 2.2036 2.1165 2.204-.9474 2.204-2.1165-.9867-2.1165-2.204-2.1165h0z" fill-opacity=".9" class="B C"/><g clip-path="url(#C)"><g class="C"><path opacity=".4" d="M117.3 41.8c0 .416-.146.7644-.437 1.0452s-.68.4524-1.17.5148v.858h-.655v-.8424c-.35-.026-.674-.0936-.975-.2028-.302-.1144-.564-.2704-.788-.468l.3-.6006c.265.2184.535.377.8.4758s.577.1482.905.1482c.384 0 .68-.078.9-.234s.32-.3796.32-.6708c0-.1716-.058-.3094-.172-.4134-.1-.1092-.247-.1924-.413-.2496l-.695-.2028c-.4-.0988-.707-.1976-.95-.2964s-.455-.2522-.632-.4602-.257-.4836-.257-.8268c0-.4212.15-.7774.452-1.0686.307-.2964.7-.4732 1.2-.5304v-.8502h.655v.8502c.302.0312.585.104.85.2184.27.1144.5.26.687.4368l-.3.5928c-.468-.4056-.993-.6084-1.575-.6084-.36 0-.645.0832-.858.2496-.214.1612-.32.3848-.32.6708 0 .1924.06.35.18.4758.12.1196.268.2132.445.2808.177.0624.418.13.725.2028.38.0936.687.1872.92.2808s.434.2392.6.4368.25.4602.25.7878zm3.288.858h1.2v.663h-3.213v-.663h1.2v-3.8766l-.96.585-.343-.6006 1.53-.9438h.577v4.836zm3.102-.2652v.6318c0 .2444-.042.4654-.125.663-.078.2028-.213.4004-.406.5928l-.343-.273c.218-.234.343-.4628.374-.6864h-.43v-.9282h.93zm3.434.2652h1.2v.663h-3.214v-.663h1.2v-3.8766l-.96.585-.343-.6006 1.53-.9438h.577v4.836zm5.05-2.1606c.323.0936.572.26.75.4992s.265.5252.265.858c0 .4784-.177.8528-.53 1.1232-.35.2652-.843.3978-1.482.3978s-1.136-.1326-1.5-.3978c-.348-.2704-.523-.6448-.523-1.1232 0-.338.1-.6266.266-.8658s.434-.403.756-.4914c-.275-.104-.494-.2678-.655-.4914s-.234-.4836-.234-.78c0-.4524.166-.8086.5-1.0686.333-.2652.793-.3978 1.38-.3978s1.048.1326 1.38.3978c.333.26.5.6162.5 1.0686 0 .2964-.08.56-.242.7878-.156.2236-.37.3848-.64.4836zm-.998-2.0904c-.364 0-.64.078-.827.234-.187.1508-.28.3692-.28.6552 0 .2964.094.5226.28.6786s.463.234.827.234.64-.078.827-.234.28-.3822.28-.6786c0-.286-.093-.5044-.28-.6552-.188-.156-.463-.234-.827-.234zm0 4.3212c.827 0 1.24-.3094 1.24-.9282 0-.624-.413-.936-1.24-.936s-1.24.312-1.24.936c0 .6188.413.9282 1.24.9282zm4.942-2.886c.343 0 .645.0728.905.2184a1.487 1.487 0 0 1 .6.6162c.146.2652.22.5694.22.9126 0 .3536-.08.6656-.242.936s-.382.48-.68.6318c-.3.1456-.63.2184-1.02.2184-.338 0-.674-.0598-1.007-.1794-.327-.1196-.6-.2808-.82-.4836l.28-.5928c.494.4004 1.012.6006 1.552.6006.364 0 .648-.0962.85-.2886.202-.1976.304-.4732.304-.8268 0-.338-.102-.6084-.304-.8112s-.474-.3042-.812-.3042c-.483 0-.88.1872-1.193.5616h-.515V37.833h3.37v.6474h-2.574v1.7316c.286-.2392.647-.3588 1.084-.3588zm-26.468 37.718h.677v.787h.503v-.787h.538v.787h.5v-.8167c.948-.127 1.507-.656 1.507-1.4642 0-.728-.457-1.2145-1.22-1.312v-.0296c.584-.1692.897-.5755.897-1.1806 0-.6898-.448-1.1595-1.185-1.2738v-.82h-.5v.7914h-.538v-.7914h-.503v.7914h-.677v5.3193zm.715-4.7057h.986c.6 0 .97.3004.97.8167 0 .5882-.432.8464-1.388.8464h-.567v-1.663zm0 2.2724h1.07c.75 0 1.18.3428 1.18.9437s-.457.876-1.544.876h-.707V75.137zm6.33 2.7242c-.64 0-1.13-.2392-1.467-.7176s-.5-1.1752-.5-2.0904.166-1.612.5-2.0904c.338-.4836.827-.7254 1.467-.7254s1.125.2392 1.458.7176.507 1.1752.507 2.0904c0 .9204-.17 1.6198-.507 2.0982s-.82.7176-1.458.7176zm0-.6474c.4 0 .694-.1742.88-.5226s.28-.897.28-1.6458c0-.7436-.094-1.287-.28-1.6302-.187-.3484-.48-.5226-.88-.5226s-.695.1742-.882.5226c-.187.3432-.28.8866-.28 1.6302s.094 1.2922.28 1.6458c.187.3484.48.5226.882.5226zm3.463-.3432h.93v.9282h-.93v-.9282zm5.03.2652h1.2v.663h-3.213v-.663h1.2v-3.8766l-.96.585-.344-.6006 1.53-.9438h.577v4.836zm4.72.7254c-.64 0-1.128-.2392-1.466-.7176s-.5-1.1752-.5-2.0904.166-1.612.5-2.0904c.338-.4836.827-.7254 1.466-.7254s1.126.2392 1.46.7176.507 1.1752.507 2.0904c0 .9204-.17 1.6198-.507 2.0982s-.82.7176-1.46.7176zm0-.6474c.4 0 .694-.1742.882-.5226s.28-.897.28-1.6458c0-.7436-.093-1.287-.28-1.6302-.188-.3484-.48-.5226-.882-.5226s-.694.1742-.88.5226c-.187.3432-.28.8866-.28 1.6302s.094 1.2922.28 1.6458c.187.3484.48.5226.88.5226zm7.434-1.1934v.6396h-.803v1.1388h-.788V76.66h-2.473v-.6006l2.606-3.7596h.655v3.7206h.803zm-3.276 0h1.685v-2.4336l-1.685 2.4336zm7.34-1.0452c.322.0936.566.2548.733.4836.17.2236.257.507.257.8502 0 .4784-.17.8554-.507 1.13s-.795.4134-1.373.4134c-.364 0-.712-.0572-1.045-.1716-.333-.1196-.6-.2834-.834-.4914l.288-.5928c.494.4004 1.017.6006 1.568.6006.37 0 .647-.078.835-.234.192-.1612.288-.3978.288-.7098 0-.3068-.1-.5356-.296-.6864-.193-.156-.486-.234-.882-.234h-.678v-.6474h.554c.38 0 .668-.078.865-.234.203-.1612.305-.3952.305-.702 0-.2756-.084-.4862-.25-.6318-.166-.1508-.4-.2262-.702-.2262-.525 0-1.035.2002-1.53.6006l-.28-.5928c.22-.208.492-.3692.82-.4836.333-.1196.676-.1794 1.03-.1794.515 0 .926.1274 1.232.3822s.46.6006.46 1.0374c0 .3068-.076.5772-.227.8112s-.36.403-.63.507z"/></g><path d="M110.165 60.9154h2.94v2.4166h-8.893v-2.4166h2.938v-7.8687L104.83 54.4l-1.14-2.1653 4.33-2.5327h2.146v11.2134zm14.227 0v2.4166h-9.377v-2.2233l4.543-4.814c.954-1.0053 1.43-1.9333 1.43-2.784 0-1.0827-.62-1.624-1.856-1.624-.567 0-1.16.116-1.78.348-.618.219-1.224.5413-1.817.9667l-.947-2.146c.54-.464 1.237-.8314 2.088-1.102.85-.2836 1.72-.4254 2.6-.4254 1.418 0 2.545.3416 3.383 1.0247.85.683 1.276 1.5982 1.276 2.7453 0 .7863-.167 1.5145-.503 2.1847-.322.6702-.87 1.4178-1.643 2.2427l-3.035 3.2h5.626zm11.577 0v2.4166h-9.377v-2.2233l4.544-4.814c.953-1.0053 1.43-1.9333 1.43-2.784 0-1.0827-.618-1.624-1.856-1.624-.567 0-1.16.116-1.778.348-.62.219-1.225.5413-1.818.9667l-.947-2.146c.54-.464 1.237-.8314 2.088-1.102.85-.2836 1.72-.4254 2.6-.4254 1.418 0 2.545.3416 3.383 1.0247.85.683 1.276 1.5982 1.276 2.7453 0 .7863-.167 1.5145-.502 2.1847-.323.6702-.87 1.4178-1.644 2.2427l-3.035 3.2h5.626zm7.556-6.3994c.838 0 1.585.187 2.242.5607.658.361 1.167.87 1.528 1.5273s.54 1.4178.54 2.2814c0 .915-.22 1.7206-.657 2.4166-.426.696-1.038 1.2374-1.837 1.624-.786.3738-1.708.5607-2.765.5607-.863 0-1.72-.1353-2.57-.406-.85-.2836-1.54-.6573-2.07-1.1213l.948-2.146c1.25.8764 2.494 1.3146 3.73 1.3146.786 0 1.38-.1804 1.78-.5413.412-.361.618-.8958.618-1.6047 0-.6702-.212-1.1986-.638-1.5853-.412-.3867-.98-.58-1.7-.58-.45 0-.902.0838-1.353.2513a4.298 4.298 0 0 0-1.199.696h-1.72v-8.062h8.778v2.3007h-5.84v3.0353c.62-.348 1.347-.522 2.185-.522z" class="F"/></g><path d="M100.506 52.65c.515 0 .934-.4064.934-.9085s-.42-.9085-.934-.9085-.9338.4064-.9338.9085c0 .681-.233.9085-.934.9085-.5153 0-.934.4063-.934.9085 0 .681-.233.9084-.934.9084-.5153 0-.934.4064-.934.9085s.4178.9085.934.9085.934-.4064.934-.9085c0-.681.233-.9085.934-.9085.5153 0 .934-.4063.934-.9084 0-.68.233-.9085.9338-.9085zm-4.6725.9094c0 .502-.4187.9085-.934.9085s-.935-.4064-.935-.9085c0-.6818-.234-.9085-.934-.9085s-.934.2276-.934.9085c0 .502-.4188.9085-.934.9085s-.935-.4064-.935-.9085.4187-.9085.934-.9085c.7 0 .934-.2276.934-.9085 0-.502.4188-.9085.934-.9085s.934.4073.934.9085c0 .6818.234.9085.934.9085.518 0 .936.4073.936.9085zm-6.54 2.727c.5158 0 .934-.4067.934-.9085s-.4182-.9085-.934-.9085-.934.4068-.934.9085.418.9085.934.9085z" class="B F"/><mask id="A" maskUnits="userSpaceOnUse" x="196.418" y="40.875" width="30" height="34" class="D"><path d="M196.418 40.875h30v34h-30z" class="C"/><use xlink:href="#D" class="B"/></mask><use xlink:href="#D" class="B E"/><path d="M223.683 56.1364l-1.202-.3404c-.032.1107-.048.2253-.048.3404h1.25zm-24.25.0004l-1.203.3404a1.251 1.251 0 0 0 .955.8847c.46.093.93-.0783 1.224-.4437l-.976-.7814zm0-.0002h1.25a1.25 1.25 0 0 0-2.225-.7814l.975.7814zm11.54 15.1564l1.16-.4678a1.25 1.25 0 0 0-1.159-.7822v1.25zm.587 1.3736l-1.14.5113c.2.4494.648.7387 1.14.7387s.94-.2893 1.14-.7387l-1.14-.5113zm.587-1.3736v-1.25a1.251 1.251 0 0 0-1.159.7822l1.16.4678zm-.588-27.168c3 0 5.33.2 7.12.626s2.925 1.0535 3.63 1.8296c1.374 1.513 1.596 4.1848.173 9.2153l2.405.6808c1.418-5.0104 1.64-8.9693-.727-11.5767-1.166-1.284-2.837-2.0894-4.902-2.58s-4.626-.694-7.7-.694v2.5zm-10.922 11.6714c-1.424-5.0306-1.2-7.7024.173-9.2156.704-.776 1.84-1.4037 3.63-1.8297s4.13-.626 7.12-.626v-2.5c-3.072 0-5.634.2026-7.7.694s-3.735 1.297-4.9 2.581c-2.368 2.6074-2.146 6.5665-.728 11.577l2.406-.6808zm-2.178-.4412v.0002l1.95 1.5628v-.0001l-1.95-1.563zm-.275.7814v7.9572h2.5v-7.9572h-2.5zm0 7.9572c0 4.6664 3.783 8.4492 8.45 8.4492v-2.5c-3.286 0-5.95-2.6635-5.95-5.9492h-2.5zm8.45 8.4492h4.34v-2.5h-4.34v2.5zm3.18-.7822a39.856 39.856 0 0 0 .606 1.4171l2.28-1.0226c-.218-.4854-.406-.9276-.57-1.33l-2.318.9356zm2.887 1.417c.228-.5096.43-.98.606-1.417l-2.32-.9357c-.162.4025-.35.8446-.568 1.33l2.28 1.0226zm-.554-.635h4.338v-2.5h-4.338v2.5zm4.338 0c4.667 0 8.45-3.7828 8.45-8.4492h-2.5c0 3.2857-2.663 5.9492-5.95 5.9492v2.5zm8.45-8.4492v-7.9574h-2.5v7.9574h2.5z" mask="url(#A)" class="C"/><path d="M199.434 51.59c0-2.5112 2.035-4.547 4.546-4.547h15.157c2.51 0 4.547 2.0357 4.547 4.547v12.504c0 3.976-3.223 7.1993-7.2 7.1993h-9.85c-3.976 0-7.2-3.2232-7.2-7.1993V51.59z" fill="#df54ff"/><path d="M201.215 68.833c1.32 1.5072 3.258 2.46 5.418 2.46h9.852c3.976 0 7.2-3.2232 7.2-7.1993v-12.504c0-1.6194-.846-3.041-2.12-3.8466.444.702.7 1.534.7 2.4257v12.8828c0 3.7668-3.053 6.8204-6.82 6.8204h-10.61c-1.33 0-2.57-.3803-3.62-1.038z" class="B D J"/><path d="M211.558 42.875c12.125 0 14.967 3.2207 12.125 13.2618-1.373-1.5156-1.427-3.0786-1.427-5.1153-5.177 3.4886-16.22 3.4886-21.396 0 0 2.2735-.243 3.647-1.427 5.1153-2.842-10.041 0-13.2618 12.125-13.2618z" class="E"/><g class="B"><path d="M223.704 56.0592c-.818-2.3168-.6-5.603-.482-6.8893-5.75 3.8737-17.54 4.091-23.33.1895.242 1.3395.4 4.7342-.482 6.7008l.022.0765c1.184-1.4682 1.427-2.8418 1.427-5.1152 5.177 3.4886 16.22 3.4886 21.396 0 0 2.0366.053 3.5996 1.427 5.1152l.022-.0775z" class="D G"/><path d="M212.886 63.1465c1.312 0 1.914 1.1444 3.03 1.421.935.2312 2.558.1894 2.558.1894-1.137 1.5157-6.347 1.8472-6.915-.3162-.568 2.1634-5.59 1.832-6.915.3162 0 0 1.622.0418 2.557-.1894 1.118-.2765 1.72-1.421 3.03-1.421.923 0 1.153.3817 1.327.7578.173-.376.403-.7578 1.326-.7578z" class="E"/><path d="M205.4 64.7546l-.756.0027c1.326 1.5157 6.347 1.8472 6.915-.3162.568 2.1634 5.778 1.832 6.915.3162 0 0-.292.0076-.7-.0014-1.808.989-5.7.9753-6.2-.8633-.002.004-.003.008-.005.0122l-.006-.0114c-.51 1.8386-4.266 1.8515-6.153.8612z" class="D G"/></g><path d="M211.56 66.6523c-1.515 0-2.462.52 0 6.0152 2.463-5.4942 1.516-6.0152 0-6.0152z" class="E"/><g class="D"><path d="M210.107 67.4102c.15.895.594 2.2057 1.452 4.12.858-1.9142 1.303-3.2248 1.453-4.12.214.7657-.12 2.2826-1.453 5.2566-1.333-2.974-1.667-4.491-1.452-5.2566z" class="B G"/><use xlink:href="#E" class="I"/><path d="M214.493 60.4004c.68 0 1.232-.5513 1.232-1.2314s-.552-1.2315-1.232-1.2315-1.23.5513-1.23 1.2315.55 1.2314 1.23 1.2314z" class="I"/><path d="M205.402 58.127a1.137 1.137 0 0 1 1.137-1.1368h3.22a1.137 1.137 0 0 1 1.137 1.1368v.764c.145-.055.358-.101.663-.101s.517.046.663.101v-.764a1.137 1.137 0 0 1 1.136-1.1368h3.22a1.137 1.137 0 0 1 1.137 1.1368v2.084a1.137 1.137 0 0 1-1.137 1.1367h-3.22a1.137 1.137 0 0 1-1.136-1.1367v-.8308c-.153-.0616-.372-.1165-.663-.1165s-.5.055-.663.1165v.8308a1.137 1.137 0 0 1-1.137 1.1367h-3.22a1.137 1.137 0 0 1-1.137-1.1367v-2.084zm.474.0947a.758.758 0 0 1 .758-.7578h3.03a.758.758 0 0 1 .758.7578v1.8945a.758.758 0 0 1-.758.7578h-3.03a.758.758 0 0 1-.758-.7578v-1.8945zm7.578-.7578c-.418 0-.758.3393-.758.7578v1.8945c0 .4185.34.7578.758.7578h3.03a.758.758 0 0 0 .758-.7578v-1.8945a.758.758 0 0 0-.758-.7578h-3.03z" class="B"/><path fill-opacity=".5" d="M0 0h250v444.667H0z"/></g><path d="M0 98c0-11.0457 8.9543-20 20-20h210c11.046 0 20 8.9543 20 20v346.667H0V98z" class="H"/><rect x="105.336" y="83.334" width="40" height="2.6667" rx="1.3333" fill-opacity=".1" class="C"/><rect x="26.668" y="350.668" width="196.667" height="33.3333" rx="16.6667" class="F"/><path d="M89.2753 371.114c-.8782 0-1.6466-.186-2.3053-.557-.6502-.38-1.1527-.917-1.5073-1.61-.3463-.692-.5194-1.5-.5194-2.42s.173-1.723.5194-2.407c.3546-.692.857-1.224 1.5073-1.596.6587-.38 1.427-.57 2.3053-.57.5996 0 1.1654.093 1.6974.28s.9795.447 1.3426.785l-.5446 1.19c-.4054-.32-.8065-.553-1.2034-.697-.397-.152-.819-.228-1.2666-.228-.8614 0-1.5285.28-2.0014.836-.4644.557-.6966 1.36-.6966 2.407 0 1.055.2322 1.862.6966 2.42.473.557 1.14.836 2.0014.836.4475 0 .8697-.072 1.2666-.215.397-.152.798-.39 1.2034-.7l.5446 1.19c-.363.338-.8106.6-1.3426.785s-1.0978.28-1.6974.28zm7.0706-.013c-.6333 0-1.1907-.13-1.672-.392-.473-.262-.8402-.638-1.102-1.128s-.3927-1.06-.3927-1.7.131-1.216.3927-1.697c.2618-.5.629-.866 1.102-1.127.4813-.262 1.0387-.393 1.672-.393s1.1865.13 1.6593.393c.4814.26.8487.637 1.102 1.127.2618.48.3927 1.047.3927 1.697s-.131 1.22-.3927 1.7c-.2533.5-.6206.866-1.102 1.128-.4728.26-1.026.392-1.6593.392zm-.0127-1.228c.5152 0 .9078-.17 1.178-.507s.4054-.836.4054-1.495c0-.65-.135-1.144-.4054-1.482-.2702-.346-.6586-.52-1.1653-.52s-.8993.173-1.178.52c-.2702.338-.4053.832-.4053 1.482 0 .66.135 1.157.4053 1.495s.6587.507 1.1653.507zm8.0108-5.22c.532 0 1.005.135 1.42.405.422.27.747.655.975 1.153.236.5.355 1.056.355 1.697s-.12 1.204-.355 1.685c-.228.48-.55.853-.963 1.115s-.89.392-1.43.392c-.44 0-.832-.093-1.178-.278s-.612-.444-.798-.773v3.23h-1.583v-8.474h1.558v.937a1.907 1.907 0 0 1 .798-.798c.354-.194.755-.29 1.203-.29zm-.418 5.22c.498 0 .887-.17 1.165-.507.28-.346.418-.832.418-1.457 0-.64-.14-1.14-.418-1.494s-.667-.532-1.165-.532c-.507 0-.9.173-1.178.52-.27.346-.405.84-.405 1.482 0 .633.135 1.123.405 1.47.28.347.67.52 1.178.52zm8.69-5.054h1.558l-3.724 8.46h-1.596l1.128-2.52-2.584-5.94h1.672l1.748 4.37 1.798-4.37zM125.3 371l-.9-2.1h-4.345l-.9 2.1h-1.647l4.04-8.93h1.33l4.04 8.93h-1.62zm-4.712-3.357h3.268l-1.634-3.8-1.634 3.8zm13.103-5.573V371h-1.57v-1c-.186.347-.456.617-.81.81-.346.194-.743.29-1.2.29-.532 0-1-.135-1.432-.405-.414-.27-.74-.65-.975-1.14-.228-.498-.342-1.068-.342-1.7s.114-1.203.342-1.685c.236-.48.56-.853.975-1.114s.89-.393 1.432-.393c.447 0 .844.093 1.2.28s.612.447.798.785v-3.648h1.584zm-3.154 7.803c.506 0 .895-.173 1.165-.52.28-.346.418-.84.418-1.482s-.14-1.13-.418-1.47c-.27-.346-.655-.52-1.153-.52-.506 0-.9.17-1.178.506s-.418.824-.418 1.457c0 .642.14 1.14.418 1.495s.667.532 1.166.532zm10.74-7.803V371h-1.57v-1c-.186.347-.456.617-.81.81-.346.194-.743.29-1.2.29-.532 0-1.01-.135-1.432-.405-.413-.27-.74-.65-.975-1.14-.228-.498-.342-1.068-.342-1.7s.114-1.203.342-1.685c.236-.48.562-.853.975-1.114s.89-.393 1.432-.393c.447 0 .844.093 1.2.28s.613.447.798.785v-3.648h1.584zm-3.154 7.803c.506 0 .895-.173 1.165-.52.28-.346.418-.84.418-1.482s-.14-1.13-.418-1.47c-.27-.346-.654-.52-1.153-.52-.506 0-.9.17-1.178.506s-.418.824-.418 1.457c0 .642.14 1.14.418 1.495s.667.532 1.166.532zm8.84-3.902l-.925.09c-1.047.1-1.57.642-1.57 1.596V371h-1.583v-6.194h1.507v1.09c.32-.743.984-1.148 1.99-1.216l.48-.038.102 1.33zm6.058 2.217H148.8c.05.574.224 1 .52 1.28s.718.418 1.267.418c.684 0 1.31-.22 1.875-.658l.456 1.09c-.287.236-.65.426-1.1.57-.43.144-.865.215-1.304.215-1.014 0-1.816-.287-2.407-.86-.583-.574-.874-1.36-.874-2.356 0-.633.127-1.195.38-1.685s.608-.87 1.064-1.14c.464-.27.988-.405 1.57-.405.853 0 1.524.274 2.014.823.498.55.747 1.305.747 2.268v.443zm-2.723-2.42c-.423 0-.765.135-1.026.405-.254.27-.4.66-.47 1.165h2.863c-.017-.515-.144-.903-.38-1.165-.237-.27-.566-.405-.988-.405zm6.276 5.332c-.55 0-1.056-.067-1.52-.202-.456-.135-.845-.33-1.166-.583l.444-1.102c.658.48 1.414.722 2.267.722.363 0 .638-.06.823-.177.195-.12.292-.287.292-.507 0-.186-.068-.33-.203-.43-.127-.1-.36-.194-.697-.278l-1.013-.228c-.574-.127-1-.334-1.28-.62s-.418-.66-.418-1.115c0-.38.105-.713.316-1 .22-.296.52-.524.9-.684.388-.16.836-.24 1.342-.24.44 0 .862.068 1.267.203.414.135.777.325 1.09.57l-.443 1.076c-.642-.464-1.283-.696-1.925-.696-.346 0-.617.063-.81.2s-.29.304-.29.532c0 .17.06.308.177.418.127.11.325.194.595.253l1.052.24c.616.135 1.068.35 1.355.646.287.287.43.667.43 1.14 0 .574-.232 1.03-.697 1.368s-1.093.506-1.887.506zm6.125 0c-.55 0-1.055-.067-1.52-.202-.456-.135-.844-.33-1.165-.583l.443-1.102c.66.48 1.415.722 2.268.722.363 0 .637-.06.823-.177.194-.12.29-.287.29-.507 0-.186-.067-.33-.202-.43-.127-.1-.36-.194-.697-.278l-1.013-.228c-.575-.127-1-.334-1.28-.62s-.418-.66-.418-1.115c0-.38.106-.713.317-1 .22-.296.52-.524.9-.684.39-.16.836-.24 1.343-.24.44 0 .86.068 1.267.203.413.135.776.325 1.09.57l-.443 1.076c-.642-.464-1.284-.696-1.926-.696-.346 0-.616.063-.8.2s-.292.304-.292.532c0 .17.06.308.178.418.126.11.325.194.595.253l1.05.24c.617.135 1.068.35 1.356.646.287.287.43.667.43 1.14 0 .574-.232 1.03-.696 1.368s-1.094.506-1.888.506z" fill="#1e2c3d"/><rect x="27.3346" y="395.333" width="195.333" height="32" rx="16" stroke="#a3cdff" stroke-width="1.3333"/><path d="M112.393 415.78c-.684 0-1.325-.093-1.925-.28s-1.106-.447-1.52-.785l.545-1.19c.43.33.882.57 1.355.722.48.152 1 .228 1.558.228.616 0 1.09-.105 1.42-.316.337-.22.506-.524.506-.912 0-.338-.156-.596-.468-.773-.304-.177-.815-.346-1.533-.507-.743-.16-1.347-.346-1.81-.557s-.815-.48-1.052-.81-.354-.747-.354-1.254c0-.523.143-.992.43-1.406s.693-.734 1.216-.962c.524-.237 1.128-.355 1.812-.355.625 0 1.22.097 1.786.29.565.186 1.03.444 1.393.773l-.545 1.19c-.793-.634-1.672-.95-2.634-.95-.575 0-1.03.118-1.368.354-.33.228-.494.55-.494.963 0 .346.147.612.443.798s.798.36 1.507.52c.752.17 1.36.36 1.824.57.473.203.832.465 1.077.786.253.32.38.726.38 1.216 0 .532-.144 1-.43 1.406-.278.397-.688.705-1.228.924-.532.21-1.16.317-1.888.317zm8.486-6.46c.743 0 1.296.21 1.66.633s.545 1.06.545 1.913v3.8H121.5v-3.71c0-.482-.093-.832-.28-1.052-.177-.22-.46-.33-.85-.33-.456 0-.823.144-1.102.43-.27.287-.405.67-.405 1.152v3.51h-1.583v-8.93h1.583v3.597c.21-.33.5-.578.836-.747.355-.177.747-.266 1.178-.266zm6.45 0c.87 0 1.516.21 1.938.633s.633 1.073.633 1.95v3.762h-1.507v-.95a1.651 1.651 0 0 1-.684.773c-.304.185-.66.278-1.064.278-.414 0-.8-.084-1.127-.253s-.604-.4-.798-.697-.292-.625-.292-.988c0-.456.114-.815.342-1.076.237-.262.617-.452 1.14-.57s1.246-.178 2.166-.178h.317v-.29c0-.422-.093-.726-.28-.912-.177-.186-.477-.28-.9-.28-.33 0-.676.06-1.04.178-.354.11-.705.266-1.05.468l-.443-1.09c.346-.22.764-.4 1.254-.545s.954-.215 1.393-.215zm-.367 5.307c.422 0 .764-.14 1.026-.418.27-.287.405-.654.405-1.102v-.266h-.228c-.566 0-1.005.026-1.317.076s-.537.14-.672.266-.202.3-.202.52c0 .27.093.494.278.67.186.17.423.253.7.253zm8.604-4l-.925.09c-1.047.1-1.57.642-1.57 1.596v3.344h-1.583v-6.194h1.507v1.09c.32-.743.984-1.148 1.99-1.216l.48-.038.102 1.33zm6.058 2.217h-4.218c.05.574.224 1 .52 1.28s.718.418 1.267.418c.684 0 1.31-.22 1.875-.658l.456 1.09c-.287.236-.65.426-1.1.57-.43.144-.865.215-1.304.215-1.014 0-1.816-.287-2.407-.86-.583-.574-.874-1.36-.874-2.356 0-.633.127-1.195.38-1.685s.608-.87 1.064-1.14c.464-.27.988-.405 1.57-.405.853 0 1.524.274 2.014.823.498.55.747 1.305.747 2.268v.443zm-2.723-2.42c-.423 0-.765.135-1.026.405-.254.27-.4.66-.47 1.165h2.863c-.017-.515-.144-.903-.38-1.165-.237-.27-.566-.405-.988-.405z" class="F"/><g class="B"><path d="M124.996 314.318c42.517 0 76.984-34.467 76.984-76.984s-34.467-76.984-76.984-76.984-76.9843 34.467-76.9843 76.984 34.467 76.984 76.9843 76.984z" class="C"/><path d="M208.33 237.333c0 46.024-37.3 83.334-83.334 83.334s-83.333-37.3-83.333-83.334S78.9737 154 124.997 154s83.334 37.3 83.334 83.333zm-2.38.001c0 44.71-36.243 80.952-80.952 80.952s-80.9526-36.243-80.9526-80.952S80.3 156.382 125 156.382s80.952 36.243 80.952 80.952z" class="F"/></g><g class="D"><path d="M82.614 185.717h4.8434v-1.33h2.4222v-2.423h-4.8434v2.422h-4.8444v-2.422h-2.4223v3.754h4.8445zm4.8423-8.6h4.8445v-2.423h-4.8445v2.423h-2.42v2.422h2.42v-2.422z"/><path d="M89.88 184.385h2.4222v1.332H89.88v-1.332zm4.8457-12.115v-1.402l-2.42 1.164-.4794.242h2.9005v-.004zm-.0013 9.693v-2.422H89.88v2.422h4.8445zm2.421-12.113v2.422h4.8445v-2.422h-4.8445z"/><path d="M97.1438 179.54v2.422h2.4222v2.423h2.422v1.33h2.42v-1.33h.001v-2.423h-2.422v-7.267h-7.2653v2.423h2.42v2.422zm4.8462-9.7v-1.83l-2.4222.847-2.4223.952v.032H102h0zm2.4-2.422v2.422h2.42v-2.422h2.422v2.422h-2.422v2.423h4.844v-4.845h2.422v4.845h2.42v-7.267h-1.587l-.838.12-2.42.405-2.422.5-2.422.575-2.422.666-.562.167h.566z"/><path d="M118.942 167.428h-2.422v-2.624l2.422-.24 2.422-.16 2.42-.078v.677h2.423v2.423h2.423v4.848h2.422v2.424h2.422v-2.424h2.42v2.424h2.42v-9.166l2.423.49 2.42.576 2.422.666v.167h.563l1.86.59v1.83h2.422v4.845h-2.422v-2.423h-2.422v2.423h2.422v2.427h-7.265v2.422h-2.423v-2.422h-9.687v-2.427h-7.266v-2.423h2.422v-2.422h-2.422v-4.845h-2.422v2.423zm9.688 9.694v2.422h-2.423v-2.422h2.423zm.001-9.694h2.422v-2.423h2.42v-.2l-2.42-.24-2.422-.16-2.423-.078v.677h2.423v2.423zm14.532 4.844h-2.423v2.423h2.423v-2.423z" class="B"/><path d="M109.254 184.385h0v-2.422h-2.422v3.754h2.422v-1.332zm2.422-9.7h-4.845v-2.424h-2.42v4.846h2.42v2.422h2.423v-2.422h4.844v-4.846h-2.422v2.424zm4.844 4.845h-4.843v4.846h2.422v-2.424h2.42v2.424h2.422v1.33h2.423v-1.33h4.843v1.33h2.422v-3.755h-7.265v-2.422h-4.845zm2.42-9.7h2.423v2.422h-2.423v-2.422z"/><path d="M118.94 177.118h2.423v2.422h2.422v-2.422h-2.422v-2.423h-2.423v2.423z"/><use xlink:href="#F"/><path d="M131.05 184.386h0v1.33h2.42v-1.33h.001v-2.423h-2.422v2.423z"/><path d="M133.473 179.54h2.422v2.422h-2.422v-2.422zm2.422 4.845h2.422v1.332h-2.422v-1.332zm4.847-4.845h2.422v2.422h-2.422v-2.422zm0 4.845h2.42v1.332h-2.42v-1.332zm12.105-12.113h2.422v-1.403l-2.345-1.02-.077-.03-2.42-.953v.982h2.42v2.425zm-2.42 4.85v2.422h-4.844v2.422h2.422v2.422h-2.422v1.333h4.844v-3.76h2.423v-2.422h14.53v-1.668l-1.076-.755h-3.767v-2.422l-2.422-1.4v3.817h-9.7z"/><path d="M152.848 184.385v1.332h12.1v-1.33h2.422v-2.423h-4.843v2.422h-4.845v-2.422h-4.843v2.422h-.001z"/><path d="M167.38 184.385h2.42v1.332h-2.42v-1.332z"/><path d="M172.227 181.963h-2.422v3.754h4.843v-1.332h-2.42v-2.422z"/><path d="M172.227 181.646v.318h.368l-.368-.318zM84.8086 295.463h2.4222v2.422h-2.4222v-2.422zm4.8437 2.422h2.4223v2.422h-2.4223v-2.422zm0-8.935h2.4212v1.668h-2.4212v-1.668z"/><path d="M94.495 303.693v-.963h-2.0106l2.0106.963zm-7.2642-13.076v-1.668H77.543v3.877l.2497.212h2.1725v-2.422h4.8434v2.422h4.8455v-2.422l-2.4233.001z"/><path d="M94.4957 293.04h-4.8434v2.423h4.8434v-2.423zm4.8445 9.7H96.918v2.026l.9693.397 1.453.562 2.4208.86v-3.845h-2.4208zm4.8438-12.113h0v-1.668h-2.422v1.668h-2.4215v2.422h-2.4222v4.846H94.496v2.422h7.267v-7.268h2.42v-2.422zm4.844 9.7h2.422v2.423h2.42v-4.845h-4.843v-2.422h-2.422v2.422h-2.422v4.845h2.422v-2.423h2.422zm-2.423-9.7h0v2.422h2.423v-4.1h-2.423v1.668zm2.422 14.535h2.423v2.423h-2.423v-2.423zm4.843 0h2.422v2.423h-2.422v-2.423z"/><path d="M113.87 302.73h2.422v2.422h-2.422v-2.422zm12.1 2.422h-4.843v4.845h-2.422v-2.422h-12.1v-2.423h4.846v-2.422h-4.846v2.423h-2.422v2.188l.8.235 1.613.438 2.422.584 2.42.498 2.422.412 2.423.328 1.48.162.938.086 2.42.166 2.422.087v-.34h2.422v-2.422h2.423v-2.423l-2.42-.001z"/><path d="M125.98 295.463h2.423v2.422h-2.423v-2.422zm2.423 14.533h-2.423v.345l2.423-.07 2.42-.152 1.4-.123h-1.4v-2.422h-2.422v2.422zm2.42-4.844h2.422v2.423h-2.422v-2.423zm2.422-16.202h-2.422v1.668h.001v2.422h2.42v-4.1z"/><path d="M133.246 293.04h2.422v2.422h-2.422v-2.422zm2.422-4.1h2.422v1.668h-2.422v-1.668zm4.844 4.1h2.422v2.422h-2.422v-2.422zm0-4.1h2.422v1.668h-2.422v-1.668z"/><path d="M150.202 300.307v2.423l.004 2.417h-2.422v1.574l-2.422.748v.106h-.355l-2.067.554-2.422.568-2.42.48v-8.87h-2.423v2.423h-2.422v-2.423h-2.425v2.423h-2.423v2.422h-4.844v-2.422h-2.42v-2.423h7.265v-2.422h9.688v-2.424h2.423v2.424h7.265v2.422h-2.422v2.423h2.422v-2.423h2.422zm-29.063 0h-2.422v-2.422h2.422v2.422zm0 2.423v2.422h-2.422v-2.422h2.422zm29.067 2.417h1.904l-1.904.73v-.73zm-26.646-7.262h-2.42v-2.424h2.42v2.424zm-2.42-4.846v2.422h-9.686v-4.844h2.42v2.422h2.422v-2.422h2.423v-1.668h2.42v1.668h4.844v-1.668h2.422v4.1h-7.265zm19.375 9.692h2.422v-2.424h-2.422v2.424z" class="B"/><path d="M152.62 304.943l2.422-1.043v-1.17h-2.422v2.213zm7.267-4.635v1.182l2.086-1.182.336-.2v-2.222h-2.422v2.42zm4.847-2.422h1.08l1.342-.93v-1.494h-2.423v2.423zm-.004-4.846h2.422v-2.422h-2.422v-1.668h-12.1v4.1h4.845v-2.422h4.843v2.422h2.422z"/><path d="M150.204 290.617h-.001v-1.668h-4.844v1.668h2.423v2.422h-2.423v2.423h4.845v2.423h14.53v-2.423h-12.1v-2.423h-2.42v-2.422zm19.37-1.667h-2.422v1.668h2.423v2.422h2.42v.173l.204-.173h-.204v-2.422h2.422v-1.668h-4.844zm8.36-94.002v-2.422h2.422v-2.422h-3.744v9.687h1.322v2.423h2.422v-4.844h-2.422v-2.422zm4.845 2.422h2.422v2.422h-2.422v-2.422z"/><path d="M180.355 194.95h2.423v2.422h-2.423v-2.422zm4.848 7.265h2.422v2.422h-2.422v-2.422zm-8.6 0h1.322v2.422h-1.322v-2.422zm13.687 2.42l-.254-.503v2.925h1.414l-1.16-2.422zm-9.945 2.426h2.424v-4.844h-2.424v4.844zm12.115 7.265h1.84l-.846-2.422-.953-2.423h-2.465v4.845h2.424zm-12.113-.001h7.268v-7.265h-2.422v2.42h-4.846v2.422h-2.422v2.422h-1.322v2.42h1.322v.001h2.422v-2.422zm-3.744 4.844v2.422h3.744v-2.422h-3.744zm11.013 4.844v-4.845h2.422v-2.42h-4.845v2.42h-2.422v2.422h2.422v4.845h4.845v-2.422h-2.422z"/><path d="M194.892 228.857h2.422v-2.423h-.106l-.404-2.422-.49-2.422-.575-2.422-.666-2.42-.18-.602v.602h-2.42v2.42h2.42v2.422h-2.42v-2.42h-2.423v4.844h4.844v2.42h-4.844v2.422h4.845v2.422h2.423v-2.42h-2.427z"/><path d="M197.316 233.702v2.422h.688l-.078-2.422-.16-2.422-.24-2.423h-.212v4.845zm-7.27-2.422h2.422v2.423h-2.422v-2.423zm-4.844 0h2.422v2.423h-2.422v-2.423zm-2.423-2.423h0v-4.843h-4.845v2.422h2.422v2.42h-2.422v2.422h-1.322v2.423h1.322v4.843h-1.322v2.422h3.744V233.7h2.423v-4.845z"/><path d="M192.47 236.12V233.7h4.84v4.845h-2.422v2.422h-4.845v2.422h-2.423v2.422h2.423v2.42h-2.423v2.422h9.176l-.49 2.422-.575 2.422-.666 2.42h-.18v.602l-.578 1.82h-1.84v2.423h-4.845v-2.423h2.422v-2.422h-2.422v2.422h-2.423v-7.265h-2.422v-2.422h2.422v-9.688h2.423V233.7h2.422v2.422h2.423zm-2.424 19.377v-2.422h-2.422v2.422h2.422z" class="B"/><path d="M182.78 233.7h2.422v2.422h-2.422V233.7zm14.536 7.267v4.845h.212l.24-2.423.16-2.422.078-2.422h-.688v2.422z"/><path d="M182.78 238.545h2.422v2.422h-2.422v-2.422zm12.115 2.422h2.422v2.422h-2.422v-2.422z"/><path d="M192.47 243.4h2.422v2.422h-2.422V243.4zm-14.535 0h0-1.322v2.42h1.322v.001h2.422v-2.422h-2.422z"/><path d="M180.355 245.8h2.423v2.422h-2.423V245.8zm-3.742 2.42h1.322v2.423h-1.322v-2.423zm3.742 4.846h2.423v2.422h-2.423v-2.422zm-3.742 0h1.322v2.42h-1.322v-2.42zm15.857 12.1h-2.422v2.42h1.414l1.008-2.317.043-.106.953-2.422h-.994v2.424zm-14.535 0h-1.322v12.1h1.322v2.422h2.422v-4.844h-2.422v-4.844h2.422v-4.843h-2.422v-.001z"/><path d="M185.203 270.032h0v-7.266h-2.423v-4.844h-2.423v2.422h-2.422v-2.422h-1.322v4.844h3.744v2.423h2.423v14.53h1.68l.74-1.058v-3.785h2.422v-2.422H185.2l.002-2.423z"/><path d="M187.625 274.873h.012l1.4-2.422h-1.403v2.422zm-9.7 4.844h-1.322v9.232h-1.1v1.105l.67-.65 1.754-1.784v-3.06h2.422v-2.422h-2.422v-2.422z"/><path d="M180.355 284.944l.327-.382h-.327v.382zM175.512 184.6v.65h.67l-.67-.65z"/><path d="M175.512 185.716h1.1v1.967h1.322v-.635l-1.754-1.784h-.67v.452zm-105.8753 4.388h2.4222v2.422h-2.4222v-2.422zm-4.8437 7.266h2.4222v2.422H64.793v-2.422zm4.8437 2.422v2.422h2.4222v-4.843h-2.4222v2.42z"/><path d="M73.3792 197.37v-7.265h-1.3206v9.687h1.3206v-2.422zM62.37 202.215h2.4222v2.422H62.37v-2.422zm4.8438 2.422v2.422h2.4233v-4.844h-2.4233v2.422zm4.8438-2.422h1.3206v2.422h-1.3206v-2.422zm-12.1143 2.42v-.5l-.253.5-1.164 2.423H59.94l.0043-2.423zm9.6945 4.845h-4.8455v-2.42H62.37v7.265h7.2677v2.422H72.06v-4.844h-2.4222v-2.422zm-12.116 2.423v-2.423h-.0402l-.9523 2.423-.8466 2.422h1.8434l-.0043-2.422z"/><path d="M59.9467 211.903v-2.423h-2.4233v4.845h2.4233v-2.422zm12.112 2.42h1.3206v2.42h-1.3206v-2.42zm-9.691 7.266v2.423h-2.4222v2.422h4.8445V221.6h2.4222v-2.422h-2.4222v-2.42h-4.8445v2.42h2.4222v2.422zm7.2692-2.422h2.4222v2.422h-2.4222v-2.422z"/><path d="M72.0586 219.168h1.3206v2.422h-1.3206v-2.422zm-4.8438 4.846v9.688h2.4233v7.265h2.4222v-12.1H69.638v-2.42h2.4222v-2.422h-4.8455zm-2.4218 14.53h2.4222v2.422H64.793v-2.422zm-7.2696-7.265h2.4223v2.423h-2.4223v-2.423z"/><path d="M72.0586 231.28h1.3206v2.423h-1.3206v-2.423z"/><path d="M57.524 236.123h2.4233V233.7h2.4222v7.266h2.4223v9.688h2.4275v2.423H64.792v7.265h-2.4223v-2.422h-2.4222v2.422h2.4222v2.422H57.524v-2.422h-1.8434l-.5788-1.823v-.6h-.1778l-.6656-2.42-.5756-2.422-.489-2.423h9.1756v-2.422h-2.4222V245.8h2.4222v-2.422h-2.4222v-2.423H55.106v2.423H52.684v2.422h-.2116l-.2392-2.422-.1587-2.423-.0783-2.422h.6836v2.422h2.4222v-2.422h-2.418v-2.42h-.6878l.0783-2.422.1587-2.422.2392-2.423h.2116v-2.42h.1058l.4043-2.42.489-2.422.5756-2.422.6656-2.422.1778-.6v.6h2.4222v2.422H55.102v2.422h2.4222v-2.422h2.4233v4.844H55.102v2.42h4.8455v2.422H55.102v2.423h-2.4222v2.422h4.8444v2.422zm2.422 19.376h2.4222v-2.422H59.946v2.422z" class="B"/><path d="M64.793 233.7h2.4222v2.422H64.793V233.7z"/><path d="M62.37 231.28h2.4222v2.423H62.37v-2.423zm9.6876 7.265h1.3206v2.422h-1.3206v-2.422zm-16.957 4.845h2.4222v2.422h-2.4222V243.4zm14.535 0h2.4222v2.422h-2.4222V243.4z"/><path d="M72.0586 243.4h1.3206v2.42h-1.3206v-2.42zm-4.8438 2.42h2.4223v2.422h-2.4223V245.8zm4.8438 2.42h1.3206v2.423h-1.3206v-2.423zm-4.8438 4.846h2.4223v2.422h-2.4223v-2.422zm4.8438 0h1.3206v2.42h-1.3206v-2.42zm-2.423 4.844h-2.418v4.844H64.79v9.7h-3.8254l1.3916 2.423H64.79v3.782l.7408 1.058h1.6868V265.2H69.64v-2.423h2.4223v-2.422h-2.4276v-2.424z"/><path d="M73.3792 260.342v-2.422h-1.3206v4.844h1.3206v-2.422zm-15.8554 2.422h-.9926l.9524 2.422.0424.106 1.0095 2.32h1.4127v-2.42h-2.4244v-2.426zm12.113 7.266h2.4222v-4.843h-2.4222v4.843zm0 7.266v2.422h2.4222v-4.843h-2.4222v2.42z"/><path d="M73.3792 274.873v-9.687h-1.3206v12.1h1.3206v-2.423zm-3.7425 7.267h2.4222v2.422h-2.4222v-2.422z"/><path d="M69.6375 284.943v-.38h-.325l.325.38zm4.8427-100.33l-.6677.65h.6677v-.65z"/><path d="M72.0586 187.046v.635h1.3206v-1.964h1.1016v-.455h-.6677l-1.7545 1.784zm1.3206 99.936v-7.265h-1.3206v7.904l1.7545 1.784.6667.648v-1.104h-1.1006v-1.967z"/><use xlink:href="#G"/><path d="M75.4727 190.227h2.4158v2.4158h-2.4158z"/><path d="M75.4727 192.64h2.4158v2.4158h-2.4158z"/><path d="M75.4727 195.06h2.4158v2.4158h-2.4158z"/><path d="M75.4727 197.473h2.4158v2.4158h-2.4158z"/><path d="M75.4727 199.887h2.4158v2.4158h-2.4158z"/><path d="M75.4727 202.303h2.4158v2.4158h-2.4158zm0 9.667h2.4158v2.4158h-2.4158z"/><path d="M75.4727 214.383h2.4158v2.4158h-2.4158zm0 7.247h2.4158v2.4158h-2.4158zm0 9.663h2.4158v2.4158h-2.4158z"/><path d="M75.4727 233.7h2.4158v2.4158h-2.4158zm0 4.833h2.4158v2.4158h-2.4158zm0 4.83h2.4158v2.4158h-2.4158zm0 4.832h2.4158v2.4158h-2.4158zm0 7.245h2.4158v2.4158h-2.4158zm0 14.497h2.4158v2.4158h-2.4158z"/><path d="M75.4727 272.363h2.4158v2.4158h-2.4158z"/><path d="M75.4727 274.777h2.4158v2.4158h-2.4158z"/><path d="M75.4727 277.195h2.4158v2.4158h-2.4158z"/><path d="M75.4727 279.61h2.4158v2.4158h-2.4158z"/><path d="M75.4727 282.027h2.4158v2.4158h-2.4158z"/><path d="M75.4727 284.44h2.4158v2.4158h-2.4158zm2.414-96.63h2.4158v2.4158h-2.4158zm0 14.493h2.4158v2.4158h-2.4158zm0 4.834h2.4158v2.4158h-2.4158z"/><path d="M77.8867 209.553h2.4158v2.4158h-2.4158zm0 4.83h2.4158v2.4158h-2.4158zm0 4.832h2.4158v2.4158h-2.4158zm0 7.248h2.4158v2.4158h-2.4158zm0 4.83h2.4158v2.4158h-2.4158zm0 4.832h2.4158v2.4158h-2.4158z"/><path d="M77.8867 238.543h2.4158v2.4158h-2.4158zm0 9.662h2.4158v2.4158h-2.4158zm0 4.83h2.4158v2.4158h-2.4158zm0 9.665h2.4158v2.4158h-2.4158z"/><path d="M77.8867 265.115h2.4158v2.4158h-2.4158zm0 4.832h2.4158v2.4158h-2.4158zm0 14.493h2.4158v2.4158h-2.4158zm2.418-96.63h2.4158v2.4158h-2.4158zm0 4.83h2.4158v2.4158h-2.4158z"/><path d="M80.3047 195.06h2.4158v2.4158h-2.4158z"/><path d="M80.3047 197.473h2.4158v2.4158h-2.4158zm0 4.83h2.4158v2.4158h-2.4158zm0 9.664h2.4158v2.4158h-2.4158z"/><path d="M80.3047 214.383h2.4158v2.4158h-2.4158z"/><path d="M80.3047 216.8h2.4158v2.4158h-2.4158z"/><path d="M80.3047 219.215h2.4158v2.4158h-2.4158zm0 16.9h2.4158v2.4158h-2.4158z"/><path d="M80.3047 238.54h2.4158v2.4158h-2.4158zm0 4.833h2.4158v2.4158h-2.4158z"/><path d="M80.3047 245.79h2.4158v2.4158h-2.4158z"/><path d="M80.3047 248.203h2.4158v2.4158h-2.4158z"/><path d="M80.3047 250.62h2.4158v2.4158h-2.4158zm0 14.495h2.4158v2.4158h-2.4158zm0 4.83h2.4158v2.4158h-2.4158zm0 4.832h2.4158v2.4158h-2.4158z"/><path d="M80.3047 277.195h2.4158v2.4158h-2.4158z"/><path d="M80.3047 279.6h2.4158v2.4158h-2.4158zm0 4.83h2.4158v2.4158h-2.4158zm2.414-96.63h2.4158v2.4158h-2.4158zm0 4.83h2.4158v2.4158h-2.4158z"/><path d="M82.7188 195.06h2.4158v2.4158h-2.4158z"/><path d="M82.7188 197.473h2.4158v2.4158h-2.4158zm0 4.83h2.4158v2.4158h-2.4158zm0 7.25h2.4158v2.4158h-2.4158z"/><path d="M82.7188 211.97h2.4158v2.4158h-2.4158zm0 4.83h2.4158v2.4158h-2.4158zm0 4.83h2.4158v2.4158h-2.4158z"/><path d="M82.7188 224.047h2.4158v2.4158h-2.4158zm0 4.833h2.4158v2.4158h-2.4158z"/><path d="M82.7188 231.293h2.4158v2.4158h-2.4158zm0 14.497h2.4158v2.4158h-2.4158zm0 7.245h2.4158v2.4158h-2.4158zm0 12.08h2.4158v2.4158h-2.4158zm0 4.832h2.4158v2.4158h-2.4158zm0 4.83h2.4158v2.4158h-2.4158z"/><path d="M82.7188 277.195h2.4158v2.4158h-2.4158z"/><path d="M82.7188 279.6h2.4158v2.4158h-2.4158zm0 4.83h2.4158v2.4158h-2.4158zm2.418-96.63h2.4158v2.4158h-2.4158zm0 4.83h2.4158v2.4158h-2.4158z"/><path d="M85.1367 195.06h2.4158v2.4158h-2.4158z"/><path d="M85.1367 197.473h2.4158v2.4158h-2.4158zm0 4.83h2.4158v2.4158h-2.4158zm0 7.25h2.4158v2.4158h-2.4158z"/><path d="M85.1367 211.97h2.4158v2.4158h-2.4158z"/><path d="M85.1367 214.383h2.4158v2.4158h-2.4158zm0 7.247h2.4158v2.4158h-2.4158z"/><path d="M85.1367 224.047h2.4158v2.4158h-2.4158zm0 16.9h2.4158v2.4158h-2.4158zm0 4.833h2.4158v2.4158h-2.4158zm0 4.83h2.4158v2.4158h-2.4158zm0 9.663h2.4158v2.4158h-2.4158zm0 9.664h2.4158v2.4158h-2.4158zm0 4.83h2.4158v2.4158h-2.4158z"/><path d="M85.1367 277.195h2.4158v2.4158h-2.4158z"/><path d="M85.1367 279.6h2.4158v2.4158h-2.4158zm0 4.83h2.4158v2.4158h-2.4158zm2.418-96.63h2.4158v2.4158h-2.4158zm0 14.493h2.4158v2.4158h-2.4158zm0 14.497h2.4158v2.4158h-2.4158zm0 4.83h2.4158v2.4158h-2.4158zm0 9.663h2.4158v2.4158h-2.4158zm0 4.832h2.4158v2.4158h-2.4158z"/><path d="M87.5547 238.543h2.4158v2.4158h-2.4158zm0 21.74h2.4158v2.4158h-2.4158zm0 9.664h2.4158v2.4158h-2.4158zm0 14.493h2.4158v2.4158h-2.4158zm2.414-96.63h2.4158v2.4158h-2.4158z"/><path d="M89.9688 190.227h2.4158v2.4158h-2.4158z"/><path d="M89.9688 192.64h2.4158v2.4158h-2.4158z"/><path d="M89.9688 195.06h2.4158v2.4158h-2.4158z"/><path d="M89.9688 197.473h2.4158v2.4158h-2.4158z"/><path d="M89.9688 199.887h2.4158v2.4158h-2.4158z"/><path d="M89.9688 202.303h2.4158v2.4158h-2.4158zm0 4.834h2.4158v2.4158h-2.4158zm0 4.833h2.4158v2.4158h-2.4158zm0 4.83h2.4158v2.4158h-2.4158zm0 4.83h2.4158v2.4158h-2.4158zm0 4.833h2.4158v2.4158h-2.4158zm0 4.83h2.4158v2.4158h-2.4158zm0 4.832h2.4158v2.4158h-2.4158zm0 4.832h2.4158v2.4158h-2.4158zm0 4.833h2.4158v2.4158h-2.4158zm0 4.83h2.4158v2.4158h-2.4158zm0 4.83h2.4158v2.4158h-2.4158zm0 4.833h2.4158v2.4158h-2.4158zm0 4.832h2.4158v2.4158h-2.4158zm0 4.832h2.4158v2.4158h-2.4158z"/><path d="M89.9688 272.363h2.4158v2.4158h-2.4158z"/><path d="M89.9688 274.777h2.4158v2.4158h-2.4158z"/><path d="M89.9688 277.195h2.4158v2.4158h-2.4158z"/><path d="M89.9688 279.61h2.4158v2.4158h-2.4158z"/><path d="M89.9688 282.027h2.4158v2.4158h-2.4158z"/><path d="M89.9688 284.44h2.4158v2.4158h-2.4158zm2.414-77.303h2.4158v2.4158h-2.4158z"/><path d="M92.3828 209.553h2.4158v2.4158h-2.4158z"/><path d="M92.3828 211.97h2.4158v2.4158h-2.4158z"/><path d="M92.3828 214.383h2.4158v2.4158h-2.4158zm0 4.832h2.4158v2.4158h-2.4158z"/><path d="M92.3828 221.63h2.4158v2.4158h-2.4158z"/><path d="M92.3828 224.047h2.4158v2.4158h-2.4158z"/><path d="M92.3828 226.463h2.4158v2.4158h-2.4158zm0 7.247h2.4158v2.4158h-2.4158zm0 4.833h2.4158v2.4158h-2.4158z"/><path d="M92.3828 240.957h2.4158v2.4158h-2.4158z"/><path d="M92.3828 243.373h2.4158v2.4158h-2.4158z"/><path d="M92.3828 245.8h2.4158v2.4158h-2.4158zm0 4.83h2.4158v2.4158h-2.4158zm0 9.663h2.4158v2.4158h-2.4158zm2.418-72.473h2.4158v2.4158h-2.4158z"/><path d="M94.8008 190.227h2.4158v2.4158h-2.4158zm0 12.076h2.4158v2.4158h-2.4158zm0 4.834h2.4158v2.4158h-2.4158zm0 4.833h2.4158v2.4158h-2.4158zm0 4.83h2.4158v2.4158h-2.4158zm0 9.663h2.4158v2.4158h-2.4158z"/><path d="M94.8008 228.88h2.4158v2.4158h-2.4158zm0 4.83h2.4158v2.4158h-2.4158z"/><path d="M94.8008 236.125h2.4158v2.4158h-2.4158z"/><path d="M94.8008 238.543h2.4158v2.4158h-2.4158z"/><path d="M94.8008 240.957h2.4158v2.4158h-2.4158zm0 4.833h2.4158v2.4158h-2.4158zm0 9.66h2.4158v2.4158h-2.4158zm0 12.08h2.4158v2.4158h-2.4158z"/><path d="M94.8008 269.947h2.4158v2.4158h-2.4158zm0 12.08h2.4158v2.4158h-2.4158zm2.414-89.387h2.4158v2.4158h-2.4158zm0 4.833h2.4158v2.4158h-2.4158zm0 12.08h2.4158v2.4158h-2.4158z"/><path d="M97.2148 211.97h2.4158v2.4158h-2.4158zm0 4.83h2.4158v2.4158h-2.4158zm0 12.08h2.4158v2.4158h-2.4158z"/><path d="M97.2148 231.293h2.4158v2.4158h-2.4158zm0 7.25h2.4158v2.4158h-2.4158zm0 7.247h2.4158v2.4158h-2.4158z"/><path d="M97.2148 248.205h2.4158v2.4158h-2.4158z"/><path d="M97.2148 250.62h2.4158v2.4158h-2.4158zm0 4.83h2.4158v2.4158h-2.4158z"/><path d="M97.2148 257.87h2.4158v2.4158h-2.4158z"/><path d="M97.2148 260.283h2.4158v2.4158h-2.4158zm0 7.247h2.4158v2.4158h-2.4158z"/><path d="M97.2148 269.947h2.4158v2.4158h-2.4158z"/><path d="M97.2148 272.363h2.4158v2.4158h-2.4158zm0 9.664h2.4158v2.4158h-2.4158z"/><path d="M97.2148 284.44h2.4158v2.4158h-2.4158zm2.418-96.63h2.4158v2.4158h-2.4158z"/><path d="M99.6328 190.227h2.4158v2.4158h-2.4158zm0 4.833h2.4158v2.4158h-2.4158zm0 4.827h2.4158v2.4158h-2.4158z"/><path d="M99.6328 202.303h2.4158v2.4158h-2.4158z"/><path d="M99.6328 204.72h2.4158v2.4158h-2.4158zm0 9.663h2.4158v2.4158h-2.4158z"/><path d="M99.6328 216.8h2.4158v2.4158h-2.4158z"/><path d="M99.6328 219.215h2.4158v2.4158h-2.4158z"/><path d="M99.6328 221.63h2.4158v2.4158h-2.4158z"/><path d="M99.6328 224.047h2.4158v2.4158h-2.4158z"/><path d="M99.6328 226.463h2.4158v2.4158h-2.4158z"/><path d="M99.6328 228.88h2.4158v2.4158h-2.4158zm0 12.077h2.4158v2.4158h-2.4158z"/><path d="M99.6328 243.373h2.4158v2.4158h-2.4158z"/><path d="M99.6328 245.79h2.4158v2.4158h-2.4158z"/><path d="M99.6328 248.205h2.4158v2.4158h-2.4158z"/><path d="M99.6328 250.62h2.4158v2.4158h-2.4158zm0 4.83h2.4158v2.4158h-2.4158z"/><path d="M99.6328 257.87h2.4158v2.4158h-2.4158z"/><path d="M99.6328 260.283h2.4158v2.4158h-2.4158z"/><path d="M99.6328 262.7h2.4158v2.4158h-2.4158zm0 7.247h2.4158v2.4158h-2.4158z"/><path d="M99.6328 272.363h2.4158v2.4158h-2.4158zm0 7.247h2.4158v2.4158h-2.4158zm2.4142-89.383h2.4158v2.4158h-2.4158zm0 7.246h2.4158v2.4158h-2.4158z"/><path d="M102.047 199.887h2.4158v2.4158h-2.4158zm0 4.833h2.4158v2.4158h-2.4158zm0 4.833h2.4158v2.4158h-2.4158zm0 9.662h2.4158v2.4158h-2.4158zm0 7.248h2.4158v2.4158h-2.4158z"/><path d="M102.047 228.88h2.4158v2.4158h-2.4158z"/><path d="M102.047 231.293h2.4158v2.4158h-2.4158zm0 4.832h2.4158v2.4158h-2.4158zm0 9.665h2.4158v2.4158h-2.4158zm0 7.245h2.4158v2.4158h-2.4158zm0 9.665h2.4158v2.4158h-2.4158z"/><path d="M102.047 265.115h2.4158v2.4158h-2.4158z"/><path d="M102.047 267.53h2.4158v2.4158h-2.4158zm0 7.247h2.4158v2.4158h-2.4158zm0 7.25h2.4158v2.4158h-2.4158z"/><path d="M102.047 284.44h2.4158v2.4158h-2.4158zm2.418-94.213h2.4158v2.4158h-2.4158z"/><use xlink:href="#H"/><path d="M104.46 197.473h2.4158v2.4158H104.46zm0 4.83h2.4158v2.4158H104.46z"/><path d="M104.46 204.72h2.4158v2.4158H104.46z"/><path d="M104.46 207.137h2.4158v2.4158H104.46zm0 4.833h2.4158v2.4158H104.46zm0 4.83h2.4158v2.4158H104.46zm0 4.83h2.4158v2.4158H104.46zm0 12.08h2.4158v2.4158H104.46zm0 4.833h2.4158v2.4158H104.46zm0 4.83h2.4158v2.4158H104.46zm0 4.832h2.4158v2.4158H104.46z"/><path d="M104.46 250.62h2.4158v2.4158H104.46zm0 4.83h2.4158v2.4158H104.46zm0 21.745h2.4158v2.4158H104.46z"/><use xlink:href="#I"/><path d="M106.88 190.227h2.4158v2.4158H106.88z"/><path d="M106.88 192.64h2.4158v2.4158H106.88zm0 12.08h2.4158v2.4158H106.88z"/><path d="M106.88 207.137h2.4158v2.4158H106.88z"/><path d="M106.88 209.553h2.4158v2.4158H106.88z"/><path d="M106.88 211.97h2.4158v2.4158H106.88zm0 12.077h2.4158v2.4158H106.88z"/><path d="M106.88 226.463h2.4158v2.4158H106.88zm0 7.247h2.4158v2.4158H106.88zm0 7.247h2.4158v2.4158H106.88z"/><path d="M106.88 243.373h2.4158v2.4158H106.88z"/><path d="M106.88 245.8h2.4158v2.4158H106.88zm0 4.83h2.4158v2.4158H106.88zm0 4.83h2.4158v2.4158H106.88z"/><path d="M106.88 257.87h2.4158v2.4158H106.88zm0 4.83h2.4158v2.4158H106.88z"/><path d="M106.88 265.115h2.4158v2.4158H106.88z"/><path d="M106.88 267.53h2.4158v2.4158H106.88zm0 7.247h2.4158v2.4158H106.88z"/><path d="M106.88 277.195h2.4158v2.4158H106.88z"/><path d="M106.88 279.61h2.4158v2.4158H106.88z"/><path d="M106.88 282.027h2.4158v2.4158H106.88zm2.413-79.724h2.4158v2.4158h-2.4158zm0 7.25h2.4158v2.4158h-2.4158zm0 4.83h2.4158v2.4158h-2.4158zm0 4.832h2.4158v2.4158h-2.4158z"/><path d="M109.293 221.63h2.4158v2.4158h-2.4158z"/><path d="M109.293 224.047h2.4158v2.4158h-2.4158z"/><path d="M109.293 226.463h2.4158v2.4158h-2.4158z"/><path d="M109.293 228.88h2.4158v2.4158h-2.4158zm0 4.83h2.4158v2.4158h-2.4158z"/><path d="M109.293 236.125h2.4158v2.4158h-2.4158zm0 7.248h2.4158v2.4158h-2.4158z"/><path d="M109.293 245.8h2.4158v2.4158h-2.4158zm0 4.83h2.4158v2.4158h-2.4158zm0 4.83h2.4158v2.4158h-2.4158zm0 12.08h2.4158v2.4158h-2.4158zm0 4.833h2.4158v2.4158h-2.4158zm0 9.664h2.4158v2.4158h-2.4158z"/><use xlink:href="#J"/><path d="M111.71 204.72h2.4158v2.4158H111.71z"/><path d="M111.71 207.137h2.4158v2.4158H111.71z"/><path d="M111.71 209.553h2.4158v2.4158H111.71z"/><path d="M111.71 211.97h2.4158v2.4158H111.71z"/><path d="M111.7 214.383h2.4158v2.4158H111.7zm0 7.247h2.4158v2.4158H111.7z"/><path d="M111.71 224.047h2.4158v2.4158H111.71z"/><path d="M111.7 226.463h2.4158v2.4158H111.7zm0 7.247h2.4158v2.4158H111.7zm0 4.833h2.4158v2.4158H111.7z"/><path d="M111.7 240.957h2.4158v2.4158H111.7zm0 4.833h2.4158v2.4158H111.7zm0 4.83h2.4158v2.4158H111.7zm0 9.663h2.4158v2.4158H111.7z"/><path d="M111.7 262.7h2.4158v2.4158H111.7zm0 4.83h2.4158v2.4158H111.7zm0 4.833h2.4158v2.4158H111.7zm0 4.832h2.4158v2.4158H111.7z"/><path d="M111.71 279.61h2.4158v2.4158H111.71z"/><path d="M111.7 282.027h2.4158v2.4158H111.7zm2.415-94.217h2.4158v2.4158h-2.4158z"/><path d="M114.13 190.227h2.4158v2.4158H114.13z"/><path d="M114.125 192.64h2.4158v2.4158h-2.4158zm0 4.833h2.4158v2.4158h-2.4158zm0 4.83h2.4158v2.4158h-2.4158zm0 12.08h2.4158v2.4158h-2.4158zm0 12.08h2.4158v2.4158h-2.4158zm0 4.83h2.4158v2.4158h-2.4158z"/><path d="M114.125 233.7h2.4158v2.4158h-2.4158zm0 12.08h2.4158v2.4158h-2.4158zm0 14.493h2.4158v2.4158h-2.4158zm0 7.247h2.4158v2.4158h-2.4158zm0 4.833h2.4158v2.4158h-2.4158zm0 7.247h2.4158v2.4158h-2.4158zm0 4.83h2.4158v2.4158h-2.4158zm2.418-94.213h2.4158v2.4158h-2.4158z"/><path d="M116.543 192.64h2.4158v2.4158h-2.4158zm0 4.833h2.4158v2.4158h-2.4158zm0 7.247h2.4158v2.4158h-2.4158zm0 4.833h2.4158v2.4158h-2.4158z"/><path d="M116.543 211.97h2.4158v2.4158h-2.4158z"/><path d="M116.543 214.383h2.4158v2.4158h-2.4158z"/><path d="M116.543 216.8h2.4158v2.4158h-2.4158zm0 9.663h2.4158v2.4158h-2.4158zm0 4.83h2.4158v2.4158h-2.4158zm0 4.832h2.4158v2.4158h-2.4158zm0 4.832h2.4158v2.4158h-2.4158z"/><path d="M116.543 243.373h2.4158v2.4158h-2.4158z"/><path d="M116.543 245.8h2.4158v2.4158h-2.4158zm0 14.493h2.4158v2.4158h-2.4158z"/><path d="M116.543 262.7h2.4158v2.4158h-2.4158zm0 9.663h2.4158v2.4158h-2.4158zm0 4.832h2.4158v2.4158h-2.4158z"/><path d="M116.543 279.6h2.4158v2.4158h-2.4158zm0 4.83h2.4158v2.4158h-2.4158zm2.414-94.213h2.4158v2.4158h-2.4158zm0 4.833h2.4158v2.4158h-2.4158z"/><path d="M118.957 197.473h2.4158v2.4158h-2.4158z"/><path d="M118.957 199.887h2.4158v2.4158h-2.4158z"/><path d="M118.957 202.303h2.4158v2.4158h-2.4158z"/><path d="M118.957 204.72h2.4158v2.4158h-2.4158zm0 4.833h2.4158v2.4158h-2.4158zm0 4.83h2.4158v2.4158h-2.4158zm0 4.832h2.4158v2.4158h-2.4158zm0 4.832h2.4158v2.4158h-2.4158z"/><path d="M118.957 226.463h2.4158v2.4158h-2.4158z"/><path d="M118.957 228.88h2.4158v2.4158h-2.4158zm0 4.83h2.4158v2.4158h-2.4158z"/><path d="M118.957 236.125h2.4158v2.4158h-2.4158zm0 12.08h2.4158v2.4158h-2.4158z"/><path d="M118.957 250.62h2.4158v2.4158h-2.4158zm0 4.83h2.4158v2.4158h-2.4158zm0 4.833h2.4158v2.4158h-2.4158z"/><path d="M118.957 262.7h2.4158v2.4158h-2.4158z"/><path d="M118.957 265.115h2.4158v2.4158h-2.4158zm0 9.662h2.4158v2.4158h-2.4158z"/><path d="M118.957 277.195h2.4158v2.4158h-2.4158zm0 4.832h2.4158v2.4158h-2.4158z"/><use xlink:href="#K"/><path d="M121.37 197.473h2.4158v2.4158H121.37zm0 7.247h2.4158v2.4158H121.37zm0 4.833h2.4158v2.4158H121.37z"/><path d="M121.37 211.97h2.4158v2.4158H121.37zm0 7.245h2.4158v2.4158H121.37zm0 21.742h2.4158v2.4158H121.37z"/><path d="M121.37 243.373h2.4158v2.4158H121.37z"/><path d="M121.375 245.8h2.4158v2.4158h-2.4158zm-.005 4.83h2.4158v2.4158H121.37zm0 7.25h2.4158v2.4158H121.37zm0 4.83h2.4158v2.4158H121.37zm0 9.663h2.4158v2.4158H121.37z"/><path d="M121.37 274.777h2.4158v2.4158H121.37z"/><path d="M121.37 277.195h2.4158v2.4158H121.37zm0 7.245h2.4158v2.4158H121.37z"/><use xlink:href="#L"/><path d="M123.8 192.64h2.4158v2.4158H123.8zm0 7.247h2.4158v2.4158H123.8z"/><path d="M123.79 202.303h2.4158v2.4158H123.79z"/><path d="M123.8 204.72h2.4158v2.4158H123.8zm0 7.25h2.4158v2.4158H123.8zm0 9.66h2.4158v2.4158H123.8z"/><path d="M123.8 224.047h2.4158v2.4158H123.8zm0 9.663h2.4158v2.4158H123.8z"/><path d="M123.8 236.125h2.4158v2.4158H123.8zm0 16.9h2.4158v2.4158H123.8zm0 9.665h2.4158v2.4158H123.8zm0 4.83h2.4158v2.4158H123.8zm0 4.833h2.4158v2.4158H123.8zm0 9.664h2.4158v2.4158H123.8z"/><path d="M123.8 284.44h2.4158v2.4158H123.8zm2.417-96.63h2.4158v2.4158h-2.4158zm0 12.077h2.4158v2.4158h-2.4158zm0 14.496h2.4158v2.4158h-2.4158zm0 7.247h2.4158v2.4158h-2.4158z"/><path d="M126.207 224.045h2.4158v2.4158h-2.4158zm0 7.248h2.4158v2.4158h-2.4158zm0 4.832h2.4158v2.4158h-2.4158zm0 9.665h2.4158v2.4158h-2.4158z"/><path d="M126.207 248.203h2.4158v2.4158h-2.4158z"/><path d="M126.207 250.62h2.4158v2.4158h-2.4158z"/><path d="M126.207 253.035h2.4158v2.4158h-2.4158zm0 4.832h2.4158v2.4158h-2.4158zm0 4.833h2.4158v2.4158h-2.4158z"/><path d="M126.207 265.115h2.4158v2.4158h-2.4158zm0 7.245h2.4158v2.4158h-2.4158z"/><path d="M126.207 274.777h2.4158v2.4158h-2.4158z"/><use xlink:href="#M"/><path d="M128.62 192.64h2.4158v2.4158H128.62zm0 7.247h2.4158v2.4158H128.62z"/><path d="M128.62 202.303h2.4158v2.4158H128.62z"/><path d="M128.62 204.72h2.4158v2.4158H128.62z"/><path d="M128.62 207.137h2.4158v2.4158H128.62z"/><path d="M128.62 209.553h2.4158v2.4158H128.62zm0 9.662h2.4158v2.4158H128.62zm0 4.832h2.4158v2.4158H128.62z"/><path d="M128.62 226.463h2.4158v2.4158H128.62z"/><path d="M128.62 228.88h2.4158v2.4158H128.62z"/><path d="M128.62 231.293h2.4158v2.4158H128.62zm0 4.832h2.4158v2.4158H128.62zm0 7.248h2.4158v2.4158H128.62zm0 9.662h2.4158v2.4158H128.62z"/><path d="M128.62 255.45h2.4158v2.4158H128.62zm0 14.497h2.4158v2.4158H128.62zm0 4.83h2.4158v2.4158H128.62z"/><path d="M128.62 277.195h2.4158v2.4158H128.62zm0 4.832h2.4158v2.4158H128.62z"/><path d="M128.62 284.44h2.4158v2.4158H128.62zm2.415-96.63h2.4158v2.4158h-2.4158z"/><path d="M131.035 190.227h2.4158v2.4158h-2.4158zm.005 9.66h2.4158v2.4158H131.04zm-.005 12.083h2.4158v2.4158h-2.4158z"/><path d="M131.035 214.383h2.4158v2.4158h-2.4158z"/><path d="M131.035 216.8h2.4158v2.4158h-2.4158zm0 12.08h2.4158v2.4158h-2.4158z"/><path d="M131.035 231.293h2.4158v2.4158h-2.4158zm0 4.832h2.4158v2.4158h-2.4158z"/><path d="M131.035 238.543h2.4158v2.4158h-2.4158zm0 4.83h2.4158v2.4158h-2.4158zm0 4.832h2.4158v2.4158h-2.4158zm0 7.245h2.4158v2.4158h-2.4158zm0 7.25h2.4158v2.4158h-2.4158z"/><path d="M131.035 265.115h2.4158v2.4158h-2.4158z"/><path d="M131.035 267.53h2.4158v2.4158h-2.4158zm0 9.665h2.4158v2.4158h-2.4158zm0 7.245h2.4158v2.4158h-2.4158zm2.418-86.967h2.4158v2.4158h-2.4158zm0 4.83h2.4158v2.4158h-2.4158zm0 7.25h2.4158v2.4158h-2.4158z"/><path d="M133.453 211.97h2.4158v2.4158h-2.4158z"/><path d="M133.453 214.383h2.4158v2.4158h-2.4158zm0 4.832h2.4158v2.4158h-2.4158zm0 4.832h2.4158v2.4158h-2.4158zm0 4.833h2.4158v2.4158h-2.4158zm0 4.83h2.4158v2.4158h-2.4158z"/><path d="M133.453 236.125h2.4158v2.4158h-2.4158zm0 16.9h2.4158v2.4158h-2.4158z"/><path d="M133.453 255.45h2.4158v2.4158h-2.4158zm0 4.833h2.4158v2.4158h-2.4158zm0 7.247h2.4158v2.4158h-2.4158zm0 4.833h2.4158v2.4158h-2.4158z"/><path d="M133.453 274.777h2.4158v2.4158h-2.4158zm0 7.25h2.4158v2.4158h-2.4158z"/><path d="M133.453 284.44h2.4158v2.4158h-2.4158zm2.414-96.63h2.4158v2.4158h-2.4158zm0 19.327h2.4158v2.4158h-2.4158zm0 4.833h2.4158v2.4158h-2.4158zm0 14.493h2.4158v2.4158h-2.4158z"/><path d="M135.867 228.88h2.4158v2.4158h-2.4158zm0 4.83h2.4158v2.4158h-2.4158zm0 4.833h2.4158v2.4158h-2.4158zm0 16.907h2.4158v2.4158h-2.4158zm0 9.665h2.4158v2.4158h-2.4158zm0 9.662h2.4158v2.4158h-2.4158zm0 9.663h2.4158v2.4158h-2.4158zm2.418-96.63h2.4158v2.4158h-2.4158zm0 4.83h2.4158v2.4158h-2.4158z"/><path d="M138.285 195.06h2.4158v2.4158h-2.4158z"/><path d="M138.285 197.473h2.4158v2.4158h-2.4158z"/><path d="M138.285 199.887h2.4158v2.4158h-2.4158z"/><path d="M138.285 202.303h2.4158v2.4158h-2.4158zm0 4.834h2.4158v2.4158h-2.4158z"/><path d="M138.285 209.553h2.4158v2.4158h-2.4158zm0 4.83h2.4158v2.4158h-2.4158z"/><path d="M138.285 216.8h2.4158v2.4158h-2.4158z"/><path d="M138.285 219.215h2.4158v2.4158h-2.4158z"/><path d="M138.285 221.63h2.4158v2.4158h-2.4158zm0 7.25h2.4158v2.4158h-2.4158zm0 7.245h2.4158v2.4158h-2.4158z"/><path d="M138.285 238.543h2.4158v2.4158h-2.4158zm0 4.83h2.4158v2.4158h-2.4158z"/><path d="M138.285 245.79h2.4158v2.4158h-2.4158z"/><path d="M138.285 248.205h2.4158v2.4158h-2.4158z"/><path d="M138.285 250.62h2.4158v2.4158h-2.4158z"/><path d="M138.285 253.035h2.4158v2.4158h-2.4158z"/><path d="M138.285 255.45h2.4158v2.4158h-2.4158z"/><path d="M138.285 257.87h2.4158v2.4158h-2.4158zm0 14.493h2.4158v2.4158h-2.4158z"/><path d="M138.285 274.777h2.4158v2.4158h-2.4158z"/><path d="M138.285 277.195h2.4158v2.4158h-2.4158z"/><path d="M138.285 279.6h2.4158v2.4158h-2.4158zm0 4.83h2.4158v2.4158h-2.4158z"/><use xlink:href="#N"/><path d="M140.7 195.06h2.4158v2.4158H140.7zm0 12.077h2.4158v2.4158H140.7z"/><path d="M140.7 209.553h2.4158v2.4158H140.7z"/><path d="M140.7 211.97h2.4158v2.4158H140.7z"/><path d="M140.7 214.383h2.4158v2.4158H140.7z"/><path d="M140.7 216.8h2.4158v2.4158H140.7zm0 7.247h2.4158v2.4158H140.7zm0 4.833h2.4158v2.4158H140.7z"/><path d="M140.7 231.293h2.4158v2.4158H140.7z"/><path d="M140.7 233.71h2.4158v2.4158H140.7z"/><path d="M140.7 236.125h2.4158v2.4158H140.7z"/><path d="M140.7 238.543h2.4158v2.4158H140.7z"/><path d="M140.7 240.957h2.4158v2.4158H140.7z"/><path d="M140.7 243.373h2.4158v2.4158H140.7z"/><path d="M140.7 245.79h2.4158v2.4158H140.7z"/><path d="M140.7 248.205h2.4158v2.4158H140.7z"/><path d="M140.7 250.62h2.4158v2.4158H140.7zm0 4.83h2.4158v2.4158H140.7zm0 4.833h2.4158v2.4158H140.7zm0 4.832h2.4158v2.4158H140.7z"/><path d="M140.7 267.53h2.4158v2.4158H140.7z"/><path d="M140.7 269.947h2.4158v2.4158H140.7zm0 4.83h2.4158v2.4158H140.7z"/><path d="M140.7 277.195h2.4158v2.4158H140.7z"/><path d="M140.7 279.61h2.4158v2.4158H140.7z"/><path d="M140.7 282.027h2.4158v2.4158H140.7z"/><path d="M140.7 284.44h2.4158v2.4158H140.7zm2.417-94.213h2.4158v2.4158h-2.4158zm0 7.246h2.4158v2.4158h-2.4158z"/><path d="M143.117 199.887h2.4158v2.4158h-2.4158z"/><path d="M143.117 202.303h2.4158v2.4158h-2.4158zm0 9.667h2.4158v2.4158h-2.4158zm0 4.83h2.4158v2.4158h-2.4158z"/><path d="M143.117 219.215h2.4158v2.4158h-2.4158zm0 7.248h2.4158v2.4158h-2.4158zm0 9.662h2.4158v2.4158h-2.4158z"/><path d="M143.117 238.543h2.4158v2.4158h-2.4158zm0 7.247h2.4158v2.4158h-2.4158z"/><path d="M143.117 248.205h2.4158v2.4158h-2.4158z"/><path d="M143.117 250.62h2.4158v2.4158h-2.4158z"/><path d="M143.117 253.035h2.4158v2.4158h-2.4158z"/><path d="M143.117 255.45h2.4158v2.4158h-2.4158zm0 14.497h2.4158v2.4158h-2.4158zm0 7.248h2.4158v2.4158h-2.4158zm0 4.832h2.4158v2.4158h-2.4158z"/><use xlink:href="#O"/><path d="M145.53 192.64h2.4158v2.4158H145.53zm0 14.497h2.4158v2.4158H145.53z"/><path d="M145.53 209.553h2.4158v2.4158H145.53z"/><path d="M145.53 211.97h2.4158v2.4158H145.53zm0 14.493h2.4158v2.4158H145.53zm0 4.83h2.4158v2.4158H145.53zm0 16.912h2.4158v2.4158H145.53z"/><path d="M145.53 250.62h2.4158v2.4158H145.53zm0 4.83h2.4158v2.4158H145.53zm0 4.833h2.4158v2.4158H145.53zm0 4.832h2.4158v2.4158H145.53z"/><path d="M145.53 267.53h2.4158v2.4158H145.53z"/><path d="M145.53 269.947h2.4158v2.4158H145.53z"/><path d="M145.53 272.363h2.4158v2.4158H145.53z"/><path d="M145.53 274.777h2.4158v2.4158H145.53z"/><path d="M145.53 277.195h2.4158v2.4158H145.53zm0 7.245h2.4158v2.4158H145.53zm2.415-91.8h2.4158v2.4158h-2.4158zm0 4.833h2.4158v2.4158h-2.4158zm0 4.83h2.4158v2.4158h-2.4158zm0 4.834h2.4158v2.4158h-2.4158zm0 4.833h2.4158v2.4158h-2.4158zm0 9.66h2.4158v2.4158h-2.4158zm0 9.663h2.4158v2.4158h-2.4158zm0 4.832h2.4158v2.4158h-2.4158zm0 4.832h2.4158v2.4158h-2.4158zm0 9.663h2.4158v2.4158h-2.4158z"/><path d="M147.945 253.035h2.4158v2.4158h-2.4158zm0 7.248h2.4158v2.4158h-2.4158z"/><path d="M147.945 262.7h2.4158v2.4158h-2.4158z"/><path d="M147.945 265.115h2.4158v2.4158h-2.4158zm0 7.248h2.4158v2.4158h-2.4158zm0 4.832h2.4158v2.4158h-2.4158z"/><path d="M147.945 279.6h2.4158v2.4158h-2.4158zm2.418-82.137h2.4158v2.4158h-2.4158zm0 7.247h2.4158v2.4158h-2.4158zm0 4.833h2.4158v2.4158h-2.4158zm0 14.494h2.4158v2.4158h-2.4158z"/><path d="M150.363 226.463h2.4158v2.4158h-2.4158z"/><path d="M150.363 228.88h2.4158v2.4158h-2.4158z"/><path d="M150.363 231.293h2.4158v2.4158h-2.4158z"/><path d="M150.363 233.7h2.4158v2.4158h-2.4158zm0 4.833h2.4158v2.4158h-2.4158zm0 7.247h2.4158v2.4158h-2.4158z"/><path d="M150.363 248.205h2.4158v2.4158h-2.4158zm0 9.665h2.4158v2.4158h-2.4158z"/><path d="M150.363 260.283h2.4158v2.4158h-2.4158zm0 7.247h2.4158v2.4158h-2.4158z"/><path d="M150.363 269.947h2.4158v2.4158h-2.4158z"/><path d="M150.363 272.363h2.4158v2.4158h-2.4158z"/><path d="M150.363 274.777h2.4158v2.4158h-2.4158zm0 4.833h2.4158v2.4158h-2.4158z"/><path d="M150.363 282.027h2.4158v2.4158h-2.4158z"/><path d="M150.363 284.44h2.4158v2.4158h-2.4158zm2.414-91.8h2.4158v2.4158h-2.4158z"/><path d="M152.78 195.06h2.4158v2.4158H152.78z"/><path d="M152.777 197.473h2.4158v2.4158h-2.4158z"/><path d="M152.78 199.887h2.4158v2.4158H152.78z"/><path d="M152.777 202.303h2.4158v2.4158h-2.4158zm0 9.667h2.4158v2.4158h-2.4158z"/><path d="M152.777 214.383h2.4158v2.4158h-2.4158z"/><path d="M152.777 216.8h2.4158v2.4158h-2.4158zm0 9.663h2.4158v2.4158h-2.4158z"/><path d="M152.777 228.88h2.4158v2.4158h-2.4158zm0 7.245h2.4158v2.4158h-2.4158z"/><path d="M152.777 238.543h2.4158v2.4158h-2.4158zm0 4.83h2.4158v2.4158h-2.4158z"/><path d="M152.78 245.79h2.4158v2.4158H152.78z"/><path d="M152.777 248.205h2.4158v2.4158h-2.4158z"/><path d="M152.777 250.62h2.4158v2.4158h-2.4158zm0 7.25h2.4158v2.4158h-2.4158zm0 4.83h2.4158v2.4158h-2.4158z"/><path d="M152.777 265.115h2.4158v2.4158h-2.4158z"/><path d="M152.777 267.53h2.4158v2.4158h-2.4158z"/><path d="M152.777 269.947h2.4158v2.4158h-2.4158z"/><path d="M152.777 272.363h2.4158v2.4158h-2.4158z"/><path d="M152.777 274.777h2.4158v2.4158h-2.4158z"/><path d="M152.777 277.195h2.4158v2.4158h-2.4158z"/><path d="M152.777 279.6h2.4158v2.4158h-2.4158zm2.418-72.473h2.4158v2.4158h-2.4158z"/><path d="M155.195 209.553h2.4158v2.4158h-2.4158zm0 12.077h2.4158v2.4158h-2.4158z"/><path d="M155.195 224.047h2.4158v2.4158h-2.4158zm0 9.663h2.4158v2.4158h-2.4158zm0 9.663h2.4158v2.4158h-2.4158zm0 14.497h2.4158v2.4158h-2.4158zm0 4.83h2.4158v2.4158h-2.4158z"/><path d="M155.195 265.115h2.4158v2.4158h-2.4158zm0 9.662h2.4158v2.4158h-2.4158z"/><path d="M155.195 277.195h2.4158v2.4158h-2.4158z"/><path d="M155.195 279.61h2.4158v2.4158h-2.4158z"/><path d="M155.195 282.027h2.4158v2.4158h-2.4158z"/><use xlink:href="#P"/><path d="M157.613 190.227h2.4158v2.4158h-2.4158z"/><path d="M157.61 192.64h2.4158v2.4158H157.61z"/><path d="M157.613 195.06h2.4158v2.4158h-2.4158z"/><path d="M157.61 197.473h2.4158v2.4158H157.61z"/><path d="M157.61 199.887h2.4158v2.4158H157.61z"/><path d="M157.6 202.303h2.4158v2.4158H157.6zm0 14.497h2.4158v2.4158H157.6z"/><path d="M157.6 219.215h2.4158v2.4158H157.6zm0 4.832h2.4158v2.4158H157.6zm0 4.833h2.4158v2.4158H157.6z"/><path d="M157.61 231.293h2.4158v2.4158H157.61z"/><path d="M157.6 233.7h2.4158v2.4158H157.6zm0 9.663h2.4158v2.4158H157.6z"/><path d="M157.61 245.79h2.4158v2.4158H157.61z"/><path d="M157.6 248.205h2.4158v2.4158H157.6zm0 9.665h2.4158v2.4158H157.6zm0 7.245h2.4158v2.4158H157.6zm0 4.832h2.4158v2.4158H157.6zm0 4.83h2.4158v2.4158H157.6zm0 4.833h2.4158v2.4158H157.6z"/><path d="M157.6 282.027h2.4158v2.4158H157.6zm2.417-94.217h2.4158v2.4158h-2.4158zm0 14.493h2.4158v2.4158h-2.4158zm0 19.327h2.4158v2.4158h-2.4158z"/><path d="M160.027 224.047h2.4158v2.4158h-2.4158z"/><path d="M160.027 226.463h2.4158v2.4158h-2.4158zm0 7.247h2.4158v2.4158h-2.4158z"/><path d="M160.027 236.125h2.4158v2.4158h-2.4158zm0 7.248h2.4158v2.4158h-2.4158zm0 4.832h2.4158v2.4158h-2.4158z"/><path d="M160.027 250.62h2.4158v2.4158h-2.4158z"/><path d="M160.027 253.035h2.4158v2.4158h-2.4158z"/><path d="M160.027 255.45h2.4158v2.4158h-2.4158z"/><path d="M160.027 257.87h2.4158v2.4158h-2.4158zm0 7.245h2.4158v2.4158h-2.4158zm0 9.662h2.4158v2.4158h-2.4158z"/><path d="M160.027 277.195h2.4158v2.4158h-2.4158z"/><path d="M160.027 279.61h2.4158v2.4158h-2.4158z"/><use xlink:href="#Q"/><path d="M162.44 192.64h2.4158v2.4158H162.44z"/><path d="M162.44 195.06h2.4158v2.4158H162.44z"/><path d="M162.44 197.473h2.4158v2.4158H162.44zm0 4.83h2.4158v2.4158H162.44zm0 7.25h2.4158v2.4158H162.44z"/><path d="M162.44 211.97h2.4158v2.4158H162.44zm0 7.245h2.4158v2.4158H162.44z"/><path d="M162.44 221.63h2.4158v2.4158H162.44z"/><path d="M162.44 224.047h2.4158v2.4158H162.44zm0 4.833h2.4158v2.4158H162.44zm0 9.663h2.4158v2.4158H162.44z"/><path d="M162.44 240.957h2.4158v2.4158H162.44z"/><path d="M162.44 243.373h2.4158v2.4158H162.44zm0 4.832h2.4158v2.4158H162.44z"/><path d="M162.44 250.62h2.4158v2.4158H162.44zm0 7.25h2.4158v2.4158H162.44zm0 4.83h2.4158v2.4158H162.44z"/><path d="M162.44 265.115h2.4158v2.4158H162.44z"/><path d="M162.44 267.53h2.4158v2.4158H162.44z"/><path d="M162.44 269.947h2.4158v2.4158H162.44z"/><path d="M162.44 272.363h2.4158v2.4158H162.44z"/><path d="M162.44 274.777h2.4158v2.4158H162.44z"/><path d="M162.44 277.195h2.4158v2.4158H162.44z"/><path d="M162.44 279.6h2.4158v2.4158H162.44zm0 4.83h2.4158v2.4158H162.44z"/><use xlink:href="#R"/><path d="M164.86 192.64h2.4158v2.4158H164.86z"/><path d="M164.86 195.06h2.4158v2.4158H164.86z"/><path d="M164.86 197.473h2.4158v2.4158H164.86zm0 4.83h2.4158v2.4158H164.86zm0 12.08h2.4158v2.4158H164.86zm0 7.247h2.4158v2.4158H164.86z"/><path d="M164.86 224.047h2.4158v2.4158H164.86z"/><path d="M164.86 226.463h2.4158v2.4158H164.86z"/><path d="M164.86 228.88h2.4158v2.4158H164.86z"/><path d="M164.86 231.293h2.4158v2.4158H164.86zm0 4.832h2.4158v2.4158H164.86z"/><path d="M164.86 238.543h2.4158v2.4158H164.86z"/><path d="M164.86 240.957h2.4158v2.4158H164.86z"/><path d="M164.86 243.373h2.4158v2.4158H164.86z"/><path d="M164.86 245.8h2.4158v2.4158H164.86zm0 7.245h2.4158v2.4158H164.86zm0 4.835h2.4158v2.4158H164.86zm0 4.83h2.4158v2.4158H164.86zm0 7.247h2.4158v2.4158H164.86z"/><path d="M164.86 272.363h2.4158v2.4158H164.86z"/><path d="M164.86 274.777h2.4158v2.4158H164.86zm0 7.25h2.4158v2.4158H164.86zm2.413-94.217h2.4158v2.4158h-2.4158zm0 4.83h2.4158v2.4158h-2.4158z"/><path d="M167.273 195.06h2.4158v2.4158h-2.4158z"/><path d="M167.273 197.473h2.4158v2.4158h-2.4158zm0 4.83h2.4158v2.4158h-2.4158zm0 16.912h2.4158v2.4158h-2.4158zm0 4.832h2.4158v2.4158h-2.4158z"/><path d="M167.273 226.463h2.4158v2.4158h-2.4158zm0 4.83h2.4158v2.4158h-2.4158zm0 4.832h2.4158v2.4158h-2.4158zm0 14.495h2.4158v2.4158h-2.4158z"/><path d="M167.273 253.035h2.4158v2.4158h-2.4158z"/><path d="M167.273 255.45h2.4158v2.4158h-2.4158zm0 9.665h2.4158v2.4158h-2.4158zm0 12.08h2.4158v2.4158h-2.4158z"/><path d="M167.273 279.61h2.4158v2.4158h-2.4158z"/><path d="M167.273 282.027h2.4158v2.4158h-2.4158z"/><path d="M167.273 284.44h2.4158v2.4158h-2.4158z"/><use xlink:href="#S"/><path d="M169.7 202.303h2.4158v2.4158H169.7zm0 4.834h2.4158v2.4158H169.7zm0 7.246h2.4158v2.4158H169.7z"/><path d="M169.7 216.8h2.4158v2.4158H169.7zm0 9.663h2.4158v2.4158H169.7z"/><path d="M169.69 228.88h2.4158v2.4158H169.69z"/><path d="M169.7 231.293h2.4158v2.4158H169.7zm0 7.25h2.4158v2.4158H169.7zm0 7.247h2.4158v2.4158H169.7z"/><path d="M169.69 248.205h2.4158v2.4158H169.69z"/><path d="M169.69 250.62h2.4158v2.4158H169.69z"/><path d="M169.7 253.035h2.4158v2.4158H169.7zm0 4.835h2.4158v2.4158H169.7zm0 4.83h2.4158v2.4158H169.7z"/><path d="M169.69 265.115h2.4158v2.4158H169.69z"/><path d="M169.69 267.53h2.4158v2.4158H169.69z"/><path d="M169.69 269.947h2.4158v2.4158H169.69z"/><path d="M169.7 272.363h2.4158v2.4158H169.7zm2.415-84.553h2.4158v2.4158h-2.4158z"/><path d="M172.105 190.227h2.4158v2.4158h-2.4158z"/><path d="M172.105 192.64h2.4158v2.4158h-2.4158z"/><path d="M172.105 195.06h2.4158v2.4158h-2.4158z"/><path d="M172.105 197.473h2.4158v2.4158h-2.4158z"/><path d="M172.105 199.887h2.4158v2.4158h-2.4158z"/><path d="M172.105 202.303h2.4158v2.4158h-2.4158zm0 4.834h2.4158v2.4158h-2.4158zm0 12.078h2.4158v2.4158h-2.4158zm0 7.245h2.4158v2.4158h-2.4158z"/><path d="M172.105 228.88h2.4158v2.4158h-2.4158z"/><path d="M172.105 231.293h2.4158v2.4158h-2.4158z"/><path d="M172.105 233.7h2.4158v2.4158h-2.4158zm0 12.08h2.4158v2.4158h-2.4158z"/><path d="M172.105 248.203h2.4158v2.4158h-2.4158zm0 9.664h2.4158v2.4158h-2.4158z"/><path d="M172.105 260.283h2.4158v2.4158h-2.4158zm0 4.832h2.4158v2.4158h-2.4158zm0 9.662h2.4158v2.4158h-2.4158zm0 7.248h2.4158v2.4158h-2.4158z"/></g><path d="M125 258c11.598 0 21-9.402 21-21s-9.402-21-21-21-21 9.402-21 21 9.402 21 21 21z" stroke="#a3cdff" stroke-width="2" class="H"/><path d="M125 254.75c9.803 0 17.75-7.947 17.75-17.75s-7.947-17.75-17.75-17.75-17.75 7.947-17.75 17.75 7.947 17.75 17.75 17.75z" class="B C"/><path d="M114.332 231.334c0-2.21 1.79-4 4-4h13.333c2.2 0 4 1.79 4 4v11c0 3.498-2.835 6.333-6.333 6.333h-8.667c-3.497 0-6.333-2.835-6.333-6.333v-11z" fill="#df54ff"/><path d="M115.898 246.503c1.16 1.326 2.867 2.163 4.767 2.163h8.667c3.498 0 6.333-2.835 6.333-6.333v-11c0-1.424-.744-2.675-1.866-3.384.4.618.616 1.35.616 2.134v11.333c0 3.314-2.686 6-6 6h-9.333c-1.17 0-2.26-.334-3.184-.913z" class="B D J"/><path d="M124.997 223.666c10.667 0 13.167 2.833 10.667 11.667-1.208-1.334-1.255-2.71-1.255-4.5-4.555 3.07-14.27 3.07-18.823 0 0 2-.214 3.208-1.255 4.5-2.5-8.834 0-11.667 10.666-11.667z" class="E"/><g class="B"><path d="M135.684 235.266c-.72-2.038-.527-4.93-.424-6.06-5.058 3.408-15.43 3.6-20.523.167.212 1.178.35 4.164-.425 5.895.007.022.013.044.02.067 1.042-1.292 1.256-2.5 1.256-4.5 4.554 3.07 14.268 3.07 18.823 0 0 1.792.046 3.167 1.255 4.5.006-.023.013-.046.02-.068z" class="D G"/><path d="M126.164 241.498c1.154 0 1.684 1.007 2.667 1.25.822.203 2.25.167 2.25.167-1 1.333-5.583 1.625-6.083-.28-.5 1.904-4.917 1.612-6.084.28 0 0 1.428.036 2.25-.167.983-.243 1.513-1.25 2.667-1.25.81 0 1.014.336 1.166.667.153-.33.355-.667 1.167-.667z" class="E"/><path d="M119.58 242.913l-.665.002c1.167 1.333 5.584 1.625 6.084-.278.5 1.903 5.083 1.61 6.083.278 0 0-.257.007-.616-.001-1.6.87-5.013.858-5.463-.76-.001.004-.003.007-.005.01-.001-.003-.003-.007-.004-.01-.45 1.617-3.754 1.63-5.414.758z" class="D G"/></g><path d="M125 244.582c-1.334 0-2.167.458 0 5.292 2.166-4.834 1.333-5.292 0-5.292z" class="E"/><g class="D"><path d="M123.72 245.25c.132.788.523 1.94 1.278 3.624.754-1.684 1.145-2.836 1.277-3.624.19.674-.105 2.008-1.277 4.624-1.173-2.616-1.467-3.95-1.278-4.624z" class="B G"/><path d="M122.415 239.083a1.084 1.084 0 0 0 1.084-1.084c0-.598-.485-1.083-1.084-1.083s-1.083.485-1.083 1.083.485 1.084 1.083 1.084zm5.168 0a1.084 1.084 0 0 0 1.084-1.084c0-.598-.485-1.083-1.084-1.083S126.5 237.4 126.5 238a1.083 1.083 0 0 0 1.083 1.084z" class="I"/><path d="M119.582 237.084c0-.552.448-1 1-1h2.833a1 1 0 0 1 1 1v.672c.128-.048.316-.09.584-.09s.455.04.583.09v-.672c0-.552.448-1 1-1h2.833a1 1 0 0 1 1 1v1.833c0 .553-.447 1-1 1h-2.833a1 1 0 0 1-1-1v-.73c-.135-.054-.327-.102-.583-.102s-.45.048-.584.102v.73c0 .553-.447 1-1 1h-2.833a1 1 0 0 1-1-1v-1.833zm.417.083a.666.666 0 0 1 .666-.666h2.667c.368 0 .667.298.667.666v1.667c0 .368-.3.667-.667.667h-2.667c-.368 0-.666-.3-.666-.667v-1.667zm6.666-.666a.666.666 0 0 0-.666.666v1.667c0 .368.298.667.666.667h2.667c.368 0 .667-.3.667-.667v-1.667c0-.368-.3-.666-.667-.666h-2.667z" class="B"/></g><g opacity=".6"><path d="M73.4904 101.484c.5226 0 .904.152 1.144.456.2453.304.368.792.368 1.464v2.264h-.56v-2.496c0-.41-.0907-.71-.272-.896s-.424-.288-.728-.288c-.704 0-1.056.39-1.056 1.168v2.512h-.56v-4.088h.528v.488c.256-.39.6346-.584 1.136-.584zm4.5772 4.28c-.4427 0-.7947-.117-1.056-.352-.256-.24-.384-.584-.384-1.032 0-.443.1467-.78.44-1.008s.6587-.344 1.096-.344c.4107 0 .7947.096 1.152.288v-.344c0-.667-.2987-1-.896-1-.4 0-.832.147-1.296.44l-.16-.48c.496-.3 1-.448 1.512-.448.1653 0 .32.02.464.064.144.037.2853.107.424.208.144.096.2587.243.344.44s.128.427.128.704v2.768h-.52v-.4c-.368.33-.784.496-1.248.496zm.056-.488c.4533 0 .8507-.21 1.192-.632v-.792c-.336-.224-.7013-.336-1.096-.336-.3093 0-.5653.075-.768.224s-.304.357-.304.64c0 .272.0853.49.256.656.1707.16.4107.24.72.24zm5.1932-3.792c.5227 0 .904.152 1.144.456.2453.304.368.792.368 1.464v2.264h-.56v-2.496c0-.41-.0907-.71-.272-.896s-.424-.288-.728-.288c-.704 0-1.056.39-1.056 1.168v2.512h-.56v-4.088h.528v.488c.256-.39.6347-.584 1.136-.584zm6.2012 3.712c-.3413.38-.7973.568-1.368.568s-1.0293-.187-1.376-.56c-.3413-.38-.512-.904-.512-1.576s.1707-1.19.512-1.568c.3467-.384.8054-.576 1.376-.576s1.0267.19 1.368.568c.3467.373.52.896.52 1.568 0 .667-.1733 1.192-.52 1.576zm-1.368.064c.4107 0 .7307-.144.96-.432.2294-.293.344-.696.344-1.208 0-.517-.112-.917-.336-1.2s-.5466-.432-.968-.432c-.4266 0-.752.14-.976.424-.2186.277-.328.683-.328 1.216 0 .517.112.92.336 1.208s.5467.424.968.424zm2.7692 1.824v-.616h4.288v.616h-4.288zm7.3453-1.952h1.376v.536h-3.328v-.536h1.392v-4.296l-1.232.448v-.552l1.792-.696v5.096zm5.6655-3.648c.34 0 .592.11.752.328s.248.56.248 1.024v2.832h-.576v-2.504c0-.416-.035-.712-.104-.888s-.21-.272-.424-.272c-.224 0-.4.112-.496.336s-.152.517-.152.88v2.448h-.576v-2.608l-.016-.392a1.73 1.73 0 0 0-.064-.328c-.032-.112-.083-.195-.152-.248-.07-.06-.158-.088-.264-.088-.22 0-.387.115-.504.344s-.176.52-.176.872v2.448h-.576v-4.088h.544v.496c.17-.395.432-.592.784-.592.218 0 .397.06.536.184a.94.94 0 0 1 .296.456c.224-.427.53-.64.92-.64zm5.625 1.976l-.016.392h-2.896c.053.437.19.78.408 1.024s.504.368.856.368.672-.107.976-.32l.304.376c-.395.31-.83.464-1.304.464-.56 0-1.005-.205-1.336-.616s-.496-.925-.496-1.528c0-.672.165-1.195.496-1.568.33-.38.776-.568 1.336-.568.485 0 .885.168 1.2.504s.472.82.472 1.472zm-2.928-.112h2.36c-.005-.496-.12-.845-.344-1.048-.22-.208-.472-.312-.76-.312-.395 0-.7.12-.912.36s-.323.573-.344 1zm7.13-1.864c.34 0 .592.11.752.328.165.22.248.56.248 1.024v2.832h-.576v-2.504c0-.416-.035-.712-.104-.888s-.21-.272-.424-.272c-.224 0-.39.112-.496.336-.1.224-.152.517-.152.88v2.448h-.576v-2.608l-.016-.392a1.73 1.73 0 0 0-.064-.328c-.032-.112-.083-.195-.152-.248-.07-.06-.157-.088-.264-.088-.22 0-.387.115-.504.344s-.176.52-.176.872v2.448h-.576v-4.088h.544v.496c.17-.395.432-.592.784-.592.22 0 .397.06.536.184a.933.933 0 0 1 .296.456c.224-.427.53-.64.92-.64zm5.625 1.976l-.016.392h-2.896c.054.437.2.78.408 1.024s.504.368.856.368c.347 0 .672-.107.976-.32l.304.376c-.394.31-.83.464-1.304.464-.56 0-1.005-.205-1.336-.616s-.496-.925-.496-1.528c0-.672.166-1.195.496-1.568.33-.38.776-.568 1.336-.568.486 0 .886.168 1.2.504s.472.82.472 1.472zm-2.928-.112h2.36c-.005-.496-.12-.845-.344-1.048-.218-.208-.472-.312-.76-.312-.394 0-.698.12-.912.36-.208.24-.322.573-.344 1zm6.378 1.784h1.376v.536h-3.328v-.536h1.392v-4.296l-1.232.448v-.552l1.792-.696v5.096zm3.745 2.088l.608-1.68-1.496-3.96h.568l1.032 2.904.072.224.064.192.144-.416 1.048-2.904h.6l-2.088 5.64h-.552zm23.557 17.416c-.07.07-.157.104-.264.104s-.194-.035-.264-.104-.104-.157-.104-.264.035-.197.104-.272c.075-.075.163-.112.264-.112.107 0 .195.037.264.112s.104.165.104.272-.034.195-.104.264zm.016.944v4.344c0 .48-.117.835-.352 1.064-.23.235-.592.363-1.088.384l-.256-.48c.454-.043.755-.14.904-.288.155-.15.232-.408.232-.776v-3.744h-1.128v-.504h1.688zm4.21 4.184c-.538 0-.965-.192-1.28-.576-.31-.39-.464-.912-.464-1.568 0-.667.155-1.19.464-1.568.315-.38.742-.568 1.28-.568.443 0 .824.128 1.144.384v-1.696l.56-.28v5.776h-.56v-.352c-.298.3-.68.448-1.144.448zm.064-.504c.486 0 .846-.213 1.08-.64v-2.04c-.245-.395-.605-.592-1.08-.592-.394 0-.698.14-.912.424-.208.283-.312.685-.312 1.208 0 .47.112.86.336 1.176.224.31.52.464.888.464zm5.546.408v-1.512h-2.52v-.288l2.728-3.8h.352v3.608h.808v.48h-.808v1.512h-.56zm0-1.992v-2.552l-1.808 2.552h1.808zm4.977-3.184c-.14 0-.25.013-.336.04s-.14.072-.176.136c-.032.06-.053.115-.064.168-.005.048-.008.12-.008.216v.528h1.088v.504h-1.088v3.08h1.088v.504h-2.496v-.504h.848v-3.08h-.848v-.504h.848v-.616c0-.352.1-.605.296-.76.203-.155.467-.232.792-.232.283 0 .568.064.856.192v.504c-.245-.117-.512-.176-.8-.176zm4.233 5.272c-.55 0-.947-.155-1.192-.464-.24-.31-.36-.81-.36-1.504v-2.216h.576v2.44c0 .42.088.73.264.928s.413.296.712.296c.7 0 1.048-.403 1.048-1.208v-2.456h.576v4.088h-.576v-.408c-.144.187-.3.317-.464.392s-.355.112-.584.112zm5.033-4.28c.523 0 .904.152 1.144.456.246.304.368.792.368 1.464v2.264h-.56v-2.496c0-.41-.1-.71-.272-.896s-.424-.288-.728-.288c-.704 0-1.056.39-1.056 1.168v2.512h-.56v-4.088h.528v.488c.256-.39.635-.584 1.136-.584z" class="F"/><path d="M132.113 105.764c-.443 0-.795-.117-1.056-.352-.256-.24-.384-.584-.384-1.032 0-.443.147-.78.44-1.008s.66-.344 1.096-.344c.41 0 .795.096 1.152.288v-.344c0-.667-.3-1-.896-1-.4 0-.832.147-1.296.44l-.16-.48c.496-.3 1-.448 1.512-.448.165 0 .32.02.464.064.144.037.285.107.424.208.144.096.26.243.344.44s.128.427.128.704v2.768h-.52v-.4c-.368.33-.784.496-1.248.496zm.056-.488c.453 0 .85-.21 1.192-.632v-.792c-.336-.224-.7-.336-1.096-.336-.31 0-.565.075-.768.224s-.304.357-.304.64c0 .272.085.49.256.656.17.16.41.24.72.24zm5.21.488c-.517 0-.925-.187-1.224-.56-.293-.373-.44-.9-.44-1.576 0-.672.152-1.197.456-1.576s.728-.568 1.272-.568c.32 0 .598.075.832.224s.41.36.528.632l-.512.2c-.16-.368-.45-.552-.872-.552-.746 0-1.12.547-1.12 1.64 0 1.088.368 1.632 1.104 1.632.23 0 .427-.056.592-.168s.286-.264.36-.456l.504.192c-.1.288-.285.517-.552.688-.26.165-.57.248-.928.248zm4.697 0c-.538 0-.965-.192-1.28-.576-.31-.39-.464-.912-.464-1.568 0-.667.155-1.19.464-1.568.315-.38.742-.568 1.28-.568.443 0 .824.128 1.144.384v-1.696l.56-.28v5.776h-.56v-.352c-.298.3-.68.448-1.144.448zm.064-.504c.486 0 .846-.213 1.08-.64v-2.04c-.245-.395-.605-.592-1.08-.592-.394 0-.698.14-.912.424-.208.283-.312.685-.312 1.208 0 .47.112.86.336 1.176.224.31.52.464.888.464zm5.362-4.624c-.07.07-.158.104-.264.104s-.195-.035-.264-.104-.104-.157-.104-.264.034-.197.104-.272.162-.112.264-.112.194.037.264.112.104.165.104.272-.035.195-.104.264zm.016 4.528h1.128v.504h-2.816v-.504h1.128v-3.08h-1.128v-.504h1.688v3.584zm4.385.6c-.368 0-.7-.07-.992-.208-.288-.144-.5-.312-.64-.504l.328-.408c.373.41.805.616 1.296.616.368 0 .675-.133.92-.4s.368-.587.368-.96c0-.38-.1-.693-.296-.944s-.464-.376-.8-.376c-.437 0-.81.18-1.12.536l-.472-.144.456-2.904h2.528v.504h-2.08l-.32 1.952c.288-.315.664-.472 1.128-.472.453 0 .827.168 1.12.504.3.336.448.768.448 1.296 0 .5-.173.947-.52 1.336-.34.384-.792.576-1.352.576zm5.425-5.128c-.07.07-.157.104-.264.104s-.195-.035-.264-.104-.104-.157-.104-.264.035-.197.104-.272c.075-.075.163-.112.264-.112.107 0 .195.037.264.112s.104.165.104.272-.035.195-.104.264zm.016 4.528h1.128v.504h-2.816v-.504h1.128v-3.08h-1.128v-.504h1.688v3.584zm4.465.6c-.55 0-.946-.155-1.192-.464-.24-.31-.36-.81-.36-1.504v-2.216h.576v2.44c0 .42.088.73.264.928s.414.296.712.296c.7 0 1.048-.403 1.048-1.208v-2.456h.576v4.088h-.576v-.408c-.144.187-.298.317-.464.392-.16.075-.354.112-.584.112zm4.978 0c-.56 0-.995-.2-1.304-.6-.304-.405-.456-.928-.456-1.568 0-.8.266-1.552.8-2.256.538-.71 1.194-1.165 1.968-1.368v.44c-.507.155-.963.456-1.368.904-.4.448-.643.912-.728 1.392.266-.34.674-.512 1.224-.512.448 0 .82.176 1.12.528.304.347.456.74.456 1.184 0 .523-.168.963-.504 1.32s-.74.536-1.208.536zm-.024-.504c.357 0 .645-.12.864-.36.224-.245.336-.55.336-.912 0-.384-.1-.7-.328-.944s-.504-.368-.872-.368c-.347 0-.635.125-.864.376-.224.245-.336.557-.336.936 0 .357.114.66.344.904s.52.368.856.368zm3.985.504v-.44c.528-.155.986-.46 1.376-.912.394-.46.626-.936.696-1.432-.283.363-.726.544-1.328.544-.454 0-.84-.168-1.16-.504s-.48-.733-.48-1.192c0-.523.178-.963.536-1.32s.797-.536 1.32-.536c.58 0 1.024.203 1.328.608s.464.92.464 1.56c0 .81-.262 1.568-.784 2.272-.518.7-1.174 1.15-1.968 1.352zm.92-2.688c.373 0 .68-.123.92-.368.24-.25.36-.565.36-.944 0-.363-.126-.667-.376-.912-.246-.25-.547-.376-.904-.376-.38 0-.688.123-.928.368s-.352.552-.352.92c0 .384.114.7.344.944s.546.368.936.368zm3.705 2.592l-1.008-4.088h.576l.664 2.928.056.304c.005-.02.013-.07.024-.144l.04-.184.632-2.904h.464l.64 2.912.072.36c.01-.096.032-.216.064-.36l.64-2.912h.576l-1.008 4.088h-.52l-.632-2.784c-.02-.075-.045-.195-.072-.36l-.064.344-.616 2.8h-.528zM73.5064 117.764c-.5174 0-.9254-.187-1.224-.56-.2934-.373-.44-.9-.44-1.576 0-.672.152-1.197.456-1.576s.728-.568 1.272-.568c.32 0 .5973.075.832.224s.4106.36.528.632l-.512.2c-.16-.368-.4507-.552-.872-.552-.7467 0-1.12.547-1.12 1.64 0 1.088.368 1.632 1.104 1.632.2293 0 .4266-.056.592-.168s.2853-.264.36-.456l.504.192c-.1014.288-.2854.517-.552.688-.2614.165-.5707.248-.928.248zm4.7772 0c-.5493 0-.9467-.155-1.192-.464-.24-.31-.36-.81-.36-1.504v-2.216h.576v2.44c0 .42.088.73.264.928s.4133.296.712.296c.6987 0 1.048-.403 1.048-1.208v-2.456h.576v4.088h-.576v-.408c-.144.187-.2987.317-.464.392-.16.075-.3547.112-.584.112zm3.3532-5.696h3.192v.368c-1.136 1.36-1.7093 3.104-1.72 5.232h-.56c.0107-.965.1333-1.856.368-2.672.24-.82.664-1.637 1.272-2.448h-2.552v-.48zm8.2652 3.392l-.016.392H87c.0534.437.1894.78.408 1.024s.504.368.856.368c.3467 0 .672-.107.976-.32l.304.376c-.3946.31-.8293.464-1.304.464-.56 0-1.0053-.205-1.336-.616s-.496-.925-.496-1.528c0-.672.1654-1.195.496-1.568.3307-.38.776-.568 1.336-.568.4854 0 .8854.168 1.2.504s.472.82.472 1.472zm-2.928-.112h2.36c-.0053-.496-.12-.845-.344-1.048-.2186-.208-.472-.312-.76-.312-.3946 0-.6986.12-.912.36-.208.24-.3226.573-.344 1zm6.4572 2.416c-.6453 0-.968-.325-.968-.976v-2.704h-.968v-.504h.968v-1.408l.56-.28v1.688h1.368v.504h-1.368v2.464c0 .23.0374.403.112.52.08.112.2427.168.488.168.2827 0 .5414-.08.776-.24l-.064.584c-.2293.123-.5306.184-.904.184zm4.5213 0c-.4747 0-.848-.115-1.12-.344-.2667-.235-.472-.557-.616-.968l.52-.216c.1226.347.28.603.472.768.1973.16.4453.24.744.24.3466 0 .632-.093.856-.28s.336-.46.336-.816c0-.352-.1094-.63-.328-.832-.2134-.203-.52-.304-.92-.304h-.376v-.512h.296c.3306 0 .5973-.09.8-.272.2026-.187.304-.435.304-.744 0-.3-.0934-.54-.28-.72s-.4107-.272-.672-.272c-.5067 0-.8667.288-1.08.864l-.52-.2a1.945 1.945 0 0 1 .576-.84c.272-.23.6053-.344 1-.344.448 0 .8186.133 1.112.4.2986.26.448.605.448 1.032 0 .25-.064.488-.192.712s-.3014.395-.52.512c.2933.117.5226.307.688.568.1706.26.256.573.256.936 0 .464-.176.853-.528 1.168-.352.31-.7707.464-1.256.464zm6.0175-.096l-1.32-2.608-.784.832v1.776h-.56v-5.504l.56-.272v3.336l1.528-1.648h.648l-1 1.064 1.544 3.024h-.616zm2.37 0v-.344l2.184-3.24H106.5v-.504h2.768v.336l-2.2 3.248h2.192v.504h-2.92zm7.353-4.184c.39 0 .677.06.864.184v1.368h-.568v-.952c-.096-.016-.208-.024-.336-.024-.405 0-.768.104-1.088.312-.315.203-.472.483-.472.84v1.952h1.224v.504h-2.656v-.504h.848v-3.08h-.848v-.504h1.4v.72c.155-.245.39-.443.704-.592s.624-.224.928-.224zm4.913 0c.4 0 .678.06.864.184v1.368h-.568v-.952c-.096-.016-.208-.024-.336-.024-.405 0-.768.104-1.088.312-.314.203-.472.483-.472.84v1.952h1.224v.504h-2.656v-.504h.848v-3.08h-.848v-.504h1.4v.72c.155-.245.4-.443.704-.592s.624-.224.928-.224zm4.226 3.648h1.376v.536h-3.328v-.536h1.392v-4.296l-1.232.448v-.552l1.792-.696v5.096zm4.585.632c-.272 0-.54-.064-.8-.192-.256-.133-.475-.307-.656-.52l.392-.344c.325.373.696.56 1.112.56.245 0 .448-.05.608-.152.16-.107.24-.253.24-.44 0-.117-.03-.22-.088-.312-.054-.096-.142-.18-.264-.256s-.224-.14-.32-.184c-.09-.043-.222-.096-.392-.16l-.496-.216c-.123-.064-.25-.144-.384-.24s-.232-.208-.296-.336-.096-.283-.096-.448c0-.31.128-.56.384-.752s.584-.288.984-.288c.56 0 1.018.208 1.376.624l-.368.312c-.304-.293-.646-.44-1.024-.44-.25 0-.45.048-.6.144s-.224.227-.224.392c0 .08.018.155.056.224s.088.128.136.176.125.093.232.152l.256.12.304.112.488.208c.117.053.253.133.408.24.16.107.274.235.344.384.074.144.112.315.112.512 0 .34-.128.613-.384.816s-.603.304-1.04.304zm5.53-.096v-1.512h-2.52v-.288l2.728-3.8h.352v3.608h.808v.48h-.808v1.512h-.56zm0-1.992v-2.552l-1.808 2.552h1.808zm3.457 3.544l.608-1.68-1.496-3.96h.568l1.032 2.904.072.224.064.192.144-.416 1.048-2.904h.6l-2.088 5.64h-.552zm7.16-2.024c-.34.38-.797.568-1.368.568s-1.03-.187-1.376-.56c-.34-.38-.512-.904-.512-1.576s.17-1.19.512-1.568c.347-.384.806-.576 1.376-.576s1.027.19 1.368.568c.347.373.52.896.52 1.568 0 .667-.173 1.192-.52 1.576zm-1.368.064c.41 0 .73-.144.96-.432.23-.293.344-.696.344-1.208 0-.517-.112-.917-.336-1.2s-.546-.432-.968-.432-.752.14-.976.424c-.218.277-.328.683-.328 1.216 0 .517.112.92.336 1.208s.547.424.968.424zm5.306-4.624c-.07.07-.158.104-.264.104s-.195-.035-.264-.104-.104-.157-.104-.264.034-.197.104-.272.162-.112.264-.112.194.037.264.112.104.165.104.272-.035.195-.104.264zm.016 4.528h1.128v.504h-2.816v-.504h1.128v-3.08h-1.128v-.504h1.688v3.584zm3.04.504v-.344l2.184-3.24h-2.024v-.504h2.768v.336l-2.2 3.248h2.192v.504h-2.92zm6.257.096c-.54 0-.965-.192-1.28-.576-.31-.39-.464-.912-.464-1.568 0-.667.155-1.19.464-1.568.315-.38.74-.568 1.28-.568.443 0 .824.128 1.144.384v-1.696l.56-.28v5.776h-.56v-.352c-.3.3-.68.448-1.144.448zm.064-.504c.485 0 .845-.213 1.08-.64v-2.04c-.245-.395-.605-.592-1.08-.592-.395 0-.7.14-.912.424s-.312.685-.312 1.208c0 .47.112.86.336 1.176.224.31.52.464.888.464zm4.04.504v-.44c.528-.155.987-.46 1.376-.912.395-.46.627-.936.696-1.432-.282.363-.725.544-1.328.544-.453 0-.84-.168-1.16-.504s-.48-.733-.48-1.192c0-.523.18-.963.536-1.32s.798-.536 1.32-.536c.582 0 1.024.203 1.328.608.3.4.464.92.464 1.56 0 .81-.26 1.568-.784 2.272-.517.7-1.173 1.15-1.968 1.352zm.92-2.688c.374 0 .68-.123.92-.368.24-.25.36-.565.36-.944 0-.363-.125-.667-.376-.912-.245-.25-.546-.376-.904-.376-.378 0-.688.123-.928.368-.234.245-.352.552-.352.92 0 .384.115.7.344.944.235.245.547.368.936.368zm5.962-1.592c.34 0 .592.11.752.328s.248.56.248 1.024v2.832h-.576v-2.504c0-.416-.035-.712-.104-.888s-.21-.272-.424-.272c-.224 0-.4.112-.496.336s-.152.517-.152.88v2.448h-.576v-2.608l-.016-.392a1.73 1.73 0 0 0-.064-.328c-.032-.112-.083-.195-.152-.248-.07-.06-.158-.088-.264-.088-.22 0-.387.115-.504.344s-.176.52-.176.872v2.448h-.576v-4.088h.544v.496c.17-.395.432-.592.784-.592.218 0 .397.06.536.184a.94.94 0 0 1 .296.456c.224-.427.53-.64.92-.64zm2.05 4.184l1.52-2.112-1.424-1.976h.608l.928 1.288.192.28.192-.28.928-1.288h.608l-1.424 1.976 1.52 2.112h-.608l-1.024-1.424-.192-.28-.192.28-1.024 1.424h-.608zm5.137-5.6h3.192v.368c-1.136 1.36-1.71 3.104-1.72 5.232h-.56c.01-.965.133-1.856.368-2.672s.664-1.637 1.272-2.448h-2.552v-.48zm-99.04 13.416c.5226 0 .904.152 1.144.456.2453.304.368.792.368 1.464v2.264h-.56v-2.496c0-.41-.0907-.71-.272-.896s-.424-.288-.728-.288c-.704 0-1.056.39-1.056 1.168v2.512h-.56v-4.088h.528v.488c.256-.39.6346-.584 1.136-.584zm4.7932 4.28c-.272 0-.5387-.064-.8-.192-.256-.133-.4747-.307-.656-.52l.392-.344c.3253.373.696.56 1.112.56.2453 0 .448-.05.608-.152.16-.107.24-.253.24-.44 0-.117-.0293-.22-.088-.312-.0533-.096-.1413-.18-.264-.256-.1173-.08-.224-.14-.32-.184-.0907-.043-.2213-.096-.392-.16l-.496-.216c-.1227-.064-.2507-.144-.384-.24s-.232-.208-.296-.336-.096-.283-.096-.448c0-.31.128-.56.384-.752s.584-.288.984-.288c.56 0 1.0187.208 1.376.624l-.368.312c-.304-.293-.6453-.44-1.024-.44-.2507 0-.4507.048-.6.144s-.224.227-.224.392c0 .08.0187.155.056.224.0427.07.088.128.136.176s.1253.093.232.152l.256.12.304.112.488.208c.1173.053.2533.133.408.24.16.107.2747.235.344.384.0747.144.112.315.112.512 0 .34-.128.613-.384.816s-.6027.304-1.04.304zm5.3212 0c-.6453 0-.968-.325-.968-.976v-2.704h-.968v-.504h.968v-1.408l.56-.28v1.688h1.368v.504h-1.368v2.464c0 .23.0373.403.112.52.08.112.2427.168.488.168.2827 0 .5413-.08.776-.24l-.064.584c-.2293.123-.5307.184-.904.184zm5.5692 1.504v-2.016c-.304.34-.6853.512-1.144.512-.544 0-.9733-.187-1.288-.56-.3146-.38-.472-.904-.472-1.576 0-.656.1547-1.176.464-1.56s.7414-.584 1.296-.584c.3734 0 .7547.155 1.144.464v-.368h.56v5.432l-.56.256zm-1.12-2.008c.176 0 .344-.04.504-.12s.2774-.157.352-.232.1627-.173.264-.296v-1.992c-.24-.42-.5946-.632-1.064-.632-.3893 0-.696.155-.92.464s-.336.7-.336 1.176c0 .528.1014.933.304 1.216.208.277.5067.416.896.416zm3.4253 2.032v-5.712h.56v.368c.16-.15.3253-.264.496-.344s.3866-.12.648-.12c.5493 0 .9813.195 1.296.584.32.384.48.9.48 1.552 0 .672-.1627 1.197-.488 1.576-.32.38-.7387.568-1.256.568-.4907 0-.8827-.17-1.176-.512v1.76l-.56.28zm1.672-2.032c.3893 0 .6906-.14.904-.424s.32-.688.32-1.216c0-.5-.112-.9-.336-1.192-.2187-.293-.5254-.44-.92-.44-.4854 0-.8454.21-1.08.632v2.008c.3253.42.696.632 1.112.632zm5.113-.128h1.376v.536h-3.328v-.536h1.392v-4.296l-1.232.448v-.552l1.792-.696v5.096zm4.72.632c-.517 0-.925-.187-1.224-.56-.293-.373-.44-.9-.44-1.576 0-.672.152-1.197.456-1.576s.728-.568 1.272-.568c.32 0 .598.075.832.224s.41.36.528.632l-.512.2c-.16-.368-.45-.552-.872-.552-.746 0-1.12.547-1.12 1.64s.368 1.632 1.104 1.632c.23 0 .427-.056.592-.168s.286-.264.36-.456l.504.192c-.1.288-.285.517-.552.688-.26.165-.57.248-.928.248zm3.9 0v-.44c.528-.155.986-.46 1.376-.912.394-.46.626-.936.696-1.432-.283.363-.726.544-1.328.544-.454 0-.84-.168-1.16-.504s-.48-.733-.48-1.192c0-.523.178-.963.536-1.32s.797-.536 1.32-.536c.58 0 1.024.203 1.328.608s.464.92.464 1.56c0 .81-.262 1.568-.784 2.272-.518.7-1.174 1.15-1.968 1.352zm.92-2.688c.373 0 .68-.123.92-.368.24-.25.36-.565.36-.944 0-.363-.126-.667-.376-.912-.246-.25-.547-.376-.904-.376-.38 0-.688.123-.928.368s-.352.552-.352.92c0 .384.114.7.344.944s.546.368.936.368zm6.673.384l-.016.392h-2.896c.053.437.19.78.408 1.024s.504.368.856.368c.346 0 .672-.107.976-.32l.304.376c-.395.31-.83.464-1.304.464-.56 0-1.006-.205-1.336-.616s-.496-.925-.496-1.528c0-.672.165-1.195.496-1.568.33-.38.776-.568 1.336-.568.485 0 .885.168 1.2.504s.472.82.472 1.472zm-2.928-.112h2.36c-.006-.496-.12-.845-.344-1.048s-.472-.312-.76-.312c-.395 0-.7.12-.912.36-.208.24-.323.573-.344 1zm6.113 2.416c-.56 0-.995-.2-1.304-.6s-.456-.928-.456-1.568c0-.8.267-1.552.8-2.256.54-.71 1.195-1.165 1.968-1.368v.44c-.507.155-.963.456-1.368.904s-.643.912-.728 1.392c.267-.34.675-.512 1.224-.512.448 0 .82.176 1.12.528.304.347.456.74.456 1.184 0 .523-.168.963-.504 1.32s-.74.536-1.208.536zm-.024-.504c.357 0 .645-.12.864-.36.224-.245.336-.55.336-.912 0-.384-.11-.7-.328-.944-.213-.245-.504-.368-.872-.368-.347 0-.635.125-.864.376-.224.245-.336.557-.336.936 0 .357.115.66.344.904.235.245.52.368.856.368zm3.985.504v-.44c.528-.155.987-.46 1.376-.912.395-.46.627-.936.696-1.432-.283.363-.725.544-1.328.544-.453 0-.84-.168-1.16-.504s-.48-.733-.48-1.192c0-.523.18-.963.536-1.32s.797-.536 1.32-.536c.58 0 1.024.203 1.328.608.31.4.464.92.464 1.56 0 .81-.26 1.568-.784 2.272-.517.7-1.173 1.15-1.968 1.352zm.92-2.688c.373 0 .68-.123.92-.368.24-.25.36-.565.36-.944 0-.363-.125-.667-.376-.912-.245-.25-.547-.376-.904-.376-.38 0-.688.123-.928.368s-.352.552-.352.92c0 .384.115.7.344.944.235.245.547.368.936.368zm3.993 2.688v-.44c.528-.155.987-.46 1.376-.912.395-.46.627-.936.696-1.432-.282.363-.725.544-1.328.544-.453 0-.84-.168-1.16-.504s-.48-.733-.48-1.192c0-.523.18-.963.536-1.32s.798-.536 1.32-.536c.582 0 1.024.203 1.328.608.3.4.464.92.464 1.56 0 .81-.26 1.568-.784 2.272-.517.7-1.173 1.15-1.968 1.352zm.92-2.688c.374 0 .68-.123.92-.368.24-.25.36-.565.36-.944 0-.363-.125-.667-.376-.912-.245-.25-.546-.376-.904-.376-.378 0-.688.123-.928.368-.234.245-.352.552-.352.92 0 .384.115.7.344.944.235.245.547.368.936.368zm3.322-3.008h3.192v.368c-1.136 1.36-1.7 3.104-1.72 5.232h-.56c.01-.965.133-1.856.368-2.672s.664-1.637 1.272-2.448h-2.552v-.48zm5.585 5.696v-.44c.528-.155.986-.46 1.376-.912.394-.46.626-.936.696-1.432-.283.363-.726.544-1.328.544-.454 0-.84-.168-1.16-.504s-.48-.733-.48-1.192c0-.523.178-.963.536-1.32s.797-.536 1.32-.536c.58 0 1.024.203 1.328.608s.464.92.464 1.56c0 .81-.262 1.568-.784 2.272-.518.7-1.174 1.15-1.968 1.352zm.92-2.688c.373 0 .68-.123.92-.368.24-.25.36-.565.36-.944 0-.363-.126-.667-.376-.912-.246-.25-.547-.376-.904-.376-.38 0-.688.123-.928.368-.235.245-.352.552-.352.92 0 .384.114.7.344.944s.546.368.936.368zm5.96-1.592c.34 0 .592.11.752.328.165.22.248.56.248 1.024v2.832h-.576v-2.504c0-.416-.035-.712-.104-.888s-.21-.272-.424-.272c-.224 0-.39.112-.496.336-.1.224-.152.517-.152.88v2.448h-.576v-2.608l-.016-.392a1.73 1.73 0 0 0-.064-.328c-.032-.112-.083-.195-.152-.248-.07-.06-.157-.088-.264-.088-.22 0-.387.115-.504.344s-.176.52-.176.872v2.448h-.576v-4.088h.544v.496c.17-.395.432-.592.784-.592.22 0 .397.06.536.184a.933.933 0 0 1 .296.456c.224-.427.53-.64.92-.64z" class="C"/></g></g><defs><clipPath id="B"><rect width="250" height="444.667" rx="20" class="C"/></clipPath><clipPath id="C"><path d="M102 35.332h46.6667v45.3333H102z" class="C"/></clipPath><path id="D" d="M223.683 56.1364c2.842-10.0408 0-13.2614-12.125-13.2614s-14.967 3.2207-12.125 13.2618v7.957c0 3.976 3.223 7.1992 7.2 7.1992h4.34c.17.4193.364.876.587 1.3736.223-.4975.418-.9543.587-1.3736h4.338c3.976 0 7.2-3.223 7.2-7.1992v-7.9574z"/><path id="E" d="M208.622 60.4004c.68 0 1.232-.5513 1.232-1.2314s-.552-1.2315-1.232-1.2315-1.23.5513-1.23 1.2315.55 1.2314 1.23 1.2314z"/><path id="F" d="M131.05 167.428h2.422v2.422h-2.422v-2.422z"/><path id="G" d="M75.4727 187.81h2.4158v2.4158h-2.4158z"/><path id="H" d="M104.46 192.64h2.4158v2.4158H104.46z"/><path id="I" d="M106.88 187.81h2.4158v2.4158H106.88z"/><path id="J" d="M111.71 195.06h2.4158v2.4158H111.71z"/><path id="K" d="M121.37 187.81h2.4158v2.4158H121.37z"/><path id="L" d="M123.79 187.81h2.4158v2.4158H123.79z"/><path id="M" d="M128.62 190.227h2.4158v2.4158H128.62z"/><path id="N" d="M140.7 192.64h2.4158v2.4158H140.7z"/><path id="O" d="M145.53 190.227h2.4158v2.4158H145.53z"/><path id="P" d="M157.61 187.81h2.4158v2.4158H157.61z"/><path id="Q" d="M162.44 187.81h2.4158v2.4158H162.44z"/><path id="R" d="M164.86 187.81h2.4158v2.4158H164.86z"/><path id="S" d="M169.69 187.81h2.4158v2.4158H169.69z"/></defs></svg>