<svg xmlns="http://www.w3.org/2000/svg" width="335" height="332" fill="none" xmlns:v="https://vecta.io/nano"><g clip-path="url(#A)"><path fill-rule="evenodd" d="M86.6058 31.6662C102.985 3.2974 139.26-6.4224 167.628 9.9563L309.98 92.1438c28.37 16.3782 38.09 52.6532 21.7 81.0222l-59.586 103.206c-28.86 49.99-92.782 67.117-142.77 38.255l-64.0587-36.984c-49.989-28.86-67.1166-92.782-38.2554-142.77l59.586-103.2058zm71.0222-4.3894c-18.803-10.856-42.846-4.4135-53.702 14.3894L44.3404 144.872c-23.3384 40.423-9.4883 92.112 30.935 115.45l64.0587 36.984c40.423 23.338 92.112 9.488 115.45-30.935l59.586-103.206c10.855-18.803 4.413-42.846-14.4-53.702L157.628 27.2768z" fill="#fe59af"/><path d="M213.185 32.492c19.257-19.2577 50.48-19.2577 69.738 0l116.23 116.231c19.257 19.258 19.257 50.48 0 69.738l-84.268 84.267c-36.9 36.91-96.754 36.91-133.665 0l-52.304-52.303c-36.9103-36.91-36.9103-96.755 0-133.666l84.268-84.267z" fill="#0b20a0"/></g><defs><clipPath id="A"><path fill="#fff" d="M0 0h335v332H0z"/></clipPath></defs></svg>