<svg xmlns="http://www.w3.org/2000/svg" width="264" height="286" fill="none" xmlns:v="https://vecta.io/nano"><g clip-path="url(#A)"><path fill-rule="evenodd" d="M-219.806 134.335c.992 7.767 3.54 17.337 6.984 30.197 7.953 29.68 21.3 42.03 35.178 46.842 14.63 5.077 31.895 2.57 49.096-2.04 33.816-9.06 50.505-20.415 59.807-32.5 9.2885-12.07 12.1117-25.845 15.641-43.065l.203-.99c1.8842-9.187 4.639-16.996 8.4387-23.013 3.834-6.072 9.028-10.7428 15.7434-12.5422s13.549-.3513 19.905 2.9902c6.2993 3.31 12.5897 8.696 18.815 15.7l.6723.758c11.667 13.148 20.9994 23.666 35.0778 29.473 14.0993 5.817 34.2295 7.305 68.0454-1.756 17.2-4.61 33.408-11.07 43.538-22.78 9.604-11.102 14.996-28.4754 7.044-58.156-3.446-12.8593-6.025-22.421-9.05-29.6433-2.974-7.1025-5.93-10.7943-9.432-12.8673-3.572-2.1156-9.034-3.3284-18.684-2.5308s-22.48 3.5088-40.0387 8.214C48.1096 37.1 30.26 47.093 16.548 55.862l-5.5737 3.6244c-11.796 7.7357-23.0735 15.1313-44.226 20.799s-34.6172 4.9018-48.701 4.1006l-6.639-.352c-16.2583-.7388-36.7143-.4667-75.7823 10.0017-17.56 4.7052-30.027 8.772-38.782 12.906s-12.88 7.915-14.915 11.533c-1.995 3.546-2.71 8.222-1.735 15.86zm9.82-41.8615c10.124-4.7803 23.755-9.1453 41.47-13.8924 40.693-10.9036 62.792-11.342 80.6505-10.5304l6.9536.3634c13.83.7733 24.9416 1.3944 43.519-3.5834s27.8888-11.07 39.48-18.656l5.84-3.7915c15.0602-9.632 34.4173-20.3018 75.1-31.2054C100.754 6.4306 114.74 3.3954 125.9 2.473s20.492.1714 28.155 4.7093c7.734 4.5804 12.45 11.889 16.037 20.454 3.49 8.3346 6.33 18.9366 9.615 31.193l.13.4895c8.908 33.243 3.616 56.565-10.397 72.764-13.486 15.6-33.828 23.034-51.498 27.77-35.587 9.535-59.6696 8.773-78.2882 1.092-17.5626-7.245-29.124-20.3-40.1034-32.696l-1.5113-1.705c-5.4865-6.18-10.301-10.07-14.293-12.17-3.935-2.068-6.5787-2.164-8.3197-1.697s-3.9826 1.87-6.356 5.63c-2.408 3.813-4.6328 9.588-6.2934 17.684l-.456 2.232c-3.3097 16.226-6.795 33.312-18.382 48.368-12.2837 15.96-32.7588 28.663-68.3458 38.198-17.67 4.735-39.008 8.46-58.483 1.7-20.235-7.022-36.48-24.574-45.386-57.817l-.13-.49c-3.285-12.257-6.126-22.86-7.27-31.822-1.177-9.21-.747-17.9 3.662-25.733 4.367-7.76 11.904-13.3754 22.028-18.1555z" fill="#a3cdff"/><path d="M-60.6297 79.032c-70.5533-18.9046-73.4313-8.1616-87.0023 42.484-16.86 62.924 21.37 81.392 56.2382 90.735C-21.99 230.848-2.968 207.75 20.455 181.36s41.992-21.415 49.0823 13.152 12.015 64.08 81.4187 82.678c34.87 9.343 77.21 12.464 94.07-50.46 13.57-50.646 16.45-61.39-54.104-80.294-79.76-21.372-85.107-1.42-131.122-13.75s-40.6694-32.28-120.4308-53.653z" fill="#3f9"/></g><defs><clipPath id="A"><path fill="#fff" d="M0 0h264v286H0z"/></clipPath></defs></svg>