<svg xmlns="http://www.w3.org/2000/svg" width="220" height="504" fill="none" xmlns:v="https://vecta.io/nano"><style><![CDATA[.B{fill:#000}.C{fill:#fe59af}.D{fill:#0b20a0}.E{fill-rule:evenodd}]]></style><path d="M43.9023 391.352c0-13.36 10.8292-24.188 24.1875-24.188h80.6252c13.358 0 24.187 10.83 24.187 24.188v64.5c0 22.264-18.048 40.312-40.312 40.312H84.2148c-22.264 0-40.3125-18.048-40.3125-40.312v-64.5z" class="D"/><path d="M52.1836 480.328c7.367 9.628 18.9755 15.837 32.0344 15.837h48.375c22.264 0 40.312-18.048 40.312-40.312v-64.5c0-8.615-4.503-16.177-11.284-20.462 2.36 3.734 3.726 8.16 3.726 12.903v68.53c0 20.038-16.244 36.28-36.28 36.28H76.6594c-9.205 0-17.6896-3.085-24.4758-8.278z" fill-opacity=".35" class="B E"/><path d="M151.235 379.258c-15.62 24.187-90.7032 42.58-109.3476 28.22S23.7474 346 108.403 346c54.17 0 75.082 15.62 64.5 69.035-12.598-9.07-19.15-21.416-21.668-35.777z" class="C"/><g class="E"><path d="M50.9566 400.423c18.6444 14.36 85.6634-5.04 101.2854-29.227 2.52 14.36 7.054 27.715 19.652 36.785 2.408-12.152 3.185-22.035 2.31-30.052 2.176 9.617 1.728 21.813-1.302 37.107-12.598-9.07-19.15-21.416-21.668-35.777-15.62 24.187-90.7032 42.58-109.3476 28.218-11.0055-8.477-15.339-28.367.3698-43.243-8.882 12.7-1.43 28.386 8.6994 36.19z" fill-opacity=".15" class="B"/><path d="M82.8607 472.48c-1.006 23.63 1.6036 28.722 25.5403 28.722s26.392-8.032 25.7-28.722c-.942-28.22-7.732-20.698-25.62-20.66-17.9916-.037-24.6753-7.558-25.6203 20.66zm40.1543-12.598c0 6.047 4.032 15.62-2.016 15.62-5.712 0 .505-10.078-12.518-10.078s-6.807 10.078-12.5185 10.078c-6.0475 0-2.1733-9.574-2.1733-15.62 6.3928 2.52 22.6758 2.52 29.2258 0z" class="C"/><path d="M82.72 476.65c.4588 15.375 5.4598 19.01 25.681 19.01 20.152 0 25.212-5.698 25.783-19.84.27 18.22-3.18 25.384-25.783 25.384-22.4577 0-26.1423-4.483-25.681-24.552zm42.376-14.023c-.102-2.123-.2-4.16-.066-5.77-6.55 2.52-26.8632 2.52-33.2564 0 .1293 1.552.0595 3.5-.0136 5.543-.145 4.053-.303 8.467 1.0585 10.844-.5456-1.905-.0987-4.778.353-7.683.3077-1.978.6176-3.97.6176-5.68 6.3928 2.52 22.6758 2.52 29.2258 0 0 1.746.336 3.786.668 5.804.5 3.03.99 6.01.326 7.88 1.505-2.243 1.288-6.758 1.087-10.937z" fill-opacity=".15" class="B"/><path d="M77.1602 431.664c0-5.288 4.2865-9.574 9.5742-9.574h9.0703c4.5643 0 8.3823 3.194 9.3423 7.47.8-.343 1.896-.666 3.255-.666s2.465.323 3.256.666c.96-4.275 4.778-7.47 9.342-7.47h9.07c5.288 0 9.575 4.286 9.575 9.574s-4.287 9.574-9.575 9.574H121c-5.277 0-9.557-4.27-9.574-9.542-.526-.307-1.582-.788-3.024-.788s-2.498.48-3.023.788c-.017 5.273-4.297 9.542-9.5743 9.542h-9.0703c-5.2877 0-9.5742-4.286-9.5742-9.574z" fill="#fff"/><path d="M136.003 426.98a7.597 7.597 0 0 0-1.432-1.389l-19.22 11.096a7.573 7.573 0 0 0 1.542 1.325l19.1-11.032zm1.065 1.82c.362.883.56 1.85.56 2.863 0 4.175-3.384 7.56-7.56 7.56H121a7.613 7.613 0 0 1-1.665-.184l17.733-10.238zm-35.33-1.82a7.597 7.597 0 0 0-1.432-1.389l-19.22 11.096c.4517.508.9706.954 1.543 1.325l19.108-11.032zm1.065 1.82c.362.883.56 1.85.56 2.863 0 4.175-3.3837 7.56-7.5582 7.56h-9.0703c-.5722 0-1.1295-.064-1.6654-.184l17.733-10.238z" fill="#9ca2af"/></g><g class="B"><path d="M4.8744 19h-1.248v-7.936h1.248v1.344h.192c.4907-1.0453 1.344-1.568 2.56-1.568.9173 0 1.648.288 2.192.864.544.5653.816 1.4187.816 2.56V19h-1.248v-4.48c0-.832-.1867-1.456-.56-1.872s-.88-.624-1.52-.624c-.7573 0-1.3547.2613-1.792.784-.4267.512-.64 1.2-.64 2.064V19zm14.309-1.344h-.192c-.256.5333-.6134.928-1.072 1.184-.448.256-.9227.384-1.424.384-.5227 0-1.008-.0853-1.456-.256a3.531 3.531 0 0 1-1.184-.784c-.3307-.352-.592-.7787-.784-1.28s-.288-1.0827-.288-1.744v-.256c0-.6507.096-1.2267.288-1.728s.4533-.9227.784-1.264c.3413-.352.736-.6187 1.184-.8s.9226-.272 1.424-.272c.544 0 1.0346.1227 1.472.368.448.2347.8.6027 1.056 1.104h.192v-1.248h1.248v6.304c0 .32.144.48.432.48h.4V19h-.848c-.3627 0-.6614-.1173-.896-.352-.224-.2347-.336-.5333-.336-.896v-.096zm-2.56.384c.3733 0 .7146-.0693 1.024-.208.32-.1387.592-.336.816-.592s.4-.56.528-.912c.128-.3627.192-.7627.192-1.2v-.192c0-.4267-.064-.816-.192-1.168-.128-.3627-.3094-.672-.544-.928-.224-.256-.496-.4533-.816-.592-.3094-.1493-.6454-.224-1.008-.224-.3734 0-.7147.0693-1.024.208s-.5814.336-.816.592c-.224.2453-.4.5493-.528.912-.128.352-.192.7413-.192 1.168v.256c0 .9067.2346 1.616.704 2.128.48.5013 1.0986.752 1.856.752zm7.8448.96H23.22v-7.936h1.248v1.344h.192c.4907-1.0453 1.344-1.568 2.56-1.568.9174 0 1.648.288 2.192.864.544.5653.816 1.4187.816 2.56V19H28.98v-4.48c0-.832-.1866-1.456-.56-1.872s-.88-.624-1.52-.624c-.7573 0-1.3546.2613-1.792.784-.4266.512-.64 1.2-.64 2.064V19zm16.037-3.872c0 .6613-.112 1.248-.336 1.76-.2133.5013-.5013.928-.864 1.28-.3627.3413-.7893.6027-1.28.784-.48.1813-.9813.272-1.504.272-.5333 0-1.04-.0907-1.52-.272s-.9013-.4427-1.264-.784c-.3627-.352-.656-.7787-.88-1.28-.2133-.512-.32-1.0987-.32-1.76v-.192c0-.6507.1067-1.2267.32-1.728.224-.512.5173-.944.88-1.296.3733-.352.8-.6187 1.28-.8s.9813-.272 1.504-.272 1.024.0907 1.504.272.9013.448 1.264.8c.3733.352.6667.784.88 1.296.224.5013.336 1.0773.336 1.728v.192zM36.52 18.04c.384 0 .736-.064 1.056-.192.3307-.1387.6187-.336.864-.592s.4373-.56.576-.912c.1387-.3627.208-.768.208-1.216v-.192c0-.4267-.0693-.816-.208-1.168-.1387-.3627-.3307-.672-.576-.928s-.5333-.4533-.864-.592c-.3307-.1493-.6827-.224-1.056-.224s-.7253.0747-1.056.224c-.3307.1387-.6187.336-.864.592s-.4373.5653-.576.928c-.1387.352-.208.7413-.208 1.168v.192c0 .448.0693.8533.208 1.216.1387.352.3307.656.576.912s.528.4533.848.592c.3307.128.688.192 1.072.192zm6.069 1.728h7.456v1.152H42.59v-1.152zm12.933-2.016v-9.36h-.192l-1.84 4.208h-1.328v-.096l2.096-4.704h2.608v9.952h3.168V19h-7.68v-1.248h3.168zm13.0288.032h-.192c-.128.2453-.2933.4587-.496.64-.192.1813-.4053.3307-.64.448-.224.1173-.464.2027-.72.256-.256.064-.5013.096-.736.096-.5333 0-1.0293-.0907-1.488-.272s-.864-.4427-1.216-.784c-.3413-.3413-.6133-.7627-.816-1.264-.192-.512-.288-1.0933-.288-1.744v-.256c0-.64.1014-1.2107.304-1.712.2027-.512.4747-.9387.816-1.28.3414-.352.7414-.6187 1.2-.8s.944-.272 1.456-.272c.544 0 1.0507.1227 1.52.368.48.2347.848.6027 1.104 1.104h.192V7.8h1.248V19h-1.248v-1.216zm-2.656.256c.3734 0 .72-.0693 1.04-.208s.5974-.336.832-.592c.2454-.256.4374-.56.576-.912.1387-.3627.208-.7627.208-1.2v-.192c0-.4267-.0693-.816-.208-1.168-.1386-.3627-.3306-.672-.576-.928-.2346-.256-.5173-.4533-.848-.592-.32-.1493-.6613-.224-1.024-.224-.3733 0-.7253.0693-1.056.208a2.593 2.593 0 0 0-.848.592c-.2346.256-.4213.56-.56.912-.128.352-.192.7413-.192 1.168v.256c0 .448.064.848.192 1.2.1387.352.3254.656.56.912a2.717 2.717 0 0 0 .848.576c.32.128.672.192 1.056.192zm7.557.96h-1.248V7.8h1.248v4.704h.192c.2453-.512.5867-.9173 1.024-1.216.448-.2987.992-.448 1.632-.448.864 0 1.5627.288 2.096.864.544.5653.816 1.4187.816 2.56V19h-1.248v-4.48c0-.832-.1867-1.456-.56-1.872s-.88-.624-1.52-.624c-.7573 0-1.3547.2613-1.792.784-.4267.512-.64 1.2-.64 2.064V19zm8.469-7.936h2.448V9.048c0-.3627.112-.6613.336-.896.2346-.2347.5333-.352.896-.352h3.136v1.152h-2.688c-.288 0-.432.16-.432.48v1.632h3.312v1.152h-3.312V19h-1.248v-6.784h-2.448v-1.152zm15.637 6.592h-.192c-.256.5333-.6134.928-1.072 1.184-.448.256-.9227.384-1.424.384-.5227 0-1.008-.0853-1.456-.256a3.531 3.531 0 0 1-1.184-.784c-.3307-.352-.592-.7787-.784-1.28s-.288-1.0827-.288-1.744v-.256c0-.6507.096-1.2267.288-1.728s.4533-.9227.784-1.264c.3413-.352.736-.6187 1.184-.8s.9226-.272 1.424-.272c.544 0 1.0346.1227 1.472.368.448.2347.8.6027 1.056 1.104h.192v-1.248h1.248v6.304c0 .32.144.48.432.48h.4V19h-.848c-.3627 0-.6614-.1173-.896-.352-.224-.2347-.336-.5333-.336-.896v-.096zm-2.56.384c.3733 0 .7146-.0693 1.024-.208.32-.1387.592-.336.816-.592s.4-.56.528-.912c.128-.3627.192-.7627.192-1.2v-.192c0-.4267-.064-.816-.192-1.168-.128-.3627-.3094-.672-.544-.928-.224-.256-.496-.4533-.816-.592-.3094-.1493-.6454-.224-1.008-.224-.3734 0-.7147.0693-1.024.208s-.5814.336-.816.592c-.224.2453-.4.5493-.528.912-.128.352-.192.7413-.192 1.168v.256c0 .9067.2346 1.616.704 2.128.48.5013 1.0986.752 1.856.752zm7.5567.96h-1.248V7.8h1.248v4.512h.192c.277-.48.66-.8427 1.152-1.088.49-.256 1.024-.384 1.6-.384.49 0 .955.0907 1.392.272s.82.4427 1.152.784c.34.3413.608.7627.8 1.264.203.5013.304 1.072.304 1.712v.32c0 .6507-.096 1.2267-.288 1.728s-.46.9227-.8 1.264c-.33.3413-.72.6027-1.168.784-.448.1707-.923.256-1.424.256-.256 0-.517-.032-.784-.096a3.241 3.241 0 0 1-.768-.256 3.956 3.956 0 0 1-.656-.448c-.203-.1813-.373-.3947-.512-.64h-.192V19zm2.656-.96c.384 0 .736-.064 1.056-.192.32-.1387.597-.3307.832-.576.245-.2453.432-.544.56-.896.14-.352.208-.7467.208-1.184v-.32c0-.4267-.07-.8107-.208-1.152-.128-.352-.315-.6507-.56-.896-.235-.256-.517-.4533-.848-.592-.32-.1387-.667-.208-1.04-.208s-.72.0747-1.04.224c-.32.1387-.603.336-.848.592-.235.256-.42.5653-.56.928-.14.352-.208.7413-.208 1.168v.192c0 .4373.07.8373.208 1.2.14.352.325.656.56.912.245.256.528.4533.848.592s.667.208 1.04.208zm8.23-3.68h.272l3.024-3.296h1.536v.096l-3.296 3.632v.288l3.68 3.824V19h-1.536l-3.376-3.488h-.304V19h-1.248V7.8h1.248v6.56zm7.477-3.296h2.496V7.8h1.248v3.264h3.072v1.152h-3.072v5.152c0 .32.144.48.432.48h2.256V19h-2.704c-.363 0-.66-.1173-.896-.352-.224-.2347-.336-.5333-.336-.896v-5.536h-2.496v-1.152zM131.946 19h-1.248V7.8h1.248v4.512h.192c.277-.48.66-.8427 1.152-1.088.5-.256 1.024-.384 1.6-.384.5 0 .954.0907 1.392.272s.82.4427 1.152.784c.34.3413.608.7627.8 1.264.202.5013.304 1.072.304 1.712v.32c0 .6507-.096 1.2267-.288 1.728s-.46.9227-.8 1.264c-.33.3413-.72.6027-1.168.784-.448.1707-.923.256-1.424.256-.256 0-.518-.032-.784-.096a3.241 3.241 0 0 1-.768-.256c-.235-.128-.454-.2773-.656-.448-.203-.1813-.374-.3947-.512-.64h-.192V19zm2.656-.96c.384 0 .736-.064 1.056-.192.32-.1387.597-.3307.832-.576.245-.2453.432-.544.56-.896.138-.352.208-.7467.208-1.184v-.32c0-.4267-.07-.8107-.208-1.152-.128-.352-.315-.6507-.56-.896-.235-.256-.518-.4533-.848-.592-.32-.1387-.667-.208-1.04-.208s-.72.0747-1.04.224c-.32.1387-.603.336-.848.592-.235.256-.422.5653-.56.928-.14.352-.208.7413-.208 1.168v.192c0 .4373.07.8373.208 1.2.138.352.325.656.56.912.245.256.528.4533.848.592s.666.208 1.04.208zm6.037-4.32V7.8h7.008v1.248h-5.696v4h.192c.106-.2133.245-.416.416-.608.17-.2027.368-.3787.592-.528.234-.1493.496-.2667.784-.352.288-.096.608-.144.96-.144.512 0 .98.0853 1.408.256.437.1707.8.4107 1.12.72s.55.6827.72 1.12c.18.4373.272.9227.272 1.456v.288c0 .5333-.086 1.04-.256 1.52a3.917 3.917 0 0 1-.752 1.264c-.33.3627-.742.6507-1.232.864s-1.056.32-1.696.32c-.65 0-1.227-.096-1.728-.288s-.923-.4587-1.264-.8-.603-.7413-.784-1.2c-.17-.4693-.256-.976-.256-1.52v-.448h1.344v.352c0 .8853.245 1.552.736 2 .5.4373 1.152.656 1.952.656.426 0 .8-.0747 1.12-.224.33-.16.602-.368.816-.624.224-.2667.39-.5707.496-.912.106-.352.16-.7147.16-1.088v-.096c0-.3307-.06-.64-.176-.928-.107-.288-.262-.5387-.464-.752-.192-.2133-.432-.3787-.72-.496-.278-.128-.582-.192-.912-.192-.224 0-.432.032-.624.096-.182.064-.342.1493-.48.256-.14.096-.256.208-.352.336-.086.128-.144.2507-.176.368h-2.528zm11.093 2.016c0 .6933.213 1.2533.64 1.68.426.416 1.018.624 1.776.624.362 0 .693-.064.992-.192.31-.128.57-.3093.784-.544.224-.2453.394-.528.512-.848.128-.3307.192-.6987.192-1.104v-1.664h-.192c-.246.4693-.598.8373-1.056 1.104s-.992.4-1.6.4c-.523 0-1.003-.08-1.44-.24s-.816-.3947-1.136-.704c-.32-.32-.57-.704-.752-1.152-.17-.448-.256-.96-.256-1.536v-.192c0-.5547.096-1.0613.288-1.52.192-.4693.458-.8693.8-1.2.352-.3413.762-.6027 1.232-.784.48-.192 1.002-.288 1.568-.288s1.082.096 1.552.288c.48.1813.9.4373 1.232.768.352.3307.624.7253.816 1.184s.288.96.288 1.504v4.032c0 .5973-.102 1.136-.304 1.616-.192.4693-.464.8747-.816 1.216-.342.3307-.747.5867-1.216.768s-.976.272-1.52.272-1.046-.08-1.504-.24-.854-.3893-1.184-.688c-.33-.3093-.587-.6773-.768-1.104-.182-.4373-.272-.9227-.272-1.456h1.344zm2.352-6.976c-.384 0-.736.064-1.056.192-.3.128-.576.3093-.8.544s-.395.512-.512.832c-.118.3093-.177.6453-.177 1.008v.192c0 .3733.065.7147.193 1.024.128.2987.304.56.528.784.224.2133.5.3787.8.496s.65.176 1.024.176c.362 0 .698-.0587 1.008-.176.31-.128.576-.2987.8-.512.234-.2133.416-.4693.544-.768s.192-.6187.192-.96v-.304c0-.352-.06-.6827-.176-.992s-.288-.576-.512-.8c-.224-.2347-.496-.416-.816-.544-.3-.128-.656-.192-1.04-.192zm9.204 8.992v-9.36h-.192l-1.84 4.208h-1.328v-.096l2.096-4.704h2.608v9.952h3.168V19h-7.68v-1.248h3.168zm12.74-6.688c0-.6933-.213-1.248-.64-1.664-.426-.4267-1.018-.64-1.776-.64-.362 0-.698.064-1.008.192a2.26 2.26 0 0 0-.784.56c-.213.2347-.384.5173-.512.848-.117.3307-.176.6933-.176 1.088v1.664h.192c.256-.4693.62-.8373 1.088-1.104.48-.2667 1.014-.4 1.6-.4.512 0 .987.0853 1.424.256.438.16.81.4 1.12.72.32.32.566.7093.736 1.168.182.448.272.96.272 1.536v.192c0 .5547-.1 1.0613-.304 1.52-.192.4587-.464.8533-.816 1.184-.34.3307-.752.5867-1.232.768-.47.1813-.98.272-1.536.272s-1.072-.0907-1.552-.272c-.47-.1813-.88-.432-1.232-.752-.34-.3307-.613-.72-.816-1.168-.192-.4587-.288-.96-.288-1.504v-4.08c0-.5867.102-1.12.304-1.6s.48-.8853.832-1.216c.352-.3413.758-.6027 1.216-.784.47-.1813.97-.272 1.504-.272s1.03.08 1.488.24.854.3947 1.184.704c.33.2987.587.6667.768 1.104.192.4267.288.9067.288 1.44h-1.344zm-2.352 6.976c.384 0 .73-.0587 1.04-.176.32-.128.592-.304.816-.528s.395-.4907.512-.8.176-.6507.176-1.024v-.192c0-.3733-.064-.7147-.192-1.024s-.304-.576-.528-.8-.496-.3947-.816-.512c-.31-.128-.645-.192-1.008-.192s-.698.064-1.008.192-.58.304-.816.528c-.224.224-.4.4853-.528.784s-.192.6187-.192.96v.304c0 .352.06.6827.176.992.118.2987.288.56.512.784s.49.4.8.528c.32.1173.672.176 1.056.176zm13.78-2.912c0 .6613-.112 1.248-.336 1.76-.213.5013-.5.928-.864 1.28-.363.3413-.79.6027-1.28.784-.48.1813-.98.272-1.504.272-.533 0-1.04-.0907-1.52-.272s-.9-.4427-1.264-.784c-.363-.352-.656-.7787-.88-1.28-.213-.512-.32-1.0987-.32-1.76v-.192c0-.6507.107-1.2267.32-1.728.224-.512.517-.944.88-1.296.373-.352.8-.6187 1.28-.8s.98-.272 1.504-.272 1.024.0907 1.504.272.9.448 1.264.8c.373.352.667.784.88 1.296.224.5013.336 1.0773.336 1.728v.192zm-3.984 2.912c.384 0 .736-.064 1.056-.192.33-.1387.62-.336.864-.592s.437-.56.576-.912c.14-.3627.208-.768.208-1.216v-.192c0-.4267-.07-.816-.208-1.168-.14-.3627-.33-.672-.576-.928s-.533-.4533-.864-.592c-.33-.1493-.683-.224-1.056-.224s-.725.0747-1.056.224c-.33.1387-.62.336-.864.592s-.437.5653-.576.928c-.14.352-.208.7413-.208 1.168v.192c0 .448.07.8533.208 1.216.14.352.33.656.576.912s.528.4533.848.592c.33.128.688.192 1.072.192zm12.053-.48h-.192c-.256.512-.592.9173-1.008 1.216s-.944.448-1.584.448c-.437 0-.843-.0747-1.216-.224-.363-.1387-.677-.352-.944-.64-.256-.288-.46-.6453-.608-1.072-.14-.4267-.208-.9227-.208-1.488v-4.736h1.248v4.576c0 .832.17 1.44.512 1.824s.864.576 1.568.576c.757 0 1.35-.256 1.776-.768.437-.5227.656-1.216.656-2.08v-4.128h1.248v9.888c0 .3627-.117.6613-.352.896-.224.2347-.517.352-.88.352h-4.528v-1.152h4.08c.288 0 .432-.16.432-.48V17.56zm11.525-2.432c0 .6613-.112 1.248-.336 1.76-.213.5013-.5.928-.864 1.28-.363.3413-.79.6027-1.28.784-.48.1813-.98.272-1.504.272-.533 0-1.04-.0907-1.52-.272s-.9-.4427-1.264-.784c-.363-.352-.656-.7787-.88-1.28-.213-.512-.32-1.0987-.32-1.76v-.192c0-.6507.107-1.2267.32-1.728.224-.512.517-.944.88-1.296.373-.352.8-.6187 1.28-.8s.98-.272 1.504-.272 1.024.0907 1.504.272.9.448 1.264.8c.373.352.667.784.88 1.296.224.5013.336 1.0773.336 1.728v.192zm-3.984 2.912c.384 0 .736-.064 1.056-.192.33-.1387.62-.336.864-.592s.437-.56.576-.912c.14-.3627.208-.768.208-1.216v-.192c0-.4267-.07-.816-.208-1.168-.14-.3627-.33-.672-.576-.928s-.533-.4533-.864-.592c-.33-.1493-.683-.224-1.056-.224s-.725.0747-1.056.224c-.33.1387-.62.336-.864.592s-.437.5653-.576.928c-.14.352-.208.7413-.208 1.168v.192c0 .448.07.8533.208 1.216.14.352.33.656.576.912s.528.4533.848.592c.33.128.688.192 1.072.192zm9.653 1.184c-.566 0-1.078-.0747-1.536-.224-.46-.16-.854-.3733-1.184-.64-.33-.2773-.587-.5973-.768-.96-.17-.3733-.256-.7787-.256-1.216v-.192c0-.384.058-.7253.176-1.024s.272-.56.464-.784.4-.4107.656-.56c.256-.1493.517-.2613.784-.336v-.192c-.246-.0747-.475-.1867-.688-.336s-.406-.3253-.576-.528c-.16-.2027-.288-.432-.384-.688-.096-.2667-.144-.5547-.144-.864v-.192c0-.4267.085-.816.256-1.168.17-.3627.4-.672.72-.928.32-.256.693-.4533 1.12-.592.437-.1493.922-.224 1.456-.224h.096c.522 0 1.002.0747 1.44.224.437.1387.8.336 1.12.592.32.256.565.5653.736.928.17.352.256.7413.256 1.168v.192c0 .3093-.048.5973-.144.864-.096.256-.23.4853-.4.688-.16.2027-.352.3787-.576.528-.214.1493-.438.2613-.672.336v.192c.266.0747.522.1867.768.336.256.1493.48.336.672.56s.346.4853.464.784.176.64.176 1.024v.192c0 .4373-.09.8427-.272 1.216-.17.3627-.422.6827-.752.96-.33.2667-.726.48-1.184.64-.46.1493-.97.224-1.536.224h-.288zm.24-1.216c.725 0 1.312-.1867 1.76-.56.458-.3733.688-.8587.688-1.456v-.096c0-.6613-.235-1.1733-.704-1.536-.46-.3627-1.056-.544-1.792-.544h-.096c-.736 0-1.34.1813-1.808.544-.46.3627-.688.8747-.688 1.536v.096c0 .5973.224 1.0827.672 1.456.458.3733 1.05.56 1.776.56h.192zm-.096-5.44c.672 0 1.216-.176 1.632-.528s.624-.7947.624-1.328v-.096c0-.544-.208-.9813-.624-1.312-.406-.3413-.95-.512-1.632-.512s-1.232.1707-1.648.512c-.406.3307-.608.768-.608 1.312v.096c0 .5333.208.976.624 1.328s.96.528 1.632.528zM4.8744 45h-1.248v-7.936h1.248v1.344h.192c.4907-1.0453 1.344-1.568 2.56-1.568.9173 0 1.648.288 2.192.864.544.5653.816 1.4187.816 2.56V45h-1.248v-4.48c0-.832-.1867-1.456-.56-1.872s-.88-.624-1.52-.624c-.7573 0-1.3547.2613-1.792.784-.4267.512-.64 1.2-.64 2.064V45zm9.5088 0h-1.248V33.8h1.248v4.512h.192c.2773-.48.6613-.8427 1.152-1.088.4906-.256 1.024-.384 1.6-.384.4906 0 .9546.0907 1.392.272s.8213.4427 1.152.784c.3413.3413.608.7627.8 1.264.2026.5013.304 1.072.304 1.712v.32c0 .6507-.096 1.2267-.288 1.728s-.4587.9227-.8 1.264c-.3307.3413-.72.6027-1.168.784-.448.1707-.9227.256-1.424.256-.256 0-.5174-.032-.784-.096a3.25 3.25 0 0 1-.768-.256c-.2347-.128-.4534-.2773-.656-.448-.2027-.1813-.3734-.3947-.512-.64h-.192V45zm2.656-.96c.384 0 .736-.064 1.056-.192.32-.1387.5973-.3307.832-.576.2453-.2453.432-.544.56-.896.1386-.352.208-.7467.208-1.184v-.32c0-.4267-.0694-.8107-.208-1.152-.128-.352-.3147-.6507-.56-.896-.2347-.256-.5174-.4533-.848-.592-.32-.1387-.6667-.208-1.04-.208s-.72.0747-1.04.224c-.32.1387-.6027.336-.848.592-.2347.256-.4214.5653-.56.928-.1387.352-.208.7413-.208 1.168v.192c0 .4373.0694.8373.208 1.2.1386.352.3253.656.56.912.2453.256.528.4533.848.592s.6666.208 1.04.208zm11.8448-6.976h1.248V45h-1.248v-1.44h-.192c-.256.512-.592.9173-1.008 1.216s-.944.448-1.584.448c-.4373 0-.8426-.0747-1.216-.224-.3626-.1387-.6773-.352-.944-.64-.256-.288-.4586-.6453-.608-1.072-.1386-.4267-.208-.9227-.208-1.488v-4.736h1.248v4.576c0 .832.1707 1.44.512 1.824s.864.576 1.568.576c.7574 0 1.3494-.256 1.776-.768.4374-.5227.656-1.216.656-2.08v-4.128zM40.65 45H39.4v-5.696c0-.3733-.0853-.6773-.256-.912-.1707-.2453-.4427-.368-.816-.368-.352 0-.64.1333-.864.4-.2133.256-.32.656-.32 1.2V45h-1.248v-5.76c0-.352-.096-.64-.288-.864-.192-.2347-.448-.352-.768-.352-.384 0-.6827.1387-.896.416-.2027.2773-.304.64-.304 1.088V45h-1.248v-7.936h1.248v.864h.192c.1387-.3733.3413-.6453.608-.816.2667-.1813.5813-.272.944-.272.384 0 .6987.1013.944.304.256.2027.432.464.528.784h.192c.3627-.7253.9387-1.088 1.728-1.088.5973 0 1.056.192 1.376.576.3307.3733.496.864.496 1.472V45zm2.085-7.936h2.448v-2.016c0-.3627.112-.6613.336-.896.2346-.2347.5333-.352.896-.352h3.136v1.152h-2.688c-.288 0-.432.16-.432.48v1.632h3.312v1.152H46.43V45h-1.248v-6.784h-2.448v-1.152zm15.525 0h1.424l-2.336 3.776v.192L59.8748 45h-1.456l-2.16-3.488h-.288L53.8108 45h-1.456l2.528-3.968v-.192l-2.336-3.776h1.424l2 3.296h.288l2-3.296zM63.3676 45h-1.248V33.8h1.248v4.512h.192c.2774-.48.6614-.8427 1.152-1.088.4907-.256 1.024-.384 1.6-.384.4907 0 .9547.0907 1.392.272s.8214.4427 1.152.784c.3414.3413.608.7627.8 1.264.2027.5013.304 1.072.304 1.712v.32c0 .6507-.096 1.2267-.288 1.728s-.4586.9227-.8 1.264c-.3306.3413-.72.6027-1.168.784-.448.1707-.9226.256-1.424.256-.256 0-.5173-.032-.784-.096a3.253 3.253 0 0 1-.768-.256 3.96 3.96 0 0 1-.656-.448c-.2026-.1813-.3733-.3947-.512-.64h-.192V45zm2.656-.96c.384 0 .736-.064 1.056-.192.32-.1387.5974-.3307.832-.576.2454-.2453.432-.544.56-.896.1387-.352.208-.7467.208-1.184v-.32c0-.4267-.0693-.8107-.208-1.152-.128-.352-.3146-.6507-.56-.896-.2346-.256-.5173-.4533-.848-.592-.32-.1387-.6666-.208-1.04-.208s-.72.0747-1.04.224a2.593 2.593 0 0 0-.848.592c-.2346.256-.4213.5653-.56.928-.1386.352-.208.7413-.208 1.168v.192c0 .4373.0694.8373.208 1.2.1387.352.3254.656.56.912a2.593 2.593 0 0 0 .848.592c.32.1387.6667.208 1.04.208zm12.325-.256h-.192c-.128.2453-.2933.4587-.496.64-.192.1813-.4053.3307-.64.448-.224.1173-.464.2027-.72.256-.256.064-.5013.096-.736.096-.5333 0-1.0293-.0907-1.488-.272s-.864-.4427-1.216-.784c-.3413-.3413-.6133-.7627-.816-1.264-.192-.512-.288-1.0933-.288-1.744v-.256c0-.64.1013-1.2107.304-1.712.2027-.512.4747-.9387.816-1.28.3413-.352.7413-.6187 1.2-.8s.944-.272 1.456-.272c.544 0 1.0507.1227 1.52.368.48.2347.848.6027 1.104 1.104h.192V33.8h1.248V45h-1.248v-1.216zm-2.656.256c.3733 0 .72-.0693 1.04-.208s.5973-.336.832-.592c.2453-.256.4373-.56.576-.912.1387-.3627.208-.7627.208-1.2v-.192c0-.4267-.0693-.816-.208-1.168-.1387-.3627-.3307-.672-.576-.928-.2347-.256-.5173-.4533-.848-.592-.32-.1493-.6613-.224-1.024-.224-.3733 0-.7253.0693-1.056.208-.32.1387-.6027.336-.848.592-.2347.256-.4213.56-.56.912-.128.352-.192.7413-.192 1.168v.256c0 .448.064.848.192 1.2.1387.352.3253.656.56.912.2453.2453.528.4373.848.576.32.128.672.192 1.056.192zm12.165-6.976c0-.6933-.2134-1.248-.64-1.664-.4267-.4267-1.0187-.64-1.776-.64-.3627 0-.6987.064-1.008.192a2.254 2.254 0 0 0-.784.56c-.2134.2347-.384.5173-.512.848-.1174.3307-.176.6933-.176 1.088v1.664h.192c.256-.4693.6186-.8373 1.088-1.104.48-.2667 1.0133-.4 1.6-.4.512 0 .9866.0853 1.424.256.4373.16.8106.4 1.12.72.32.32.5653.7093.736 1.168.1813.448.272.96.272 1.536v.192c0 .5547-.1014 1.0613-.304 1.52-.192.4587-.464.8533-.816 1.184-.3414.3307-.752.5867-1.232.768-.4694.1813-.9814.272-1.536.272s-1.072-.0907-1.552-.272c-.4694-.1813-.88-.432-1.232-.752-.3414-.3307-.6134-.72-.816-1.168-.192-.4587-.288-.96-.288-1.504v-4.08c0-.5867.1013-1.12.304-1.6s.48-.8853.832-1.216c.352-.3413.7573-.6027 1.216-.784.4693-.1813.9706-.272 1.504-.272s1.0293.08 1.488.24.8533.3947 1.184.704c.3306.2987.5866.6667.768 1.104.192.4267.288.9067.288 1.44h-1.344zm-2.352 6.976c.384 0 .7306-.0587 1.04-.176.32-.128.592-.304.816-.528s.3946-.4907.512-.8.176-.6507.176-1.024v-.192c0-.3733-.064-.7147-.192-1.024s-.304-.576-.528-.8-.496-.3947-.816-.512c-.3094-.128-.6454-.192-1.008-.192s-.6987.064-1.008.192-.5814.304-.816.528c-.224.224-.4.4853-.528.784s-.192.6187-.192.96v.304c0 .352.0586.6827.176.992.1173.2987.288.56.512.784s.4906.4.8.528c.32.1173.672.176 1.056.176zm12.437-.256h-.192c-.128.2453-.2934.4587-.496.64a2.661 2.661 0 0 1-.64.448c-.224.1173-.464.2027-.72.256-.256.064-.5014.096-.736.096-.5334 0-1.0294-.0907-1.488-.272s-.864-.4427-1.216-.784c-.3414-.3413-.6134-.7627-.816-1.264-.192-.512-.288-1.0933-.288-1.744v-.256c0-.64.1013-1.2107.304-1.712.2026-.512.4746-.9387.816-1.28.3413-.352.7413-.6187 1.2-.8s.944-.272 1.456-.272c.544 0 1.0506.1227 1.52.368.48.2347.848.6027 1.104 1.104h.192V33.8h1.248V45h-1.248v-1.216zm-2.656.256c.3733 0 .72-.0693 1.04-.208s.5973-.336.832-.592c.2453-.256.4373-.56.576-.912.1386-.3627.208-.7627.208-1.2v-.192c0-.4267-.0694-.816-.208-1.168-.1387-.3627-.3307-.672-.576-.928-.2347-.256-.5174-.4533-.848-.592-.32-.1493-.6614-.224-1.024-.224-.3734 0-.7254.0693-1.056.208-.32.1387-.6027.336-.848.592-.2347.256-.4214.56-.56.912-.128.352-.192.7413-.192 1.168v.256c0 .448.064.848.192 1.2.1386.352.3253.656.56.912.2453.2453.528.4373.848.576.32.128.672.192 1.056.192zm12.3407-.256h-.192c-.256.48-.608.8427-1.056 1.088-.437.2347-.917.352-1.44.352-.533 0-1.035-.0907-1.504-.272s-.885-.4427-1.248-.784c-.352-.3413-.635-.7627-.848-1.264-.203-.512-.304-1.0933-.304-1.744v-.256c0-.64.107-1.2107.32-1.712.213-.512.496-.9387.848-1.28.352-.352.763-.6187 1.232-.8s.96-.272 1.472-.272c.576 0 1.077.128 1.504.384.437.2453.78.608 1.024 1.088h.192v-1.248h1.248v9.888c0 .3627-.117.6613-.352.896-.224.2347-.517.352-.88.352h-5.168v-1.152h4.72c.288 0 .432-.16.432-.48v-2.784zm-2.656.256c.373 0 .72-.0693 1.04-.208s.597-.336.832-.592c.245-.256.437-.56.576-.912.14-.3627.208-.7627.208-1.2v-.192c0-.4267-.07-.816-.208-1.168-.14-.3627-.33-.672-.576-.928-.235-.256-.517-.4533-.848-.592-.32-.1493-.66-.224-1.024-.224-.373 0-.725.0693-1.056.208-.32.1387-.603.336-.848.592-.235.256-.42.56-.56.912-.128.352-.192.7413-.192 1.168v.256c0 .448.064.848.192 1.2.14.352.325.656.56.912.245.2453.528.4373.848.576.32.128.672.192 1.056.192zm9.78 1.184c-.565 0-1.077-.0747-1.536-.224-.46-.16-.853-.3733-1.184-.64-.33-.2773-.587-.5973-.768-.96-.17-.3733-.256-.7787-.256-1.216v-.192c0-.384.06-.7253.176-1.024s.272-.56.464-.784.41-.4107.656-.56c.256-.1493.517-.2613.784-.336v-.192c-.245-.0747-.475-.1867-.688-.336s-.405-.3253-.576-.528c-.16-.2027-.288-.432-.384-.688-.096-.2667-.144-.5547-.144-.864v-.192c0-.4267.085-.816.256-1.168a2.669 2.669 0 0 1 .72-.928c.32-.256.693-.4533 1.12-.592.437-.1493.923-.224 1.456-.224h.096c.523 0 1.003.0747 1.44.224.437.1387.81.336 1.12.592.32.256.565.5653.736.928.17.352.256.7413.256 1.168v.192c0 .3093-.048.5973-.144.864-.096.256-.23.4853-.4.688-.16.2027-.352.3787-.576.528-.213.1493-.437.2613-.672.336v.192c.267.0747.523.1867.768.336.256.1493.48.336.672.56s.347.4853.464.784.176.64.176 1.024v.192c0 .4373-.09.8427-.272 1.216-.17.3627-.42.6827-.752.96-.33.2667-.725.48-1.184.64-.46.1493-.97.224-1.536.224h-.288zm.24-1.216c.725 0 1.312-.1867 1.76-.56.46-.3733.688-.8587.688-1.456v-.096c0-.6613-.235-1.1733-.704-1.536-.46-.3627-1.056-.544-1.792-.544h-.096c-.736 0-1.34.1813-1.808.544-.46.3627-.688.8747-.688 1.536v.096c0 .5973.224 1.0827.672 1.456.46.3733 1.05.56 1.776.56h.192zm-.096-5.44c.672 0 1.216-.176 1.632-.528s.624-.7947.624-1.328v-.096c0-.544-.208-.9813-.624-1.312-.405-.3413-.95-.512-1.632-.512s-1.232.1707-1.648.512c-.405.3307-.608.768-.608 1.312v.096c0 .5333.208.976.624 1.328s.96.528 1.632.528zm7.205 2.848c.032.7893.277 1.424.736 1.904s1.1.72 1.92.72c.373 0 .7-.0427.976-.128s.512-.2027.704-.352c.203-.1493.363-.32.48-.512.128-.2027.23-.416.304-.64l1.184.32c-.224.736-.64 1.3387-1.248 1.808-.597.4587-1.408.688-2.432.688-.565 0-1.088-.096-1.568-.288-.47-.2027-.875-.4853-1.216-.848s-.608-.7947-.8-1.296-.288-1.056-.288-1.664v-.384c0-.5547.096-1.072.288-1.552.203-.48.48-.8907.832-1.232.352-.352.763-.624 1.232-.816.48-.2027.997-.304 1.552-.304.65 0 1.21.1227 1.68.368.48.2347.87.528 1.168.88.31.352.533.736.672 1.152.15.416.224.8.224 1.152v1.024h-6.4zm2.656-3.392c-.352 0-.683.0587-.992.176-.3.1067-.565.2613-.8.464-.224.2027-.41.4427-.56.72-.14.2667-.23.56-.272.88h5.12c-.02-.3413-.107-.6507-.256-.928-.14-.2773-.325-.512-.56-.704-.224-.192-.485-.3413-.784-.448a2.56 2.56 0 0 0-.896-.16zm7.877 1.088c0 .384.16.6773.48.88.33.2027.928.336 1.792.4.928.0747 1.632.2987 2.112.672.5.3627.736.896.736 1.6v.096c0 .384-.08.7307-.24 1.04-.15.2987-.363.5547-.64.768-.267.2133-.598.3733-.992.48-.384.1173-.806.176-1.264.176-.62 0-1.152-.08-1.6-.24-.438-.1707-.806-.3893-1.104-.656-.288-.2773-.507-.5867-.656-.928-.15-.352-.235-.704-.256-1.056l1.184-.288c.053.608.288 1.0987.704 1.472.416.3627.97.544 1.664.544.586 0 1.056-.112 1.408-.336.362-.2347.544-.56.544-.976 0-.448-.176-.768-.528-.96s-.923-.3147-1.712-.368c-.918-.064-1.622-.2773-2.112-.64s-.736-.8907-.736-1.584v-.096c0-.3733.08-.6987.24-.976.16-.288.373-.528.64-.72.277-.192.586-.336.928-.432s.698-.144 1.072-.144c.522 0 .98.0747 1.376.224.394.1387.725.3253.992.56.266.224.47.4853.608.784.15.2987.245.5973.288.896l-1.184.288c-.054-.512-.262-.912-.624-1.2-.352-.288-.816-.432-1.392-.432a2.694 2.694 0 0 0-.656.08c-.203.0427-.384.112-.544.208s-.288.2187-.384.368c-.096.1387-.144.304-.144.496zm14.293 4.672h-.192a2.255 2.255 0 0 1-.496.64 2.673 2.673 0 0 1-.64.448c-.224.1173-.464.2027-.72.256-.256.064-.502.096-.736.096-.534 0-1.03-.0907-1.488-.272s-.864-.4427-1.216-.784c-.342-.3413-.614-.7627-.816-1.264-.192-.512-.288-1.0933-.288-1.744v-.256c0-.64.1-1.2107.304-1.712.202-.512.474-.9387.816-1.28.34-.352.74-.6187 1.2-.8s.944-.272 1.456-.272c.544 0 1.05.1227 1.52.368.48.2347.848.6027 1.104 1.104h.192V33.8h1.248V45h-1.248v-1.216zm-2.656.256c.373 0 .72-.0693 1.04-.208s.597-.336.832-.592c.245-.256.437-.56.576-.912.138-.3627.208-.7627.208-1.2v-.192c0-.4267-.07-.816-.208-1.168-.14-.3627-.33-.672-.576-.928-.235-.256-.518-.4533-.848-.592-.32-.1493-.662-.224-1.024-.224-.374 0-.726.0693-1.056.208-.32.1387-.603.336-.848.592-.235.256-.422.56-.56.912-.128.352-.192.7413-.192 1.168v.256c0 .448.064.848.192 1.2.138.352.325.656.56.912.245.2453.528.4373.848.576.32.128.672.192 1.056.192zm13.173.96h-2.304l-.96-7.36h-.192l-.96 7.36h-2.304l-1.248-7.936h1.28l1.056 7.36h.192l.928-7.36h2.304l.928 7.36h.192l1.055-7.36h1.28L157.444 45zm2.66-7.936h2.496V33.8h1.248v3.264h3.072v1.152h-3.072v5.152c0 .32.144.48.432.48h2.256V45h-2.704c-.362 0-.66-.1173-.896-.352-.224-.2347-.336-.5333-.336-.896v-5.536h-2.496v-1.152zm12.117 3.296h.272l3.024-3.296h1.536v.096l-3.296 3.632v.288l3.68 3.824V45H175.9l-3.376-3.488h-.304V45h-1.248V33.8h1.248v6.56zm13.893 3.424h-.192c-.128.2453-.293.4587-.496.64-.192.1813-.405.3307-.64.448-.224.1173-.464.2027-.72.256-.256.064-.5.096-.736.096-.533 0-1.03-.0907-1.488-.272s-.864-.4427-1.216-.784c-.34-.3413-.613-.7627-.816-1.264-.192-.512-.288-1.0933-.288-1.744v-.256c0-.64.1-1.2107.304-1.712.203-.512.475-.9387.816-1.28.34-.352.74-.6187 1.2-.8s.944-.272 1.456-.272c.544 0 1.05.1227 1.52.368.48.2347.848.6027 1.104 1.104h.192V33.8h1.248V45h-1.248v-1.216zm-2.656.256c.373 0 .72-.0693 1.04-.208s.597-.336.832-.592c.245-.256.437-.56.576-.912.14-.3627.208-.7627.208-1.2v-.192c0-.4267-.07-.816-.208-1.168-.14-.3627-.33-.672-.576-.928-.235-.256-.517-.4533-.848-.592-.32-.1493-.66-.224-1.024-.224-.373 0-.725.0693-1.056.208-.32.1387-.603.336-.848.592-.235.256-.42.56-.56.912-.128.352-.192.7413-.192 1.168v.256c0 .448.064.848.192 1.2.14.352.325.656.56.912.245.2453.528.4373.848.576.32.128.672.192 1.056.192zm12.07-.384h-.192c-.256.5333-.613.928-1.072 1.184-.448.256-.923.384-1.424.384-.523 0-1.008-.0853-1.456-.256a3.528 3.528 0 0 1-1.184-.784c-.33-.352-.592-.7787-.784-1.28s-.288-1.0827-.288-1.744v-.256c0-.6507.096-1.2267.288-1.728s.453-.9227.784-1.264c.34-.352.736-.6187 1.184-.8s.923-.272 1.424-.272c.544 0 1.035.1227 1.472.368.448.2347.8.6027 1.056 1.104h.192v-1.248h1.248v6.304c0 .32.144.48.432.48h.4V45h-.848c-.363 0-.66-.1173-.896-.352-.224-.2347-.336-.5333-.336-.896v-.096zm-2.56.384c.373 0 .715-.0693 1.024-.208.32-.1387.592-.336.816-.592s.4-.56.528-.912c.128-.3627.192-.7627.192-1.2v-.192c0-.4267-.064-.816-.192-1.168-.128-.3627-.31-.672-.544-.928-.224-.256-.496-.4533-.816-.592-.31-.1493-.645-.224-1.008-.224-.373 0-.715.0693-1.024.208s-.58.336-.816.592c-.224.2453-.4.5493-.528.912-.128.352-.192.7413-.192 1.168v.256c0 .9067.235 1.616.704 2.128.48.5013 1.1.752 1.856.752zm6.453-4.32V33.8h7.008v1.248h-5.696v4h.192c.107-.2133.245-.416.416-.608a2.806 2.806 0 0 1 .592-.528c.235-.1493.496-.2667.784-.352.288-.096.608-.144.96-.144.512 0 .98.0853 1.408.256.437.1707.81.4107 1.12.72s.55.6827.72 1.12c.18.4373.272.9227.272 1.456v.288c0 .5333-.085 1.04-.256 1.52-.17.4693-.42.8907-.752 1.264-.33.3627-.74.6507-1.232.864s-1.056.32-1.696.32c-.65 0-1.227-.096-1.728-.288s-.923-.4587-1.264-.8-.603-.7413-.784-1.2c-.17-.4693-.256-.976-.256-1.52v-.448h1.344v.352c0 .8853.245 1.552.736 2 .5.4373 1.152.656 1.952.656.427 0 .8-.0747 1.12-.224.33-.16.603-.368.816-.624.224-.2667.39-.5707.496-.912a3.72 3.72 0 0 0 .16-1.088v-.096c0-.3307-.06-.64-.176-.928-.107-.288-.26-.5387-.464-.752-.192-.2133-.432-.3787-.72-.496-.277-.128-.58-.192-.912-.192-.224 0-.432.032-.624.096-.18.064-.34.1493-.48.256-.14.096-.256.208-.352.336-.085.128-.144.2507-.176.368h-2.528zm10.9 8.48h-1.248V37.064h1.248v1.248h.192c.277-.48.66-.8427 1.152-1.088.5-.256 1.024-.384 1.6-.384.5 0 .954.0907 1.392.272s.82.4427 1.152.784c.34.3413.608.7627.8 1.264.202.5013.304 1.072.304 1.712v.32c0 .6507-.096 1.2267-.288 1.728s-.46.9227-.8 1.264c-.33.3413-.72.6027-1.168.784-.448.1707-.923.256-1.424.256-.256 0-.518-.032-.784-.096a3.241 3.241 0 0 1-.768-.256c-.235-.128-.454-.2773-.656-.448-.203-.1813-.374-.3947-.512-.64h-.192V48.2zm2.656-4.16c.384 0 .736-.064 1.056-.192.32-.1387.597-.3307.832-.576.245-.2453.432-.544.56-.896.138-.352.208-.7467.208-1.184v-.32c0-.4267-.07-.8107-.208-1.152-.128-.352-.315-.6507-.56-.896-.235-.256-.518-.4533-.848-.592-.32-.1387-.667-.208-1.04-.208s-.72.0747-1.04.224c-.32.1387-.603.336-.848.592-.235.256-.422.5653-.56.928-.14.352-.208.7413-.208 1.168v.192c0 .4373.07.8373.208 1.2.138.352.325.656.56.912.245.256.528.4533.848.592s.666.208 1.04.208zM8.0768 63.064h2.88v1.056h.192c.2027-.4373.4907-.7573.864-.96.3733-.2133.8-.32 1.28-.32.8 0 1.4453.2613 1.936.784s.752 1.2853.784 2.288l-1.312.192c0-.736-.176-1.264-.528-1.584-.352-.3307-.784-.496-1.296-.496-.3307 0-.6187.064-.864.192-.2347.128-.432.304-.592.528s-.2773.4853-.352.784-.112.6187-.112.96v3.36h2.016V71h-5.088v-1.152h1.824v-5.632h-1.632v-1.152zm15.893 0h1.424l-2.336 3.776v.192L25.5857 71h-1.456l-2.16-3.488h-.288L19.5217 71h-1.456l2.528-3.968v-.192l-2.336-3.776h1.424l2 3.296h.288l2-3.296zm11.637 4.064c0 .6613-.112 1.248-.336 1.76-.2134.5013-.5014.928-.864 1.28-.3627.3413-.7894.6027-1.28.784-.48.1813-.9814.272-1.504.272-.5334 0-1.04-.0907-1.52-.272s-.9014-.4427-1.264-.784c-.3627-.352-.656-.7787-.88-1.28-.2134-.512-.32-1.0987-.32-1.76v-.192c0-.6507.1066-1.2267.32-1.728.224-.512.5173-.944.88-1.296.3733-.352.8-.6187 1.28-.8s.9813-.272 1.504-.272 1.024.0907 1.504.272.9013.448 1.264.8c.3733.352.6666.784.88 1.296.224.5013.336 1.0773.336 1.728v.192zm-3.984 2.912c.384 0 .736-.064 1.056-.192.3306-.1387.6186-.336.864-.592s.4373-.56.576-.912c.1386-.3627.208-.768.208-1.216v-.192c0-.4267-.0694-.816-.208-1.168-.1387-.3627-.3307-.672-.576-.928s-.5334-.4533-.864-.592c-.3307-.1493-.6827-.224-1.056-.224s-.7254.0747-1.056.224c-.3307.1387-.6187.336-.864.592s-.4374.5653-.576.928c-.1387.352-.208.7413-.208 1.168v.192c0 .448.0693.8533.208 1.216.1386.352.3306.656.576.912s.528.4533.848.592c.3306.128.688.192 1.072.192zm13.7808-2.912c0 .6613-.112 1.248-.336 1.76-.2133.5013-.5013.928-.864 1.28-.3626.3413-.7893.6027-1.28.784-.48.1813-.9813.272-1.504.272-.5333 0-1.04-.0907-1.52-.272s-.9013-.4427-1.264-.784c-.3626-.352-.656-.7787-.88-1.28-.2133-.512-.32-1.0987-.32-1.76v-.192c0-.6507.1067-1.2267.32-1.728.224-.512.5174-.944.88-1.296.3734-.352.8-.6187 1.28-.8s.9814-.272 1.504-.272 1.024.0907 1.504.272.9014.448 1.264.8c.3734.352.6667.784.88 1.296.224.5013.336 1.0773.336 1.728v.192zm-3.984 2.912c.384 0 .736-.064 1.056-.192.3307-.1387.6187-.336.864-.592s.4374-.56.576-.912c.1387-.3627.208-.768.208-1.216v-.192c0-.4267-.0693-.816-.208-1.168-.1386-.3627-.3306-.672-.576-.928s-.5333-.4533-.864-.592c-.3306-.1493-.6826-.224-1.056-.224s-.7253.0747-1.056.224c-.3306.1387-.6186.336-.864.592s-.4373.5653-.576.928c-.1386.352-.208.7413-.208 1.168v.192c0 .448.0694.8533.208 1.216.1387.352.3307.656.576.912a2.593 2.593 0 0 0 .848.592c.3307.128.688.192 1.072.192zm7.205-2.624c.032.7893.2773 1.424.736 1.904s1.0987.72 1.92.72c.3733 0 .6987-.0427.976-.128s.512-.2027.704-.352c.2027-.1493.3627-.32.48-.512a2.932 2.932 0 0 0 .304-.64l1.184.32c-.224.736-.64 1.3387-1.248 1.808-.5973.4587-1.408.688-2.432.688-.5653 0-1.088-.096-1.568-.288-.4693-.2027-.8747-.4853-1.216-.848s-.608-.7947-.8-1.296-.288-1.056-.288-1.664v-.384c0-.5547.096-1.072.288-1.552.2027-.48.48-.8907.832-1.232.352-.352.7627-.624 1.232-.816.48-.2027.9973-.304 1.552-.304.6507 0 1.2107.1227 1.68.368.48.2347.8693.528 1.168.88.3093.352.5333.736.672 1.152.1493.416.224.8.224 1.152v1.024h-6.4zm2.656-3.392c-.352 0-.6827.0587-.992.176-.2987.1067-.5653.2613-.8.464-.224.2027-.4107.4427-.56.72-.1387.2667-.2293.56-.272.88h5.12c-.0213-.3413-.1067-.6507-.256-.928-.1387-.2773-.3253-.512-.56-.704-.224-.192-.4853-.3413-.784-.448-.288-.1067-.5867-.16-.896-.16zm8.693-3.328c0-.3093.1067-.5707.32-.784.224-.224.4907-.336.8-.336s.5707.112.784.336c.224.2133.336.4747.336.784s-.112.576-.336.8c-.2133.2133-.4747.32-.784.32s-.576-.1067-.8-.32c-.2133-.224-.32-.4907-.32-.8zm-2.272 9.152h2.784v-5.632h-2.496v-1.152h3.744v6.784h2.592V71h-6.624v-1.152zm15.749-.064h-.192c-.128.2453-.2934.4587-.496.64a2.661 2.661 0 0 1-.64.448c-.224.1173-.464.2027-.72.256-.256.064-.5014.096-.736.096-.5334 0-1.0294-.0907-1.488-.272s-.864-.4427-1.216-.784c-.3414-.3413-.6134-.7627-.816-1.264-.192-.512-.288-1.0933-.288-1.744v-.256c0-.64.1013-1.2107.304-1.712.2026-.512.4746-.9387.816-1.28.3413-.352.7413-.6187 1.2-.8s.944-.272 1.456-.272c.544 0 1.0506.1227 1.52.368.48.2347.848.6027 1.104 1.104h.192V59.8h1.248V71H73.45v-1.216zm-2.656.256c.3733 0 .72-.0693 1.04-.208s.5973-.336.832-.592c.2453-.256.4373-.56.576-.912.1386-.3627.208-.7627.208-1.2v-.192c0-.4267-.0694-.816-.208-1.168-.1387-.3627-.3307-.672-.576-.928-.2347-.256-.5174-.4533-.848-.592-.32-.1493-.6614-.224-1.024-.224-.3734 0-.7254.0693-1.056.208-.32.1387-.6027.336-.848.592-.2347.256-.4214.56-.56.912-.128.352-.192.7413-.192 1.168v.256c0 .448.064.848.192 1.2.1386.352.3253.656.56.912.2453.2453.528.4373.848.576.32.128.672.192 1.056.192zm7.2688 4.16h-1.248V63.064h1.248v1.248h.192c.2774-.48.6614-.8427 1.152-1.088.4907-.256 1.024-.384 1.6-.384.4907 0 .9547.0907 1.392.272s.8214.4427 1.152.784c.3414.3413.608.7627.8 1.264.2027.5013.304 1.072.304 1.712v.32c0 .6507-.096 1.2267-.288 1.728s-.4586.9227-.8 1.264c-.3306.3413-.72.6027-1.168.784-.448.1707-.9226.256-1.424.256-.256 0-.5173-.032-.784-.096a3.253 3.253 0 0 1-.768-.256 3.96 3.96 0 0 1-.656-.448c-.2026-.1813-.3733-.3947-.512-.64h-.192V74.2zm2.656-4.16c.384 0 .736-.064 1.056-.192.32-.1387.5974-.3307.832-.576.2454-.2453.432-.544.56-.896.1387-.352.208-.7467.208-1.184v-.32c0-.4267-.0693-.8107-.208-1.152-.128-.352-.3146-.6507-.56-.896-.2346-.256-.5173-.4533-.848-.592-.32-.1387-.6666-.208-1.04-.208s-.72.0747-1.04.224a2.593 2.593 0 0 0-.848.592c-.2346.256-.4213.5653-.56.928-.1386.352-.208.7413-.208 1.168v.192c0 .4373.0694.8373.208 1.2.1387.352.3254.656.56.912a2.593 2.593 0 0 0 .848.592c.32.1387.6667.208 1.04.208zm7.141.96h-1.248V59.8h1.248v4.512h.192c.2773-.48.6613-.8427 1.152-1.088.4907-.256 1.024-.384 1.6-.384.4907 0 .9547.0907 1.392.272s.8213.4427 1.152.784c.3413.3413.608.7627.8 1.264.2027.5013.304 1.072.304 1.712v.32c0 .6507-.096 1.2267-.288 1.728s-.4587.9227-.8 1.264c-.3307.3413-.72.6027-1.168.784-.448.1707-.9227.256-1.424.256-.256 0-.5173-.032-.784-.096a3.25 3.25 0 0 1-.768-.256 3.956 3.956 0 0 1-.656-.448c-.2027-.1813-.3733-.3947-.512-.64h-.192V71zm2.656-.96c.384 0 .736-.064 1.056-.192.32-.1387.5973-.3307.832-.576.2453-.2453.432-.544.56-.896.1387-.352.208-.7467.208-1.184v-.32c0-.4267-.0693-.8107-.208-1.152-.128-.352-.3147-.6507-.56-.896-.2347-.256-.5173-.4533-.848-.592-.32-.1387-.6667-.208-1.04-.208s-.72.0747-1.04.224c-.32.1387-.6027.336-.848.592-.2347.256-.4213.5653-.56.928-.1387.352-.208.7413-.208 1.168v.192c0 .4373.0693.8373.208 1.2.1387.352.3253.656.56.912.2453.256.528.4533.848.592s.6667.208 1.04.208zm12.2612-.256h-.192c-.14.2453-.3.4587-.512.64-.192.1707-.406.32-.64.448-.224.1173-.464.2027-.72.256-.246.064-.486.096-.7203.096-.5333 0-1.0293-.0907-1.488-.272s-.864-.4427-1.216-.784c-.3413-.3413-.6133-.7627-.816-1.264-.192-.512-.288-1.0933-.288-1.744v-.256c0-.64.1013-1.2107.304-1.712.2027-.512.4747-.9387.816-1.28.3413-.352.7413-.6187 1.2-.8s.944-.272 1.456-.272c.5443 0 1.0453.128 1.5043.384.47.2453.842.608 1.12 1.088h.192v-1.248h1.248V74.2h-1.248v-4.416zm-2.656.256c.373 0 .72-.0693 1.04-.208s.597-.336.832-.592c.245-.256.437-.56.576-.912.138-.3627.208-.7627.208-1.2v-.192c0-.4267-.07-.816-.208-1.168-.14-.3627-.33-.672-.576-.928-.235-.256-.518-.4533-.848-.592-.32-.1493-.662-.224-1.024-.224-.3736 0-.7256.0693-1.0563.208-.32.1387-.6027.336-.848.592-.2347.256-.4213.56-.56.912-.128.352-.192.7413-.192 1.168v.256c0 .448.064.848.192 1.2.1387.352.3253.656.56.912.2453.2453.528.4373.848.576.32.128.672.192 1.0563.192zm5.925-6.976h2.88v1.056h.192c.202-.4373.5-.7573.864-.96.373-.2133.8-.32 1.28-.32.8 0 1.445.2613 1.936.784s.752 1.2853.784 2.288l-1.312.192c0-.736-.176-1.264-.528-1.584-.352-.3307-.784-.496-1.296-.496-.33 0-.62.064-.864.192-.235.128-.432.304-.592.528s-.278.4853-.352.784-.112.6187-.112.96v3.36h2.016V71h-5.088v-1.152h1.824v-5.632h-1.632v-1.152zM117.25 71h-1.248V59.8h1.248v4.512h.192c.278-.48.662-.8427 1.152-1.088.49-.256 1.024-.384 1.6-.384.49 0 .955.0907 1.392.272a3.389 3.389 0 0 1 1.152.784c.342.3413.608.7627.8 1.264.203.5013.304 1.072.304 1.712v.32c0 .6507-.096 1.2267-.288 1.728s-.458.9227-.8 1.264c-.33.3413-.72.6027-1.168.784-.448.1707-.922.256-1.424.256-.256 0-.517-.032-.784-.096a3.271 3.271 0 0 1-.768-.256 3.998 3.998 0 0 1-.656-.448c-.202-.1813-.373-.3947-.512-.64h-.192V71zm2.656-.96c.384 0 .736-.064 1.056-.192.32-.1387.598-.3307.832-.576.246-.2453.432-.544.56-.896.14-.352.208-.7467.208-1.184v-.32c0-.4267-.07-.8107-.208-1.152-.128-.352-.314-.6507-.56-.896-.234-.256-.517-.4533-.848-.592-.32-.1387-.666-.208-1.04-.208s-.72.0747-1.04.224c-.32.1387-.602.336-.848.592-.234.256-.42.5653-.56.928-.138.352-.208.7413-.208 1.168v.192c0 .4373.07.8373.208 1.2.14.352.326.656.56.912.246.256.528.4533.848.592s.667.208 1.04.208zm9.093-.288v-9.36h-.192l-1.84 4.208h-1.328v-.096l2.096-4.704h2.608v9.952h3.168V71h-7.68v-1.248H129zM143.516 71h-1.248v-5.696c0-.3733-.085-.6773-.256-.912-.17-.2453-.442-.368-.816-.368-.352 0-.64.1333-.864.4-.213.256-.32.656-.32 1.2V71h-1.248v-5.76c0-.352-.096-.64-.288-.864-.192-.2347-.448-.352-.768-.352-.384 0-.682.1387-.896.416-.202.2773-.304.64-.304 1.088V71h-1.248v-7.936h1.248v.864h.192c.14-.3733.342-.6453.608-.816.267-.1813.582-.272.944-.272.384 0 .7.1013.944.304.256.2027.432.464.528.784h.192c.363-.7253.94-1.088 1.728-1.088.598 0 1.056.192 1.376.576.33.3733.496.864.496 1.472V71zm3.413 0h-1.248V59.8h1.248v4.704h.192c.245-.512.587-.9173 1.024-1.216.448-.2987.992-.448 1.632-.448.864 0 1.563.288 2.096.864.544.5653.816 1.4187.816 2.56V71h-1.248v-4.48c0-.832-.187-1.456-.56-1.872s-.88-.624-1.52-.624c-.757 0-1.355.2613-1.792.784-.427.512-.64 1.2-.64 2.064V71zm14.197-7.936h1.424l-2.336 3.776v.192L162.742 71h-1.456l-2.16-3.488h-.288L156.678 71h-1.456l2.528-3.968v-.192l-2.336-3.776h1.424l2 3.296h.288l2-3.296zm5.11 11.136h-1.248V63.064h1.248v1.248h.192c.277-.48.66-.8427 1.152-1.088.5-.256 1.024-.384 1.6-.384.5 0 .954.0907 1.392.272s.82.4427 1.152.784c.34.3413.608.7627.8 1.264.202.5013.304 1.072.304 1.712v.32c0 .6507-.096 1.2267-.288 1.728s-.46.9227-.8 1.264c-.33.3413-.72.6027-1.168.784-.448.1707-.923.256-1.424.256-.256 0-.518-.032-.784-.096a3.241 3.241 0 0 1-.768-.256c-.235-.128-.454-.2773-.656-.448-.203-.1813-.374-.3947-.512-.64h-.192V74.2zm2.656-4.16c.384 0 .736-.064 1.056-.192.32-.1387.597-.3307.832-.576.245-.2453.432-.544.56-.896.138-.352.208-.7467.208-1.184v-.32c0-.4267-.07-.8107-.208-1.152-.128-.352-.315-.6507-.56-.896-.235-.256-.518-.4533-.848-.592-.32-.1387-.667-.208-1.04-.208s-.72.0747-1.04.224c-.32.1387-.603.336-.848.592-.235.256-.422.5653-.56.928-.14.352-.208.7413-.208 1.168v.192c0 .4373.07.8373.208 1.2.138.352.325.656.56.912.245.256.528.4533.848.592s.666.208 1.04.208zm5.733-6.976h2.88v1.056h.192c.202-.4373.5-.7573.864-.96.373-.2133.8-.32 1.28-.32.8 0 1.445.2613 1.936.784s.752 1.2853.784 2.288l-1.312.192c0-.736-.176-1.264-.528-1.584-.352-.3307-.784-.496-1.296-.496-.33 0-.62.064-.864.192-.235.128-.432.304-.592.528s-.278.4853-.352.784-.112.6187-.112.96v3.36h2.016V71h-5.088v-1.152h1.824v-5.632h-1.632v-1.152zm16.005 6.592h-.192c-.256.5333-.614.928-1.072 1.184-.448.256-.923.384-1.424.384-.523 0-1.008-.0853-1.456-.256a3.528 3.528 0 0 1-1.184-.784c-.33-.352-.592-.7787-.784-1.28s-.288-1.0827-.288-1.744v-.256c0-.6507.096-1.2267.288-1.728s.453-.9227.784-1.264c.34-.352.736-.6187 1.184-.8s.922-.272 1.424-.272c.544 0 1.034.1227 1.472.368.448.2347.8.6027 1.056 1.104h.192v-1.248h1.248v6.304c0 .32.144.48.432.48h.4V71h-.848c-.363 0-.662-.1173-.896-.352-.224-.2347-.336-.5333-.336-.896v-.096zm-2.56.384c.373 0 .714-.0693 1.024-.208.32-.1387.592-.336.816-.592s.4-.56.528-.912c.128-.3627.192-.7627.192-1.2v-.192c0-.4267-.064-.816-.192-1.168-.128-.3627-.3-.672-.544-.928-.224-.256-.496-.4533-.816-.592-.3-.1493-.646-.224-1.008-.224-.374 0-.715.0693-1.024.208s-.582.336-.816.592c-.224.2453-.4.5493-.528.912-.128.352-.192.7413-.192 1.168v.256c0 .9067.234 1.616.704 2.128.48.5013 1.098.752 1.856.752zm14.084-2.912c0 .6613-.112 1.248-.336 1.76-.213.5013-.5.928-.864 1.28-.362.3413-.79.6027-1.28.784-.48.1813-.98.272-1.504.272-.533 0-1.04-.0907-1.52-.272s-.9-.4427-1.264-.784c-.362-.352-.656-.7787-.88-1.28-.213-.512-.32-1.0987-.32-1.76v-.192c0-.6507.107-1.2267.32-1.728.224-.512.518-.944.88-1.296.374-.352.8-.6187 1.28-.8s.982-.272 1.504-.272 1.024.0907 1.504.272.902.448 1.264.8c.374.352.667.784.88 1.296.224.5013.336 1.0773.336 1.728v.192zm-3.984 2.912c.384 0 .736-.064 1.056-.192.33-.1387.62-.336.864-.592s.438-.56.576-.912c.14-.3627.208-.768.208-1.216v-.192c0-.4267-.07-.816-.208-1.168-.138-.3627-.33-.672-.576-.928s-.533-.4533-.864-.592c-.33-.1493-.682-.224-1.056-.224s-.725.0747-1.056.224a2.562 2.562 0 0 0-.864.592c-.245.256-.437.5653-.576.928-.138.352-.208.7413-.208 1.168v.192c0 .448.07.8533.208 1.216.14.352.33.656.576.912s.528.4533.848.592c.33.128.688.192 1.072.192zm6.053-10.24h7.488v1.952L207 68.888c-.224.3413-.394.6347-.512.88s-.176.496-.176.752V71H205v-.576c0-.192.016-.3733.048-.544.043-.1707.102-.3413.176-.512.086-.1813.187-.368.304-.56l.448-.688 4.592-6.88v-.192h-6.336V59.8z" fill-opacity=".5"/><path d="M108 108.08h4.68v-6.84h7.04v-4.32h-7.04V90H108v6.92h-7v4.32h7v6.84z"/></g><path d="M3.5426 224.493h4.003v-6.004c1.0754 1.314 2.778 2 4.5107 2 4.1224 0 6.811-3.465 6.811-7.797 0-4.27-2.6288-7.736-6.7512-7.736-1.7923 0-3.5548.627-4.7795 2.09v-1.793H3.5426v19.238zm7.5278-7.707c-2.0612 0-3.5548-1.703-3.5548-4.063 0-2.39 1.5235-4.062 3.5548-4.062 2.1807 0 3.7042 1.702 3.7042 4.062s-1.5235 4.063-3.7042 4.063zm18.9573 3.704c4.1223 0 6.751-3.465 6.751-7.767s-2.6885-7.766-6.811-7.766c-1.7326 0-3.4353.687-4.5107 1.97v-6.393h-4.003v19.656h3.7938V218.4c1.1053 1.434 2.9872 2.09 4.7796 2.09zm-1.0157-3.704c-2.0313 0-3.5548-1.673-3.5548-4.063 0-2.33 1.4936-4.062 3.5548-4.062 2.1508 0 3.7042 1.732 3.7042 4.062 0 2.36-1.5534 4.063-3.7042 4.063z" class="D"/><path d="M39.9934 210.96h13.293v-1.882h-13.293v1.882zm0 4.48h13.293v-1.882h-13.293v1.882zm15.7978 4.75H58.4l3.316-4.39c.448-.567.926-1.523.926-1.523l.956 1.523 3.286 4.39h2.599l-5.407-7.408 5.2874-7.14h-2.57l-3.256 4.33-.8663 1.344-.8962-1.344-3.256-4.33h-2.599l5.3173 7.14-5.4367 7.408zm15.5476 0h4.003v-5.735c0-3.555 1.7027-5.138 5.168-5.138v-4.36c-3.286 0-4.8095 1.94-5.2277 3.166v-2.868h-3.943v14.936zm29.8432-1.314h2.032v-5.616h5.646v-1.882h-5.646v-5.616h-2.032v5.616h-5.6156v1.882h5.6156v5.616zm12.78 5.706c1.703 0 3.764-.24 5.347-3.675l6.93-15.264h-2.33l-4.332 9.678-.687 1.733-.657-1.643-4.57-9.768h-2.36l6.543 13.59-.33.658c-.986 2.09-1.972 2.54-3.555 2.54v2.15zm20.9 0c4.96 0 7.916-3.107 7.916-8.006v-11.322h-3.794v2.032c-.806-1.494-2.778-2.33-4.7-2.33-4.152 0-6.75 3.226-6.75 7.23 0 3.973 2.6 7.2 6.75 7.2 2.21 0 3.824-1.046 4.48-2.21 0 .12 0 .24-.03.33-.12 2.4-1.523 4.063-4.3 4.063-1.404 0-3.137-.42-4.332-1.345l-1.493 2.5c1.374 1.135 3.554 1.852 6.243 1.852zm.328-8.693c-2.03 0-3.584-1.554-3.584-3.704 0-2.18 1.553-3.764 3.584-3.764 2.062 0 3.615 1.583 3.615 3.674 0 2.24-1.524 3.794-3.615 3.794zm29.092 2.987h2.03v-5.616h5.646v-1.882h-5.646v-5.616h-2.03v5.616h-5.616v1.882h5.616v5.616zm10.66 1.314h12.038v-2.03h-9.26s.986-1.016 1.613-1.762l7.498-9.052v-1.702h-11.5v2.03h8.663s-.956.986-1.524 1.643l-7.527 9.14v1.732zm22.972.3c4.122 0 6.75-3.465 6.75-7.767s-2.69-7.766-6.81-7.766c-1.733 0-3.435.687-4.51 1.97v-6.393h-4.003v19.656h3.794V218.4c1.105 1.434 2.987 2.09 4.78 2.09zm-1.016-3.704c-2.03 0-3.555-1.673-3.555-4.063 0-2.33 1.494-4.062 3.555-4.062 2.15 0 3.704 1.732 3.704 4.062 0 2.36-1.553 4.063-3.704 4.063z" class="B"/><path d="M82.2387 211.47H92.246v-2.808h-5.168c2.599-2.062 4.8094-4.362 4.8094-7s-2.09-4.153-4.8393-4.153c-1.7923 0-3.4054.747-4.7198 2.18l1.5235 2.09c.8065-.896 1.8222-1.434 2.7482-1.434 1.3443 0 1.912.717 1.912 1.643 0 1.733-2.091 3.943-6.2732 7.498v1.972zm63.0993 0h10.007v-2.808h-5.168c2.6-2.062 4.8-4.362 4.8-7s-2.09-4.153-4.84-4.153c-1.793 0-3.406.747-4.72 2.18l1.523 2.09c.807-.896 1.822-1.434 2.75-1.434 1.344 0 1.91.717 1.91 1.643 0 1.733-2.09 3.943-6.273 7.498v1.972zm61.466 0h10.007v-2.808h-5.168c2.6-2.062 4.8-4.362 4.8-7s-2.09-4.153-4.84-4.153c-1.792 0-3.405.747-4.72 2.18l1.523 2.09c.807-.896 1.822-1.434 2.748-1.434 1.345 0 1.912.717 1.912 1.643 0 1.733-2.09 3.943-6.273 7.498v1.972z" class="C"/><g opacity=".8"><path d="M3.7415 187.916h3.0792v-5.837c0-1.654.8962-2.964 2.5277-2.964 1.5166 0 2.022.896 2.022 2.574v6.227h3.0792v-6.618c0-3.217-1.103-5.1-4.0903-5.1-1.3787 0-2.6425.482-3.5387 1.677v-5.078h-3.079v15.12zm124.6775 0h3.08v-5.837c0-1.654.896-2.964 2.528-2.964 1.516 0 2.022.896 2.022 2.574v6.227h3.08v-6.618c0-3.217-1.103-5.1-4.1-5.1-1.38 0-2.643.482-3.54 1.677v-5.078h-3.08v15.12z" class="D"/><path d="M16.231 183.16h8.71v-1.493h-8.71v1.493zm15.334 4.757h3.0792v-14.9h-2.7575l-4.9174 3.906 1.3787 2.16 3.217-2.09v10.915zm12.2937.253c3.5387 0 5.6987-1.884 5.6987-4.596 0-1.608-.8273-3-2.4128-3.677 1.011-.666 1.5166-1.746 1.5166-3.08 0-2.275-1.8153-4.02-4.8025-4.02-3.0103 0-4.8256 1.746-4.8256 4.02 0 1.333.5056 2.413 1.5166 3.08-1.5855.667-2.4127 2.07-2.4127 3.677 0 2.712 2.16 4.596 5.7217 4.596zm0-2.712c-1.5856 0-2.4817-.942-2.4817-2.16s.8502-2.23 2.4817-2.23c1.6085 0 2.4587 1.01 2.4587 2.23s-.8732 2.16-2.4587 2.16zm0-6.434c-1.3328 0-1.9762-.873-1.9762-1.838 0-.988.6893-1.815 1.9762-1.815 1.2638 0 1.976.827 1.976 1.815 0 .965-.6664 1.838-1.976 1.838zm13.5138 9.123c3.4927 0 5.9285-3.17 5.9285-7.675s-2.4358-7.675-5.9285-7.675c-3.5158 0-5.9515 3.17-5.9515 7.675s2.4357 7.675 5.9515 7.675zm0-2.758c-1.8153 0-2.7575-2.022-2.7575-4.917s.9422-4.918 2.7575-4.918c1.7923 0 2.7115 2.023 2.7115 4.918s-.9192 4.917-2.7115 4.917zm7.576-2.23h8.71v-1.493h-8.71v1.493zm15.7706 4.987c1.8153 0 3.4468-.713 4.274-2.183v1.953h1.6774v-15.12h-1.7464v5.883c-.8272-1.448-2.4127-2.183-4.205-2.183-3.102 0-5.285 2.55-5.285 5.836 0 3.24 2.183 5.814 5.285 5.814zm.3907-1.7c-2.23 0-3.8834-1.746-3.8834-4.113 0-2.4 1.6544-4.136 3.8834-4.136 2.137 0 3.8144 1.792 3.8144 4.136s-1.6774 4.113-3.8144 4.113zm18.7203.253v-1.677l-7.7898-3.194 7.7898-3.194v-1.7l-9.835 4.32v1.15l9.835 4.297zm25.559 0v-1.677l-7.79-3.194 7.79-3.194v-1.7l-9.834 4.32v1.15l9.834 4.297zm15.52-3.54h8.71v-1.493h-8.71v1.493zm15.334 4.757h3.08v-14.9h-2.758l-4.917 3.906 1.378 2.16 3.217-2.09v10.915zm12.294.253c3.54 0 5.7-1.884 5.7-4.596 0-1.608-.827-3-2.413-3.677 1.01-.666 1.517-1.746 1.517-3.08 0-2.275-1.816-4.02-4.803-4.02-3 0-4.825 1.746-4.825 4.02 0 1.333.505 2.413 1.516 3.08-1.585.667-2.413 2.07-2.413 3.677 0 2.712 2.16 4.596 5.722 4.596zm0-2.712c-1.585 0-2.482-.942-2.482-2.16s.85-2.23 2.482-2.23c1.61 0 2.46 1.01 2.46 2.23s-.873 2.16-2.46 2.16zm0-6.434c-1.333 0-1.976-.873-1.976-1.838 0-.988.69-1.815 1.976-1.815 1.264 0 1.976.827 1.976 1.815 0 .965-.666 1.838-1.976 1.838zm13.514 9.123c3.493 0 5.928-3.17 5.928-7.675s-2.435-7.675-5.928-7.675c-3.516 0-5.952 3.17-5.952 7.675s2.436 7.675 5.952 7.675zm0-2.758c-1.815 0-2.758-2.022-2.758-4.917s.943-4.918 2.758-4.918c1.792 0 2.71 2.023 2.71 4.918s-.92 4.917-2.71 4.917zm12.792 1.517h1.563v-4.32h4.343v-1.448h-4.343v-4.32h-1.563v4.32h-4.32v1.448h4.32v4.32zm13.876 1.24c1.815 0 3.447-.713 4.274-2.183v1.953h1.677v-15.12h-1.746v5.883c-.827-1.448-2.413-2.183-4.205-2.183-3.102 0-5.285 2.55-5.285 5.836 0 3.24 2.183 5.814 5.285 5.814zm.4-1.7c-2.228 0-3.883-1.746-3.883-4.113 0-2.4 1.655-4.136 3.883-4.136 2.137 0 3.815 1.792 3.815 4.136s-1.678 4.113-3.815 4.113z" class="B"/><path d="M101.963 187.916h3.378l1.356-2.09.988-1.907 1.034 1.907 1.287 2.09h3.4l-3.815-5.86 3.815-5.63h-3.378l-1.38 2.068-.965 1.792-.988-1.792-1.356-2.068h-3.378l3.792 5.63-3.792 5.86z" class="C"/></g><g opacity=".8"><path d="M8.8574 248.454c2.9728 0 5.3115-2.28 5.3115-5.153s-2.3387-5.153-5.3115-5.153c-2.953 0-5.2917 2.28-5.2917 5.153s2.3387 5.153 5.2917 5.153zm0-2.458c-1.4864 0-2.5963-1.13-2.5963-2.695 0-1.546 1.11-2.695 2.5963-2.695s2.5963 1.15 2.5963 2.695c0 1.566-1.11 2.695-2.5963 2.695z" class="D"/><path d="M16.3177 242.132h8.8196v-1.25h-8.8196v1.25zm0 2.973h8.8196v-1.25h-8.8196v1.25zm32.1386 2.28h1.3477v-3.726h3.746v-1.25h-3.746v-3.726h-1.3477v3.726h-3.726v1.25h3.726v3.726zm11.8092 2.12c-1.5856-1.823-2.5964-4.2-2.5964-6.897s1.0108-5.073 2.5964-6.897l-.892-.95c-1.6846 1.685-3.191 4.28-3.191 7.848s1.5063 6.164 3.191 7.85l.892-.952zm5.6007-1.248h1.5063v-12.843h-1.328l-3.7062 2.953.7135 1.1 2.8143-2.02v10.82zm4.7425-4.103h7.5115v-1.288h-7.5115v1.288zm9.1825 6.957h2.6558v-3.984c.7134.872 1.843 1.328 2.9926 1.328 2.735 0 4.5188-2.3 4.5188-5.173 0-2.834-1.744-5.133-4.479-5.133-1.1892 0-2.3585.416-3.171 1.387v-1.19h-2.517V251.1zm4.9944-5.114c-1.3675 0-2.3585-1.13-2.3585-2.695 0-1.585 1.0108-2.695 2.3585-2.695 1.4468 0 2.4576 1.13 2.4576 2.695s-1.0108 2.695-2.4576 2.695zm12.5774 2.458c2.735 0 4.48-2.3 4.48-5.153s-1.784-5.153-4.5186-5.153c-1.1495 0-2.2792.456-2.9927 1.308v-4.24H91.675v13.04h2.517v-1.19c.7333.95 1.982 1.387 3.17 1.387zm-.6738-2.458c-1.3477 0-2.3585-1.11-2.3585-2.695 0-1.546.99-2.695 2.3585-2.695 1.427 0 2.4576 1.15 2.4576 2.695 0 1.566-1.0306 2.695-2.4576 2.695zm5.7398 2.636h1.407l6.124-14.11h-1.427l-6.104 14.11zm12.192-.376h1.506v-12.843H114.8l-3.706 2.953.713 1.1 2.815-2.02v10.82zm9.816.198c2.814 0 4.816-2.755 4.816-6.62s-2.002-6.62-4.816-6.62c-2.834 0-4.836 2.755-4.836 6.62s2.002 6.62 4.836 6.62zm0-1.387c-1.962 0-3.23-2.2-3.23-5.233 0-3.052 1.27-5.232 3.23-5.232 1.942 0 3.19 2.18 3.19 5.232 0 3.033-1.25 5.233-3.19 5.233zm11.438 1.387c2.815 0 4.816-2.755 4.816-6.62s-2-6.62-4.816-6.62c-2.834 0-4.836 2.755-4.836 6.62s2.002 6.62 4.836 6.62zm0-1.387c-1.962 0-3.23-2.2-3.23-5.233 0-3.052 1.268-5.232 3.23-5.232 1.943 0 3.19 2.18 3.19 5.232 0 3.033-1.248 5.233-3.19 5.233zm7.455 3.39c1.685-1.685 3.19-4.28 3.19-7.85s-1.506-6.163-3.19-7.848l-.892.95c1.586 1.824 2.597 4.202 2.597 6.897s-1.01 5.074-2.597 6.897l.892.952zm8.04-8.245h1.05l-.06-2.735 2.338 1.447.496-.892-2.458-1.288 2.458-1.328-.496-.892-2.338 1.447.08-2.735h-1.07l.08 2.735-2.358-1.447-.496.892 2.458 1.328-2.458 1.288.496.892 2.338-1.427-.06 2.715zm9.928 7.293c-1.586-1.823-2.597-4.2-2.597-6.897s1.01-5.073 2.597-6.897l-.892-.95c-1.685 1.685-3.19 4.28-3.19 7.848s1.506 6.164 3.19 7.85l.892-.952zm23.543-5.35h7.51v-1.288h-7.51v1.288zm26.638 6.303c1.685-1.685 3.19-4.28 3.19-7.85s-1.506-6.163-3.19-7.848l-.892.95c1.586 1.824 2.596 4.202 2.596 6.897s-1 5.074-2.596 6.897l.892.952z" class="B"/><path d="M27.5917 248.256h2.6558v-9.9h-2.6558v9.9zm1.308-11.12c.872 0 1.5855-.713 1.5855-1.565 0-.872-.7135-1.586-1.5855-1.586-.8522 0-1.5657.714-1.5657 1.586 0 .852.7135 1.565 1.5657 1.565zm8.3702 11.317c2.9728 0 5.3115-2.28 5.3115-5.153s-2.3387-5.153-5.3115-5.153c-2.953 0-5.2917 2.28-5.2917 5.153s2.3386 5.153 5.2917 5.153zm0-2.458c-1.4865 0-2.5963-1.13-2.5963-2.695 0-1.546 1.1098-2.695 2.5963-2.695s2.5963 1.15 2.5963 2.695c0 1.566-1.11 2.695-2.5963 2.695zm125.11 2.26h2.913l1.17-1.804.853-1.645.89 1.645 1.1 1.804h2.934l-3.3-5.054 3.3-4.856h-2.914l-1.19 1.784-.832 1.546-.853-1.546-1.17-1.784h-2.913l3.27 4.856-3.27 5.054zm15.773.198c2.973 0 5.312-2.28 5.312-5.153s-2.34-5.153-5.312-5.153c-2.953 0-5.29 2.28-5.29 5.153s2.338 5.153 5.29 5.153zm0-2.458c-1.486 0-2.596-1.13-2.596-2.695 0-1.546 1.1-2.695 2.596-2.695s2.597 1.15 2.597 2.695c0 1.566-1.1 2.695-2.597 2.695zm15.87 2.26h2.656v-9.9h-2.656v9.9zm1.308-11.12c.872 0 1.586-.713 1.586-1.565 0-.872-.714-1.586-1.586-1.586-.852 0-1.565.714-1.565 1.586 0 .852.713 1.565 1.565 1.565zm8.37 11.317c2.972 0 5.31-2.28 5.31-5.153s-2.34-5.153-5.31-5.153c-2.954 0-5.292 2.28-5.292 5.153s2.338 5.153 5.292 5.153zm0-2.458c-1.487 0-2.597-1.13-2.597-2.695 0-1.546 1.1-2.695 2.597-2.695s2.596 1.15 2.596 2.695c0 1.566-1.1 2.695-2.596 2.695z" class="C"/></g><g opacity=".3"><path d="M4.4295 272.127h1.81v-8.883h-1.81v8.883zm7.065.135c1.863 0 3.05-1.566 3.05-3.5s-1.215-3.5-3.078-3.5c-.783 0-1.5525.3-2.0385.89v-2.89H7.62v8.883h1.7145v-.8c.4995.648 1.35.945 2.16.945zm-.46-1.674c-.918 0-1.6065-.756-1.6065-1.836 0-1.053.675-1.836 1.6065-1.836.972 0 1.674.783 1.674 1.836 0 1.066-.702 1.836-1.674 1.836z" class="D"/><path d="M15.998 267.955h6.0075v-.85H15.998v.85zm0 2.025h6.0075v-.85H15.998v.85zm7.855 2.147h1.026v-3.78c0-.96.6885-1.93 1.836-1.93 1.188 0 1.5795.743 1.5795 1.863v3.848h1.0395v-3.834c0-.986.702-1.877 1.81-1.877 1.2015 0 1.593.743 1.593 1.863v3.848h1.0395v-3.983c0-1.81-.837-2.727-2.4165-2.727-.7695 0-1.7955.432-2.268 1.39-.3105-.932-1.053-1.39-2.106-1.39-.918 0-1.7415.554-2.106 1.27v-1.134h-1.026v6.575zm12.022.135c.3915 0 .7155-.324.7155-.716s-.324-.715-.7155-.715-.702.324-.702.715.297.716.702.716zm31.93.715c-1.08-1.242-1.7685-2.862-1.7685-4.698s.6885-3.456 1.7685-4.698l-.6075-.648c-1.1475 1.148-2.1735 2.916-2.1735 5.346s1.026 4.2 2.1735 5.346l.6075-.648zm1.44-.85h1.026v-3.78c0-.96.6885-1.93 1.836-1.93 1.188 0 1.5795.743 1.5795 1.863v3.848h1.0395v-3.834c0-.986.702-1.877 1.81-1.877 1.2015 0 1.593.743 1.593 1.863v3.848h1.0395v-3.983c0-1.81-.837-2.727-2.4165-2.727-.7695 0-1.7955.432-2.268 1.39-.3105-.932-1.053-1.39-2.106-1.39-.918 0-1.7415.554-2.106 1.27v-1.134h-1.026v6.575zm12.022.135c.3915 0 .7155-.324.7155-.716s-.324-.715-.7155-.715-.702.324-.702.715.297.716.702.716zm29.702.715c-1.08-1.242-1.768-2.862-1.768-4.698s.688-3.456 1.768-4.698l-.607-.648c-1.148 1.148-2.174 2.916-2.174 5.346s1.026 4.2 2.174 5.346l.607-.648zm1.264-.85h1.81v-6.75h-1.81v6.75zm.89-7.574c.594 0 1.08-.486 1.08-1.066 0-.594-.486-1.08-1.08-1.08-.58 0-1.067.486-1.067 1.08 0 .58.486 1.066 1.067 1.066zm2.3 9.518h1.81v-2.714c.486.594 1.256.905 2.04.905 1.863 0 3.078-1.566 3.078-3.524 0-1.93-1.188-3.496-3.05-3.496-.8 0-1.607.283-2.16.945v-.8h-1.715v8.694zm3.402-3.483c-.93 0-1.606-.77-1.606-1.836 0-1.08.688-1.836 1.606-1.836.986 0 1.674.77 1.674 1.836s-.688 1.836-1.674 1.836zm8.567 1.674c1.863 0 3.05-1.566 3.05-3.5s-1.215-3.5-3.078-3.5c-.783 0-1.552.3-2.038.89v-2.89h-1.81v8.883h1.714v-.8c.5.648 1.35.945 2.16.945zm-.46-1.674c-.918 0-1.606-.756-1.606-1.836 0-1.053.675-1.836 1.606-1.836.972 0 1.674.783 1.674 1.836 0 1.066-.702 1.836-1.674 1.836zm9.974-1.256h5.116v-.877h-5.116v.877zm5.12 2.795h1.175l1.498-1.985c.203-.256.42-.688.42-.688l.432.688 1.485 1.985h1.174l-2.443-3.348 2.39-3.227h-1.16l-1.47 1.958-.392.607-.405-.607-1.47-1.958h-1.175l2.403 3.227-2.457 3.348zm7.026 0h1.81v-2.592c0-1.607.77-2.322 2.336-2.322v-1.97c-1.485 0-2.174.877-2.363 1.43v-1.296h-1.782v6.75zm10.423-2.795h5.117v-.877h-5.117v.877zm6.823 4.78c.77 0 1.7-.108 2.417-1.66l3.132-6.9h-1.053l-1.958 4.374-.3.783-.297-.742-2.066-4.415h-1.066l2.956 6.143-.148.297c-.446.945-.89 1.147-1.607 1.147v.972zm9.445 0c2.24 0 3.577-1.404 3.577-3.618v-5.116h-1.714v.918c-.365-.675-1.256-1.053-2.12-1.053-1.876 0-3.05 1.458-3.05 3.267 0 1.795 1.175 3.253 3.05 3.253 1 0 1.728-.472 2.025-1 0 .054 0 .108-.013.15-.054 1.08-.69 1.836-1.944 1.836-.635 0-1.418-.19-1.958-.608l-.675 1.134c.62.513 1.607.837 2.822.837zm.148-3.928c-.918 0-1.62-.702-1.62-1.674 0-.986.702-1.7 1.62-1.7.932 0 1.634.715 1.634 1.66 0 1.013-.69 1.715-1.634 1.715zm9.557 2.2h.958l4.172-9.612h-.972l-4.158 9.612zm5.428-.256h5.44v-.918h-4.185l.73-.797 3.388-4.1v-.77h-5.197v.918h3.915l-.69.743-3.402 4.13v.783zm7.007 1.498c1.148-1.147 2.174-2.916 2.174-5.346s-1.026-4.198-2.174-5.346l-.607.648c1.08 1.242 1.768 2.862 1.768 4.698s-.688 3.456-1.768 4.698l.607.648zm3.464.35h.73l.945-3.09H202l-.662 3.09zm6.293-1.714c2.052 0 3.483-1.863 3.483-4.51s-1.43-4.51-3.483-4.51c-2.066 0-3.497 1.863-3.497 4.51s1.43 4.51 3.497 4.51zm0-1.62c-1.067 0-1.62-1.188-1.62-2.89s.553-2.89 1.62-2.89c1.053 0 1.593 1.188 1.593 2.89s-.54 2.89-1.593 2.89zm5.193 2.983c1.148-1.147 2.174-2.916 2.174-5.346s-1.026-4.198-2.174-5.346l-.607.648c1.08 1.242 1.768 2.862 1.768 4.698s-.688 3.456-1.768 4.698l.607.648z" class="B"/><path d="M37.942 272.127h1.81v-3.497c0-.89.46-1.674 1.377-1.674.972 0 1.1745.662 1.1745 1.553v3.618h1.81v-3.564c0-.89.486-1.607 1.377-1.607.9585 0 1.1745.662 1.1745 1.553v3.618h1.81v-3.848c0-1.728-.594-3.037-2.4975-3.037-.7695 0-1.7.39-2.187 1.2-.35-.756-1.0125-1.2-2.08-1.2-.8 0-1.6065.432-1.998 1.04v-.904H37.942v6.75zm14.66.135c.783 0 1.6335-.297 2.106-.945v.8h1.7685v-6.75H54.709v.823c-.486-.648-1.323-.958-2.106-.958-1.863 0-3.05 1.566-3.05 3.5s1.188 3.5 3.05 3.5zm.46-1.674c-.972 0-1.674-.77-1.674-1.836 0-1.053.702-1.836 1.674-1.836.9315 0 1.6065.783 1.6065 1.836 0 1.08-.675 1.836-1.6065 1.836zm4.2608 1.54h1.9845l.7965-1.23.5805-1.12.6075 1.12.756 1.23h1.998l-2.24-3.443 2.24-3.307h-1.9845l-.8 1.215-.567 1.053-.5805-1.053-.7965-1.215H57.323l2.2275 3.307-2.2275 3.443zm28.4134.135c1.2555 0 2.943-.554 2.943-2.214 0-1.377-1.2555-1.877-2.403-2.147-.62-.135-1.188-.256-1.188-.634 0-.284.3915-.473.8-.473.594 0 1.215.15 1.8765.473l.6075-1.35c-.702-.405-1.404-.675-2.51-.675-1.27 0-2.62.73-2.62 2.106 0 1.296 1.0935 1.74 2.43 2.092.5805.162 1.16.257 1.16.662s-.6885.567-1.107.567c-1.0125 0-1.647-.365-2.106-.716l-.648 1.39c.378.35 1.3095.918 2.754.918zm4.0174-.135h1.81v-2.592c0-1.607.7695-2.322 2.3355-2.322v-1.97c-1.485 0-2.1735.877-2.3625 1.43v-1.296h-1.782v6.75zm9.9897 1.944h1.8086v-8.694h-1.714v.8c-.4995-.648-1.35-.945-2.16-.945-1.863 0-3.05 1.566-3.05 3.496 0 1.958 1.215 3.524 3.078 3.524.783 0 1.5525-.31 2.0385-.905v2.714zm-1.6065-3.483c-.972 0-1.674-.77-1.674-1.836s.702-1.836 1.674-1.836c.9315 0 1.6065.756 1.6065 1.836 0 1.066-.675 1.836-1.6065 1.836zm7.325 1.674c.716 0 1.3-.243 1.715-.513l-.513-1.337c-.054.04-.432.284-.864.284-.324 0-.608-.19-.608-.77v-3.09h1.863v-1.458h-1.863v-1.7l-1.81.405v1.296h-.985v1.458h.985v3.118c0 1.526.73 2.31 2.08 2.31zm25.947-4.077h4.523v-1.27h-2.336c1.175-.932 2.174-1.97 2.174-3.16s-.945-1.877-2.187-1.877c-.8 0-1.54.338-2.133.986l.688.945c.365-.405.824-.648 1.242-.648.608 0 .864.324.864.742 0 .783-.945 1.782-2.835 3.39v.89zm22.57 0h4.523v-1.27h-2.336c1.175-.932 2.174-1.97 2.174-3.16s-.945-1.877-2.187-1.877c-.8 0-1.54.338-2.133.986l.688.945c.365-.405.824-.648 1.242-.648.608 0 .864.324.864.742 0 .783-.945 1.782-2.835 3.39v.89zm26.5 0H185v-1.27h-2.336c1.175-.932 2.174-1.97 2.174-3.16s-.945-1.877-2.187-1.877c-.8 0-1.54.338-2.133.986l.688.945c.365-.405.824-.648 1.242-.648.608 0 .864.324.864.742 0 .783-.945 1.782-2.835 3.39v.89z" class="C"/></g><g opacity=".1"><path d="M7.3868 293.222c1.5855 0 2.5966-1.332 2.5966-2.987s-1.034-2.987-2.6196-2.987c-.6664 0-1.3213.264-1.735.758v-2.46H4.0893v7.56h1.459v-.69c.425.552 1.149.804 1.8383.804zm-.3906-1.424c-.7813 0-1.3672-.644-1.3672-1.563 0-.896.5745-1.562 1.3672-1.562.8272 0 1.4247.666 1.4247 1.562 0 .908-.5975 1.563-1.4247 1.563zm3.902 1.31h5.515v-1.367h-3.0332c1.3788-1.034 2.8034-2.527 2.8034-3.94 0-1.47-1.172-2.252-2.585-2.252-.563 0-1.6774.173-2.585 1.16l.7813 1.01c.609-.552 1.2064-.78 1.6775-.78.7353 0 1.0914.46 1.0914 1 0 .965-1.149 2.15-3.665 4.182v.988zm9.491-7.56c-1.7578 0-2.8263 1.184-2.8263 2.723 0 1.368 1.0685 2.482 2.5276 2.482.0575 0 .1494-.01.2183-.023l-1.2983 1.712 1.218.827 2.2634-3.044c.448-.598.7123-1.322.7123-2.034 0-1.505-1.057-2.643-2.815-2.643zm0 1.356c.7698 0 1.2064.563 1.2064 1.298 0 .7-.4595 1.253-1.2064 1.253-.7353 0-1.2178-.563-1.2178-1.253 0-.735.4595-1.298 1.2178-1.298zm6.803 6.32c1.7234 0 3.0792-1.32 3.0792-2.987s-1.3558-2.987-3.0792-2.987c-1.712 0-3.0676 1.32-3.0676 2.987s1.3557 2.987 3.0676 2.987zm0-1.424c-.8617 0-1.505-.655-1.505-1.563 0-.896.6434-1.562 1.505-1.562s1.505.666 1.505 1.562c0 .908-.6434 1.563-1.505 1.563z" class="D"/><path d="M31.517 289.557h5.1127v-.724H31.517v.724zm0 1.724h5.1127v-.724H31.517v.724zm38.8384 1.32h.7813v-2.16h2.1715v-.724h-2.1715v-2.16h-.7813v2.16h-2.16v.724h2.16v2.16zm6.846 1.23c-.9192-1.057-1.505-2.435-1.505-3.998s.586-2.94 1.505-3.998l-.517-.552c-.9766.977-1.8497 2.482-1.8497 4.55s.873 3.573 1.8497 4.55l.517-.552zm3.2468-.724h.8732v-7.445h-.7698l-2.1485 1.712.4136.632 1.6315-1.172v6.273zm2.7493-2.378h4.3544v-.747h-4.3544v.747zm8.6206 2.493c1.5855 0 2.5966-1.332 2.5966-2.987s-1.034-2.987-2.6196-2.987c-.6664 0-1.3213.264-1.735.758v-2.46h-1.5396v7.56h1.4592v-.69c.425.552 1.149.804 1.8383.804zm-.3907-1.424c-.7812 0-1.3672-.644-1.3672-1.563 0-.896.5745-1.562 1.3672-1.562.8273 0 1.4247.666 1.4247 1.562 0 .908-.5974 1.563-1.4247 1.563zm3.9824 2.964h1.5395v-2.31c.4136.505 1.0685.77 1.735.77 1.586 0 2.62-1.332 2.62-2.998 0-1.643-1.01-2.976-2.597-2.976-.6894 0-1.3672.24-1.8383.804v-.69h-1.459v7.4zm2.8953-2.964c-.7928 0-1.3673-.655-1.3673-1.563 0-.92.586-1.562 1.3673-1.562.8387 0 1.4247.654 1.4247 1.562s-.586 1.563-1.4247 1.563zm7.291 1.424c1.586 0 2.597-1.332 2.597-2.987s-1.034-2.987-2.62-2.987c-.666 0-1.32.264-1.735.758v-2.46h-1.54v7.56h1.46v-.69c.425.552 1.15.804 1.838.804zm-.39-1.424c-.78 0-1.367-.644-1.367-1.563 0-.896.575-1.562 1.367-1.562.828 0 1.425.666 1.425 1.562 0 .908-.597 1.563-1.425 1.563zm3.328 1.528h.816l3.55-8.18h-.827l-3.54 8.18zm7.067-.22h.874v-7.445h-.77l-2.15 1.712.414.632 1.63-1.172v6.273zm5.69.115c1.632 0 2.792-1.597 2.792-3.837s-1.16-3.838-2.792-3.838c-1.643 0-2.803 1.597-2.803 3.838s1.16 3.837 2.803 3.837zm0-.804c-1.137 0-1.873-1.275-1.873-3.033 0-1.77.736-3.033 1.873-3.033 1.126 0 1.85 1.264 1.85 3.033 0 1.758-.724 3.033-1.85 3.033zm6.63.804c1.632 0 2.792-1.597 2.792-3.837s-1.16-3.838-2.792-3.838c-1.643 0-2.803 1.597-2.803 3.838s1.16 3.837 2.803 3.837zm0-.804c-1.137 0-1.873-1.275-1.873-3.033 0-1.77.736-3.033 1.873-3.033 1.126 0 1.85 1.264 1.85 3.033 0 1.758-.724 3.033-1.85 3.033zm4.322 1.965c.976-.977 1.85-2.482 1.85-4.55s-.874-3.573-1.85-4.55l-.517.552c.92 1.057 1.505 2.435 1.505 3.998s-.586 2.94-1.505 3.998l.517.552zm4.66-4.78h.61l-.035-1.585 1.356.838.287-.517-1.424-.746 1.424-.77-.287-.517-1.356.838.046-1.585h-.62l.046 1.585-1.367-.838-.288.517 1.425.77-1.425.746.288.517 1.355-.827-.034 1.574zm5.755 4.228c-.92-1.057-1.505-2.435-1.505-3.998s.586-2.94 1.505-3.998l-.517-.552c-.977.977-1.85 2.482-1.85 4.55s.873 3.573 1.85 4.55l.517-.552zm34.058-3.102h4.354v-.747h-4.354v.747zm35.65 3.654c.977-.977 1.85-2.482 1.85-4.55s-.873-3.573-1.85-4.55l-.517.552c.92 1.057 1.505 2.435 1.505 3.998s-.585 2.94-1.505 3.998l.517.552z" class="B"/><path d="M38.0525 293.107h1.5396v-5.744h-1.5396v5.744zm.7583-6.445c.5055 0 .9192-.414.9192-.908 0-.505-.4137-.92-.9192-.92-.494 0-.9077.414-.9077.92 0 .494.4137.908.9077.908zm5.2544 6.56c1.5855 0 2.5966-1.332 2.5966-2.987s-1.034-2.987-2.6196-2.987c-.6663 0-1.3212.264-1.735.758v-2.46h-1.5395v7.56h1.459v-.69c.425.552 1.15.804 1.8383.804zm-.3906-1.424c-.7813 0-1.3673-.644-1.3673-1.563 0-.896.5745-1.562 1.3673-1.562.8272 0 1.4247.666 1.4247 1.562 0 .908-.5975 1.563-1.4247 1.563zm3.902 1.31h5.515v-1.367h-3.0332c1.3787-1.034 2.8034-2.527 2.8034-3.94 0-1.47-1.172-2.252-2.585-2.252-.563 0-1.6775.173-2.585 1.16l.7812 1.01c.61-.552 1.2064-.78 1.6775-.78.7353 0 1.0915.46 1.0915 1 0 .965-1.15 2.15-3.665 4.182v.988zm9.491-7.56c-1.758 0-2.8264 1.184-2.8264 2.723 0 1.368 1.0685 2.482 2.5277 2.482.0574 0 .1493-.01.2183-.023l-1.2983 1.712 1.2178.827 2.2634-3.044c.448-.598.7124-1.322.7124-2.034 0-1.505-1.057-2.643-2.815-2.643zm0 1.356c.7698 0 1.2064.563 1.2064 1.298 0 .7-.4596 1.253-1.2064 1.253-.7353 0-1.218-.563-1.218-1.253 0-.735.4596-1.298 1.218-1.298zm6.803 6.32c1.7234 0 3.079-1.32 3.079-2.987s-1.3557-2.987-3.079-2.987c-1.712 0-3.0677 1.32-3.0677 2.987s1.3557 2.987 3.0677 2.987zm0-1.424c-.8617 0-1.5052-.655-1.5052-1.563 0-.896.6435-1.562 1.5052-1.562s1.505.666 1.505 1.562c0 .908-.6434 1.563-1.505 1.563zm79.4155 1.31h1.69l.678-1.045.494-.954.517.954.644 1.045h1.7l-1.907-2.93 1.907-2.815h-1.69l-.69 1.034-.483.896-.494-.896-.678-1.034h-1.69l1.896 2.815-1.896 2.93zm9.75.115c1.585 0 2.596-1.332 2.596-2.987s-1.034-2.987-2.62-2.987c-.667 0-1.322.264-1.735.758v-2.46h-1.54v7.56h1.46v-.69c.425.552 1.15.804 1.84.804zm-.39-1.424c-.78 0-1.367-.644-1.367-1.563 0-.896.574-1.562 1.367-1.562.827 0 1.425.666 1.425 1.562 0 .908-.598 1.563-1.425 1.563zm3.902 1.31h5.515v-1.367h-3.033c1.378-1.034 2.803-2.527 2.803-3.94 0-1.47-1.172-2.252-2.585-2.252-.563 0-1.678.173-2.585 1.16l.78 1.01c.61-.552 1.206-.78 1.678-.78.735 0 1.09.46 1.09 1 0 .965-1.15 2.15-3.665 4.182v.988zm9.49-7.56c-1.758 0-2.826 1.184-2.826 2.723 0 1.368 1.068 2.482 2.527 2.482.058 0 .15-.01.22-.023l-1.3 1.712 1.218.827 2.264-3.044c.448-.598.712-1.322.712-2.034 0-1.505-1.057-2.643-2.815-2.643zm0 1.356c.77 0 1.206.563 1.206 1.298 0 .7-.46 1.253-1.206 1.253-.735 0-1.218-.563-1.218-1.253 0-.735.46-1.298 1.218-1.298zm6.803 6.32c1.723 0 3.08-1.32 3.08-2.987s-1.356-2.987-3.08-2.987c-1.712 0-3.068 1.32-3.068 2.987s1.356 2.987 3.068 2.987zm0-1.424c-.862 0-1.505-.655-1.505-1.563 0-.896.643-1.562 1.505-1.562s1.505.666 1.505 1.562c0 .908-.643 1.563-1.505 1.563zm9.2 1.31h1.54v-5.744h-1.54v5.744zm.758-6.445c.506 0 .92-.414.92-.908a.922.922 0 0 0-.919-.919c-.494 0-.908.414-.908.92 0 .494.414.908.908.908zm5.255 6.56c1.585 0 2.596-1.332 2.596-2.987s-1.034-2.987-2.62-2.987c-.667 0-1.322.264-1.735.758v-2.46h-1.54v7.56h1.46v-.69c.425.552 1.15.804 1.84.804zm-.39-1.424c-.78 0-1.367-.644-1.367-1.563 0-.896.574-1.562 1.367-1.562.827 0 1.425.666 1.425 1.562 0 .908-.598 1.563-1.425 1.563zm3.902 1.31h5.515v-1.367h-3.034c1.38-1.034 2.804-2.527 2.804-3.94 0-1.47-1.172-2.252-2.585-2.252-.563 0-1.678.173-2.585 1.16l.78 1.01c.61-.552 1.206-.78 1.677-.78.736 0 1.092.46 1.092 1 0 .965-1.15 2.15-3.665 4.182v.988zm9.49-7.56c-1.758 0-2.827 1.184-2.827 2.723 0 1.368 1.07 2.482 2.528 2.482.058 0 .15-.01.218-.023l-1.298 1.712 1.218.827 2.263-3.044c.45-.598.713-1.322.713-2.034 0-1.505-1.057-2.643-2.815-2.643zm0 1.356c.77 0 1.206.563 1.206 1.298 0 .7-.46 1.253-1.206 1.253-.735 0-1.218-.563-1.218-1.253 0-.735.46-1.298 1.218-1.298zm6.803 6.32c1.723 0 3.08-1.32 3.08-2.987s-1.356-2.987-3.08-2.987c-1.712 0-3.068 1.32-3.068 2.987s1.356 2.987 3.068 2.987zm0-1.424c-.862 0-1.505-.655-1.505-1.563 0-.896.643-1.562 1.505-1.562s1.505.666 1.505 1.562c0 .908-.644 1.563-1.505 1.563z" class="C"/></g><g opacity=".3"><path d="M6.7336 159.803c.7164 0 1.5562-.383 1.9268-.988v.865h1.5563v-6.176h-1.655v3.162c0 .84-.42 1.57-1.2845 1.57-.7658 0-1.1363-.396-1.1363-1.26v-3.47h-1.655v3.693c0 1.606.5435 2.606 2.248 2.606zm8.2825 0c1.7044 0 2.7913-1.433 2.7913-3.21s-1.1116-3.21-2.816-3.21c-.7164 0-1.4204.284-1.865.815v-2.643h-1.655v8.127H13.04v-.74c.457.592 1.235.864 1.9762.864zm-.42-1.53c-.84 0-1.4698-.692-1.4698-1.68 0-.963.6175-1.68 1.4698-1.68.8892 0 1.5315.717 1.5315 1.68 0 .976-.6423 1.68-1.5315 1.68z" class="D"/><path d="M19.1365 155.863h5.4963v-.778h-5.4963v.778zm0 1.853h5.4963v-.778h-5.4963v.778zm7.1864 1.964h.9387v-3.46c0-.877.63-1.766 1.6797-1.766 1.087 0 1.445.68 1.445 1.705v3.52h.951v-3.508c0-.902.6422-1.717 1.655-1.717 1.0992 0 1.4574.68 1.4574 1.705v3.52h.951v-3.644c0-1.655-.7658-2.495-2.211-2.495-.704 0-1.6427.395-2.075 1.272-.284-.852-.9633-1.272-1.9267-1.272-.84 0-1.5933.507-1.9268 1.16v-1.037h-.9387v6.015zm10.9988.123a.659.659 0 0 0 .6546-.654.659.659 0 0 0-.6546-.655c-.358 0-.6422.296-.6422.655s.2717.654.6422.654zm25.2083.655c-.988-1.136-1.618-2.62-1.618-4.298s.63-3.162 1.618-4.3l-.5558-.592c-1.05 1.05-1.9885 2.667-1.9885 4.89s.9386 3.84 1.9885 4.89l.5558-.593zm1.3165-.778h.9387v-3.46c0-.877.63-1.766 1.6797-1.766 1.087 0 1.445.68 1.445 1.705v3.52h.95v-3.508c0-.902.6423-1.717 1.655-1.717 1.0992 0 1.4574.68 1.4574 1.705v3.52h.95v-3.644c0-1.655-.7657-2.495-2.2108-2.495-.704 0-1.6427.395-2.075 1.272-.284-.852-.9634-1.272-1.9267-1.272-.84 0-1.5933.507-1.9268 1.16v-1.037h-.9387v6.015zm10.9988.123a.659.659 0 0 0 .6546-.654.659.659 0 0 0-.6546-.655c-.3582 0-.6422.296-.6422.655s.2717.654.6422.654zm27.1747.655c-.988-1.136-1.618-2.62-1.618-4.298s.63-3.162 1.618-4.3l-.556-.592c-1.05 1.05-1.9887 2.667-1.9887 4.89s.9387 3.84 1.9887 4.89l.556-.593zm.674-.778h1.815l.73-1.124.53-1.025.556 1.025.692 1.124h1.828l-2.05-3.15 2.05-3.026h-1.816l-.74 1.112-.52.963-.53-.963-.73-1.112h-1.815l2.038 3.026-2.038 3.15zm6.935 1.778h1.655v-2.482c.444.543 1.148.827 1.865.827 1.704 0 2.816-1.433 2.816-3.223 0-1.767-1.087-3.2-2.792-3.2-.74 0-1.47.26-1.976.864v-.74h-1.568v7.954zm3.112-3.186c-.852 0-1.47-.704-1.47-1.68 0-.988.63-1.68 1.47-1.68.902 0 1.532.704 1.532 1.68s-.63 1.68-1.532 1.68zm7.838 1.53c1.705 0 2.79-1.433 2.79-3.21s-1.11-3.21-2.816-3.21c-.716 0-1.42.284-1.865.815v-2.643h-1.655v8.127h1.57v-.74c.457.592 1.235.864 1.976.864zm-.42-1.53c-.84 0-1.47-.692-1.47-1.68 0-.963.618-1.68 1.47-1.68.89 0 1.532.717 1.532 1.68 0 .976-.643 1.68-1.532 1.68zm9.125-1.15h4.68v-.803h-4.68v.803zm4.685 2.557h1.075l1.37-1.816c.185-.235.383-.63.383-.63l.395.63 1.36 1.816h1.074l-2.235-3.063 2.186-2.952h-1.063l-1.346 1.79-.358.555-.37-.555-1.347-1.79h-1.074l2.198 2.952-2.248 3.063zm6.43 0h1.655v-2.372c0-1.47.704-2.124 2.136-2.124v-1.803c-1.358 0-1.988.802-2.16 1.31v-1.186h-1.63v6.176zm9.535-2.557h4.68v-.803h-4.68v.803zm6.243 4.372c.704 0 1.556-.1 2.21-1.52l2.865-6.31h-.963l-1.79 4-.284.717-.272-.68-1.9-4.04h-.976l2.705 5.62-.135.272c-.408.865-.816 1.05-1.47 1.05v.89zm8.64 0c2.05 0 3.273-1.284 3.273-3.3v-4.68h-1.57v.84c-.333-.618-1.15-.963-1.94-.963-1.717 0-2.79 1.334-2.79 2.99 0 1.642 1.074 2.976 2.79 2.976.914 0 1.58-.432 1.853-.914 0 .05 0 .1-.013.136-.05.988-.63 1.68-1.778 1.68-.58 0-1.297-.173-1.79-.556l-.618 1.038c.568.47 1.47.765 2.582.765zm.135-3.594c-.84 0-1.482-.642-1.482-1.53 0-.902.643-1.557 1.482-1.557.853 0 1.495.655 1.495 1.52 0 .926-.63 1.568-1.495 1.568zm8.743 2.013h.877l3.817-8.794h-.9l-3.804 8.794zm4.967-.234h4.978v-.84h-3.83l.667-.73 3.1-3.742v-.704h-4.755v.84h3.58l-.63.68-3.113 3.78v.717zm6.4 1.37c1.05-1.05 1.99-2.668 1.99-4.89s-.94-3.842-1.99-4.89l-.555.592c.988 1.137 1.618 2.62 1.618 4.3s-.63 3.162-1.618 4.298l.555.593zm3.17.32h.667l.864-2.83h-.926l-.605 2.83zm2.607-1.692h5.93v-1.47h-3.26c1.482-1.112 3.014-2.717 3.014-4.237 0-1.58-1.26-2.42-2.78-2.42-.605 0-1.804.185-2.78 1.247l.84 1.087c.654-.593 1.296-.84 1.803-.84.8 0 1.173.494 1.173 1.075 0 1.037-1.235 2.31-3.94 4.495v1.063zm9.882.123c1.964 0 3.298-1.074 3.298-2.79 0-1.668-1.37-2.532-2.964-2.532-.334 0-.655.05-.94.136v-1.47h3.446v-1.47h-5.1v4.002l.605.556c.346-.198.902-.408 1.47-.408.988 0 1.766.42 1.766 1.272 0 .667-.52 1.285-1.63 1.285-.68 0-1.458-.272-1.9-.618l-.63 1.223c.605.482 1.47.815 2.57.815zm7.165 0c1.963 0 3.297-1.074 3.297-2.79 0-1.668-1.37-2.532-2.964-2.532-.333 0-.655.05-.94.136v-1.47h3.446v-1.47h-5.1v4.002l.606.556c.345-.198.9-.408 1.47-.408.988 0 1.767.42 1.767 1.272 0 .667-.52 1.285-1.63 1.285-.68 0-1.457-.272-1.9-.618l-.63 1.223c.605.482 1.47.815 2.57.815zm5 1.248c1.05-1.05 1.99-2.668 1.99-4.89s-.94-3.842-1.99-4.89l-.555.592c.988 1.137 1.618 2.62 1.618 4.3s-.63 3.162-1.618 4.298l.555.593z" class="B"/><path d="M39.213 159.68h1.655v-3.2c0-.815.42-1.532 1.2598-1.532.8893 0 1.0746.605 1.0746 1.42v3.3h1.655v-3.26c0-.815.4447-1.47 1.2598-1.47.877 0 1.0746.605 1.0746 1.42v3.3h1.655v-3.52c0-1.58-.5434-2.78-2.285-2.78-.704 0-1.5563.358-2.001 1.1-.321-.692-.9263-1.1-1.902-1.1-.74 0-1.4697.395-1.828.95v-.828h-1.618v6.176zm10.8072 0h1.655v-6.176h-1.655v6.176zm.815-6.93c.5435 0 .988-.445.988-.976 0-.543-.4446-.988-.988-.988-.531 0-.9757.445-.9757.988 0 .53.4446.976.9757.976zm2.1038 6.93h1.655v-3.125c0-.94.5558-1.606 1.3833-1.606.84 0 1.0746.482 1.0746 1.384v3.347h1.655v-3.557c0-1.693-.568-2.742-2.1985-2.742-.7534 0-1.4574.27-1.9514.95v-.828h-1.618v6.176zm25.996.123c1.1486 0 2.6925-.506 2.6925-2.025 0-1.26-1.1486-1.717-2.1985-1.964-.568-.124-1.087-.235-1.087-.58 0-.26.3582-.432.741-.432.5434 0 1.1116.136 1.7168.432l.5558-1.235c-.6423-.37-1.2845-.617-2.2973-.617-1.16 0-2.396.667-2.396 1.926 0 1.186 1.0004 1.594 2.2232 1.915.531.148 1.0622.234 1.0622.605s-.63.52-1.0128.52c-.9264 0-1.507-.334-1.9268-.655l-.5928 1.272c.3458.32 1.198.84 2.5196.84zm3.6755-.123h1.655v-2.372c0-1.47.704-2.124 2.1368-2.124v-1.803c-1.3587 0-1.9886.802-2.1615 1.31v-1.186h-1.6303v6.176zm9.1395 1.778h1.655v-7.954h-1.5686v.74c-.457-.593-1.235-.864-1.976-.864-1.7045 0-2.7914 1.432-2.7914 3.2 0 1.8 1.1116 3.223 2.816 3.223.7163 0 1.4203-.284 1.865-.827v2.482zm-1.4698-3.186c-.8893 0-1.5315-.704-1.5315-1.68s.6422-1.68 1.5315-1.68c.8522 0 1.4698.692 1.4698 1.68 0 .976-.6176 1.68-1.4698 1.68zm6.7018 1.53c.6546 0 1.198-.222 1.5686-.47l-.4694-1.223c-.0494.037-.3952.26-.7904.26-.2964 0-.5558-.172-.5558-.704v-2.828h1.7044v-1.334H96.735v-1.556l-1.655.37v1.186h-.9016v1.334h.9016v2.853c0 1.396.667 2.112 1.902 2.112zm27.273-3.73h4.138v-1.16h-2.137c1.074-.852 1.988-1.803 1.988-2.9s-.864-1.717-2-1.717c-.74 0-1.408.31-1.95.902l.63.864c.333-.37.753-.592 1.136-.592.556 0 .79.296.79.68 0 .716-.865 1.63-2.594 3.1v.815zm20.65 0h4.138v-1.16h-2.137c1.075-.852 1.99-1.803 1.99-2.9s-.865-1.717-2-1.717c-.74 0-1.408.31-1.952.902l.63.864c.334-.37.754-.592 1.137-.592.555 0 .8.296.8.68 0 .716-.865 1.63-2.594 3.1v.815zm24.244 0h4.138v-1.16h-2.137c1.075-.852 1.99-1.803 1.99-2.9s-.865-1.717-2-1.717c-.74 0-1.408.31-1.952.902l.63.864c.334-.37.753-.592 1.136-.592.556 0 .79.296.79.68 0 .716-.865 1.63-2.594 3.1v.815z" class="C"/></g><g opacity=".1"><path d="M4.2947 139h1.655v-8.127h-1.655V139zm2.919 0h1.655v-3.137c0-.89.4817-1.593 1.3586-1.593.815 0 1.087.48 1.087 1.383V139h1.655v-3.557c0-1.73-.593-2.742-2.1985-2.742-.741 0-1.4204.26-1.902.902v-2.73h-1.655V139zm10.4802.124c1.7044 0 2.7913-1.433 2.7913-3.212s-1.1116-3.21-2.816-3.21c-.7164 0-1.4204.284-1.865.815v-2.643H14.15V139h1.5686v-.74c.457.593 1.235.865 1.9762.865zm-.42-1.532c-.8398 0-1.4697-.692-1.4697-1.68 0-.963.6175-1.68 1.4697-1.68.8893 0 1.5316.717 1.5316 1.68 0 .976-.6423 1.68-1.5316 1.68zm4.28 1.408h1.655v-2.37c0-1.47.704-2.125 2.1367-2.125V132.7c-1.3586 0-1.9885.803-2.1614 1.31v-1.186h-1.6304V139z" class="D"/><path d="M26.5062 135.184h5.4962v-.78h-5.4962v.78zm0 1.852h5.4962v-.778h-5.4962v.778zM33.6925 139h.9387v-3.458c0-.877.63-1.767 1.6798-1.767 1.087 0 1.445.68 1.445 1.705V139h.951v-3.508c0-.9.6422-1.717 1.655-1.717 1.0993 0 1.4574.68 1.4574 1.705V139h.951v-3.644c0-1.655-.7658-2.494-2.211-2.494-.704 0-1.6427.395-2.075 1.272-.284-.853-.9634-1.272-1.9268-1.272-.84 0-1.5933.506-1.9268 1.16v-1.038h-.9387V139zm10.999.124c.358 0 .6546-.297.6546-.655s-.2965-.655-.6546-.655-.6423.297-.6423.655.2717.655.6423.655zm25.2082.654c-.988-1.136-1.618-2.618-1.618-4.298s.63-3.162 1.618-4.298l-.5558-.593c-1.0498 1.05-1.9885 2.668-1.9885 4.89s.9387 3.84 1.9885 4.89l.5558-.593zM71.216 139h.9387v-3.458c0-.877.63-1.767 1.6798-1.767 1.087 0 1.445.68 1.445 1.705V139h.951v-3.508c0-.9.6422-1.717 1.655-1.717 1.0993 0 1.4574.68 1.4574 1.705V139h.951v-3.644c0-1.655-.7658-2.494-2.211-2.494-.704 0-1.6427.395-2.075 1.272-.284-.853-.9634-1.272-1.9268-1.272-.84 0-1.5933.506-1.9268 1.16v-1.038h-.9387V139zm10.999.124c.358 0 .6546-.297.6546-.655s-.2965-.655-.6546-.655-.6423.297-.6423.655.2717.655.6423.655zm29.213.654c-.988-1.136-1.618-2.618-1.618-4.298s.63-3.162 1.618-4.298l-.556-.593c-1.05 1.05-1.99 2.668-1.99 4.89s.94 3.84 1.99 4.89l.556-.593zm23.344-3.335h4.68v-.802h-4.68v.802zm23.038 4.25h.667l.865-2.828h-.927l-.605 2.828zm5.46-1.692h.94v-6.015h-.94V139zm.47-7.1c.346 0 .63-.27.63-.617s-.284-.63-.63-.63-.617.284-.617.63.272.617.617.617zm2.052 7.1h.94v-3.397c0-.95.69-1.828 1.79-1.828 1.087 0 1.52.593 1.52 1.705V139h.95v-3.644c0-1.618-.704-2.494-2.186-2.494-.9 0-1.655.42-2.075 1.148v-3.137h-.94V139zm9.87.124c1.667 0 2.84-1.384 2.84-3.125 0-1.767-1.174-3.137-2.84-3.137-.95 0-1.816.395-2.26 1.173v-3.162h-.94V139h.902v-1.05c.444.79 1.32 1.174 2.297 1.174zm-.2-.914c-1.15 0-2.05-.952-2.05-2.21s.9-2.224 2.05-2.224c1.198 0 2.087.94 2.087 2.224 0 1.272-.89 2.21-2.087 2.21zm4.38.8h.938v-2.853c0-1.47.914-2.26 2.322-2.26v-1.025c-1.198 0-1.976.605-2.322 1.395v-1.272h-.938V139zm4.638 1.37c1.05-1.05 1.99-2.668 1.99-4.89s-.94-3.84-1.99-4.89l-.555.593c.988 1.136 1.618 2.618 1.618 4.298s-.63 3.162-1.618 4.298l.555.593zm3.17.32h.666l.865-2.828h-.926l-.605 2.828zm7.633-1.692h.94v-8.003h-.828l-2.31 1.84.444.68 1.754-1.26V139zm6.118.124c1.753 0 3-1.717 3-4.126s-1.248-4.125-3-4.125c-1.767 0-3.014 1.717-3.014 4.125s1.247 4.126 3.014 4.126zm0-.865c-1.223 0-2.014-1.37-2.014-3.26 0-1.902.79-3.26 2.014-3.26 1.2 0 1.988 1.358 1.988 3.26 0 1.9-.778 3.26-1.988 3.26zm7.128.865c1.754 0 3-1.717 3-4.126s-1.247-4.125-3-4.125c-1.766 0-3.014 1.717-3.014 4.125s1.248 4.126 3.014 4.126zm0-.865c-1.223 0-2.013-1.37-2.013-3.26 0-1.902.8-3.26 2.013-3.26 1.2 0 1.99 1.358 1.99 3.26 0 1.9-.78 3.26-1.99 3.26zm4.646 2.112c1.05-1.05 1.988-2.668 1.988-4.89s-.938-3.84-1.988-4.89l-.556.593c.988 1.136 1.618 2.618 1.618 4.298s-.63 3.162-1.618 4.298l.556.593z" class="B"/><path d="M46.5826 139h1.655v-3.2c0-.815.42-1.53 1.2598-1.53.8892 0 1.0745.605 1.0745 1.42v3.3h1.655v-3.26c0-.815.4446-1.47 1.2598-1.47.877 0 1.0745.605 1.0745 1.42v3.3h1.655v-3.52c0-1.58-.5435-2.78-2.285-2.78-.704 0-1.5562.358-2.001 1.1-.321-.69-.9263-1.1-1.902-1.1-.741 0-1.4698.395-1.828.95v-.828h-1.618V139zm10.8072 0h1.655v-6.176h-1.655V139zm.8152-6.93c.5434 0 .988-.445.988-.976 0-.543-.4447-.988-.988-.988-.531 0-.9758.445-.9758.988 0 .53.4447.976.9758.976zm2.1037 6.93h1.655v-3.125c0-.94.5558-1.605 1.3834-1.605.8398 0 1.0745.48 1.0745 1.383V139h1.655v-3.557c0-1.692-.568-2.742-2.1984-2.742-.7535 0-1.4575.272-1.9515.95v-.828h-1.618V139zm23.7975 0h1.655v-3.2c0-.815.42-1.53 1.2598-1.53.8892 0 1.0745.605 1.0745 1.42v3.3h1.655v-3.26c0-.815.4446-1.47 1.2598-1.47.877 0 1.0745.605 1.0745 1.42v3.3h1.655v-3.52c0-1.58-.5434-2.78-2.285-2.78-.704 0-1.5562.358-2.001 1.1-.321-.69-.9263-1.1-1.902-1.1-.741 0-1.4698.395-1.828.95v-.828h-1.618V139zm13.4133.124c.7163 0 1.4944-.272 1.9267-.865v.74h1.6178v-6.176h-1.6178v.754c-.4446-.593-1.2104-.877-1.9267-.877-1.7045 0-2.7914 1.433-2.7914 3.21s1.087 3.212 2.7914 3.212zm.42-1.532c-.8893 0-1.5315-.704-1.5315-1.68 0-.963.6422-1.68 1.5315-1.68.8522 0 1.4698.717 1.4698 1.68 0 .988-.6176 1.68-1.4698 1.68zM101.838 139h1.815l.73-1.124.53-1.025.556 1.025.69 1.124h1.828l-2.05-3.15 2.05-3.026h-1.815l-.74 1.112-.52.963-.53-.963-.73-1.112h-1.815l2.037 3.026-2.037 3.15zm10.746 0h1.655v-6.176h-1.655V139zm.815-6.93c.543 0 .988-.445.988-.976 0-.543-.445-.988-.988-.988-.53 0-.976.445-.976.988 0 .53.445.976.976.976zm4.426 7.053c.654 0 1.198-.223 1.568-.47l-.47-1.223c-.05.037-.395.26-.79.26-.296 0-.555-.173-.555-.704v-2.83h1.704v-1.334h-1.704v-1.556l-1.656.37v1.185h-.9v1.334h.9v2.853c0 1.396.667 2.113 1.903 2.113zm5.926 0c1.705 0 2.792-1.433 2.792-3.212s-1.112-3.21-2.816-3.21c-.717 0-1.42.284-1.865.815v-2.643h-1.655V139h1.568v-.74c.457.593 1.235.865 1.976.865zm-.42-1.532c-.84 0-1.47-.692-1.47-1.68 0-.963.617-1.68 1.47-1.68.9 0 1.532.717 1.532 1.68 0 .976-.642 1.68-1.532 1.68zm4.28 1.408h1.655v-2.37c0-1.47.704-2.125 2.137-2.125V132.7c-1.358 0-1.988.803-2.16 1.31v-1.186h-1.63V139zm19.117.124c1.704 0 2.79-1.433 2.79-3.212s-1.112-3.21-2.816-3.21c-.716 0-1.42.284-1.865.815v-2.643h-1.655V139h1.568v-.74c.457.593 1.236.865 1.977.865zm-.42-1.532c-.84 0-1.47-.692-1.47-1.68 0-.963.617-1.68 1.47-1.68.89 0 1.53.717 1.53 1.68 0 .976-.642 1.68-1.53 1.68zm7.825 1.532c1.705 0 2.792-1.433 2.792-3.212s-1.112-3.21-2.816-3.21c-.717 0-1.42.284-1.865.815v-2.643H150.6V139h1.568v-.74c.457.593 1.235.865 1.976.865zm-.42-1.532c-.84 0-1.47-.692-1.47-1.68 0-.963.617-1.68 1.47-1.68.9 0 1.532.717 1.532 1.68 0 .976-.642 1.68-1.532 1.68z" class="C"/></g><path d="M101 317.36h18.72V313H101v4.36zm0 7.88h18.72v-4.32H101v4.32z" class="B"/></svg>