<svg xmlns="http://www.w3.org/2000/svg" width="335" height="332" fill="none" xmlns:v="https://vecta.io/nano"><g clip-path="url(#A)" fill-rule="evenodd"><path d="M284.386 114.48c-.822-25.4384-15.843-50.7083-49.65-65.4194-28.477-12.392-65.082-9.937-103.95 3.5722C92.118 66.0716 52.574 90.0094 19.3175 118.428c-33.3385 28.5-59.6337 60.86-72.576 90.71-11.3334 26.14-11.8547 48.543-.4622 65.57l1.3993-2.686.5906-1.137c1.8542-3.566 4.062-7.763 6.6927-12.23 10.5557-17.93 28.314-40.894 61.356-51.054 36.308-11.165 76.3628-8.437 112.8742-5.95l12.98.86c41.214 2.578 76.01 2.525 101.753-15.323 27.523-19.082 41.296-46.865 40.46-72.71zm19.99-.645c1.082 33.485-16.7 67.358-49.054 89.8-32.27 22.374-74.174 21.364-114.398 18.848l-12.962-.85c-37.098-2.485-73.2415-4.905-105.765 5.095-26.236 8.068-40.6373 26.184-49.9995 42.085-2.3488 3.99-4.3553 7.796-6.1827 11.31l-.6086 1.172c-1.5515 3-3.09 5.953-4.5213 8.348-1.35 2.257-3.7205 6.043-7.3353 8.235-2.2287 1.352-5.347 2.36-8.9327 1.668-3.353-.648-5.7266-2.525-7.215-4.08-24.7788-25.905-23.5636-60.7-9.009-94.272s43.1937-68.274 77.9327-97.96c34.82-29.7562 76.497-55.0948 117.8955-69.4836 41.2-14.3194 83.51-18.2448 118.497-3.0198 40.197 17.492 60.563 49.223 61.658 83.1134z" fill="#0b20a0"/><path d="M45.1716 89.79C136.5 89.791 155.877 198.32 228.626 234.8c56.03 28.1 104.38-15.07 104.38 0 0 121.836-347.0007 85.5-388.5218-23.842C-85.955 130.79-25.4956 89.79 45.1716 89.79z" fill="#fe59af"/></g><defs><clipPath id="A"><path fill="#fff" d="M0 0h335v332H0z"/></clipPath></defs></svg>