<svg xmlns="http://www.w3.org/2000/svg" width="500" height="600" fill="none" xmlns:v="https://vecta.io/nano"><path d="M150 227.5c0-20.71 16.79-37.5 37.5-37.5h125c20.71 0 37.5 16.79 37.5 37.5v106.25c0 31.066-25.184 56.25-56.25 56.25h-87.5c-31.066 0-56.25-25.184-56.25-56.25V227.5z" fill="#43ffd0"/><path fill-rule="evenodd" d="M163.613 370.437C173.93 382.415 189.205 390 206.253 390h87.5c31.066 0 56.25-25.184 56.25-56.25V227.5c0-13.355-6.982-25.08-17.495-31.724 3.66 5.8 5.776 12.65 5.776 20.006v109.375c0 29.34-23.784 53.125-53.125 53.125h-93.75c-10.2 0-19.7-2.87-27.796-7.844z" fill="#000" fill-opacity=".1"/><path d="M332.812 222.812c11.718 5.47 14.062 40.625 17.187 40.625s12.5-43.75 10.156-54.688-11.718-12.11-19.92-20.312-5.078-15.625-14.063-20.703-22.265-.39-31.64-3.516-7.422-12.11-19.532-13.28-21.093 1.953-31.25 3.515-22.265-5.86-31.64-2.734-9.375 11.72-16.797 15.234-16.406 1.563-25 6.25-5.86 12.89-11.72 19.922S143.5 204.062 139.844 215s7.03 48.438 10.155 48.438 9.766-38.28 17.188-40.625 15.625 9.375 23.828 7.03 7.813-12.5 16.797-13.672 19.532 16.016 29.297 13.672 23.047-14.453 31.64-14.453 19.532 14.453 29.297 15.234c11.512.92 23.048-13.28 34.766-7.812z" fill="#4d74ff"/><g fill-rule="evenodd"><g fill="#000"><path d="M350.617 238.45c-1.302-6.76-4.32-22.445-20.15-25.794-12.086-2.556-19.13 1.022-25.276 4.145-4.184 2.126-7.953 4.04-12.615 3.668-4.898-.392-10.092-4.224-15.137-7.947-5.01-3.698-9.876-7.287-14.16-7.287-4.713 0-10.836 3.642-17.016 7.318-5.09 3.027-10.215 6.076-14.625 7.135-5.123 1.23-10.462-2.917-15.677-6.968-4.725-3.67-9.35-7.26-13.62-6.704-4.734.617-6.865 3.73-9.022 6.877-1.937 2.828-3.894 5.686-7.775 6.795-4.17 1.19-8.34-1.25-12.406-3.632-3.934-2.304-7.773-4.552-11.422-3.4-4.415 1.394-8.552 15.502-11.84 26.706-1.944 6.63-3.6 12.242-4.82 13.604 1.947 6.144 3.88 10.472 4.942 10.472 1.266 0 3.1-6.286 5.35-13.92 3.286-11.204 7.424-25.31 11.838-26.705 3.65-1.153 7.488 1.095 11.423 3.4 4.067 2.382 8.236 4.823 12.406 3.632 3.88-1.11 5.838-3.967 7.775-6.794 2.157-3.15 4.288-6.26 9.02-6.878 4.27-.557 8.895 3.034 13.62 6.704 5.215 4.05 10.554 8.198 15.677 6.968 4.4-1.058 9.536-4.108 14.624-7.135 6.18-3.676 12.304-7.318 17.017-7.318 4.282 0 9.147 3.59 14.16 7.288 5.045 3.722 10.24 7.554 15.137 7.946 4.99.4 9.982-2.042 14.993-4.49 6.552-3.203 13.133-6.42 19.773-3.32 7.577 3.536 11.235 19.485 13.72 30.315 1.357 5.92 2.364 10.3 3.47 10.3 3.125 0 12.5-43.75 10.156-54.688-.665-3.104-1.897-5.42-3.507-7.336 1.137 12.78-3.646 40.15-5.1 40.15-.344 0-.575-1.2-.943-3.113z" fill-opacity=".15"/><path d="M201.562 290c0-8.198 6.646-14.844 14.844-14.844h14.063c7.076 0 12.996 4.952 14.483 11.58 1.226-.532 2.94-1.033 5.048-1.033s3.822.5 5.048 1.033c1.487-6.628 7.407-11.58 14.483-11.58h14.063c8.198 0 14.844 6.646 14.844 14.844s-6.646 14.844-14.844 14.844H269.53c-8.18 0-14.817-6.62-14.843-14.795-.815-.476-2.453-1.22-4.688-1.22s-3.873.745-4.688 1.22c-.026 8.175-6.662 14.795-14.843 14.795h-14.063c-8.198 0-14.844-6.646-14.844-14.844z"/></g><path d="M292.8 282.737a11.821 11.821 0 0 0-2.22-2.153l-29.798 17.203c.7.787 1.505 1.48 2.393 2.054l29.625-17.104zm1.65 2.824c.56 1.37.87 2.868.87 4.44 0 6.472-5.246 11.72-11.72 11.72h-14.06a11.81 11.81 0 0 1-2.582-.285l27.493-15.873zm-54.774-2.824a11.821 11.821 0 0 0-2.22-2.153l-29.798 17.203c.7.787 1.505 1.48 2.393 2.054l29.625-17.104zm1.65 2.824c.56 1.37.87 2.868.87 4.44 0 6.472-5.246 11.72-11.72 11.72h-14.062a11.81 11.81 0 0 1-2.582-.285l27.493-15.873z" fill="#fff"/><path d="M250 348.593c16.406 0 25.78-11.718 25.78-21.093s-11.938-3.907-25.78-3.907-25.78-5.468-25.78 3.907 9.375 21.093 25.78 21.093z" fill="#000" fill-opacity=".3"/><path d="M271.437 324.94l-.192 2.308c-.096 1.148-.712 2.185-1.75 2.686-2.804 1.355-9.303 3.818-19.496 3.818-10.122 0-16.6-2.428-19.437-3.79-1.074-.516-1.714-1.6-1.813-2.778l-.188-2.245c1.526-.834 4.42-.325 8.307.36 3.616.635 8.092 1.423 13.13 1.423s9.515-.788 13.13-1.423c3.89-.684 6.782-1.193 8.307-.36z" fill="#fff"/><path d="M268.903 337.94c-3.837 4.6-10.426 7.528-18.9 7.528-1.617 0-3.166-.106-4.64-.31.638-4.634 7.543-8.283 15.968-8.283 2.74 0 5.317.386 7.572 1.066z" fill="#ff5858"/></g><path d="M322.325 344.695c7.302-7.302 19.142-7.302 26.444 0l17.63 17.63c7.303 7.302 7.303 19.142 0 26.444l-17.63 17.63c-7.302 7.303-19.142 7.303-26.444 0l-17.63-17.63c-7.302-7.302-7.302-19.142 0-26.444l17.63-17.63z" fill="#fff"/><path d="M326.508 348.43c4.992-4.99 13.086-4.99 18.077 0l18.077 18.077c4.992 4.992 4.992 13.086 0 18.077l-18.077 18.077c-4.99 4.992-13.085 4.992-18.077 0l-18.077-18.077c-4.99-4.99-4.99-13.085 0-18.077l18.077-18.077z" fill="#96f"/><path d="M348.807 370.31c1.22-1.22 1.22-3.2 0-4.42s-3.2-1.22-4.42 0l-13.26 13.258-4.42-4.42c-1.22-1.22-3.2-1.22-4.42 0s-1.22 3.2 0 4.42l8.84 8.84 17.678-17.678z" fill="#fefefe"/><g fill-rule="evenodd"><path d="M411.524 475.75c2.227 3.155 4.174 6.452 5.967 9.622 1.794-3.17 3.74-6.467 5.968-9.622 6.396-9.06 15.104-16.942 29.14-17.23 13.154-.387 26.115 4.352 36.077 16.83 11.026 13.928 9.285 37.14-3.095 60.45-12.574 23.406-35.883 46.522-68.09 60.062-32.207-13.54-55.517-36.656-67.897-60.062-12.573-23.3-14.314-46.522-3.288-60.45 9.962-12.477 22.922-17.216 36.076-16.83 14.037.287 22.746 8.17 29.142 17.23zm-57.4 5.822c7.82-9.784 17.654-13.358 27.954-13.056l.045.002h.045c12.803.26 19.55 9.306 26.6 21.778l8.703 15.377 8.703-15.377c7.06-12.472 13.808-21.517 26.61-21.778h.045l.044-.002c10.3-.302 20.134 3.272 27.955 13.056 7.25 9.18 7.642 27.418-4.088 49.516-10.996 20.46-31.206 41.037-59.27 53.857-28.078-12.826-48.26-33.406-59.057-53.82l-.02-.036-.02-.036c-11.91-22.078-11.503-40.312-4.26-49.48z" fill="#000"/><path d="M90.1222 483.544c1.232 1.745 2.31 3.57 3.3013 5.323l3.3013-5.323c3.5382-5.012 8.3562-9.373 16.1222-9.532 7.277-.214 14.447 2.408 19.958 9.3 6.1 7.706 5.137 20.547-1.712 33.443-6.956 12.95-19.85 25.737-37.6695 33.228-17.818-7.49-30.7135-20.28-37.5625-33.228-6.956-12.896-7.919-25.737-1.8192-33.443 5.5113-6.902 12.6813-9.524 19.9584-9.3 7.766.16 12.5837 4.52 16.122 9.532zm-31.75 3.22c4.3268-5.414 9.767-7.39 15.4654-7.223h.0247l.0248.001c7.083.145 10.817 5.148 14.722 12.048l4.8143 8.507 4.8143-8.507c3.9052-6.9 7.6392-11.903 14.7222-12.048l.025-.001h.024c5.7-.168 11.14 1.81 15.465 7.222 4.012 5.078 4.23 15.17-2.26 27.394-6.084 11.32-17.265 22.704-32.7905 29.796-15.5336-7.096-26.6988-18.482-32.6725-29.776l-.0105-.02-.0108-.02c-6.5886-12.215-6.364-22.302-2.3575-27.374z" fill="#80ffff"/></g><path d="M414.467 449.514c6.523-6.523 6.523-17.1 0-23.622s-17.1-6.523-23.622 0l-70.865 70.866-23.622-23.623c-6.523-6.523-17.1-6.523-23.622 0s-6.523 17.1 0 23.622L319.98 544l94.488-94.486z" fill="#f199ff"/><g fill-rule="evenodd"><path d="M399.766 60.1727c1.313 1.8602 2.46 3.8046 3.52 5.6734l3.518-5.6734c3.772-5.3425 8.907-9.9907 17.185-10.16v.0005-.0005c7.756-.228 15.4 2.5665 21.273 9.9238 6.502 8.2128 5.475 21.9008-1.825 35.6458-7.414 13.8016-21.16 27.4326-40.15 35.4176-18.993-7.985-32.738-21.616-40.038-35.4176-7.414-13.745-8.44-27.433-1.94-35.6458 5.874-7.3573 13.517-10.152 21.273-9.9238 8.278.1692 13.413 4.8174 17.185 10.16zm-33.842 3.433c4.612-5.77 10.4-7.8776 16.484-7.7l.027.0008.026.0005c7.55.1544 11.53 5.4877 15.692 12.8425l5.132 9.0667 5.13-9.0667c4.163-7.3548 8.142-12.688 15.692-12.8425l.026-.0005.027-.0008c6.074-.1786 11.873 1.9292 16.485 7.6997 4.275 5.4132 4.506 16.1677-2.41 29.1975-6.484 12.0642-18.402 24.1992-34.95 31.7592-16.558-7.564-28.458-19.7-34.826-31.7375l-.022-.0424c-7.023-13.02-6.784-23.7713-2.513-29.1775z" fill="#000"/><path d="M76.5293 21.2526c2.2272 3.155 4.174 6.4525 5.9677 9.622 1.7938-3.1694 3.7406-6.467 5.9678-9.622C94.8612 12.192 103.57 4.3087 117.61 4.0218c13.155-.387 26.116 4.3527 36.08 16.8304 11.027 13.9286 9.286 37.143-3.095 60.454-12.575 23.4077-35.886 46.5257-68.096 60.0667-32.21-13.54-55.52-36.66-67.902-60.0667C2.0206 57.9952.2795 34.7808 11.3063 20.8522c9.963-12.4777 22.9242-17.2173 36.08-16.8304 14.0387.287 22.7476 8.17 29.144 17.2308zm-57.3945 5.8218c7.8214-9.7855 17.656-13.36 27.9565-13.057l.0448.0014.0448.001c12.8042.2617 19.5538 9.307 26.6133 21.7803l8.7028 15.377L91.2 35.8c7.0595-12.4734 13.809-21.5186 26.613-21.7803l.045-.001.045-.0014c10.3-.303 20.135 3.2715 27.956 13.057 7.252 9.1802 7.644 27.4204-4.087 49.5197-10.997 20.4607-31.21 41.0408-59.275 53.8618-28.0803-12.827-48.2635-33.4088-59.0623-53.8253l-.019-.036-.0194-.036c-11.9104-22.08-11.5044-40.3157-4.2614-49.4843z" fill="#f199ff"/></g><path d="M246.623 50.514c6.523-6.523 6.523-17.0988 0-23.6217s-17.098-6.523-23.62 0l-70.866 70.8653-23.622-23.6225c-6.523-6.523-17.1-6.523-23.622 0s-6.5227 17.0987 0 23.6217L152.136 145l94.487-94.486z" fill="#80ffff"/><path d="M311.222 401.808H298.08c-.89 0-1.337 1.077-.707 1.707l12.142 12.142c.63.63 1.707.184 1.707-.707v-13.142z" fill="#000"/><path d="M212 429c32.5-35.5 61 8 93-21.473" stroke="#000" stroke-width="3" stroke-linecap="round" stroke-linejoin="round"/><path d="M76.911 439.268c0 .096.036.324.108.684l.324 1.152.396 1.188.288.792a3.491 3.491 0 0 1 .324.828c.072.288.168.576.288.864 0 .48-.12.816-.36 1.008s-.48.288-.72.288h-.468c-.24 0-.384-.012-.432-.036a5.979 5.979 0 0 1-.684-.324c-.216-.12-.444-.456-.684-1.008-.12-.168-.24-.468-.36-.9l-.36-1.44-.324-1.404c-.096-.456-.192-.78-.288-.972-.192.984-.48 1.872-.864 2.664-.384.768-.828 1.428-1.332 1.98s-1.032.972-1.584 1.26-1.092.432-1.62.432c-1.2 0-2.076-.396-2.628-1.188-.552-.816-.828-1.824-.828-3.024 0-.696.096-1.464.288-2.304.216-.84.504-1.668.864-2.484.384-.816.84-1.584 1.368-2.304s1.104-1.296 1.728-1.728c.096-.048.264-.168.504-.36s.6-.288 1.08-.288c.336 0 .66.048.972.144l.972.288-.108-2.484-.108-2.376-.036-.9v-2.628l-.036-.792c.048-.192.06-.396.036-.612-.024-.24.048-.444.216-.612.192-.24.432-.408.72-.504.312-.12.612-.18.9-.18.432 0 .768.168 1.008.504.24.312.36.66.36 1.044l-.108 2.34-.072 2.412c0 .552.036 1.212.108 1.98l.216 2.052.144 1.656.18 1.836.252 1.764c.096.576.216 1.092.36 1.548v.144zm-8.568 4.32c.504 0 .936-.18 1.296-.54s.672-.792.936-1.296.492-1.032.684-1.584l.576-1.44.324-1.08c.12-.36.18-.744.18-1.152 0-.072-.048-.108-.144-.108-.072-.024-.168-.036-.288-.036l-.36-.072c-.12-.024-.204-.096-.252-.216v-.36c.024-.12.036-.24.036-.36h-.216c-.048-.024-.12-.036-.216-.036-.336.504-.72.996-1.152 1.476-.408.456-.72 1.008-.936 1.656l-.396 1.152-.252.9-.144.9-.036.972c0 .192.048.396.144.612s.168.42.216.612zm15.9654 2.628c-.408 0-.78-.108-1.116-.324-.312-.24-.648-.468-1.008-.684-.792-.456-1.404-1.056-1.836-1.8s-.648-1.656-.648-2.736c0-.528.084-1.152.252-1.872l.504-2.052c.072-.264.24-.624.504-1.08.264-.48.588-.936.972-1.368a7.155 7.155 0 0 1 1.368-1.188c.504-.336 1.02-.504 1.548-.504.216 0 .432.072.648.216.336.216.684.396 1.044.54l1.08.432 1.116.468c.36.168.696.384 1.008.648a2.202 2.202 0 0 1 .612.792l.432.9a2.102 2.102 0 0 1 .216.756c.024.24.036.492.036.756v.684c-.024.744-.18 1.44-.468 2.088-.264.624-.588 1.236-.972 1.836-.192.312-.444.672-.756 1.08s-.66.792-1.044 1.152-.792.672-1.224.936c-.408.24-.828.36-1.26.36-.12 0-.252-.012-.396-.036h-.612zm3.528-8.604c0-.696-.252-1.2-.756-1.512s-1.056-.468-1.656-.468c-.48 0-.888.192-1.224.576-.336.36-.624.816-.864 1.368-.24.528-.42 1.104-.54 1.728-.096.6-.144 1.128-.144 1.584 0 .096.012.288.036.576.048.288.12.588.216.9s.228.588.396.828c.192.24.432.36.72.36.264 0 .504-.036.72-.108l.72-.324c.384-.24.72-.564 1.008-.972s.516-.852.684-1.332c.192-.48.336-.984.432-1.512.12-.528.204-1.032.252-1.512v-.18zm8.7238 3.276c.336-.336.6-.768.792-1.296l.612-1.512.072-.216c.144-.384.36-.852.648-1.404a10.173 10.173 0 0 1 1.008-1.62c.3837-.528.8037-.972 1.2597-1.332s.924-.54 1.404-.54c.408.12.708.312.9.576.216.264.372.564.468.9.12.312.216.648.288 1.008a6.723 6.723 0 0 0 .36.972c.312.696.54 1.44.684 2.232l.792 4.824c.144.792.36 1.524.648 2.196-.048.384-.264.66-.648.828-.36.192-.684.288-.972.288-.432 0-.768-.168-1.008-.504-.24-.312-.432-.696-.576-1.152-.12-.48-.216-.972-.288-1.476-.048-.504-.12-.924-.216-1.26-.12-.408-.216-.864-.288-1.368l-.252-1.584c-.096-.528-.216-1.02-.36-1.476-.12-.456-.3-.828-.54-1.116-.408.648-.744 1.26-1.008 1.836l-.6837 1.62-.576 1.512c-.192.48-.432.972-.72 1.476-.384.696-.732 1.236-1.044 1.62s-.6.672-.864.864c-.264.168-.516.264-.756.288-.24.048-.468.072-.684.072-.24 0-.54-.12-.9-.36-.336-.24-.504-.528-.504-.864v-4.212l.036-4.104-.036-1.224-.036-1.26a2.404 2.404 0 0 1 .144-.828c.12-.288.312-.492.576-.612h.432c.144-.024.276-.036.396-.036.312 0 .552.096.72.288.192.168.324.384.396.648.096.264.156.54.18.828l.036.72c0 .264.024.516.072.756.072.24.108.492.108.756l-.036 2.268-.036 1.8v.18zm16.0837 5.328c-.408 0-.78-.108-1.116-.324-.312-.24-.648-.468-1.008-.684-.792-.456-1.404-1.056-1.836-1.8s-.648-1.656-.648-2.736c0-.528.084-1.152.252-1.872l.504-2.052c.072-.264.24-.624.504-1.08.264-.48.588-.936.972-1.368a7.155 7.155 0 0 1 1.368-1.188c.504-.336 1.02-.504 1.548-.504.216 0 .432.072.648.216.336.216.684.396 1.044.54l1.08.432 1.116.468c.36.168.696.384 1.008.648a2.202 2.202 0 0 1 .612.792l.432.9a2.102 2.102 0 0 1 .216.756c.024.24.036.492.036.756v.684c-.024.744-.18 1.44-.468 2.088-.264.624-.588 1.236-.972 1.836-.192.312-.444.672-.756 1.08s-.66.792-1.044 1.152-.792.672-1.224.936c-.408.24-.828.36-1.26.36-.12 0-.252-.012-.396-.036h-.612zm3.528-8.604c0-.696-.252-1.2-.756-1.512s-1.056-.468-1.656-.468c-.48 0-.888.192-1.224.576-.336.36-.624.816-.864 1.368-.24.528-.42 1.104-.54 1.728-.096.6-.144 1.128-.144 1.584 0 .096.012.288.036.576.048.288.12.588.216.9s.228.588.396.828c.192.24.432.36.72.36.264 0 .504-.036.72-.108l.72-.324c.384-.24.72-.564 1.008-.972s.516-.852.684-1.332c.192-.48.336-.984.432-1.512.12-.528.204-1.032.252-1.512v-.18zm5.7 7.884c.048-.12.072-.336.072-.648l.036-1.224-.036-1.476-.036-1.44-.036-1.152v-1.764l-.144-3.168v-.144a1.35 1.35 0 0 0-.144-.612c-.096-.216-.144-.444-.144-.684.096-.312.228-.552.396-.72s.468-.252.9-.252c.408 0 .732.084.972.252.24.144.42.336.54.576.12.216.192.468.216.756l.108.828.108 1.908c.24-.192.492-.468.756-.828l.828-1.224.9-1.26c.312-.408.636-.744.972-1.008.192-.096.432-.144.72-.144.576 0 1.032.108 1.368.324.36.216.636.564.828 1.044-.048.216-.18.468-.396.756l-.756.864-.864.936c-.288.312-.54.624-.756.936-.36.384-.72.852-1.08 1.404s-.684 1.116-.972 1.692-.528 1.128-.72 1.656c-.192.504-.288.912-.288 1.224v.828l.036.792c0 .288-.024.588-.072.9-.048.288-.144.552-.288.792-.144.264-.336.468-.576.612-.24.168-.552.252-.936.252-.456 0-.828-.144-1.116-.432-.264-.264-.396-.6-.396-1.008v-.144zm22.738-10.548v1.908l.036.468.72-1.296c.288-.432.744-1.044 1.368-1.836.048-.048.156-.144.324-.288s.384-.3.648-.468c.288-.168.6-.312.936-.432a3.506 3.506 0 0 1 1.116-.18c.72 0 1.296.204 1.728.612.456.384.804.864 1.044 1.44.264.576.444 1.2.54 1.872s.144 1.272.144 1.8c0 .288-.024.696-.072 1.224s-.144 1.092-.288 1.692-.348 1.2-.612 1.8c-.24.576-.564 1.056-.972 1.44-.552.504-1.2.888-1.944 1.152s-1.416.396-2.016.396a11.376 11.376 0 0 1-1.8-.144c-.576-.096-1.14-.228-1.692-.396-.144-.072-.288-.204-.432-.396l-.396-.72c-.12-.264-.228-.54-.324-.828l-.252-.828c-.072-.072-.144-.3-.216-.684l-.216-1.404-.144-1.692-.036-1.584.108-6.012.54-6.552c0-.456.024-.9.072-1.332s.144-.888.288-1.368c.12-.36.384-.576.792-.648.432-.096.792-.144 1.08-.144a1.35 1.35 0 0 1 .612.144c.192.096.312.264.36.504l-.504 4.356c-.216 1.368-.348 2.82-.396 4.356l-.144 4.068zm1.836 4.32l-.36 1.008-.288.9-.216 1.008-.108 1.152c.264.288.516.456.756.504s.552.072.936.072c.6-.072 1.08-.3 1.44-.684.384-.384.684-.852.9-1.404s.36-1.14.432-1.764c.072-.648.108-1.248.108-1.8l-.036-.756c0-.288-.036-.564-.108-.828-.048-.264-.12-.492-.216-.684s-.216-.288-.36-.288-.36.12-.648.36c-.264.24-.54.54-.828.9a12.801 12.801 0 0 0-.828 1.08c-.24.384-.408.72-.504 1.008l-.072.216zm21.797 6.084l.216.612c.072.192.108.384.108.576s-.06.348-.18.468c-.096.12-.228.216-.396.288-.144.072-.3.12-.468.144-.168.048-.324.072-.468.072-.48 0-.876-.276-1.188-.828-.312-.528-.564-1.188-.756-1.98l-.504-2.556-.36-2.448c-.072.504-.312 1.14-.72 1.908-.384.768-.876 1.512-1.476 2.232-.6.696-1.26 1.296-1.98 1.8s-1.44.756-2.16.756c-.576 0-1.056-.12-1.44-.36-.36-.216-.636-.492-.828-.828s-.324-.708-.396-1.116c-.072-.432-.108-.828-.108-1.188 0-.792.192-1.764.576-2.916.408-1.176.948-2.316 1.62-3.42.696-1.104 1.488-2.04 2.376-2.808.912-.792 1.872-1.188 2.88-1.188.216 0 .456.036.72.108.288.072.576.168.864.288.288.096.564.228.828.396.264.144.492.288.684.432.408.336.684.792.828 1.368s.252 1.176.324 1.8l.396 3.276c.096.96.276 1.98.54 3.06l.216 1.332.252.72zm-10.152-1.872v.072c.024 0 .036.012.036.036.312-.024.672-.228 1.08-.612.408-.408.816-.888 1.224-1.44a16.318 16.318 0 0 0 1.116-1.728c.36-.624.624-1.176.792-1.656l.324-.72.396-.792c.144-.288.252-.552.324-.792.096-.24.144-.444.144-.612l-.324-.144c-.096-.048-.204-.072-.324-.072-.528 0-.996.204-1.404.612s-.768.864-1.08 1.368c-.288.504-.528.996-.72 1.476l-.396.864c-.336.6-.624 1.248-.864 1.944-.216.696-.324 1.368-.324 2.016v.18zm23.69-4.212c0 .096.036.324.108.684l.324 1.152.396 1.188.288.792a3.491 3.491 0 0 1 .324.828c.072.288.168.576.288.864 0 .48-.12.816-.36 1.008s-.48.288-.72.288h-.468c-.24 0-.384-.012-.432-.036a5.979 5.979 0 0 1-.684-.324c-.216-.12-.444-.456-.684-1.008-.12-.168-.24-.468-.36-.9l-.36-1.44-.324-1.404c-.096-.456-.192-.78-.288-.972-.192.984-.48 1.872-.864 2.664-.384.768-.828 1.428-1.332 1.98s-1.032.972-1.584 1.26-1.092.432-1.62.432c-1.2 0-2.076-.396-2.628-1.188-.552-.816-.828-1.824-.828-3.024 0-.696.096-1.464.288-2.304.216-.84.504-1.668.864-2.484.384-.816.84-1.584 1.368-2.304s1.104-1.296 1.728-1.728c.096-.048.264-.168.504-.36s.6-.288 1.08-.288c.336 0 .66.048.972.144l.972.288-.108-2.484-.108-2.376-.036-.9v-2.628l-.036-.792c.048-.192.06-.396.036-.612-.024-.24.048-.444.216-.612.192-.24.432-.408.72-.504.312-.12.612-.18.9-.18.432 0 .768.168 1.008.504.24.312.36.66.36 1.044l-.108 2.34-.072 2.412c0 .552.036 1.212.108 1.98l.216 2.052.144 1.656.18 1.836.252 1.764c.096.576.216 1.092.36 1.548v.144zm-8.568 4.32c.504 0 .936-.18 1.296-.54s.672-.792.936-1.296.492-1.032.684-1.584l.576-1.44.324-1.08c.12-.36.18-.744.18-1.152 0-.072-.048-.108-.144-.108-.072-.024-.168-.036-.288-.036l-.36-.072c-.12-.024-.204-.096-.252-.216v-.36c.024-.12.036-.24.036-.36h-.216c-.048-.024-.12-.036-.216-.036-.336.504-.72.996-1.152 1.476-.408.456-.72 1.008-.936 1.656l-.396 1.152-.252.9-.144.9-.036.972c0 .192.048.396.144.612s.168.42.216.612zm20.233-9.936c.12-.048.228-.084.324-.108.12-.024.24-.06.36-.108.216.048.444.084.684.108.264.024.564.084.9.18l.18 1.584c.096.504.144 1.056.144 1.656l.144 5.364.18 6.408c0 1.152-.084 2.292-.252 3.42a9.128 9.128 0 0 1-1.116 3.24c-.192.216-.372.48-.54.792-.168.336-.396.66-.684.972-.288.336-.66.624-1.116.864-.432.264-1.008.432-1.728.504l-.9-.324c-.24-.072-.42-.36-.54-.864.192-.432.492-.804.9-1.116.432-.288.864-.708 1.296-1.26s.804-1.356 1.116-2.412c.336-1.032.504-2.52.504-4.464v-1.548l-.036-1.44-.108-1.476-.144-1.656c-.24.504-.504.984-.792 1.44-.264.432-.6.828-1.008 1.188-.384.36-.852.672-1.404.936-.528.24-1.164.408-1.908.504l-1.044-.576c-.336-.216-.648-.468-.936-.756a4.087 4.087 0 0 1-.72-.972c-.168-.36-.252-.768-.252-1.224 0-.144.012-.252.036-.324l.828-2.412c.384-1.032.864-2.052 1.44-3.06.576-1.032 1.26-1.92 2.052-2.664s1.692-1.116 2.7-1.116a2.367 2.367 0 0 1 .576.072 5.303 5.303 0 0 1 .576.18l.288.468zm-4.896 9.648c.36-.048.72-.264 1.08-.648.384-.384.744-.876 1.08-1.476.36-.624.696-1.32 1.008-2.088l.864-2.484c.024-.264.06-.516.108-.756.072-.264.108-.528.108-.792-.384.024-.708.108-.972.252a3.141 3.141 0 0 0-.72.54c-.192.216-.372.456-.54.72l-.54.72-.684 1.296-.72 1.332-.576 1.368c-.144.456-.216.9-.216 1.332 0 .384.24.612.72.684zm10.58-3.276c0-.888.108-1.776.324-2.664.24-.912.588-1.728 1.044-2.448s1.02-1.296 1.692-1.728c.672-.456 1.452-.684 2.34-.684.624 0 1.164.096 1.62.288.48.192.876.444 1.188.756s.54.672.684 1.08c.168.384.252.792.252 1.224 0 .552-.108 1.092-.324 1.62-.192.504-.48.96-.864 1.368s-.864.744-1.44 1.008c-.552.24-1.188.372-1.908.396-.312.024-.588.012-.828-.036s-.516-.12-.828-.216c-.024.12-.036.228-.036.324v.18c.024.888.168 1.584.432 2.088s.552.888.864 1.152c.312.24.612.396.9.468s.48.108.576.108c.744 0 1.356-.168 1.836-.504l1.656-1.116.396.18c.144.048.276.156.396.324l.072.36c.024.072.036.192.036.36-.024.336-.12.624-.288.864-.144.216-.312.408-.504.576-.624.528-1.212.864-1.764 1.008-.528.168-1.224.252-2.088.252-.384 0-.864-.084-1.44-.252-.552-.168-1.02-.348-1.404-.54-.576-.432-1.032-.864-1.368-1.296-.312-.432-.564-.888-.756-1.368a7.794 7.794 0 0 1-.36-1.476l-.108-1.656zm3.132-1.944c.096.024.24.048.432.072h.504c.816 0 1.44-.204 1.872-.612.456-.408.684-.9.684-1.476 0-.336-.096-.648-.288-.936s-.456-.432-.792-.432a3.663 3.663 0 0 0-.72.072c-.216.048-.384.168-.504.36-.096.12-.204.24-.324.36s-.24.288-.36.504c-.096.216-.192.492-.288.828-.096.312-.168.732-.216 1.26z" fill="#000"/></svg>