<svg xmlns="http://www.w3.org/2000/svg" width="900" height="276" fill="none" xmlns:v="https://vecta.io/nano"><style><![CDATA[.B{fill:#000}.C{fill-rule:evenodd}]]></style><g clip-path="url(#A)"><path d="M350 82.5c0-20.7107 16.79-37.5 37.5-37.5h125c20.71 0 37.5 16.7893 37.5 37.5v106.25c0 31.066-25.184 56.25-56.25 56.25h-87.5c-31.066 0-56.25-25.184-56.25-56.25V82.5z" fill="#43ffd0"/><path d="M363.613 225.437C373.93 237.415 389.205 245 406.253 245h87.5c31.066 0 56.25-25.184 56.25-56.25V82.4993c0-13.3556-6.982-25.0805-17.495-31.724 3.66 5.7896 5.776 12.65 5.776 20.0052V180.156c0 29.34-23.784 53.125-53.125 53.125h-93.75c-10.2 0-19.7-2.87-27.796-7.844z" fill-opacity=".1" class="B C"/><path d="M532.812 77.8118C544.53 83.2806 546.874 118.437 550 118.437s12.5-43.7502 10.156-54.6877-11.718-12.1094-19.92-20.3125-5.078-15.625-14.063-20.703-22.265-.3906-31.64-3.5156S487.11 7.1087 475 5.9368s-21.093 1.953-31.25 3.5156-22.265-5.8594-31.64-2.7344-9.375 11.7187-16.797 15.2343-16.406 1.5625-25 6.25-5.86 12.8907-11.72 19.922-15.103 10.9375-18.75 21.875 7.03 48.4377 10.155 48.4377 9.766-38.2814 17.188-40.6252 15.625 9.375 23.828 7.0313 7.813-12.5 16.797-13.672 19.532 16.0156 29.297 13.672S460.156 70.39 468.75 70.39s19.532 14.4532 29.297 15.2344c11.512.921 23.048-13.2812 34.766-7.8125z" fill="#4d74ff"/><g class="C"><g class="B"><path d="M550.617 93.4503c-1.302-6.7597-4.32-22.4452-20.15-25.794-12.086-2.5568-19.13 1.0215-25.276 4.145-4.184 2.1256-7.953 4.0406-12.615 3.6676-4.898-.392-10.092-4.224-15.137-7.9465-5.01-3.6982-9.876-7.288-14.16-7.288-4.713 0-10.836 3.6425-17.016 7.3187-5.09 3.0267-10.215 6.0762-14.625 7.1345-5.123 1.2296-10.462-2.917-15.677-6.9677-4.725-3.67-9.35-7.2612-13.62-6.7042-4.734.6174-6.865 3.7287-9.022 6.8775-1.937 2.8276-3.894 5.6855-7.775 6.7944-4.17 1.1912-8.34-1.2504-12.406-3.632-3.934-2.304-7.773-4.552-11.422-3.3994-4.415 1.394-8.552 15.5015-11.84 26.7058-1.944 6.6288-3.6 12.2418-4.82 13.6038 1.947 6.144 3.88 10.472 4.942 10.472 1.266 0 3.1-6.286 5.35-13.92 3.286-11.2038 7.424-25.3113 11.838-26.7053 3.65-1.1525 7.488 1.0953 11.423 3.3993 4.067 2.3816 8.236 4.8232 12.406 3.632 3.88-1.109 5.838-3.9667 7.775-6.7944 2.157-3.1487 4.288-6.26 9.02-6.8775 4.27-.557 8.895 3.0343 13.62 6.7043 5.215 4.0507 10.554 8.1973 15.677 6.9676 4.4-1.0583 9.536-4.1078 14.624-7.1345 6.18-3.676 12.304-7.3186 17.017-7.3186 4.282 0 9.147 3.5897 14.16 7.2878 5.045 3.7224 10.24 7.5547 15.137 7.9466 4.99.399 9.982-2.0418 14.993-4.4913 6.552-3.2028 13.133-6.42 19.773-3.3212 7.577 3.536 11.235 19.4848 13.72 30.3153 1.357 5.92 2.364 10.3 3.47 10.3 3.125 0 12.5-43.7503 10.156-54.6878-.665-3.104-1.897-5.4213-3.507-7.336 1.137 12.7785-3.646 40.1486-5.1 40.1486-.344 0-.575-1.1984-.943-3.1124z" fill-opacity=".15"/><path d="M401.562 145c0-8.198 6.646-14.844 14.844-14.844h14.063c7.076 0 12.996 4.952 14.483 11.58 1.226-.532 2.94-1.033 5.048-1.033s3.822.5 5.048 1.033c1.487-6.628 7.407-11.58 14.483-11.58h14.063c8.198 0 14.844 6.646 14.844 14.844s-6.646 14.844-14.844 14.844H469.53c-8.18 0-14.817-6.62-14.843-14.795-.815-.476-2.453-1.22-4.688-1.22s-3.873.745-4.688 1.22c-.026 8.175-6.662 14.795-14.843 14.795h-14.063c-8.198 0-14.844-6.646-14.844-14.844z"/></g><g fill="#fff"><path d="M492.8 137.737a11.821 11.821 0 0 0-2.22-2.153l-29.798 17.203c.7.787 1.505 1.48 2.393 2.054l29.625-17.104zm1.65 2.824c.56 1.37.87 2.868.87 4.44 0 6.472-5.246 11.72-11.72 11.72h-14.06a11.81 11.81 0 0 1-2.582-.285l27.493-15.873zm-54.774-2.824a11.821 11.821 0 0 0-2.22-2.153l-29.798 17.203c.7.787 1.505 1.48 2.393 2.054l29.625-17.104zm1.65 2.824c.56 1.37.87 2.868.87 4.44 0 6.472-5.246 11.72-11.72 11.72h-14.062a11.81 11.81 0 0 1-2.582-.285l27.493-15.873z"/></g><path d="M450 203.593c16.406 0 25.78-11.718 25.78-21.093s-11.938-3.907-25.78-3.907-25.78-5.468-25.78 3.907 9.375 21.093 25.78 21.093z" fill-opacity=".3" class="B"/><path d="M471.437 179.94l-.192 2.308c-.096 1.148-.712 2.185-1.75 2.686-2.804 1.355-9.303 3.818-19.496 3.818-10.122 0-16.6-2.428-19.437-3.79-1.074-.516-1.714-1.6-1.813-2.778l-.188-2.245c1.526-.834 4.42-.325 8.307.36 3.616.635 8.092 1.423 13.13 1.423s9.515-.788 13.13-1.423c3.89-.684 6.782-1.193 8.307-.36z" fill="#fff"/><path d="M468.903 192.94c-3.837 4.6-10.426 7.528-18.9 7.528-1.617 0-3.166-.106-4.64-.31.638-4.634 7.543-8.283 15.968-8.283 2.74 0 5.317.386 7.572 1.066z" fill="#ff5858"/></g><path d="M522.325 199.695c7.302-7.302 19.142-7.302 26.444 0l17.63 17.63c7.303 7.302 7.303 19.142 0 26.444l-17.63 17.63c-7.302 7.303-19.142 7.303-26.444 0l-17.63-17.63c-7.302-7.302-7.302-19.142 0-26.444l17.63-17.63z" fill="#fff"/><path d="M526.508 203.43c4.992-4.99 13.086-4.99 18.077 0l18.077 18.077c4.992 4.992 4.992 13.086 0 18.077l-18.077 18.077c-4.99 4.992-13.085 4.992-18.077 0l-18.077-18.077c-4.99-4.99-4.99-13.085 0-18.077l18.077-18.077z" fill="#96f"/><path d="M548.807 225.31c1.22-1.22 1.22-3.2 0-4.42s-3.2-1.22-4.42 0l-13.26 13.258-4.42-4.42c-1.22-1.22-3.2-1.22-4.42 0s-1.22 3.2 0 4.42l8.84 8.84 17.678-17.678z" fill="#fefefe"/><g class="C"><path d="M811.524 78.2507c2.227 3.1548 4.174 6.4524 5.967 9.6218 1.794-3.1694 3.74-6.467 5.968-9.6218 6.396-9.0597 15.104-16.942 29.14-17.229 13.154-.387 26.115 4.3523 36.077 16.829 11.026 13.9276 9.285 37.14-3.095 60.45-12.574 23.406-35.883 46.522-68.09 60.062-32.207-13.54-55.517-36.656-67.897-60.062-12.573-23.3-14.314-46.5225-3.288-60.45 9.962-12.4768 22.922-17.216 36.076-16.829 14.037.287 22.746 8.1692 29.142 17.229zm-57.4 5.8228c7.82-9.785 17.654-13.36 27.954-13.056l.045.0014.045.001c12.803.2617 19.55 9.3058 26.6 21.7783l8.703 15.377 8.703-15.377c7.06-12.4725 13.808-21.5166 26.61-21.7783l.045-.001.044-.0014c10.3-.303 20.134 3.2712 27.955 13.056 7.25 9.1792 7.642 27.4175-4.088 49.5155-10.996 20.46-31.206 41.037-59.27 53.857-28.078-12.826-48.26-33.406-59.057-53.82l-.02-.036-.02-.036c-11.91-22.078-11.503-40.312-4.26-49.4795z" class="B"/><path d="M663.134 115.552c1.232 1.745 2.31 3.57 3.3 5.322l3.302-5.322c3.538-5.013 8.356-9.373 16.122-9.532 7.277-.214 14.447 2.408 19.958 9.3 6.1 7.705 5.137 20.547-1.712 33.443-6.956 12.95-19.852 25.737-37.67 33.228-17.818-7.49-30.713-20.28-37.562-33.228-6.956-12.896-7.92-25.738-1.82-33.443 5.512-6.902 12.682-9.524 19.96-9.3 7.766.16 12.584 4.52 16.122 9.532zm-31.75 3.22c4.327-5.413 9.767-7.4 15.465-7.223h.05c7.083.144 10.817 5.148 14.722 12.048l4.814 8.506 4.815-8.506c3.905-6.9 7.64-11.904 14.722-12.048h.024.025c5.698-.167 11.138 1.8 15.465 7.223 4.012 5.078 4.23 15.168-2.26 27.394-6.084 11.318-17.265 22.703-32.79 29.795-15.533-7.095-26.7-18.48-32.672-29.775l-.022-.04c-6.588-12.214-6.364-22.302-2.357-27.374z" fill="#80ffff"/><g class="B"><path d="M664.756 235.204c-9.303-5.45-18.81-4.352-27.968-.412-8.75 3.765-17.395 10.213-25.537 16.286h0l-.962.717c-8.534 6.36-16.424 12.113-23.59 14.35-3.536 1.103-6.78 1.31-9.778.38-2.48-.768-4.91-2.35-7.263-5.072l4.968-4.968c.63-.63.183-1.707-.708-1.707h-13.142v13.142c0 .89 1.077 1.337 1.707.707l5.05-5.048c2.61 2.97 5.446 4.864 8.5 5.81 3.743 1.16 7.634.844 11.56-.38 7.757-2.42 16.085-8.543 24.49-14.807l.837-.624c8.247-6.15 16.638-12.408 25.054-16.03 8.638-3.716 17.07-4.556 25.267.245.715.42 1.633.178 2.052-.536s.18-1.634-.536-2.053z"/></g></g><path d="M679.91 248.268c0 .096.036.324.108.684l.324 1.152.396 1.188.288.792a3.491 3.491 0 0 1 .324.828c.072.288.168.576.288.864 0 .48-.12.816-.36 1.008s-.48.288-.72.288h-.468c-.24 0-.384-.012-.432-.036a5.979 5.979 0 0 1-.684-.324c-.216-.12-.444-.456-.684-1.008-.12-.168-.24-.468-.36-.9l-.36-1.44-.324-1.404c-.096-.456-.192-.78-.288-.972-.192.984-.48 1.872-.864 2.664-.384.768-.828 1.428-1.332 1.98s-1.032.972-1.584 1.26-1.092.432-1.62.432c-1.2 0-2.076-.396-2.628-1.188-.552-.816-.828-1.824-.828-3.024 0-.696.096-1.464.288-2.304.216-.84.504-1.668.864-2.484.384-.816.84-1.584 1.368-2.304s1.104-1.296 1.728-1.728c.096-.048.264-.168.504-.36s.6-.288 1.08-.288c.336 0 .66.048.972.144l.972.288-.108-2.484-.108-2.376-.036-.9v-2.628l-.036-.792c.048-.192.06-.396.036-.612-.024-.24.048-.444.216-.612.192-.24.432-.408.72-.504.312-.12.612-.18.9-.18.432 0 .768.168 1.008.504.24.312.36.66.36 1.044l-.108 2.34-.072 2.412c0 .552.036 1.212.108 1.98l.216 2.052.144 1.656.18 1.836.252 1.764c.096.576.216 1.092.36 1.548v.144zm-8.568 4.32c.504 0 .936-.18 1.296-.54s.672-.792.936-1.296.492-1.032.684-1.584l.576-1.44.324-1.08c.12-.36.18-.744.18-1.152 0-.072-.048-.108-.144-.108-.072-.024-.168-.036-.288-.036l-.36-.072c-.12-.024-.204-.096-.252-.216v-.36c.024-.12.036-.24.036-.36h-.216c-.048-.024-.12-.036-.216-.036-.336.504-.72.996-1.152 1.476-.408.456-.72 1.008-.936 1.656l-.396 1.152-.252.9-.144.9-.036.972c0 .192.048.396.144.612s.168.42.216.612zm15.966 2.628c-.408 0-.78-.108-1.116-.324-.312-.24-.648-.468-1.008-.684-.792-.456-1.404-1.056-1.836-1.8s-.648-1.656-.648-2.736c0-.528.084-1.152.252-1.872l.504-2.052c.072-.264.24-.624.504-1.08.264-.48.588-.936.972-1.368a7.155 7.155 0 0 1 1.368-1.188c.504-.336 1.02-.504 1.548-.504.216 0 .432.072.648.216.336.216.684.396 1.044.54l1.08.432 1.116.468c.36.168.696.384 1.008.648a2.202 2.202 0 0 1 .612.792l.432.9a2.102 2.102 0 0 1 .216.756c.024.24.036.492.036.756v.684c-.024.744-.18 1.44-.468 2.088-.264.624-.588 1.236-.972 1.836-.192.312-.444.672-.756 1.08s-.66.792-1.044 1.152-.792.672-1.224.936c-.408.24-.828.36-1.26.36-.12 0-.252-.012-.396-.036h-.612zm3.528-8.604c0-.696-.252-1.2-.756-1.512s-1.056-.468-1.656-.468c-.48 0-.888.192-1.224.576-.336.36-.624.816-.864 1.368-.24.528-.42 1.104-.54 1.728-.096.6-.144 1.128-.144 1.584 0 .096.012.288.036.576.048.288.12.588.216.9s.228.588.396.828c.192.24.432.36.72.36.264 0 .504-.036.72-.108l.72-.324c.384-.24.72-.564 1.008-.972s.516-.852.684-1.332c.192-.48.336-.984.432-1.512.12-.528.204-1.032.252-1.512v-.18zm8.723 3.276c.336-.336.6-.768.792-1.296l.612-1.512.072-.216c.144-.384.36-.852.648-1.404a10.173 10.173 0 0 1 1.008-1.62c.384-.528.804-.972 1.26-1.332s.924-.54 1.404-.54c.408.12.708.312.9.576.216.264.372.564.468.9.12.312.216.648.288 1.008a6.723 6.723 0 0 0 .36.972c.312.696.54 1.44.684 2.232l.792 4.824c.144.792.36 1.524.648 2.196-.048.384-.264.66-.648.828-.36.192-.684.288-.972.288-.432 0-.768-.168-1.008-.504-.24-.312-.432-.696-.576-1.152-.12-.48-.216-.972-.288-1.476-.048-.504-.12-.924-.216-1.26-.12-.408-.216-.864-.288-1.368l-.252-1.584c-.096-.528-.216-1.02-.36-1.476-.12-.456-.3-.828-.54-1.116-.408.648-.744 1.26-1.008 1.836l-.684 1.62-.576 1.512c-.192.48-.432.972-.72 1.476-.384.696-.732 1.236-1.044 1.62s-.6.672-.864.864c-.264.168-.516.264-.756.288-.24.048-.468.072-.684.072-.24 0-.54-.12-.9-.36-.336-.24-.504-.528-.504-.864v-4.212l.036-4.104-.036-1.224-.036-1.26a2.404 2.404 0 0 1 .144-.828c.12-.288.312-.492.576-.612h.432c.144-.024.276-.036.396-.036.312 0 .552.096.72.288.192.168.324.384.396.648.096.264.156.54.18.828l.036.72c0 .264.024.516.072.756.072.24.108.492.108.756l-.036 2.268-.036 1.8v.18zm16.084 5.328c-.408 0-.78-.108-1.116-.324-.312-.24-.648-.468-1.008-.684-.792-.456-1.404-1.056-1.836-1.8s-.648-1.656-.648-2.736c0-.528.084-1.152.252-1.872l.504-2.052c.072-.264.24-.624.504-1.08.264-.48.588-.936.972-1.368a7.155 7.155 0 0 1 1.368-1.188c.504-.336 1.02-.504 1.548-.504.216 0 .432.072.648.216.336.216.684.396 1.044.54l1.08.432 1.116.468c.36.168.696.384 1.008.648a2.202 2.202 0 0 1 .612.792l.432.9a2.102 2.102 0 0 1 .216.756c.024.24.036.492.036.756v.684c-.024.744-.18 1.44-.468 2.088-.264.624-.588 1.236-.972 1.836-.192.312-.444.672-.756 1.08s-.66.792-1.044 1.152-.792.672-1.224.936c-.408.24-.828.36-1.26.36-.12 0-.252-.012-.396-.036h-.612zm3.528-8.604c0-.696-.252-1.2-.756-1.512s-1.056-.468-1.656-.468c-.48 0-.888.192-1.224.576-.336.36-.624.816-.864 1.368-.24.528-.42 1.104-.54 1.728-.096.6-.144 1.128-.144 1.584 0 .096.012.288.036.576.048.288.12.588.216.9s.228.588.396.828c.192.24.432.36.72.36.264 0 .504-.036.72-.108l.72-.324c.384-.24.72-.564 1.008-.972s.516-.852.684-1.332c.192-.48.336-.984.432-1.512.12-.528.204-1.032.252-1.512v-.18zm5.7 7.884c.048-.12.072-.336.072-.648l.036-1.224-.036-1.476-.036-1.44-.036-1.152v-1.764l-.144-3.168v-.144a1.35 1.35 0 0 0-.144-.612c-.096-.216-.144-.444-.144-.684.096-.312.228-.552.396-.72s.468-.252.9-.252c.408 0 .732.084.972.252.24.144.42.336.54.576.12.216.192.468.216.756l.108.828.108 1.908c.24-.192.492-.468.756-.828l.828-1.224.9-1.26c.312-.408.636-.744.972-1.008.192-.096.432-.144.72-.144.576 0 1.032.108 1.368.324.36.216.636.564.828 1.044-.048.216-.18.468-.396.756l-.756.864-.864.936c-.288.312-.54.624-.756.936-.36.384-.72.852-1.08 1.404s-.684 1.116-.972 1.692-.528 1.128-.72 1.656c-.192.504-.288.912-.288 1.224v.828l.036.792c0 .288-.024.588-.072.9-.048.288-.144.552-.288.792-.144.264-.336.468-.576.612-.24.168-.552.252-.936.252-.456 0-.828-.144-1.116-.432-.264-.264-.396-.6-.396-1.008v-.144zm22.738-10.548v1.908l.036.468.72-1.296c.288-.432.744-1.044 1.368-1.836.048-.048.156-.144.324-.288s.384-.3.648-.468c.288-.168.6-.312.936-.432a3.506 3.506 0 0 1 1.116-.18c.72 0 1.296.204 1.728.612.456.384.804.864 1.044 1.44.264.576.444 1.2.54 1.872s.144 1.272.144 1.8c0 .288-.024.696-.072 1.224s-.144 1.092-.288 1.692-.348 1.2-.612 1.8c-.24.576-.564 1.056-.972 1.44-.552.504-1.2.888-1.944 1.152s-1.416.396-2.016.396a11.376 11.376 0 0 1-1.8-.144c-.576-.096-1.14-.228-1.692-.396-.144-.072-.288-.204-.432-.396l-.396-.72c-.12-.264-.228-.54-.324-.828l-.252-.828c-.072-.072-.144-.3-.216-.684l-.216-1.404-.144-1.692-.036-1.584.108-6.012.54-6.552c0-.456.024-.9.072-1.332s.144-.888.288-1.368c.12-.36.384-.576.792-.648.432-.096.792-.144 1.08-.144a1.35 1.35 0 0 1 .612.144c.192.096.312.264.36.504l-.504 4.356c-.216 1.368-.348 2.82-.396 4.356l-.144 4.068zm1.836 4.32l-.36 1.008-.288.9-.216 1.008-.108 1.152c.264.288.516.456.756.504s.552.072.936.072c.6-.072 1.08-.3 1.44-.684.384-.384.684-.852.9-1.404s.36-1.14.432-1.764c.072-.648.108-1.248.108-1.8l-.036-.756c0-.288-.036-.564-.108-.828-.048-.264-.12-.492-.216-.684s-.216-.288-.36-.288-.36.12-.648.36c-.264.24-.54.54-.828.9a12.801 12.801 0 0 0-.828 1.08c-.24.384-.408.72-.504 1.008l-.072.216zm21.797 6.084l.216.612c.072.192.108.384.108.576s-.06.348-.18.468c-.096.12-.228.216-.396.288-.144.072-.3.12-.468.144-.168.048-.324.072-.468.072-.48 0-.876-.276-1.188-.828-.312-.528-.564-1.188-.756-1.98l-.504-2.556-.36-2.448c-.072.504-.312 1.14-.72 1.908-.384.768-.876 1.512-1.476 2.232-.6.696-1.26 1.296-1.98 1.8s-1.44.756-2.16.756c-.576 0-1.056-.12-1.44-.36-.36-.216-.636-.492-.828-.828s-.324-.708-.396-1.116c-.072-.432-.108-.828-.108-1.188 0-.792.192-1.764.576-2.916.408-1.176.948-2.316 1.62-3.42.696-1.104 1.488-2.04 2.376-2.808.912-.792 1.872-1.188 2.88-1.188.216 0 .456.036.72.108.288.072.576.168.864.288.288.096.564.228.828.396.264.144.492.288.684.432.408.336.684.792.828 1.368s.252 1.176.324 1.8l.396 3.276c.096.96.276 1.98.54 3.06l.216 1.332.252.72zm-10.152-1.872v.072c.024 0 .036.012.036.036.312-.024.672-.228 1.08-.612.408-.408.816-.888 1.224-1.44a16.318 16.318 0 0 0 1.116-1.728c.36-.624.624-1.176.792-1.656l.324-.72.396-.792c.144-.288.252-.552.324-.792.096-.24.144-.444.144-.612l-.324-.144c-.096-.048-.204-.072-.324-.072-.528 0-.996.204-1.404.612s-.768.864-1.08 1.368c-.288.504-.528.996-.72 1.476l-.396.864c-.336.6-.624 1.248-.864 1.944-.216.696-.324 1.368-.324 2.016v.18zm23.69-4.212c0 .096.036.324.108.684l.324 1.152.396 1.188.288.792a3.491 3.491 0 0 1 .324.828c.072.288.168.576.288.864 0 .48-.12.816-.36 1.008s-.48.288-.72.288h-.468c-.24 0-.384-.012-.432-.036a5.979 5.979 0 0 1-.684-.324c-.216-.12-.444-.456-.684-1.008-.12-.168-.24-.468-.36-.9l-.36-1.44-.324-1.404c-.096-.456-.192-.78-.288-.972-.192.984-.48 1.872-.864 2.664-.384.768-.828 1.428-1.332 1.98s-1.032.972-1.584 1.26-1.092.432-1.62.432c-1.2 0-2.076-.396-2.628-1.188-.552-.816-.828-1.824-.828-3.024 0-.696.096-1.464.288-2.304.216-.84.504-1.668.864-2.484.384-.816.84-1.584 1.368-2.304s1.104-1.296 1.728-1.728c.096-.048.264-.168.504-.36s.6-.288 1.08-.288c.336 0 .66.048.972.144l.972.288-.108-2.484-.108-2.376-.036-.9v-2.628l-.036-.792c.048-.192.06-.396.036-.612-.024-.24.048-.444.216-.612.192-.24.432-.408.72-.504.312-.12.612-.18.9-.18.432 0 .768.168 1.008.504.24.312.36.66.36 1.044l-.108 2.34-.072 2.412c0 .552.036 1.212.108 1.98l.216 2.052.144 1.656.18 1.836.252 1.764c.096.576.216 1.092.36 1.548v.144zm-8.568 4.32c.504 0 .936-.18 1.296-.54s.672-.792.936-1.296.492-1.032.684-1.584l.576-1.44.324-1.08c.12-.36.18-.744.18-1.152 0-.072-.048-.108-.144-.108-.072-.024-.168-.036-.288-.036l-.36-.072c-.12-.024-.204-.096-.252-.216v-.36c.024-.12.036-.24.036-.36h-.216c-.048-.024-.12-.036-.216-.036-.336.504-.72.996-1.152 1.476-.408.456-.72 1.008-.936 1.656l-.396 1.152-.252.9-.144.9-.036.972c0 .192.048.396.144.612s.168.42.216.612zm20.233-9.936c.12-.048.228-.084.324-.108.12-.024.24-.06.36-.108.216.048.444.084.684.108.264.024.564.084.9.18l.18 1.584c.096.504.144 1.056.144 1.656l.144 5.364.18 6.408c0 1.152-.084 2.292-.252 3.42a9.128 9.128 0 0 1-1.116 3.24c-.192.216-.372.48-.54.792-.168.336-.396.66-.684.972-.288.336-.66.624-1.116.864-.432.264-1.008.432-1.728.504l-.9-.324c-.24-.072-.42-.36-.54-.864.192-.432.492-.804.9-1.116.432-.288.864-.708 1.296-1.26s.804-1.356 1.116-2.412c.336-1.032.504-2.52.504-4.464v-1.548l-.036-1.44-.108-1.476-.144-1.656c-.24.504-.504.984-.792 1.44-.264.432-.6.828-1.008 1.188-.384.36-.852.672-1.404.936-.528.24-1.164.408-1.908.504l-1.044-.576c-.336-.216-.648-.468-.936-.756a4.087 4.087 0 0 1-.72-.972c-.168-.36-.252-.768-.252-1.224 0-.144.012-.252.036-.324l.828-2.412c.384-1.032.864-2.052 1.44-3.06.576-1.032 1.26-1.92 2.052-2.664s1.692-1.116 2.7-1.116a2.367 2.367 0 0 1 .576.072 5.303 5.303 0 0 1 .576.18l.288.468zm-4.896 9.648c.36-.048.72-.264 1.08-.648.384-.384.744-.876 1.08-1.476.36-.624.696-1.32 1.008-2.088l.864-2.484c.024-.264.06-.516.108-.756.072-.264.108-.528.108-.792-.384.024-.708.108-.972.252a3.141 3.141 0 0 0-.72.54c-.192.216-.372.456-.54.72l-.54.72-.684 1.296-.72 1.332-.576 1.368c-.144.456-.216.9-.216 1.332 0 .384.24.612.72.684zm10.58-3.276c0-.888.108-1.776.324-2.664.24-.912.588-1.728 1.044-2.448s1.02-1.296 1.692-1.728c.672-.456 1.452-.684 2.34-.684.624 0 1.164.096 1.62.288.48.192.876.444 1.188.756s.54.672.684 1.08c.168.384.252.792.252 1.224 0 .552-.108 1.092-.324 1.62-.192.504-.48.96-.864 1.368s-.864.744-1.44 1.008c-.552.24-1.188.372-1.908.396-.312.024-.588.012-.828-.036s-.516-.12-.828-.216c-.024.12-.036.228-.036.324v.18c.024.888.168 1.584.432 2.088s.552.888.864 1.152c.312.24.612.396.9.468s.48.108.576.108c.744 0 1.356-.168 1.836-.504l1.656-1.116.396.18c.144.048.276.156.396.324l.072.36c.024.072.036.192.036.36-.024.336-.12.624-.288.864-.144.216-.312.408-.504.576-.624.528-1.212.864-1.764 1.008-.528.168-1.224.252-2.088.252-.384 0-.864-.084-1.44-.252-.552-.168-1.02-.348-1.404-.54-.576-.432-1.032-.864-1.368-1.296-.312-.432-.564-.888-.756-1.368a7.794 7.794 0 0 1-.36-1.476l-.108-1.656zm3.132-1.944c.096.024.24.048.432.072h.504c.816 0 1.44-.204 1.872-.612.456-.408.684-.9.684-1.476 0-.336-.096-.648-.288-.936s-.456-.432-.792-.432a3.663 3.663 0 0 0-.72.072c-.216.048-.384.168-.504.36-.096.12-.204.24-.324.36s-.24.288-.36.504c-.096.216-.192.492-.288.828-.096.312-.168.732-.216 1.26z" class="B"/><g fill="#f199ff"><path d="M814.48 50.514c6.523-6.523 6.523-17.0988 0-23.6217s-17.1-6.523-23.622 0l-70.865 70.8653L696.37 74.135c-6.523-6.523-17.098-6.523-23.62 0s-6.523 17.0987 0 23.6217L719.99 145l94.488-94.486z"/><g class="C"><path d="M76.5293 67.2526c2.2272 3.155 4.174 6.4525 5.9677 9.622 1.7938-3.1694 3.7406-6.467 5.9678-9.622 6.3964-9.0607 15.1052-16.944 29.1442-17.2308 13.155-.387 26.116 4.3527 36.08 16.8304 11.027 13.9286 9.286 37.1428-3.095 60.4538-12.575 23.408-35.886 46.526-68.096 60.067-32.21-13.54-55.52-36.66-67.902-60.067C2.0206 103.995.2795 80.7808 11.3063 66.8522c9.963-12.4777 22.9242-17.2173 36.08-16.8304 14.0387.287 22.7476 8.17 29.144 17.2308zm-57.3945 5.8218c7.8214-9.7855 17.656-13.36 27.9565-13.057l.0448.0014.0448.001c12.8042.2617 19.5538 9.307 26.6133 21.7803l8.7028 15.377L91.2 81.8c7.0595-12.4734 13.809-21.5186 26.613-21.7803l.045-.001.045-.0014c10.3-.303 20.135 3.2715 27.956 13.057 7.252 9.1802 7.644 27.4205-4.087 49.5195-10.997 20.46-31.21 41.04-59.275 53.862-28.0803-12.827-48.2635-33.41-59.0623-53.825l-.019-.036-.0194-.036c-11.9104-22.08-11.5044-40.316-4.2614-49.4846z"/></g></g><path d="M230.766 157.173c1.313 1.86 2.46 3.804 3.52 5.673l3.518-5.673c3.772-5.343 8.907-9.99 17.185-10.16h0c7.756-.228 15.4 2.566 21.273 9.924 6.502 8.212 5.475 21.9-1.825 35.645-7.414 13.802-21.16 27.433-40.15 35.418-18.993-7.985-32.738-21.616-40.038-35.418-7.414-13.745-8.44-27.433-1.94-35.645 5.874-7.358 13.517-10.152 21.273-9.924 8.278.17 13.413 4.817 17.185 10.16zm-33.842 3.433c4.612-5.77 10.4-7.878 16.484-7.7h.027l.026.001c7.55.154 11.53 5.488 15.692 12.842l5.132 9.067 5.13-9.067c4.163-7.354 8.142-12.688 15.692-12.842l.026-.001h.027c6.074-.18 11.873 1.93 16.485 7.7 4.275 5.413 4.506 16.168-2.41 29.198-6.484 12.064-18.402 24.2-34.95 31.76-16.558-7.564-28.458-19.7-34.826-31.737l-.01-.022-.01-.02c-7.023-13.02-6.784-23.77-2.513-29.177z" class="B C"/><path d="M253.623 112.514c6.523-6.523 6.523-17.099 0-23.6218s-17.098-6.523-23.62 0l-70.866 70.8658-23.622-23.623c-6.523-6.523-17.1-6.523-23.622 0s-6.523 17.1 0 23.622L159.136 207l94.487-94.486z" fill="#80ffff"/></g><defs><clipPath id="A"><path fill="#fff" d="M0 0h900v276H0z"/></clipPath></defs></svg>