<svg viewBox="0 0 512 512" fill="none" xmlns="http://www.w3.org/2000/svg">
<path d="M255.999 356.5C149.498 356.5 71.9995 338.5 96.9995 284.5C71.9999 269 73.9999 231.5 102.999 221C85.4999 109 189.437 83 255.999 83C322.562 83 409 111.5 409 221C431 229.5 436.5 270.5 415 284.5C440 338.5 362.5 356.5 255.999 356.5Z" fill="#FF0000"/>
<path fill-rule="evenodd" clip-rule="evenodd" d="M98.1357 321.305C124.827 338.798 179.014 345.5 243.999 345.5C350.5 345.5 428 329 402 275C422.5 269.5 418.5 236 402 228.5C405.874 206.5 405.192 184.692 399.498 164.654C405.55 180.483 409 199.125 409 221C431 229.5 436.5 270.5 415 284.5C440 338.5 362.5 356.5 255.999 356.5C178.834 356.5 116.895 347.05 98.1357 321.305Z" fill="black" fill-opacity="0.15"/>
</svg>
