<svg viewBox="0 0 512 512" fill="none" xmlns="http://www.w3.org/2000/svg">
<path fill-rule="evenodd" clip-rule="evenodd" d="M90.0002 257C106.387 147.216 145.5 88.5 256 88.5C366.5 88.5 405.615 147.216 422.001 257C432.001 324 360.501 361 256.001 361C151.501 361 79.9996 324 90.0002 257Z" fill="#FF0000"/>
<path fill-rule="evenodd" clip-rule="evenodd" d="M91.71 288.471C105.206 335.488 169.227 361 256.001 361C360.501 361 432.001 324 422.001 257C416.543 220.429 408.562 189.525 396.261 164.571C404.712 186.36 410.656 211.884 415.002 241C425.002 308 353.502 345 249.002 345C172.647 345 113.91 325.247 91.71 288.471Z" fill="black" fill-opacity="0.15"/>
</svg>
