<svg viewBox="0 0 512 512" fill="none" xmlns="http://www.w3.org/2000/svg">
<path d="M256 350.5C295.501 350.5 343.501 346 377.002 307C374.501 314 373.501 321.5 374.501 329.5C474.501 168 317.985 107.414 256 106C144.624 103.459 88.0236 177.387 95.8146 231.5C110.5 333.5 172 350.5 256 350.5Z" fill="#FF0000"/>
<path fill-rule="evenodd" clip-rule="evenodd" d="M385.002 290C356.501 331 297.501 338.5 258 338.5C174 338.5 112.5 321.5 97.8146 219.5C97.0206 213.985 96.8954 208.265 97.4288 202.44C95.0346 212.385 94.4804 222.233 95.8146 231.5C110.5 333.5 172 350.5 256 350.5C295.501 350.5 343.501 346 377.002 307C374.501 314 373.501 321.5 374.501 329.5C390.576 303.54 400.022 280.187 404.298 259.268C399.238 277.018 390.568 296.398 377.501 317.5C377.915 308.796 381.078 300.436 383.573 293.844C384.088 292.483 384.574 291.198 385.002 290Z" fill="black" fill-opacity="0.15"/>
</svg>
