<svg viewBox="0 0 512 512" fill="none" xmlns="http://www.w3.org/2000/svg">
<path fill-rule="evenodd" clip-rule="evenodd" d="M90.0002 257C106.387 147.216 161.001 88.5598 258.88 88.5598C367.833 88.5598 405.615 147.216 422.001 257C432.001 324 360.501 361 256.001 361C151.501 361 79.9996 324 90.0002 257Z" fill="#FF0000"/>
<path fill-rule="evenodd" clip-rule="evenodd" d="M91.8809 289.056C105.739 335.699 169.588 361 256.001 361C360.501 361 432.001 324 422.001 257C416.616 220.916 408.919 190.356 397.143 165.586C405.629 187.586 411.592 213.44 416.004 243C426.004 310 354.504 347 250.004 347C172.676 347 113.417 326.74 91.8809 289.056Z" fill="black" fill-opacity="0.15"/>
</svg>
