<svg viewBox="0 0 512 512" fill="none" xmlns="http://www.w3.org/2000/svg">
<path d="M255.999 350.5C295.5 350.5 348.5 348 377.001 307C374.5 314 373.5 321.5 374.5 329.5C474.5 168 317.984 107.414 255.999 106C144.624 103.459 114.128 145 104.814 230.5C95.5 316 164.285 350.5 255.999 350.5Z" fill="#FF0000"/>
<path fill-rule="evenodd" clip-rule="evenodd" d="M385 288C356.498 329 295.5 339.5 255.999 339.5C164.284 339.5 97.4997 305 106.814 219.5C107.469 213.484 108.219 207.686 109.087 202.105C107.303 210.96 105.911 220.425 104.814 230.5C95.5 316 164.285 350.5 255.999 350.5C295.5 350.5 348.5 348 377.001 307C374.5 314 373.5 321.5 374.5 329.5C387.294 308.838 395.89 289.827 401.021 272.381C396.042 284.954 389.284 298.314 380.5 312.5C380.5 303.5 382.499 295 385 288Z" fill="black" fill-opacity="0.15"/>
</svg>
