<svg viewBox="0 0 512 512" fill="none" xmlns="http://www.w3.org/2000/svg">
<path d="M89.999 324.5C115.999 342 173 360.5 256 360.5C339 360.5 396 342 421.999 324.5C385 278.5 419 211 396 165.5C373 120 338 93.5 256 93.5C173.999 93.5 138.999 120 115.999 165.5C92.9986 211 126.999 278.5 89.999 324.5Z" fill="#FF0000"/>
<path fill-rule="evenodd" clip-rule="evenodd" d="M256 344.5C173 344.5 129.999 333 103.999 315.5C114.521 293.77 111.859 267.123 108.075 240.248C109.278 270.059 109.493 300.264 89.999 324.5C115.999 342 173 360.5 256 360.5C339 360.5 396 342 421.999 324.5C402.806 300.638 402.718 270.99 403.869 241.628C400.728 263.029 399.149 287.398 408.5 318C380.5 334 339 344.5 256 344.5Z" fill="black" fill-opacity="0.15"/>
</svg>
