<svg width="512" height="512" viewBox="0 0 512 512" fill="none" xmlns="http://www.w3.org/2000/svg">
<path fill-rule="evenodd" clip-rule="evenodd" d="M89.9994 257C112.598 130 161 88.5598 258.88 88.5598C367.832 88.5598 405 147 422 257C430.652 312.984 360.5 361 256 361C151.5 361 80.075 312.772 89.9994 257Z" fill="#FF0000"/>
<path fill-rule="evenodd" clip-rule="evenodd" d="M89.5076 260.284C82.8995 314.652 153.557 361 256 361C360.5 361 430.652 312.984 422 257C416.569 221.858 409.079 191.978 397.848 167.585C405.236 189.136 410.565 214.315 414.998 243C423.65 298.984 360.498 347 255.998 347C162.479 347 95.4486 308.375 89.5076 260.284Z" fill="black" fill-opacity="0.15"/>
</svg>
