<svg viewBox="0 0 512 512" fill="none" xmlns="http://www.w3.org/2000/svg">
<path fill-rule="evenodd" clip-rule="evenodd" d="M89.9998 257C106 147 147.5 88.5 256 88.5C364.5 88.5 405 147 422 257C430.653 312.984 360.5 361 256 361C151.5 361 81.8457 313.058 89.9998 257Z" fill="#FF0000"/>
<path fill-rule="evenodd" clip-rule="evenodd" d="M90.999 279.822C101.904 325.471 166.04 361 256 361C360.5 361 430.652 312.983 422 257C417.86 230.211 412.326 206.476 404.755 185.897C409.846 202.778 413.831 221.494 417.001 242C425.653 297.983 355.5 346 251 346C171.253 346 110.768 317.913 90.999 279.822Z" fill="black" fill-opacity="0.15"/>
</svg>
