<svg viewBox="0 0 512 512" fill="none" xmlns="http://www.w3.org/2000/svg">
<path fill-rule="evenodd" clip-rule="evenodd" d="M100 237C99.9993 126 158 88.5 256 88.5C354 88.5 412.001 126 412.001 237C412.001 290 397 337 397 337C397 337 340.5 331 256 331C171.5 331 115 337 115 337C115 337 100 290 100 237Z" fill="#FF0000"/>
<path fill-rule="evenodd" clip-rule="evenodd" d="M108.07 309.62C111.621 326.412 115 337 115 337C115 337 171.5 331 256 331C340.5 331 397 337 397 337C397 337 412.001 290 412.001 237C412.001 213.447 409.389 193.203 404.338 175.924C406.76 189.121 408 203.775 408 220C408 273 392.999 320 392.999 320C392.999 320 336.499 314 251.999 314C167.499 314 110.999 320 110.999 320C110.999 320 109.795 316.23 108.07 309.62Z" fill="black" fill-opacity="0.15"/>
</svg>
