<svg viewBox="0 0 512 512" fill="none" xmlns="http://www.w3.org/2000/svg">
<path fill-rule="evenodd" clip-rule="evenodd" d="M100 237C99.9993 126 160.761 98.5601 258.88 98.5601C357 98.5601 412.001 126 412.001 237C412.001 290 397 337 397 337C397 337 340.5 331 256 331C171.5 331 115 337 115 337C115 337 100 290 100 237Z" fill="#FF0000"/>
<path fill-rule="evenodd" clip-rule="evenodd" d="M111.086 322.756C113.32 331.741 114.998 337 114.998 337C114.998 337 171.498 331 255.999 331C340.499 331 396.999 337 396.999 337C396.999 337 411.999 290 411.999 237C411.999 202.481 406.68 176.043 396.399 155.998C402.743 173.922 406 195.987 406 223C406 276 390.999 323 390.999 323C390.999 323 334.5 316 249.999 316C174.964 316 122.008 321.52 111.086 322.756Z" fill="black" fill-opacity="0.15"/>
</svg>
