<svg viewBox="0 0 512 512" fill="none" xmlns="http://www.w3.org/2000/svg">
<path fill-rule="evenodd" clip-rule="evenodd" d="M100 237C99.9993 126 160.761 88.5601 258.88 88.5601C357 88.5601 412.001 126 412.001 237C412.001 290 397 337 397 337C397 337 340.5 331 256 331C171.5 331 115 337 115 337C115 337 100 290 100 237Z" fill="#FF0000"/>
<path fill-rule="evenodd" clip-rule="evenodd" d="M111.087 322.756C113.321 331.74 114.999 337 114.999 337C114.999 337 171.499 331 256 331C340.5 331 397 337 397 337C397 337 412 290 412 237C412 198.248 405.297 168.462 392.395 146.104C401.368 165.614 406 190.788 406 223C406 276 390.999 323 390.999 323C390.999 323 334.499 316 249.999 316C174.967 316 122.012 321.519 111.087 322.756Z" fill="black" fill-opacity="0.15"/>
</svg>
