<svg viewBox="0 0 512 512" fill="none" xmlns="http://www.w3.org/2000/svg">
<path fill-rule="evenodd" clip-rule="evenodd" d="M100 257C106.387 147.216 148 100 256 100C364 100 405.615 147.216 412.001 257C415.935 324.628 387.5 361 256.001 361C124.502 361 96.0662 324.628 100 257Z" fill="#FF0000"/>
<path fill-rule="evenodd" clip-rule="evenodd" d="M101.227 289.241C108.976 336.115 147.232 361 256.001 361C387.5 361 415.934 324.628 412.001 257C410.386 229.238 406.518 205.477 399.894 185.469C403.54 201.326 405.848 219.139 407.003 239C410.937 306.628 382.502 343 251.003 343C157.118 343 115.769 324.46 101.227 289.241Z" fill="black" fill-opacity="0.15"/>
</svg>
