<svg viewBox="0 0 512 512" fill="none" xmlns="http://www.w3.org/2000/svg">
<path fill-rule="evenodd" clip-rule="evenodd" d="M100.001 257C106.387 147.216 148.001 100 256 100C364 100 405.616 147.216 412.001 257C415.935 324.628 412.5 361 256.001 361C99.5019 361 96.0664 324.628 100.001 257Z" fill="#FF0000"/>
<path fill-rule="evenodd" clip-rule="evenodd" d="M100.586 301.048C106.961 340.283 137.889 361 256.001 361C412.5 361 415.935 324.628 412.001 257C410.199 226.009 405.589 200.004 397.47 178.64C401.948 195.924 404.704 215.667 406.003 238.001C409.937 305.628 406.502 342.001 250.003 342.001C152.699 342.001 114.566 327.94 100.586 301.048Z" fill="black" fill-opacity="0.15"/>
</svg>
