<svg viewBox="0 0 512 512" fill="none" xmlns="http://www.w3.org/2000/svg">
<path d="M250 334.5C175.35 334.5 110.997 334.5 91.4987 271C97 272 105.5 270.5 108.997 267C97.5 264.5 84.5 253.5 81.998 241C146.413 233.358 68.5 148.068 259 148.068C414 148.068 370.679 211.511 429.999 215C428.499 231 414 252.5 398.999 257C403.5 260 415 262 421 262C392.501 332 334.669 334.5 250 334.5Z" fill="#FF0000"/>
<path fill-rule="evenodd" clip-rule="evenodd" d="M236.009 324.505C238.634 324.503 241.299 324.5 244.006 324.5C248.319 324.5 252.551 324.509 256.705 324.518C334.093 324.684 383.952 324.791 411 265C405 264.5 396.5 261 390.5 256C406.279 252.175 422.058 232.803 424.723 214.5C426.387 214.723 428.143 214.891 429.999 215C428.499 231 414 252.5 398.999 257C403.5 260 415 262 421 262C392.501 332 334.669 334.5 250 334.5C175.35 334.5 110.997 334.5 91.4987 271C97 272 105.5 270.5 108.997 267C97.5 264.5 84.5 253.5 81.998 241C84.6189 240.689 87.0041 240.25 89.1813 239.693C92.6802 251.838 108.67 261.754 119 264C115 270 109 274 99.4999 274.5C125.039 324.615 166.234 324.574 236.009 324.505ZM401.698 204.581C397.589 200.984 394.199 196.708 390.578 192.142C388.5 189.52 386.345 186.803 383.935 184.064C384.366 184.675 384.793 185.283 385.216 185.885C390.333 193.174 394.991 199.807 401.698 204.581Z" fill="black" fill-opacity="0.15"/>
</svg>
