<svg viewBox="0 0 512 512" fill="none" xmlns="http://www.w3.org/2000/svg">
<path fill-rule="evenodd" clip-rule="evenodd" d="M99.9995 257C113.386 147.216 141.999 100 255.999 100C370 100 398.614 147.216 412 257C420.199 324.244 422.499 361 256 361C89.5008 361 91.8 324.244 99.9995 257Z" fill="#FF0000"/>
<path fill-rule="evenodd" clip-rule="evenodd" d="M97.8145 304.38C102.694 341.308 134.128 361 256 361C422.499 361 420.199 324.244 412 257C407.748 222.132 401.961 193.576 392.39 170.839C398.545 189.911 402.856 212.232 405.998 238C414.197 305.244 416.497 342 249.998 342C151.061 342 111.726 329.022 97.8145 304.38Z" fill="black" fill-opacity="0.15"/>
</svg>
