<svg width="512" height="512" viewBox="0 0 512 512" fill="none" xmlns="http://www.w3.org/2000/svg">
<path fill-rule="evenodd" clip-rule="evenodd" d="M74.752 308.536C74.752 272.997 82.3907 173.886 128.559 118.65C159.337 81.826 202.807 66.5598 258.88 66.5598C314.953 66.5598 352.662 81.826 383.441 118.65C429.609 173.886 437.248 272.997 437.248 308.536C437.248 366.78 74.752 366.78 74.752 308.536Z" fill="#FF0000"/>
<path fill-rule="evenodd" clip-rule="evenodd" d="M75.3833 312.678C92.1497 366.746 437.248 365.365 437.248 308.536C437.248 272.997 429.609 173.886 383.441 118.65C377.836 111.944 372 105.952 365.866 100.638C366.73 101.625 367.588 102.629 368.441 103.65C414.609 158.886 422.248 257.997 422.248 293.536C422.248 344.486 144.859 350.867 75.3833 312.678Z" fill="black" fill-opacity="0.15"/>
</svg>
