<svg viewBox="0 0 512 512" fill="none" xmlns="http://www.w3.org/2000/svg">
<path d="M305.977 109.415C310.941 103.251 313 95.8366 313 87.9999C313 73.4973 297.386 75.5505 279.026 77.9646C271.516 78.9521 263.548 79.9999 256 79.9999C248.452 79.9999 240.484 78.9521 232.974 77.9646C214.614 75.5505 199 73.4974 199 87.9999C199 95.4406 200.856 102.501 205.293 108.471C144.004 118.009 105.095 149.024 127 223.5C196.499 223.5 299.5 201.5 317 157C317 202 363.501 223.5 385 223.5C411.4 147.647 357.997 119.078 305.977 109.415Z" stroke="black" stroke-width="16" stroke-linecap="round" stroke-linejoin="round"/>
</svg>
