<svg viewBox="0 0 512 512" fill="none" xmlns="http://www.w3.org/2000/svg">
<path d="M282.848 79.2253C273.708 80.6032 264.441 82 256 82C247.558 82 238.291 80.6032 229.151 79.2253C202.018 75.1352 176 71.2132 176 104.5C176 110.162 176.801 114.586 178.263 117.994C117.608 137.246 103.687 187.016 125.001 279C123.186 240.104 136.028 230.39 148.186 221.194C159.472 212.658 170.167 204.568 168.001 174C184.238 197.329 218.518 194.671 255.239 191.824C316.895 187.043 385.434 181.729 387.001 298C409.042 185.931 394.798 135.532 334.055 117.21C335.314 113.915 336 109.737 336 104.5C336 71.2132 309.982 75.1352 282.848 79.2253Z" stroke="black" stroke-width="16" stroke-linecap="round" stroke-linejoin="round"/>
</svg>
