<svg width="512" height="512" viewBox="0 0 512 512" fill="none" xmlns="http://www.w3.org/2000/svg">
<path d="M405.923 207.833C419.712 204.869 431.333 200.576 439.501 195C421.245 200.52 408.801 183.954 392.54 162.307C370.944 133.557 342.616 95.8454 285 88.9999C244.881 84.2333 219.053 91.8289 205.92 105.996C191.354 98.524 170.519 99.0436 154.5 110.208C131.123 126.502 122.689 154.785 115.4 179.229C107.255 206.544 100.54 229.066 76 224.709C84.8518 228.912 93.8416 231.557 102.79 232.846C98.1448 236.949 91.6787 239.852 81.998 241C84.5 253.5 97.5 264.5 108.997 267C105.5 270.5 97 272 91.4987 271C110.997 334.5 175.35 334.5 250 334.5C334.669 334.5 392.501 332 421 262C415 262 403.5 260 398.999 257C414 252.5 428.499 231 429.999 215C419.158 214.362 411.745 211.722 405.923 207.833Z" stroke="black" stroke-width="16" stroke-linecap="round" stroke-linejoin="round"/>
</svg>
