<svg viewBox="0 0 512 512" fill="none" xmlns="http://www.w3.org/2000/svg">
<path d="M127.998 222C147.5 209 164.16 186.5 164.16 162.145C191.892 206.426 325.147 211.981 374.999 211.981C434.975 211.981 435.5 127.187 382.999 107.5C364.498 100.563 350.998 106.972 330 103.5C309.001 100.028 298.999 87.5 278.999 87.5C258.999 87.5 247.999 94.5 228.999 96.5C209.999 98.5 180.5 82 159.16 113.145C134.498 111.5 126.998 129.5 126.998 139.5C126.998 149.5 117.998 153 117.498 163.5C116.998 174 122.771 178 119.498 190C116.226 202 121.998 216.5 127.998 222Z" stroke="black" stroke-width="16" stroke-linecap="round" stroke-linejoin="round"/>
</svg>
