<svg width="512" height="512" viewBox="0 0 512 512" fill="none" xmlns="http://www.w3.org/2000/svg">
<path d="M362 170C376.999 177 380 222 384 222C388.001 222 400 166 397 152C394 138 382 136.5 371.5 126C361 115.5 365 106 353.5 99.5C342 93 325 99 313 95C301 91 303.5 79.5 288 78C272.501 76.5 261 80.5 248 82.5C235 84.5 219.5 75 207.5 79C195.5 83 195.5 94 186 98.5C176.5 103 165.001 100.5 154.001 106.5C143.001 112.5 146.5 123 139 132C131.5 141 119.669 146 115.001 160C110.333 174 123.999 222 128 222C132.001 222 140.501 173 150 170C185.253 158.867 329.373 154.773 362 170Z" stroke="black" stroke-width="16" stroke-linecap="round" stroke-linejoin="round"/>
</svg>
