<svg width="512" height="512" viewBox="0 0 512 512" fill="none" xmlns="http://www.w3.org/2000/svg">
<path d="M128.504 177.314C128.531 150.31 150.275 128 177.28 128H334.72C361.724 128 383.469 150.31 383.496 177.314C383.62 302.047 389.155 384 256 384C122.845 384 128.38 302.047 128.504 177.314Z" fill="#FF8474"/>
<path fill-rule="evenodd" clip-rule="evenodd" d="M153.398 346.953C171.478 370.808 202.577 384 256 384C384.045 384 383.841 308.216 383.526 191.483C383.513 186.824 383.501 182.101 383.496 177.314C383.478 159.854 374.382 144.356 360.654 135.582C365.609 143.31 368.486 152.502 368.496 162.314C368.501 167.101 368.513 171.824 368.526 176.483C368.841 293.216 369.045 369 241 369C200.114 369 172.304 361.273 153.398 346.953Z" fill="black" fill-opacity="0.15"/>
</svg>
