<svg width="512" height="512" viewBox="0 0 512 512" fill="none" xmlns="http://www.w3.org/2000/svg">
<path d="M128 176C128 149.49 149.49 128 176 128H336C362.51 128 384 149.49 384 176V268C384 332.065 332.065 384 268 384H244C179.935 384 128 332.065 128 268V176Z" fill="#FF8474"/>
<path fill-rule="evenodd" clip-rule="evenodd" d="M166.331 354.162C186.893 372.709 214.128 384 244 384H268C332.065 384 384 332.065 384 268V176C384 158.905 375.063 143.897 361.606 135.393C366.289 142.804 369 151.586 369 161V261C369 320.647 320.646 369 261 369H221C201.052 369 182.367 363.592 166.331 354.162Z" fill="black" fill-opacity="0.15"/>
</svg>
