<svg width="512" height="512" viewBox="0 0 512 512" fill="none" xmlns="http://www.w3.org/2000/svg">
<path d="M128 176C128 149.49 149.49 128 176 128H336C362.51 128 384 149.49 384 176V296C384 344.601 344.601 384 296 384H216C167.399 384 128 344.601 128 296V176Z" fill="#FF8474"/>
<path fill-rule="evenodd" clip-rule="evenodd" d="M150.942 355.259C167.037 372.918 190.224 384 216 384H296C344.601 384 384 344.601 384 296V176C384 158.905 375.063 143.897 361.607 135.393C366.29 142.804 369 151.586 369 161V285C369 331.392 331.392 369 285 369H197C179.994 369 164.168 363.946 150.942 355.259Z" fill="black" fill-opacity="0.15"/>
</svg>
