<svg width="512" height="512" viewBox="0 0 512 512" fill="none" xmlns="http://www.w3.org/2000/svg">
<path d="M128 176C128 149.49 149.49 128 176 128H336C362.51 128 384 149.49 384 176V288C384 341.019 341.019 384 288 384H224C170.981 384 128 341.019 128 288V176Z" fill="#FF8474"/>
<path fill-rule="evenodd" clip-rule="evenodd" d="M149.031 347.969C166.624 369.934 193.669 384 224 384H288C341.019 384 384 341.019 384 288V176C384 158.905 375.063 143.897 361.607 135.393C366.29 142.804 369 151.586 369 161V281C369 329.601 329.601 369 281 369H209C186.311 369 165.461 361.129 149.031 347.969Z" fill="black" fill-opacity="0.15"/>
</svg>
