<svg width="512" height="512" viewBox="0 0 512 512" fill="none" xmlns="http://www.w3.org/2000/svg">
<path d="M128 176C128 149.49 149.49 128 176 128H336C362.51 128 384 149.49 384 176V276C384 335.647 335.647 384 276 384H236C176.353 384 128 335.647 128 276V176Z" fill="#FF8474"/>
<path fill-rule="evenodd" clip-rule="evenodd" d="M163.083 355.67C182.296 373.264 207.894 384 236 384H276C335.646 384 384 335.647 384 276V176C384 158.905 375.063 143.897 361.606 135.393C366.289 142.804 369 151.586 369 161V269C369 324.228 324.228 369 269 369H213C194.82 369 177.773 364.149 163.083 355.67Z" fill="black" fill-opacity="0.15"/>
</svg>
