<svg viewBox="0 0 512 512" fill="none" xmlns="http://www.w3.org/2000/svg">
<path d="M256 83C285.5 83 318.5 102.5 357 116C394.559 129.17 397 160 384 224C371.354 218.835 359 186.5 370 170C331.064 176.542 297 196 256 196C215 196 180.936 176.542 142 170C155 197.5 136.646 212.835 128 224C115 160 117.441 129.17 155 116C193.5 102.5 226.5 83 256 83Z" fill="#FF0000"/>
<path fill-rule="evenodd" clip-rule="evenodd" d="M127.9 223.503C127.933 223.669 127.967 223.834 128.001 224C129.118 222.557 130.397 221.045 131.75 219.445C140.867 208.668 153.32 193.946 142 170C157.589 172.619 172.398 177.309 187.183 181.991C209.325 189.004 231.416 196 256 196C280.585 196 302.675 189.004 324.818 181.991C339.603 177.309 354.411 172.619 370 170C359.001 186.5 371.355 218.835 384 224C384.014 223.93 384.029 223.861 384.043 223.791C375.686 210.582 369.55 190.782 377.524 166.835C379.07 162.194 375.266 157.135 370.448 157.987C355.296 160.664 336.38 164.33 324.818 167.992C302.675 175.004 280.585 182 256 182C231.416 182 209.325 175.004 187.183 167.992C176.214 164.518 158.077 161.59 143.08 159.241C137.831 158.419 133.792 164.596 135.681 169.562C142.142 186.549 139.596 205.404 127.9 223.503Z" fill="black" fill-opacity="0.15"/>
</svg>
