<svg width="512" height="512" viewBox="0 0 512 512" fill="none" xmlns="http://www.w3.org/2000/svg">
<path d="M189.833 102.243C213.958 92.1436 235.799 83 256 83C276.2 83 298.042 92.1436 322.167 102.243C333.273 106.892 344.863 111.744 357 116C394.559 129.17 394.049 155.857 385.646 225.665C385.424 227.502 383.044 228.078 382.044 226.522C363.042 196.972 362.914 186.716 370 170C354.411 172.619 339.602 177.309 324.817 181.991C302.675 189.004 280.584 196 256 196C231.415 196 209.325 189.004 187.182 181.991C172.397 177.309 157.589 172.619 142 170C149.086 186.716 148.957 196.972 129.955 226.522C128.955 228.078 126.575 227.502 126.354 225.665C117.95 155.857 117.44 129.17 155 116C167.136 111.744 178.726 106.892 189.833 102.243Z" fill="#FF0000"/>
<path fill-rule="evenodd" clip-rule="evenodd" d="M189.833 102.243L189.833 102.243L189.832 102.243C178.726 106.892 167.136 111.744 155 116C143.53 120.022 135.61 125.305 130.381 132.691C136.288 125.193 144.356 119.733 155 116C167.137 111.745 178.727 106.893 189.833 102.243L189.833 102.243L189.833 102.243C213.958 92.1438 235.8 83.0003 256 83.0003C269.888 83.0003 284.551 87.322 300.199 93.3047C284.551 87.3218 269.887 83 256 83C235.799 83 213.958 92.1435 189.833 102.243ZM351.35 113.965C353.221 114.656 355.104 115.335 357 116C367.639 119.731 375.704 125.187 381.61 132.68C376.381 125.299 368.464 120.02 357 116C355.103 115.335 353.22 114.656 351.35 113.965ZM384.933 226.976C371.876 194.005 373.386 178.795 377.881 166.13C379.465 161.666 375.889 157.029 371.224 157.85C355.946 160.538 336.578 164.267 324.818 167.992C302.675 175.004 280.585 182 256 182C231.416 182 209.325 175.004 187.182 167.992C175.607 164.326 156.048 161.268 140.62 158.856L139.796 158.728C135.117 157.996 131.752 162.555 133.943 166.754C139.534 177.47 143.169 189.085 127.192 227.069C128.037 227.647 129.296 227.547 129.955 226.522C148.957 196.972 149.086 186.716 142 170C157.589 172.619 172.397 177.309 187.182 181.991L187.182 181.991C209.325 189.004 231.415 196 256 196C280.584 196 302.675 189.004 324.817 181.991C339.602 177.309 354.411 172.619 370 170C362.914 186.716 363.042 196.972 382.044 226.522C382.737 227.599 384.092 227.654 384.933 226.976Z" fill="black" fill-opacity="0.15"/>
</svg>
