<svg viewBox="0 0 512 512" fill="none" xmlns="http://www.w3.org/2000/svg">
<path d="M189.833 112.243C213.958 102.144 235.799 93 256 93C276.2 93 298.042 102.144 322.167 112.243C333.273 116.892 344.863 121.744 357 126C394.559 139.17 394.049 161.857 385.646 231.665C385.424 233.502 383.044 234.078 382.044 232.522C363.042 202.972 362.914 186.716 370 170C354.411 172.619 339.602 177.309 324.817 181.991C302.675 189.004 280.584 196 256 196C231.415 196 209.325 189.004 187.182 181.991C172.397 177.309 157.589 172.619 142 170C149.086 186.716 148.957 202.972 129.955 232.522C128.955 234.078 126.575 233.502 126.354 231.665C117.95 161.857 117.44 139.17 155 126C167.136 121.744 178.726 116.892 189.833 112.243Z" fill="#FF0000"/>
<path fill-rule="evenodd" clip-rule="evenodd" d="M126.761 232.666C127.534 233.651 129.17 233.744 129.956 232.522C148.958 202.972 149.086 186.716 142 170C157.589 172.619 172.397 177.309 187.182 181.992L187.182 181.992C209.325 189.004 231.416 196 256 196C280.585 196 302.675 189.004 324.818 181.992C339.603 177.309 354.411 172.62 370 170C362.914 186.716 363.043 202.972 382.044 232.522C382.839 233.757 384.502 233.649 385.265 232.633C372.702 201.732 373.738 181.552 378.263 166.273C379.608 161.731 375.888 157.029 371.224 157.85C355.946 160.538 336.578 164.267 324.818 167.992C302.675 175.004 280.585 182 256 182C231.416 182 209.325 175.004 187.182 167.992C175.607 164.326 156.048 161.268 140.62 158.856C140.344 158.813 140.07 158.77 139.796 158.728C135.117 157.996 131.606 162.628 133.472 166.981C139.1 180.109 142.629 195.692 126.761 232.666Z" fill="black" fill-opacity="0.15"/>
</svg>
