<svg viewBox="0 0 512 512" fill="none" xmlns="http://www.w3.org/2000/svg">
<path d="M189.833 102.243C213.958 92.1436 235.799 83 256 83C276.2 83 298.042 92.1436 322.167 102.243C333.273 106.892 344.863 111.744 357 116C394.559 129.17 392.404 154.192 384 224C371.354 218.835 359 186.5 370 170C354.411 172.619 339.603 177.309 324.818 181.991C302.675 189.004 280.584 196 256 196C231.416 196 209.325 189.004 187.182 181.991C172.397 177.309 157.589 172.619 142 170C155 197.5 136.646 212.835 128 224C119.597 154.192 117.441 129.17 155 116C167.137 111.744 178.727 106.892 189.833 102.243Z" fill="#FF0000"/>
<path fill-rule="evenodd" clip-rule="evenodd" d="M189.833 102.243L189.833 102.243L189.832 102.243C178.726 106.892 167.136 111.744 155 116C143.976 119.865 136.374 124.752 131.347 131.491C137.188 124.602 144.961 119.521 155 116C167.137 111.745 178.727 106.893 189.833 102.243L189.833 102.243L189.833 102.243C213.958 92.1438 235.8 83.0003 256 83.0003C276.2 83.0003 298.042 92.1438 322.167 102.243C333.273 106.893 344.864 111.745 357 116C367.037 119.52 374.809 124.599 380.649 131.486C375.622 124.749 368.02 119.864 357 116C344.863 111.744 333.273 106.892 322.167 102.243C298.042 92.1436 276.2 83 256 83C235.799 83 213.958 92.1435 189.833 102.243ZM384.028 223.768C375.679 210.559 369.555 190.768 377.524 166.835C379.07 162.194 375.266 157.135 370.448 157.987C355.296 160.664 336.38 164.33 324.818 167.992C302.675 175.004 280.585 182 256 182C231.416 182 209.325 175.004 187.182 167.992C176.214 164.518 158.077 161.59 143.08 159.241C137.831 158.419 133.792 164.596 135.681 169.562C142.135 186.532 139.601 205.368 127.934 223.45C127.956 223.633 127.978 223.816 128 224C129.118 222.557 130.397 221.045 131.75 219.445C140.866 208.668 153.32 193.946 142 170C157.589 172.619 172.397 177.309 187.182 181.991L187.182 181.991C209.325 189.004 231.416 196 256 196C280.584 196 302.675 189.004 324.818 181.991C339.603 177.309 354.411 172.619 370 170C359 186.5 371.354 218.835 384 224C384.009 223.923 384.019 223.845 384.028 223.768Z" fill="black" fill-opacity="0.15"/>
</svg>
