<svg viewBox="0 0 512 512" fill="none" xmlns="http://www.w3.org/2000/svg">
<path d="M349.68 163.962C309.323 198.82 160.402 219 115 219C80.4991 45.0001 396.5 77.0001 391 176.5C389.969 195.146 363.936 209.872 330 214C343.5 199.5 353 178.5 349.68 163.962Z" fill="#FF0000"/>
<path fill-rule="evenodd" clip-rule="evenodd" d="M125 203C177 203 325.5 177.5 350.5 144C357.5 165 356 185.5 344.5 200.5C355.574 199.024 378.094 191.824 390.331 180.712C385.935 197.339 361.337 210.188 330 214C343.5 199.5 353 178.5 349.68 163.962C309.323 198.82 160.402 219 115 219C108.397 185.702 114.631 159.948 128.991 140.767C122.233 157.534 120.323 178.125 125 203Z" fill="black" fill-opacity="0.15"/>
</svg>
