<svg viewBox="0 0 512 512" fill="none" xmlns="http://www.w3.org/2000/svg">
<path d="M168 154.5C233 236.5 337.5 80 384 219.5C465.999 46.5 62.0001 31.5001 129 223C134 173.5 168 207.5 168 154.5Z" fill="#FF0000"/>
<path fill-rule="evenodd" clip-rule="evenodd" d="M268.969 152.679C230.524 163.861 191.175 175.305 162.001 138.5C162.001 174.814 153.469 178.128 144.534 181.598C137.723 184.244 130.678 186.98 127.001 204.5C124.532 197.444 122.709 190.671 121.481 184.178C121.706 196.02 124.086 208.955 129 223C131.427 198.974 140.686 194.619 149.573 190.44C158.996 186.009 168 181.775 168 154.5C197.16 191.286 234.269 180.074 270.524 169.12C315.087 155.655 358.36 142.581 384 219.5C391.426 203.833 394.866 189.461 395.031 176.422C393.291 184.673 390.328 193.369 386 202.5C362.025 125.614 316.178 138.948 268.969 152.679Z" fill="black" fill-opacity="0.15"/>
</svg>
