<svg viewBox="0 0 512 512" fill="none" xmlns="http://www.w3.org/2000/svg">
<path d="M168 154.5C233 236.5 336.5 80 383 219.5C465 46.5 62.0002 31.5001 129 223C134 173.5 168 207.5 168 154.5Z" fill="#FF0000"/>
<path fill-rule="evenodd" clip-rule="evenodd" d="M267.822 152.722C229.819 163.89 191.138 175.257 162.001 138.5C163.885 174.301 154.901 176.336 145.502 178.466C137.442 180.292 129.078 182.187 127.001 205.5C124.54 198.466 122.72 191.711 121.493 185.233C121.844 196.788 124.232 209.371 129 223C131.427 198.974 140.686 194.619 149.573 190.44C158.996 186.009 168 181.775 168 154.5C197.165 191.292 234.08 180.07 270.12 169.114C314.403 155.652 357.364 142.592 383 219.5C389.476 205.837 392.927 193.159 393.823 181.491C392.036 188.212 389.452 195.217 386 202.5C360.345 125.533 314.598 138.976 267.822 152.722Z" fill="black" fill-opacity="0.15"/>
</svg>
