<svg viewBox="0 0 512 512" fill="none" xmlns="http://www.w3.org/2000/svg">
<path d="M168 154.5C233 236.5 336.5 80 383 219.5C465 46.5 62.0002 31.5001 129 223C134 173.5 168 207.5 168 154.5Z" fill="#FF0000"/>
<path fill-rule="evenodd" clip-rule="evenodd" d="M267.822 152.722C229.819 163.89 191.138 175.257 162.001 138.5C162.001 174.814 153.468 178.128 144.534 181.598C137.723 184.244 130.677 186.98 127.001 204.5C124.521 197.412 122.692 190.609 121.464 184.088C121.688 195.955 124.074 208.919 129 223C131.427 198.974 140.686 194.619 149.573 190.44C158.996 186.009 168 181.775 168 154.5C197.165 191.292 234.08 180.07 270.12 169.114C314.403 155.652 357.364 142.592 383 219.5C389.477 205.834 392.928 193.154 393.824 181.484C392.036 188.209 389.452 195.216 386 202.5C360.344 125.533 314.597 138.976 267.822 152.722Z" fill="black" fill-opacity="0.15"/>
</svg>
