<svg viewBox="0 0 512 512" fill="none" xmlns="http://www.w3.org/2000/svg">
<circle cx="256" cy="87" r="37" fill="#FF0000"/>
<path fill-rule="evenodd" clip-rule="evenodd" d="M220.331 96.8693C224.65 112.512 238.983 124 256 124C273.017 124 287.351 112.513 291.669 96.8694C280.68 95.296 268.621 94 256 94C243.379 94 231.32 95.2959 220.331 96.8693Z" fill="black" fill-opacity="0.15"/>
<path d="M127 223.5C196.499 223.5 299.5 201.5 317 157C317 202 363 223.5 384.5 223.5C417 126 311.697 105 256 105C167.85 105 99.4996 130 127 223.5Z" fill="#FF0000"/>
<path fill-rule="evenodd" clip-rule="evenodd" d="M320 141C302.5 185.5 199.499 208.5 130 208.5C124.696 190.469 122.958 174.985 124.238 161.737C119.134 177.876 119.551 198.175 127 223.5C196.499 223.5 299.5 201.5 317 157C317 202 363 223.5 384.5 223.5C387.213 215.36 388.966 207.753 389.867 200.647C389.179 203.208 388.391 205.825 387.5 208.5C366 208.5 320 186 320 141Z" fill="black" fill-opacity="0.15"/>
</svg>
