<svg viewBox="0 0 512 512" fill="none" xmlns="http://www.w3.org/2000/svg">
<path d="M313 87.9999C313 108.434 299 126 256 126C213 126 199 108.434 199 87.9999C199 67.5654 230 79.9999 256 79.9999C282 79.9999 313 67.5654 313 87.9999Z" fill="#FF0000"/>
<path fill-rule="evenodd" clip-rule="evenodd" d="M200.542 98.9861C205.195 114.349 220.98 126 256 126C291.02 126 306.805 114.349 311.458 98.9861C309.935 98.7418 308.376 98.4876 306.782 98.2278C292.194 95.8495 274.715 93 256 93C237.286 93 219.807 95.8495 205.218 98.2278C203.624 98.4876 202.065 98.7418 200.542 98.9861Z" fill="black" fill-opacity="0.15"/>
<path d="M127 223.5C196.499 223.5 299.5 201.5 317 157C317 202 363.501 223.5 385 223.5C420.5 121.5 311.697 105 256 105C167.85 105 99.4996 130 127 223.5Z" fill="#FF0000"/>
<path fill-rule="evenodd" clip-rule="evenodd" d="M320 141C302.5 185.5 199.499 208.5 130 208.5C124.696 190.469 122.958 174.985 124.238 161.737C119.134 177.876 119.551 198.175 127 223.5C196.499 223.5 299.5 201.5 317 157C317 202 363.501 223.5 385 223.5C388.959 212.126 391.123 201.814 391.767 192.471C390.774 197.569 389.363 202.909 387.5 208.5C366 208.5 320 186 320 141Z" fill="black" fill-opacity="0.15"/>
</svg>
