<svg viewBox="0 0 512 512" fill="none" xmlns="http://www.w3.org/2000/svg">
<path d="M256 190.5C216.5 190.5 156.3 179 145.5 169C150 188.5 143.5 209.5 128 224C109.5 134 140 102 232.5 85C223.5 94 219.5 103.5 216.5 113.5C240 91 259.5 78 297.5 78C287 90 290 115.5 300 123.5C304 114.5 304 105 302 93.5C388.5 109 399 152.5 384 224C368 211.5 359 195.5 366.5 169C355.7 179 295.5 190.5 256 190.5Z" fill="#FF0000"/>
<path fill-rule="evenodd" clip-rule="evenodd" d="M300.179 123.092C300.288 122.837 300.395 122.582 300.498 122.326C300.405 122.576 300.299 122.831 300.179 123.092ZM297.5 78C287.005 89.9949 289.998 115.478 299.988 123.49C299.012 125.436 297.286 127.714 294.501 130.5C277.695 123.866 278.883 90.2426 286.301 78.4115C289.854 78.1385 293.578 78 297.5 78ZM232.5 85C228.872 85.6669 225.338 86.3569 221.9 87.0725C212.208 97.4759 208.409 109.869 207.5 123.5C210.483 119.99 213.59 116.542 216.538 113.372C219.534 103.419 223.539 93.9615 232.5 85ZM263.034 176.501C223.534 176.501 149.301 166.5 138.501 156.5L138.53 156.667C141.66 174.552 144.723 192.052 126.262 214.894C126.783 217.861 127.362 220.896 128 224C143.501 209.5 150.001 188.5 145.5 169C156.301 179 216.5 190.5 256 190.5C295.5 190.5 355.7 179 366.5 169C359.001 195.5 368.001 211.5 384 224C384.692 220.701 385.33 217.462 385.909 214.282C364.335 199.022 371.975 167.65 374.979 155.315C375.191 154.445 375.38 153.669 375.534 153.001C364.734 163.001 302.534 176.501 263.034 176.501Z" fill="black" fill-opacity="0.15"/>
</svg>
