<svg viewBox="0 0 512 512" fill="none" xmlns="http://www.w3.org/2000/svg">
<path d="M144 155C148.5 174.5 143.5 209.5 127.999 224C94.9999 103 208.5 107 256 107C303.5 107 416.5 99.5001 383.999 224C368 211.5 360.5 182.5 368 156C303 197.5 193 188.5 144 155Z" fill="#FF0000"/>
<path fill-rule="evenodd" clip-rule="evenodd" d="M126.303 217.349C142.751 198.309 141.714 165.708 139.501 148C206.001 180 305.501 180 373.5 149C366.778 172.752 368.892 202.529 385.604 217.45C385.115 219.592 384.581 221.775 384 224C368 211.5 360.5 182.5 368 156C303 197.5 193 188.5 144 155C148.5 174.5 143.5 209.5 128 224C127.384 221.74 126.818 219.523 126.303 217.349Z" fill="black" fill-opacity="0.15"/>
<path d="M387.991 135.908C378 214.5 81.991 230.5 127.491 86.7083C167 163.5 403.933 10.5001 387.991 135.908Z" fill="#FF0000"/>
<path fill-rule="evenodd" clip-rule="evenodd" d="M127.526 86.7772C103.81 215.512 366.331 195.893 375.991 119.908C377.432 108.568 376.933 99.5224 374.803 92.3934C385.588 99.9118 390.847 113.443 387.991 135.908C378 214.5 81.991 230.5 127.491 86.7083C127.503 86.7313 127.514 86.7543 127.526 86.7772Z" fill="black" fill-opacity="0.15"/>
</svg>
