<svg viewBox="0 0 512 512" fill="none" xmlns="http://www.w3.org/2000/svg">
<path d="M144 155C148.5 174.5 143.5 209.5 127.999 224C94.9999 103 208.5 118 256 118C303.5 118 416.5 99.5003 383.999 224C368 211.5 360.5 182.5 368 156C303 197.5 193 188.5 144 155Z" fill="#FF0000"/>
<path fill-rule="evenodd" clip-rule="evenodd" d="M126.303 217.349C142.751 198.309 141.714 165.708 139.501 148C206.001 180 305.501 180 373.5 149C366.778 172.752 368.892 202.529 385.604 217.45C385.115 219.592 384.581 221.775 384 224C368 211.5 360.5 182.5 368 156C303 197.5 193 188.5 144 155C148.5 174.5 143.5 209.5 128 224C127.384 221.74 126.818 219.523 126.303 217.349Z" fill="black" fill-opacity="0.15"/>
<path d="M387.99 142.908C377.999 221.5 81.99 237.5 127.49 93.7083C166.999 170.5 403.932 17.5001 387.99 142.908Z" fill="#FF0000"/>
<path fill-rule="evenodd" clip-rule="evenodd" d="M127.525 93.777C103.809 222.512 366.33 202.893 375.99 126.908C377.431 115.567 376.932 106.522 374.802 99.3932C385.587 106.912 390.846 120.443 387.99 142.908C377.999 221.5 81.99 237.5 127.49 93.708C127.502 93.731 127.513 93.754 127.525 93.777Z" fill="black" fill-opacity="0.15"/>
</svg>
