<svg viewBox="0 0 512 512" fill="none" xmlns="http://www.w3.org/2000/svg">
<path d="M153.999 155C159 188.5 144.5 209 127.999 224C103 113.5 175 97 256 97C336.999 97 410 117.5 383.999 224L383.728 223.772C371.306 213.339 357.999 202.164 357.999 156C286 186.5 226 185.5 153.999 155Z" fill="#FF0000"/>
<path fill-rule="evenodd" clip-rule="evenodd" d="M126.128 214.953C142.019 199.915 152.885 176.73 147.999 144C219.999 174.5 291.999 175.5 363.999 145C363.999 190.227 373.933 204.709 385.977 215.13C385.396 218.018 384.737 220.974 383.999 224L383.728 223.772C371.305 213.339 357.999 202.164 357.999 156C285.999 186.5 225.999 185.5 153.999 155C159 188.5 144.5 209 127.999 224C127.3 220.911 126.677 217.896 126.128 214.953Z" fill="black" fill-opacity="0.15"/>
</svg>
