<svg viewBox="0 0 512 512" fill="none" xmlns="http://www.w3.org/2000/svg">
<path d="M229.501 178.5C245.502 174.5 324.596 154.504 326.001 115C329.151 26.4586 21.0003 61.5001 102.501 297C109.001 214 153.501 173.5 232.501 160C231.002 164 229.501 170 229.501 178.5Z" fill="#FF0000"/>
<path fill-rule="evenodd" clip-rule="evenodd" d="M232.482 160.003C153.494 173.507 109 214.007 102.501 297C89.9072 260.61 86.6174 229.006 90.0452 201.905C89.1477 224.897 92.5598 250.87 101.5 280C107.999 197 160 156 239.001 142.5C238.639 143.464 238.133 144.863 237.537 146.509C236.108 150.457 234.165 155.824 232.482 160.003ZM231.394 163.402C230.342 167.173 229.501 172.136 229.501 178.5C245.502 174.5 324.596 154.503 326.001 115C326.13 111.392 325.741 107.989 324.883 104.797C321.424 141.343 253.159 158.068 233.403 162.908C232.663 163.089 231.992 163.254 231.394 163.402Z" fill="black" fill-opacity="0.15"/>
<path d="M431.998 215.5C380.5 204 380.5 92.0001 332 90.5001C265.488 88.443 308.499 215.5 431.998 215.5Z" fill="#FF0000"/>
<path fill-rule="evenodd" clip-rule="evenodd" d="M302.082 130.282C314.27 162.291 352.4 198.941 412.449 204.716C418.077 210.011 424.49 213.823 431.998 215.5C355.604 215.5 310.007 166.882 302.082 130.282Z" fill="black" fill-opacity="0.15"/>
</svg>
