<svg viewBox="0 0 512 512" fill="none" xmlns="http://www.w3.org/2000/svg">
<path fill-rule="evenodd" clip-rule="evenodd" d="M395 214C356 207.5 325 191 305 169C307.5 177 310.5 188.5 310.5 200.5C275.5 197.5 239 190 200 158C189.5 188 171.5 202.5 112 208C126.5 40 417.001 66.9999 395 214Z" fill="#FF0000"/>
<path fill-rule="evenodd" clip-rule="evenodd" d="M383.953 211.847C350.129 204.27 323.073 188.88 305 169C307.5 177 310.5 188.5 310.5 200.5C275.5 197.5 239 190 200 158C190.521 185.083 174.93 199.533 128.213 206.134C180.507 195.054 192.002 167.765 195.998 146C234.998 178 269.498 186.5 304.498 189.5C304.498 178.5 301 164.5 296.998 155C314.449 174.197 349.415 201.008 383.953 211.847Z" fill="black" fill-opacity="0.15"/>
</svg>
