<svg viewBox="0 0 512 512" fill="none" xmlns="http://www.w3.org/2000/svg">
<path d="M229.5 178.5C245.501 174.5 324.595 154.504 326 115C328.257 51.5835 128 46.5001 108.501 166.5C90.0001 198 80.0004 241 102.5 297C109 214 153.5 173.5 232.5 160C231.001 164 229.5 170 229.5 178.5Z" fill="#FF0000"/>
<path fill-rule="evenodd" clip-rule="evenodd" d="M232.444 160.01C153.479 173.519 108.999 214.02 102.501 297C95.8139 280.356 92.8809 264.861 92.5469 250.475C93.9332 261.087 96.7824 272.258 101.5 284C108 201 159.5 160.5 238.5 147C237.606 149.146 236.584 151.228 235.548 153.338C234.486 155.5 233.411 157.691 232.444 160.01ZM230.885 165.404C230.083 168.879 229.501 173.205 229.501 178.5C245.502 174.5 324.501 154.5 326.001 115C326.122 111.813 325.633 108.78 324.599 105.913C318.448 142.527 247.128 161.33 230.885 165.404Z" fill="black" fill-opacity="0.15"/>
<path d="M431.998 215.5C380.5 204 380.5 92.0001 332 90.5001C265.488 88.443 308.499 215.5 431.998 215.5Z" fill="#FF0000"/>
<path fill-rule="evenodd" clip-rule="evenodd" d="M302.082 130.282C314.27 162.291 352.4 198.941 412.449 204.716C418.077 210.011 424.49 213.823 431.998 215.5C355.604 215.5 310.007 166.882 302.082 130.282Z" fill="black" fill-opacity="0.15"/>
</svg>
