<svg viewBox="0 0 512 512" fill="none" xmlns="http://www.w3.org/2000/svg">
<path d="M120.138 226C100 142.5 157.637 98 259.638 98C361.639 98 414 152 391.138 239.5C366.138 218.5 358.638 189 362.138 166C295.138 268.5 194.5 121 120.138 226Z" fill="#FF0000"/>
<path fill-rule="evenodd" clip-rule="evenodd" d="M120.046 225.619C120.076 225.746 120.107 225.873 120.137 226C120.82 225.035 121.506 224.092 122.193 223.17C121.478 223.973 120.763 224.789 120.046 225.619ZM158.849 192.379C186.478 180.392 215.993 187.933 245.053 195.358C287.481 206.197 328.938 216.789 362.137 166C359.297 184.662 363.699 207.602 378.815 226.81C361.934 197.963 364.24 171.041 367.138 152C332.707 200.252 296.543 192.971 257.455 185.1C226.604 178.889 193.93 172.31 158.849 192.379Z" fill="black" fill-opacity="0.15"/>
</svg>
