<svg viewBox="0 0 512 512" fill="none" xmlns="http://www.w3.org/2000/svg">
<path d="M128 246.5C85 154 157.637 100 259.638 100C361.639 100 414 152 391.138 239.5C366.138 218.5 358.638 189 362.138 166C295.138 268.5 128 117 128 246.5Z" fill="#FF0000"/>
<path fill-rule="evenodd" clip-rule="evenodd" d="M128.924 231.177C135.537 181.09 176.806 188.44 224.619 196.956C273.699 205.697 329.674 215.666 362.138 166C358.638 189 366.138 218.5 391.138 239.5C391.145 239.474 391.152 239.448 391.158 239.422C365.514 197.281 365.76 173.208 369.139 151C333.99 200.258 279.436 191.103 231.101 182.992C179.961 174.41 135.784 166.996 128.924 231.177Z" fill="black" fill-opacity="0.15"/>
</svg>
