<svg viewBox="0 0 512 512" fill="none" xmlns="http://www.w3.org/2000/svg">
<path d="M120.138 226C100 142.5 157.637 98 259.638 98C361.639 98 414 152 391.138 239.5C366.138 218.5 358.638 189 362.138 166C295.138 268.5 194.5 121 120.138 226Z" fill="#FF0000"/>
<path fill-rule="evenodd" clip-rule="evenodd" d="M120.388 225.647C157.849 173.078 201.952 184.346 245.053 195.358C287.481 206.197 328.938 216.789 362.137 166C358.637 189 366.137 218.5 391.137 239.5C391.144 239.474 391.151 239.448 391.157 239.422C365.513 197.281 365.759 173.208 369.139 151C332.932 201.74 284.956 191.989 239.401 182.729C191.602 173.013 146.468 163.839 120.388 225.647Z" fill="black" fill-opacity="0.15"/>
</svg>
