<svg viewBox="0 0 512 512" fill="none" xmlns="http://www.w3.org/2000/svg">
<path d="M256 82C289.5 82 336 60 336 104.5C336 149 286.5 117 256 117C225.5 117 176 149 176 104.5C176 60 222.5 82 256 82Z" fill="#FF0000"/>
<path fill-rule="evenodd" clip-rule="evenodd" d="M335.981 106.036C335.186 135.504 311.219 129.176 286.565 122.666C275.899 119.85 265.104 117 256.002 117C246.899 117 236.104 119.85 225.438 122.666C200.594 129.226 176.447 135.602 176.008 105.346C197.475 98.6624 224.158 95.4814 256.001 95.4814C287.862 95.4814 314.558 98.8286 335.981 106.036Z" fill="black" fill-opacity="0.15"/>
<path d="M168.001 174C211.501 236.5 384.501 112.481 387.001 298C416.502 148 381.001 108.481 256.001 108.481C131.001 108.481 96.5008 156 125.001 279C121.501 204 172.501 237.5 168.001 174Z" fill="#FF0000"/>
<path fill-rule="evenodd" clip-rule="evenodd" d="M250.236 177.824C213.516 180.671 179.236 183.329 162.999 160C165.165 190.568 154.469 198.658 143.184 207.194C132.275 215.446 120.815 224.114 119.887 253.906C121.266 261.896 122.974 270.257 124.999 279C123.184 240.104 136.027 230.39 148.185 221.194C159.47 212.658 170.165 204.568 167.999 174C184.236 197.329 218.516 194.671 255.237 191.824C302.37 188.169 353.525 184.203 375.709 234.478C357.233 169.528 301.368 173.859 250.236 177.824ZM385.173 270.75C386.241 278.994 386.865 288.052 387 298C403.466 214.273 399.68 164.968 371.382 137.744C393.552 169.766 397.268 215.75 385.173 270.75Z" fill="black" fill-opacity="0.15"/>
</svg>
