<svg viewBox="0 0 512 512" fill="none" xmlns="http://www.w3.org/2000/svg">
<path d="M256 56C289.5 56 336 34 336 78.5C336 123 286.5 91 256 91C225.5 91 176 123 176 78.5C176 34 222.5 56 256 56Z" fill="#FF0000"/>
<path fill-rule="evenodd" clip-rule="evenodd" d="M334.828 88.8065C329.685 108.052 308.394 102.43 286.564 96.6664C275.897 93.8501 265.103 90.9999 256 90.9999C246.898 90.9999 236.103 93.8501 225.436 96.6664C202.343 102.764 179.853 108.702 176.444 85.2108C197.836 78.6195 224.374 75.4814 256.001 75.4814C288.054 75.4814 314.189 80.0526 334.828 88.8065Z" fill="black" fill-opacity="0.15"/>
<path d="M168 159C211.5 221.5 384.5 97.4814 387.001 283C417 167 381 87.4814 256 87.4814C131.001 87.4814 87.5005 146.5 125 264C121.5 189 172.5 222.5 168 159Z" fill="#FF0000"/>
<path fill-rule="evenodd" clip-rule="evenodd" d="M250.237 162.824C213.516 165.671 179.237 168.329 163 145C165.166 175.568 154.47 183.658 143.185 192.194C131.413 201.098 118.999 210.488 119.871 246.384C121.368 252.102 123.078 257.974 125.001 264C123.185 225.104 136.028 215.39 148.186 206.194C159.472 197.658 170.167 189.568 168.001 159C184.238 182.329 218.518 179.671 255.239 176.824C302.37 173.169 353.523 169.203 375.709 219.473C357.231 154.528 301.368 158.859 250.237 162.824ZM385.174 255.748C386.243 263.993 386.867 273.051 387.001 283C400.217 231.899 400.624 187.877 386.257 154.614C394.369 182.691 393.699 216.98 385.174 255.748Z" fill="black" fill-opacity="0.15"/>
</svg>
