<svg viewBox="0 0 512 512" fill="none" xmlns="http://www.w3.org/2000/svg">
<path d="M302 194C359 194 408 177 408 132.5C408 50.5001 317 98.6221 223.5 92.5C158.76 88.2611 120.816 111.709 120 161.5C119.5 192 129 225.5 129 225.5C129 225.5 124 189.5 149 178C174 166.5 245 194 302 194Z" fill="#FF0000"/>
<path fill-rule="evenodd" clip-rule="evenodd" d="M381 122.5C381 167 354 179 297 179C272.188 179 244.724 174.547 219.556 170.467C186.905 165.173 158.118 160.506 144 167C128.808 173.989 124.694 190.394 123.805 202.191C126.263 215.849 129 225.5 129 225.5C129 225.5 124 189.5 149 178C162.691 171.702 190.179 177.101 221.608 183.274C247.568 188.373 276.216 194 302 194C359 194 408 177 408 132.5C408 100.229 393.906 88.1117 371.113 84.9097C377.537 92.2917 381 104.131 381 122.5Z" fill="black" fill-opacity="0.15"/>
</svg>
