<svg viewBox="0 0 512 512" fill="none" xmlns="http://www.w3.org/2000/svg">
<path fill-rule="evenodd" clip-rule="evenodd" d="M167 198C172.964 198 178.702 197.275 184.065 195.936C197.167 203.988 215.592 209 236 209C258.495 209 278.581 202.91 291.784 193.372C302.971 202.942 319.526 209 338 209C371.689 209 399 188.853 399 164C399 143.743 380.855 126.612 355.902 120.969C350.837 101.585 328.853 87 302.5 87C285.701 87 270.678 92.9269 260.68 102.245C250.717 92.8749 236.404 87 220.5 87C197.331 87 177.539 99.4678 169.653 117.048C168.774 117.016 167.889 117 167 117C137.177 117 113 135.132 113 157.5C113 179.868 137.177 198 167 198Z" fill="#FF0000"/>
<path fill-rule="evenodd" clip-rule="evenodd" d="M169.55 177.936C163.999 179.275 158.06 180 151.888 180C138.138 180 125.547 176.402 115.812 170.433C123.007 186.459 143.207 198 167 198C172.964 198 178.702 197.275 184.065 195.936C197.167 203.988 215.592 209 236 209C258.495 209 278.581 202.91 291.784 193.372C302.971 202.942 319.526 209 338 209C371.689 209 399 188.853 399 164C399 156.349 396.412 149.145 391.846 142.836C391.948 143.881 392 144.936 392 146C392 170.853 363.734 191 328.867 191C309.747 191 292.613 184.942 281.035 175.372C267.371 184.91 246.582 191 223.301 191C202.179 191 183.11 185.988 169.55 177.936Z" fill="black" fill-opacity="0.15"/>
</svg>
