<svg viewBox="0 0 512 512" fill="none" xmlns="http://www.w3.org/2000/svg">
<path fill-rule="evenodd" clip-rule="evenodd" d="M118.959 208C177.96 208 282.82 215.648 341.5 167.5C337.5 175.5 335.5 184 334.459 192.5C358.253 192.5 377.501 184.5 393.959 172C371.5 59.0001 106 59.5001 118.959 208Z" fill="#FF0000"/>
<path fill-rule="evenodd" clip-rule="evenodd" d="M168.783 208.444C226.203 208.422 297.081 203.946 341.5 167.5C337.5 175.5 335.5 184 334.459 192.5C347.76 192.5 359.641 190 370.408 185.611C357.253 189.677 347.556 188.936 343.501 188C344.542 179.5 350.505 157.5 354.505 149.5C298.902 187.605 242.088 201.218 168.783 208.444Z" fill="black" fill-opacity="0.15"/>
</svg>
