<svg width="512" height="512" viewBox="0 0 512 512" fill="none" xmlns="http://www.w3.org/2000/svg">
<path fill-rule="evenodd" clip-rule="evenodd" d="M118.959 208C177.96 208 282.82 215.648 341.5 167.5C335.5 175.5 330.5 188 329.459 196.5C353.253 196.5 378 194.5 393.959 183C393.959 69.5 106 59.4999 118.959 208Z" fill="#FF0000"/>
<path fill-rule="evenodd" clip-rule="evenodd" d="M143.483 208.24C210.872 204.502 306.908 191.611 353.257 153.581C347.257 161.58 340.798 184.081 339.757 192.581C340.202 192.602 340.686 192.626 341.206 192.651C349.603 193.069 367.545 193.96 387.846 186.744C372.07 194.951 350.395 196.5 329.458 196.5C330.499 188 335.499 175.5 341.499 167.5C290.275 209.529 203.863 209.043 143.483 208.24Z" fill="black" fill-opacity="0.15"/>
</svg>
