<svg viewBox="0 0 512 512" fill="none" xmlns="http://www.w3.org/2000/svg">
<path d="M397.218 194.025C389.254 196.551 380.817 198.817 372 200.831C370.183 201.246 368.349 185.65 366.5 186.044C364.517 186.466 362.517 202.876 360.5 203.274C347.436 205.85 333.676 207.916 319.5 209.496C317.343 209.736 315.176 179.966 313 180.184C310.511 180.433 308.01 210.668 305.5 210.888C278.913 213.221 252.177 213.904 225.5 213.196C222.994 213.129 220.494 192.05 218 191.959C215.996 191.885 213.995 212.803 212 212.714C194.977 211.948 177.938 210.66 161 208.599C159.499 208.416 157.999 188.227 156.5 188.032C154.999 187.837 153.499 207.635 152 207.427C139.077 205.635 126.226 203.363 113.5 200.5C122 70.9999 392 66.9999 397.218 194.025Z" fill="#FF0000"/>
<path fill-rule="evenodd" clip-rule="evenodd" d="M155.176 192.027C155.617 189.645 156.058 187.975 156.499 188.032C157.248 188.13 157.998 193.22 158.747 198.311C159.498 203.408 160.248 208.507 160.999 208.599C177.937 210.66 194.976 211.948 211.999 212.714C212.996 212.758 213.994 207.559 214.993 202.354C215.994 197.141 216.996 191.922 217.999 191.959C219.244 192.005 220.49 197.279 221.738 202.559C222.99 207.858 224.244 213.163 225.499 213.196C252.176 213.904 278.912 213.221 305.499 210.888C306.758 210.778 308.014 203.124 309.267 195.486C310.514 187.889 311.758 180.308 312.999 180.184C314.089 180.075 315.176 187.488 316.262 194.886C317.343 202.259 318.422 209.616 319.499 209.496C333.675 207.916 347.435 205.85 360.499 203.274C361.513 203.074 362.522 198.829 363.528 194.602C364.522 190.419 365.513 186.254 366.499 186.044C367.427 185.847 368.35 189.674 369.27 193.484C370.184 197.269 371.093 201.038 371.999 200.831C373.281 200.538 374.555 200.24 375.821 199.937C374.845 198.426 373.438 194.135 372.028 189.831C370.23 184.349 368.426 178.846 367.499 179.044C366.513 179.254 365.522 183.419 364.528 187.602C363.522 191.829 362.513 196.074 361.499 196.274C348.435 198.85 334.675 200.916 320.499 202.496C319.422 202.616 318.343 195.259 317.262 187.886C316.176 180.488 315.089 173.074 313.999 173.184C312.758 173.308 311.514 180.889 310.267 188.486C309.014 196.124 307.758 203.778 306.499 203.888C279.912 206.221 253.176 206.904 226.499 206.196C225.244 206.163 223.99 200.858 222.738 195.559C221.49 190.278 220.244 185.004 218.999 184.959C217.996 184.922 216.994 190.141 215.993 195.354C214.994 200.559 213.996 205.758 212.999 205.714C195.976 204.948 178.937 203.66 161.999 201.599C161.248 201.507 160.498 196.408 159.747 191.311C158.998 186.22 158.248 181.13 157.499 181.032C156.856 180.948 156.029 186.113 155.176 192.027Z" fill="black" fill-opacity="0.15"/>
</svg>
