<svg viewBox="0 0 512 512" fill="none" xmlns="http://www.w3.org/2000/svg">
<path d="M397.218 184.025C389.254 186.551 380.817 188.817 372 190.831C370.183 191.246 368.349 175.65 366.5 176.044C364.517 176.466 362.517 192.876 360.5 193.274C347.436 195.85 333.676 197.916 319.5 199.496C317.343 199.736 315.176 169.966 313 170.184C310.511 170.433 308.01 200.668 305.5 200.888C278.913 203.221 252.177 203.904 225.5 203.196C222.994 203.129 220.494 182.05 218 181.959C215.996 181.885 213.995 202.803 212 202.714C194.977 201.948 177.938 200.66 161 198.599C159.499 198.416 157.999 178.227 156.5 178.032C154.999 177.837 153.499 197.635 152 197.427C139.077 195.635 126.226 193.363 113.5 190.5C122 60.9999 392 56.9999 397.218 184.025Z" fill="#FF0000"/>
<path d="M155.176 182.027C155.617 179.645 156.058 177.975 156.499 178.032C157.998 178.227 159.498 198.416 160.999 198.599C177.937 200.66 194.976 201.948 211.999 202.714C213.994 202.803 215.995 181.885 217.999 181.959C220.493 182.05 222.993 203.13 225.499 203.196C252.176 203.904 278.912 203.221 305.499 200.888C308.009 200.668 310.51 170.433 312.999 170.184C315.175 169.966 317.342 199.737 319.499 199.496C333.675 197.916 347.435 195.85 360.499 193.274C362.516 192.876 364.516 176.466 366.499 176.044C368.348 175.65 370.182 191.246 371.999 190.831C373.281 190.538 374.555 190.24 375.821 189.937C373.603 186.501 370.5 168.5 367.499 169.044C364.498 169.588 362.517 186.602 360.5 187C347.436 189.577 334.675 190.916 320.499 192.496C318.342 192.736 318.51 162.57 313.999 163.184C308 164 307.009 193.668 304.499 193.888C277.912 196.221 253.176 196.904 226.499 196.196C225.244 196.163 223.99 190.858 222.738 185.559C221.49 180.278 220.5 174.5 217.999 174.959C213.14 175.85 212.994 195.803 210.999 195.714C193.976 194.948 179.937 193.66 162.999 191.599C161.498 191.416 161 170.5 157.499 171.032C156.509 171.183 156.029 176.113 155.176 182.027Z" fill="black" fill-opacity="0.15"/>
</svg>
