<svg viewBox="0 0 512 512" fill="none" xmlns="http://www.w3.org/2000/svg">
<path d="M397.218 184.025C389.254 186.551 380.817 188.817 372 190.831C370.182 191.246 368.349 175.65 366.5 176.044C364.517 176.466 362.517 192.876 360.5 193.274C347.436 195.85 333.676 197.916 319.5 199.496C317.343 199.736 315.176 169.966 313 170.184C310.511 170.433 308.01 200.668 305.5 200.888C278.913 203.221 252.177 203.904 225.5 203.196C222.994 203.129 220.494 182.05 218 181.959C215.996 181.885 213.995 202.803 212 202.714C194.977 201.948 177.938 200.66 161 198.599C159.499 198.416 157.999 178.227 156.5 178.032C154.999 177.837 153.499 197.635 152 197.427C139.077 195.635 126.226 193.363 113.5 190.5C122 60.9999 392 56.9999 397.218 184.025Z" fill="#FF0000"/>
<path fill-rule="evenodd" clip-rule="evenodd" d="M155.176 182.027C155.617 179.645 156.058 177.975 156.499 178.032C157.248 178.13 157.998 183.22 158.747 188.311C159.498 193.408 160.248 198.507 160.999 198.599C177.937 200.66 194.976 201.948 211.999 202.714C212.996 202.758 213.994 197.559 214.993 192.354C215.994 187.141 216.996 181.922 217.999 181.959C219.244 182.005 220.49 187.279 221.738 192.559C222.99 197.858 224.244 203.163 225.499 203.196C252.176 203.904 278.912 203.221 305.499 200.888C306.758 200.778 308.014 193.124 309.267 185.486C310.514 177.889 311.758 170.308 312.999 170.184C314.089 170.075 315.176 177.488 316.262 184.886C317.343 192.259 318.422 199.616 319.499 199.496C333.675 197.916 347.435 195.85 360.499 193.274C361.513 193.074 362.522 188.829 363.528 184.602C364.522 180.419 365.513 176.254 366.499 176.044C367.427 175.847 368.35 179.674 369.27 183.484C370.184 187.269 371.093 191.038 371.999 190.831C373.281 190.538 374.555 190.24 375.821 189.937C374.845 188.426 373.438 184.135 372.028 179.831C370.23 174.349 368.426 168.846 367.499 169.044C366.513 169.254 365.522 173.419 364.528 177.602C363.522 181.829 362.513 186.074 361.499 186.274C348.435 188.85 334.675 190.916 320.499 192.496C319.422 192.616 318.343 185.259 317.262 177.886C316.176 170.488 315.089 163.074 313.999 163.184C312.758 163.308 311.514 170.889 310.267 178.486C309.014 186.124 307.758 193.778 306.499 193.888C279.912 196.221 253.176 196.904 226.499 196.196C225.244 196.163 223.99 190.858 222.738 185.559C221.49 180.278 220.244 175.004 218.999 174.959C217.996 174.922 216.994 180.141 215.993 185.354C214.994 190.559 213.996 195.758 212.999 195.714C195.976 194.948 178.937 193.66 161.999 191.599C161.248 191.507 160.498 186.408 159.747 181.311C158.998 176.22 158.248 171.13 157.499 171.032C156.856 170.948 156.029 176.113 155.176 182.027Z" fill="black" fill-opacity="0.15"/>
</svg>
