<svg viewBox="0 0 512 512" fill="none" xmlns="http://www.w3.org/2000/svg">
<path d="M256.002 92.5C35.0026 92.5 110.501 269 144.002 286.5C89.0009 188 196.501 226 196.501 153.5C205.385 234.577 441.5 162 364.501 307.5C406.001 288 477.001 92.5 256.002 92.5Z" fill="#FF0000"/>
<path fill-rule="evenodd" clip-rule="evenodd" d="M105.07 178.72C98.3347 226.264 126.742 277.484 144.002 286.5C138.781 277.152 135.025 269.033 132.502 261.932C118.764 244.454 104.561 211.703 105.07 178.72ZM129.418 232.6C133.058 219.124 145.366 212.427 158.464 205.3C176.715 195.369 196.501 184.603 196.501 153.5C200.186 187.127 242.96 194.323 286.27 201.608C331.916 209.286 378.157 217.064 379.863 255.991C388.465 205.373 336.715 196.271 285.841 187.324C242.188 179.646 199.181 172.082 195.501 138.5C195.501 169.466 176.254 180.639 158.488 190.952C141.995 200.526 126.778 209.359 129.418 232.6ZM372.934 289.423C388.222 275.957 404.838 243.696 409.142 208.4C407.721 254.497 383.136 298.743 364.501 307.5C367.91 301.058 370.705 295.043 372.934 289.423Z" fill="black" fill-opacity="0.15"/>
</svg>
