<svg viewBox="0 0 512 512" fill="none" xmlns="http://www.w3.org/2000/svg">
<path d="M260 185C219 185 261.5 165 256 159C250.5 153 218.5 185 199.5 185C180.5 185 205.5 159 188 154C170.937 149.125 131.534 151.855 129.576 226.147C129.546 227.27 127.945 227.582 127.583 226.519C116.227 193.16 86.0576 82.8176 256 86.0001C426.462 89.1922 396.03 193.692 384.391 226.733C384.02 227.786 382.45 227.347 382.43 226.23C380.294 110.119 335.772 185 260 185Z" fill="#FF0000"/>
<path fill-rule="evenodd" clip-rule="evenodd" d="M248.195 170.527C246.354 173.376 247.794 175 257 175C283.134 175 306.159 166.071 325.233 158.674C361.76 144.508 383.798 135.962 385.436 206.504C385.45 207.079 386.271 207.342 386.43 206.789C389.371 196.588 394.085 178.987 392.699 159.938C397.514 186.274 389.289 212.83 384.391 226.732C384.02 227.786 382.45 227.347 382.43 226.23C381.002 148.612 360.633 156.342 324.65 169.998C306.805 176.77 285.119 185 260 185C235.148 185 240.975 177.652 248.195 170.527ZM264 148C263.648 153.456 259.641 158.416 255.664 162.554C256.567 161.129 256.83 159.905 256 159C253.43 156.196 245.071 161.691 234.957 168.341C223.429 175.921 209.62 185 199.5 185C190.465 185 191.379 179.121 192.942 172.417C192.971 174.031 193.877 175 196.5 175C202.999 175 216.724 167.022 230.113 159.24C247.628 149.061 264.567 139.215 264 148ZM193.968 167.929C194.097 167.547 194.232 167.155 194.371 166.753C196.857 159.548 200.352 149.418 185 144C168.266 138.094 128.55 141.804 126.577 216.147C126.547 217.27 124.984 217.569 124.64 216.499C124.009 214.535 123.327 212.303 122.636 209.843C124.279 216.44 126.093 222.142 127.583 226.519C127.945 227.582 129.546 227.27 129.576 226.146C131.534 151.855 170.937 149.125 188 154C195.349 156.1 195.203 161.903 193.968 167.929Z" fill="black" fill-opacity="0.15"/>
</svg>
