<svg viewBox="0 0 512 512" fill="none" xmlns="http://www.w3.org/2000/svg">
<path d="M229.5 191.5C245.501 187.5 324.595 167.504 326 128C329.151 39.4586 35.9996 74.5001 117.5 310C124 227 153.5 186.5 232.5 173C231.001 177 229.5 183 229.5 191.5Z" fill="#FF0000"/>
<path fill-rule="evenodd" clip-rule="evenodd" d="M231.486 176.074C231.812 174.94 232.156 173.918 232.5 173C153.5 186.5 124 227 117.5 310C106.754 278.949 102.522 251.383 103.264 227.125C104.428 245.546 108.137 265.732 114.9 287.767C121.399 204.767 159.398 171.767 238.399 158.267C237.181 161.515 233.984 170.04 231.486 176.074ZM230.628 179.584C229.961 182.844 229.5 186.788 229.5 191.5C245.501 187.5 324.595 167.503 326 128C326.118 124.709 325.825 121.589 325.158 118.644C320.266 155.712 247.695 175.283 230.628 179.584Z" fill="black" fill-opacity="0.15"/>
<path d="M434.998 225.5C383.5 214 383.5 102 335 100.5C268.488 98.443 311.499 225.5 434.998 225.5Z" fill="#FF0000"/>
<path fill-rule="evenodd" clip-rule="evenodd" d="M304.502 137.217C315.654 169.173 353.717 206.897 414.187 213.492C420.115 219.423 426.924 223.697 434.998 225.5C356.45 225.5 310.462 174.103 304.502 137.217Z" fill="black" fill-opacity="0.15"/>
</svg>
