<svg viewBox="0 0 512 512" fill="none" xmlns="http://www.w3.org/2000/svg">
<path d="M256.001 102.5C84.0018 102.5 110.5 223.5 128.001 286.5C128.001 157.5 196.5 226 196.5 153.5C205.385 234.577 384.001 149.5 384.001 307.5C410.001 235 428.001 102.5 256.001 102.5Z" fill="#FF0000"/>
<path fill-rule="evenodd" clip-rule="evenodd" d="M127.967 286.38C127.978 286.42 127.989 286.46 128 286.5C128 286.483 128 286.466 128 286.448C127.989 286.425 127.978 286.403 127.967 286.38ZM131.883 241.905C138.549 199.426 155.551 190.23 170.301 182.25C183.85 174.921 195.5 168.619 195.5 138.5C199.076 171.136 229.668 175.23 264.947 179.95C308.755 185.812 359.79 192.641 375.298 256.289C356.594 210.954 310.968 204.017 270.446 197.856C233.157 192.186 200.189 187.173 196.5 153.5C196.5 184.564 183.924 189.742 169.55 195.662C155.227 201.56 139.117 208.194 131.883 241.905Z" fill="black" fill-opacity="0.15"/>
</svg>
