<svg viewBox="0 0 512 512" fill="none" xmlns="http://www.w3.org/2000/svg">
<path d="M76 224.709C145.5 257.708 223.502 194.692 223.502 133.192C223.502 103.192 181.937 91.0854 154.5 110.208C105 144.708 122.501 232.966 76 224.709Z" fill="#FF0000"/>
<path fill-rule="evenodd" clip-rule="evenodd" d="M92.5057 222.716C155.979 236.426 219.502 179.691 219.502 124.192C219.502 121.651 219.204 119.239 218.642 116.963C221.717 121.525 223.502 126.974 223.502 133.192C223.502 194.692 145.5 257.708 76 224.709C82.6999 225.898 88.0712 225.084 92.5057 222.716Z" fill="black" fill-opacity="0.15"/>
<path d="M439.501 195C387.5 230.5 195.5 214 195.5 133.5C195.5 103.5 223.41 81.6823 285 88.9999C386 101 397 207.852 439.501 195Z" fill="#FF0000"/>
<path fill-rule="evenodd" clip-rule="evenodd" d="M201.521 156.855C234.454 216.903 392.986 226.755 439.501 195C433.07 196.945 427.36 196.149 421.951 193.355C372.465 210.163 246.253 200.111 201.521 156.855Z" fill="black" fill-opacity="0.15"/>
</svg>
