<svg viewBox="0 0 512 512" fill="none" xmlns="http://www.w3.org/2000/svg">
<path d="M317 157C320.5 210 374.5 169 384.001 222C401.001 164.5 388.5 116 337.501 120C329.001 100.881 302 90.5 258.501 90.5C170.351 90.5 102.001 113 128.001 222C131 167 186.501 202.5 193.5 158.5C198 181 206.501 190.5 226.501 204C223 184 225 163 231.501 149.5C231.501 186 253.001 203 281.5 217C281.5 184 295.001 164.5 317 157Z" fill="#FF0000"/>
<path fill-rule="evenodd" clip-rule="evenodd" d="M355.617 180.792C339.759 177.657 323.418 174.427 324.5 142.5C322.711 146.079 318.253 148.546 312.786 151.572C299.919 158.693 281.456 168.911 278.999 204C250.5 190 234.501 175 234.501 138.5C225.5 149.5 218.999 172.5 222.499 192.5C207.999 183.5 198.001 169 193.501 146.5C190.228 167.072 175.042 170.593 160.003 174.081C142.874 178.053 125.936 181.981 127.001 211C124.974 202.502 123.526 194.529 122.622 187.052C123.192 197.576 124.945 209.191 128 222C129.593 192.802 145.981 189.109 162.054 185.487C176.258 182.287 190.216 179.142 193.5 158.5C198 181 206.5 190.5 226.5 204C223 184 225 163 231.5 149.5C231.5 186 253 203 281.5 217C281.5 184 295 164.5 317 157C318.76 183.652 333.291 186.534 348.511 189.552C363.557 192.535 379.277 195.652 384 222C389.583 203.118 391.984 185.207 390.886 169.806C390.142 180.915 387.813 193.105 384.001 206C382.165 186.039 369.064 183.45 355.617 180.792Z" fill="black" fill-opacity="0.15"/>
</svg>
