<svg viewBox="0 0 512 512" fill="none" xmlns="http://www.w3.org/2000/svg">
<path d="M181 168.5C176.5 189 156.999 209.5 127.999 222C108.499 154.5 127.999 112.5 290.999 87.5C258 143 420.5 87.5 384.001 222C356.002 212.5 348 185.5 348 165.5C337 190.5 301 208.5 266.5 212C273 198 282.5 174.5 279.5 160C267.5 195.5 228.5 218.5 179 226C185.941 208 186.5 183 181 168.5Z" fill="#FF0000"/>
<path fill-rule="evenodd" clip-rule="evenodd" d="M125.668 213.266C153.803 200.614 174.087 178.105 178.5 158C179.649 161.03 180.468 164.626 180.982 168.586C176.446 189.057 156.959 209.517 128 222C127.145 219.04 126.364 216.128 125.668 213.266ZM181.857 216.842C181.069 220.027 180.117 223.104 179.001 226C228.472 218.504 267.456 195.526 279.48 160.061C279.08 157.154 278.084 154.122 276.5 150.5C265.059 184.346 228.168 208.193 181.857 216.842ZM270.538 202.846C269.155 206.168 267.77 209.265 266.501 212C301.001 208.5 337.001 190.5 348.001 165.5C348.001 185.5 356.002 212.5 384.001 222C394.122 184.705 388.942 162.018 376.872 147.523C386.06 160.914 389.118 181.407 380.5 213.5C353.501 202 350.5 164 350.5 151.5C340.341 174.588 303.316 196.824 270.538 202.846ZM332.57 123.308C328.27 122.124 324.021 121.077 319.944 120.072C295.856 114.134 277.809 109.685 291 87.5C288.211 87.9278 285.464 88.3605 282.758 88.7983C267.435 113.39 286.721 116.206 312.573 119.98C318.978 120.915 325.786 121.909 332.57 123.308Z" fill="black" fill-opacity="0.15"/>
</svg>
