<svg viewBox="0 0 512 512" fill="none" xmlns="http://www.w3.org/2000/svg">
<path d="M255.5 205.5C254 188 257.5 173 264.5 159.5C248.5 180 217.5 199.5 193 205.5C181 197 174.5 181 172.5 165C170 180.5 150 215.5 128 222C110.5 149.5 123.5 112 291 87.5C258.001 143 424.002 85.5 384.002 222C356.002 212.5 348.001 185 348.001 165C328.5 192.5 280.5 204 255.5 205.5Z" fill="#FF0000"/>
<path fill-rule="evenodd" clip-rule="evenodd" d="M255.158 197.458C255.154 200.08 255.266 202.759 255.501 205.5C280.501 204 328.501 192.5 348.002 165C348.002 185 356.003 212.5 384.002 222C393.228 190.519 391.496 169.356 383.774 154.747C389.979 168.077 390.904 186.659 383.002 213C355.002 203.5 351.001 175 351.001 155C331.67 182.261 280.402 195.764 255.158 197.458ZM261.933 164.886C262.011 164.708 262.089 164.53 262.167 164.352C262.089 164.53 262.01 164.708 261.933 164.886ZM264.243 159.828C248.17 180.208 217.37 199.532 193.001 205.5C190.843 203.972 188.863 202.201 187.055 200.231C211.771 193.693 255.727 165.709 271.5 145.5C271.147 146.182 270.781 146.883 270.407 147.601C268.493 151.277 266.338 155.416 264.243 159.828ZM172.452 165.293C169.75 180.937 149.863 215.541 128.001 222C127.238 218.84 126.533 215.747 125.896 212.718C147.594 205.472 169.034 168.289 171.5 153L171.504 153.067L171.504 153.068C171.745 156.79 172.014 160.971 172.452 165.293ZM319.367 119.129C295.626 113.627 278.096 109.205 291.001 87.5C287.669 87.9874 284.398 88.4799 281.187 88.9777C267.664 109.844 286.937 113.3 312.727 117.925C314.899 118.314 317.118 118.712 319.367 119.129Z" fill="black" fill-opacity="0.15"/>
</svg>
