<svg viewBox="0 0 512 512" fill="none" xmlns="http://www.w3.org/2000/svg">
<path fill-rule="evenodd" clip-rule="evenodd" d="M167 206C176.389 206 185.219 204.025 192.911 200.552C204.925 205.858 219.841 209 236 209C258.495 209 278.581 202.91 291.784 193.372C302.971 202.942 319.526 209 338 209C371.689 209 399 188.853 399 164C399 143.743 380.855 126.612 355.902 120.969C350.837 101.585 328.853 87 302.5 87C285.701 87 270.678 92.9269 260.68 102.245C250.717 92.8749 236.404 87 220.5 87C197.329 87 177.535 99.4701 169.651 117.053C168.772 117.018 167.889 117 167 117C137.177 117 113 136.923 113 161.5C113 186.077 137.177 206 167 206Z" fill="#FF0000"/>
<path fill-rule="evenodd" clip-rule="evenodd" d="M169.55 177.936C163.999 179.275 158.06 180 151.888 180C137.166 180 123.773 175.875 113.791 169.133C118.184 190.073 140.335 206 167 206C176.389 206 185.219 204.025 192.911 200.552C204.925 205.858 219.841 209 236 209C258.495 209 278.581 202.91 291.784 193.372C302.971 202.942 319.526 209 338 209C371.689 209 399 188.853 399 164C399 156.349 396.412 149.145 391.846 142.836C391.948 143.881 392 144.936 392 146C392 170.853 363.734 191 328.867 191C309.747 191 292.613 184.942 281.035 175.372C267.371 184.91 246.582 191 223.301 191C202.179 191 183.11 185.988 169.55 177.936Z" fill="black" fill-opacity="0.15"/>
</svg>
