<svg viewBox="0 0 512 512" fill="none" xmlns="http://www.w3.org/2000/svg">
<path d="M192.911 200.552C222.869 213.782 264.751 212.902 291.784 193.372C321.664 218.935 399 214.219 399 164C399 143.743 380.855 126.612 355.902 120.969C345.674 81.8276 286.781 77.9173 260.68 102.246C234.809 77.9132 184.935 82.9699 169.651 117.053C143.805 116.023 113 132.49 113 161.5C113 200.406 162.719 214.185 192.911 200.552Z" fill="#FF0000"/>
<path fill-rule="evenodd" clip-rule="evenodd" d="M286.784 173.372C259.751 192.902 217.869 193.782 187.911 180.552C163.512 191.569 126.36 184.685 113.002 161.104C113.001 161.236 113 161.368 113 161.5C113 200.406 162.719 214.185 192.911 200.552C222.869 213.782 264.751 212.902 291.784 193.372C321.664 218.935 399 214.22 399 164C399 157.621 397.201 151.552 393.956 146.054C391.874 194.344 316.252 198.582 286.784 173.372Z" fill="black" fill-opacity="0.15"/>
</svg>
