<svg viewBox="0 0 512 512" fill="none" xmlns="http://www.w3.org/2000/svg">
<path d="M343.498 150.5C217.498 274 146.5 89.5 127.999 222C65.0006 51 447.001 51 383.999 222C383.999 172 343.498 195 343.498 150.5Z" fill="#FF0000"/>
<path fill-rule="evenodd" clip-rule="evenodd" d="M188.786 168.838C227.163 182.179 280.81 200.828 348.499 135.5C348.499 165.78 359.662 171.652 369.807 176.988C378.257 181.432 386.001 185.505 386.001 203C389.121 190.59 390.072 179.129 389.176 168.608C392.672 184.025 391.434 201.822 384 222C384 196.272 373.276 189.872 362.865 183.659C353.042 177.798 343.498 172.102 343.498 150.5C277.067 215.613 225.925 195.11 189.704 180.59C157.226 167.569 136.746 159.358 127.999 222C126.186 217.079 124.742 212.3 123.645 207.662C132.849 149.393 154.846 157.04 188.786 168.838Z" fill="black" fill-opacity="0.15"/>
</svg>
