<svg viewBox="0 0 512 512" fill="none" xmlns="http://www.w3.org/2000/svg">
<path d="M341.001 152C310 200 161 236.5 124.001 208C87.0008 179.5 88.0016 86 256.001 86C363.501 86 405 117 384 223C359 205 346 180.5 341.001 152Z" fill="#FF0000"/>
<path fill-rule="evenodd" clip-rule="evenodd" d="M122 194C158.999 222.5 311.999 184 343 136C347.999 164.5 356.999 191 382 209C386.524 186.163 388.147 166.807 386.834 150.492C390.866 169.4 389.896 193.245 384.002 223C359.001 205 346.001 180.5 341.002 152C310.001 200 161.001 236.5 124.002 208C112.452 199.104 104.606 183.874 104.385 167.132C107.441 178.137 113.783 187.671 122 194Z" fill="black" fill-opacity="0.15"/>
</svg>
