<svg viewBox="0 0 512 512" fill="none" xmlns="http://www.w3.org/2000/svg">
<path d="M341.001 152C310 200 161 236.5 124.001 208C87.0008 179.5 88.0016 86 256.001 86C363.501 86 405 117 384 223C359 205 346 180.5 341.001 152Z" fill="#FF0000"/>
<path fill-rule="evenodd" clip-rule="evenodd" d="M142.001 194C179 222.5 312 184 343.001 136C348 164.5 357 191 382 209C386.778 184.886 388.32 165.274 386.587 149.364C390.904 168.449 390.015 192.651 384.002 223C359.002 205 346.002 180.5 341.003 152C310.002 200 161.002 236.5 124.002 208C102.162 191.177 93.5622 151.704 124.737 122.184C107.11 147.387 121.898 178.516 142.001 194Z" fill="black" fill-opacity="0.15"/>
</svg>
