<svg viewBox="0 0 512 512" fill="none" xmlns="http://www.w3.org/2000/svg">
<path d="M127.998 222C147.5 209 164.16 186.5 164.16 162.145C190.999 205 207.499 185.5 230.999 188C254.499 190.5 261.461 201.981 279.73 201.981C297.999 201.981 308 194.681 325 192.09C342 189.5 353.498 211.981 374.999 211.981C434.975 211.981 435.5 127.187 382.999 107.5C364.498 100.563 350.998 106.972 330 103.5C309.001 100.028 298.999 87.5 278.999 87.5C258.999 87.5 247.999 94.5 228.999 96.5C209.999 98.5 180.5 82 159.16 113.145C134.498 111.5 126.998 129.5 126.998 139.5C126.998 149.5 117.998 153 117.498 163.5C116.998 174 122.771 178 119.498 190C116.226 202 121.998 216.5 127.998 222Z" fill="#FF0000"/>
<path fill-rule="evenodd" clip-rule="evenodd" d="M123.057 215.239C124.542 218.061 126.26 220.408 127.997 222C147.498 209 164.158 186.5 164.158 162.145C183.88 193.635 198.019 191.457 213.455 189.079C219.025 188.221 224.765 187.337 230.997 188C242.709 189.246 250.313 192.723 257.256 195.897C264.245 199.092 270.564 201.981 279.728 201.981C290.482 201.981 298.371 199.452 306.509 196.842C312.196 195.019 318.005 193.156 324.998 192.09C333.424 190.807 340.498 195.681 348.108 200.925C355.853 206.262 364.152 211.981 374.997 211.981C419.045 211.981 431.026 166.244 413.485 134.153C419.485 162.22 403.865 193.981 368.999 193.981C358.235 193.981 351.231 189.851 344.788 186.05C338.36 182.259 332.489 178.797 324 180.09C317.141 181.136 311.096 182.947 305.125 184.737C296.296 187.383 287.628 189.981 276.73 189.981C267.566 189.981 261.247 187.092 254.258 183.897C247.315 180.723 239.711 177.246 227.999 176C222.25 175.388 216.801 175.914 211.455 176.429C194.949 178.021 179.434 179.517 159.16 147.145C159.16 170.419 151.25 195.196 123.057 215.239Z" fill="black" fill-opacity="0.15"/>
</svg>
