<svg viewBox="0 0 512 512" fill="none" xmlns="http://www.w3.org/2000/svg">
<path d="M362 170C376.999 177 380 222 384 222C388.001 222 400 166 397 152C394 138 382 136.5 371.5 126C361 115.5 365 106 353.5 99.5C342 93 325 99 313 95C301 91 303.5 79.5 288 78C272.501 76.5 261 80.5 248 82.5C235 84.5 219.5 75 207.5 79C195.5 83 195.5 94 186 98.5C176.5 103 165.001 100.5 154.001 106.5C143.001 112.5 146.5 123 139 132C131.5 141 119.669 146 115.001 160C110.333 174 123.999 222 128 222C132.001 222 140.501 173 150 170C159.5 167 170 182 180.5 179C191 176 190.501 163 202 161.5C213.499 160 227.001 182 239.5 179C251.999 176 269.001 160.5 280 160.5C290.999 160.5 305 179 317.499 180C332.235 181.179 347.001 163 362 170Z" fill="#FF0000"/>
<path fill-rule="evenodd" clip-rule="evenodd" d="M384.792 190.016C383.127 181.364 379.262 161.286 359 157C343.529 153.727 334.514 158.307 326.646 162.305C321.291 165.026 316.467 167.477 310.499 167C304.229 166.498 297.581 161.593 291.124 156.828C284.709 152.095 278.482 147.5 273 147.5C266.967 147.5 259.129 152.162 251.219 156.868C244.706 160.742 238.144 164.645 232.5 166C225.942 167.574 219.108 162.266 212.433 157.081C206.384 152.384 200.466 147.787 195 148.5C188.941 149.29 186.214 153.273 183.453 157.303C180.974 160.923 178.468 164.581 173.5 166C168.163 167.525 162.826 164.4 157.621 161.351C152.584 158.402 147.671 155.525 143 157C137.35 158.784 132.053 176.842 127.847 191.183C125.357 199.672 123.249 206.859 121.676 208.599C124.168 216.462 126.642 222 128.001 222C129.622 222 131.982 213.954 134.848 204.183C139.055 189.842 144.351 171.784 150.001 170C154.673 168.525 159.586 171.402 164.622 174.351C169.828 177.4 175.164 180.525 180.501 179C185.469 177.581 187.975 173.923 190.454 170.303C193.215 166.273 195.943 162.29 202.001 161.5C207.467 160.787 213.386 165.384 219.434 170.081C226.11 175.266 232.943 180.574 239.501 179C245.145 177.645 251.707 173.742 258.22 169.868C266.131 165.162 273.969 160.5 280.001 160.5C285.483 160.5 291.71 165.095 298.125 169.828C304.582 174.593 311.23 179.498 317.5 180C323.886 180.511 330.278 177.387 336.691 174.251C345.078 170.152 353.502 166.033 362.001 170C371.7 174.526 376.382 194.941 379.561 208.804C381.299 216.38 382.587 222 384.001 222C388.002 222 400.001 166 397.001 152C396.15 148.029 394.575 145.064 392.515 142.613C393.969 158.971 387.848 194 386 194C385.559 194 385.263 192.466 384.792 190.016Z" fill="black" fill-opacity="0.15"/>
</svg>
