<svg viewBox="0 0 512 512" fill="none" xmlns="http://www.w3.org/2000/svg">
<path d="M362 187C376.999 194 380 222 384.001 222C388.001 222 398.001 189 388.001 160C376.448 126.496 321.5 90 256.001 90C190.501 90 135.554 126.496 124.001 160C114.001 189 123.999 222 128 222C132.001 222 140.501 190 150 187C159.5 184 170 196 180.5 193C191 190 190.501 180 202 178.5C213.5 177 227.001 194 239.5 191C252 188 269.001 177.5 280 177.5C290.999 177.5 305 192 317.499 193C332.235 194.179 347.001 180 362 187Z" fill="#FF0000"/>
<path fill-rule="evenodd" clip-rule="evenodd" d="M383.021 197.634C381.304 191.66 376.865 176.21 355.997 173C346.628 171.559 338.659 173.798 330.973 175.958C324.502 177.777 318.232 179.539 311.496 179C305.278 178.503 298.688 174.664 292.28 170.931C285.809 167.161 279.524 163.5 273.997 163.5C267.538 163.5 259.008 167.121 250.536 170.718C244.582 173.246 238.656 175.762 233.497 177C226.894 178.585 220.011 174.588 213.291 170.685C207.291 167.201 201.422 163.793 195.997 164.5C189.886 165.297 187.164 168.495 184.378 171.767C181.922 174.652 179.417 177.594 174.497 179C169.169 180.522 163.841 178.182 158.644 175.9C153.599 173.684 148.677 171.522 143.997 173C138.409 174.765 133.167 186.565 128.983 195.983C126.055 202.575 123.645 208 121.997 208C121.953 208 121.909 207.996 121.863 207.988C123.727 216.487 126.365 222 128 222C129.647 222 132.057 216.575 134.985 209.983C139.169 200.565 144.412 188.765 150 187C154.679 185.522 159.601 187.684 164.646 189.9C169.844 192.182 175.172 194.522 180.5 193C185.42 191.594 187.925 188.652 190.381 185.767C193.166 182.495 195.889 179.297 202 178.5C207.424 177.793 213.294 181.201 219.293 184.685C226.013 188.588 232.896 192.585 239.5 191C244.659 189.762 250.585 187.246 256.539 184.718C265.011 181.121 273.54 177.5 280 177.5C285.527 177.5 291.812 181.161 298.283 184.931C304.69 188.664 311.28 192.503 317.499 193C323.676 193.494 329.859 191.29 336.062 189.077C344.656 186.013 353.288 182.935 361.999 187C371.577 191.47 376.262 204.501 379.44 213.338C381.238 218.341 382.554 222 384 222C388.001 222 398 189 388 160C386.84 156.635 385.242 153.24 383.239 149.854C391.428 177.18 385.434 200 383.998 200C383.701 200 383.443 199.104 383.021 197.634Z" fill="black" fill-opacity="0.15"/>
</svg>
