<svg viewBox="0 0 512 512" fill="none" xmlns="http://www.w3.org/2000/svg">
<path d="M361.999 187C376.998 194 379.999 222 384 222C392 222 426.499 90 256 90C85.5006 90 119.999 222 127.999 222C132 222 140.5 190 149.999 187C159.499 184 169.999 196 180.499 193C190.999 190 190.5 180 201.999 178.5C213.499 177 227 194 239.499 191C251.999 188 269 177.5 279.999 177.5C290.999 177.5 304.999 192 317.499 193C332.234 194.179 347 180 361.999 187Z" fill="#FF0000"/>
<path fill-rule="evenodd" clip-rule="evenodd" d="M383.02 197.634C381.304 191.66 376.864 176.21 355.996 173C346.627 171.559 338.658 173.798 330.973 175.958C324.501 177.777 318.231 179.539 311.496 179C305.277 178.503 298.687 174.663 292.28 170.931C285.808 167.161 279.523 163.5 273.996 163.5C267.537 163.5 259.008 167.121 250.535 170.718C244.581 173.246 238.655 175.762 233.497 177C226.893 178.585 220.01 174.588 213.29 170.685C207.29 167.201 201.421 163.792 195.997 164.5C189.885 165.297 187.163 168.495 184.377 171.767C181.921 174.652 179.416 177.594 174.497 179C169.169 180.522 163.84 178.182 158.643 175.9C153.598 173.684 148.676 171.522 143.997 173C138.408 174.765 133.166 186.565 128.982 195.983C126.054 202.575 123.644 208 121.997 208C121.934 208 121.871 207.996 121.809 207.989C123.679 216.602 126.381 222 127.999 222C129.646 222 132.056 216.575 134.984 209.983C139.168 200.565 144.41 188.765 149.999 187C154.678 185.522 159.6 187.684 164.645 189.9C169.842 192.182 175.171 194.522 180.499 193C185.418 191.594 187.923 188.652 190.379 185.767C193.165 182.495 195.887 179.297 201.999 178.5C207.423 177.792 213.292 181.201 219.292 184.685C226.012 188.588 232.895 192.585 239.499 191C244.657 189.762 250.583 187.246 256.537 184.718C265.01 181.121 273.539 177.5 279.999 177.5C285.525 177.5 291.81 181.161 298.282 184.931C304.689 188.663 311.279 192.502 317.498 193C323.675 193.494 329.858 191.289 336.061 189.077C344.655 186.013 353.287 182.934 361.998 187C371.575 191.47 376.261 204.501 379.438 213.338C381.237 218.341 382.553 222 383.999 222C389.006 222 404.391 170.301 373.412 131.612C392.553 164.588 387.204 200 383.997 200C383.7 200 383.443 199.104 383.02 197.634Z" fill="black" fill-opacity="0.15"/>
</svg>
