<svg viewBox="0 0 512 512" fill="none" xmlns="http://www.w3.org/2000/svg">
<path d="M394 157C394 194.5 353 227 250 184C174.874 152.637 140.575 205.328 128 204.908C123.334 204.753 121.659 197.285 122 175.5C123.172 100.463 219.038 111.01 167.658 83.6313C164.035 81.7006 164.989 76.0821 169.086 75.8214C306.443 67.0812 394 116.465 394 157Z" fill="#FF0000"/>
<path fill-rule="evenodd" clip-rule="evenodd" d="M246.5 167.5C348.5 205.5 367.5 177.5 367.5 140C367.5 128.61 360.146 116.08 346.514 104.136C377.105 119.68 394 139.194 394 157C394 194.5 353 227 250 184C193.618 160.462 160.231 184.268 141.765 197.434C133.951 203.006 128.809 206.673 125.727 204.04C126.254 203.492 126.791 202.932 127.338 202.361C147.957 180.852 183.32 143.962 246.5 167.5Z" fill="black" fill-opacity="0.15"/>
<path fill-rule="evenodd" clip-rule="evenodd" d="M179.957 102.063C196.417 92.0462 202.356 85.7451 174.673 75.4966C172.82 75.5943 170.958 75.7026 169.086 75.8217C164.989 76.0824 164.035 81.7009 167.658 83.6316C183.829 92.2487 185.414 97.1089 179.957 102.063Z" fill="black" fill-opacity="0.15"/>
</svg>
