<svg viewBox="0 0 512 512" fill="none" xmlns="http://www.w3.org/2000/svg">
<path d="M394 157C394 194.5 353 227 250 184C174.874 152.637 140.575 205.328 128 204.908C123.334 204.753 121.659 197.285 122 175.5C123.172 100.466 219.031 111.878 167.664 84.6212C164.037 82.6968 164.989 77.0805 169.086 76.8179C306.443 68.0126 394 116.465 394 157Z" fill="#FF0000"/>
<path fill-rule="evenodd" clip-rule="evenodd" d="M246.5 167.5C348.5 205.5 367.5 177.5 367.5 140C367.5 128.895 360.509 116.707 347.526 105.034C377.477 120.288 394 139.391 394 157C394 194.5 353 227 250 184C193.618 160.462 160.231 184.268 141.765 197.435C135.627 201.812 131.137 205.013 128 204.908C127.143 204.88 126.388 204.605 125.727 204.04C126.254 203.492 126.791 202.932 127.338 202.361C147.957 180.853 183.32 143.963 246.5 167.5Z" fill="black" fill-opacity="0.15"/>
<path fill-rule="evenodd" clip-rule="evenodd" d="M181.571 101.07C196.324 91.9017 201.144 85.7755 176.98 76.3716C174.368 76.4993 171.736 76.6479 169.086 76.8178C164.989 77.0804 164.037 82.6967 167.664 84.6211C181.937 92.1952 184.843 96.7835 181.571 101.07Z" fill="black" fill-opacity="0.15"/>
</svg>
