<svg viewBox="0 0 512 512" fill="none" xmlns="http://www.w3.org/2000/svg">
<path fill-rule="evenodd" clip-rule="evenodd" d="M112 214C151 207.5 182 191 202 169C199.5 177 196.5 188.5 196.5 200.5C231.5 197.5 268 190 307 158C324 180.5 342.862 202.016 395 202C405.5 48 101 50.5001 112 214Z" fill="#FF0000"/>
<path fill-rule="evenodd" clip-rule="evenodd" d="M135.527 208.611C163.558 200.313 186.208 186.371 202 169C199.5 177 196.5 188.5 196.5 200.5C231.5 197.5 268 190 307 158C322.822 178.942 340.258 199.031 384.637 201.7C334.389 191.406 321.839 163.412 315.568 149.423C315.001 148.16 314.486 147.012 313.999 146C274.999 178 238.499 185.5 203.499 188.5C203.499 176.5 208.499 156 210.999 148C200.401 165.272 173.469 190.556 135.527 208.611Z" fill="black" fill-opacity="0.15"/>
</svg>
