<svg viewBox="0 0 512 512" fill="none" xmlns="http://www.w3.org/2000/svg">
<path d="M225.883 168.507C214.299 162.178 201.451 155.159 176.5 156C145.27 156.702 138.42 193.851 134.346 215.944C132.615 225.331 131.386 232 129 232C121 232 110 138 153 110C175.055 95.6758 192.079 91.2773 205.479 87.3542C221.547 82.6501 235.28 78.6295 256 57C276.72 78.6295 290.453 82.6501 306.521 87.3542C319.921 91.2773 336.945 95.6758 359 110C402 138 391 232 383 232C380.614 232 379.385 225.331 377.654 215.945L377.654 215.944C373.58 193.851 366.731 156.702 335.5 156C310.549 155.159 297.701 162.178 286.117 168.507C277.041 173.465 268.74 178 256 178C243.261 178 234.96 173.465 225.883 168.507Z" fill="#FF0000"/>
<path fill-rule="evenodd" clip-rule="evenodd" d="M176.501 141C201.453 140.159 214.3 147.178 225.885 153.507C234.961 158.465 243.262 163 256.001 163C268.741 163 277.042 158.465 286.118 153.507C297.702 147.178 310.55 140.159 335.501 141C366.732 141.702 375.582 178.851 379.655 200.944C380.215 203.98 380.827 208.822 381.479 213.985C382.269 220.238 383.118 226.961 384.007 231.516C383.672 231.835 383.335 232 383 232C380.614 232 379.384 225.331 377.654 215.944C373.58 193.851 366.73 156.702 335.5 156C310.548 155.159 297.701 162.178 286.116 168.507C277.04 173.465 268.739 178 256 178C243.26 178 234.959 173.465 225.883 168.507C214.298 162.178 201.451 155.159 176.5 156C145.269 156.702 138.419 193.852 134.346 215.944C132.615 225.331 131.385 232 129 232C128.455 232 127.905 231.564 127.367 230.741C128.527 225.456 129.71 217.707 130.728 211.044C131.342 207.021 131.896 203.394 132.347 200.944C136.421 178.851 145.271 141.702 176.501 141Z" fill="black" fill-opacity="0.15"/>
</svg>
