<svg viewBox="0 0 512 512" fill="none" xmlns="http://www.w3.org/2000/svg">
<path d="M129 228C125 228 106 154 149 126C182.798 104.049 227.138 106.128 256 76C284.861 106.128 329.202 105.049 363 127C406 155 387.5 228 382.999 228C378.499 228 379.999 168 335.5 167C291 165.5 285 189 256 189C227 189 220.999 165.5 176.5 167C132 168 133 228 129 228Z" fill="#FF0000"/>
<path fill-rule="evenodd" clip-rule="evenodd" d="M176.501 152C201.453 151.159 214.3 158.178 225.885 164.507C234.961 169.465 243.262 174 256.001 174C268.741 174 277.042 169.465 286.118 164.507C297.702 158.178 310.55 151.159 335.501 152C366.732 152.702 378.582 189.851 382.655 211.944C383.301 215.445 383.598 221.349 383.841 227.378C383.528 227.786 383.243 228 383 228C381.912 228 381.175 224.494 380.054 219.164C376.537 202.441 369.244 167.758 335.5 167C310.549 166.159 297.701 173.178 286.117 179.507C277.041 184.465 268.74 189 256 189C243.261 189 234.96 184.465 225.883 179.507C214.299 173.178 201.451 166.159 176.5 167C142.283 167.769 134.967 203.422 131.595 219.857C130.582 224.796 129.925 228 129 228C128.702 228 128.32 227.588 127.887 226.815C128.293 220.984 128.722 215.336 129.347 211.944C133.421 189.851 145.271 152.702 176.501 152Z" fill="black" fill-opacity="0.15"/>
</svg>
