<svg viewBox="0 0 512 512" fill="none" xmlns="http://www.w3.org/2000/svg">
<path d="M262 185C264 167 271 152.5 278 141C269 152.5 221 190.5 173 193C168 187.5 161 175.5 156 159C156.979 184.948 147.891 206.102 130.614 230.442C130.147 231.1 129.152 231.015 128.887 230.253C119.281 202.626 83.9201 85.9999 256 86C428.83 85.9999 392.889 202.68 383.015 230.557C382.769 231.254 381.905 231.383 381.411 230.833C365.224 212.799 359.13 174.545 365 154C344.5 178.5 300.958 185 262 185Z" fill="#FF0000"/>
<path fill-rule="evenodd" clip-rule="evenodd" d="M264.146 172.996C263.202 176.812 262.465 180.811 262 185C300.958 185 344.5 178.5 365 154C364.926 154.258 364.855 154.519 364.785 154.782C365.729 152.146 366.805 149.546 368 147C337.682 171.633 301.045 172.928 264.146 172.996ZM369.818 210.697C372.782 218.511 376.662 225.542 381.411 230.833C381.905 231.383 382.769 231.254 383.015 230.557C387.745 217.202 398.458 183.466 389.333 151.942C393.064 179.724 383.196 207.025 378.966 218.713C378.729 219.368 377.929 219.516 377.408 219.053C374.472 216.442 371.952 213.644 369.818 210.697ZM276.426 142.649C275.402 143.749 274.36 144.869 273.318 146.01C257.797 160.885 215.399 190.792 173 193C168 187.5 161 175.5 156 159C156.979 184.948 147.891 206.102 130.614 230.442C130.147 231.1 129.152 231.015 128.887 230.253C127.87 227.328 126.565 223.407 125.247 218.732C125.663 219.007 126.277 218.918 126.615 218.442C143.892 194.102 152.98 172.948 152.001 147C157.001 163.5 164.001 175.5 169.001 181C217.001 178.5 273.5 142 286.5 130.5C284.163 134.339 280.433 138.346 276.426 142.649Z" fill="black" fill-opacity="0.15"/>
</svg>
