<svg viewBox="0 0 512 512" fill="none" xmlns="http://www.w3.org/2000/svg">
<path fill-rule="evenodd" clip-rule="evenodd" d="M115 215C195 225 284 204 314.5 162.5C314.5 186.5 350 215 397.001 215C410 177 397.001 106 332.5 109.5C287 58.4999 91.0002 78.0177 115 215Z" fill="#FF0000"/>
<path fill-rule="evenodd" clip-rule="evenodd" d="M324 139C293.5 180.5 203.5 208.482 123.5 198.482C120.647 170.495 126.058 147.014 137.146 127.952C118.345 148.808 108.43 177.503 115 215C195 225 284 204 314.5 162.5C314.5 186.5 349.999 215 397 215C398.725 209.959 399.992 204.337 400.742 198.385C355.96 196.331 324 162.269 324 139Z" fill="black" fill-opacity="0.15"/>
</svg>
