<svg width="512" height="512" viewBox="0 0 512 512" fill="none" xmlns="http://www.w3.org/2000/svg">
<path d="M127.573 111C143.064 91 178.044 83 256 83C333.955 83 368.936 91 384.427 111C399.385 130.312 400.017 146.976 384 224C369.5 208 368.936 191.5 368.936 170C344.45 186.5 302.474 194 256 194C209.527 194 167.55 186.5 143.064 170C143.064 194 140.5 208.5 128 224C111.983 146.976 112.615 130.312 127.573 111Z" fill="#FF0000"/>
<path fill-rule="evenodd" clip-rule="evenodd" d="M127.812 223.099C127.875 223.399 127.937 223.699 128 224C140.499 208.5 143.064 194 143.064 170C167.55 186.5 209.526 194 256 194C302.473 194 344.449 186.5 368.936 170C368.936 191.5 369.5 208 384 224C384.064 223.691 384.128 223.382 384.192 223.075C375.605 198.622 377.908 164.014 379.14 150.454C353.959 167.419 303.792 179.131 256 179.131C208.208 179.131 158.041 169.419 132.86 152.454C135.407 166.574 137.071 202.325 127.812 223.099Z" fill="black" fill-opacity="0.15"/>
</svg>
