<svg viewBox="0 0 512 512" fill="none" xmlns="http://www.w3.org/2000/svg">
<path d="M127.573 108C143.064 88 178.044 80 256 80C333.955 80 368.936 88 384.427 108C399.385 127.312 402.23 154.548 386.212 231.572C385.52 234.902 381.354 235.804 379.662 232.853C370.78 217.37 366.363 195.314 368.936 167C344.45 183.5 302.474 191 256 191C209.527 191 167.55 183.5 143.064 167C145.637 195.314 141.22 217.37 132.338 232.853C130.646 235.804 126.48 234.902 125.788 231.572C109.77 154.548 112.615 127.312 127.573 108Z" fill="#FF0000"/>
<path fill-rule="evenodd" clip-rule="evenodd" d="M128.067 234.381C129.551 234.978 131.359 234.561 132.339 232.853C141.22 217.37 145.637 195.314 143.064 167C167.551 183.5 209.527 191 256 191C302.474 191 344.45 183.5 368.936 167C366.364 195.314 370.781 217.37 379.662 232.853C380.734 234.722 382.799 235.046 384.344 234.185C373.002 206.325 375.44 183.157 377.984 158.967C378.385 155.162 378.788 151.332 379.14 147.454C353.959 164.419 303.792 176.131 256 176.131C208.208 176.131 158.041 166.419 132.86 149.454C138.955 183.246 138.508 199.753 128.067 234.381Z" fill="black" fill-opacity="0.15"/>
</svg>
