<svg viewBox="0 0 512 512" fill="none" xmlns="http://www.w3.org/2000/svg">
<path d="M255.999 84C383.999 84 414 118 383.999 224C369.499 208 368.935 191.5 368.935 170C314.282 206.828 197.716 206.828 143.063 170C143.063 194 140.499 208.5 127.999 224C97.9998 118 127.999 84 255.999 84Z" fill="#FF0000"/>
<path fill-rule="evenodd" clip-rule="evenodd" d="M384.23 223.182C375.599 198.724 377.906 164.034 379.14 150.454C318.445 191.347 193.993 193.642 132.86 152.454C135.411 166.595 137.076 202.431 127.771 223.192C127.847 223.461 127.923 223.73 127.999 224C140.499 208.5 143.064 194 143.064 170C197.717 206.828 314.283 206.828 368.936 170C368.936 191.5 369.499 208 383.999 224C384.077 223.727 384.154 223.454 384.23 223.182Z" fill="black" fill-opacity="0.15"/>
</svg>
