<svg xmlns="http://www.w3.org/2000/svg" width="123" height="28" fill="none" xmlns:v="https://vecta.io/nano"><g clip-path="url(#A)"><path fill-rule="evenodd" d="M17.6252 10.7724C23.2056 10.7724 28 8.426 28 4.7514S25.7483 0 22.2238 0c-1.43 0-2.8918.192-4.4608.398-2.2978.3017-4.826.6337-7.823.4374C5.3585.5354-.0006 2.1466 0 7.2448v.002c.0001 1.3698.0003 2.5443.5906 4.211 0-3.1622 5.2622-2.3044 10.4625-1.4567 2.372.3867 4.731.7713 6.572.7713zm61.769 12.724h3.411V10.7692h-3.411v12.7273zm1.68-14.28c1.12 0 2.0364-.9164 2.0364-2.011 0-1.12-.9164-2.0364-2.0364-2.0364-1.0945 0-2.011.9164-2.011 2.0364 0 1.0946.9164 2.011 2.011 2.011zm14.678 12.88c-1.2218 1.0437-2.9273 1.6546-4.76 1.6546-3.7928 0-6.7964-2.9273-6.7964-6.6182s3.0036-6.6182 6.7964-6.6182c1.7563 0 3.2836.5855 4.5563 1.629l-2.0618 2.3927c-.5854-.5345-1.4-.8654-2.4182-.8654-1.9854 0-3.411 1.451-3.411 3.4618 0 1.9855 1.349 3.4618 3.5127 3.4618 1.069 0 2.1128-.4072 2.7746-1.0436l1.8073 2.5454zm13.5618-4.9636c0 3.691-3.003 6.6182-6.82 6.6182-3.793 0-6.7968-2.9273-6.7968-6.6182s3.0037-6.6182 6.7968-6.6182c3.818 0 6.82 2.9273 6.82 6.6182zm-10.156 0c0 2.011 1.426 3.4618 3.335 3.4618s3.334-1.451 3.334-3.4618c0-1.9854-1.425-3.4618-3.334-3.4618s-3.335 1.4764-3.335 3.4618zm-25.3866 6.3636h-3.411V10.7692h3.36v2.4436c.3564-1.0436 1.6546-2.6982 4.4546-2.6982V14.23c-2.9527 0-4.4037 1.349-4.4037 4.3782v4.8872zm-7.8795.2547c1.349 0 2.469-.4582 3.2327-.9673l-.9673-2.52c-.1018.0764-.8145.5345-1.629.5345-.611 0-1.1454-.3563-1.1454-1.451v-5.829h3.5127v-2.75H65.383V7.562l-3.411.7636v2.4437h-1.8582v2.75h1.8582v5.88c0 2.8764 1.3745 4.3528 3.92 4.3528zm-10.266-1.782c-.89 1.2218-2.4946 1.7818-3.97 1.7818-3.5127 0-5.7527-2.9527-5.7527-6.6182s2.24-6.6182 5.7527-6.6182c1.4764 0 3.0546.5855 3.97 1.8073v-1.5527h3.3345v12.7272H55.626v-1.5272zm-6.262-4.8364c0 2.011 1.3237 3.4618 3.1564 3.4618 1.7564 0 3.029-1.4254 3.029-3.4618 0-1.9854-1.2727-3.4618-3.029-3.4618-1.8327 0-3.1564 1.4764-3.1564 3.4618zm-16.5413 6.3636h3.411v-6.44c0-1.9345 1.1455-3.31 2.851-3.31 1.73 0 2.2146.9927 2.2146 2.851v6.898h3.411v-7.331c0-3.4872-1.171-5.651-4.531-5.651-1.5527 0-3.0036.56-4.0218 1.96v-1.7054h-3.3346v12.7272zm81.0992 0h-3.4V10.7692h3.334v1.7054c1.018-1.4 2.47-1.96 4.022-1.96 3.36 0 4.5 2.1637 4.5 5.651v7.331h-3.4v-6.898c0-1.8582-.484-2.851-2.215-2.851-1.705 0-2.85 1.3745-2.85 3.31v6.44zM17.6253 12.143c3.0564 0 5.9953-.4993 8.0286-1.6667v12.8243C25.654 25.896 23.55 28 20.9546 28H5.2903C2.695 28 .59 25.896.59 23.3006v-9.3444c.0398-4.4247 5.713-3.4574 11.0894-2.5407 2.157.3678 4.2664.7275 5.945.7275zm-6.363 4.7972c0 .865-.7013 1.5665-1.5664 1.5665a1.567 1.567 0 0 1-1.5664-1.5665c0-.865.7013-1.5664 1.5664-1.5664s1.5664.7013 1.5664 1.5664zm6.853 0c0 .865-.7013 1.5665-1.5664 1.5665s-1.5664-.7014-1.5664-1.5665.7013-1.5664 1.5664-1.5664 1.5664.7013 1.5664 1.5664zm-4.993 6.7553c1.406 0 2.5455-.9643 2.5455-2.154h-5.091c0 1.1896 1.1396 2.154 2.5454 2.154z" fill="#000"/></g><defs><clipPath id="A"><path fill="#fff" d="M0 0h122.378v28H0z"/></clipPath></defs></svg>